<svg xmlns="http://www.w3.org/2000/svg" xmlns:xlink="http://www.w3.org/1999/xlink" width="1920" height="330" viewBox="0 0 1920 330">
  <defs>
    <clipPath id="clip-path">
      <rect id="Rectangle_127" data-name="Rectangle 127" width="1920" height="330" transform="translate(0 750)" fill="#fff"/>
    </clipPath>
    <clipPath id="clip-path-2">
      <rect id="Rectangle_126" data-name="Rectangle 126" width="1920" height="960" fill="#fafafa"/>
    </clipPath>
  </defs>
  <g id="bg-cruve" transform="translate(0 -750)" clip-path="url(#clip-path)">
    <g id="Group_1106" data-name="Group 1106" transform="translate(0 590)">
      <rect id="Rectangle_125" data-name="Rectangle 125" width="1920" height="960" fill="#fff"/>
      <g id="Group_1105" data-name="Group 1105" clip-path="url(#clip-path-2)">
        <g id="Group_1104" data-name="Group 1104" transform="translate(-1169.762 -200.901)">
          <g id="Group_1102" data-name="Group 1102" transform="translate(86.9 175.625)">
            <g id="triangle36" transform="translate(2877.488 589.135)">
              <path id="Path_1239" data-name="Path 1239" d="M-40.382,414.109a.843.843,0,0,0,.533-.2l293.717-243.28a.834.834,0,0,0,.227-.983.846.846,0,0,0-.89-.483L-54.5,218.629a.837.837,0,0,0-.7.883l13.983,193.82a.815.815,0,0,0,.5.7A.816.816,0,0,0-40.382,414.109ZM250.451,171.3-39.669,411.6l-13.81-191.443Z" transform="translate(55.197 -169.158)" fill="#dfdfdf"/>
            </g>
            <g id="triangle36-2" data-name="triangle36" transform="translate(337.831 807.76)">
              <path id="Path_1240" data-name="Path 1240" d="M824.5,821.592a.832.832,0,0,0,.807-.623L980.2,235.792a.833.833,0,0,0-1.563-.56l-256.5,562.887a.8.8,0,0,0,.013.717.836.836,0,0,0,.563.443l101.61,22.29A.63.63,0,0,0,824.5,821.592ZM976.072,244.885,823.9,819.772l-99.823-21.9Z" transform="translate(-722.057 -234.745)" fill="#dfdfdf"/>
            </g>
            <g id="triangle36-3" data-name="triangle36" transform="translate(439.439 807.758)">
              <path id="Path_1241" data-name="Path 1241" d="M640.9,821.593a.826.826,0,0,0,.617-.277l428.217-474.023a.831.831,0,0,0-.307-1.333L796.109,234.809a.793.793,0,0,0-.683.027.822.822,0,0,0-.437.527l-154.9,585.18a.824.824,0,0,0,.407.947A.838.838,0,0,0,640.9,821.593Zm426.8-474.537L642.582,817.646l153.773-580.94Z" transform="translate(-640.062 -234.745)" fill="#dfdfdf"/>
            </g>
            <g id="triangle36-4" data-name="triangle36" transform="translate(2780.241 278.224)">
              <path id="Path_1242" data-name="Path 1242" d="M42.885,437.923a.577.577,0,0,0,.13-.013l307.7-49.46a.833.833,0,0,0,.377-1.483L-53.855,76.056a.837.837,0,0,0-.97-.033.832.832,0,0,0-.343.91L42.078,437.3A.833.833,0,0,0,42.885,437.923ZM348.542,387.11,43.492,436.146-52.918,78.88Z" transform="translate(55.197 -75.884)" fill="#dfdfdf"/>
            </g>
            <g id="triangle36-5" data-name="triangle36" transform="translate(2700.215 278.223)">
              <path id="Path_1243" data-name="Path 1243" d="M215.22,437.924a.822.822,0,0,0,.593-.25.832.832,0,0,0,.21-.8L118.777,76.5a.89.89,0,0,0-.813-.617.834.834,0,0,0-.8.63L37.137,393.564a.838.838,0,0,0,.61,1.01L215.02,437.9A.69.69,0,0,0,215.22,437.924ZM118,80.017l96.05,355.927-175.09-42.79Z" transform="translate(-37.112 -75.884)" fill="#dfdfdf"/>
            </g>
            <g id="triangle36-6" data-name="triangle36" transform="translate(2471.716 278.222)">
              <path id="Path_1244" data-name="Path 1244" d="M295.62,394.6a.77.77,0,0,0,.283-.05.826.826,0,0,0,.523-.58L376.453,76.921a.836.836,0,0,0-1.177-.953L66.75,226.918a.838.838,0,0,0-.123,1.423l228.5,166.1A.858.858,0,0,0,295.62,394.6ZM374.4,78.258,295.11,392.368,68.73,227.808Z" transform="translate(-66.286 -75.884)" fill="#dfdfdf"/>
            </g>
            <g id="triangle36-7" data-name="triangle36" transform="translate(3185.187 0)">
              <path id="Path_1245" data-name="Path 1245" d="M147.947,629.893a.831.831,0,0,0,.833-.883L107.45-6.8a.84.84,0,0,0-.693-.77.828.828,0,0,0-.907.5L-141.836,582.06a.82.82,0,0,0,.04.727.824.824,0,0,0,.593.42l289.017,46.677A.935.935,0,0,0,147.947,629.893ZM106.017-3.163l41.03,631.233L-139.89,581.73Z" transform="translate(141.903 7.583)" fill="#dfdfdf"/>
            </g>
            <g id="triangle36-8" data-name="triangle36" transform="translate(2780.241 0.001)">
              <path id="Path_1246" data-name="Path 1246" d="M276.275,583.216a.764.764,0,0,0,.213-.03.82.82,0,0,0,.557-.48L524.732-6.424a.83.83,0,0,0-.18-.913.829.829,0,0,0-.917-.177l-652.63,278.22a.838.838,0,0,0-.5.663.852.852,0,0,0,.32.767l404.947,310.91A.828.828,0,0,0,276.275,583.216ZM522.4-5.171,275.925,581.066-127.032,271.679Z" transform="translate(129.504 7.582)" fill="#dfdfdf"/>
            </g>
            <g id="triangle36-9" data-name="triangle36" transform="translate(0 807.754)">
              <path id="Path_1247" data-name="Path 1247" d="M1060.72,799.3l.06,0a.82.82,0,0,0,.7-.487l256.507-562.883a.818.818,0,0,0-.07-.813.714.714,0,0,0-.737-.363L722.843,270.8a.835.835,0,0,0-.657,1.283l337.837,526.833A.823.823,0,0,0,1060.72,799.3ZM1315.9,236.5l-255.3,560.23L724.36,272.376Z" transform="translate(-722.057 -234.743)" fill="#dfdfdf"/>
            </g>
            <g id="triangle36-10" data-name="triangle36" transform="translate(1177.385 758.851)">
              <path id="Path_1248" data-name="Path 1248" d="M705.84,504.661a.834.834,0,0,0,.6-.26.819.819,0,0,0,.15-.917L577.187,220.568a.833.833,0,0,0-.743-.49.853.853,0,0,0-.76.463l-96.11,193.4a.851.851,0,0,0-.03.67.837.837,0,0,0,.47.477L705.533,504.6A.877.877,0,0,0,705.84,504.661ZM576.4,222.844,704.217,502.291,481.47,413.875Z" transform="translate(-479.489 -220.072)" fill="#dfdfdf"/>
            </g>
            <g id="triangle36-11" data-name="triangle36" transform="translate(2471.716 429.173)">
              <path id="Path_1249" data-name="Path 1249" d="M118.988,328.136a.651.651,0,0,0,.16-.017l200.637-39.2a.832.832,0,0,0,.333-1.49l-228.5-166.1a.833.833,0,0,0-1.317.787l27.86,205.3a.856.856,0,0,0,.343.567A.866.866,0,0,0,118.988,328.136Zm198.6-40.487L119.695,326.316,92.215,123.822Z" transform="translate(-90.294 -121.169)" fill="#dfdfdf"/>
            </g>
            <g id="triangle36-12" data-name="triangle36" transform="translate(1674.604 553.435)">
              <path id="Path_1250" data-name="Path 1250" d="M661.453,397.009a.861.861,0,0,0,.437-.127.849.849,0,0,0,.393-.8l-8.757-81.567a.849.849,0,0,0-.507-.68L286.579,158.512a.843.843,0,0,0-1.067.383.825.825,0,0,0,.293,1.087l375.2,236.9A.868.868,0,0,0,661.453,397.009Zm-9.533-81.83,8.52,79.367-365.077-230.5Z" transform="translate(-285.417 -158.448)" fill="#dfdfdf"/>
            </g>
            <g id="triangle36-13" data-name="triangle36" transform="translate(2659.085 638.597)">
              <path id="Path_1251" data-name="Path 1251" d="M33.752,391.276h.04l232.387-11.793a.833.833,0,0,0,.79-.893L252.986,184.772a.835.835,0,0,0-1.4-.55l-218.4,205.61a.835.835,0,0,0,.57,1.443Zm231.493-13.42L35.976,389.5l215.473-202.86Z" transform="translate(-32.918 -183.996)" fill="#dfdfdf"/>
            </g>
            <g id="triangle36-14" data-name="triangle36" transform="translate(2659.085 595.271)">
              <path id="Path_1252" data-name="Path 1252" d="M37.946,421.6a.827.827,0,0,0,.57-.23l218.4-205.61a.832.832,0,0,0-.373-1.413L79.273,171.024a.816.816,0,0,0-.657.113.831.831,0,0,0-.367.56L37.123,420.634a.837.837,0,0,0,.823.97Zm216.713-206L39.17,418.471,79.753,172.854Z" transform="translate(-37.112 -170.998)" fill="#dfdfdf"/>
            </g>
            <g id="triangle36-15" data-name="triangle36" transform="translate(2499.576 595.271)">
              <path id="Path_1253" data-name="Path 1253" d="M250.638,421.6a.7.7,0,0,0,.2-.027.841.841,0,0,0,.623-.67l41.13-248.94a.839.839,0,0,0-.247-.733.812.812,0,0,0-.737-.217l-200.64,39.2a.834.834,0,0,0-.5,1.32l159.51,209.737A.821.821,0,0,0,250.638,421.6Zm40.11-248.723-40.62,245.843L92.6,211.6Z" transform="translate(-90.294 -170.998)" fill="#dfdfdf"/>
            </g>
            <g id="triangle36-16" data-name="triangle36" transform="translate(1638.448 933.046)">
              <path id="Path_1254" data-name="Path 1254" d="M617.357,664.188a.875.875,0,0,0,.483-.153.829.829,0,0,0,.343-.613l31.473-390.19a.83.83,0,0,0-1.39-.68L306.594,583.668a.829.829,0,0,0-.243.823.82.82,0,0,0,.6.6l310.2,79.07A.875.875,0,0,0,617.357,664.188ZM647.827,275.2,616.6,662.3l-307.743-78.44Z" transform="translate(-306.323 -272.331)" fill="#dfdfdf"/>
            </g>
            <g id="triangle36-17" data-name="triangle36" transform="translate(1466.461 933.046)">
              <path id="Path_1255" data-name="Path 1255" d="M479.141,585.118a.832.832,0,0,0,.563-.213L821.378,273.781a.833.833,0,0,0-.887-1.383L306.831,488.874a.836.836,0,0,0-.077,1.5l171.987,94.643A.847.847,0,0,0,479.141,585.118Zm337.523-309.3L479.021,583.268,309.064,489.744Z" transform="translate(-306.323 -272.331)" fill="#dfdfdf"/>
            </g>
            <g id="triangle36-18" data-name="triangle36" transform="translate(1402.9 933.049)">
              <path id="Path_1256" data-name="Path 1256" d="M370.719,490.472a.842.842,0,0,0,.32-.063L884.7,273.929a.831.831,0,0,0-.477-1.583L307,381.072a.832.832,0,0,0-.607.473.822.822,0,0,0,.047.767L370,490.059A.818.818,0,0,0,370.719,490.472Zm506.14-215.047L371.066,488.589l-62.587-106.1Z" transform="translate(-306.323 -272.332)" fill="#dfdfdf"/>
            </g>
            <g id="triangle36-19" data-name="triangle36" transform="translate(1674.608 553.435)">
              <path id="Path_1257" data-name="Path 1257" d="M591.766,539.726l.09,0a.83.83,0,0,0,.657-.463L662.2,396.539a.831.831,0,0,0-.3-1.07l-375.2-236.893a.837.837,0,0,0-1.067.15.845.845,0,0,0-.027,1.08l305.513,379.61A.837.837,0,0,0,591.766,539.726Zm68.6-143.247-68.78,140.867L290.033,162.659Z" transform="translate(-285.418 -158.448)" fill="#dfdfdf"/>
            </g>
            <g id="triangle36-20" data-name="triangle36" transform="translate(1231.806 1041.775)">
              <path id="Path_1258" data-name="Path 1258" d="M695.91,414.364a.836.836,0,0,0,.717-1.257l-63.56-107.75A.835.835,0,0,0,632.06,305l-171.1,62.7a.837.837,0,0,0,.13,1.6l234.66,45.047A.8.8,0,0,0,695.91,414.364ZM631.983,306.8l62.267,105.56L464.36,368.231Z" transform="translate(-460.42 -304.949)" fill="#dfdfdf"/>
            </g>
            <g id="triangle36-21" data-name="triangle36" transform="translate(439.44 918.914)">
              <path id="Path_1259" data-name="Path 1259" d="M531.651,743.784a.855.855,0,0,0,.287-.053L1324.3,455.27a.833.833,0,0,0,.09-1.527L960.244,268.183a.831.831,0,0,0-1,.183L531.031,742.39a.837.837,0,0,0,.62,1.393Zm790.28-289.423L534.521,741.017,960.054,269.953Z" transform="translate(-530.818 -268.091)" fill="#dfdfdf"/>
            </g>
            <g id="triangle36-22" data-name="triangle36" transform="translate(1177.384 952.263)">
              <path id="Path_1260" data-name="Path 1260" d="M534.741,431.976a.852.852,0,0,0,.287-.05l171.1-62.7a.836.836,0,0,0,.547-.77.85.85,0,0,0-.527-.787L480.624,278.153a.842.842,0,0,0-.883.177.831.831,0,0,0-.2.88l54.42,152.213a.836.836,0,0,0,.783.553ZM703.5,368.409,535.241,430.072,481.724,280.379Z" transform="translate(-479.488 -278.096)" fill="#dfdfdf"/>
            </g>
            <g id="triangle36-23" data-name="triangle36" transform="translate(867.657 918.911)">
              <path id="Path_1261" data-name="Path 1261" d="M895.8,455.323a.835.835,0,0,0,.787-1.113L842.161,302a.829.829,0,0,0-.7-.55L531.741,268.1a.836.836,0,0,0-.47,1.573l364.147,185.56A.831.831,0,0,0,895.8,455.323ZM840.771,303.049,894.3,452.8,536.064,270.239Z" transform="translate(-530.818 -268.09)" fill="#dfdfdf"/>
            </g>
            <g id="triangle36-24" data-name="triangle36" transform="translate(1948.648 933.047)">
              <path id="Path_1262" data-name="Path 1262" d="M254.507,664.187l.093,0,206.973-22.66a.832.832,0,0,0,.66-1.19L286.727,272.8a.833.833,0,0,0-1.58.29l-31.473,390.19a.832.832,0,0,0,.253.663A.821.821,0,0,0,254.507,664.187ZM460.227,640l-204.81,22.417,31.143-386.1Z" transform="translate(-253.672 -272.331)" fill="#dfdfdf"/>
            </g>
            <g id="triangle36-25" data-name="triangle36" transform="translate(439.44 1392.937)">
              <path id="Path_1263" data-name="Path 1263" d="M831.452,714.284a.827.827,0,0,0,.4-.1l518.79-286.563a.835.835,0,0,0-.39-1.563L520.432,410.3a.775.775,0,0,0-.79.51.837.837,0,0,0,.19.92l311.04,302.32A.851.851,0,0,0,831.452,714.284Zm515.663-286.62L831.589,712.421,522.509,412Z" transform="translate(-519.579 -410.298)" fill="#dfdfdf"/>
            </g>
            <g id="triangle36-26" data-name="triangle36" transform="translate(1269.265 1149.525)">
              <path id="Path_1264" data-name="Path 1264" d="M409.662,598.109a.9.9,0,0,0,.34-.07L779.179,433.516a.842.842,0,0,0,.493-.73.827.827,0,0,0-.433-.767L607.252,337.376a.831.831,0,0,0-1.06.227L409,596.769a.826.826,0,0,0,.006,1.023A.839.839,0,0,0,409.662,598.109Zm367.3-165.433L412.292,595.186l194.793-256Z" transform="translate(-408.825 -337.275)" fill="#dfdfdf"/>
            </g>
            <g id="triangle36-27" data-name="triangle36" transform="translate(1231.803 1104.476)">
              <path id="Path_1265" data-name="Path 1265" d="M498.721,629.644a.855.855,0,0,0,.663-.33L696.577,370.147a.839.839,0,0,0-.507-1.323l-234.66-45.047a.8.8,0,0,0-.723.21.825.825,0,0,0-.26.71l37.467,304.213a.827.827,0,0,0,.607.7A.808.808,0,0,0,498.721,629.644ZM694.437,370.2,499.294,626.677l-37.07-301.05Z" transform="translate(-460.421 -323.76)" fill="#dfdfdf"/>
            </g>
            <g id="triangle36-28" data-name="triangle36" transform="translate(439.441 1104.477)">
              <path id="Path_1266" data-name="Path 1266" d="M1350.24,629.643a.822.822,0,0,0,.617-.277.836.836,0,0,0,.21-.66L1313.6,324.493a.823.823,0,0,0-.393-.61.841.841,0,0,0-.72-.073L520.123,612.269a.836.836,0,0,0,.27,1.62l829.827,15.753Zm-38.163-303.907,37.22,302.223L524.9,612.306Z" transform="translate(-519.578 -323.76)" fill="#dfdfdf"/>
            </g>
            <g id="triangle36-29" data-name="triangle36" transform="translate(1980.121 916.592)">
              <path id="Path_1267" data-name="Path 1267" d="M382.556,653.049h.023a.838.838,0,0,0,.747-.52l158.18-383.977a.836.836,0,0,0-.09-.8.7.7,0,0,0-.723-.35l-333.687,16.45a.829.829,0,0,0-.67.4.843.843,0,0,0-.04.787L381.8,652.576A.843.843,0,0,0,382.556,653.049Zm156.91-383.917L382.5,650.166l-174.16-364.71Z" transform="translate(-206.217 -267.395)" fill="#dfdfdf"/>
            </g>
            <g id="triangle36-30" data-name="triangle36" transform="translate(2313.805 634.473)">
              <path id="Path_1268" data-name="Path 1268" d="M103.468,466.552a.763.763,0,0,0,.17-.02l345.283-72.39a.833.833,0,0,0,.49-1.32L289.9,183.086a1,1,0,0,0-.693-.327.85.85,0,0,0-.667.373L102.771,465.259a.831.831,0,0,0,.007.927A.842.842,0,0,0,103.468,466.552Zm343.817-73.77-342.01,71.7L289.288,185.032Z" transform="translate(-102.633 -182.759)" fill="#dfdfdf"/>
            </g>
            <g id="triangle36-31" data-name="triangle36" transform="translate(1980.121 790.327)">
              <path id="Path_1269" data-name="Path 1269" d="M207.053,373.9l.037,0,333.687-16.443a.834.834,0,0,0,.317-1.587l-264-126.273a.842.842,0,0,0-1.107.383L206.3,372.7a.83.83,0,0,0,.75,1.2ZM537.4,355.948,208.419,372.164l68.7-140.707Z" transform="translate(-206.217 -229.515)" fill="#dfdfdf"/>
            </g>
            <g id="triangle36-32" data-name="triangle36" transform="translate(2041.048 634.473)">
              <path id="Path_1270" data-name="Path 1270" d="M424.077,466.552a.689.689,0,0,0,.14-.013.832.832,0,0,0,.557-.367l185.77-282.12a.833.833,0,0,0,0-.913.824.824,0,0,0-.833-.367L151.187,257.059a.823.823,0,0,0-.677.617.833.833,0,0,0,.3.867L423.57,466.382A.843.843,0,0,0,424.077,466.552ZM608.11,184.719,423.87,464.512l-270.5-206.12Z" transform="translate(-150.486 -182.759)" fill="#dfdfdf"/>
            </g>
            <g id="triangle36-33" data-name="triangle36" transform="translate(2041.049 708.756)">
              <path id="Path_1271" data-name="Path 1271" d="M479.808,414.554a.82.82,0,0,0,.71-.4.829.829,0,0,0-.207-1.1L207.555,205.217a.816.816,0,0,0-.913-.063.836.836,0,0,0-.42.813l8.753,81.57a.832.832,0,0,0,.473.66l264,126.27A.774.774,0,0,0,479.808,414.554ZM208.085,207.717l264.773,201.75L216.585,286.9Zm7.723,79.733h0Z" transform="translate(-206.217 -205.044)" fill="#dfdfdf"/>
            </g>
            <g id="triangle36-34" data-name="triangle36" transform="translate(1402.899 727.194)">
              <path id="Path_1272" data-name="Path 1272" d="M307.161,526.821a.744.744,0,0,0,.15-.013l577.22-108.73a.824.824,0,0,0,.677-.74.835.835,0,0,0-.533-.857L341.357,210.631a.824.824,0,0,0-.733.067.806.806,0,0,0-.39.623L306.327,525.9a.836.836,0,0,0,.263.7A.849.849,0,0,0,307.161,526.821Zm574.15-109.83L308.1,524.965l33.67-312.393Z" transform="translate(-306.323 -210.575)" fill="#dfdfdf"/>
            </g>
            <g id="triangle36-35" data-name="triangle36" transform="translate(1436.802 553.437)">
              <path id="Path_1273" data-name="Path 1273" d="M850.477,539.725a.831.831,0,0,0,.643-1.357L545.607,158.758a.835.835,0,0,0-1.14-.15l-237.8,173.757a.832.832,0,0,0,.2,1.453l543.313,205.85A.8.8,0,0,0,850.477,539.725Zm-305.663-379.3,303.09,376.6L308.887,332.8Z" transform="translate(-306.323 -158.448)" fill="#dfdfdf"/>
            </g>
            <g id="triangle36-36" data-name="triangle36" transform="translate(1273.493 727.193)">
              <path id="Path_1274" data-name="Path 1274" d="M599.56,526.821a.6.6,0,0,0,.13-.01.835.835,0,0,0,.7-.73L634.294,211.5a.856.856,0,0,0-.267-.7.837.837,0,0,0-.727-.2l-163.31,31.66a.836.836,0,0,0-.6,1.167L598.8,526.338A.833.833,0,0,0,599.56,526.821Zm32.947-314.38L599.05,522.888l-127.7-279.2Z" transform="translate(-469.317 -210.575)" fill="#dfdfdf"/>
            </g>
            <g id="triangle36-37" data-name="triangle36" transform="translate(1674.607 487.735)">
              <path id="Path_1275" data-name="Path 1275" d="M652.524,361.429a.855.855,0,0,0,.443-.13.832.832,0,0,0,.39-.67l9.32-221.023a.833.833,0,0,0-.98-.857l-375.757,65.7a.835.835,0,0,0-.187,1.59L652.2,361.362A.842.842,0,0,0,652.524,361.429Zm8.443-220.86-9.227,218.79L289,205.609Z" transform="translate(-285.248 -138.738)" fill="#dfdfdf"/>
            </g>
            <g id="triangle36-38" data-name="triangle36" transform="translate(2041.048 530.691)">
              <path id="Path_1276" data-name="Path 1276" d="M151.321,331.36a.623.623,0,0,0,.133-.013l458.527-74.283a.834.834,0,0,0,.14-1.61L309.774,151.666a.851.851,0,0,0-.9.233L150.7,329.973a.833.833,0,0,0,.623,1.387Zm455.127-75.41L153.5,329.326l156.257-175.9Z" transform="translate(-150.486 -151.624)" fill="#dfdfdf"/>
            </g>
            <g id="triangle36-39" data-name="triangle36" transform="translate(2199.229 429.174)">
              <path id="Path_1277" data-name="Path 1277" d="M451.666,328.135a.821.821,0,0,0,.527-.187.832.832,0,0,0,.3-.757l-27.86-205.3a.838.838,0,0,0-1.117-.67L151.029,222.735a.832.832,0,0,0,.017,1.567l300.347,103.79A.868.868,0,0,0,451.666,328.135Zm-28.547-204.99,27.537,202.93L153.786,223.482Z" transform="translate(-150.486 -121.169)" fill="#dfdfdf"/>
            </g>
            <g id="triangle36-40" data-name="triangle36" transform="translate(2041.049 487.736)">
              <path id="Path_1278" data-name="Path 1278" d="M241.424,361.428a.819.819,0,0,0,.62-.28l158.18-178.073a.831.831,0,0,0-.39-1.353l-148.86-42.953a.869.869,0,0,0-.72.123.843.843,0,0,0-.343.64l-9.32,221.023a.83.83,0,0,0,.52.81A.786.786,0,0,0,241.424,361.428ZM398.1,182.958,242.354,358.292l9.177-217.627Z" transform="translate(-240.59 -138.738)" fill="#dfdfdf"/>
            </g>
          </g>
          <g id="Group_1103" data-name="Group 1103">
            <g id="triangle36-41" data-name="triangle36" transform="translate(4004.582 1259.417)">
              <path id="Path_1279" data-name="Path 1279" d="M-435.1,594.746a.909.909,0,0,0,.263-.043L101.8,415.8a.833.833,0,0,0-.09-1.6l-452.027-96.62a.829.829,0,0,0-.97.57L-435.9,593.669a.828.828,0,0,0,.213.84A.819.819,0,0,0-435.1,594.746ZM98.374,415.182-433.833,592.609l83.917-273.247Z" transform="translate(435.937 -317.555)" fill="#dfdfdf"/>
            </g>
            <g id="triangle36-42" data-name="triangle36" transform="translate(184.628 268.888)">
              <path id="Path_1280" data-name="Path 1280" d="M803.448,748.2a.834.834,0,0,0,.68-.34L1332.162,21.72a.834.834,0,0,0-1.257-1.087l-656.59,640.82a.841.841,0,0,0,.117,1.293l128.557,85.32A.849.849,0,0,0,803.448,748.2Zm521.57-719.5L803.248,746.236,676.218,661.93Z" transform="translate(-674.064 -20.396)" fill="#dfdfdf"/>
            </g>
            <g id="triangle36-43" data-name="triangle36" transform="translate(313.182 268.888)">
              <path id="Path_1281" data-name="Path 1281" d="M579.392,748.2a.811.811,0,0,0,.38-.087l846.374-425.853a.825.825,0,0,0,.45-.623.841.841,0,0,0-.25-.727L1108,20.622a.844.844,0,0,0-.65-.223.827.827,0,0,0-.593.34L578.722,746.882a.832.832,0,0,0,.67,1.32Zm844.943-426.893L582.089,745.086l525.457-722.6Z" transform="translate(-578.562 -20.396)" fill="#dfdfdf"/>
            </g>
            <g id="triangle36-44" data-name="triangle36" transform="translate(4089.194 708.921)">
              <path id="Path_1282" data-name="Path 1282" d="M16.924,801.189a.837.837,0,0,0,.71-1.27L-375.6,152.8a.833.833,0,0,0-.9-.377.833.833,0,0,0-.647.723l-58.787,550.5a.835.835,0,0,0,.653.9l452.027,96.62A1.061,1.061,0,0,0,16.924,801.189ZM-375.749,155.776,15.208,799.136l-449.4-96.06Z" transform="translate(435.937 -152.406)" fill="#dfdfdf"/>
            </g>
            <g id="triangle36-45" data-name="triangle36" transform="translate(3867.287 708.92)">
              <path id="Path_1283" data-name="Path 1283" d="M-95.224,704.57a.832.832,0,0,0,.343-.077.829.829,0,0,0,.483-.67l58.787-550.5a.827.827,0,0,0-.533-.867.828.828,0,0,0-.973.3l-280.7,395.51a.849.849,0,0,0-.14.627.852.852,0,0,0,.343.54L-95.7,704.42A.841.841,0,0,0-95.224,704.57ZM-37.6,156.323l-58.3,545.92L-315.967,548.55Z" transform="translate(317.966 -152.406)" fill="#dfdfdf"/>
            </g>
            <g id="triangle36-46" data-name="triangle36" transform="translate(3640.382 708.921)">
              <path id="Path_1284" data-name="Path 1284" d="M-90.229,549.583a.825.825,0,0,0,.68-.35l280.7-395.51a.845.845,0,0,0,.043-.9.9.9,0,0,0-.793-.417l-507.6,43.28a.838.838,0,0,0-.68.46.831.831,0,0,0,.05.817l226.9,352.24a.825.825,0,0,0,.683.38Zm278.977-395.36-278.94,393.04-225.49-350.033Z" transform="translate(317.966 -152.406)" fill="#dfdfdf"/>
            </g>
            <g id="triangle36-47" data-name="triangle36" transform="translate(4541.221 674.192)">
              <path id="Path_1285" data-name="Path 1285" d="M-258.01,1045.043a.849.849,0,0,0,.3-.05.831.831,0,0,0,.493-.527L26.617,143.073a.833.833,0,0,0-1.393-.83L-633.243,824.086a.825.825,0,0,0-.227.69.832.832,0,0,0,.4.607l374.637,219.55A.816.816,0,0,0-258.01,1045.043Zm281.977-899.1-282.457,897.02L-631.31,824.479Z" transform="translate(633.478 -141.987)" fill="#dfdfdf"/>
            </g>
            <g id="triangle36-48" data-name="triangle36" transform="translate(4147.982 674.194)">
              <path id="Path_1286" data-name="Path 1286" d="M-239.4,825.5a.817.817,0,0,0,.6-.257L419.662,143.4a.839.839,0,0,0,.163-.92.817.817,0,0,0-.79-.493L-632.672,176.712a.838.838,0,0,0-.707.44.832.832,0,0,0,.02.827L-240.118,825.1a.849.849,0,0,0,.62.4Zm656.44-681.777-656.29,679.587-391.94-644.973Z" transform="translate(633.478 -141.988)" fill="#dfdfdf"/>
            </g>
            <g id="triangle36-49" data-name="triangle36" transform="translate(0)">
              <path id="Path_1287" data-name="Path 1287" d="M859.523,851.108a.842.842,0,0,0,.583-.24l656.59-640.82a.831.831,0,0,0-.33-1.39L675.156-60.232a.851.851,0,0,0-.817.173.839.839,0,0,0-.26.787l184.63,909.71a.813.813,0,0,0,.573.63A.753.753,0,0,0,859.523,851.108Zm655.013-641.287-654.5,638.787L676-58.216Z" transform="translate(-674.064 60.27)" fill="#dfdfdf"/>
            </g>
            <g id="triangle36-50" data-name="triangle36" transform="translate(1569.982 565.493)">
              <path id="Path_1288" data-name="Path 1288" d="M640.962,571.679a.859.859,0,0,0,.35-.077.831.831,0,0,0,.483-.8l-27.22-460.64a.84.84,0,0,0-.52-.72.828.828,0,0,0-.88.153L376.545,325.5a.84.84,0,0,0-.267.61.822.822,0,0,0,.267.613L640.392,571.459A.832.832,0,0,0,640.962,571.679Zm-27.95-459.673,26.993,456.823-261.66-242.71Z" transform="translate(-376.279 -109.378)" fill="#dfdfdf"/>
            </g>
            <g id="triangle36-51" data-name="triangle36" transform="translate(3568.806 752.194)">
              <path id="Path_1289" data-name="Path 1289" d="M65.556,519.291a.832.832,0,0,0,.7-1.283l-226.9-352.233a.794.794,0,0,0-.84-.37.814.814,0,0,0-.67.623l-71.577,298.847a.83.83,0,0,0,.113.65.858.858,0,0,0,.55.363l298.48,53.39A.561.561,0,0,0,65.556,519.291ZM-160.991,168.315,63.819,517.3l-295.727-52.9Z" transform="translate(233.757 -165.388)" fill="#dfdfdf"/>
            </g>
            <g id="triangle36-52" data-name="triangle36" transform="translate(2471.457 496.546)">
              <path id="Path_1290" data-name="Path 1290" d="M450.593,619.162a.805.805,0,0,0,.157-.013.83.83,0,0,0,.65-.6l31.637-117.493a.825.825,0,0,0-.227-.81L59.373,88.926a.834.834,0,0,0-1.25,1.1l391.8,528.8A.83.83,0,0,0,450.593,619.162ZM481.3,501.1,450.236,616.449,65.566,97.266Z" transform="translate(-57.961 -88.693)" fill="#dfdfdf"/>
            </g>
            <g id="triangle36-53" data-name="triangle36" transform="translate(3676.905 1259.416)">
              <path id="Path_1291" data-name="Path 1291" d="M28.181,594.747a.824.824,0,0,0,.383-.093.839.839,0,0,0,.413-.5l84.61-275.523a.832.832,0,0,0-1.107-1.017l-412.29,167.2a.827.827,0,0,0-.52.8.828.828,0,0,0,.57.763L27.918,594.7A.891.891,0,0,0,28.181,594.747Zm83.3-274.927L27.635,592.857-297.082,485.51Z" transform="translate(300.329 -317.554)" fill="#dfdfdf"/>
            </g>
            <g id="triangle36-54" data-name="triangle36" transform="translate(3676.904 1104.43)">
              <path id="Path_1292" data-name="Path 1292" d="M-299.495,594.913a.781.781,0,0,0,.31-.063l412.29-167.2a.832.832,0,0,0,.167-1.453l-221.91-154.983a.8.8,0,0,0-.653-.133.831.831,0,0,0-.54.393L-300.215,593.656a.834.834,0,0,0,.087.967A.84.84,0,0,0-299.495,594.913Zm410.553-168.23-408.583,165.7,188.673-319.29Z" transform="translate(300.329 -271.059)" fill="#dfdfdf"/>
            </g>
            <g id="triangle36-55" data-name="triangle36" transform="translate(3568.807 1051.039)">
              <path id="Path_1293" data-name="Path 1293" d="M-124.825,632.287a.835.835,0,0,0,.717-.41L66.275,309.69a.828.828,0,0,0,.037-.77.838.838,0,0,0-.61-.473l-298.48-53.39a.812.812,0,0,0-.763.263.826.826,0,0,0-.183.787l108.1,375.573a.837.837,0,0,0,.7.6C-124.895,632.283-124.861,632.287-124.825,632.287ZM64.229,309.877l-188.79,319.487L-231.751,256.93Z" transform="translate(233.757 -255.041)" fill="#dfdfdf"/>
            </g>
            <g id="triangle36-56" data-name="triangle36" transform="translate(2051.019 1185.337)">
              <path id="Path_1294" data-name="Path 1294" d="M506.71,819.692a.737.737,0,0,0,.207-.027.819.819,0,0,0,.543-.443l252.78-522.7a.832.832,0,0,0-1.05-1.137L119.857,542.382a.85.85,0,0,0-.527.673.833.833,0,0,0,.34.787L506.227,819.535A.828.828,0,0,0,506.71,819.692ZM757.82,297.7,506.393,817.608,121.9,543.382Z" transform="translate(-119.323 -295.331)" fill="#dfdfdf"/>
            </g>
            <g id="triangle36-57" data-name="triangle36" transform="translate(1863.94 1185.338)">
              <path id="Path_1295" data-name="Path 1295" d="M307.235,543.995a.782.782,0,0,0,.3-.057l639.337-247a.833.833,0,0,0-.323-1.61l-826.413,23.88a.832.832,0,0,0-.613,1.367L306.6,543.7A.837.837,0,0,0,307.235,543.995Zm634.5-246.857L307.489,542.171,121.9,320.831Z" transform="translate(-119.323 -295.331)" fill="#dfdfdf"/>
            </g>
            <g id="triangle36-58" data-name="triangle36" transform="translate(1833.829 1026.132)">
              <path id="Path_1296" data-name="Path 1296" d="M150.27,432.322h.02L976.7,408.442a.832.832,0,0,0,.13-1.65L120.31,247.582a.842.842,0,0,0-.737.227.828.828,0,0,0-.24.727l30.11,183.087A.84.84,0,0,0,150.27,432.322ZM968.853,407l-817.88,23.633-29.8-181.193Z" transform="translate(-119.323 -247.569)" fill="#dfdfdf"/>
            </g>
            <g id="triangle36-59" data-name="triangle36" transform="translate(2471.457 496.544)">
              <path id="Path_1297" data-name="Path 1297" d="M287.181,779.154a.834.834,0,0,0,.567-.22l172.9-159.99a.834.834,0,0,0,.1-1.11L68.954,89.03a.833.833,0,0,0-1.463.75l218.9,688.79a.826.826,0,0,0,.583.553A.743.743,0,0,0,287.181,779.154Zm171.79-160.927L287.577,776.817,70.6,94.044Z" transform="translate(-67.452 -88.693)" fill="#dfdfdf"/>
            </g>
            <g id="triangle36-60" data-name="triangle36" transform="translate(1563.606 1021.078)">
              <path id="Path_1298" data-name="Path 1298" d="M668.416,435.86a.855.855,0,0,0,.463-.14.83.83,0,0,0,.357-.827L639.126,251.8a.835.835,0,0,0-.807-.7L368.1,246.053h-.02a.837.837,0,0,0-.44,1.543L667.973,435.733A.843.843,0,0,0,668.416,435.86Zm-30.823-183.1,29.7,180.58L371.066,247.776Z" transform="translate(-367.247 -246.053)" fill="#dfdfdf"/>
            </g>
            <g id="triangle36-61" data-name="triangle36" transform="translate(313.179 569.177)">
              <path id="Path_1299" data-name="Path 1299" d="M1708.6,564.05a.831.831,0,0,0,.627-1.387l-404.05-451.9a.84.84,0,0,0-1-.19L457.81,536.427a.829.829,0,0,0,.357,1.573l1250.427,26.05Zm-404.237-451.7,402.343,450L461.553,536.407Z" transform="translate(-457.347 -110.483)" fill="#dfdfdf"/>
            </g>
            <g id="triangle36-62" data-name="triangle36" transform="translate(1563.602 781.396)">
              <path id="Path_1300" data-name="Path 1300" d="M647.344,420.547a.821.821,0,0,0,.767-.52.831.831,0,0,0-.2-.92l-263.85-244.73a.822.822,0,0,0-.89-.163.843.843,0,0,0-.51.75l-6.38,239.68a.822.822,0,0,0,.237.6.851.851,0,0,0,.587.257l270.22,5.05ZM384.277,176.85l260.9,241.993-267.2-4.993Z" transform="translate(-376.28 -174.148)" fill="#dfdfdf"/>
            </g>
            <g id="triangle36-63" data-name="triangle36" transform="translate(1159.56 569.178)">
              <path id="Path_1301" data-name="Path 1301" d="M860.31,564.049a.753.753,0,0,0,.287-.05.825.825,0,0,0,.547-.76l6.38-239.68a.833.833,0,0,0-.447-.76L456.653,110.576a.835.835,0,0,0-1.01,1.293l404.047,451.9A.862.862,0,0,0,860.31,564.049Zm5.533-240.013L859.537,561.1l-399.63-446.96Z" transform="translate(-455.434 -110.483)" fill="#dfdfdf"/>
            </g>
            <g id="triangle36-64" data-name="triangle36" transform="translate(2437.573 1185.341)">
              <path id="Path_1302" data-name="Path 1302" d="M404.847,899.362a.843.843,0,0,0,.83-.9L360.09,296.1a.823.823,0,0,0-.673-.757.839.839,0,0,0-.9.453l-252.78,522.69a.817.817,0,0,0-.01.71.848.848,0,0,0,.543.463l298.367,79.67A.95.95,0,0,0,404.847,899.362ZM358.663,299.309l45.267,598.11L107.67,818.312Z" transform="translate(-105.647 -295.332)" fill="#dfdfdf"/>
            </g>
            <g id="triangle36-65" data-name="triangle36" transform="translate(313.182 995.032)">
              <path id="Path_1303" data-name="Path 1303" d="M759.572,824.778a.582.582,0,0,0,.11-.007l871.087-118.053a.832.832,0,0,0,.21-1.593L491.9,238.3a.833.833,0,0,0-1.077,1.113l267.99,584.877A.828.828,0,0,0,759.572,824.778Zm867.9-119.293-867.4,117.557-266.847-582.4Z" transform="translate(-490.751 -238.239)" fill="#dfdfdf"/>
            </g>
            <g id="triangle36-66" data-name="triangle36" transform="translate(1452.258 1209.216)">
              <path id="Path_1304" data-name="Path 1304" d="M311.954,556.8l.047,0,598.757-29.517a.828.828,0,0,0,.723-.5.817.817,0,0,0-.127-.863L724.278,302.793a.827.827,0,0,0-1.073-.173L311.518,555.256a.834.834,0,0,0,.437,1.543ZM909,525.7,315.164,554.973l408.3-250.56Z" transform="translate(-311.123 -302.495)" fill="#dfdfdf"/>
            </g>
            <g id="triangle36-67" data-name="triangle36" transform="translate(1452.257 1021.078)">
              <path id="Path_1305" data-name="Path 1305" d="M368.078,688.5a.847.847,0,0,0,.437-.123L780.2,435.736a.833.833,0,0,0,.01-1.417L479.868,246.183a.817.817,0,0,0-.747-.07.838.838,0,0,0-.5.57L367.272,687.46a.832.832,0,0,0,.313.877A.852.852,0,0,0,368.078,688.5Zm410.1-253.48L369.388,685.883,479.955,248.2Z" transform="translate(-367.246 -246.053)" fill="#dfdfdf"/>
            </g>
            <g id="triangle36-68" data-name="triangle36" transform="translate(313.181 995.028)">
              <path id="Path_1306" data-name="Path 1306" d="M1597.255,706.731a.826.826,0,0,0,.377-.09.817.817,0,0,0,.43-.54l111.35-440.78a.821.821,0,0,0-.143-.707.86.86,0,0,0-.647-.327L458.2,238.238h-.02a.836.836,0,0,0-.31,1.61L1596.942,706.671A.919.919,0,0,0,1597.255,706.731Zm110.287-440.8-110.86,438.827L462.638,240Z" transform="translate(-457.347 -238.238)" fill="#dfdfdf"/>
            </g>
            <g id="triangle36-69" data-name="triangle36" transform="translate(2690.353 1185.34)">
              <path id="Path_1307" data-name="Path 1307" d="M24.664,899.363a.828.828,0,0,0,.6-.26L449.941,452.946a.828.828,0,0,0-.343-1.363L-20.659,295.373a.841.841,0,0,0-.777.133.834.834,0,0,0-.317.72L23.834,898.589a.85.85,0,0,0,.83.773ZM447.828,452.749,25.354,896.6-20,297.346Z" transform="translate(21.755 -295.332)" fill="#dfdfdf"/>
            </g>
            <g id="triangle36-70" data-name="triangle36" transform="translate(3160.611 1051.042)">
              <path id="Path_1308" data-name="Path 1308" d="M340.486,632.285a.85.85,0,0,0,.623-.28.838.838,0,0,0,.177-.783l-108.1-375.577a.841.841,0,0,0-1.287-.45L-176.291,545.7a.828.828,0,0,0-.33.867.825.825,0,0,0,.677.633l516.293,85.07A.941.941,0,0,0,340.486,632.285ZM231.912,257.235l107.407,373.18-513-84.527Z" transform="translate(176.643 -255.042)" fill="#dfdfdf"/>
            </g>
            <g id="triangle36-71" data-name="triangle36" transform="translate(2690.355 1025.35)">
              <path id="Path_1309" data-name="Path 1309" d="M449.336,565.2a.832.832,0,0,0,.607-1.4L152.586,247.6a.841.841,0,0,0-1.173-.043l-172.9,159.99a.847.847,0,0,0-.247.79.822.822,0,0,0,.55.613l470.26,156.213A1.025,1.025,0,0,0,449.336,565.2Zm-297.4-315.857,294.533,313.2L-19.321,407.809Z" transform="translate(21.755 -247.335)" fill="#dfdfdf"/>
            </g>
            <g id="triangle36-72" data-name="triangle36" transform="translate(2894.895 907.86)">
              <path id="Path_1310" data-name="Path 1310" d="M122.337,647.439a.817.817,0,0,0,.483-.153l408.193-290.5a.835.835,0,0,0-.31-1.5L-143.209,212.1a.847.847,0,0,0-.85.333.827.827,0,0,0-.03.917l265.717,433.69a.824.824,0,0,0,.543.383A.936.936,0,0,0,122.337,647.439ZM528.5,356.522,122.581,645.412-141.656,214.136Z" transform="translate(144.214 -212.088)" fill="#dfdfdf"/>
            </g>
            <g id="triangle36-73" data-name="triangle36" transform="translate(2863.258 907.859)">
              <path id="Path_1311" data-name="Path 1311" d="M276.433,647.44a.869.869,0,0,0,.507-.167.84.84,0,0,0,.2-1.1L11.426,212.486a.832.832,0,0,0-1.517.217L-21.727,330.2a.833.833,0,0,0,.2.787l297.353,316.2A.828.828,0,0,0,276.433,647.44ZM11.016,215.006,271.49,640.136-20,330.18Z" transform="translate(21.755 -212.087)" fill="#dfdfdf"/>
            </g>
            <g id="triangle36-74" data-name="triangle36" transform="translate(1833.829 609.295)">
              <path id="Path_1312" data-name="Path 1312" d="M976.679,700.227a.832.832,0,0,0,.557-1.453L336.309,122.731a.831.831,0,0,0-1.293.237L119.416,539.8A.833.833,0,0,0,120,541L976.526,700.211A.635.635,0,0,0,976.679,700.227ZM336,124.691l637.92,573.343-852.5-158.46Z" transform="translate(-119.323 -122.518)" fill="#dfdfdf"/>
            </g>
            <g id="triangle36-75" data-name="triangle36" transform="translate(2049.427 496.546)">
              <path id="Path_1313" data-name="Path 1313" d="M761.081,779.152a.864.864,0,0,0,.453-.133.832.832,0,0,0,.343-.953L542.981,89.272a.843.843,0,0,0-1.01-.553L119.945,201.465a.836.836,0,0,0-.347,1.43L760.525,778.942A.851.851,0,0,0,761.081,779.152ZM541.631,90.536l217.73,685.11-637.5-572.963Z" transform="translate(-119.322 -88.693)" fill="#dfdfdf"/>
            </g>
            <g id="triangle36-76" data-name="triangle36" transform="translate(1806.611 565.497)">
              <path id="Path_1314" data-name="Path 1314" d="M339.655,571.677a.819.819,0,0,0,.733-.447l215.6-416.84a.826.826,0,0,0,.013-.75.844.844,0,0,0-.607-.45l-242.817-43.8a.841.841,0,0,0-.7.2.811.811,0,0,0-.28.67l27.22,460.64a.833.833,0,0,0,.657.763A1.056,1.056,0,0,0,339.655,571.677ZM553.988,154.63,340.305,567.773l-26.98-456.557Z" transform="translate(-311.6 -109.379)" fill="#dfdfdf"/>
            </g>
            <g id="triangle36-77" data-name="triangle36" transform="translate(2471.457 496.547)">
              <path id="Path_1315" data-name="Path 1315" d="M442.805,501.671a.625.625,0,0,0,.157-.017.836.836,0,0,0,.607-.48L574.992,200.521a.839.839,0,0,0-.023-.72.853.853,0,0,0-.577-.43L19.529,88.708a.832.832,0,0,0-.743,1.413l423.44,411.313A.811.811,0,0,0,442.805,501.671ZM573.048,200.8,442.522,499.4,21.975,90.895Z" transform="translate(-18.533 -88.694)" fill="#dfdfdf"/>
            </g>
            <g id="triangle36-78" data-name="triangle36" transform="translate(2894.895 746.438)">
              <path id="Path_1316" data-name="Path 1316" d="M530.531,469.931a.834.834,0,0,0,.54-1.47l-359.677-304.6a.824.824,0,0,0-.92-.107l-314.237,161.42a.836.836,0,0,0-.443.85.837.837,0,0,0,.653.707L530.361,469.914A.979.979,0,0,0,530.531,469.931ZM170.741,165.494,527.467,467.6-140.916,325.584Z" transform="translate(144.213 -163.661)" fill="#dfdfdf"/>
            </g>
            <g id="triangle36-79" data-name="triangle36" transform="translate(3209.131 746.441)">
              <path id="Path_1317" data-name="Path 1317" d="M194.822,469.929a.776.776,0,0,0,.26-.043.833.833,0,0,0,.553-.6l71.573-298.847a.823.823,0,0,0-.153-.7.836.836,0,0,0-.643-.32l-431.253-5.757a.912.912,0,0,0-.793.54.846.846,0,0,0,.243.933L194.285,469.729A.813.813,0,0,0,194.822,469.929Zm70.523-298.86L194.329,467.582l-356.873-302.22Z" transform="translate(165.686 -163.662)" fill="#dfdfdf"/>
            </g>
            <g id="triangle36-80" data-name="triangle36" transform="translate(2894.894 607.209)">
              <path id="Path_1318" data-name="Path 1318" d="M-35.476,424.208a.811.811,0,0,0,.38-.093L279.141,262.7a.829.829,0,0,0,.45-.667.847.847,0,0,0-.327-.737L96.451,122.065a.83.83,0,0,0-.713-.147.845.845,0,0,0-.553.473L-36.243,423.038a.846.846,0,0,0,.2.947A.846.846,0,0,0-35.476,424.208ZM277.2,261.822-33.776,421.565,96.284,124.032Z" transform="translate(36.311 -121.892)" fill="#dfdfdf"/>
            </g>
          </g>
        </g>
        <path id="Path_1319" data-name="Path 1319" d="M571.22,179.784a11.618,11.618,0,1,0,11.617-11.62A11.619,11.619,0,0,0,571.22,179.784Z" transform="translate(-578.523 392.383)" fill="#5cc7ff" style="mix-blend-mode: multiply;isolation: isolate"/>
      </g>
      <circle id="Ellipse_26" data-name="Ellipse 26" cx="10.544" cy="10.544" r="10.544" transform="translate(299.447 636.451)" fill="#920061" style="mix-blend-mode: multiply;isolation: isolate"/>
      <path id="Path_1320" data-name="Path 1320" d="M464.793,180.513a10.5,10.5,0,1,0,10.5-10.493A10.5,10.5,0,0,0,464.793,180.513Z" transform="translate(-115.096 396.713)" fill="#920061" style="mix-blend-mode: multiply;isolation: isolate"/>
      <path id="Path_1321" data-name="Path 1321" d="M547.982,230.974a9.913,9.913,0,1,0,9.913-9.91A9.913,9.913,0,0,0,547.982,230.974Z" transform="translate(-474.415 515.816)" fill="#920061" style="mix-blend-mode: multiply;isolation: isolate"/>
      <path id="Path_1322" data-name="Path 1322" d="M476.615,240.188a10.217,10.217,0,1,0,10.217-10.213A10.216,10.216,0,0,0,476.615,240.188Z" transform="translate(-165.765 536.608)" fill="#920061" style="mix-blend-mode: multiply;isolation: isolate"/>
      <path id="Path_1323" data-name="Path 1323" d="M421.626,212.16a5.46,5.46,0,1,0,5.457-5.463A5.46,5.46,0,0,0,421.626,212.16Z" transform="translate(82.034 482.293)" fill="#920061" style="mix-blend-mode: multiply;isolation: isolate"/>
      <path id="Path_1324" data-name="Path 1324" d="M275.994,214.1a16.555,16.555,0,1,0,16.557-16.553A16.558,16.558,0,0,0,275.994,214.1Z" transform="translate(690.916 460.945)" fill="#920061" style="mix-blend-mode: multiply;isolation: isolate"/>
      <path id="Path_1325" data-name="Path 1325" d="M363.435,222.6a5.9,5.9,0,1,0,5.9-5.907A5.9,5.9,0,0,0,363.435,222.6Z" transform="translate(333.312 505.619)" fill="#920061" style="mix-blend-mode: multiply;isolation: isolate"/>
      <path id="Path_1326" data-name="Path 1326" d="M360.365,249.666a12.835,12.835,0,1,0,12.833-12.83A12.836,12.836,0,0,0,360.365,249.666Z" transform="translate(332.748 552.617)" fill="#920061" style="mix-blend-mode: multiply;isolation: isolate"/>
      <path id="Path_1327" data-name="Path 1327" d="M272.873,132.395a6.522,6.522,0,1,0,6.523-6.52A6.52,6.52,0,0,0,272.873,132.395Z" transform="translate(724.507 293.708)" fill="#008dbf" style="mix-blend-mode: multiply;isolation: isolate"/>
      <path id="Path_1328" data-name="Path 1328" d="M260.545,240.808A13.053,13.053,0,1,0,273.6,227.755,13.057,13.057,0,0,0,260.545,240.808Z" transform="translate(764.865 531.429)" fill="#920061" style="mix-blend-mode: multiply;isolation: isolate"/>
      <path id="Path_1329" data-name="Path 1329" d="M183.128,183.679a9.242,9.242,0,1,0,9.243-9.243A9.243,9.243,0,0,0,183.128,183.679Z" transform="translate(1107.962 407.018)" fill="#920061" style="mix-blend-mode: multiply;isolation: isolate"/>
      <path id="Path_1330" data-name="Path 1330" d="M189.267,275.673a9.382,9.382,0,1,0,9.383-9.383A9.384,9.384,0,0,0,189.267,275.673Z" transform="translate(1081.08 621.344)" fill="#920061" style="mix-blend-mode: multiply;isolation: isolate"/>
      <path id="Path_1331" data-name="Path 1331" d="M52.953,226.225A16.057,16.057,0,1,0,69.01,210.168,16.057,16.057,0,0,0,52.953,226.225Z" transform="translate(1658.424 490.392)" fill="#920061" style="mix-blend-mode: multiply;isolation: isolate"/>
      <path id="Path_1332" data-name="Path 1332" d="M8.871,168.715a13.558,13.558,0,1,0,13.56-13.56A13.558,13.558,0,0,0,8.871,168.715Z" transform="translate(1854.442 362.028)" fill="#920061" style="mix-blend-mode: multiply;isolation: isolate"/>
      <path id="Path_1333" data-name="Path 1333" d="M30.5,144.771a12.89,12.89,0,1,0,12.89-12.89A12.891,12.891,0,0,0,30.5,144.771Z" transform="translate(1762.075 307.723)" fill="#920061" style="mix-blend-mode: multiply;isolation: isolate"/>
      <path id="Path_1334" data-name="Path 1334" d="M546.973,242.228a4.817,4.817,0,1,0,4.817-4.82A4.818,4.818,0,0,0,546.973,242.228Z" transform="translate(-459.85 553.952)" fill="#008dbf" style="mix-blend-mode: multiply;isolation: isolate"/>
      <path id="Path_1335" data-name="Path 1335" d="M495.685,273.584a9.637,9.637,0,1,0,9.637-9.637A9.643,9.643,0,0,0,495.685,273.584Z" transform="translate(-247.242 615.876)" fill="#af0ecc" style="mix-blend-mode: multiply;isolation: isolate"/>
      <path id="Path_1336" data-name="Path 1336" d="M418.915,143.162a14.138,14.138,0,1,0,14.14-14.14A14.139,14.139,0,0,0,418.915,143.162Z" transform="translate(76.425 301.052)" fill="#af0ecc" style="mix-blend-mode: multiply;isolation: isolate"/>
      <path id="Path_1337" data-name="Path 1337" d="M417.314,171.445a7.635,7.635,0,1,0,7.633-7.637A7.637,7.637,0,0,0,417.314,171.445Z" transform="translate(96.369 382.219)" fill="#af0ecc" style="mix-blend-mode: multiply;isolation: isolate"/>
      <path id="Path_1338" data-name="Path 1338" d="M332.611,135.21a8.45,8.45,0,1,0,8.45-8.45A8.452,8.452,0,0,0,332.611,135.21Z" transform="translate(461.786 295.773)" fill="#5cc7ff" style="mix-blend-mode: multiply;isolation: isolate"/>
      <path id="Path_1339" data-name="Path 1339" d="M308.974,155.467a15.242,15.242,0,1,0,15.243-15.24A15.245,15.245,0,0,0,308.974,155.467Z" transform="translate(550.629 327.196)" fill="#af0ecc" style="mix-blend-mode: multiply;isolation: isolate"/>
      <path id="Path_1340" data-name="Path 1340" d="M261.678,261.1a11.718,11.718,0,1,0,11.717-11.72A11.716,11.716,0,0,0,261.678,261.1Z" transform="translate(762.625 581.885)" fill="#008dbf" style="mix-blend-mode: multiply;isolation: isolate"/>
      <path id="Path_1341" data-name="Path 1341" d="M193.276,205.487a12.818,12.818,0,1,0,12.817-12.82A12.817,12.817,0,0,0,193.276,205.487Z" transform="translate(1056.834 449.557)" fill="#5cc7ff" style="mix-blend-mode: multiply;isolation: isolate"/>
      <circle id="Ellipse_27" data-name="Ellipse 27" cx="12.127" cy="12.127" r="12.127" transform="translate(1147.64 446.968)" fill="#af0ecc" style="mix-blend-mode: multiply;isolation: isolate"/>
      <path id="Path_1342" data-name="Path 1342" d="M120.7,206.623a13.532,13.532,0,1,0,13.53-13.527A13.532,13.532,0,0,0,120.7,206.623Z" transform="translate(1369.916 450.558)" fill="#af0ecc" style="mix-blend-mode: multiply;isolation: isolate"/>
      <path id="Path_1343" data-name="Path 1343" d="M145.318,229.154a9.39,9.39,0,1,0,9.39-9.39A9.388,9.388,0,0,0,145.318,229.154Z" transform="translate(1271.509 512.783)" fill="#af0ecc" style="mix-blend-mode: multiply;isolation: isolate"/>
      <path id="Path_1344" data-name="Path 1344" d="M44.564,193.382a5.172,5.172,0,1,0,5.17-5.173A5.173,5.173,0,0,0,44.564,193.382Z" transform="translate(1716.546 439.154)" fill="#5cc7ff" style="mix-blend-mode: multiply;isolation: isolate"/>
      <path id="Path_1345" data-name="Path 1345" d="M40.74,166.83a15.915,15.915,0,1,0,15.913-15.917A15.917,15.917,0,0,0,40.74,166.83Z" transform="translate(1711.63 352.13)" fill="#af0ecc" style="mix-blend-mode: multiply;isolation: isolate"/>
      <path id="Path_1346" data-name="Path 1346" d="M522.4,117.99A11.387,11.387,0,1,0,533.784,106.6,11.387,11.387,0,0,0,522.4,117.99Z" transform="translate(-366.498 248.74)" fill="#fcb200" style="mix-blend-mode: multiply;isolation: isolate"/>
      <path id="Path_1347" data-name="Path 1347" d="M516.743,184.075a9.127,9.127,0,1,0,9.13-9.13A9.132,9.132,0,0,0,516.743,184.075Z" transform="translate(-337.473 408.205)" fill="#fcb200" style="mix-blend-mode: multiply;isolation: isolate"/>
      <path id="Path_1348" data-name="Path 1348" d="M535.071,204.592a11.057,11.057,0,1,0,11.057-11.057A11.056,11.056,0,0,0,535.071,204.592Z" transform="translate(-420.754 451.582)" fill="#fcb200" style="mix-blend-mode: multiply;isolation: isolate"/>
      <path id="Path_1349" data-name="Path 1349" d="M518.294,206.083a10.122,10.122,0,1,0,10.123-10.12A10.125,10.125,0,0,0,518.294,206.083Z" transform="translate(-346.184 457.247)" fill="#fcb200" style="mix-blend-mode: multiply;isolation: isolate"/>
      <path id="Path_1350" data-name="Path 1350" d="M443.813,262.435a15.9,15.9,0,1,0,15.9-15.9A15.9,15.9,0,0,0,443.813,262.435Z" transform="translate(-34.983 575.256)" fill="#fcb200" style="mix-blend-mode: multiply;isolation: isolate"/>
      <path id="Path_1351" data-name="Path 1351" d="M395.832,239.043A13.667,13.667,0,1,0,409.5,225.376,13.668,13.668,0,0,0,395.832,239.043Z" transform="translate(177.395 525.877)" fill="#fcb200" style="mix-blend-mode: multiply;isolation: isolate"/>
      <path id="Path_1352" data-name="Path 1352" d="M394.437,200.759a14.122,14.122,0,1,0,14.123-14.12A14.121,14.121,0,0,0,394.437,200.759Z" transform="translate(182.53 435.491)" fill="#008dbf" style="mix-blend-mode: multiply;isolation: isolate"/>
      <path id="Path_1353" data-name="Path 1353" d="M347.884,158.224A16.112,16.112,0,1,0,364,142.111,16.112,16.112,0,0,0,347.884,158.224Z" transform="translate(380.279 331.593)" fill="#fcb200" style="mix-blend-mode: multiply;isolation: isolate"/>
      <path id="Path_1354" data-name="Path 1354" d="M370.045,121.654a5.53,5.53,0,1,0,5.53-5.53A5.529,5.529,0,0,0,370.045,121.654Z" transform="translate(305.411 270.956)" fill="#fcb200" style="mix-blend-mode: multiply;isolation: isolate"/>
      <path id="Path_1355" data-name="Path 1355" d="M293.586,235.535a4.98,4.98,0,1,0,4.98-4.98A4.981,4.981,0,0,0,293.586,235.535Z" transform="translate(637.834 537.962)" fill="#ffb700" style="mix-blend-mode: multiply;isolation: isolate"/>
      <path id="Path_1356" data-name="Path 1356" d="M158.058,193.326a11.082,11.082,0,1,0,11.08-11.08A11.084,11.084,0,0,0,158.058,193.326Z" transform="translate(1212.919 425.24)" fill="#008dbf" style="mix-blend-mode: multiply;isolation: isolate"/>
      <circle id="Ellipse_28" data-name="Ellipse 28" cx="10.875" cy="10.875" r="10.875" transform="translate(1519.285 855.626)" fill="#fcb200" style="mix-blend-mode: multiply;isolation: isolate"/>
      <path id="Path_1357" data-name="Path 1357" d="M199.827,180.757a8.847,8.847,0,1,0,8.847-8.847A8.85,8.85,0,0,0,199.827,180.757Z" transform="translate(1036.39 401.123)" fill="#fcb200" style="mix-blend-mode: multiply;isolation: isolate"/>
      <path id="Path_1358" data-name="Path 1358" d="M144.229,157.372a14.007,14.007,0,1,0,14.007-14A14.006,14.006,0,0,0,144.229,157.372Z" transform="translate(1266.994 334.527)" fill="#fcb200" style="mix-blend-mode: multiply;isolation: isolate"/>
      <path id="Path_1359" data-name="Path 1359" d="M99.372,121.149A15.028,15.028,0,1,0,114.4,106.122,15.028,15.028,0,0,0,99.372,121.149Z" transform="translate(1459.331 247.618)" fill="#fcb200" style="mix-blend-mode: multiply;isolation: isolate"/>
      <path id="Path_1360" data-name="Path 1360" d="M186.84,118.807a9.43,9.43,0,1,0,9.43-9.43A9.43,9.43,0,0,0,186.84,118.807Z" transform="translate(1091.5 255.213)" fill="#fcb200" style="mix-blend-mode: multiply;isolation: isolate"/>
      <path id="Path_1361" data-name="Path 1361" d="M98.685,289.612a15.3,15.3,0,1,0,15.307-15.3A15.3,15.3,0,0,0,98.685,289.612Z" transform="translate(1461.755 640.055)" fill="#008dbf" style="mix-blend-mode: multiply;isolation: isolate"/>
    </g>
  </g>
</svg>
