<svg xmlns="http://www.w3.org/2000/svg" width="18.599" height="24.154" viewBox="0 0 18.599 24.154">
  <g id="file-upload" transform="translate(-58.275 0.5)">
    <g id="Group_67" data-name="Group 67" transform="translate(58.775 0)">
      <path id="Path_142" data-name="Path 142" d="M76.374,177.565v-9.475a2.941,2.941,0,0,0-2.935-2.935h-1.9a.581.581,0,1,0,0,1.163h1.9a1.781,1.781,0,0,1,1.777,1.777v9.48a1.781,1.781,0,0,1-1.777,1.777H61.71a1.781,1.781,0,0,1-1.777-1.777v-9.485a1.781,1.781,0,0,1,1.777-1.777h1.9a.581.581,0,0,0,0-1.163h-1.9a2.941,2.941,0,0,0-2.935,2.935v9.48A2.941,2.941,0,0,0,61.71,180.5H73.439A2.935,2.935,0,0,0,76.374,177.565Z" transform="translate(-58.775 -157.345)" fill="#fff" stroke="#fff" stroke-width="1"/>
      <path id="Path_143" data-name="Path 143" d="M149.069,4.941a.576.576,0,0,0,.818,0l2.977-2.977v10.86a.581.581,0,1,0,1.163,0V1.968L157,4.946a.58.58,0,0,0,.822-.818L153.861.163a.594.594,0,0,0-.818,0l-3.965,3.965A.562.562,0,0,0,149.069,4.941Z" transform="translate(-144.641 0)" fill="#fff" stroke="#fff" stroke-width="1"/>
    </g>
  </g>
</svg>
