<svg xmlns="http://www.w3.org/2000/svg" width="621.02" height="592.668" viewBox="0 0 621.02 592.668">
  <g id="login-image" transform="translate(-277.75 -223)">
    <rect id="Rectangle_67" data-name="Rectangle 67" width="452.445" height="331.199" rx="5" transform="translate(361.782 276)" fill="#fff"/>
    <path id="Rectangle_68" data-name="Rectangle 68" d="M5,0H447.445a5,5,0,0,1,5,5v7.744a0,0,0,0,1,0,0H0a0,0,0,0,1,0,0V5A5,5,0,0,1,5,0Z" transform="translate(361.712 276)" fill="#1a1a1a"/>
    <path id="Path_191" data-name="Path 191" d="M94.444,60.842a2.567,2.567,0,1,1-2.567-2.568A2.567,2.567,0,0,1,94.444,60.842Z" transform="translate(279.559 221.838)" fill="#d47172"/>
    <ellipse id="Ellipse_16" data-name="Ellipse 16" cx="2.567" cy="2.567" rx="2.567" ry="2.567" transform="translate(379.352 280.112)" fill="#7696ea"/>
    <ellipse id="Ellipse_17" data-name="Ellipse 17" cx="2.567" cy="2.567" rx="2.567" ry="2.567" transform="translate(389.835 280.112)" fill="#9dd1c9"/>
    <g id="Group_178" data-name="Group 178" transform="translate(278 223)">
      <path id="Path_31" data-name="Path 31" d="M169.706,97.6h3.913a14.9,14.9,0,0,0,14.9,14.9v3.913a14.9,14.9,0,0,0-14.9,14.9h-3.913a14.9,14.9,0,0,0-14.9-14.9v-3.913A14.9,14.9,0,0,0,169.706,97.6Z" transform="translate(-127.953 -53.581)" fill="#1a1a1a"/>
      <path id="Path_32" data-name="Path 32" d="M154.855,73.775h1.73a14.9,14.9,0,0,0,14.9,14.9v1.729a14.9,14.9,0,0,0-14.9,14.9h-1.73a14.9,14.9,0,0,0-14.9-14.9V88.678A14.9,14.9,0,0,0,154.855,73.775Z" transform="translate(-139.954 -72.838)" fill="none" stroke="#1a1a1a" stroke-miterlimit="10" stroke-width="0.5"/>
      <path id="Path_33" data-name="Path 33" d="M181.711,73.257h0a14.9,14.9,0,0,0,14.9,14.9h0a14.9,14.9,0,0,0-14.9,14.9h0a14.9,14.9,0,0,0-14.9-14.9h0A14.9,14.9,0,0,0,181.711,73.257Z" transform="translate(-118.249 -73.257)" fill="#920061"/>
    </g>
    <g id="Group_1302" data-name="Group 1302" transform="translate(0 -26.793)">
      <path id="Path_234" data-name="Path 234" d="M332.951,144.576V161.67h-4.83V144.576c0-6.5-4.937-11.786-11.011-11.786S306.1,138.076,306.1,144.576V161.67h-4.83V144.576c0-9.309,7.105-16.88,15.841-16.88S332.951,135.267,332.951,144.576Z" transform="translate(277.943 254.396)" fill="#920061"/>
      <rect id="Rectangle_71" data-name="Rectangle 71" width="44.064" height="36.568" rx="8" transform="translate(573.021 409.741)" fill="#fff" stroke="#1a1a1a" stroke-width="1"/>
      <path id="Path_237" data-name="Path 237" d="M326,195.385l1.845,8.751h-7.828l1.844-8.751a3.915,3.915,0,1,1,4.139,0Z" transform="translate(271.124 232.4)" fill="#920061"/>
      <path id="Path_18" data-name="Path 18" d="M82.362,121.4,67.747,137.65a8.481,8.481,0,0,0-1.187,4.342v85.552a8.512,8.512,0,0,0,8.511,8.513l81.07-.3c1.062.067,5.242.2,7.231-1.789,3.73-3.73,17.84-18.35,17.84-18.35" transform="translate(464.525 244.583)" fill="none" stroke="#1a1a1a" stroke-miterlimit="10" stroke-width="0.5"/>
      <rect id="Rectangle_15" data-name="Rectangle 15" width="100.192" height="102.578" rx="4.79" transform="translate(545.534 362.793)" fill="none" stroke="#1a1a1a" stroke-miterlimit="10" stroke-width="0.5"/>
      <line id="Line_6" data-name="Line 6" x1="13.748" y2="14.714" transform="translate(533.072 462.744)" fill="none" stroke="#1a1a1a" stroke-miterlimit="10" stroke-width="0.5"/>
    </g>
    <g id="Group_1227" data-name="Group 1227" transform="translate(328.019 374)">
      <path id="Path_1632" data-name="Path 1632" d="M2535.48,2652.472l-.016,2.883s.786,9.019-10.319,10.335-20.211,1.147-19.91-5.812c1-5.388,2.792-13.752,2.866-18.211a31.359,31.359,0,0,0-.395-5.4l21.518-.43,6.337,1.035Z" transform="translate(-2434.684 -2588.947)" fill="#ffb27d"/>
      <path id="Path_1633" data-name="Path 1633" d="M2533.082,2636.874l-.081,15.6a18.2,18.2,0,0,1-7.756,1.712c-9.89,0-16.282-7.252-19.623-12.516a31.359,31.359,0,0,0-.395-5.4l21.518-.43Z" transform="translate(-2432.205 -2588.947)" fill="#e2915a"/>
      <path id="Path_1634" data-name="Path 1634" d="M2498,2603.883c2.5,13.436,19.833,13,27.325,12.15,2.109-.235,3.435-.5,3.435-.5,2.378-.635,3.7-4.379,4.321-9.285,1.223-9.708-.322-23.957-1.961-27.6-2.469-5.484-7.117-11.416-24.576-7.136S2494.8,2586.667,2498,2603.883Z" transform="translate(-2426.63 -2560.023)" fill="#ffb27d"/>
      <path id="Path_1635" data-name="Path 1635" d="M2539.35,3328.483h24.567a59.221,59.221,0,0,0-1.959-8.818,24.988,24.988,0,0,0-1.392-3.54c-2.389-4.77-17.565-1.736-17.565-1.736s-1.41,1.208-2.511,5.821A48.911,48.911,0,0,0,2539.35,3328.483Z" transform="translate(-2482.163 -2886.815)" fill="#1a1a1a"/>
      <path id="Path_1636" data-name="Path 1636" d="M2360.98,3312.885c.067,3.342.488,6.505,1.7,7.754h48.593c-.618-1.759-2.367-4.4-7.355-5.212-5.668-.917-14.505-3.646-19.664-9.1a14.636,14.636,0,0,1-3.807-6.9c-2.286-10.178-18.9,3.119-18.9,3.119A82.244,82.244,0,0,0,2360.98,3312.885Z" transform="translate(-2229.554 -2878.971)" fill="#1a1a1a"/>
      <path id="Path_1637" data-name="Path 1637" d="M2431.793,3032.886a76.6,76.6,0,0,1,1.22,8.976c1.545,30.132,25.365,99.029,29.625,100.635,6.593,2.488,16.973-2.8,22.406-4.531a4.659,4.659,0,0,0,3.268-5.292c-11.8-54.229-16.132-132.315-17.709-178.547-.8-23.287-4.794-39.373-4.794-39.373s-58.1-15.5-58.44,4.108C2407.063,2936.214,2426.613,3004.262,2431.793,3032.886Z" transform="translate(-2332.688 -2709)" fill="#2b2b2b"/>
      <path id="Path_1638" data-name="Path 1638" d="M2463.564,3032.886l38.81-78.757c-.8-23.287-4.794-39.373-4.794-39.373s-58.1-15.5-58.44,4.108C2438.834,2936.214,2458.384,3004.262,2463.564,3032.886Z" transform="translate(-2364.459 -2709)" fill="#1a1a1a"/>
      <path id="Path_1639" data-name="Path 1639" d="M2550.492,2921.216l-30.712,222.589s-13.487,3.252-23.977.651c0,0-8.991-118.383-8.242-147s-6.454-76.582,1.643-81.871S2550.492,2921.216,2550.492,2921.216Z" transform="translate(-2438.461 -2711.284)" fill="#2b2b2b"/>
      <path id="Path_1640" data-name="Path 1640" d="M2538.5,2557.994a57.764,57.764,0,0,1-16.75-4.533c-7.357-3.2-16.638.324-19.651,1.912a4.472,4.472,0,0,1,.735-1.813,4.044,4.044,0,0,0-1.552,2.3c-.14.1-.2.174-.166.2a5.18,5.18,0,0,0-2.518.163s.689-.1.936.344a.4.4,0,0,0,.11.122c-11.477,5.545-12.536,23.682-8.843,27.879,4.443,5.049,9.771,16.419,9.771,16.419a9.747,9.747,0,0,0,1.135-7.129c-.808-4.443,3.029-4.443,7.876-6.463s.808-7.675,5.049-11.108,19.792-1.414,19.59-4.039C2540,2570.144,2538.5,2558.586,2538.5,2557.994Z" transform="translate(-2428.651 -2552.164)" fill="#1a1a1a"/>
      <path id="Path_1641" data-name="Path 1641" d="M2449.033,2685.636l7.071,151.717s59.015.964,57.33-12.391-21.272-134.679-21.272-134.679Z" transform="translate(-2381.102 -2610.837)" fill="#e9f3fe"/>
      <path id="Path_1642" data-name="Path 1642" d="M2540.642,2767.207c3.512,10.533-3.108,45.876-5.468,57.85-.518,2.532-.864,4.029-.864,4.029,8.174,13.295,38.106,13.124,38.106,13.124,5.756-25.443,8.75-65.965,8.75-65.965L2558.2,2675.568l-28.9,26.709s2.187,16.291,4.893,32.868C2536.325,2748.269,2538.743,2761.624,2540.642,2767.207Z" transform="translate(-2493.781 -2606.412)" fill="#920061"/>
      <path id="Path_1643" data-name="Path 1643" d="M2499.075,2633.113s.562,1.732,4.936,1.1c0,0,3.672-.531,3.4-2.464A11.916,11.916,0,0,0,2499.075,2633.113Z" transform="translate(-2403.1 -2587.043)" fill="#fff"/>
      <path id="Path_1644" data-name="Path 1644" d="M2391.783,2683.614l.013.064c1.4,1.353,40.793,39.6,48.426,54.585,7.771,15.2-35.515,45.473-35.515,45.473s-2.786,1.1-4.719.67c2.041,16.8,4.332,32.309,2.975,38.927-2.453,11.961-13.518,15.978-13.518,15.058,0-.293-4.046-43.466-6.245-65.993-4.713-48.3-16.515-96.282-16.515-96.282C2379.567,2677.455,2391.783,2683.614,2391.783,2683.614Zm23.457,61.212a.349.349,0,0,0,.058-.23c0-2.188-8.347-7.023-17.384-12.721l-.173-.175-.018-.011c.161,4.656.144,9.223-.133,13.475-.512,7.887.06,17.312,1.014,26.91C2402.907,2765.356,2414.4,2747.3,2415.24,2744.826Z" transform="translate(-2262.638 -2606.652)" fill="#920061"/>
      <g id="Group_1226" data-name="Group 1226" transform="translate(66.259 63.797)">
        <path id="Path_1645" data-name="Path 1645" d="M2517.808,2672.54c-.072-1.448,6.786-3.448,6.786-3.448s7.85,10.883,20.782,11.072c0,0-3.685,7.172-8.029,9.03C2537.347,2689.193,2518.234,2681.138,2517.808,2672.54Z" transform="translate(-2517.807 -2667.362)" fill="#d9e9f9"/>
        <path id="Path_1646" data-name="Path 1646" d="M2493.148,2681.7s6.851-4.061,6.875-8.465c0,0,4.424-.554,6.357,1.592,0,0,1.625,7.546-.53,11.929C2505.85,2686.76,2495.984,2685.256,2493.148,2681.7Z" transform="translate(-2465.58 -2669.156)" fill="#d9e9f9"/>
        <path id="Path_1647" data-name="Path 1647" d="M2507.812,2685.482l9.29-2.226a1.407,1.407,0,0,1,1.18,1.618c-.033,1.513-2.616,5.935-3.76,6.288S2505.614,2688.544,2507.812,2685.482Z" transform="translate(-2484.894 -2673.588)" fill="#fcb200"/>
        <path id="Path_1648" data-name="Path 1648" d="M2517.808,2670.436c-.072-1.448,4.57-4.431,4.57-4.431s8.984,10.5,21.917,10.688c0,0-3.685,7.173-8.029,9.03C2536.265,2685.723,2518.235,2679.034,2517.808,2670.436Z" transform="translate(-2516.726 -2666.005)" fill="#e9f3fe"/>
        <path id="Path_1649" data-name="Path 1649" d="M2493.246,2678.741s6.928-3.673,6.952-8.076c0,0,4.182,1.841,6.115,3.987,0,0,1.789,4.763-.366,9.146C2505.947,2683.8,2496.082,2682.294,2493.246,2678.741Z" transform="translate(-2465.677 -2668.053)" fill="#e9f3fe"/>
        <g id="Group_1225" data-name="Group 1225" transform="translate(26.592 14.802)">
          <path id="Path_1650" data-name="Path 1650" d="M2503.537,2792.957a14.324,14.324,0,0,1-4.56,9.257l-4.115,3.791a2.41,2.41,0,0,1-3.527-.283l-5.1-6.473a8.6,8.6,0,0,1-1.8-6.132c.477-4.9,1.366-14.337,2.076-23.446.579-7.381,1.043-14.551,1.077-18.913.112-13.927-2.651-58.34-2.651-58.34l3.339.174a178.832,178.832,0,0,1,12.635,40.7,155.319,155.319,0,0,1,2.308,18.286S2504.962,2776.941,2503.537,2792.957Z" transform="translate(-2484.398 -2692.418)" fill="#fcb200"/>
          <path id="Path_1651" data-name="Path 1651" d="M2503.537,2825.017a14.324,14.324,0,0,1-4.56,9.256l-4.115,3.791a2.41,2.41,0,0,1-3.527-.283l-5.1-6.473a8.6,8.6,0,0,1-1.8-6.132c.477-4.9,1.366-14.337,2.076-23.446,9.227-10.366,12.966-24.691,14.4-36.382a155.325,155.325,0,0,1,2.308,18.286S2504.962,2809,2503.537,2825.017Z" transform="translate(-2484.398 -2724.477)" fill="#fcb200"/>
        </g>
      </g>
      <path id="Path_1652" data-name="Path 1652" d="M2439.785,2867.486a6.387,6.387,0,0,0-7.225-6.391,3.954,3.954,0,0,0-2.683,1.482c-2.631,3.5-5.134,13.692-.472,14.168,1.9.194,4.335-1.137,6.213-2.564,1.908-1.448,4.167-3.719,4.167-6.114Z" transform="translate(-2294.957 -2687.937)" fill="#ffb27d"/>
      <path id="Path_1653" data-name="Path 1653" d="M2572.062,2871.79c8.461-8.808,23.082-26.134,22.564-40.353-.691-19.916-23.542-49.559-23.542-49.559,2.13,13.124,4.547,26.479,6.446,32.062C2581.042,2824.473,2574.422,2859.816,2572.062,2871.79Z" transform="translate(-2530.669 -2653.144)" fill="#7b0051"/>
      <path id="Path_1654" data-name="Path 1654" d="M2566.085,2880.5s6.083,3.041,9.776,1.52,8.037-2.663,12.165,2.035,5,7.958,4.128,9.7-10.493,1.086-12.089,0-4.122-3.76-5.725-3.295c-4.42,1.285-8.143-2.087-10.227-4.772C2562.857,2884.066,2566.249,2883.281,2566.085,2880.5Z" transform="translate(-2524.427 -2696.499)" fill="#ffb27d"/>
      <path id="Path_1655" data-name="Path 1655" d="M2634.7,2675.568s-24.229,2.682-29.942,13.233-35.425,53.31-34.453,71.08,40.53,37.7,40.53,37.7,8.76-3.7,8.892-7.685-27.347-27.79-25.681-32.232,31.922-39.579,34.841-51.165S2634.7,2675.568,2634.7,2675.568Z" transform="translate(-2570.285 -2606.412)" fill="#920061"/>
      <path id="Path_1656" data-name="Path 1656" d="M2412.708,2766.764s.058.06.173.175c9.037,5.7,17.384,10.532,17.384,12.72,1.208-3.858-10.534-19.975-14.334-23.255C2412.076,2753.065,2412.708,2766.764,2412.708,2766.764Z" transform="translate(-2277.606 -2641.716)" fill="#7b0051"/>
      <path id="Path_1657" data-name="Path 1657" d="M2539.4,2666s18.393,77.036,15.465,106.057c0,0-6.763-31.011-23.036-56.412,0,0,5.938-5.223,5.616-7.149a20.337,20.337,0,0,0-8.686-.427s.473-33.207,3.14-36.715S2539.4,2666,2539.4,2666Z" transform="translate(-2467.484 -2602.207)" fill="#7b0051"/>
      <path id="Path_1658" data-name="Path 1658" d="M2470.107,2670.665c-.375-.22,18.228,75.279,19.782,99.337,0,0-1.843-42.932-1.662-55.3,0,0-7.639-4.045-7.639-5.464s8.149-5.256,8.149-5.256-5.161-26.439-7.977-29.352S2470.107,2670.665,2470.107,2670.665Z" transform="translate(-2369.327 -2604.255)" fill="#7b0051"/>
    </g>
    <g id="Group_1240" data-name="Group 1240" transform="translate(5)">
      <g id="Group_1215" data-name="Group 1215" transform="translate(642.909 573.7)">
        <path id="Path_1599" data-name="Path 1599" d="M2158.782,3002.711c.862-21.193,2.72-39.629,4.943-52.486,3.544-20.494,6.735-32.285,6.772-32.41.467-1.8,7.211-9.095,22.207-8.87s13.573,9.789,13.573,9.789h0a3.113,3.113,0,0,1-.107.85c-.145.493-13.911,50.4-13.314,114.846.009.9.11,2.469.045,3.51,0,0-34.75.9-34.759,0C2156.932,3032.309,2157.523,3016.7,2158.782,3002.711Z" transform="translate(-2069.524 -2908.939)" fill="#df9f04"/>
        <path id="Path_1600" data-name="Path 1600" d="M2151.448,3034.113c.01.9.484,1.617,1.063,1.617h.013c.578-.013,1.039-.732,1.045-1.617h29.782c.01.9.484,1.617,1.062,1.617h.014c.588-.013,1.056-.756,1.049-1.664a449.854,449.854,0,0,1,2.471-50.877c3.959-37.913,11.278-63.254,11.382-63.6a3.176,3.176,0,0,0,.107-.851s1.422-9.563-13.572-9.789-21.743,7.068-22.21,8.871c-.028.094-1.834,6.771-4.236,18.774-.8,3.977-1.654,8.537-2.537,13.634-2.221,12.857-4.08,31.294-4.941,52.485C2150.679,3016.7,2150.236,3028.482,2151.448,3034.113Z" transform="translate(-2066.559 -2908.94)" fill="#fcb200"/>
        <path id="Path_1601" data-name="Path 1601" d="M2151.448,3055.8c.01.9.484,1.617,1.063,1.617h.013c.578-.013,1.039-.733,1.045-1.617h29.782c.01.9.484,1.617,1.062,1.617h.014c.588-.013,1.056-.756,1.049-1.664a449.854,449.854,0,0,1,2.471-50.877c-4.924-24.061-23.954-42.464-28.529-46.6-.8,3.977-1.654,8.537-2.537,13.634-2.221,12.858-4.08,31.294-4.941,52.485C2150.679,3038.391,2150.236,3050.172,2151.448,3055.8Z" transform="translate(-2066.559 -2930.629)" fill="#f5bf3f"/>
        <g id="Group_1210" data-name="Group 1210" transform="translate(86.409 3.796)">
          <path id="Path_1602" data-name="Path 1602" d="M2183.214,3036.783l-.083-.059c-.024-.017-.043-.03-.053-.15l-.019,0a.812.812,0,0,0-.239-.63c-.945-.966-4.548-.926-9.11-.873a94.016,94.016,0,0,1-17.375-.958c-3.2-.561-1.04-25.177,1.232-48.2.386-3.916.691-7.008.828-8.827,1.473-19.492,10.031-54.369,10.111-54.645.379-1.465,5.522-6.9,16.675-6.717,4.192.063,7.172,1.1,8.855,3.082a5.9,5.9,0,0,1,1.4,4.391,2.315,2.315,0,0,1-.085.655c-.046.189-7.752,45.166-9.013,55.967-2.073,17.775-2.9,54.63-2.94,56.68,0,.025,0,.051,0,.077l0,.1Zm-6.651-2.078c3.327,0,5.673.153,6.5,1l.007.008c.013-.85.058-2.438.141-5.43.1-3.522.266-9.023.51-15.227.429-10.856,1.171-25.788,2.279-35.282,1.288-11.038,8.983-55.883,9.024-56.023a2.152,2.152,0,0,0,.073-.583,5.671,5.671,0,0,0-1.327-4.15c-1.618-1.9-4.51-2.9-8.595-2.956-.17,0-.339,0-.506,0-10.607,0-15.475,5.076-15.836,6.469-.084.32-8.618,34.966-10.1,54.58l-.17-.013.17.013c-.137,1.823-.443,4.917-.829,8.835-1.514,15.347-4.664,47.282-1.512,47.835a93.756,93.756,0,0,0,17.312.952C2174.721,3034.716,2175.676,3034.705,2176.563,3034.705Z" transform="translate(-2154.72 -2915.714)" fill="#fff"/>
        </g>
        <path id="Path_1603" data-name="Path 1603" d="M2125.066,3127.711H2008.307s2.719-11,70.339-9.365C2126.5,3119.507,2125.066,3127.711,2125.066,3127.711Z" transform="translate(-2003.949 -3000.92)" fill="#fcb200"/>
        <g id="Group_1211" data-name="Group 1211" transform="translate(110.827 128.495)">
          <path id="Path_1604" data-name="Path 1604" d="M2218.085,3251.454c-13.538-68.533-10.057-110.587-10.04-111.117.034-1.056-1.911-2.014-2.957-2.048-1.059-.019-5.732-.311-6.273.591-.708,1.184-3.435,53,16.742,112.573Z" transform="translate(-2198.292 -3138.229)" fill="#df9f04"/>
        </g>
        <g id="Group_1212" data-name="Group 1212" transform="translate(21.604 128.495)">
          <path id="Path_1605" data-name="Path 1605" d="M2039.081,3251.454c13.538-68.533,10.057-110.587,10.04-111.117-.034-1.056,1.911-2.014,2.957-2.048,1.059-.019,5.732-.311,6.273.591.708,1.184,3.435,53-16.742,112.573Z" transform="translate(-2039.081 -3138.229)" fill="#df9f04"/>
        </g>
        <g id="Group_1213" data-name="Group 1213" transform="translate(0 128.495)">
          <path id="Path_1606" data-name="Path 1606" d="M2000.53,3251.454c13.538-68.533,10.056-110.587,10.04-111.117-.034-1.056,1.91-2.014,2.956-2.048,1.06-.019,5.732-.311,6.273.591.708,1.184,3.435,53-16.742,112.573Z" transform="translate(-2000.53 -3138.229)" fill="#df9f04"/>
        </g>
        <g id="Group_1214" data-name="Group 1214" transform="translate(89.077 128.495)">
          <path id="Path_1607" data-name="Path 1607" d="M2179.274,3251.454c-13.538-68.533-10.057-110.587-10.04-111.117.034-1.056-1.911-2.014-2.957-2.048-1.059-.019-5.732-.311-6.272.591-.708,1.184-3.435,53,16.741,112.573Z" transform="translate(-2159.481 -3138.229)" fill="#df9f04"/>
        </g>
        <rect id="Rectangle_874" data-name="Rectangle 874" width="121.542" height="6.355" rx="3.178" transform="translate(123.44 130.303) rotate(180)" fill="#df9f04"/>
      </g>
      <g id="Group_1231" data-name="Group 1231" transform="translate(548.294 481.258)">
        <g id="Group_1228" data-name="Group 1228" transform="translate(0 0)">
          <path id="Path_1659" data-name="Path 1659" d="M2054.069,3241.838a3.449,3.449,0,0,1,.615,3.688.03.03,0,0,1-.009.018c-.89,2.458-3.829,5.2-7.243,7.946-.436.352-.824.673-1.162.969-.089.078-.177.156-.261.234-.068.06-.134.124-.2.181-3.184,2.935-1.986,3.607-7.705,9.562-6.522,6.786-11.013,6.908-12.29,6.29-1.081-.527,1.115-4.126,3.547-8.171.118-.195.234-.392.355-.59.324-.537.646-1.083.968-1.624,2.851-4.869,2.119-7.153,1.443-14.4-.55-5.888-9.16-32.893-9.16-32.893l12.5-2.153s3.764,21.5,7.911,24.815c2.218,1.765,4.7,1.788,6.831,3.1.151.091.3.184.444.28A16.4,16.4,0,0,1,2054.069,3241.838Z" transform="translate(-1915.777 -2949.237)" fill="#ffb27d"/>
          <path id="Path_1660" data-name="Path 1660" d="M2056.08,3263.733a3.448,3.448,0,0,1,.615,3.689.028.028,0,0,1-.01.018c-1.089,2.456-3.955,5.188-7.255,7.921-.431.358-.811.687-1.15.994-.089.078-.177.156-.261.234-.069.06-.135.123-.2.181-3.184,2.935-1.986,3.607-7.705,9.562-6.522,6.786-11.013,6.908-12.29,6.29-1.081-.527,1.115-4.126,3.547-8.171a27.788,27.788,0,0,0,11.626-8.566c3.927-5.011,6.547-11.45,9.22-15.179q.226.136.444.28A16.406,16.406,0,0,1,2056.08,3263.733Z" transform="translate(-1917.788 -2971.131)" fill="#1a1a1a"/>
          <path id="Path_1661" data-name="Path 1661" d="M1869.209,3231.049c-.772,3.857-6.271,3.214-12.415,1.713s-4.683.284-13.427-.685-11.393-4.228-11.66-5.528c-.239-1.153,4.082-1.56,8.716-2.094.583-.065,1.168-.137,1.754-.209,5.232-.656,9.064-4.033,13.817-6.806,4.5-2.626,11.22-13.327,11.22-13.327l11.992.949s-6.293,9.558-8.727,13.713c-1.432,2.444-1.356,5.677-1.177,8.172A15.407,15.407,0,0,1,1869.209,3231.049Z" transform="translate(-1831.697 -2946.253)" fill="#ffb27d"/>
          <path id="Path_1662" data-name="Path 1662" d="M1856.794,3248.719c-6.144-1.5-4.683.284-13.427-.685s-11.393-4.229-11.66-5.529c-.239-1.153,4.082-1.56,8.716-2.094l.043.089a24.651,24.651,0,0,0,12.523,3.893c5.932.144,12.216-1.556,16.313-1.49a15.407,15.407,0,0,1-.092,4.1C1868.437,3250.864,1862.938,3250.221,1856.794,3248.719Z" transform="translate(-1831.697 -2962.211)" fill="#1a1a1a"/>
          <path id="Path_1663" data-name="Path 1663" d="M1930.461,2931.373s-2.857-7-6-7.286-13.143-1.857-13.857-.428,0,6.571,2.142,8.429,15.428,4.857,15.428,4.857Z" transform="translate(-1866.266 -2822.708)" fill="#ffb27d"/>
          <path id="Path_1664" data-name="Path 1664" d="M1980.638,3100.273l25.845,69.553a23.673,23.673,0,0,0,7.777-.713,33.5,33.5,0,0,0,7.517-3.66s-6.411-66.783-18.165-80.674S1980.638,3100.273,1980.638,3100.273Z" transform="translate(-1897.17 -2892.156)" fill="#1a1a1a"/>
          <path id="Path_1665" data-name="Path 1665" d="M2039.8,3049.051s-74.262-25.11-90.825-19.767-66.29,104.279-66.29,104.279a9.6,9.6,0,0,0,4.186,2.642c2.849,1.069,9.747,1,9.747,1s44.878-38.467,50.22-49.687,7.48-21.9,12.823-20.836,68.92,26.179,83.345,11.219,10.653-34.4,10.653-34.4Z" transform="translate(-1854.112 -2869.072)" fill="#2b2b2b"/>
          <path id="Path_1666" data-name="Path 1666" d="M2076.547,2807.147c-1.186-2.448-2.512-6.8-3.161-14.551.1.77,1.436,10.548,5.2,16.083,15.444,10.14,45.046,44,44.461,50.413,0,0,10.427-17.685,10.606-17.791,0,0,19.234-24.458-3.561-38.469-11.587-7.12-11.528-16.26-11.043-24.2s-3.16-42.114-26.369-33.17c0,0-3.724-1.654-5.392-1.407a4.563,4.563,0,0,1,2.056.976,18.008,18.008,0,0,0-9.748,1.865C2071.083,2751.733,2063.469,2795.111,2076.547,2807.147Z" transform="translate(-1936.239 -2743.985)" fill="#1a1a1a"/>
          <path id="Path_1667" data-name="Path 1667" d="M2087.327,2842.391c-.077.035,7.458,3.947,13.124,2.4,5.331-1.453,8.814-8.365,8.741-8.381-2.258-.448-2.908-3.551-2.86-16.882l-1.021.2-17.16,3.4s.391,5.4.4,10.487C2088.564,2837.884,2088.305,2841.935,2087.327,2842.391Z" transform="translate(-1944.07 -2777.192)" fill="#ffb27d"/>
          <path id="Path_1668" data-name="Path 1668" d="M2088.8,2823.283s.391,5.4.4,10.488c9.6-.271,14.678-9.03,16.758-13.885Z" transform="translate(-1944.716 -2777.35)" fill="#ed975d"/>
          <path id="Path_1669" data-name="Path 1669" d="M2099.252,2788.893s5.032-7.952,6.241-14.75c.862-4.854-1.61-22.846-19.691-20.255a24.563,24.563,0,0,0-10.187,3.851c-3.926,2.651-9.591,8.375-3.257,24.076l1.646,5.3Z" transform="translate(-1936.239 -2748.226)" fill="#1a1a1a"/>
          <path id="Path_1670" data-name="Path 1670" d="M2077.139,2804.472s22.719.375,22.735-13.778,2.958-23.635-11.547-24.472-17.33,4.56-18.484,9.281S2071.23,2804.01,2077.139,2804.472Z" transform="translate(-1936.265 -2753.722)" fill="#ffb27d"/>
          <path id="Path_1671" data-name="Path 1671" d="M2084.575,2763.415s6.221,16.6,15.768,19.058,13.687-.1,13.687-.1a27.032,27.032,0,0,1-8.842-15.971S2089.267,2755.512,2084.575,2763.415Z" transform="translate(-1942.86 -2751.262)" fill="#1a1a1a"/>
          <path id="Path_1672" data-name="Path 1672" d="M2078.3,2765.952s-4.645,3.707-5.778,7.311-1.642,11.023-3.8,10.77c0,0-4.686-11.285.581-17.669C2074.886,2759.595,2078.3,2765.952,2078.3,2765.952Z" transform="translate(-1935.046 -2752.451)" fill="#1a1a1a"/>
          <path id="Path_1673" data-name="Path 1673" d="M2134.633,2970.8c-1.225,3.4-4.983,4.277-10.02,3.686-9.6-1.122-23.869-7.569-34.148-12.028-15.672-6.793-22.8-.41-27.783-4.734s5.7-13.938-3.563-58.58c-3.141-15.137,16.763-47.594,16.763-47.594s1.72,9.4,20.762-1.906c.673-.4,8.167,10.7,15.388,24.382,7.957,15.1,15.579,33.329,13.339,42.726C2121.1,2934.661,2138.194,2960.912,2134.633,2970.8Z" transform="translate(-1931.522 -2790.425)" fill="#920061"/>
          <path id="Path_1674" data-name="Path 1674" d="M2022.581,2853.05l-11.74,48.157s-1.46,2.6-3.75,6.3c-5.375,8.691-15.324,23.455-21.692,24.955-3.142.741-9.824-1.873-17.219-5.609-13.981-7.064-30.512-18.134-30.512-18.134-1.069-6.412,4.51-11.637,4.51-11.637s33.482,12.584,36.809,12.823c7.248.517,14.625-34.469,21.4-46.127C2005.284,2855.347,2022.581,2853.05,2022.581,2853.05Z" transform="translate(-1878.221 -2791.929)" fill="#920061"/>
          <path id="Path_1675" data-name="Path 1675" d="M2085.389,2818.333s-.423,1.8-4.9,1.521c0,0-3.756-.232-3.64-2.208A12.081,12.081,0,0,1,2085.389,2818.333Z" transform="translate(-1939.465 -2776.163)" fill="#fff"/>
          <path id="Path_1676" data-name="Path 1676" d="M2158.783,3003.674c-1.225,3.4-4.983,4.277-10.02,3.686-6.647-2.9-35.359-14.02-35.039-21.557.477-11.159,5.521-11.516,1.959-25.289-2.86-11.06,23.67-31.624,27.9-36.094,7.957,15.1,8.177,15.809,5.937,25.206C2145.248,2967.537,2162.345,2993.789,2158.783,3003.674Z" transform="translate(-1955.673 -2823.302)" fill="#7b0051"/>
          <path id="Path_1677" data-name="Path 1677" d="M2031.131,2948.72c-5.375,8.691-15.324,23.455-21.692,24.955-3.142.741-9.824-1.874-17.218-5.61a44.72,44.72,0,0,0,15.733.862c5.521-.535,7.124-7.3,15.851-17.454C2029.464,2944.891,2030.853,2946.547,2031.131,2948.72Z" transform="translate(-1902.262 -2833.141)" fill="#7b0051"/>
          <path id="Path_1678" data-name="Path 1678" d="M2096.608,2986.006s-4.809-3.74-9.35-2.85-6.768,4.008-6.59,5.433,2.583,5.432,6.055,5.788,13.357-2.137,13.357-2.137Z" transform="translate(-1941.138 -2849.063)" fill="#ffb27d"/>
          <path id="Path_1679" data-name="Path 1679" d="M2117.352,2849.649s18.517,1.141,24.927,10.081c9.024,12.586,24.7,63.968,20.422,75.721l-56.338-.237s-1.366-6.382.534-9.469,32.77-8.074,34.194-9.5-17.81-27.783-17.81-32.058S2117.352,2849.649,2117.352,2849.649Z" transform="translate(-1952.23 -2790.434)" fill="#920061"/>
        </g>
        <g id="Group_1230" data-name="Group 1230" transform="translate(70.135 115.108)">
          <g id="Group_1229" data-name="Group 1229">
            <path id="Path_1680" data-name="Path 1680" d="M2037.348,2992.263h-68.205l-12.3-42.878h68.1Z" transform="translate(-1956.846 -2949.385)" fill="#1a1a1a"/>
            <rect id="Rectangle_875" data-name="Rectangle 875" width="89.166" height="1.67" transform="translate(12.529 41.207)" fill="#1a1a1a"/>
          </g>
          <path id="Path_1681" data-name="Path 1681" d="M2017.347,2984.258a1.986,1.986,0,0,1,1.946-2.729,3.911,3.911,0,0,1,3.512,2.729,1.986,1.986,0,0,1-1.947,2.729A3.91,3.91,0,0,1,2017.347,2984.258Z" transform="translate(-1983.394 -2963.515)" fill="#dfdfdf"/>
        </g>
      </g>
    </g>
    <g id="Group_1238" data-name="Group 1238" transform="translate(331.533 639)">
      <g id="Group_1232" data-name="Group 1232" transform="translate(26.138 8.892)">
        <path id="Path_1682" data-name="Path 1682" d="M1824.732,3041.9l-4.683,26.534v0l-12.933,73.3-11.563,65.523a2.108,2.108,0,0,1-2.093,1.719,1.481,1.481,0,0,1-1.5-1.658l9.971-74.28,10.663-79.453,1.61-11.988Z" transform="translate(-1791.951 -3041.597)" fill="#7e7e7e"/>
      </g>
      <g id="Group_1233" data-name="Group 1233" transform="translate(77.333 8.892)">
        <path id="Path_1683" data-name="Path 1683" d="M1916.084,3041.9l-4.683,26.534v0l-12.932,73.3-11.564,65.523a2.108,2.108,0,0,1-2.093,1.719,1.481,1.481,0,0,1-1.5-1.658l9.971-74.28,10.664-79.453,1.609-11.988Z" transform="translate(-1883.304 -3041.597)" fill="#7e7e7e"/>
      </g>
      <path id="Path_1684" data-name="Path 1684" d="M1836.246,3068.433c.614-11.4-7.45-14.849-7.45-14.849l1.61-11.988,10.523.3Z" transform="translate(-1782.009 -3032.705)" fill="rgba(26,26,26,0.2)"/>
      <g id="Group_1235" data-name="Group 1235" transform="translate(469.294 8.892)">
        <g id="Group_1234" data-name="Group 1234">
          <path id="Path_1685" data-name="Path 1685" d="M2614,3208.975a2.115,2.115,0,0,1-2.1-1.719l-10.271-58.217-14.773-83.728-4.131-23.412,10.523-.3,1.826,13.592,12.819,95.513,7.6,56.615A1.483,1.483,0,0,1,2614,3208.975Z" transform="translate(-2582.726 -3041.597)" fill="#7e7e7e"/>
        </g>
        <path id="Path_1686" data-name="Path 1686" d="M2595.075,3055.188c-6.817,3.009-8.217,10.123-8.217,10.123l-4.131-23.412,10.523-.3Z" transform="translate(-2582.726 -3041.597)" fill="rgba(32,32,32,0.2)"/>
      </g>
      <g id="Group_1237" data-name="Group 1237" transform="translate(528.292 8.892)">
        <g id="Group_1236" data-name="Group 1236">
          <path id="Path_1687" data-name="Path 1687" d="M2719.273,3208.975a2.113,2.113,0,0,1-2.1-1.719l-10.271-58.217-14.774-83.728L2688,3041.9l10.523-.3,1.825,13.592,12.819,95.513,7.6,56.615A1.482,1.482,0,0,1,2719.273,3208.975Z" transform="translate(-2688.002 -3041.597)" fill="#7e7e7e"/>
        </g>
        <path id="Path_1688" data-name="Path 1688" d="M2700.35,3055.188c-6.817,3.009-8.217,10.123-8.217,10.123L2688,3041.9l10.523-.3Z" transform="translate(-2688.002 -3041.597)" fill="rgba(26,26,26,0.2)"/>
      </g>
      <path id="Rectangle_876" data-name="Rectangle 876" d="M9.192,0H558.045a9.192,9.192,0,0,1,9.192,9.192v0a9.192,9.192,0,0,1-9.192,9.192H9.192A9.192,9.192,0,0,1,0,9.193v0A9.192,9.192,0,0,1,9.192,0Z" fill="#7e7e7e"/>
    </g>
    <g id="Group_1241" data-name="Group 1241" transform="translate(5)">
      <g id="Group_1224" data-name="Group 1224" transform="translate(795.341 486.563)">
        <g id="Group_1222" data-name="Group 1222" transform="translate(1.348 0)">
          <path id="Path_1608" data-name="Path 1608" d="M2295.788,2972.221s9.648,3.916,16.506-5.923C2312.294,2966.3,2301.162,2964.41,2295.788,2972.221Z" transform="translate(-2286.45 -2846.928)" fill="#6bb7bf"/>
          <path id="Path_1609" data-name="Path 1609" d="M2290.873,2967.023a4.713,4.713,0,0,0-4.72-3.565S2287.675,2966.949,2290.873,2967.023Z" transform="translate(-2282.215 -2845.768)" fill="#6bb7bf"/>
          <path id="Path_1610" data-name="Path 1610" d="M2298.207,2930.185a6.311,6.311,0,0,0,6.43-4.626S2299.569,2926.124,2298.207,2930.185Z" transform="translate(-2287.514 -2829.108)" fill="#6bb7bf"/>
          <g id="Group_1217" data-name="Group 1217" transform="translate(7.766 11.184)">
            <path id="Path_1611" data-name="Path 1611" d="M2310.484,2805.241c-9.438-2.024-9.6-9.744-9.6-9.744C2312,2799.01,2310.484,2805.241,2310.484,2805.241Z" transform="translate(-2296.457 -2783.117)" fill="#008dbf"/>
            <path id="Path_1612" data-name="Path 1612" d="M2319.17,2806.811s5.889,2.391,10.075-3.616C2329.245,2803.195,2322.451,2802.043,2319.17,2806.811Z" transform="translate(-2304.494 -2786.448)" fill="#008dbf"/>
            <g id="Group_1216" data-name="Group 1216" transform="translate(0 5.768)">
              <path id="Path_1613" data-name="Path 1613" d="M2294.738,2914.684l-1.219,1.4a.306.306,0,0,1-.536-.2,507.423,507.423,0,0,1,9.353-95.877c4.625-22.735,9.315-36.176,9.363-36.309h0c-.047.133-4.278,13.789-8.888,36.459-4.244,20.866-9.1,48.137-7.872,93.989A.789.789,0,0,1,2294.738,2914.684Z" transform="translate(-2292.983 -2783.699)" fill="#008dbf"/>
            </g>
            <path id="Path_1614" data-name="Path 1614" d="M2323.043,2773.758c-1.505,1.21-7.27,6.366-1.678,10.342,0,0,4.285,1.358,5.706-1.944a21.026,21.026,0,0,0,1.454-6.52.569.569,0,0,0-.522-.6,4.542,4.542,0,0,1-1.21-.274c-.531-.206-.8-1.007-1.517-1.183a4.227,4.227,0,0,0-1.428-.159A1.5,1.5,0,0,0,2323.043,2773.758Z" transform="translate(-2304.408 -2773.407)" fill="#fcb200"/>
            <path id="Path_1615" data-name="Path 1615" d="M2320.526,2789.92a3.469,3.469,0,0,1,1.075,3.553l-.018.809a3.825,3.825,0,0,1,2.547-2.647A4.528,4.528,0,0,1,2320.526,2789.92Z" transform="translate(-2305.091 -2780.666)" fill="#008dbf"/>
            <path id="Path_1616" data-name="Path 1616" d="M2310.484,2805.241c-9.438-2.024-9.6-9.744-9.6-9.744S2308.362,2799.6,2310.484,2805.241Z" transform="translate(-2296.457 -2783.117)" fill="#22a6d5"/>
          </g>
          <g id="Group_1219" data-name="Group 1219" transform="translate(2.725 7.558)">
            <path id="Path_1617" data-name="Path 1617" d="M2293.989,2800.383s-5.936,2.272-10-3.816C2283.989,2796.567,2290.8,2795.551,2293.989,2800.383Z" transform="translate(-2283.989 -2779.923)" fill="#008dbf"/>
            <g id="Group_1218" data-name="Group 1218" transform="translate(6.254 5.787)">
              <path id="Path_1618" data-name="Path 1618" d="M2309.48,2908.562l1.191,1.428a.306.306,0,0,0,.54-.192,507.322,507.322,0,0,0-7.43-96.045c-4.168-22.823-8.589-36.355-8.633-36.49h0c.044.134,4,13.873,8.155,36.63,3.825,20.947,8.134,48.31,5.987,94.128A.791.791,0,0,0,2309.48,2908.562Z" transform="translate(-2295.149 -2777.264)" fill="#008dbf"/>
            </g>
            <path id="Path_1619" data-name="Path 1619" d="M2291.156,2767.31c1.481,1.24,7.141,6.51,1.47,10.374,0,0-4.312,1.272-5.665-2.058a21.012,21.012,0,0,1-1.324-6.547.569.569,0,0,1,.534-.59,4.547,4.547,0,0,0,1.216-.25c.534-.2.82-.991,1.54-1.152a4.245,4.245,0,0,1,1.431-.13A1.51,1.51,0,0,1,2291.156,2767.31Z" transform="translate(-2284.713 -2766.937)" fill="#fcb200"/>
            <path id="Path_1620" data-name="Path 1620" d="M2298.021,2783.6a3.468,3.468,0,0,0-1.146,3.532v.809a3.824,3.824,0,0,0-2.494-2.7A4.528,4.528,0,0,0,2298.021,2783.6Z" transform="translate(-2288.558 -2774.262)" fill="#008dbf"/>
          </g>
          <g id="Group_1221" data-name="Group 1221" transform="translate(12.062)">
            <path id="Path_1621" data-name="Path 1621" d="M2306.323,2786.538s6.269,1.048,9.044-5.726C2315.367,2780.812,2308.484,2781.168,2306.323,2786.538Z" transform="translate(-2303.143 -2765.478)" fill="#008dbf"/>
            <g id="Group_1220" data-name="Group 1220" transform="translate(2.644 5.935)">
              <path id="Path_1622" data-name="Path 1622" d="M2318.676,2895.571l-.884,1.635a.306.306,0,0,1-.567-.081,507.337,507.337,0,0,1-11.781-95.609c-.444-23.2,1.2-37.336,1.219-37.477h0c-.017.139-1.168,14.39-.723,37.519.408,21.29,1.617,48.963,12.815,93.443A.8.8,0,0,1,2318.676,2895.571Z" transform="translate(-2305.367 -2764.04)" fill="#008dbf"/>
            </g>
            <path id="Path_1623" data-name="Path 1623" d="M2303.328,2754.116c-1.2,1.509-5.706,7.8.618,10.459,0,0,4.479.391,5.145-3.142a20.992,20.992,0,0,0,0-6.68.569.569,0,0,0-.64-.472,4.521,4.521,0,0,1-1.241,0c-.563-.086-1-.808-1.738-.824a4.238,4.238,0,0,0-1.429.156A1.513,1.513,0,0,0,2303.328,2754.116Z" transform="translate(-2300.649 -2753.45)" fill="#fcb200"/>
            <path id="Path_1624" data-name="Path 1624" d="M2303.323,2771.387a3.47,3.47,0,0,1,1.824,3.234l.16.793a3.824,3.824,0,0,1,1.909-3.139A4.527,4.527,0,0,1,2303.323,2771.387Z" transform="translate(-2301.824 -2761.335)" fill="#008dbf"/>
          </g>
          <path id="Path_1625" data-name="Path 1625" d="M2315.552,2773.458s0-4.963,4.277-6.521C2319.829,2766.937,2320.771,2771.077,2315.552,2773.458Z" transform="translate(-2295.138 -2759.379)" fill="#008dbf"/>
          <path id="Path_1626" data-name="Path 1626" d="M2294.926,2760.513s.126-3.788-3.377-4.879C2291.548,2755.634,2290.7,2759.16,2294.926,2760.513Z" transform="translate(-2284.556 -2754.41)" fill="#fcb200"/>
          <path id="Path_1627" data-name="Path 1627" d="M2316.593,2799.714c.127.11,1.826-3.685-1.631-6.733C2314.962,2792.981,2313.516,2797.041,2316.593,2799.714Z" transform="translate(-2294.73 -2770.828)" fill="#fcb200"/>
          <path id="Path_1628" data-name="Path 1628" d="M2322.44,2802.773a2.05,2.05,0,0,1,1.77-2.161S2324.514,2802.2,2322.44,2802.773Z" transform="translate(-2298.155 -2774.182)" fill="#008dbf"/>
          <path id="Path_1629" data-name="Path 1629" d="M2285.5,2790.9s-1.517-3.14-6.37-2.594C2279.126,2788.3,2279.854,2791.67,2285.5,2790.9Z" transform="translate(-2279.126 -2768.742)" fill="#008dbf"/>
        </g>
        <path id="Path_1630" data-name="Path 1630" d="M2311.267,2943.08h-31.115a3.43,3.43,0,0,1-3.395-3.923l14.482-99.82a1.9,1.9,0,0,1,1.875-1.623h4.624a2.023,2.023,0,0,1,2,1.726l14.827,99.813A3.336,3.336,0,0,1,2311.267,2943.08Z" transform="translate(-2276.721 -2790.492)" fill="#920061"/>
        <g id="Group_1223" data-name="Group 1223" transform="translate(1.869 47.246)">
          <path id="Path_1631" data-name="Path 1631" d="M2288.511,2940.079l7.688-102.323a1.891,1.891,0,0,0-1.624,1.6l-14.482,99.82a3.43,3.43,0,0,0,3.394,3.923h6.219A3.679,3.679,0,0,1,2288.511,2940.079Z" transform="translate(-2280.056 -2837.756)" fill="#7b0051"/>
        </g>
      </g>
      <g id="Group_1239" data-name="Group 1239" transform="translate(848.864 625.157)">
        <path id="Path_1689" data-name="Path 1689" d="M2394.012,3003.692c-.848-.524-2.5-.32-3.7-.068v-1.732a9.1,9.1,0,0,0-.073-1.13H2372.3a9.006,9.006,0,0,0-.074,1.13v3.521a9.032,9.032,0,0,0,15.824,5.964v0s4.268-1.051,5.608-2.642S2395.435,3004.571,2394.012,3003.692Zm-.948,3.255c-.452,1.17-2.488,1.8-3.492,2.045a8.947,8.947,0,0,0,.722-2.977,2.648,2.648,0,0,1,2.315-1.215C2393.25,3004.917,2393.638,3005.466,2393.064,3006.947Z" transform="translate(-2372.23 -3000.76)" fill="#008dbf"/>
        <path id="Path_1690" data-name="Path 1690" d="M2374.851,3001.89v3.521a9.071,9.071,0,0,0,9.042,9.045,8.36,8.36,0,0,0,1.215-.087,9.07,9.07,0,0,1-7.826-8.958v-3.521a8.826,8.826,0,0,1,.074-1.131h-2.431A8.827,8.827,0,0,0,2374.851,3001.89Z" transform="translate(-2373.382 -3000.76)" fill="#5cc7ff" opacity="0.4"/>
        <rect id="Rectangle_877" data-name="Rectangle 877" width="7.382" height="1.105" transform="translate(5.346 12.907)" fill="#5cc7ff"/>
      </g>
    </g>
    <path id="Path_315" data-name="Path 315" d="M426.443,320.675h3.208a21.282,21.282,0,0,0,21.283,21.28v3.208a21.282,21.282,0,0,0-21.283,21.28h-3.208a21.28,21.28,0,0,0-21.28-21.28v-3.208A21.28,21.28,0,0,0,426.443,320.675Z" transform="translate(447.836 204.325)" fill="#920061"/>
  </g>
</svg>
