<svg xmlns="http://www.w3.org/2000/svg" xmlns:xlink="http://www.w3.org/1999/xlink" width="24" height="24" viewBox="0 0 24 24">
  <defs>
    <clipPath id="clip-path">
      <rect id="Rectangle_17373" data-name="Rectangle 17373" width="24" height="24" transform="translate(5600 -345)" fill="rgba(255,255,255,0.41)"/>
    </clipPath>
  </defs>
  <g id="show-pass" transform="translate(-5600 345)" clip-path="url(#clip-path)">
    <path id="show-pass-2" data-name="show-pass" d="M12.015,7a13.03,13.03,0,0,1,9.5,4.636C20.115,13.473,16.8,17,12.015,17c-4.42,0-7.93-3.536-9.478-5.407C4.03,9.946,7.354,7,12.015,7Zm0-2C4.446,5,0,11.551,0,11.551S4.835,19,12.015,19C19.748,19,24,11.551,24,11.551S19.709,5,12.015,5ZM12,10a2,2,0,1,1-2,2A2,2,0,0,1,12,10Zm0-2a4,4,0,1,0,4,4A4,4,0,0,0,12,8Z" transform="translate(5600 -345)" fill="#7e8485"/>
  </g>
</svg>
