<svg xmlns="http://www.w3.org/2000/svg" width="35.319" height="40" viewBox="0 0 35.319 40">
  <g id="action-icon" transform="translate(2072.163 -1014)">
    <path id="Path_68719" data-name="Path 68719" d="M-2053.4,1014c.692.1,1.388.177,2.075.3a17.223,17.223,0,0,1,9.959,5.641,17.01,17.01,0,0,1,4.337,9.95,17.261,17.261,0,0,1-2.855,11.427.435.435,0,0,1-.367.156c-1.56-.4-3.114-.827-4.715-1.258a12.776,12.776,0,0,0,3.031-11.165,12.444,12.444,0,0,0-4.283-7.252,12.8,12.8,0,0,0-15.484-.886,12.788,12.788,0,0,0-5.092,14.622,12.522,12.522,0,0,0,6.1,7.361,12.769,12.769,0,0,0,9.526,1.144l1.23,4.586c-.794.15-1.552.334-2.32.43a16.953,16.953,0,0,1-8.842-1.123,17.178,17.178,0,0,1-10.641-12.634,17.547,17.547,0,0,1,13.5-20.9c.735-.159,1.49-.22,2.236-.328.114-.017.226-.045.339-.069Z" fill="#fff"/>
    <path id="Path_68720" data-name="Path 68720" d="M-1772.193,1377.938a1,1,0,0,0-.119-.187q-1.805-1.812-3.616-3.618c-.044-.044-.1-.079-.17-.139l-2.256,2.309-2.924-10.913,10.738,2.875-2.22,2.208,4.077,4.072-3.432,3.394Z" transform="translate(-268.161 -323.939)" fill="#fff"/>
    <path id="Path_68721" data-name="Path 68721" d="M-1969.582,1121.679l.961,3.619a9.189,9.189,0,0,1-3.809.316,10.189,10.189,0,0,1-8.946-7.257,10,10,0,0,1,2.01-10.046,10,10,0,0,1,6.9-3.633,10.156,10.156,0,0,1,8.578,3.094,10.158,10.158,0,0,1,2.954,8.589,10.148,10.148,0,0,1-3.308,6.491.637.637,0,0,1-.51.11C-1966.335,1122.557-1967.914,1122.126-1969.582,1121.679Zm4.371-6.522a6.192,6.192,0,0,0-6.177-6.193,6.22,6.22,0,0,0-6.174,6.172,6.193,6.193,0,0,0,6.191,6.18A6.164,6.164,0,0,0-1965.211,1115.157Z" transform="translate(-83.166 -83.542)" fill="#fff"/>
    <path id="Path_68722" data-name="Path 68722" d="M-1888.139,1194.054a3.842,3.842,0,0,1-3.833,3.808,3.87,3.87,0,0,1-3.831-3.823,3.9,3.9,0,0,1,3.865-3.84A3.87,3.87,0,0,1-1888.139,1194.054Z" transform="translate(-162.582 -162.433)" fill="#fff"/>
  </g>
</svg>
