<svg xmlns="http://www.w3.org/2000/svg" width="131.283" height="88.841" viewBox="0 0 131.283 88.841">
  <g id="automated-process-icon" transform="translate(3926.294 5086.09)">
    <path id="Path_77132" data-name="Path 77132" d="M58.493,236.2a2.225,2.225,0,0,0-2.167-1.96h-3.1a.527.527,0,0,1-.516-.413,21.114,21.114,0,0,0-4.54-8.46c-.1-.206-.206-.413,0-.619l1.754-2.579a2.235,2.235,0,0,0-.413-2.889l-1.238-1.032a2.324,2.324,0,0,0-2.889.1l-2.167,2.27a.486.486,0,0,1-.619.1,20.3,20.3,0,0,0-9.079-2.786.685.685,0,0,1-.516-.413l-.516-3.1a2.218,2.218,0,0,0-2.27-1.754l-1.548.1a2.225,2.225,0,0,0-1.96,2.167v3.2a.527.527,0,0,1-.413.516,22.239,22.239,0,0,0-8.46,4.436c-.206.1-.413.206-.619,0l-2.579-1.754a2.235,2.235,0,0,0-2.889.413L10.724,223a2.2,2.2,0,0,0,.1,2.889l2.27,2.167a.486.486,0,0,1,.1.619,20.715,20.715,0,0,0-2.786,9.182.686.686,0,0,1-.413.516l-2.992.516a2.218,2.218,0,0,0-1.754,2.27l.1,1.548a2.206,2.206,0,0,0,2.063,1.96h3.1a.527.527,0,0,1,.516.413,21.506,21.506,0,0,0,4.54,8.563c.1.206.206.413,0,.619l-1.754,2.476a2.219,2.219,0,0,0,.413,2.889l1.238,1.032a2.324,2.324,0,0,0,2.889-.1l2.063-2.167c.1-.1.206-.1.413-.1.1,0,.206,0,.206.1a22.726,22.726,0,0,0,9.286,2.889.686.686,0,0,1,.516.413l.516,2.889a2.218,2.218,0,0,0,2.27,1.754l1.548-.1a2.225,2.225,0,0,0,1.96-2.167v-2.992a.527.527,0,0,1,.413-.516,20.842,20.842,0,0,0,8.563-4.54c.206-.1.413-.206.619,0l2.476,1.754a2.235,2.235,0,0,0,2.889-.413l1.032-1.238a2.094,2.094,0,0,0-.206-2.889l-2.167-2.063a.486.486,0,0,1-.1-.619,20.716,20.716,0,0,0,2.786-9.182.685.685,0,0,1,.413-.516l2.992-.516a2.218,2.218,0,0,0,1.754-2.27Zm-36.627,4.333a10.309,10.309,0,0,1,9.286-11.246h1.032A10.218,10.218,0,0,1,42.4,238.576a9.853,9.853,0,0,1-2.27,7.532,10.288,10.288,0,0,1-7.016,3.714A10.181,10.181,0,0,1,21.867,240.537Z" transform="translate(-3930.021 -5264.967)" fill="#fcb200"/>
    <path id="Path_77133" data-name="Path 77133" d="M288.541,120.489a3.415,3.415,0,0,0-3.1-3.1l-4.333-.1h0c-.206,0-.413,0-.516-.206a29.153,29.153,0,0,0-6.294-11.659c-.1-.206-.206-.413,0-.619l2.476-3.508a3.194,3.194,0,0,0-.619-4.23l-1.651-1.341a3.414,3.414,0,0,0-4.23.206l-3.1,3.1a.486.486,0,0,1-.619.1,29.419,29.419,0,0,0-12.794-3.921.686.686,0,0,1-.516-.413l-.722-4.333a3.334,3.334,0,0,0-3.4-2.579l-2.167.206a3.242,3.242,0,0,0-2.889,3.2l.1,4.436a.526.526,0,0,1-.413.516A30.044,30.044,0,0,0,232,102.434c-.206.1-.413.206-.619,0l-3.611-2.476a3.311,3.311,0,0,0-4.23.619l-1.341,1.651a3.157,3.157,0,0,0,.206,4.23l3.1,2.992a.486.486,0,0,1,.1.619,29.846,29.846,0,0,0-3.921,12.794.686.686,0,0,1-.413.516l-4.23.722a3.334,3.334,0,0,0-2.579,3.4l.206,2.167a2.875,2.875,0,0,0,3.1,2.476H222.1a.378.378,0,0,1,.413.413,31.24,31.24,0,0,0,6.294,12.174c.1.206.206.516,0,.722l-2.373,3.508a3.194,3.194,0,0,0,.619,4.23l1.651,1.341a3.414,3.414,0,0,0,4.23-.206l2.889-2.992c.1-.1.206-.1.413-.1a.379.379,0,0,1,.31.1,30.423,30.423,0,0,0,12.9,4.024.686.686,0,0,1,.516.413l.722,4.024a3.334,3.334,0,0,0,3.4,2.579l2.167-.206a3.242,3.242,0,0,0,2.889-3.2l-.1-4.127a.527.527,0,0,1,.413-.516,28.738,28.738,0,0,0,11.968-6.4c.206-.1.413-.206.619,0l3.4,2.373a3.194,3.194,0,0,0,4.23-.619l1.341-1.651a3.163,3.163,0,0,0-.206-4.23l-2.992-2.889a.486.486,0,0,1-.1-.619,29.849,29.849,0,0,0,3.921-12.9.686.686,0,0,1,.413-.516l4.127-.722a3.236,3.236,0,0,0,2.579-3.4Zm-20.428-5.675a19.511,19.511,0,0,1-20.738,29.508,19.3,19.3,0,0,1-12.174-8.563,19.492,19.492,0,0,1,5.984-26.928,19.836,19.836,0,0,1,17.849-1.651c.413.206.825.31,1.238.516a19.96,19.96,0,0,1,4.436,3.1A30.09,30.09,0,0,1,268.112,114.815Z" transform="translate(-4085.268 -5172.364)" fill="#5cc7ff"/>
    <path id="Path_77134" data-name="Path 77134" d="M75.146,294.835A11.865,11.865,0,1,1,87.011,282.97,11.933,11.933,0,0,1,75.146,294.835Zm0-21.666a9.8,9.8,0,1,0,9.8,9.8A9.732,9.732,0,0,0,75.146,273.168Z" transform="translate(-3973.086 -5308.329)"/>
    <path id="Path_77135" data-name="Path 77135" d="M29.838,263.377a3.754,3.754,0,0,1-3.611-2.992l-.413-2.167a21.366,21.366,0,0,1-8.357-2.579l-1.548,1.548a3.777,3.777,0,0,1-4.952.31l-1.238-1.032A3.8,3.8,0,0,1,9,251.512l1.238-1.857a24.337,24.337,0,0,1-4.127-7.738H3.838a3.779,3.779,0,0,1-3.714-3.3l-.1-1.548a3.627,3.627,0,0,1,2.992-3.921l2.27-.413a23.344,23.344,0,0,1,2.579-8.254L6.211,222.83a3.777,3.777,0,0,1-.31-4.952l1.032-1.238a3.8,3.8,0,0,1,4.952-.722l1.96,1.341a21.744,21.744,0,0,1,7.635-4.024v-2.373a3.779,3.779,0,0,1,3.3-3.714l1.548-.1a3.627,3.627,0,0,1,3.921,2.992l.413,2.373a23.181,23.181,0,0,1,8.254,2.476l1.651-1.651a3.777,3.777,0,0,1,4.952-.31l1.238.929a3.8,3.8,0,0,1,.722,4.952l-1.341,1.96a23.837,23.837,0,0,1,4.127,7.635h2.27a3.779,3.779,0,0,1,3.714,3.3l.1,1.548a3.627,3.627,0,0,1-2.992,3.921l-2.167.413a21.907,21.907,0,0,1-2.579,8.357l1.548,1.548a3.777,3.777,0,0,1,.31,4.952l-1.032,1.238a3.8,3.8,0,0,1-4.952.722l-1.754-1.238A22.448,22.448,0,0,1,35,257.29v2.167a3.779,3.779,0,0,1-3.3,3.714l-1.548.1A.379.379,0,0,1,29.838,263.377ZM17.251,253.37a.93.93,0,0,1,.516.1,19.886,19.886,0,0,0,8.976,2.786.992.992,0,0,1,.929.825l.516,2.889a1.689,1.689,0,0,0,1.754,1.341l1.548-.1a1.668,1.668,0,0,0,1.444-1.651v-2.992a1.025,1.025,0,0,1,.722-1.032,20.508,20.508,0,0,0,8.357-4.436,1.1,1.1,0,0,1,1.238-.1l2.476,1.754a1.735,1.735,0,0,0,2.167-.31l1.032-1.238a1.708,1.708,0,0,0-.1-2.167l-2.167-2.063a1.1,1.1,0,0,1-.206-1.238,21.553,21.553,0,0,0,2.683-8.976.992.992,0,0,1,.825-.929l2.992-.516a1.689,1.689,0,0,0,1.341-1.754l-.1-1.548a1.668,1.668,0,0,0-1.651-1.444h-3.1a1.025,1.025,0,0,1-1.032-.722,20.126,20.126,0,0,0-4.436-8.254,1.1,1.1,0,0,1-.1-1.238l1.754-2.579a1.735,1.735,0,0,0-.31-2.167l-1.238-.929a1.708,1.708,0,0,0-2.167.1l-2.167,2.27a1.1,1.1,0,0,1-1.238.206,21.11,21.11,0,0,0-8.873-2.682.992.992,0,0,1-.929-.825l-.516-3.1a1.6,1.6,0,0,0-1.754-1.341l-1.548.1a1.668,1.668,0,0,0-1.444,1.651v3.2a1.025,1.025,0,0,1-.722,1.032,21.191,21.191,0,0,0-8.254,4.333,1.081,1.081,0,0,1-1.238.1l-2.579-1.754a1.735,1.735,0,0,0-2.167.31l-1.032,1.238a1.708,1.708,0,0,0,.1,2.167l2.27,2.167a1.1,1.1,0,0,1,.206,1.238,21.263,21.263,0,0,0-2.786,8.873.992.992,0,0,1-.825.929l-2.992.516a1.689,1.689,0,0,0-1.341,1.754l.1,1.548a1.668,1.668,0,0,0,1.651,1.444h3.1a1.025,1.025,0,0,1,1.032.722,21.6,21.6,0,0,0,4.333,8.357,1.1,1.1,0,0,1,.1,1.238l-1.754,2.476a1.735,1.735,0,0,0,.31,2.167l1.238,1.032a1.708,1.708,0,0,0,2.167-.1l2.063-2.167A.85.85,0,0,1,17.251,253.37Z" transform="translate(-3926.127 -5260.776)" stroke="#000" stroke-linecap="round" stroke-width="0.3"/>
    <path id="Path_77136" data-name="Path 77136" d="M297.64,193.062a23.7,23.7,0,0,1-4.643-.516,21.08,21.08,0,0,1-6.706-38.38,21.408,21.408,0,0,1,19.19-1.754c.413.206.929.413,1.341.619a1.016,1.016,0,0,1-.825,1.857,6.311,6.311,0,0,0-1.238-.516,19.09,19.09,0,0,0-17.333,1.548,18.636,18.636,0,0,0-8.357,11.865,18.981,18.981,0,0,0,2.476,14.341,18.636,18.636,0,0,0,11.865,8.357,18.982,18.982,0,0,0,14.341-2.476,18.636,18.636,0,0,0,8.357-11.865,18.982,18.982,0,0,0-2.476-14.341,1.045,1.045,0,0,1,1.754-1.135,21.06,21.06,0,0,1-6.5,29.095A20.744,20.744,0,0,1,297.64,193.062Z" transform="translate(-4131.303 -5219.143)"/>
    <path id="Path_77137" data-name="Path 77137" d="M249.29,159.638a4.843,4.843,0,0,1-4.643-3.817l-.619-3.3a31.068,31.068,0,0,1-12.071-3.714l-2.373,2.373a4.753,4.753,0,0,1-6.4.31l-1.651-1.341a4.66,4.66,0,0,1-.825-6.294l1.96-2.786a31.34,31.34,0,0,1-5.881-11.143h-3.508a4.7,4.7,0,0,1-4.643-4.23l-.206-2.167a4.829,4.829,0,0,1,3.817-5.055l3.4-.619a31.128,31.128,0,0,1,3.714-11.968l-2.579-2.476a4.753,4.753,0,0,1-.31-6.4l1.341-1.651a4.66,4.66,0,0,1,6.294-.825L227,96.6a30.653,30.653,0,0,1,11.04-5.778V87.21a4.8,4.8,0,0,1,4.23-4.746l2.167-.206a4.829,4.829,0,0,1,5.055,3.817l.619,3.508a31.746,31.746,0,0,1,11.865,3.611l2.476-2.579a4.753,4.753,0,0,1,6.4-.31l1.651,1.341a4.66,4.66,0,0,1,.825,6.294l-2.063,2.889a30.062,30.062,0,0,1,5.881,11.04h3.611a4.7,4.7,0,0,1,4.643,4.23l.206,2.167a4.829,4.829,0,0,1-3.817,5.055l-3.4.619a32.76,32.76,0,0,1-3.611,12.071l2.476,2.373a4.753,4.753,0,0,1,.31,6.4l-1.341,1.651a4.66,4.66,0,0,1-6.294.825l-2.786-1.96A31.591,31.591,0,0,1,256,151.281v3.3a4.8,4.8,0,0,1-4.23,4.746l-2.167.206C249.6,159.638,249.5,159.638,249.29,159.638Zm-17.539-13.206a.93.93,0,0,1,.516.1,29.416,29.416,0,0,0,12.69,3.921.992.992,0,0,1,.929.825l.722,4.024a2.711,2.711,0,0,0,2.889,2.167l2.167-.206a2.685,2.685,0,0,0,2.373-2.682l-.1-4.127a1.025,1.025,0,0,1,.722-1.032,28.967,28.967,0,0,0,11.762-6.294,1.1,1.1,0,0,1,1.238-.1l3.4,2.373a2.7,2.7,0,0,0,3.508-.516l1.341-1.651a2.811,2.811,0,0,0-.206-3.611l-2.992-2.889a1.1,1.1,0,0,1-.206-1.238,28.864,28.864,0,0,0,3.817-12.69.992.992,0,0,1,.825-.929l4.127-.722a2.711,2.711,0,0,0,2.167-2.889l-.206-2.167a2.685,2.685,0,0,0-2.682-2.373l-4.23.1a1.025,1.025,0,0,1-1.032-.722,28.553,28.553,0,0,0-6.19-11.555,1.1,1.1,0,0,1-.1-1.238l2.476-3.508a2.7,2.7,0,0,0-.516-3.508l-1.651-1.341a2.811,2.811,0,0,0-3.611.206l-3.1,3.1a1.1,1.1,0,0,1-1.238.206,28.426,28.426,0,0,0-12.484-3.817.992.992,0,0,1-.929-.825l-.722-4.333a2.711,2.711,0,0,0-2.889-2.167l-2.167.206A2.685,2.685,0,0,0,239.8,87.21l.1,4.333a1.025,1.025,0,0,1-.722,1.032,29.023,29.023,0,0,0-11.555,6.087,1.1,1.1,0,0,1-1.238.1l-3.611-2.476a2.7,2.7,0,0,0-3.508.516l-1.341,1.651a2.664,2.664,0,0,0,.206,3.508l3.1,2.992a1.1,1.1,0,0,1,.206,1.238,28.568,28.568,0,0,0-3.921,12.587.992.992,0,0,1-.825.929l-4.23.722a2.711,2.711,0,0,0-2.167,2.889l.206,2.167a2.685,2.685,0,0,0,2.682,2.373l4.23-.1a1.025,1.025,0,0,1,1.032.722,30.044,30.044,0,0,0,6.19,11.762,1.081,1.081,0,0,1,.1,1.238l-2.373,3.4a2.7,2.7,0,0,0,.516,3.508l1.651,1.341a2.811,2.811,0,0,0,3.611-.206l2.889-2.992C231.235,146.535,231.544,146.431,231.751,146.431Z" transform="translate(-4080.787 -5168.179)" stroke="#000" stroke-width="0.3"/>
  </g>
</svg>
