<svg xmlns="http://www.w3.org/2000/svg" width="36.936" height="34" viewBox="0 0 36.936 34">
  <g id="background-check-icon" transform="translate(1841.181 -5507)">
    <path id="Path_68660" data-name="Path 68660" d="M1765.761,452.945a7.75,7.75,0,1,1,7.74-7.736A7.754,7.754,0,0,1,1765.761,452.945Z" transform="translate(-3591.416 5069.554)" fill="#fff"/>
    <path id="Path_68661" data-name="Path 68661" d="M1868.447,577.169l4.9,4.882-2.8,2.8a1.615,1.615,0,0,0-.227-.365c-1.428-1.438-2.867-2.865-4.292-4.307a.485.485,0,0,0-.684-.123,7.336,7.336,0,0,1-7.751-.348,7.433,7.433,0,0,1-3.522-6.979,7.741,7.741,0,0,1,15.334-.944,7.5,7.5,0,0,1-.793,5.046C1868.57,576.921,1868.525,577.015,1868.447,577.169Zm-10.5-3.993a3.867,3.867,0,1,0,3.908-3.816A3.87,3.87,0,0,0,1857.944,573.176Z" transform="translate(-3677.596 4956.152)" fill="#fff"/>
    <path id="Path_68662" data-name="Path 68662" d="M1709.976,597.647a11.632,11.632,0,0,0,2.3,11.579h-18.427v-.5c0-.877.058-1.759-.012-2.631a5.046,5.046,0,0,1,2.337-4.629,17.047,17.047,0,0,1,5.462-2.579,27.422,27.422,0,0,1,7.808-1.239Z" transform="translate(-3535 4928.744)" fill="#fff"/>
  </g>
</svg>
