<svg xmlns="http://www.w3.org/2000/svg" xmlns:xlink="http://www.w3.org/1999/xlink" width="854.234" height="454.008" viewBox="0 0 854.234 454.008">
  <defs>
    <clipPath id="clip-path">
      <rect id="Rectangle_873" data-name="Rectangle 873" width="131.399" height="133.664" fill="#fff"/>
    </clipPath>
  </defs>
  <g id="banner-image" transform="translate(-1027.611 -297)">
    <g id="Group_1166" data-name="Group 1166" transform="translate(1409.943 297)">
      <rect id="Rectangle_863" data-name="Rectangle 863" width="238.722" height="452.965" rx="10" transform="translate(0 0.001)" fill="#1a1a1a"/>
      <path id="Path_1491" data-name="Path 1491" d="M1650.67,547.457V975.991a12.252,12.252,0,0,1-12.218,12.214H1424.17a12.249,12.249,0,0,1-12.214-12.214V547.457a12.249,12.249,0,0,1,12.214-12.217h214.291a12.253,12.253,0,0,1,12.209,12.217Z" transform="translate(-1399.333 -535.24)" fill="#363636"/>
      <g id="Group_1165" data-name="Group 1165" transform="translate(91.47 12.318)">
        <path id="Path_1492" data-name="Path 1492" d="M1714.45,572.692h-62.06a2.422,2.422,0,0,1-2.414-2.415h0a2.421,2.421,0,0,1,2.414-2.414h62.056a2.421,2.421,0,0,1,2.414,2.414h0a2.422,2.422,0,0,1-2.41,2.415Z" transform="translate(-1638.954 -567.863)" fill="#fff" opacity="0.4"/>
        <path id="Path_1493" data-name="Path 1493" d="M1623.2,572.692h0a2.422,2.422,0,0,1-2.415-2.415h0a2.422,2.422,0,0,1,2.415-2.414h0a2.422,2.422,0,0,1,2.414,2.414h0A2.422,2.422,0,0,1,1623.2,572.692Z" transform="translate(-1620.786 -567.863)" fill="#fff" opacity="0.4"/>
      </g>
      <path id="Path_1494" data-name="Path 1494" d="M1725.8,1642.93a15.528,15.528,0,1,1-4.549-11.023,15.574,15.574,0,0,1,4.549,11.023Z" transform="translate(-1575.289 -1214.994)" fill="#fff"/>
      <rect id="Rectangle_864" data-name="Rectangle 864" width="211.691" height="376.805" transform="translate(26.912 27.905)" fill="#dfdfdf"/>
      <path id="Path_1495" data-name="Path 1495" d="M1721.28,1657.89a15.571,15.571,0,1,1-19.405-24.107A34.909,34.909,0,0,0,1721.28,1657.89Z" transform="translate(-1575.289 -1218.993)" fill="#dfdfdf"/>
    </g>
    <path id="Path_1496" data-name="Path 1496" d="M1672.62,728.454H1475.61c-1.673,0-3.043,1.774-3.043,3.944V858.354c0,2.167,1.37,3.94,3.043,3.94h197.007c1.676,0,3.046-1.774,3.046-3.94V732.4C1675.67,730.227,1674.3,728.454,1672.62,728.454Z" transform="translate(-27.119 -358.5)" fill="#008dbf" opacity="0.9"/>
    <path id="Path_1497" data-name="Path 1497" d="M1552.7,1133.71H1397.07c-1.322,0-2.4,1.774-2.4,3.944V1263.61c0,2.166,1.082,3.94,2.4,3.94H1552.7c1.324,0,2.406-1.774,2.406-3.94V1137.66C1555.1,1135.49,1554.02,1133.71,1552.7,1133.71Z" transform="translate(41.748 -610.741)" fill="#008dbf" opacity="0.9"/>
    <g id="Group_1170" data-name="Group 1170" transform="translate(1457.499 358.545)">
      <path id="Path_1498" data-name="Path 1498" d="M1767.27,702.347V828.3a3.952,3.952,0,0,1-3.946,3.937H1508.24a3.95,3.95,0,0,1-3.937-3.937V702.347a3.952,3.952,0,0,1,3.938-3.946H1763.32a3.954,3.954,0,0,1,3.95,3.946Z" transform="translate(-1504.308 -698.401)" fill="#f9f9f9"/>
      <path id="Path_1499" data-name="Path 1499" d="M1984,702.348V828.3c0,2.167-2.062,3.94-4.585,3.94h-126.9V698.4h126.894C1981.94,698.4,1984,700.177,1984,702.348Z" transform="translate(-1721.041 -698.402)" fill="#fcb200"/>
    </g>
    <g id="Group_1179" data-name="Group 1179" transform="translate(1353.956 513.307)">
      <path id="Path_1511" data-name="Path 1511" d="M1433.69,1112.06v125.957a3.952,3.952,0,0,1-3.942,3.942H1174.68a3.953,3.953,0,0,1-3.946-3.942V1112.06a3.953,3.953,0,0,1,3.946-3.938h255.072a3.951,3.951,0,0,1,3.938,3.938Z" transform="translate(-1170.731 -1108.116)" fill="#f9f9f9"/>
      <path id="Path_1512" data-name="Path 1512" d="M1673.65,1112.05v125.956a3.953,3.953,0,0,1-3.94,3.944H1556.26V1108.11h113.449a3.952,3.952,0,0,1,3.941,3.94Z" transform="translate(-1410.693 -1108.113)" fill="#fcb200"/>
      <g id="Group_1173" data-name="Group 1173" transform="translate(163.917 29.098)">
        <g id="Group_1171" data-name="Group 1171" transform="translate(16.359)">
          <path id="Path_1513" data-name="Path 1513" d="M1671.31,1250.28a6.361,6.361,0,0,1-5.491-3.149l-16.766-28.66a6.362,6.362,0,0,1,10.983-6.425l10.755,18.386,20.253-41.668a6.362,6.362,0,1,1,11.444,5.563L1677.03,1246.7a6.361,6.361,0,0,1-5.478,3.577C1671.47,1250.28,1671.39,1250.28,1671.31,1250.28Z" transform="translate(-1648.178 -1185.177)" fill="#f9f9f9"/>
        </g>
        <g id="Group_1172" data-name="Group 1172" transform="translate(0 0.868)">
          <path id="Path_1514" data-name="Path 1514" d="M1644.34,1266.45a39.489,39.489,0,1,1,39.489-39.489,39.489,39.489,0,0,1-39.489,39.489Zm0-74.351a34.862,34.862,0,1,0,34.862,34.862,34.862,34.862,0,0,0-34.862-34.862Z" transform="translate(-1604.852 -1187.477)" fill="#f9f9f9"/>
        </g>
      </g>
      <path id="Path_1515" data-name="Path 1515" d="M1245.44,1295.41h-70.765a3.953,3.953,0,0,1-3.946-3.942V1194Z" transform="translate(-1170.731 -1161.568)" fill="rgba(223,223,223,0.2)"/>
      <g id="Group_1178" data-name="Group 1178" transform="translate(20.08 21.848)">
        <g id="Group_1175" data-name="Group 1175">
          <path id="Path_1516" data-name="Path 1516" d="M1238.06,1165.98a14.144,14.144,0,1,0,14.144,14.144,14.144,14.144,0,0,0-14.144-14.144Zm9.8,14.6h-9.8a.451.451,0,0,1-.451-.452v-10.533a.451.451,0,0,1,.9,0v10.082h9.345a.451.451,0,1,1,0,.9Z" transform="translate(-1223.912 -1165.977)" fill="#fcb200"/>
          <g id="Group_1174" data-name="Group 1174" transform="translate(39.167 3.16)">
            <path id="Path_1517" data-name="Path 1517" d="M1375.4,1180.06h-44.9a2.867,2.867,0,0,1-2.859-2.859h0a2.867,2.867,0,0,1,2.859-2.859h44.9a2.867,2.867,0,0,1,2.859,2.859h0A2.867,2.867,0,0,1,1375.4,1180.06Z" transform="translate(-1327.644 -1174.345)" fill="#fcb200"/>
            <rect id="Rectangle_867" data-name="Rectangle 867" width="39.175" height="5.718" rx="2.859" transform="translate(0 8.577)" fill="#fcb200"/>
          </g>
        </g>
        <g id="Group_1177" data-name="Group 1177" transform="translate(0 54.745)">
          <path id="Path_1518" data-name="Path 1518" d="M1236.64,1310.96a12.731,12.731,0,0,0-12.732,12.733c0,7.031,12.732,22.664,12.732,22.664s12.732-15.633,12.732-22.665a12.732,12.732,0,0,0-12.732-12.732Zm0,18.554a2.466,2.466,0,1,1,0,.006Z" transform="translate(-1223.912 -1310.965)" fill="#fcb200"/>
          <g id="Group_1176" data-name="Group 1176" transform="translate(35.754 3.563)">
            <path id="Path_1519" data-name="Path 1519" d="M1366.35,1326.12h-44.893a2.867,2.867,0,0,1-2.859-2.859h0a2.868,2.868,0,0,1,2.859-2.86h44.893a2.868,2.868,0,0,1,2.859,2.86h0A2.867,2.867,0,0,1,1366.35,1326.12Z" transform="translate(-1318.603 -1320.402)" fill="#fcb200"/>
            <rect id="Rectangle_868" data-name="Rectangle 868" width="39.175" height="5.718" rx="2.859" transform="translate(0 8.577)" fill="#fcb200"/>
          </g>
        </g>
      </g>
    </g>
    <g id="Group_1197" data-name="Group 1197" transform="translate(1027.611 387.361)">
      <g id="Group_1187" data-name="Group 1187" transform="translate(56.577)">
        <g id="Group_1185" data-name="Group 1185">
          <path id="Path_1520" data-name="Path 1520" d="M443.019,1141.22c-.935-22.991-2.95-42.99-5.362-56.938-3.845-22.233-7.307-35.024-7.347-35.16-.506-1.955-7.823-9.867-24.091-9.623s-14.725,10.619-14.725,10.619h0a3.328,3.328,0,0,0,.116.922c.157.535,15.09,54.68,14.443,124.589-.009.982-.119,2.678-.05,3.808,0,.005,37.7.973,37.708,0C445.027,1173.33,444.385,1156.4,443.019,1141.22Z" transform="translate(-391.455 -939.456)" fill="#df9f04"/>
          <path id="Path_1521" data-name="Path 1521" d="M454.694,1175.28c-.012.974-.526,1.754-1.153,1.754h-.015c-.627-.015-1.126-.8-1.133-1.754H420.085c-.011.974-.526,1.754-1.153,1.754h-.015c-.638-.015-1.145-.82-1.137-1.806a488.008,488.008,0,0,0-2.68-55.192c-4.3-41.13-12.234-68.62-12.347-69a3.416,3.416,0,0,1-.116-.922s-1.543-10.375,14.723-10.62,23.587,7.668,24.094,9.623c.03.1,1.989,7.346,4.6,20.367.863,4.313,1.8,9.261,2.752,14.79,2.41,13.948,4.426,33.95,5.361,56.938C455.527,1156.4,456.007,1169.18,454.694,1175.28Z" transform="translate(-398.389 -939.456)" fill="#fcb200"/>
          <path id="Path_1522" data-name="Path 1522" d="M436.476,1386.73H563.14s-2.95-11.937-76.3-10.159C434.922,1377.83,436.476,1386.73,436.476,1386.73Z" transform="translate(-419.474 -1149.146)" fill="#fcb200"/>
          <g id="Group_1180" data-name="Group 1180" transform="translate(6.693 239.431)">
            <path id="Path_1523" data-name="Path 1523" d="M409.18,1531.5c14.686-74.347,10.91-119.969,10.891-120.543-.037-1.145,2.073-2.184,3.208-2.221,1.149-.02,6.218-.338,6.8.642.769,1.283,3.726,57.493-18.162,122.123Z" transform="translate(-409.18 -1408.67)" fill="#df9f04"/>
          </g>
          <g id="Group_1181" data-name="Group 1181" transform="translate(103.484 239.431)">
            <path id="Path_1524" data-name="Path 1524" d="M687,1531.5c-14.686-74.347-10.91-119.969-10.891-120.543.037-1.145-2.073-2.184-3.208-2.221-1.149-.02-6.218-.338-6.8.642-.768,1.283-3.726,57.493,18.162,122.123Z" transform="translate(-665.525 -1408.67)" fill="#df9f04"/>
          </g>
          <g id="Group_1182" data-name="Group 1182" transform="translate(126.921 239.431)">
            <path id="Path_1525" data-name="Path 1525" d="M749.069,1531.5c-14.686-74.347-10.91-119.969-10.891-120.543.037-1.145-2.073-2.184-3.208-2.221-1.149-.02-6.218-.338-6.8.642-.768,1.283-3.726,57.493,18.162,122.123Z" transform="translate(-727.597 -1408.67)" fill="#df9f04"/>
          </g>
          <g id="Group_1183" data-name="Group 1183" transform="translate(30.287 239.431)">
            <path id="Path_1526" data-name="Path 1526" d="M471.669,1531.5c14.686-74.347,10.91-119.969,10.891-120.543-.037-1.145,2.073-2.184,3.208-2.221,1.149-.02,6.218-.338,6.8.642.768,1.283,3.726,57.493-18.162,122.123Z" transform="translate(-471.669 -1408.67)" fill="#df9f04"/>
          </g>
          <rect id="Rectangle_869" data-name="Rectangle 869" width="131.853" height="6.895" rx="3.447" transform="translate(14.483 234.497)" fill="#df9f04"/>
          <g id="Group_1184" data-name="Group 1184" transform="translate(24.692)">
            <path id="Path_1527" data-name="Path 1527" d="M748.361,1095.88l42.1-9.12,2.48,6.044s-46.457,27.644-50.81,26.29S748.361,1095.88,748.361,1095.88Z" transform="translate(-633.762 -968.876)" fill="#ffb27d"/>
            <path id="Path_1528" data-name="Path 1528" d="M657.39,1559.9a3.74,3.74,0,0,0-.667,4,.032.032,0,0,0,.01.02c.965,2.667,4.154,5.645,7.858,8.619.474.383.894.73,1.261,1.052.1.084.192.169.283.254.074.065.146.134.218.2,3.454,3.183,2.154,3.913,8.359,10.374,7.075,7.361,11.947,7.494,13.333,6.823,1.172-.572-1.21-4.476-3.849-8.864-.128-.211-.253-.426-.384-.639-.352-.584-.7-1.176-1.05-1.762-3.093-5.282-2.3-7.76-1.566-15.62.6-6.387,9.937-35.682,9.937-35.682l-13.559-2.336s-4.083,23.328-8.582,26.921c-2.406,1.915-5.1,1.939-7.41,3.358q-.246.148-.481.3A17.793,17.793,0,0,0,657.39,1559.9Z" transform="translate(-581.07 -1242.475)" fill="#ffb27d"/>
            <path id="Path_1529" data-name="Path 1529" d="M657.39,1609.81a3.74,3.74,0,0,0-.667,4,.032.032,0,0,0,.01.02c1.182,2.665,4.291,5.628,7.87,8.593.468.388.881.745,1.248,1.078.1.084.192.169.283.254.074.065.146.134.218.2,3.454,3.184,2.154,3.913,8.359,10.374,7.075,7.361,11.947,7.494,13.333,6.823,1.172-.572-1.21-4.476-3.849-8.864A30.155,30.155,0,0,1,671.583,1623c-4.26-5.437-7.1-12.422-10-16.468q-.246.148-.481.3a17.8,17.8,0,0,0-3.712,2.983Z" transform="translate(-581.07 -1292.387)" fill="#1a1a1a"/>
            <path id="Path_1530" data-name="Path 1530" d="M930.652,1544.63c.837,4.186,6.8,3.487,13.468,1.858s5.081.308,14.567-.743,12.36-4.587,12.649-6c.259-1.251-4.428-1.693-9.456-2.272-.632-.071-1.267-.149-1.9-.228-5.676-.712-9.833-4.375-14.989-7.383-4.884-2.849-12.172-14.458-12.172-14.458l-13.009,1.031s6.827,10.369,9.467,14.877c1.553,2.652,1.47,6.158,1.277,8.866A16.692,16.692,0,0,0,930.652,1544.63Z" transform="translate(-745.003 -1235.672)" fill="#ffb27d"/>
            <path id="Path_1531" data-name="Path 1531" d="M961.668,1582.86c6.666-1.629,5.081.307,14.567-.743s12.36-4.587,12.649-6c.259-1.251-4.428-1.693-9.456-2.272l-.047.1a26.743,26.743,0,0,1-13.585,4.223c-6.436.156-13.252-1.687-17.7-1.615a16.693,16.693,0,0,0,.1,4.45C949.037,1585.19,955,1584.49,961.668,1582.86Z" transform="translate(-762.55 -1272.051)" fill="#1a1a1a"/>
            <path id="Path_1532" data-name="Path 1532" d="M871.866,1071.91s3.1-7.594,6.509-7.9,14.258-2.015,15.033-.465,0,7.129-2.324,9.143-16.738,5.269-16.738,5.269Z" transform="translate(-715.163 -954.023)" fill="#ffb27d"/>
            <path id="Path_1533" data-name="Path 1533" d="M742.927,1338.12l-28.037,75.45a25.665,25.665,0,0,1-8.437-.773,36.329,36.329,0,0,1-8.154-3.971s6.955-72.448,19.706-87.518S742.927,1338.12,742.927,1338.12Z" transform="translate(-607.132 -1112.345)" fill="#1a1a1a"/>
            <path id="Path_1534" data-name="Path 1534" d="M497.221,1254.97s80.562-27.24,98.53-21.445,71.913,113.126,71.913,113.126a10.416,10.416,0,0,1-4.541,2.866c-3.091,1.159-10.574,1.085-10.574,1.085s-48.685-41.73-54.481-53.9-8.115-23.763-13.91-22.6-74.767,28.4-90.415,12.171-11.556-37.313-11.556-37.313Z" transform="translate(-472.32 -1059.72)" fill="#2b2b2b"/>
            <path id="Path_1535" data-name="Path 1535" d="M534.206,777.716c-3.482-1.98-7.655-2.2-10.574-2.023a4.947,4.947,0,0,1,2.23-1.058c-1.81-.269-5.85,1.526-5.85,1.526-25.178-9.7-29.135,27.371-28.606,35.984s.589,18.526-11.98,26.25c-24.73,15.2-3.864,41.732-3.864,41.732.2.115,11.507,19.3,11.507,19.3-.635-6.96,31.478-43.69,48.233-54.69,4.079-6,5.528-16.612,5.637-17.447-.7,8.41-2.143,13.128-3.429,15.784C551.7,830.018,543.437,782.961,534.206,777.716Z" transform="translate(-463.376 -774.555)" fill="#1a1a1a"/>
            <path id="Path_1536" data-name="Path 1536" d="M605.609,920.988c.084.038-8.09,4.282-14.237,2.6-5.783-1.577-9.562-9.075-9.482-9.092,2.449-.486,3.155-3.852,3.1-18.313l1.107.218,18.616,3.686s-.424,5.859-.436,11.377C604.267,916.1,604.548,920.494,605.609,920.988Z" transform="translate(-534.676 -850.258)" fill="#ffb27d"/>
            <path id="Path_1537" data-name="Path 1537" d="M611.659,900.446s-.424,5.859-.436,11.377c-10.417-.293-15.923-9.8-18.18-15.064Z" transform="translate(-541.619 -850.618)" fill="#ed975d"/>
            <path id="Path_1538" data-name="Path 1538" d="M576.529,828.341s-5.459-8.626-6.769-16c-.936-5.266,1.746-24.785,21.361-21.974a26.649,26.649,0,0,1,11.052,4.178c4.259,2.876,10.4,9.086,3.533,26.118l-1.785,5.754Z" transform="translate(-527.027 -784.225)" fill="#1a1a1a"/>
            <path id="Path_1539" data-name="Path 1539" d="M610.446,851.808s-24.647.407-24.664-14.946-3.21-25.64,12.526-26.549,18.8,4.946,20.052,10.069S616.857,851.306,610.446,851.808Z" transform="translate(-536.928 -796.753)" fill="#ffb27d"/>
            <path id="Path_1540" data-name="Path 1540" d="M596.471,804.328s-6.748,18.011-17.1,20.675-14.848-.112-14.848-.112a29.328,29.328,0,0,0,9.592-17.327S591.381,795.756,596.471,804.328Z" transform="translate(-523.864 -791.144)" fill="#1a1a1a"/>
            <path id="Path_1541" data-name="Path 1541" d="M644.713,808.5s5.04,4.021,6.269,7.931,1.781,11.958,4.127,11.684c0,0,5.084-12.242-.63-19.168C648.42,801.606,644.713,808.5,644.713,808.5Z" transform="translate(-573.779 -793.857)" fill="#1a1a1a"/>
            <path id="Path_1542" data-name="Path 1542" d="M481.916,1017.47c-2.431-10.194,5.838-29.974,14.471-46.35,7.833-14.842,15.963-26.882,16.693-26.45,20.658,12.261,22.524,2.067,22.524,2.067h0c.008,0,18.766,2.491,24.077,11.636,6.59,11.348,13.711,43.057,20.783,49.059-1.086,3.323-.62,5.094.531,9.212q.371,1.324.819,2.517a48.53,48.53,0,0,0,3.55,7.291c-3.6,2.184-10.537,6.339-15.652,3.351-7.8-4.563-13.881-18.456-17.3-23.988l-.038-.062c-7.443,42.127,2.677,51.721-2.445,56.163-5.41,4.691-13.138-2.234-30.14,5.135-11.152,4.837-26.628,11.832-37.045,13.049-5.464.641-9.541-.309-10.87-4C468.006,1065.38,486.553,1036.9,481.916,1017.47Z" transform="translate(-465.866 -880.428)" fill="#920061"/>
            <path id="Path_1543" data-name="Path 1543" d="M637.048,893.66s.46,1.951,5.311,1.65c0,0,4.074-.252,3.949-2.4a13.11,13.11,0,0,0-9.26.75Z" transform="translate(-569.008 -847.912)" fill="#fff"/>
            <path id="Path_1544" data-name="Path 1544" d="M471.87,1151.05c1.329,3.691,5.406,4.641,10.87,4,7.21-3.142,38.359-15.209,38.011-23.385-.518-12.106-5.989-12.493-2.125-27.435,3.1-12-25.678-34.307-30.269-39.156-8.632,16.376-8.871,17.15-6.44,27.344C486.553,1111.85,468.006,1140.32,471.87,1151.05Z" transform="translate(-465.866 -955.377)" fill="#7b0051"/>
            <path id="Path_1545" data-name="Path 1545" d="M459.332,1032.45a45.672,45.672,0,0,1,15.064-13.922c-.871-2.245,23.235-31.8,23.235-36.378,0-4.636,6.432-37.473,6.432-37.473s-20.086,1.24-27.041,10.939C468.326,967.748,450.262,1014.43,459.332,1032.45Z" transform="translate(-456.85 -880.444)" fill="#920061"/>
            <path id="Path_1546" data-name="Path 1546" d="M478.061,1140.27l40.139,10.473-3.767,6.762s-48.848-.341-51.436-3.314S478.061,1140.27,478.061,1140.27Z" transform="translate(-460.515 -1002.181)" fill="#ffb27d"/>
            <path id="Path_1547" data-name="Path 1547" d="M686.049,1106.63c3.425,5.532,9.508,19.425,17.3,23.989,5.115,2.987,12.057-1.167,15.652-3.352a48.53,48.53,0,0,1-3.55-7.291c-2.87.656-6.371,1.5-8.628,2.176C702.435,1123.48,686.049,1106.63,686.049,1106.63Z" transform="translate(-599.508 -981.244)" fill="#7b0051"/>
            <path id="Path_1548" data-name="Path 1548" d="M603.415,1163.29s12.6-3.567,15.608-2.732,13.289,7.645,11.843,9.495-10.509-1.108-14.679-.548-7.4,2.617-10.4,2.173a34.839,34.839,0,0,1-6.142-1.625Z" transform="translate(-545.73 -1014.733)" fill="#ffb27d"/>
            <path id="Path_1549" data-name="Path 1549" d="M609.625,1159.57s6.167-3.169,7.921-4.972a.491.491,0,0,1,.766.088c.47.742.91,2.173-1.253,3.6C613.946,1160.33,609.625,1159.57,609.625,1159.57Z" transform="translate(-551.94 -1011.011)" fill="#ffb27d"/>
          </g>
        </g>
        <g id="Group_1186" data-name="Group 1186" transform="translate(81.821 102.248)">
          <path id="Path_1550" data-name="Path 1550" d="M666.961,1207.25H608.153a4.688,4.688,0,0,1,4.688-4.688h54.12Z" transform="translate(-608.153 -1143.199)" fill="#313131"/>
          <path id="Path_1551" data-name="Path 1551" d="M726.532,1045.35h90.921l-21.808,64.05h-91.51Z" transform="translate(-667.893 -1045.351)" fill="#313131"/>
          <path id="Path_1552" data-name="Path 1552" d="M821,1045.35l-21.809,64.05H707.683l22.4-64.045Z" transform="translate(-670.102 -1045.351)" fill="#1a1a1a"/>
          <path id="Path_1553" data-name="Path 1553" d="M863.171,1121.29a5.912,5.912,0,0,1-5.454,4.431,3.412,3.412,0,0,1-3.408-4.431,5.912,5.912,0,0,1,5.454-4.431,3.412,3.412,0,0,1,3.408,4.431Z" transform="translate(-761.291 -1089.858)" fill="#dfdfdf"/>
        </g>
      </g>
      <g id="Group_1189" data-name="Group 1189" transform="translate(13.264 176.168)">
        <g id="Group_1188" data-name="Group 1188">
          <path id="Path_1555" data-name="Path 1555" d="M305.967,1427.21a2.35,2.35,0,0,0,2.33-1.911l11.419-64.726,16.426-93.09,4.593-26.031-11.7-.334L327,1256.229l-14.252,106.193-8.45,62.946a1.648,1.648,0,0,0,1.664,1.842Z" transform="translate(-304.289 -1241.123)" fill="#7e7e7e"/>
        </g>
        <path id="Path_1556" data-name="Path 1556" d="M364.451,1256.23c7.58,3.344,9.136,11.253,9.136,11.253l4.593-26.031-11.7-.334Z" transform="translate(-341.735 -1241.123)" fill="rgba(26,26,26,0.2)"/>
      </g>
      <g id="Group_1191" data-name="Group 1191" transform="translate(271.167 176.168)">
        <g id="Group_1190" data-name="Group 1190">
          <path id="Path_1557" data-name="Path 1557" d="M1022.09,1427.21a2.35,2.35,0,0,1-2.33-1.911l-11.419-64.726-16.426-93.09-4.593-26.031,11.7-.334,2.03,15.111,14.253,106.193,8.449,62.946a1.648,1.648,0,0,1-1.664,1.842Z" transform="translate(-987.326 -1241.123)" fill="#7e7e7e"/>
        </g>
        <path id="Path_1558" data-name="Path 1558" d="M1001.05,1256.23c-7.58,3.344-9.136,11.253-9.136,11.253l-4.593-26.031,11.7-.334Z" transform="translate(-987.326 -1241.123)" fill="rgba(26,26,26,0.2)"/>
      </g>
      <rect id="Rectangle_870" data-name="Rectangle 870" width="313.869" height="20.44" rx="10.22" transform="translate(313.869 186.721) rotate(180)" fill="#7e7e7e"/>
    </g>
    <rect id="Rectangle_872" data-name="Rectangle 872" width="78.363" height="21.495" rx="10.747" transform="translate(1616.916 459.311)" fill="#f9f9f9"/>
    <g id="Group_1196" data-name="Group 1196" transform="translate(1648.6 462.608)">
      <g id="Group_1194" data-name="Group 1194" transform="translate(3.052)">
        <path id="Path_1574" data-name="Path 1574" d="M2023,985.988a1.188,1.188,0,0,1-1.025-.587l-3.128-5.348a1.187,1.187,0,1,1,2.049-1.2l2.007,3.43,3.779-7.775a1.187,1.187,0,1,1,2.136,1.038l-4.75,9.772a1.186,1.186,0,0,1-1.022.668Z" transform="translate(-2018.684 -973.841)" fill="#fcb200"/>
      </g>
      <g id="Group_1195" data-name="Group 1195" transform="translate(0 0.162)">
        <path id="Path_1575" data-name="Path 1575" d="M2017.97,989.006a7.368,7.368,0,1,1,7.368-7.368,7.368,7.368,0,0,1-7.368,7.368Zm0-13.873a6.5,6.5,0,1,0,6.505,6.5,6.5,6.5,0,0,0-6.505-6.5Z" transform="translate(-2010.6 -974.27)" fill="#fcb200"/>
      </g>
    </g>
    <g id="Money" transform="translate(1256.248 313.991)">
      <g id="Group_77" data-name="Group 77">
        <g id="Group_76" data-name="Group 76">
          <circle id="Ellipse_1" data-name="Ellipse 1" cx="61.475" cy="61.475" r="61.475" transform="translate(0 0)" fill="#dfa313"/>
          <circle id="Ellipse_2" data-name="Ellipse 2" cx="52.41" cy="52.41" r="52.41" transform="translate(9.062 9.062)" fill="#fcb200"/>
          <path id="Path_77" data-name="Path 77" d="M406.378,185.18c0-13.714-19.439-14.016-19.439-19.743,0-3.013,1.581-3.919,4.822-3.919,2.787,0,5.122,1.208,7.837,3.618l6.4-7.385a19.8,19.8,0,0,0-11.377-6.308v-7.707h-8.442v7.935c-7.261,1.571-11.6,6.75-11.6,14.37,0,13.188,19.441,14.016,19.441,20.044,0,2.939-1.506,4.22-5.273,4.22-3.166,0-6.331-1.206-10.4-4.22l-5.575,8.74c3.735,3.364,9.1,5.162,13.412,5.692v7.572h8.442v-8.1C402.494,198.118,406.378,192.435,406.378,185.18Z" transform="translate(-328.216 -114.662)" fill="#1a1a1a"/>
        </g>
      </g>
    </g>
    <g id="Group_1198" data-name="Group 1198" transform="translate(1637.357 386.743)">
      <path id="Path_1488" data-name="Path 1488" d="M649.194,221.366c-.2.787-.333,1.6-.6,2.358a9.1,9.1,0,0,1-8.04,5.93q-.8.039-1.6.04H615.488a9.257,9.257,0,0,1-4.326-.933A8.8,8.8,0,0,1,606.013,221c-.149-3.172-.057-6.357-.036-9.536a2.114,2.114,0,0,1,2.115-2.091,2.157,2.157,0,0,1,2.162,2c.015.168.012.337.012.506v8.4a4.89,4.89,0,0,0,5.089,5.111q12.218.009,24.436,0a4.885,4.885,0,0,0,5.057-4.259,5.707,5.707,0,0,0,.041-.883q0-4.284,0-8.568a2.151,2.151,0,0,1,1.229-2.092,2.125,2.125,0,0,1,2.921,1.164c.05.131.1.26.151.391Z" transform="translate(-605.93 -190.912)" fill="#fff"/>
      <path id="Path_1489" data-name="Path 1489" d="M696,65.822h-.495c-1.266,0-2.532.019-3.8-.007a1.76,1.76,0,0,1-1.7-2.471,2.362,2.362,0,0,1,.51-.713q4.869-4.888,9.754-9.761a1.783,1.783,0,0,1,2.7-.043q4.935,4.913,9.846,9.848a1.777,1.777,0,0,1-.555,3.025,2.637,2.637,0,0,1-.87.117c-1.2.012-2.391.005-3.587.005h-.515V78.55a2.394,2.394,0,0,1-1.82,2.557,3.1,3.1,0,0,1-.751.076q-3.06.009-6.119,0A2.4,2.4,0,0,1,696,78.567q-.007-6.1,0-12.2Z" transform="translate(-679.995 -52.232)" fill="#fff"/>
    </g>
    <g id="Group_1193" data-name="Group 1193" transform="translate(1675.813 330.974)">
      <path id="Path_1559" data-name="Path 1559" d="M2102.14,817.333s-4.183-13.493-6.557-14.944-12.279-6.333-12.868-5.013,5.348,7.728,6.667,9.867,1.979,4.249,1.055,3.326-5.936-4.013-6.465-3.326,2.507,3.326,3.958,5.436,3.034,5.673,8.179,6.465S2102.14,817.333,2102.14,817.333Z" transform="translate(-2082.668 -730.792)" fill="#a16d3c"/>
      <path id="Path_1560" data-name="Path 1560" d="M2512.69,1147.37s-1.254,12.189-2.63,14.495-7.232,9.673-9.728,11.119,1.524-9.708,1.016-11.878-2.053,3.961-3.153,4.1-.817-5.374-.856-7.382,5.351-6.966,7.25-11.242S2512.69,1147.37,2512.69,1147.37Z" transform="translate(-2340.762 -947.22)" fill="#a16d3c"/>
      <path id="Path_1561" data-name="Path 1561" d="M2234.23,817.281s-10.134,49.744-65.907,66c-17.411,5.074-56.963-52.245-56.963-52.245s1.391-5.284,10.1-4.07c0,0,38.511,25.5,43.36,28.266,4.3,2.457,32.594-31.592,45.492-37.084a32.916,32.916,0,0,1,23.918-.867Z" transform="translate(-2100.529 -742.185)" fill="#7b0051"/>
      <g id="Group_1192" data-name="Group 1192" transform="translate(74.737 187.685)">
        <path id="Path_1562" data-name="Path 1562" d="M2571.8,1643.53s6.919,6.314,5.569,10.8-7.594,7.478-8.438,12.961-4.219,8.474-7.256,8.474h-14.482s-2.235-3.859,3.165-5.022,7.436-7.606,7.1-13.589a105.409,105.409,0,0,1,.506-13.958l11.476-2.659Z" transform="translate(-2446.249 -1443.416)" fill="#1a1a1a"/>
        <path id="Path_1563" data-name="Path 1563" d="M2321.27,1682.55s1.242,14.37-1.8,15.865l-38.874-.08s0-4.486,6.244-5.483,17.212-4.653,19.069-12.8S2321.27,1682.55,2321.27,1682.55Z" transform="translate(-2280.604 -1466.1)" fill="#1a1a1a"/>
        <path id="Path_1564" data-name="Path 1564" d="M2301.39,1148.36s2.05,25.189,4.46,55.468c3.275,41.131,7.214,91.653,7.6,101.224.673,16.62,3.376,43.2,3.376,43.2s6.409,6.316,19.238,3.655c0,0,11.432-37.951,14.7-78.1.051-.658.1-1.321.152-1.984,3.037-40.877,7.76-126.952,7.76-126.952Z" transform="translate(-2293.543 -1134.905)" fill="#fcb200"/>
        <path id="Path_1565" data-name="Path 1565" d="M2301.39,1148.36s2.05,25.189,4.46,55.468l44.916,69.979c.051-.658.1-1.321.152-1.984,3.037-40.877,7.76-126.952,7.76-126.952Z" transform="translate(-2293.543 -1134.905)" fill="rgba(26,26,26,0.05)"/>
        <path id="Path_1566" data-name="Path 1566" d="M2326.19,1134.92s36.957,91.224,61.258,134.095,31.894,54.834,31.894,54.834,13.923-5.483,15.188-9.223c0,0-9.292-82.763-25.566-102.938-9.2-11.4-20-45.613-20.5-57.577s-3.29-35.642-3.29-35.642Z" transform="translate(-2308.977 -1118.471)" fill="#fcb200"/>
      </g>
      <path id="Path_1567" data-name="Path 1567" d="M2389.99,739.765s-25.006,12.065-39.422,7.589a34.022,34.022,0,0,1,9.758-7.807c-.5-2.893-.887-5.4-1.109-7.534a69.638,69.638,0,0,1-.61-7.7l9.647-7.588,9.149-7.261C2376.68,729.883,2389.99,739.765,2389.99,739.765Z" transform="translate(-2249.412 -676.214)" fill="#a16d3c"/>
      <path id="Path_1568" data-name="Path 1568" d="M2369.13,909.169c.055,1.531-3.214,3.277-4.658,3.93-10.7,4.7-20.679,7.971-31.991,9.063-13.362,1.365-29.165-1.639-34.6-1.528a2.255,2.255,0,0,1-1.5-.6c-.387-.273-.665-16.377-.387-36.633,0-.816,0-1.635.055-2.454v-.273c.111-7.916.387-16.215.776-24.515.776-18.233,2.22-35.814,4.658-45.53,2.937-11.466,9.594-19.053,15.637-24.57l4.987-4.365a24,24,0,0,0,15.527-1.856c5.766-2.783,11.976-5.786,12.974-5.023,7.539,5.513,12.641,17.905,15.36,33.74.011.079.028.154.039.233a176.054,176.054,0,0,1,2.232,29.79c0,3.934-.111,7.971-.332,11.957a356.012,356.012,0,0,0,.36,45.265c.143,2.2.289,4.207.415,6C2368.91,904.966,2369.08,907.424,2369.13,909.169Z" transform="translate(-2215.379 -716.813)" fill="#920061"/>
      <path id="Path_1569" data-name="Path 1569" d="M2448.66,952c-41.451-47.858-15.736-82.639-15.736-82.639l13.476-4.373a176.03,176.03,0,0,1,2.233,29.79c0,3.934-.111,7.971-.333,11.957a355.922,355.922,0,0,0,.36,45.265Z" transform="translate(-2295.765 -773.015)" fill="rgba(0,0,0,0.16)"/>
      <path id="Path_1570" data-name="Path 1570" d="M2390.82,729.242s-6.32,11.519-18.352,14.74a69.637,69.637,0,0,1-.61-7.7l9.647-7.588Z" transform="translate(-2262.664 -688.184)" fill="#884f19"/>
      <path id="Path_1571" data-name="Path 1571" d="M2352.53,683.855s23.854,3.9,26.094-10.763,6.826-24.038-8.31-27.149-18.956,2.045-20.913,6.761S2346.39,682.462,2352.53,683.855Z" transform="translate(-2247.74 -636.087)" fill="#a16d3c"/>
      <path id="Path_1572" data-name="Path 1572" d="M2374.59,629.5c.217-.248.717-.449,1.828-.509a4.51,4.51,0,0,0-2.077-.585c-.232-1.546-1.055-4.281-3.715-4.947a3.333,3.333,0,0,1,1.616,2.406c-3.081-3.165-9.683-5.468-27.965-4.025-24.094,1.9-16.153,17.328-13.034,19.167s10.97-3.2,16.782-2.741,6.917,8.859,8.888,10.011,1.2-.885,3.864-2.091,2.922,3.214,2.151,6.088,2.9,6.665,2.9,6.665l3.7-3.989c3.7-3.989,7.2-20.884,5.511-24.486C2374.89,630.148,2374.74,629.826,2374.59,629.5Z" transform="translate(-2235.033 -621.402)" fill="#1a1a1a"/>
      <path id="Path_1573" data-name="Path 1573" d="M2421.96,774.691s15.094,7.147,22.33,18.135c11.226,17.043,24.237,79.158,24.477,84.91s-9.5,46.36-9.5,46.36-9.875-.651-12.423-5.635c0,0,1.973-41.723.723-44.406s-41.171-55.968-36.682-67.339S2421.96,774.691,2421.96,774.691Z" transform="translate(-2286.741 -716.812)" fill="#920061"/>
    </g>
    <g id="Mask_Group_3" data-name="Mask Group 3" transform="translate(1457.499 358.545)" clip-path="url(#clip-path)">
      <g id="Group_1199" data-name="Group 1199" transform="translate(0 16.921)">
        <path id="Path_1576" data-name="Path 1576" d="M1711.85,1454.5s0-4.789.682-6.382,3.186-8.077,3.186-8.077h9.783a59.979,59.979,0,0,1,1.933,7.849c.114,1.934,0,6.61,0,6.61Z" transform="translate(-1678.09 -1150.062)" fill="#233862"/>
        <path id="Path_1577" data-name="Path 1577" d="M1855.73,1454.5s0-4.789-.683-6.382-3.185-8.077-3.185-8.077h-9.784a59.955,59.955,0,0,0-1.934,7.849c-.114,1.934,0,6.61,0,6.61Z" transform="translate(-1759.852 -1150.062)" fill="#233862"/>
        <path id="Path_1578" data-name="Path 1578" d="M1753.08,728.446s-.344,10.665-1.71,15.443l-10.8,7.536,40.669,6.086-9.7-13.4s-2.928-14.3-1.393-19.59S1753.08,728.446,1753.08,728.446Z" transform="translate(-1696.399 -692.839)" fill="#ffb27d"/>
        <path id="Path_1579" data-name="Path 1579" d="M1774.93,742.295s3.216,7.742,9.273,7.571,7.437-7.021,7.437-7.021Z" transform="translate(-1718.307 -705.215)" fill="#ed985f"/>
        <path id="Path_1580" data-name="Path 1580" d="M1757.81,670.8s-1.956-9.766-3.321-12.724-2.5-16.154,12.627-16.837c0,0,5.8.683,8.987-1.251,0,0,0,1.934-.8,2.616a10.057,10.057,0,0,1,9.329,3.3c4.1,4.551-2.73,20.477-2.389,24.231Z" transform="translate(-1704.801 -639.991)" fill="#1a1a1a"/>
        <path id="Path_1581" data-name="Path 1581" d="M1776.67,703.462c-4.39-.078-12.469-5.922-12.469-13.16V679.008c0-2.643,1.843-4.8,4.1-4.8h16.746c2.253,0,4.1,2.162,4.1,4.8v10.655C1789.14,697.253,1781.7,703.551,1776.67,703.462Z" transform="translate(-1711.466 -661.803)" fill="#ffb27d"/>
        <path id="Path_1582" data-name="Path 1582" d="M1763.22,680.538s.023-6.787,5.4-7.83,17.406,3.308,19.112-1.641-23.253-4.863-24.51-1.706S1763.22,680.538,1763.22,680.538Z" transform="translate(-1710.484 -657.302)" fill="#1a1a1a"/>
        <path id="Path_1583" data-name="Path 1583" d="M1711.75,1022.29s1.712,52.269-.847,82.093.018,71.328.018,71.328a19.357,19.357,0,0,0,17.059,0s9.731-57.616,9.669-71.328c-.065-14.6,10.592-79.815,10.592-79.815Z" transform="translate(-1676.763 -883.729)" fill="#2b478b"/>
        <path id="Path_1584" data-name="Path 1584" d="M1816.61,1175.56a19.344,19.344,0,0,1-17.057,0s-9.73-57.615-9.668-71.328c.027-6.167-1.857-21.364-4.045-36.858-2.993-21.2-6.549-42.954-6.549-42.954l37.906-2.368s-3.126,52.359-.566,82.18S1816.61,1175.56,1816.61,1175.56Z" transform="translate(-1721.089 -883.573)" fill="#2b478b"/>
        <path id="Path_1585" data-name="Path 1585" d="M1772.87,877.049s-16.16,3.13-30.9,3.13a149.437,149.437,0,0,1-18.979-1.451c-6.15-.815-10.559-1.679-10.559-1.679s-3.276.287-1.341-15.866c1.471-12.293,1.01-23.392.683-34.811-.038-1.27-.01-2.771.068-4.443.629-13.313,4.655-37.282,7.724-38.568a56.184,56.184,0,0,1,12.624-2.522c0,.157,4.679,7,10.232,7.764,3.45-1.365,6.161-2.529,9.935-7.542a108.243,108.243,0,0,1,15.572,3s.58,2.539,2.771,46.592C1771.57,848.1,1777.53,877.107,1772.87,877.049Z" transform="translate(-1677.216 -729.789)" fill="#920061"/>
        <path id="Path_1586" data-name="Path 1586" d="M1722.99,951.007c-6.15-.815-10.559-1.679-10.559-1.679s-3.276.287-1.341-15.866c1.471-12.293,1.01-23.392.683-34.811-.038-1.27-.01-2.771.068-4.443.943,1.508,11.44,18.463,14.266,31.063C1728.17,934.462,1725.06,945.288,1722.99,951.007Z" transform="translate(-1677.216 -802.067)" fill="#7b0051"/>
        <path id="Path_1587" data-name="Path 1587" d="M1801.41,1152c.027-6.167-1.858-21.364-4.045-36.858,2.27-9.256,7.8-18.163,7.8-18.163C1812.16,1116.6,1801.41,1152,1801.41,1152Z" transform="translate(-1732.608 -931.346)" fill="#233862"/>
        <path id="Path_1588" data-name="Path 1588" d="M1638.33,839.747c-.386.321.959,3.652,2.938,7.993,4.075,8.918,10.843,22.088,10.843,22.088a39.084,39.084,0,0,1-2.055,6.014c-11.385-8.945-18.726-16.556-23.412-22.392-6.587-8.208-7.938-12.914-7.938-12.914,25.35-51.6,43.191-53.5,43.191-53.5l-2.108,34.1S1639.5,838.77,1638.33,839.747Z" transform="translate(-1618.704 -733.737)" fill="#920061"/>
        <path id="Path_1589" data-name="Path 1589" d="M1705.51,1011.15s6.143-5.688,8.646-2.5,2.957,8.191,1.024,7.85-5.916-2.162-6.484-1.251-3.117,2.65-3.891,1.268S1705.51,1011.15,1705.51,1011.15Z" transform="translate(-1673.454 -874.412)" fill="#ffb27d"/>
        <path id="Path_1590" data-name="Path 1590" d="M1666.07,976.614a39.082,39.082,0,0,1-2.055,6.014c-11.385-8.945-18.726-16.556-23.412-22.392,3.533-.263,8.689-1.526,14.624-5.71C1659.3,963.444,1666.07,976.614,1666.07,976.614Z" transform="translate(-1632.667 -840.523)" fill="#ffb27d"/>
        <path id="Path_1591" data-name="Path 1591" d="M1906.51,841.425s-1.352,4.706-7.938,12.914c-4.686,5.836-12.027,13.447-23.412,22.392a39.069,39.069,0,0,1-2.055-6.014s6.768-13.17,10.843-22.088c1.979-4.341,3.324-7.672,2.938-7.993-.911-.757-13.3-11.525-18.832-16.327l-2.628-2.287-1.266-33.6S1881.16,789.824,1906.51,841.425Z" transform="translate(-1775.195 -734.627)" fill="#920061"/>
        <path id="Path_1592" data-name="Path 1592" d="M1873.44,1011.15s-6.142-5.688-8.645-2.5-2.958,8.191-1.024,7.85,5.915-2.162,6.484-1.251,3.117,2.65,3.891,1.268S1873.44,1011.15,1873.44,1011.15Z" transform="translate(-1774.186 -874.412)" fill="#ffb27d"/>
        <path id="Path_1593" data-name="Path 1593" d="M1888.84,976.614a39.053,39.053,0,0,0,2.055,6.014c11.385-8.945,18.726-16.556,23.412-22.392-3.532-.263-8.689-1.526-14.624-5.71C1895.6,963.444,1888.84,976.614,1888.84,976.614Z" transform="translate(-1790.927 -840.523)" fill="#ffb27d"/>
        <path id="Path_1594" data-name="Path 1594" d="M1767.86,773.664a4.317,4.317,0,0,0-2.318,2.8s7.243,7.451,11.983,7.565Z" transform="translate(-1712.323 -725.214)" fill="#008dbf"/>
        <path id="Path_1595" data-name="Path 1595" d="M1798.61,783.366l9.349-10.741a4.387,4.387,0,0,1,1.9,3.361S1802.63,783.651,1798.61,783.366Z" transform="translate(-1733.401 -724.552)" fill="#008dbf"/>
        <path id="Path_1596" data-name="Path 1596" d="M1784.85,799.985s-7.136,61.6-4.651,69.111a51.331,51.331,0,0,0,4.352,9.544,2.53,2.53,0,0,0,4.378-.01c1.9-3.29,4.371-8.05,4.371-10.467,0-3.914-5.415-68.231-5.415-68.231Z" transform="translate(-1721.33 -741.961)" fill="#008dbf"/>
        <path id="Path_1597" data-name="Path 1597" d="M1787.78,791.3a45,45,0,0,1,6.938-.166.727.727,0,0,1,.557,1.08c-.736,1.325-2.237,3.621-3.807,3.621C1789.26,795.839,1785.82,791.455,1787.78,791.3Z" transform="translate(-1726.13 -736.299)" fill="#008dbf"/>
        <path id="Path_1598" data-name="Path 1598" d="M1788.95,734.342a4.8,4.8,0,0,0,3.755,1.783,4.466,4.466,0,0,0,3.51-1.783,23.831,23.831,0,0,0-7.265,0Z" transform="translate(-1727.248 -699.957)" fill="#fff"/>
      </g>
    </g>
    <g id="Group_1159" data-name="Group 1159" transform="translate(1479.021 369.954)">
      <g id="Group_1155" data-name="Group 1155">
        <rect id="Rectangle_859" data-name="Rectangle 859" width="21.141" height="1.922" fill="#1a1a1a"/>
        <rect id="Rectangle_860" data-name="Rectangle 860" width="21.141" height="1.922" transform="translate(1.922) rotate(90)" fill="#1a1a1a"/>
      </g>
      <g id="Group_1156" data-name="Group 1156" transform="translate(67.13)">
        <rect id="Rectangle_859-2" data-name="Rectangle 859" width="21.141" height="1.922" fill="#1a1a1a"/>
        <rect id="Rectangle_860-2" data-name="Rectangle 860" width="21.141" height="1.922" transform="translate(21.141) rotate(90)" fill="#1a1a1a"/>
      </g>
      <g id="Group_1157" data-name="Group 1157" transform="translate(0 61.869)">
        <rect id="Rectangle_859-3" data-name="Rectangle 859" width="21.141" height="1.922" transform="translate(0 19.219)" fill="#1a1a1a"/>
        <rect id="Rectangle_860-3" data-name="Rectangle 860" width="21.141" height="1.922" transform="translate(0 21.141) rotate(-90)" fill="#1a1a1a"/>
      </g>
      <g id="Group_1158" data-name="Group 1158" transform="translate(67.13 61.869)">
        <rect id="Rectangle_859-4" data-name="Rectangle 859" width="21.141" height="1.922" transform="translate(0 19.219)" fill="#1a1a1a"/>
        <rect id="Rectangle_860-4" data-name="Rectangle 860" width="21.141" height="1.922" transform="translate(19.219 21.141) rotate(-90)" fill="#1a1a1a"/>
      </g>
    </g>
  </g>
</svg>
