<svg xmlns="http://www.w3.org/2000/svg" width="693.675" height="436.517" viewBox="0 0 693.675 436.517">
  <g id="coming-soon" transform="translate(-49.764 -90.978)">
    <g id="Group_22" data-name="Group 22" transform="translate(480.911 503.629)">
      <g id="Group_3" data-name="Group 3" transform="translate(6.883 0)">
        <g id="Group_1" data-name="Group 1" transform="translate(0.883 0.896)">
          <path id="Path_1" data-name="Path 1" d="M328.276,336.92c-.934-3.055-3.075-5.913-6.116-6.894s-6.9.5-7.845,3.554c-2.8-2.335-7.084-.48-9.331,2.389-3.636,4.639-.826,12.236-.22,12.729a4.834,4.834,0,0,0,2.432.438l27.2-.151s4.99-.364,7.294-1.282c4.633-1.848,7.786-9.823,4.8-13.824-2.034-2.726-6.045-3.3-9.284-2.269a26.059,26.059,0,0,0-8.936,5.309" transform="translate(-303.157 -329.727)" fill="#6cdd6c"/>
        </g>
        <g id="Group_2" data-name="Group 2">
          <path id="Path_2" data-name="Path 2" d="M307.182,350.424a4.528,4.528,0,0,1-2.61-.65c-1.067-.868-3.778-9.059.078-13.98A9.822,9.822,0,0,1,311,332.041a5.647,5.647,0,0,1,3.289.582,6.417,6.417,0,0,1,2.683-2.541,7.754,7.754,0,0,1,5.834-.53,10.553,10.553,0,0,1,6.246,6.229,26.2,26.2,0,0,1,8.254-4.646c3.25-1.039,7.85-.669,10.28,2.59,1.4,1.876,1.724,4.651.887,7.609-1,3.534-3.385,6.511-6.078,7.583-2.4.96-7.351,1.329-7.562,1.344l-27.262.152C307.485,350.419,307.35,350.424,307.182,350.424ZM311.7,333.8a4.671,4.671,0,0,0-.509.028,8.087,8.087,0,0,0-5.127,3.076c-3.191,4.072-.807,10.866-.286,11.55a5.167,5.167,0,0,0,1.743.166l27.247-.152c-.012,0,4.819-.362,6.965-1.22,2.162-.859,4.176-3.433,5.015-6.4.684-2.416.466-4.621-.6-6.049-1.9-2.553-5.635-2.8-8.294-1.95a25.2,25.2,0,0,0-8.614,5.127.9.9,0,0,1-1.453-.411,9.154,9.154,0,0,0-5.531-6.3,5.925,5.925,0,0,0-4.455.416,4.4,4.4,0,0,0-2.257,2.55.9.9,0,0,1-1.434.423A3.659,3.659,0,0,0,311.7,333.8Z" transform="translate(-302.647 -329.21)" fill="#50aa50"/>
        </g>
      </g>
      <g id="Group_6" data-name="Group 6" transform="translate(3.301 6.719)">
        <g id="Group_5" data-name="Group 5">
          <g id="Group_4" data-name="Group 4">
            <path id="Path_3" data-name="Path 3" d="M301.556,333.429a8.5,8.5,0,0,0-.927,4.857c.092.852,1.441.861,1.346,0a7.234,7.234,0,0,1,.745-4.178c.395-.769-.767-1.452-1.164-.679Z" transform="translate(-300.579 -333.089)" fill="#50aa50"/>
          </g>
        </g>
      </g>
      <g id="Group_9" data-name="Group 9" transform="translate(0 7.663)">
        <g id="Group_8" data-name="Group 8">
          <g id="Group_7" data-name="Group 7">
            <path id="Path_4" data-name="Path 4" d="M299.021,334.109a9.341,9.341,0,0,0-.116,4.59c.185.847,1.484.488,1.3-.359a7.864,7.864,0,0,1,.116-3.873.674.674,0,0,0-1.3-.359Z" transform="translate(-298.674 -333.634)" fill="#50aa50"/>
          </g>
        </g>
      </g>
      <g id="Group_12" data-name="Group 12" transform="translate(7.253 4.057)">
        <g id="Group_11" data-name="Group 11">
          <g id="Group_10" data-name="Group 10">
            <path id="Path_5" data-name="Path 5" d="M303.512,332.9a.674.674,0,0,0,0-1.348.674.674,0,0,0,0,1.348Z" transform="translate(-302.861 -331.552)" fill="#50aa50"/>
          </g>
        </g>
      </g>
      <g id="Group_15" data-name="Group 15" transform="translate(11.72 11.266)">
        <g id="Group_14" data-name="Group 14">
          <g id="Group_13" data-name="Group 13">
            <path id="Path_6" data-name="Path 6" d="M305.44,336.365v1.2a.674.674,0,0,0,1.348,0v-1.2a.674.674,0,0,0-1.348,0Z" transform="translate(-305.44 -335.714)" fill="#50aa50"/>
          </g>
        </g>
      </g>
      <g id="Group_18" data-name="Group 18" transform="translate(34.476 13.362)">
        <g id="Group_17" data-name="Group 17">
          <g id="Group_16" data-name="Group 16">
            <path id="Path_7" data-name="Path 7" d="M318.577,337.574v.6a.674.674,0,0,0,1.348,0v-.6a.674.674,0,0,0-1.348,0Z" transform="translate(-318.577 -336.924)" fill="#50aa50"/>
          </g>
        </g>
      </g>
      <g id="Group_21" data-name="Group 21" transform="translate(31.779 11.243)">
        <g id="Group_20" data-name="Group 20">
          <g id="Group_19" data-name="Group 19">
            <path id="Path_8" data-name="Path 8" d="M317.219,336.852l.3.3a.674.674,0,0,0,.953-.953l-.3-.3a.674.674,0,0,0-.953.953Z" transform="translate(-317.02 -335.7)" fill="#50aa50"/>
          </g>
        </g>
      </g>
    </g>
    <g id="Group_23" data-name="Group 23" transform="translate(82.652 482.733)">
      <path id="Path_9" data-name="Path 9" d="M116.153,320.738H70.547a1.8,1.8,0,1,1,0-3.592h45.606a1.8,1.8,0,1,1,0,3.592Z" transform="translate(-68.751 -317.146)" fill="#920061"/>
    </g>
    <g id="Group_25" data-name="Group 25" transform="translate(525.126 324.902)">
      <g id="Group_24" data-name="Group 24">
        <path id="Path_10" data-name="Path 10" d="M330.713,229.283h-1.3a1.953,1.953,0,1,0-3.906,0h-1.3a3.256,3.256,0,1,1,6.513,0Z" transform="translate(-324.2 -226.027)" fill="#fff"/>
      </g>
    </g>
    <g id="Group_27" data-name="Group 27" transform="translate(529.786 249.059)">
      <g id="Group_26" data-name="Group 26">
        <path id="Path_11" data-name="Path 11" d="M333.4,185.5h-1.3a1.953,1.953,0,1,0-3.906,0h-1.3a3.256,3.256,0,1,1,6.513,0Z" transform="translate(-326.89 -182.241)" fill="#fff"/>
      </g>
    </g>
    <g id="Group_30" data-name="Group 30" transform="translate(312.173 483.975)">
      <g id="Group_29" data-name="Group 29">
        <g id="Group_28" data-name="Group 28">
          <path id="Path_12" data-name="Path 12" d="M263.243,349.753H201.258l1.051-2.494c4.065-9.643,4.484-17.9,3.866-27.328l-.125-1.909,52.26-.159.012,1.788c.045,6.1,1.694,19.94,4.176,27.763Zm-56.636-3.592H258.4a136.39,136.39,0,0,1-3.62-24.7l-44.908.139C210.3,329.967,209.785,337.575,206.607,346.161Z" transform="translate(-201.258 -317.863)" fill="#920061"/>
        </g>
      </g>
    </g>
    <g id="Group_33" data-name="Group 33" transform="translate(195.313 304.452)">
      <g id="Group_32" data-name="Group 32">
        <g id="Group_31" data-name="Group 31">
          <path id="Path_13" data-name="Path 13" d="M232.83,397.312c-47.059,0-85.18-.256-86.853-.854-4.027-1.436-9.293-7.017-9.364-10.977-.152-8.576-.521-20.252-.948-33.777-1.29-40.769-3.054-96.607-.766-127.5a10.721,10.721,0,0,1,10.627-9.979h.18l271.307.4a10.7,10.7,0,0,1,10.472,10.544c.208,9.024.5,18.248.8,27.6,1.244,39.141,2.527,79.62-1.808,117.895-.172,1.509-.246,3.177-.324,4.9-.365,8.03-.819,18.026-11.171,20.069C409.919,396.63,309.512,397.312,232.83,397.312Zm-87.281-180.2a7.839,7.839,0,0,0-7.769,7.306c-2.278,30.746-.516,86.495.769,127.2.43,13.533.8,25.222.951,33.815.045,2.5,4.221,7.159,7.446,8.309,5.777,1.18,260.843.308,267.474-.939,8.127-1.606,8.493-9.619,8.846-17.368.081-1.794.161-3.527.338-5.1,4.313-38.064,3.031-78.437,1.793-117.477-.3-9.355-.589-18.588-.8-27.621a7.816,7.816,0,0,0-7.625-7.724l-271.3-.4Z" transform="translate(-133.793 -214.221)" fill="#920061"/>
        </g>
      </g>
    </g>
    <g id="Group_35" data-name="Group 35" transform="translate(205.482 313.859)">
      <g id="Group_34" data-name="Group 34">
        <path id="Path_14" data-name="Path 14" d="M405.126,219.988,149.5,219.652c-4.6-.069-8.456,3.083-8.8,7.2-2.865,34.213,1.039,105.6,1.618,134.328.055,2.8,4.627,7,7.919,8.039,3.875,1.225,246.8.3,252.732-.736,10.663-1.862,8.848-12.782,9.743-19.769,5.058-39.515,1.95-82.467.944-121.117C413.549,223.415,409.786,220.058,405.126,219.988Z" transform="translate(-139.663 -219.651)" fill="#e2e2e2" fill-rule="evenodd"/>
      </g>
    </g>
    <g id="Group_38" data-name="Group 38" transform="translate(283.544 512.491)">
      <g id="Group_37" data-name="Group 37">
        <g id="Group_36" data-name="Group 36">
          <path id="Path_15" data-name="Path 15" d="M297.518,347.534H191.158a6.606,6.606,0,0,1,0-13.208h106.36a6.606,6.606,0,0,1,0,13.208Zm-106.36-10.318a3.72,3.72,0,0,0,0,7.431h106.36a3.72,3.72,0,0,0,0-7.431Z" transform="translate(-184.73 -334.326)" fill="#920061"/>
        </g>
      </g>
    </g>
    <g id="Group_63" data-name="Group 63" transform="translate(212.316 470.056)">
      <g id="Group_46" data-name="Group 46">
        <g id="Group_41" data-name="Group 41" transform="translate(3.113 3.712)">
          <g id="Group_40" data-name="Group 40">
            <g id="Group_39" data-name="Group 39">
              <path id="Path_16" data-name="Path 16" d="M145.877,311.97h0" transform="translate(-145.406 -311.97)" fill="#415b91" fill-rule="evenodd"/>
            </g>
          </g>
        </g>
        <g id="Group_45" data-name="Group 45">
          <g id="Group_44" data-name="Group 44">
            <g id="Group_43" data-name="Group 43">
              <g id="Group_42" data-name="Group 42">
                <path id="Path_17" data-name="Path 17" d="M147.193,317.251c4.777,0,4.784-7.424,0-7.424s-4.784,7.424,0,7.424Z" transform="translate(-143.608 -309.827)" fill="#920061"/>
              </g>
            </g>
          </g>
        </g>
      </g>
      <g id="Group_54" data-name="Group 54" transform="translate(14.966)">
        <g id="Group_49" data-name="Group 49" transform="translate(3.113 3.712)">
          <g id="Group_48" data-name="Group 48">
            <g id="Group_47" data-name="Group 47">
              <path id="Path_18" data-name="Path 18" d="M154.517,311.97h0" transform="translate(-154.046 -311.97)" fill="#415b91" fill-rule="evenodd"/>
            </g>
          </g>
        </g>
        <g id="Group_53" data-name="Group 53">
          <g id="Group_52" data-name="Group 52">
            <g id="Group_51" data-name="Group 51">
              <g id="Group_50" data-name="Group 50">
                <path id="Path_19" data-name="Path 19" d="M155.833,317.251c4.777,0,4.784-7.424,0-7.424s-4.784,7.424,0,7.424Z" transform="translate(-152.248 -309.827)" fill="#920061"/>
              </g>
            </g>
          </g>
        </g>
      </g>
      <g id="Group_62" data-name="Group 62" transform="translate(29.931)">
        <g id="Group_57" data-name="Group 57" transform="translate(3.114 3.712)">
          <g id="Group_56" data-name="Group 56">
            <g id="Group_55" data-name="Group 55">
              <path id="Path_20" data-name="Path 20" d="M163.157,311.97h0" transform="translate(-162.686 -311.97)" fill="#415b91" fill-rule="evenodd"/>
            </g>
          </g>
        </g>
        <g id="Group_61" data-name="Group 61">
          <g id="Group_60" data-name="Group 60">
            <g id="Group_59" data-name="Group 59">
              <g id="Group_58" data-name="Group 58">
                <path id="Path_21" data-name="Path 21" d="M164.474,317.251c4.777,0,4.784-7.424,0-7.424s-4.784,7.424,0,7.424Z" transform="translate(-160.888 -309.827)" fill="#920061"/>
              </g>
            </g>
          </g>
        </g>
      </g>
    </g>
    <g id="Group_71" data-name="Group 71" transform="translate(341.472 308.506)">
      <g id="Group_66" data-name="Group 66" transform="translate(1.46 1.741)">
        <g id="Group_65" data-name="Group 65">
          <g id="Group_64" data-name="Group 64">
            <path id="Path_22" data-name="Path 22" d="M219.236,217.566h0" transform="translate(-219.016 -217.566)" fill="#415b91" fill-rule="evenodd"/>
          </g>
        </g>
      </g>
      <g id="Group_70" data-name="Group 70">
        <g id="Group_69" data-name="Group 69">
          <g id="Group_68" data-name="Group 68">
            <g id="Group_67" data-name="Group 67">
              <path id="Path_23" data-name="Path 23" d="M219.854,220.043a1.742,1.742,0,0,0,0-3.482,1.742,1.742,0,0,0,0,3.482Z" transform="translate(-218.173 -216.561)" fill="#920061"/>
            </g>
          </g>
        </g>
      </g>
    </g>
    <g id="Group_76" data-name="Group 76" transform="translate(603.436 472.348)">
      <g id="Group_72" data-name="Group 72" transform="translate(3.028)">
        <path id="Path_24" data-name="Path 24" d="M407.807,357.447H371.158l14.1-46.3h8.458Z" transform="translate(-371.158 -311.151)" fill="#e2e2e2"/>
      </g>
      <g id="Group_73" data-name="Group 73" transform="translate(0 46.297)">
        <rect id="Rectangle_2" data-name="Rectangle 2" width="42.706" height="5.289" fill="#e2e2e2"/>
      </g>
      <g id="Group_74" data-name="Group 74" transform="translate(3.028 34.723)">
        <path id="Path_25" data-name="Path 25" d="M374.682,331.2l-3.524,11.574h36.649L404.284,331.2Z" transform="translate(-371.158 -331.197)" fill="#920061"/>
      </g>
      <g id="Group_75" data-name="Group 75" transform="translate(10.076 11.574)">
        <path id="Path_26" data-name="Path 26" d="M375.227,329.407H397.78l-3.524-11.574H378.751Z" transform="translate(-375.227 -317.833)" fill="#920061"/>
      </g>
    </g>
    <g id="Group_78" data-name="Group 78" transform="translate(649.629 464.683)">
      <g id="Group_77" data-name="Group 77">
        <path id="Path_27" data-name="Path 27" d="M404.55,365.678h8.132V334.19h41.745v31.489h8.132V334.19h8.612V309.048H464.3v-2.323h-11.85v2.323H415.469v-2.323H403.62v2.323h-7.542V334.19h8.472Zm64-54v.106l-5.013,19.785h-8.945l5.039-19.89Zm-23.33,19.89h-8.945l5.039-19.89h8.945Zm-18.316,0h-8.947l5.039-19.89h8.947Zm-22.223-19.89h8.945l-5.039,19.89h-8.945Z" transform="translate(-396.078 -306.725)" fill="#e2e2e2"/>
      </g>
    </g>
    <g id="Group_83" data-name="Group 83" transform="translate(221.826 177.102)">
      <g id="Group_80" data-name="Group 80">
        <g id="Group_79" data-name="Group 79">
          <path id="Path_28" data-name="Path 28" d="M185.38,179.416l2.437-2.437a1.263,1.263,0,0,0,0-1.789l-2.124-2.118a1.794,1.794,0,0,1-.282-2l1.729-4.2a1.8,1.8,0,0,1,1.623-1.218h3a1.265,1.265,0,0,0,1.264-1.259v-3.454a1.261,1.261,0,0,0-1.264-1.261h-3a1.8,1.8,0,0,1-1.623-1.214l-1.729-4.2a1.8,1.8,0,0,1,.282-2.008l2.124-2.118a1.254,1.254,0,0,0,0-1.782l-2.437-2.448a1.265,1.265,0,0,0-1.786,0l-2.125,2.124a1.8,1.8,0,0,1-2,.291l-4.2-1.732a1.8,1.8,0,0,1-1.212-1.625v-3a1.269,1.269,0,0,0-1.263-1.266h-3.447a1.27,1.27,0,0,0-1.266,1.266v3a1.8,1.8,0,0,1-1.212,1.625l-4.2,1.732a1.8,1.8,0,0,1-2-.291l-2.127-2.12a1.25,1.25,0,0,0-1.779,0l-2.446,2.444a1.258,1.258,0,0,0,0,1.782l2.122,2.118a1.8,1.8,0,0,1,.288,2.008l-1.729,4.2a1.8,1.8,0,0,1-1.623,1.214h-3.007a1.261,1.261,0,0,0-1.263,1.261v3.454a1.266,1.266,0,0,0,1.263,1.259h3.007a1.8,1.8,0,0,1,1.623,1.218l1.729,4.2a1.791,1.791,0,0,1-.288,2l-2.122,2.118a1.266,1.266,0,0,0,0,1.789l2.446,2.437a1.247,1.247,0,0,0,1.779,0l2.127-2.12a1.786,1.786,0,0,1,2-.284l4.2,1.729a1.789,1.789,0,0,1,1.212,1.62v3.01a1.267,1.267,0,0,0,1.266,1.261h3.447a1.266,1.266,0,0,0,1.263-1.261v-3.01a1.789,1.789,0,0,1,1.212-1.62l4.2-1.729a1.782,1.782,0,0,1,2,.284l2.125,2.12A1.256,1.256,0,0,0,185.38,179.416Zm-14.313-6.672a10.078,10.078,0,1,1,10.079-10.079A10.084,10.084,0,0,1,171.068,172.744Z" transform="translate(-149.099 -140.699)" fill="#e2e2e2"/>
        </g>
      </g>
      <g id="Group_82" data-name="Group 82" transform="translate(32.877 37.784)">
        <g id="Group_81" data-name="Group 81">
          <path id="Path_29" data-name="Path 29" d="M194.792,172.97l-.615-2.046a.789.789,0,0,0-.977-.527l-1.777.54a1.11,1.11,0,0,1-1.183-.435l-1.789-2.17a1.122,1.122,0,0,1-.184-1.242l.876-1.639a.789.789,0,0,0-.314-1.064l-1.886-1.008a.782.782,0,0,0-1.058.322L185,165.342a1.12,1.12,0,0,1-1.136.532l-2.8-.282a1.106,1.106,0,0,1-1.008-.745l-.54-1.781a.775.775,0,0,0-.973-.518l-2.047.611a.79.79,0,0,0-.525.982l.544,1.777a1.106,1.106,0,0,1-.438,1.178l-2.174,1.793a1.115,1.115,0,0,1-1.24.184l-1.64-.88a.777.777,0,0,0-1.057.32l-1.013,1.879a.788.788,0,0,0,.32,1.062l1.64.885a1.1,1.1,0,0,1,.532,1.133l-.279,2.8a1.1,1.1,0,0,1-.747,1.008l-1.781.544a.779.779,0,0,0-.523.975l.618,2.044a.78.78,0,0,0,.979.523l1.781-.537a1.117,1.117,0,0,1,1.174.431l1.789,2.176a1.126,1.126,0,0,1,.187,1.244l-.882,1.639a.793.793,0,0,0,.324,1.062l1.881,1.006a.788.788,0,0,0,1.06-.319l.883-1.642a1.108,1.108,0,0,1,1.135-.533l2.8.284a1.113,1.113,0,0,1,1.013.748l.537,1.775a.781.781,0,0,0,.977.523l2.046-.618a.789.789,0,0,0,.528-.972l-.54-1.781a1.109,1.109,0,0,1,.426-1.18L189,182.885a1.123,1.123,0,0,1,1.244-.191l1.639.88a.779.779,0,0,0,1.062-.319l1.01-1.885a.785.785,0,0,0-.324-1.06l-1.64-.882a1.1,1.1,0,0,1-.528-1.128l.284-2.81a1.113,1.113,0,0,1,.741-1.008l1.782-.537A.785.785,0,0,0,194.792,172.97Zm-7.831,5.862a6.246,6.246,0,1,1-2.553-8.455A6.246,6.246,0,0,1,186.96,178.832Z" transform="translate(-168.08 -162.512)" fill="#e2e2e2"/>
        </g>
      </g>
    </g>
    <g id="Group_84" data-name="Group 84" transform="translate(325.154 261.21)">
      <path id="Path_30" data-name="Path 30" d="M267.014,192.848H210.548a1.8,1.8,0,1,1,0-3.592h56.466a1.8,1.8,0,1,1,0,3.592Z" transform="translate(-208.752 -189.256)" fill="#920061"/>
    </g>
    <g id="Group_85" data-name="Group 85" transform="translate(175.452 286.861)">
      <path id="Path_31" data-name="Path 31" d="M215.333,207.657H124.122a1.8,1.8,0,1,1,0-3.592h91.211a1.8,1.8,0,1,1,0,3.592Z" transform="translate(-122.326 -204.065)" fill="#920061"/>
    </g>
    <g id="Group_86" data-name="Group 86" transform="translate(612.78 335.428)">
      <path id="Path_32" data-name="Path 32" d="M467.81,235.7H376.6a1.8,1.8,0,1,1,0-3.592H467.81a1.8,1.8,0,1,1,0,3.592Z" transform="translate(-374.804 -232.104)" fill="#920061"/>
    </g>
    <g id="Group_87" data-name="Group 87" transform="translate(49.764 523.903)">
      <path id="Path_33" data-name="Path 33" d="M741.642,344.507H51.56a1.8,1.8,0,0,1,0-3.592H741.642a1.8,1.8,0,0,1,0,3.592Z" transform="translate(-49.764 -340.914)" fill="#920061"/>
    </g>
    <g id="Group_92" data-name="Group 92" transform="translate(460.862 242.241)">
      <g id="Group_89" data-name="Group 89">
        <g id="Group_88" data-name="Group 88">
          <path id="Path_34" data-name="Path 34" d="M314.748,178.3a14.491,14.491,0,0,0-12.5,21.82l.239.4-14.668,14.666a2.57,2.57,0,0,0-.722,1.668,3.184,3.184,0,0,0,1.107,2.228,3.506,3.506,0,0,0,2.451,1.187,2.965,2.965,0,0,0,1.727-.587l14.631-14.638.405.241a14.489,14.489,0,1,0,7.327-26.987Zm0,24.673a10.186,10.186,0,1,1,0-20.372h0a10.186,10.186,0,1,1,0,20.372Z" transform="translate(-287.099 -178.305)" fill="#e2e2e2"/>
        </g>
      </g>
      <g id="Group_91" data-name="Group 91" transform="translate(22.281 13.921)">
        <g id="Group_90" data-name="Group 90">
          <path id="Path_35" data-name="Path 35" d="M299.962,189.027h10.492v-2.685H299.962Z" transform="translate(-299.962 -186.342)" fill="#ffdef4"/>
        </g>
      </g>
    </g>
    <g id="Group_103" data-name="Group 103" transform="translate(217.69 382.224)">
      <g id="Group_93" data-name="Group 93">
        <path id="Path_36" data-name="Path 36" d="M148.507,401.064a1.8,1.8,0,0,1-1.8-1.8V260.916a1.8,1.8,0,0,1,3.594,0V399.268A1.8,1.8,0,0,1,148.507,401.064Z" transform="translate(-146.711 -259.12)" fill="#920061"/>
      </g>
      <g id="Group_94" data-name="Group 94" transform="translate(32.152)">
        <path id="Path_37" data-name="Path 37" d="M167.069,401.064a1.8,1.8,0,0,1-1.8-1.8V260.916a1.8,1.8,0,1,1,3.592,0V399.268A1.8,1.8,0,0,1,167.069,401.064Z" transform="translate(-165.273 -259.12)" fill="#920061"/>
      </g>
      <g id="Group_95" data-name="Group 95" transform="translate(0 9.456)">
        <path id="Path_38" data-name="Path 38" d="M180.659,268.172H148.507a1.8,1.8,0,1,1,0-3.592h32.152a1.8,1.8,0,0,1,0,3.592Z" transform="translate(-146.711 -264.579)" fill="#920061"/>
      </g>
      <g id="Group_96" data-name="Group 96" transform="translate(0 25.262)">
        <path id="Path_39" data-name="Path 39" d="M180.659,277.3H148.507a1.8,1.8,0,1,1,0-3.592h32.152a1.8,1.8,0,0,1,0,3.592Z" transform="translate(-146.711 -273.704)" fill="#920061"/>
      </g>
      <g id="Group_97" data-name="Group 97" transform="translate(0 41.067)">
        <path id="Path_40" data-name="Path 40" d="M180.659,286.422H148.507a1.8,1.8,0,1,1,0-3.592h32.152a1.8,1.8,0,0,1,0,3.592Z" transform="translate(-146.711 -282.829)" fill="#920061"/>
      </g>
      <g id="Group_98" data-name="Group 98" transform="translate(0 56.873)">
        <path id="Path_41" data-name="Path 41" d="M180.659,295.546H148.507a1.8,1.8,0,1,1,0-3.592h32.152a1.8,1.8,0,0,1,0,3.592Z" transform="translate(-146.711 -291.954)" fill="#920061"/>
      </g>
      <g id="Group_99" data-name="Group 99" transform="translate(0 72.679)">
        <path id="Path_42" data-name="Path 42" d="M180.659,304.671H148.507a1.8,1.8,0,1,1,0-3.592h32.152a1.8,1.8,0,0,1,0,3.592Z" transform="translate(-146.711 -301.079)" fill="#920061"/>
      </g>
      <g id="Group_100" data-name="Group 100" transform="translate(0 88.485)">
        <path id="Path_43" data-name="Path 43" d="M180.659,313.8H148.507a1.8,1.8,0,1,1,0-3.592h32.152a1.8,1.8,0,0,1,0,3.592Z" transform="translate(-146.711 -310.204)" fill="#920061"/>
      </g>
      <g id="Group_101" data-name="Group 101" transform="translate(0 104.291)">
        <path id="Path_44" data-name="Path 44" d="M180.659,322.921H148.507a1.8,1.8,0,1,1,0-3.592h32.152a1.8,1.8,0,0,1,0,3.592Z" transform="translate(-146.711 -319.329)" fill="#920061"/>
      </g>
      <g id="Group_102" data-name="Group 102" transform="translate(0 120.095)">
        <path id="Path_45" data-name="Path 45" d="M180.659,332.045H148.507a1.8,1.8,0,1,1,0-3.592h32.152a1.8,1.8,0,0,1,0,3.592Z" transform="translate(-146.711 -328.453)" fill="#920061"/>
      </g>
    </g>
    <g id="Group_106" data-name="Group 106" transform="translate(170.408 380.145)">
      <g id="Group_104" data-name="Group 104" transform="translate(3.495)">
        <path id="Path_46" data-name="Path 46" d="M123.228,268.507a1.8,1.8,0,0,1-1.8-1.8v-6.994a1.8,1.8,0,1,1,3.592,0v6.994A1.8,1.8,0,0,1,123.228,268.507Z" transform="translate(-121.432 -257.92)" fill="#920061"/>
      </g>
      <g id="Group_105" data-name="Group 105" transform="translate(0 3.497)">
        <path id="Path_47" data-name="Path 47" d="M128.2,263.531H121.21a1.8,1.8,0,0,1,0-3.592H128.2a1.8,1.8,0,1,1,0,3.592Z" transform="translate(-119.414 -259.939)" fill="#920061"/>
      </g>
    </g>
    <g id="Group_109" data-name="Group 109" transform="translate(331.958 129.962)">
      <g id="Group_107" data-name="Group 107" transform="translate(3.497)">
        <path id="Path_48" data-name="Path 48" d="M216.5,124.071a1.8,1.8,0,0,1-1.8-1.8v-7a1.8,1.8,0,0,1,3.592,0v7A1.8,1.8,0,0,1,216.5,124.071Z" transform="translate(-214.699 -113.484)" fill="#920061"/>
      </g>
      <g id="Group_108" data-name="Group 108" transform="translate(0 3.495)">
        <path id="Path_49" data-name="Path 49" d="M221.471,119.1h-6.993a1.8,1.8,0,1,1,0-3.594h6.993a1.8,1.8,0,0,1,0,3.594Z" transform="translate(-212.68 -115.502)" fill="#920061"/>
      </g>
    </g>
    <g id="Group_112" data-name="Group 112" transform="translate(385.359 494.767)">
      <g id="Group_110" data-name="Group 110" transform="translate(0 2.402)">
        <path id="Path_50" data-name="Path 50" d="M252.032,330.99a1.8,1.8,0,0,1-.494-.069L244.813,329a1.8,1.8,0,0,1,.986-3.456l6.726,1.919a1.8,1.8,0,0,1-.492,3.525Z" transform="translate(-243.51 -325.48)" fill="#920061"/>
      </g>
      <g id="Group_111" data-name="Group 111" transform="translate(2.402)">
        <path id="Path_51" data-name="Path 51" d="M246.694,334.408a1.864,1.864,0,0,1-.494-.068,1.8,1.8,0,0,1-1.235-2.221l1.921-6.726a1.8,1.8,0,1,1,3.454.986l-1.921,6.726A1.794,1.794,0,0,1,246.694,334.408Z" transform="translate(-244.896 -324.093)" fill="#920061"/>
      </g>
    </g>
    <g id="Group_115" data-name="Group 115" transform="translate(350.024 283.497)">
      <g id="Group_113" data-name="Group 113" transform="translate(0 2.403)">
        <path id="Path_52" data-name="Path 52" d="M231.632,209.025a1.817,1.817,0,0,1-.494-.069l-6.724-1.921a1.8,1.8,0,1,1,.986-3.454l6.726,1.919a1.8,1.8,0,0,1-.494,3.525Z" transform="translate(-223.11 -203.511)" fill="#920061"/>
      </g>
      <g id="Group_114" data-name="Group 114" transform="translate(2.402)">
        <path id="Path_53" data-name="Path 53" d="M226.295,212.443a1.745,1.745,0,0,1-.494-.071,1.8,1.8,0,0,1-1.235-2.221l1.921-6.724a1.8,1.8,0,1,1,3.454.986l-1.921,6.726A1.8,1.8,0,0,1,226.295,212.443Z" transform="translate(-224.497 -202.123)" fill="#920061"/>
      </g>
    </g>
    <g id="Group_153" data-name="Group 153" transform="translate(318.544 189.92)">
      <g id="Group_117" data-name="Group 117" transform="translate(0 0)">
        <g id="Group_116" data-name="Group 116">
          <circle id="Ellipse_1" data-name="Ellipse 1" cx="24.955" cy="24.955" r="24.955" transform="translate(0 35.291) rotate(-45)" fill="#e2e2e2"/>
        </g>
      </g>
      <g id="Group_123" data-name="Group 123" transform="translate(15.874 15.875)">
        <g id="Group_119" data-name="Group 119" transform="translate(0.724 0.723)">
          <g id="Group_118" data-name="Group 118">
            <circle id="Ellipse_2" data-name="Ellipse 2" cx="18.694" cy="18.694" r="18.694" fill="#fff"/>
          </g>
        </g>
        <g id="Group_122" data-name="Group 122">
          <g id="Group_121" data-name="Group 121">
            <g id="Group_120" data-name="Group 120">
              <path id="Path_54" data-name="Path 54" d="M233.517,196.1a19.417,19.417,0,1,1,19.417-19.417A19.44,19.44,0,0,1,233.517,196.1Zm0-37.388a17.971,17.971,0,1,0,17.971,17.971A17.991,17.991,0,0,0,233.517,158.71Z" transform="translate(-214.1 -157.264)" fill="#920061"/>
            </g>
          </g>
        </g>
      </g>
      <g id="Group_128" data-name="Group 128" transform="translate(34.569 25.05)">
        <g id="Group_125" data-name="Group 125">
          <g id="Group_124" data-name="Group 124">
            <path id="Path_55" data-name="Path 55" d="M225.615,173.525a.722.722,0,0,1-.722-.722v-9.518a.723.723,0,1,1,1.446,0V172.8A.723.723,0,0,1,225.615,173.525Z" transform="translate(-224.893 -162.561)" fill="#920061"/>
          </g>
        </g>
        <g id="Group_127" data-name="Group 127" transform="translate(0 9.518)">
          <g id="Group_126" data-name="Group 126">
            <path id="Path_56" data-name="Path 56" d="M236.767,169.5H225.615a.723.723,0,0,1,0-1.446h11.152a.723.723,0,1,1,0,1.446Z" transform="translate(-224.893 -168.056)" fill="#920061"/>
          </g>
        </g>
      </g>
      <g id="Group_145" data-name="Group 145" transform="translate(17.97 17.97)">
        <g id="Group_130" data-name="Group 130" transform="translate(16.583)">
          <g id="Group_129" data-name="Group 129">
            <path id="Path_57" data-name="Path 57" d="M226.36,159.212a.738.738,0,1,1-.738-.738A.737.737,0,0,1,226.36,159.212Z" transform="translate(-224.884 -158.474)" fill="#920061"/>
          </g>
        </g>
        <g id="Group_132" data-name="Group 132" transform="translate(28.31 4.857)">
          <g id="Group_131" data-name="Group 131">
            <circle id="Ellipse_3" data-name="Ellipse 3" cx="0.738" cy="0.738" r="0.738" fill="#920061"/>
          </g>
        </g>
        <g id="Group_134" data-name="Group 134" transform="translate(33.167 16.584)">
          <g id="Group_133" data-name="Group 133">
            <path id="Path_58" data-name="Path 58" d="M235.2,169.524a.738.738,0,1,1,.738-.738A.738.738,0,0,1,235.2,169.524Z" transform="translate(-234.458 -168.048)" fill="#920061"/>
          </g>
        </g>
        <g id="Group_136" data-name="Group 136" transform="translate(28.31 28.309)">
          <g id="Group_135" data-name="Group 135">
            <circle id="Ellipse_4" data-name="Ellipse 4" cx="0.738" cy="0.738" r="0.738" fill="#920061"/>
          </g>
        </g>
        <g id="Group_138" data-name="Group 138" transform="translate(16.583 33.167)">
          <g id="Group_137" data-name="Group 137">
            <path id="Path_59" data-name="Path 59" d="M224.884,178.36a.738.738,0,1,1,.738.738A.737.737,0,0,1,224.884,178.36Z" transform="translate(-224.884 -177.622)" fill="#920061"/>
          </g>
        </g>
        <g id="Group_140" data-name="Group 140" transform="translate(4.858 28.309)">
          <g id="Group_139" data-name="Group 139">
            <path id="Path_60" data-name="Path 60" d="M218.33,175.033a.739.739,0,1,1,0,1.044A.74.74,0,0,1,218.33,175.033Z" transform="translate(-218.115 -174.818)" fill="#920061"/>
          </g>
        </g>
        <g id="Group_142" data-name="Group 142" transform="translate(0 16.583)">
          <g id="Group_141" data-name="Group 141">
            <circle id="Ellipse_5" data-name="Ellipse 5" cx="0.738" cy="0.738" r="0.738" fill="#920061"/>
          </g>
        </g>
        <g id="Group_144" data-name="Group 144" transform="translate(4.858 4.856)">
          <g id="Group_143" data-name="Group 143">
            <path id="Path_61" data-name="Path 61" d="M219.375,161.495a.738.738,0,1,1-1.044,0A.738.738,0,0,1,219.375,161.495Z" transform="translate(-218.115 -161.278)" fill="#920061"/>
          </g>
        </g>
      </g>
      <g id="Group_152" data-name="Group 152" transform="translate(60.594 24.315)">
        <g id="Group_147" data-name="Group 147">
          <g id="Group_146" data-name="Group 146">
            <path id="Path_62" data-name="Path 62" d="M251.12,163.583H240.642a.723.723,0,1,1,0-1.446H251.12a.723.723,0,1,1,0,1.446Z" transform="translate(-239.918 -162.137)" fill="#920061"/>
          </g>
        </g>
        <g id="Group_149" data-name="Group 149" transform="translate(0 20.507)">
          <g id="Group_148" data-name="Group 148">
            <path id="Path_63" data-name="Path 63" d="M251.12,175.422H240.642a.723.723,0,1,1,0-1.446H251.12a.723.723,0,1,1,0,1.446Z" transform="translate(-239.918 -173.976)" fill="#920061"/>
          </g>
        </g>
        <g id="Group_151" data-name="Group 151" transform="translate(3.932 10.256)">
          <g id="Group_150" data-name="Group 150">
            <path id="Path_64" data-name="Path 64" d="M262.483,169.5H242.912a.723.723,0,1,1,0-1.446h19.571a.723.723,0,1,1,0,1.446Z" transform="translate(-242.188 -168.058)" fill="#920061"/>
          </g>
        </g>
      </g>
    </g>
    <g id="Group_162" data-name="Group 162" transform="translate(425.043 494.598)">
      <g id="Group_154" data-name="Group 154">
        <rect id="Rectangle_3" data-name="Rectangle 3" width="11.574" height="11.574" transform="translate(0.899 0.898)" fill="#fff"/>
        <path id="Path_65" data-name="Path 65" d="M279.79,337.366H266.42V324h13.37Zm-11.574-1.8h9.778v-9.778h-9.778Z" transform="translate(-266.42 -323.996)" fill="#920061"/>
      </g>
      <g id="Group_161" data-name="Group 161" transform="translate(15.92 1.995)">
        <g id="Group_156" data-name="Group 156">
          <g id="Group_155" data-name="Group 155">
            <path id="Path_66" data-name="Path 66" d="M286.813,326.6H276.335a.724.724,0,0,1,0-1.448h10.478a.724.724,0,0,1,0,1.448Z" transform="translate(-275.611 -325.148)" fill="#920061"/>
          </g>
        </g>
        <g id="Group_158" data-name="Group 158" transform="translate(0 7.933)">
          <g id="Group_157" data-name="Group 157">
            <path id="Path_67" data-name="Path 67" d="M290.75,331.174H276.588c-.539,0-.977-.324-.977-.724s.438-.722.977-.722H290.75c.54,0,.977.322.977.722S291.29,331.174,290.75,331.174Z" transform="translate(-275.611 -329.728)" fill="#920061"/>
          </g>
        </g>
        <g id="Group_160" data-name="Group 160" transform="translate(0 3.743)">
          <g id="Group_159" data-name="Group 159">
            <path id="Path_68" data-name="Path 68" d="M295.907,328.755H276.335a.723.723,0,1,1,0-1.446h19.572a.723.723,0,0,1,0,1.446Z" transform="translate(-275.611 -327.309)" fill="#920061"/>
          </g>
        </g>
      </g>
    </g>
    <g id="Group_171" data-name="Group 171" transform="translate(147.329 324.753)">
      <g id="Group_163" data-name="Group 163" transform="translate(23.568)">
        <rect id="Rectangle_4" data-name="Rectangle 4" width="11.574" height="11.574" transform="translate(12.472 12.472) rotate(180)" fill="#920061"/>
        <path id="Path_69" data-name="Path 69" d="M133.066,239.311H119.7v-13.37h13.37Zm-11.574-1.8h9.778v-9.778h-9.778Z" transform="translate(-119.696 -225.941)" fill="#920061"/>
      </g>
      <g id="Group_170" data-name="Group 170" transform="translate(0 1.995)">
        <g id="Group_165" data-name="Group 165" transform="translate(9.094)">
          <g id="Group_164" data-name="Group 164">
            <path id="Path_70" data-name="Path 70" d="M112.062,228.539h10.479a.723.723,0,0,0,0-1.446H112.062a.723.723,0,0,0,0,1.446Z" transform="translate(-111.34 -227.093)" fill="#920061"/>
          </g>
        </g>
        <g id="Group_167" data-name="Group 167" transform="translate(4.902 7.931)">
          <g id="Group_166" data-name="Group 166">
            <path id="Path_71" data-name="Path 71" d="M109.9,233.118h14.16c.54,0,.977-.322.977-.722s-.436-.724-.977-.724H109.9c-.54,0-.979.324-.979.724S109.358,233.118,109.9,233.118Z" transform="translate(-108.92 -231.672)" fill="#920061"/>
          </g>
        </g>
        <g id="Group_169" data-name="Group 169" transform="translate(0 3.743)">
          <g id="Group_168" data-name="Group 168">
            <path id="Path_72" data-name="Path 72" d="M106.812,230.7h19.573a.723.723,0,0,0,0-1.446H106.812a.723.723,0,0,0,0,1.446Z" transform="translate(-106.09 -229.254)" fill="#920061"/>
          </g>
        </g>
      </g>
    </g>
    <g id="Group_187" data-name="Group 187" transform="translate(505.08 352.245)">
      <g id="Group_172" data-name="Group 172" transform="translate(19.711 16.897)">
        <rect id="Rectangle_5" data-name="Rectangle 5" width="3.593" height="154.495" fill="#920061"/>
      </g>
      <g id="Group_173" data-name="Group 173" transform="translate(10.454)">
        <rect id="Rectangle_6" data-name="Rectangle 6" width="22.107" height="35.59" rx="6.153" fill="#e2e2e2"/>
      </g>
      <g id="Group_175" data-name="Group 175" transform="translate(35.487 23.944)">
        <g id="Group_174" data-name="Group 174">
          <path id="Path_73" data-name="Path 73" d="M333.6,256.945l3.792.61c.849.135,1.214-1.162.359-1.3l-3.792-.61c-.847-.137-1.212,1.162-.359,1.3Z" transform="translate(-333.114 -255.636)" fill="#920061"/>
        </g>
      </g>
      <g id="Group_177" data-name="Group 177" transform="translate(34.999 15.518)">
        <g id="Group_176" data-name="Group 176">
          <path id="Path_74" data-name="Path 74" d="M333.677,252.274a10.994,10.994,0,0,1,2.978-.1c.863.081.857-1.266,0-1.348a12.307,12.307,0,0,0-3.336.152c-.852.151-.49,1.448.359,1.3Z" transform="translate(-332.832 -250.771)" fill="#920061"/>
        </g>
      </g>
      <g id="Group_179" data-name="Group 179" transform="translate(34.624 7.017)">
        <g id="Group_178" data-name="Group 178">
          <path id="Path_75" data-name="Path 75" d="M333.425,248.367l2.907-1.154c.8-.315.449-1.62-.359-1.3l-2.906,1.154c-.8.315-.449,1.62.358,1.3Z" transform="translate(-332.616 -245.864)" fill="#920061"/>
        </g>
      </g>
      <g id="Group_181" data-name="Group 181" transform="translate(1.553 24.476)">
        <g id="Group_180" data-name="Group 180">
          <path id="Path_76" data-name="Path 76" d="M314.37,257.973a15.358,15.358,0,0,0,2.907-.691c.816-.281.466-1.581-.358-1.3a15.363,15.363,0,0,1-2.907.691c-.856.12-.492,1.417.359,1.3Z" transform="translate(-313.523 -255.943)" fill="#920061"/>
        </g>
      </g>
      <g id="Group_183" data-name="Group 183" transform="translate(0 15.583)">
        <g id="Group_182" data-name="Group 182">
          <path id="Path_77" data-name="Path 77" d="M313.277,252.157a14.845,14.845,0,0,1,3.657.559.674.674,0,0,0,.357-1.3,16.391,16.391,0,0,0-4.013-.608.674.674,0,0,0,0,1.348Z" transform="translate(-312.627 -250.809)" fill="#920061"/>
        </g>
      </g>
      <g id="Group_185" data-name="Group 185" transform="translate(1.358 4.512)">
        <g id="Group_184" data-name="Group 184">
          <path id="Path_78" data-name="Path 78" d="M313.879,245.754l2.91.927c.828.265,1.183-1.036.359-1.3q-1.455-.462-2.91-.928c-.828-.263-1.183,1.038-.359,1.3Z" transform="translate(-313.411 -244.418)" fill="#920061"/>
        </g>
      </g>
      <g id="Group_186" data-name="Group 186" transform="translate(13.124 152.836)">
        <path id="Path_79" data-name="Path 79" d="M320.2,350.7l2.4-20.65h11.676L336.97,350.4Z" transform="translate(-320.204 -330.048)" fill="#920061"/>
      </g>
    </g>
    <g id="Group_256" data-name="Group 256" transform="translate(139.001 414.598)">
      <g id="Group_201" data-name="Group 201" transform="translate(0 1.914)">
        <g id="Group_190" data-name="Group 190" transform="translate(4.372)">
          <g id="Group_188" data-name="Group 188" transform="translate(0.763 0.767)">
            <path id="Path_80" data-name="Path 80" d="M148.626,288.949c-.53-3.284-2.856-11.756-7.973-9.075-8.28,4.342,1.708,20.82-8.269,23.725-.533-6.568-1.945-11.093-4.911-10.824-6.116.554-4.491,14.784-4.592,17.985s-.258,6.459-.4,9.761c-7.2,1.29-5.775-17.481-10.152-20.077-6.806-4.036-8.252,4.959-8.065,9.116.319,7.071,2.221,15.532,8.862,19.287,2.191,1.239,6.052,2.636,9.059,2.383a94.385,94.385,0,0,0,1.143,16.639.061.061,0,0,0,.116,0l0-.012,4.031.216,0,.075a1.379,1.379,0,0,0,2.756,0c.048-3.412,2.146-20.166,2.4-34.364,3.22.48,7.268-1.019,9.586-2.718C149.083,306.024,149.889,296.752,148.626,288.949Z" transform="translate(-104.247 -279.358)" fill="#6cdd6c"/>
          </g>
          <g id="Group_189" data-name="Group 189">
            <path id="Path_81" data-name="Path 81" d="M129.15,350.569a2.249,2.249,0,0,1-1.162-.315,1.933,1.933,0,0,1-.871-1.126l-2.972-.161-1.083.036-.165-.679a91.91,91.91,0,0,1-1.159-15.974,19.781,19.781,0,0,1-8.668-2.513c-7.084-4.006-8.94-13.043-9.25-19.918-.123-2.766.459-8.487,3.554-10.343,1.571-.942,3.478-.762,5.664.535,2.117,1.254,2.922,5.108,3.857,9.57,1.263,6.042,2.4,10.395,5.17,10.462l.066-1.484c.116-2.565.23-5.106.307-7.6.016-.489-.01-1.24-.043-2.162-.192-5.6-.553-16.029,5.33-16.561a3.224,3.224,0,0,1,2.456.786c1.64,1.381,2.69,4.573,3.2,9.742,3.715-1.656,3.523-5.964,3.3-10.9-.222-4.989-.452-10.147,3.935-12.447a4.241,4.241,0,0,1,4.041-.177c3.657,1.829,4.911,8.993,5.042,9.8h0c.968,5.984,1.382,16.914-6.717,22.857a15.933,15.933,0,0,1-9.289,2.941c-.21,9.27-1.159,19.481-1.795,26.3-.319,3.421-.57,6.12-.585,7.23a2.041,2.041,0,0,1-1.051,1.8A2.315,2.315,0,0,1,129.15,350.569Zm-4.852-3.125,4.285.232-.021.745c-.01.355.118.466.215.523a.783.783,0,0,0,.745,0,.509.509,0,0,0,.265-.485c.016-1.169.258-3.762.592-7.35.651-7,1.637-17.59,1.8-27.018l.016-.871.863.128c2.972.443,6.866-1,9.021-2.577,7.443-5.46,7.024-15.738,6.111-21.38h0c-.4-2.472-1.795-7.469-4.216-8.68a2.757,2.757,0,0,0-2.647.161c-3.527,1.85-3.329,6.308-3.118,11.027.23,5.19.492,11.072-5.292,12.757l-.9.261-.076-.935c-.532-6.546-1.788-8.884-2.747-9.69a1.71,1.71,0,0,0-1.332-.435c-4.443.4-4.1,10.253-3.939,14.987.033.963.059,1.751.043,2.262-.078,2.5-.192,5.046-.308,7.618l-.123,2.763-.6.107c-4.926.882-6.312-5.749-7.537-11.6-.788-3.764-1.6-7.658-3.14-8.569-1.668-.987-3.047-1.171-4.1-.54-2.281,1.368-2.936,6.225-2.813,8.964.293,6.49,2,15,8.475,18.655,2.234,1.263,5.888,2.512,8.617,2.288l.833-.069-.005.835A94.637,94.637,0,0,0,124.3,347.444Z" transform="translate(-103.806 -278.915)" fill="#50aa50"/>
          </g>
        </g>
        <g id="Group_193" data-name="Group 193" transform="translate(2.61 70.296)">
          <g id="Group_192" data-name="Group 192">
            <g id="Group_191" data-name="Group 191">
              <path id="Path_82" data-name="Path 82" d="M141.773,356.658H112.529a3.078,3.078,0,0,1-3.1-2.538l-6.639-34.083,2.754-.539,6.641,34.085a.311.311,0,0,0,.345.267h29.244a.311.311,0,0,0,.345-.265L148.7,319.5l2.756.532-6.587,34.087A3.077,3.077,0,0,1,141.773,356.658Z" transform="translate(-102.789 -319.498)" fill="#920061"/>
            </g>
          </g>
        </g>
        <g id="Group_200" data-name="Group 200" transform="translate(0 58.462)">
          <g id="Group_196" data-name="Group 196" transform="translate(0.639 0.639)">
            <g id="Group_194" data-name="Group 194" transform="translate(0.764 0.766)">
              <path id="Path_83" data-name="Path 83" d="M103.6,313.477h48.54c.828,0,1.505.913,1.505,2.034v7.379c0,1.121-.677,2.035-1.505,2.035H103.6c-.826,0-1.5-.915-1.5-2.035V315.51C102.092,314.39,102.769,313.477,103.6,313.477Z" transform="translate(-102.092 -313.477)" fill="#e2e2e2"/>
            </g>
            <g id="Group_195" data-name="Group 195">
              <path id="Path_84" data-name="Path 84" d="M152.458,326.012h-48.54a2.578,2.578,0,0,1-2.267-2.8v-7.381a2.578,2.578,0,0,1,2.267-2.8h48.54a2.579,2.579,0,0,1,2.269,2.8v7.381A2.578,2.578,0,0,1,152.458,326.012Zm-48.54-11.448c-.348,0-.74.544-.74,1.27v7.381c0,.726.391,1.268.74,1.268h48.54c.35,0,.741-.542.741-1.268v-7.381c0-.726-.391-1.27-.741-1.27Z" transform="translate(-101.651 -313.035)" fill="#405b91"/>
            </g>
          </g>
          <g id="Group_199" data-name="Group 199">
            <g id="Group_197" data-name="Group 197" transform="translate(0.764 0.766)">
              <path id="Path_85" data-name="Path 85" d="M152.406,325.834h-48.54a2.455,2.455,0,0,1-2.143-2.673v-7.381a2.455,2.455,0,0,1,2.143-2.673h48.54a2.455,2.455,0,0,1,2.144,2.673v7.381A2.455,2.455,0,0,1,152.406,325.834Zm-48.54-11.448c-.409,0-.864.572-.864,1.394v7.381c0,.821.456,1.394.864,1.394h48.54c.411,0,.866-.573.866-1.394v-7.381c0-.823-.456-1.394-.866-1.394Z" transform="translate(-101.723 -313.108)" fill="#b6d0fb"/>
            </g>
            <g id="Group_198" data-name="Group 198">
              <path id="Path_86" data-name="Path 86" d="M152.728,326.922h-48.54a3.209,3.209,0,0,1-2.907-3.437v-7.379a3.211,3.211,0,0,1,2.907-3.44h48.54a3.211,3.211,0,0,1,2.908,3.44v7.379A3.209,3.209,0,0,1,152.728,326.922Zm-48.451-11.448a.979.979,0,0,0-.189.632v7.379a.881.881,0,0,0,.217.655l48.424-.026c-.057-.012.1-.239.1-.629v-7.379a.9.9,0,0,0-.215-.658Z" transform="translate(-101.282 -312.666)" fill="#920061"/>
            </g>
          </g>
        </g>
      </g>
      <g id="Group_203" data-name="Group 203" transform="translate(7.56 31.449)">
        <g id="Group_202" data-name="Group 202">
          <path id="Path_87" data-name="Path 87" d="M106.287,297.32l2.394.3c.857.109.85-1.238,0-1.346l-2.394-.307c-.857-.109-.85,1.238,0,1.348Z" transform="translate(-105.646 -295.966)" fill="#50aa50"/>
        </g>
      </g>
      <g id="Group_205" data-name="Group 205" transform="translate(11.723 21.557)">
        <g id="Group_204" data-name="Group 204">
          <path id="Path_88" data-name="Path 88" d="M108.05,290.906v1.2a.674.674,0,0,0,1.348,0v-1.2a.674.674,0,0,0-1.348,0Z" transform="translate(-108.05 -290.255)" fill="#50aa50"/>
        </g>
      </g>
      <g id="Group_207" data-name="Group 207" transform="translate(15.372 32.331)">
        <g id="Group_206" data-name="Group 206">
          <path id="Path_89" data-name="Path 89" d="M111.167,298.706l1.753-.975c.759-.423.08-1.587-.679-1.164l-1.753.977c-.759.421-.08,1.585.679,1.162Z" transform="translate(-110.157 -296.476)" fill="#50aa50"/>
        </g>
      </g>
      <g id="Group_209" data-name="Group 209" transform="translate(8.485 47.303)">
        <g id="Group_208" data-name="Group 208">
          <path id="Path_90" data-name="Path 90" d="M107.158,307.878l2.111-1.476c.7-.492.033-1.661-.681-1.162l-2.11,1.476c-.7.494-.033,1.661.679,1.162Z" transform="translate(-106.181 -305.119)" fill="#50aa50"/>
        </g>
      </g>
      <g id="Group_211" data-name="Group 211" transform="translate(3.961 37.129)">
        <g id="Group_210" data-name="Group 210">
          <path id="Path_91" data-name="Path 91" d="M104.021,300.594l1.5.589c.807.317,1.157-.986.359-1.3l-1.5-.589c-.807-.317-1.157.986-.357,1.3Z" transform="translate(-103.569 -299.246)" fill="#50aa50"/>
        </g>
      </g>
      <g id="Group_213" data-name="Group 213" transform="translate(13.546 43.384)">
        <g id="Group_212" data-name="Group 212">
          <path id="Path_92" data-name="Path 92" d="M109.75,304.206a.951.951,0,0,1,.708.412c.553.67,1.5-.288.953-.953a2.242,2.242,0,0,0-1.661-.807c-.866-.062-.861,1.285,0,1.348Z" transform="translate(-109.102 -302.857)" fill="#50aa50"/>
        </g>
      </g>
      <g id="Group_215" data-name="Group 215" transform="translate(17.085 50.584)">
        <g id="Group_214" data-name="Group 214">
          <path id="Path_93" data-name="Path 93" d="M111.209,307.5a4.578,4.578,0,0,0,.329,2.624c.336.8,1.5.111,1.164-.679a2.849,2.849,0,0,1-.194-1.587c.132-.849-1.166-1.214-1.3-.359Z" transform="translate(-111.145 -307.013)" fill="#50aa50"/>
        </g>
      </g>
      <g id="Group_217" data-name="Group 217" transform="translate(23.71 49.995)">
        <g id="Group_216" data-name="Group 216">
          <path id="Path_94" data-name="Path 94" d="M115.448,308l1.193.319a.674.674,0,0,0,.357-1.3l-1.192-.319a.674.674,0,0,0-.359,1.3Z" transform="translate(-114.97 -306.673)" fill="#50aa50"/>
        </g>
      </g>
      <g id="Group_219" data-name="Group 219" transform="translate(28.478 37.43)">
        <g id="Group_218" data-name="Group 218">
          <path id="Path_95" data-name="Path 95" d="M117.733,300.065a2.24,2.24,0,0,0,.805,1.959c.66.556,1.618-.391.953-.953a1.033,1.033,0,0,1-.411-1.006c.078-.864-1.27-.857-1.348,0Z" transform="translate(-117.723 -299.419)" fill="#50aa50"/>
        </g>
      </g>
      <g id="Group_221" data-name="Group 221" transform="translate(26.382 28.158)">
        <g id="Group_220" data-name="Group 220">
          <path id="Path_96" data-name="Path 96" d="M116.91,294.357a2.087,2.087,0,0,0-.348,1.718c.151.852,1.45.492,1.3-.359a.739.739,0,0,1,.213-.679c.513-.7-.655-1.372-1.164-.681Z" transform="translate(-116.513 -294.067)" fill="#50aa50"/>
        </g>
      </g>
      <g id="Group_223" data-name="Group 223" transform="translate(34.177 31.736)">
        <g id="Group_222" data-name="Group 222">
          <path id="Path_97" data-name="Path 97" d="M121.013,296.783v1.2a.674.674,0,0,0,1.348,0v-1.2a.674.674,0,0,0-1.348,0Z" transform="translate(-121.013 -296.132)" fill="#50aa50"/>
        </g>
      </g>
      <g id="Group_225" data-name="Group 225" transform="translate(21.331 28.996)">
        <g id="Group_224" data-name="Group 224">
          <path id="Path_98" data-name="Path 98" d="M113.9,295.828l.9.6c.724.481,1.4-.684.681-1.164q-.45-.3-.9-.6c-.724-.482-1.4.684-.679,1.164Z" transform="translate(-113.597 -294.55)" fill="#50aa50"/>
        </g>
      </g>
      <g id="Group_227" data-name="Group 227" transform="translate(23.72 17.921)">
        <g id="Group_226" data-name="Group 226">
          <path id="Path_99" data-name="Path 99" d="M115.147,289.332a1.659,1.659,0,0,1,.419,1.015c.068.859,1.415.866,1.348,0a3.24,3.24,0,0,0-.814-1.969c-.565-.658-1.514.3-.953.954Z" transform="translate(-114.976 -288.156)" fill="#50aa50"/>
        </g>
      </g>
      <g id="Group_229" data-name="Group 229" transform="translate(27.292 14.371)">
        <g id="Group_228" data-name="Group 228">
          <path id="Path_100" data-name="Path 100" d="M117.038,286.758v1.8a.674.674,0,0,0,1.348,0v-1.8a.674.674,0,0,0-1.348,0Z" transform="translate(-117.038 -286.107)" fill="#50aa50"/>
        </g>
      </g>
      <g id="Group_231" data-name="Group 231" transform="translate(35.431 21.778)">
        <g id="Group_230" data-name="Group 230">
          <path id="Path_101" data-name="Path 101" d="M121.928,291.542q.291.307.584.613c.6.629,1.55-.324.953-.953l-.584-.613c-.6-.629-1.552.324-.953.953Z" transform="translate(-121.737 -290.383)" fill="#50aa50"/>
        </g>
      </g>
      <g id="Group_233" data-name="Group 233" transform="translate(36.309 13.559)">
        <g id="Group_232" data-name="Group 232">
          <path id="Path_102" data-name="Path 102" d="M122.892,286.987l1.791.1c.866.05.864-1.3,0-1.348l-1.791-.1c-.866-.049-.863,1.3,0,1.348Z" transform="translate(-122.244 -285.638)" fill="#50aa50"/>
        </g>
      </g>
      <g id="Group_235" data-name="Group 235" transform="translate(38.667 2.97)">
        <g id="Group_234" data-name="Group 234">
          <path id="Path_103" data-name="Path 103" d="M123.8,280.677q.6.6,1.2,1.2a.674.674,0,0,0,.953-.953q-.6-.6-1.2-1.2a.675.675,0,0,0-.953.954Z" transform="translate(-123.605 -279.525)" fill="#50aa50"/>
        </g>
      </g>
      <g id="Group_237" data-name="Group 237" transform="translate(44.057)">
        <g id="Group_236" data-name="Group 236">
          <path id="Path_104" data-name="Path 104" d="M126.717,278.461v2.1a.674.674,0,0,0,1.348,0v-2.1a.674.674,0,0,0-1.348,0Z" transform="translate(-126.717 -277.81)" fill="#50aa50"/>
        </g>
      </g>
      <g id="Group_239" data-name="Group 239" transform="translate(45.223 11.369)">
        <g id="Group_238" data-name="Group 238">
          <path id="Path_105" data-name="Path 105" d="M128.667,286.264l.594-.9c.478-.726-.688-1.4-1.164-.679-.2.3-.395.6-.594.9-.478.726.688,1.4,1.164.681Z" transform="translate(-127.39 -284.374)" fill="#50aa50"/>
        </g>
      </g>
      <g id="Group_241" data-name="Group 241" transform="translate(41.121 24.558)">
        <g id="Group_240" data-name="Group 240">
          <path id="Path_106" data-name="Path 106" d="M125.833,293.919c.5-.194,1-.39,1.5-.584.8-.312.45-1.614-.359-1.3l-1.5.584c-.8.312-.452,1.614.359,1.3Z" transform="translate(-125.022 -291.988)" fill="#50aa50"/>
        </g>
      </g>
      <g id="Group_243" data-name="Group 243" transform="translate(47.053 22.985)">
        <g id="Group_242" data-name="Group 242">
          <path id="Path_107" data-name="Path 107" d="M129.289,292.705l1.495-.31c.849-.175.488-1.474-.359-1.3l-1.495.31c-.849.177-.488,1.476.359,1.3Z" transform="translate(-128.446 -291.08)" fill="#50aa50"/>
        </g>
      </g>
      <g id="Group_245" data-name="Group 245" transform="translate(44.057 30.239)">
        <g id="Group_244" data-name="Group 244">
          <path id="Path_108" data-name="Path 108" d="M126.717,295.919v.3a.674.674,0,0,0,1.348,0v-.3a.674.674,0,0,0-1.348,0Z" transform="translate(-126.717 -295.268)" fill="#50aa50"/>
        </g>
      </g>
      <g id="Group_247" data-name="Group 247" transform="translate(31.501 49.641)">
        <g id="Group_246" data-name="Group 246">
          <path id="Path_109" data-name="Path 109" d="M120.455,308.347l.9-.6c.717-.478.043-1.646-.681-1.164l-.9.6c-.717.478-.043,1.646.681,1.164Z" transform="translate(-119.468 -306.469)" fill="#50aa50"/>
        </g>
      </g>
      <g id="Group_249" data-name="Group 249" transform="translate(30.544 54.183)">
        <g id="Group_248" data-name="Group 248">
          <path id="Path_110" data-name="Path 110" d="M120.073,311.393a3.732,3.732,0,0,1,1.834-.982c.844-.2.487-1.5-.359-1.3a5.118,5.118,0,0,0-2.428,1.328c-.627.6.327,1.552.953.953Z" transform="translate(-118.916 -309.091)" fill="#50aa50"/>
        </g>
      </g>
      <g id="Group_251" data-name="Group 251" transform="translate(26.074 56.274)">
        <g id="Group_250" data-name="Group 250">
          <path id="Path_111" data-name="Path 111" d="M116.415,311.318l.3.6c.393.774,1.557.092,1.164-.679-.1-.2-.2-.4-.3-.6-.393-.774-1.555-.092-1.162.679Z" transform="translate(-116.335 -310.298)" fill="#50aa50"/>
        </g>
      </g>
      <g id="Group_253" data-name="Group 253" transform="translate(20.684 57.497)">
        <g id="Group_252" data-name="Group 252">
          <path id="Path_112" data-name="Path 112" d="M113.562,312.251a3.36,3.36,0,0,0,2.326.322c.849-.172.49-1.471-.359-1.3a1.823,1.823,0,0,1-1.289-.187c-.767-.4-1.45.762-.679,1.164Z" transform="translate(-113.223 -311.004)" fill="#50aa50"/>
        </g>
      </g>
      <g id="Group_255" data-name="Group 255" transform="translate(31.52 44.274)">
        <g id="Group_254" data-name="Group 254">
          <path id="Path_113" data-name="Path 113" d="M120.12,305.06l2.69-.336c.849-.106.859-1.455,0-1.348l-2.69.338c-.849.106-.859,1.453,0,1.346Z" transform="translate(-119.479 -303.371)" fill="#50aa50"/>
        </g>
      </g>
    </g>
    <g id="Group_263" data-name="Group 263" transform="translate(283.715 343.711)">
      <g id="Group_258" data-name="Group 258" transform="translate(4.219 14.706)">
        <g id="Group_257" data-name="Group 257">
          <path id="Path_114" data-name="Path 114" d="M191.153,288.482q21.752-19.666,43.5-39.328c2.148-1.942-1.036-5.11-3.177-3.175l-43.5,39.327c-2.148,1.942,1.036,5.112,3.175,3.177Z" transform="translate(-187.264 -245.376)" fill="#c4c4c4"/>
        </g>
      </g>
      <g id="Group_260" data-name="Group 260" transform="translate(53.382 34.764)">
        <g id="Group_259" data-name="Group 259">
          <path id="Path_115" data-name="Path 115" d="M219.536,300.062l43.5-39.327c2.148-1.943-1.036-5.112-3.177-3.177l-43.5,39.328c-2.148,1.942,1.036,5.11,3.175,3.175Z" transform="translate(-215.647 -256.956)" fill="#c4c4c4"/>
        </g>
      </g>
      <g id="Group_262" data-name="Group 262">
        <g id="Group_261" data-name="Group 261">
          <path id="Path_116" data-name="Path 116" d="M188.678,329.615l91.176-88.906c2.072-2.021-1.105-5.2-3.177-3.177Q231.092,281.988,185.5,326.44c-2.073,2.021,1.1,5.195,3.175,3.175Z" transform="translate(-184.828 -236.886)" fill="#c4c4c4"/>
        </g>
      </g>
    </g>
    <g id="Group_270" data-name="Group 270" transform="translate(417.978 159.979)">
      <g id="Group_265" data-name="Group 265" transform="translate(6.987)">
        <g id="Group_264" data-name="Group 264">
          <rect id="Rectangle_7" data-name="Rectangle 7" width="1.955" height="125.473" fill="#920061"/>
        </g>
      </g>
      <g id="Group_267" data-name="Group 267" transform="translate(0 117.509)">
        <g id="Group_266" data-name="Group 266">
          <path id="Path_117" data-name="Path 117" d="M278.27,206.617a7.964,7.964,0,1,1-7.964-7.963A7.964,7.964,0,0,1,278.27,206.617Z" transform="translate(-262.341 -198.654)" fill="#920061"/>
        </g>
      </g>
      <g id="Group_269" data-name="Group 269" transform="translate(1.536 131.344)">
        <g id="Group_268" data-name="Group 268">
          <path id="Path_118" data-name="Path 118" d="M269.767,227.491a6.576,6.576,0,0,1-6.539-7.138,1.054,1.054,0,0,1,2.108,0,5.062,5.062,0,0,0,1.29,3.726,4.991,4.991,0,0,0,3.14,1.3,5.389,5.389,0,1,0,0-10.777,1.053,1.053,0,0,1-1.053-1.055V207.7a1.054,1.054,0,1,1,2.108,0v4.874a7.5,7.5,0,0,1-1.055,14.921Z" transform="translate(-263.228 -206.641)" fill="#920061"/>
        </g>
      </g>
    </g>
    <g id="Group_280" data-name="Group 280" transform="translate(348.147 308.784)">
      <g id="Group_272" data-name="Group 272" transform="translate(35.27 0.001)">
        <g id="Group_271" data-name="Group 271">
          <path id="Path_119" data-name="Path 119" d="M243.2,225.013a.977.977,0,0,1,.024-1.93l43.113-6.35a.977.977,0,1,1,.284,1.933l-43.111,6.35A.93.93,0,0,1,243.2,225.013Z" transform="translate(-242.389 -216.723)" fill="#920061"/>
        </g>
      </g>
      <g id="Group_274" data-name="Group 274" transform="translate(78.382)">
        <g id="Group_273" data-name="Group 273">
          <path id="Path_120" data-name="Path 120" d="M307.73,239.361a1,1,0,0,1-.286-.1l-39.642-20.7a.977.977,0,1,1,.9-1.732l39.644,20.7a.977.977,0,0,1-.62,1.829Z" transform="translate(-267.278 -216.722)" fill="#920061"/>
        </g>
      </g>
      <g id="Group_275" data-name="Group 275" transform="translate(0 4.487)">
        <rect id="Rectangle_8" data-name="Rectangle 8" width="127.499" height="82.038" rx="5.869" transform="translate(14.045 0) rotate(9.857)" fill="#fff"/>
        <path id="Path_121" data-name="Path 121" d="M338.94,321.539a11.92,11.92,0,0,1-2.044-.177L232.058,303.145a11.888,11.888,0,0,1-9.679-13.753l10.434-60.05a11.906,11.906,0,0,1,13.75-9.679L351.4,237.879a11.894,11.894,0,0,1,9.683,13.752l-10.434,60.05A11.917,11.917,0,0,1,338.94,321.539Zm-94.417-99.357a9.21,9.21,0,0,0-9.056,7.623l-10.434,60.05a9.2,9.2,0,0,0,7.486,10.635L337.36,318.7a9.2,9.2,0,0,0,10.634-7.485l10.434-60.05a9.2,9.2,0,0,0-7.485-10.635L246.1,222.316A9.253,9.253,0,0,0,244.522,222.181Z" transform="translate(-221.9 -219.185)" fill="#920061"/>
      </g>
      <g id="Group_276" data-name="Group 276" transform="translate(6.288 11.403)">
        <rect id="Rectangle_9" data-name="Rectangle 9" width="116.342" height="69.337" rx="3.75" transform="matrix(0.985, 0.171, -0.171, 0.985, 12.166, 0.295)" fill="#e2e2e2"/>
        <path id="Path_122" data-name="Path 122" d="M335.11,312.128a8.3,8.3,0,0,1-1.4-.121L232.359,294.394a8.082,8.082,0,0,1-6.58-9.347l9.563-55.041a8.086,8.086,0,0,1,9.348-6.58l101.349,17.611a8.092,8.092,0,0,1,6.582,9.348l-9.563,55.039a8.09,8.09,0,0,1-7.949,6.7Zm-.941-2.777a5.388,5.388,0,0,0,6.232-4.386l9.565-55.042a5.394,5.394,0,0,0-4.386-6.23L244.229,226.08A5.405,5.405,0,0,0,238,230.467l-9.563,55.041a5.393,5.393,0,0,0,4.388,6.232Z" transform="translate(-225.657 -223.305)" fill="#920061"/>
      </g>
      <g id="Group_277" data-name="Group 277" transform="translate(64.549 64.788)">
        <path id="Path_123" data-name="Path 123" d="M260.42,279.132l26.348-24.148,14.582,31.26Z" transform="translate(-258.466 -253.496)" fill="#fff"/>
        <path id="Path_124" data-name="Path 124" d="M303.718,288.052l-44.426-7.718,28.6-26.209ZM263.2,279.189l37.432,6.506L287.3,257.1Z" transform="translate(-259.292 -254.125)" fill="#920061"/>
      </g>
      <g id="Group_278" data-name="Group 278" transform="translate(12.451 37.07)">
        <path id="Path_125" data-name="Path 125" d="M230.343,281.795l46.712-42.811,25.852,55.42Z" transform="translate(-228.389 -237.493)" fill="#fff"/>
        <path id="Path_126" data-name="Path 126" d="M305.275,296.212,229.215,283l48.961-44.873Zm-72.154-14.359,69.069,12L277.583,241.1Z" transform="translate(-229.215 -238.123)" fill="#920061"/>
      </g>
      <g id="Group_279" data-name="Group 279" transform="translate(102.793 38.126)">
        <path id="Path_127" data-name="Path 127" d="M294.859,246.9a6.532,6.532,0,1,1-5.318-7.554A6.532,6.532,0,0,1,294.859,246.9Z" transform="translate(-280.992 -238.353)" fill="#fff"/>
        <path id="Path_128" data-name="Path 128" d="M288.817,253.6a7.573,7.573,0,0,1-1.289-.111,7.415,7.415,0,1,1,1.289.111Zm-.026-13.067a5.634,5.634,0,1,0,5.562,6.6h0a5.644,5.644,0,0,0-5.562-6.6Z" transform="translate(-281.371 -238.733)" fill="#920061"/>
      </g>
    </g>
    <g id="Group_282" data-name="Group 282" transform="translate(408.799 155.758)">
      <g id="Group_281" data-name="Group 281">
        <rect id="Rectangle_10" data-name="Rectangle 10" width="97.913" height="10.775" fill="#e2e2e2"/>
      </g>
    </g>
    <g id="Group_431" data-name="Group 431" transform="translate(445.687 90.978)">
      <g id="Group_409" data-name="Group 409">
        <g id="Group_394" data-name="Group 394">
          <g id="Group_355" data-name="Group 355" transform="translate(113.609)">
            <g id="Group_284" data-name="Group 284" transform="translate(0 0.142)">
              <g id="Group_283" data-name="Group 283">
                <path id="Path_129" data-name="Path 129" d="M376.432,378.459H343.927V91.06h32.505Zm-29.291-3.217h26.076V94.275H347.142Z" transform="translate(-343.927 -91.06)" fill="#920061"/>
              </g>
            </g>
            <g id="Group_291" data-name="Group 291" transform="translate(0.407)">
              <g id="Group_286" data-name="Group 286">
                <g id="Group_285" data-name="Group 285">
                  <path id="Path_130" data-name="Path 130" d="M375.853,122.668H344.162V90.978h31.691Zm-28.433-3.258H372.6V94.236H347.42Z" transform="translate(-344.162 -90.978)" fill="#920061"/>
                </g>
              </g>
              <g id="Group_288" data-name="Group 288" transform="translate(0.478 0.477)">
                <g id="Group_287" data-name="Group 287" transform="translate(0 0)">
                  <rect id="Rectangle_11" data-name="Rectangle 11" width="3.258" height="40.209" transform="translate(0 2.304) rotate(-45)" fill="#920061"/>
                </g>
              </g>
              <g id="Group_290" data-name="Group 290" transform="translate(0.478 0.477)">
                <g id="Group_289" data-name="Group 289" transform="translate(0 0)">
                  <rect id="Rectangle_12" data-name="Rectangle 12" width="40.209" height="3.258" transform="translate(0 28.432) rotate(-45)" fill="#920061"/>
                </g>
              </g>
            </g>
            <g id="Group_298" data-name="Group 298" transform="translate(0.407 28.431)">
              <g id="Group_293" data-name="Group 293">
                <g id="Group_292" data-name="Group 292">
                  <path id="Path_131" data-name="Path 131" d="M375.853,139.082H344.162v-31.69h31.691Zm-28.433-3.258H372.6V110.65H347.42Z" transform="translate(-344.162 -107.392)" fill="#920061"/>
                </g>
              </g>
              <g id="Group_295" data-name="Group 295" transform="translate(0.478 0.477)">
                <g id="Group_294" data-name="Group 294" transform="translate(0 0)">
                  <rect id="Rectangle_13" data-name="Rectangle 13" width="3.258" height="40.209" transform="translate(0 2.304) rotate(-45)" fill="#920061"/>
                </g>
              </g>
              <g id="Group_297" data-name="Group 297" transform="translate(0.478 0.477)">
                <g id="Group_296" data-name="Group 296" transform="translate(0 0)">
                  <rect id="Rectangle_14" data-name="Rectangle 14" width="40.209" height="3.258" transform="translate(0 28.432) rotate(-45)" fill="#920061"/>
                </g>
              </g>
            </g>
            <g id="Group_305" data-name="Group 305" transform="translate(0.407 56.863)">
              <g id="Group_300" data-name="Group 300">
                <g id="Group_299" data-name="Group 299">
                  <path id="Path_132" data-name="Path 132" d="M375.853,155.5H344.162v-31.69h31.691Zm-28.433-3.256H372.6V127.064H347.42Z" transform="translate(-344.162 -123.806)" fill="#920061"/>
                </g>
              </g>
              <g id="Group_302" data-name="Group 302" transform="translate(0.478 0.477)">
                <g id="Group_301" data-name="Group 301" transform="translate(0 0)">
                  <rect id="Rectangle_15" data-name="Rectangle 15" width="3.258" height="40.209" transform="translate(0 2.304) rotate(-45)" fill="#920061"/>
                </g>
              </g>
              <g id="Group_304" data-name="Group 304" transform="translate(0.478 0.477)">
                <g id="Group_303" data-name="Group 303" transform="translate(0 0)">
                  <rect id="Rectangle_16" data-name="Rectangle 16" width="40.209" height="3.258" transform="matrix(0.707, -0.707, 0.707, 0.707, 0, 28.433)" fill="#920061"/>
                </g>
              </g>
            </g>
            <g id="Group_312" data-name="Group 312" transform="translate(0.407 85.296)">
              <g id="Group_307" data-name="Group 307">
                <g id="Group_306" data-name="Group 306">
                  <path id="Path_133" data-name="Path 133" d="M375.853,171.911H344.162v-31.69h31.691Zm-28.433-3.258H372.6V143.477H347.42Z" transform="translate(-344.162 -140.221)" fill="#920061"/>
                </g>
              </g>
              <g id="Group_309" data-name="Group 309" transform="translate(0.478 0.476)">
                <g id="Group_308" data-name="Group 308" transform="translate(0 0)">
                  <rect id="Rectangle_17" data-name="Rectangle 17" width="3.258" height="40.209" transform="translate(0 2.304) rotate(-45)" fill="#920061"/>
                </g>
              </g>
              <g id="Group_311" data-name="Group 311" transform="translate(0.478 0.476)">
                <g id="Group_310" data-name="Group 310" transform="translate(0 0)">
                  <rect id="Rectangle_18" data-name="Rectangle 18" width="40.209" height="3.258" transform="translate(0 28.432) rotate(-45)" fill="#920061"/>
                </g>
              </g>
            </g>
            <g id="Group_319" data-name="Group 319" transform="translate(0.407 113.727)">
              <g id="Group_314" data-name="Group 314">
                <g id="Group_313" data-name="Group 313">
                  <path id="Path_134" data-name="Path 134" d="M375.853,188.325H344.162v-31.69h31.691Zm-28.433-3.258H372.6V159.893H347.42Z" transform="translate(-344.162 -156.635)" fill="#920061"/>
                </g>
              </g>
              <g id="Group_316" data-name="Group 316" transform="translate(0.478 0.477)">
                <g id="Group_315" data-name="Group 315" transform="translate(0 0)">
                  <rect id="Rectangle_19" data-name="Rectangle 19" width="3.258" height="40.209" transform="translate(0 2.304) rotate(-45)" fill="#920061"/>
                </g>
              </g>
              <g id="Group_318" data-name="Group 318" transform="translate(0.478 0.476)">
                <g id="Group_317" data-name="Group 317" transform="translate(0 0)">
                  <rect id="Rectangle_20" data-name="Rectangle 20" width="40.209" height="3.258" transform="matrix(0.707, -0.707, 0.707, 0.707, 0, 28.433)" fill="#920061"/>
                </g>
              </g>
            </g>
            <g id="Group_326" data-name="Group 326" transform="translate(0.407 142.159)">
              <g id="Group_321" data-name="Group 321">
                <g id="Group_320" data-name="Group 320">
                  <path id="Path_135" data-name="Path 135" d="M375.853,204.739H344.162v-31.69h31.691Zm-28.433-3.256H372.6V176.307H347.42Z" transform="translate(-344.162 -173.049)" fill="#920061"/>
                </g>
              </g>
              <g id="Group_323" data-name="Group 323" transform="translate(0.478 0.477)">
                <g id="Group_322" data-name="Group 322" transform="translate(0 0)">
                  <rect id="Rectangle_21" data-name="Rectangle 21" width="3.258" height="40.209" transform="translate(0 2.304) rotate(-45)" fill="#920061"/>
                </g>
              </g>
              <g id="Group_325" data-name="Group 325" transform="translate(0.478 0.477)">
                <g id="Group_324" data-name="Group 324" transform="translate(0 0)">
                  <rect id="Rectangle_22" data-name="Rectangle 22" width="40.209" height="3.258" transform="matrix(0.707, -0.707, 0.707, 0.707, 0, 28.433)" fill="#920061"/>
                </g>
              </g>
            </g>
            <g id="Group_333" data-name="Group 333" transform="translate(0.407 170.592)">
              <g id="Group_328" data-name="Group 328">
                <g id="Group_327" data-name="Group 327">
                  <path id="Path_136" data-name="Path 136" d="M375.853,221.152H344.162V189.464h31.691ZM347.42,217.9H372.6V192.72H347.42Z" transform="translate(-344.162 -189.464)" fill="#920061"/>
                </g>
              </g>
              <g id="Group_330" data-name="Group 330" transform="translate(0.478 0.476)">
                <g id="Group_329" data-name="Group 329" transform="translate(0 0)">
                  <rect id="Rectangle_23" data-name="Rectangle 23" width="3.258" height="40.209" transform="translate(0 2.304) rotate(-45)" fill="#920061"/>
                </g>
              </g>
              <g id="Group_332" data-name="Group 332" transform="translate(0.478 0.476)">
                <g id="Group_331" data-name="Group 331" transform="translate(0 0)">
                  <rect id="Rectangle_24" data-name="Rectangle 24" width="40.209" height="3.258" transform="matrix(0.707, -0.707, 0.707, 0.707, 0, 28.433)" fill="#920061"/>
                </g>
              </g>
            </g>
            <g id="Group_340" data-name="Group 340" transform="translate(0.407 199.023)">
              <g id="Group_335" data-name="Group 335">
                <g id="Group_334" data-name="Group 334">
                  <path id="Path_137" data-name="Path 137" d="M375.853,237.568H344.162v-31.69h31.691Zm-28.433-3.258H372.6V209.134H347.42Z" transform="translate(-344.162 -205.878)" fill="#920061"/>
                </g>
              </g>
              <g id="Group_337" data-name="Group 337" transform="translate(0.478 0.477)">
                <g id="Group_336" data-name="Group 336" transform="translate(0 0)">
                  <rect id="Rectangle_25" data-name="Rectangle 25" width="3.258" height="40.209" transform="translate(0 2.304) rotate(-45)" fill="#920061"/>
                </g>
              </g>
              <g id="Group_339" data-name="Group 339" transform="translate(0.478 0.476)">
                <g id="Group_338" data-name="Group 338" transform="translate(0 0)">
                  <rect id="Rectangle_26" data-name="Rectangle 26" width="40.209" height="3.258" transform="matrix(0.707, -0.707, 0.707, 0.707, 0, 28.433)" fill="#920061"/>
                </g>
              </g>
            </g>
            <g id="Group_347" data-name="Group 347" transform="translate(0.407 227.455)">
              <g id="Group_342" data-name="Group 342">
                <g id="Group_341" data-name="Group 341">
                  <path id="Path_138" data-name="Path 138" d="M375.853,253.982H344.162v-31.69h31.691Zm-28.433-3.258H372.6V225.55H347.42Z" transform="translate(-344.162 -222.292)" fill="#920061"/>
                </g>
              </g>
              <g id="Group_344" data-name="Group 344" transform="translate(0.478 0.477)">
                <g id="Group_343" data-name="Group 343" transform="translate(0 0)">
                  <rect id="Rectangle_27" data-name="Rectangle 27" width="3.258" height="40.209" transform="translate(0 2.304) rotate(-45)" fill="#920061"/>
                </g>
              </g>
              <g id="Group_346" data-name="Group 346" transform="translate(0.478 0.477)">
                <g id="Group_345" data-name="Group 345" transform="translate(0 0)">
                  <rect id="Rectangle_28" data-name="Rectangle 28" width="40.209" height="3.258" transform="matrix(0.707, -0.707, 0.707, 0.707, 0, 28.433)" fill="#920061"/>
                </g>
              </g>
            </g>
            <g id="Group_354" data-name="Group 354" transform="translate(0.407 255.886)">
              <g id="Group_349" data-name="Group 349">
                <g id="Group_348" data-name="Group 348">
                  <path id="Path_139" data-name="Path 139" d="M375.853,270.4H344.162v-31.69h31.691Zm-28.433-3.256H372.6V241.964H347.42Z" transform="translate(-344.162 -238.706)" fill="#920061"/>
                </g>
              </g>
              <g id="Group_351" data-name="Group 351" transform="translate(0.478 0.477)">
                <g id="Group_350" data-name="Group 350" transform="translate(0 0)">
                  <rect id="Rectangle_29" data-name="Rectangle 29" width="3.258" height="40.209" transform="translate(0 2.304) rotate(-44.999)" fill="#920061"/>
                </g>
              </g>
              <g id="Group_353" data-name="Group 353" transform="translate(0.475 0.48)">
                <g id="Group_352" data-name="Group 352" transform="translate(0 0)">
                  <rect id="Rectangle_30" data-name="Rectangle 30" width="40.209" height="3.258" transform="translate(0 28.427) rotate(-44.989)" fill="#920061"/>
                </g>
              </g>
            </g>
          </g>
          <g id="Group_393" data-name="Group 393" transform="translate(0 28.004)">
            <g id="Group_362" data-name="Group 362" transform="translate(170.591)">
              <g id="Group_357" data-name="Group 357">
                <g id="Group_356" data-name="Group 356">
                  <path id="Path_140" data-name="Path 140" d="M408.514,138.835h-31.69v-31.69h31.69Zm-28.433-3.258h25.175V110.4H380.08Z" transform="translate(-376.824 -107.145)" fill="#920061"/>
                </g>
              </g>
              <g id="Group_359" data-name="Group 359" transform="translate(0.479 0.474)">
                <g id="Group_358" data-name="Group 358" transform="translate(0 0)">
                  <rect id="Rectangle_31" data-name="Rectangle 31" width="40.209" height="3.258" transform="translate(0 28.437) rotate(-45.011)" fill="#920061"/>
                </g>
              </g>
              <g id="Group_361" data-name="Group 361" transform="translate(0.477 0.476)">
                <g id="Group_360" data-name="Group 360" transform="translate(0 0)">
                  <rect id="Rectangle_32" data-name="Rectangle 32" width="3.258" height="40.209" transform="translate(0 2.304) rotate(-45)" fill="#920061"/>
                </g>
              </g>
            </g>
            <g id="Group_369" data-name="Group 369" transform="translate(142.16)">
              <g id="Group_364" data-name="Group 364">
                <g id="Group_363" data-name="Group 363">
                  <path id="Path_141" data-name="Path 141" d="M392.1,138.835H360.41v-31.69H392.1Zm-28.431-3.258h25.175V110.4H363.666Z" transform="translate(-360.41 -107.145)" fill="#920061"/>
                </g>
              </g>
              <g id="Group_366" data-name="Group 366" transform="translate(0.479 0.474)">
                <g id="Group_365" data-name="Group 365" transform="translate(0 0)">
                  <rect id="Rectangle_33" data-name="Rectangle 33" width="40.209" height="3.258" transform="translate(0 28.437) rotate(-45.011)" fill="#920061"/>
                </g>
              </g>
              <g id="Group_368" data-name="Group 368" transform="translate(0.476 0.476)">
                <g id="Group_367" data-name="Group 367" transform="translate(0 0)">
                  <rect id="Rectangle_34" data-name="Rectangle 34" width="3.258" height="40.209" transform="translate(0 2.304) rotate(-45)" fill="#920061"/>
                </g>
              </g>
            </g>
            <g id="Group_371" data-name="Group 371" transform="translate(113.727)">
              <g id="Group_370" data-name="Group 370">
                <path id="Path_142" data-name="Path 142" d="M375.685,138.835h-31.69v-31.69h31.69Zm-28.431-3.258h25.175V110.4H347.253Z" transform="translate(-343.995 -107.145)" fill="#920061"/>
              </g>
            </g>
            <g id="Group_378" data-name="Group 378" transform="translate(85.296)">
              <g id="Group_373" data-name="Group 373">
                <g id="Group_372" data-name="Group 372">
                  <path id="Path_143" data-name="Path 143" d="M359.271,138.835h-31.69v-31.69h31.69Zm-28.431-3.258h25.173V110.4H330.839Z" transform="translate(-327.581 -107.145)" fill="#920061"/>
                </g>
              </g>
              <g id="Group_375" data-name="Group 375" transform="translate(0.477 0.477)">
                <g id="Group_374" data-name="Group 374" transform="translate(0 0)">
                  <rect id="Rectangle_35" data-name="Rectangle 35" width="40.209" height="3.257" transform="translate(0 28.432) rotate(-45)" fill="#920061"/>
                </g>
              </g>
              <g id="Group_377" data-name="Group 377" transform="translate(0.477 0.476)">
                <g id="Group_376" data-name="Group 376" transform="translate(0 0)">
                  <rect id="Rectangle_36" data-name="Rectangle 36" width="3.257" height="40.209" transform="translate(0 2.303) rotate(-45)" fill="#920061"/>
                </g>
              </g>
            </g>
            <g id="Group_385" data-name="Group 385" transform="translate(56.864)">
              <g id="Group_380" data-name="Group 380">
                <g id="Group_379" data-name="Group 379">
                  <path id="Path_144" data-name="Path 144" d="M342.857,138.835h-31.69v-31.69h31.69Zm-28.433-3.258H339.6V110.4H314.423Z" transform="translate(-311.167 -107.145)" fill="#920061"/>
                </g>
              </g>
              <g id="Group_382" data-name="Group 382" transform="translate(0.476 0.476)">
                <g id="Group_381" data-name="Group 381" transform="translate(0 0)">
                  <rect id="Rectangle_37" data-name="Rectangle 37" width="40.209" height="3.257" transform="translate(0 28.432) rotate(-45)" fill="#920061"/>
                </g>
              </g>
              <g id="Group_384" data-name="Group 384" transform="translate(0.476 0.476)">
                <g id="Group_383" data-name="Group 383" transform="translate(0 0)">
                  <rect id="Rectangle_38" data-name="Rectangle 38" width="3.257" height="40.209" transform="translate(0 2.303) rotate(-45)" fill="#920061"/>
                </g>
              </g>
            </g>
            <g id="Group_392" data-name="Group 392">
              <g id="Group_387" data-name="Group 387" transform="translate(28.431)">
                <g id="Group_386" data-name="Group 386">
                  <path id="Path_145" data-name="Path 145" d="M326.441,138.835H294.752v-31.69h31.689Zm-28.431-3.258h25.175V110.4H298.01Z" transform="translate(-294.752 -107.145)" fill="#920061"/>
                </g>
              </g>
              <g id="Group_389" data-name="Group 389" transform="translate(0 0.476)">
                <g id="Group_388" data-name="Group 388">
                  <path id="Path_146" data-name="Path 146" d="M308.4,138.633H279.966a1.63,1.63,0,0,1-1.15-2.782l28.431-28.431,2.3,2.3L283.9,135.375h23.826l27.955-27.955,2.3,2.3-28.433,28.431A1.621,1.621,0,0,1,308.4,138.633Z" transform="translate(-278.338 -107.42)" fill="#920061"/>
                </g>
              </g>
              <g id="Group_391" data-name="Group 391" transform="translate(28.909 0.476)">
                <g id="Group_390" data-name="Group 390" transform="translate(0 0)">
                  <rect id="Rectangle_39" data-name="Rectangle 39" width="3.257" height="40.209" transform="translate(0 2.303) rotate(-45)" fill="#920061"/>
                </g>
              </g>
            </g>
          </g>
        </g>
        <g id="Group_401" data-name="Group 401" transform="translate(113.609 287.541)">
          <g id="Group_396" data-name="Group 396">
            <g id="Group_395" data-name="Group 395">
              <path id="Path_147" data-name="Path 147" d="M376.5,288.669H343.927V256.981H376.5Zm-29.226-3.256h25.878V260.237H347.275Z" transform="translate(-343.927 -256.981)" fill="#920061"/>
            </g>
          </g>
          <g id="Group_398" data-name="Group 398" transform="translate(0.491 0.477)">
            <g id="Group_397" data-name="Group 397">
              <path id="Path_148" data-name="Path 148" d="M373.436,287.992,344.21,259.56l2.368-2.3L375.8,285.687Z" transform="translate(-344.21 -257.256)" fill="#920061"/>
            </g>
          </g>
          <g id="Group_400" data-name="Group 400" transform="translate(0.491 0.477)">
            <g id="Group_399" data-name="Group 399">
              <path id="Path_149" data-name="Path 149" d="M346.578,287.992l-2.368-2.3,29.225-28.431,2.368,2.3Z" transform="translate(-344.21 -257.256)" fill="#920061"/>
            </g>
          </g>
        </g>
        <g id="Group_408" data-name="Group 408" transform="translate(113.609 401.268)">
          <g id="Group_403" data-name="Group 403">
            <g id="Group_402" data-name="Group 402">
              <path id="Path_150" data-name="Path 150" d="M376.5,354.326H343.927V322.638H376.5Zm-29.226-3.256h25.878V325.894H347.275Z" transform="translate(-343.927 -322.638)" fill="#920061"/>
            </g>
          </g>
          <g id="Group_405" data-name="Group 405" transform="translate(0.491 0.476)">
            <g id="Group_404" data-name="Group 404">
              <path id="Path_151" data-name="Path 151" d="M373.436,353.648,344.21,325.216l2.368-2.3L375.8,351.344Z" transform="translate(-344.21 -322.913)" fill="#920061"/>
            </g>
          </g>
          <g id="Group_407" data-name="Group 407" transform="translate(0.491 0.476)">
            <g id="Group_406" data-name="Group 406">
              <path id="Path_152" data-name="Path 152" d="M346.578,353.648l-2.368-2.3,29.225-28.431,2.368,2.3Z" transform="translate(-344.21 -322.913)" fill="#920061"/>
            </g>
          </g>
        </g>
      </g>
      <g id="Group_416" data-name="Group 416" transform="translate(113.609 313.277)">
        <g id="Group_411" data-name="Group 411">
          <g id="Group_410" data-name="Group 410">
            <path id="Path_153" data-name="Path 153" d="M376.5,303.529H343.927v-31.69H376.5Zm-29.226-3.256h25.878V275.1H347.275Z" transform="translate(-343.927 -271.839)" fill="#920061"/>
          </g>
        </g>
        <g id="Group_413" data-name="Group 413" transform="translate(0.491 0.478)">
          <g id="Group_412" data-name="Group 412">
            <path id="Path_154" data-name="Path 154" d="M373.436,302.85,344.21,274.418l2.368-2.3L375.8,300.546Z" transform="translate(-344.21 -272.115)" fill="#920061"/>
          </g>
        </g>
        <g id="Group_415" data-name="Group 415" transform="translate(0.491 0.478)">
          <g id="Group_414" data-name="Group 414">
            <path id="Path_155" data-name="Path 155" d="M346.578,302.85l-2.368-2.3,29.225-28.431,2.368,2.3Z" transform="translate(-344.21 -272.115)" fill="#920061"/>
          </g>
        </g>
      </g>
      <g id="Group_423" data-name="Group 423" transform="translate(113.609 341.71)">
        <g id="Group_418" data-name="Group 418">
          <g id="Group_417" data-name="Group 417">
            <path id="Path_156" data-name="Path 156" d="M376.5,319.942H343.927V288.254H376.5Zm-29.226-3.256h25.878V291.51H347.275Z" transform="translate(-343.927 -288.254)" fill="#920061"/>
          </g>
        </g>
        <g id="Group_420" data-name="Group 420" transform="translate(0.491 0.476)">
          <g id="Group_419" data-name="Group 419">
            <path id="Path_157" data-name="Path 157" d="M373.436,319.264,344.21,290.832l2.368-2.3L375.8,316.96Z" transform="translate(-344.21 -288.529)" fill="#920061"/>
          </g>
        </g>
        <g id="Group_422" data-name="Group 422" transform="translate(0.491 0.476)">
          <g id="Group_421" data-name="Group 421">
            <path id="Path_158" data-name="Path 158" d="M346.578,319.264l-2.368-2.3,29.225-28.431,2.368,2.3Z" transform="translate(-344.21 -288.529)" fill="#920061"/>
          </g>
        </g>
      </g>
      <g id="Group_430" data-name="Group 430" transform="translate(113.609 370.142)">
        <g id="Group_425" data-name="Group 425">
          <g id="Group_424" data-name="Group 424">
            <path id="Path_159" data-name="Path 159" d="M376.5,336.356H343.927V304.668H376.5ZM347.275,333.1h25.878V307.924H347.275Z" transform="translate(-343.927 -304.668)" fill="#920061"/>
          </g>
        </g>
        <g id="Group_427" data-name="Group 427" transform="translate(0.491 0.477)">
          <g id="Group_426" data-name="Group 426">
            <path id="Path_160" data-name="Path 160" d="M373.436,335.679,344.21,307.246l2.368-2.3L375.8,333.374Z" transform="translate(-344.21 -304.943)" fill="#920061"/>
          </g>
        </g>
        <g id="Group_429" data-name="Group 429" transform="translate(0.491 0.477)">
          <g id="Group_428" data-name="Group 428">
            <path id="Path_161" data-name="Path 161" d="M346.578,335.679l-2.368-2.3,29.225-28.431,2.368,2.3Z" transform="translate(-344.21 -304.943)" fill="#920061"/>
          </g>
        </g>
      </g>
    </g>
    <g id="Group_435" data-name="Group 435" transform="translate(225.738 258.031)">
      <path id="Path_162" data-name="Path 162" d="M152.86,188.976" transform="translate(-150.257 -186.283)" fill="#920061"/>
      <g id="Group_434" data-name="Group 434">
        <path id="Path_163" data-name="Path 163" d="M153.96,192.81c3.468,0,3.475-5.389,0-5.389s-3.473,5.389,0,5.389Z" transform="translate(-151.357 -187.421)" fill="#920061"/>
      </g>
    </g>
    <g id="Group_437" data-name="Group 437" transform="translate(517.947 201.745)">
      <path id="Path_164" data-name="Path 164" d="M321.558,156.481" transform="translate(-318.955 -153.788)" fill="#405b91"/>
      <g id="Group_436" data-name="Group 436" transform="translate(0)">
        <path id="Path_165" data-name="Path 165" d="M322.658,160.315c3.468,0,3.475-5.389,0-5.389s-3.473,5.389,0,5.389Z" transform="translate(-320.055 -154.926)" fill="#920061"/>
      </g>
    </g>
    <g id="Group_439" data-name="Group 439" transform="translate(638.81 394.555)">
      <path id="Path_166" data-name="Path 166" d="M391.388,267.8h1.2" transform="translate(-388.692 -265.1)" fill="#405b91"/>
      <g id="Group_438" data-name="Group 438" transform="translate(0)">
        <path id="Path_167" data-name="Path 167" d="M392.527,271.628h1.2a2.694,2.694,0,0,0,0-5.389h-1.2a2.694,2.694,0,0,0,0,5.389Z" transform="translate(-389.832 -266.239)" fill="#920061"/>
      </g>
    </g>
    <g id="Group_441" data-name="Group 441" transform="translate(119.154 434.076)">
      <path id="Path_168" data-name="Path 168" d="M91.327,290.61" transform="translate(-88.724 -287.917)" fill="#920061"/>
      <g id="Group_440" data-name="Group 440">
        <path id="Path_169" data-name="Path 169" d="M92.427,294.444c3.468,0,3.473-5.389,0-5.389s-3.473,5.389,0,5.389Z" transform="translate(-89.824 -289.055)" fill="#920061"/>
      </g>
    </g>
    <g id="Group_443" data-name="Group 443" transform="translate(376.634 175.397)">
      <path id="Path_170" data-name="Path 170" d="M239.975,141.271" transform="translate(-237.372 -138.576)" fill="#405b91"/>
      <g id="Group_442" data-name="Group 442">
        <path id="Path_171" data-name="Path 171" d="M241.075,145.105c3.468,0,3.473-5.39,0-5.39s-3.473,5.39,0,5.39Z" transform="translate(-238.472 -139.715)" fill="#920061"/>
      </g>
    </g>
  </g>
</svg>
