<svg xmlns="http://www.w3.org/2000/svg" width="39.824" height="40" viewBox="0 0 39.824 40">
  <g id="Group_43143" data-name="Group 43143" transform="translate(1281.555 -1007.997)">
    <g id="completed-icon">
      <path id="Path_68706" data-name="Path 68706" d="M-1164.331,1048h-18.828c.081-.065.16-.133.242-.2a12.733,12.733,0,0,0,4.748-6.915c.2-.732.316-1.491.476-2.264h.416q4.59,0,9.179,0a1.277,1.277,0,0,0,1.025-.381,1.1,1.1,0,0,0,.213-1.267,1.171,1.171,0,0,0-1.162-.7q-4.628,0-9.257,0h-.466a13.385,13.385,0,0,0-1.344-4.687h4.906c2.044,0,4.088,0,6.132,0a1.19,1.19,0,0,0,1.2-.711,1.171,1.171,0,0,0-1.175-1.634c-4.036,0-8.072-.008-12.108.009a1.038,1.038,0,0,1-.855-.4,12.542,12.542,0,0,0-8.4-4.224c-.769-.069-1.55-.01-2.359-.01v-.439q0-6.23,0-12.459a3.52,3.52,0,0,1,3.716-3.728q8.085,0,16.17,0h.426v.486q0,4.14,0,8.28a1.213,1.213,0,0,0,1.383,1.389h8.773v12.84q0,6.7,0,13.4a3.509,3.509,0,0,1-2.339,3.4C-1163.855,1047.872-1164.1,1047.928-1164.331,1048Zm-12.218-23.437q4.254,0,8.508,0a1.182,1.182,0,0,0,1.189-.719,1.172,1.172,0,0,0-1.187-1.625q-7.513,0-15.026,0c-.677,0-1.353-.006-2.03,0a1.131,1.131,0,0,0-1.1.732,1.17,1.17,0,0,0,1.174,1.607Q-1180.784,1024.565-1176.549,1024.559Z" transform="translate(-80.448)" fill="#fff"/>
      <path id="Path_68707" data-name="Path 68707" d="M-1271.888,1210.456a19.636,19.636,0,0,1-2.681-.637,10.142,10.142,0,0,1-6.918-8.789,10.464,10.464,0,0,1,8.96-11.564,10.577,10.577,0,0,1,11.893,8.69,10.548,10.548,0,0,1-8.925,12.2c-.2.031-.407.067-.611.1Zm-.77-8.809c-.524-.533-.982-1.011-1.453-1.476a1.179,1.179,0,0,0-1.736-.067,1.184,1.184,0,0,0,.092,1.736q1.071,1.082,2.152,2.153a1.184,1.184,0,0,0,1.848.017q2.656-2.643,5.3-5.3a1.181,1.181,0,0,0,.083-1.737,1.18,1.18,0,0,0-1.736.076q-1.744,1.733-3.477,3.477C-1271.932,1200.876-1272.267,1201.239-1272.657,1201.647Z" transform="translate(0 -162.459)" fill="#fff"/>
    </g>
    <path id="Path_68708" data-name="Path 68708" d="M-967.071,1023.348h-6.92v-6.92Z" transform="translate(-275.525 -7.553)" fill="#fff"/>
  </g>
</svg>
