<svg xmlns="http://www.w3.org/2000/svg" width="20.399" height="25.342" viewBox="0 0 20.399 25.342">
  <g id="credit-management-icon" transform="translate(-999 -554.686)">
    <g id="client-management-icon" transform="translate(1990.673 352.013)">
      <path id="Path_77167" data-name="Path 77167" d="M-980.653,434.319l-3.491-.225c-.466-.03-.932-.066-1.4-.087a.506.506,0,0,0-.254.078c-.719.41-1.435.826-2.152,1.239a.662.662,0,0,1-.6.131.662.662,0,0,1-.45-.411l-2.527-4.375a.665.665,0,0,1-.128-.594.665.665,0,0,1,.408-.45l5.165-2.983a3.183,3.183,0,0,1,2.514-.349c1.427.383,2.857.758,4.281,1.152a1.56,1.56,0,0,1,1.151,1.572,1.535,1.535,0,0,1-1.218,1.492,2.161,2.161,0,0,1-.9-.036c-.866-.207-1.723-.452-2.582-.688a.681.681,0,0,0-.742.164.638.638,0,0,0-.133.634.638.638,0,0,0,.49.424c.791.216,1.582.433,2.377.634a4.957,4.957,0,0,0,1,.179,2.859,2.859,0,0,0,2.974-2.521.322.322,0,0,1,.14-.2c.879-.516,1.759-1.03,2.646-1.53a1.581,1.581,0,0,1,1.217-.177,1.581,1.581,0,0,1,.976.75,1.582,1.582,0,0,1,.158,1.221,1.582,1.582,0,0,1-.766.965q-3.092,1.8-6.194,3.578a3.393,3.393,0,0,1-1.965.413Z" transform="translate(0 -207.462)" fill="#fff"/>
    </g>
    <g id="money-bags-of-three-currencies-svgrepo-com" transform="translate(999.111 538.584)">
      <g id="Group_1" data-name="Group 1" transform="translate(0 16.103)">
        <path id="Path_2" data-name="Path 2" d="M33.541,34.738s-8.609,11.3,2.6,11.532c0,0,11,0,.274-12.067A4.13,4.13,0,0,0,33.541,34.738Zm2.771,5.484c1.2.424,1.687.98,1.687,1.89a1.937,1.937,0,0,1-1.8,1.869v1.03H35.21v-.96a4.075,4.075,0,0,1-1.718-.434l.3-1.183a3.571,3.571,0,0,0,1.678.445c.576,0,.97-.222.97-.626,0-.384-.323-.627-1.071-.88-1.081-.364-1.819-.869-1.819-1.849a1.868,1.868,0,0,1,1.708-1.8v-.961h.99v.89a3.633,3.633,0,0,1,1.466.334l-.293,1.142a3.348,3.348,0,0,0-1.456-.344c-.656,0-.869.283-.869.566C35.1,39.687,35.453,39.9,36.312,40.223Z" transform="translate(-25.432 -31.23)" fill="#fff"/>
        <path id="Path_3" data-name="Path 3" d="M46.79,18.539s.747-2.307-.13-2.4a4.324,4.324,0,0,0-3.021.729c.36.46.764.912.764.912l-.98-.753a5.241,5.241,0,0,0-.433.375l1.137,1.65A4.932,4.932,0,0,1,46.79,18.539Z" transform="translate(-35.984 -16.103)" fill="#fff"/>
        <path id="Path_4" data-name="Path 4" d="M4.395,38.045H2.12v-.692A1.5,1.5,0,0,0,3.077,36.1a2.25,2.25,0,0,0-.026-.342H2.214v-.881H2.9a3.673,3.673,0,0,1-.068-.692A1.764,1.764,0,0,1,4.76,32.4a2.194,2.194,0,0,1,1.008.2l-.214.983a1.442,1.442,0,0,0-.717-.154.723.723,0,0,0-.795.8,2.665,2.665,0,0,0,.076.641H5.29V34.9a19.99,19.99,0,0,1,1.25-2.388,27.446,27.446,0,0,0-1.829-2.268,3.225,3.225,0,0,0-2.244.418s-6.7,8.792,1.979,9.009A5.569,5.569,0,0,1,4.395,38.045Z" transform="translate(0 -27.924)" fill="#fff"/>
        <path id="Path_5" data-name="Path 5" d="M23.343,64.778a1.47,1.47,0,0,1-.418.607V65.4h.843a11.419,11.419,0,0,1,.372-1.23h-.72A1.589,1.589,0,0,1,23.343,64.778Z" transform="translate(-19.189 -56.339)" fill="#fff"/>
        <path id="Path_6" data-name="Path 6" d="M12.815,18.007s.584-1.8-.1-1.878a3.378,3.378,0,0,0-2.361.569c.281.36.6.712.6.712l-.766-.588a4.111,4.111,0,0,0-.338.292l.888,1.289A3.858,3.858,0,0,1,12.815,18.007Z" transform="translate(-8.241 -16.103)" fill="#fff"/>
        <path id="Path_7" data-name="Path 7" d="M84.407,30.246a3.227,3.227,0,0,0-2.244.418,16.706,16.706,0,0,0-1.179,1.845q.55.719,1,1.4a2.526,2.526,0,0,1,2.276-1.3,3.227,3.227,0,0,1,1.282.256l-.24.974a2.523,2.523,0,0,0-.948-.205,1.3,1.3,0,0,0-1.051.461,1.413,1.413,0,0,0-.274.555h2.128v.607h-2.37c.044.067.193.322.233.4h2.137v.606H83.308c.059.132.114.261.166.389.065.164.123.324.177.483a1.647,1.647,0,0,0,.744.162,2.376,2.376,0,0,0,.974-.222l.205.948a2.875,2.875,0,0,1-1.333.325q-.148,0-.292-.015a4.787,4.787,0,0,1,.024,1.341l.221.007S92.784,39.674,84.407,30.246Z" transform="translate(-67.787 -27.922)" fill="#fff"/>
        <path id="Path_8" data-name="Path 8" d="M85.894,18.007s.584-1.8-.1-1.878a3.377,3.377,0,0,0-2.361.569c.281.36.6.712.6.712l-.766-.588a4.108,4.108,0,0,0-.338.292l.888,1.289A3.857,3.857,0,0,1,85.894,18.007Z" transform="translate(-69.413 -16.103)" fill="#fff"/>
      </g>
    </g>
  </g>
</svg>
