<svg xmlns="http://www.w3.org/2000/svg" width="133.694" height="88.979" viewBox="0 0 133.694 88.979">
  <g id="faster-report-icon" transform="translate(3746.104 5078.56)">
    <path id="Path_77155" data-name="Path 77155" d="M130.922,42.493v66.913h-11.6V48.738a.892.892,0,0,0-.892-.892H30.106a.892.892,0,0,0-.892.892v60.489l-.156.178H19.4V42.493a5.353,5.353,0,0,1,5.353-5.353H125.569A5.353,5.353,0,0,1,130.922,42.493Z" transform="translate(-3754.44 -5114.5)" fill="#f2f2f2"/>
    <path id="Path_77156" data-name="Path 77156" d="M28.2,108.3V47.632a.892.892,0,0,1,.892-.892h88.325a.892.892,0,0,1,.892.892V108.3" transform="translate(-3753.426 -5113.394)" fill="#fff" stroke="#000" stroke-linecap="round" stroke-miterlimit="10" stroke-width="2.4"/>
    <path id="Path_77157" data-name="Path 77157" d="M141.749,102.832v10.706l-9.814,2.677H20.414L10.6,113.538V102.832a.892.892,0,0,1,.892-.892H140.857a.892.892,0,0,1,.892.892Z" transform="translate(-3755.454 -5107.034)" fill="#d8dadf"/>
    <line id="Line_45" data-name="Line 45" x2="21.189" transform="translate(-3713.75 -5055.658)" fill="none" stroke="#000" stroke-linecap="round" stroke-linejoin="round" stroke-width="2.4"/>
    <line id="Line_46" data-name="Line 46" x2="32.341" transform="translate(-3713.75 -5046.736)" fill="none" stroke="#000" stroke-linecap="round" stroke-linejoin="round" stroke-width="2.4"/>
    <path id="Path_77159" data-name="Path 77159" d="M17.293,109.879,141.349,106.8v-4.015a.446.446,0,0,0-.446-.446H11.538a1.338,1.338,0,0,0-1.338,1.338v9.814l4.461,1.216v-2.152a2.677,2.677,0,0,1,2.632-2.677Z" transform="translate(-3755.5 -5106.988)" fill="#fff"/>
    <path id="Path_77160" data-name="Path 77160" d="M19.4,109.406V42.493a5.353,5.353,0,0,1,5.353-5.353H125.569a5.353,5.353,0,0,1,5.353,5.353v66.913" transform="translate(-3754.44 -5114.5)" fill="none" stroke="#000" stroke-miterlimit="10" stroke-width="2.4"/>
    <path id="Path_77161" data-name="Path 77161" d="M100.842,70.295v34.572H85.14V70.295a2.855,2.855,0,0,1,2.855-2.855H98.032a2.855,2.855,0,0,1,2.81,2.855Z" transform="translate(-3746.866 -5111.009)" fill="#5cc7ff"/>
    <path id="Path_77162" data-name="Path 77162" d="M54.762,89.295V103.57H39.06V89.295a2.855,2.855,0,0,1,2.855-2.855H51.952A2.855,2.855,0,0,1,54.762,89.295Z" transform="translate(-3752.175 -5108.82)" fill="#920061"/>
    <path id="Path_77163" data-name="Path 77163" d="M85.14,104.867V70.295a2.855,2.855,0,0,1,2.855-2.855H98.032a2.855,2.855,0,0,1,2.81,2.855v34.572" transform="translate(-3746.866 -5111.009)" fill="none" stroke="#000" stroke-miterlimit="10" stroke-width="2.4"/>
    <path id="Path_77164" data-name="Path 77164" d="M39.06,103.625V89.295a2.855,2.855,0,0,1,2.855-2.855H51.952a2.855,2.855,0,0,1,2.81,2.855V103.57" transform="translate(-3752.175 -5108.82)" fill="none" stroke="#000" stroke-miterlimit="10" stroke-width="2.4"/>
    <path id="Path_77165" data-name="Path 77165" d="M11.492,101.941a.892.892,0,0,0-.892.892v10.438a.357.357,0,0,0,.268.346l9.5,2.587H131.98l9.546-2.6a.357.357,0,0,0,.268-.346V102.822a.892.892,0,0,0-.892-.892H11.492Z" transform="translate(-3755.454 -5107.035)" fill="none" stroke="#000" stroke-linecap="round" stroke-miterlimit="10" stroke-width="2.5"/>
    <path id="Path_77166" data-name="Path 77166" d="M78.192,78.295v25.65H62.49V78.295a2.855,2.855,0,0,1,2.855-2.855H75.382A2.855,2.855,0,0,1,78.192,78.295Z" transform="translate(-3749.475 -5110.087)" fill="#fcb200"/>
    <path id="Path_77167" data-name="Path 77167" d="M62.1,103.945V78.295a2.855,2.855,0,0,1,2.855-2.855H74.992a2.855,2.855,0,0,1,2.81,2.855v25.65" transform="translate(-3749.52 -5110.087)" fill="none" stroke="#000" stroke-miterlimit="10" stroke-width="2.4"/>
  </g>
</svg>
