<svg xmlns="http://www.w3.org/2000/svg" width="619.165" height="591.098" viewBox="0 0 619.165 591.098">
  <g id="forgot-password" transform="translate(-277.75 -230)">
    <g id="Group_1303" data-name="Group 1303" transform="translate(0.288 -7.308)">
      <path id="Path_68005" data-name="Path 68005" d="M5,0H447.445a5,5,0,0,1,5,5V326.2a5,5,0,0,1-5,5H5a5,5,0,0,1-5-5V5A5,5,0,0,1,5,0Z" transform="translate(362 283.308)" fill="#f2f2f2"/>
      <path id="Rectangle_68" data-name="Rectangle 68" d="M5,0H447.445a5,5,0,0,1,5,5v7.744a0,0,0,0,1,0,0H0a0,0,0,0,1,0,0V5A5,5,0,0,1,5,0Z" transform="translate(361.712 283.308)" fill="#1a1a1a"/>
      <path id="Path_191" data-name="Path 191" d="M94.444,60.842a2.567,2.567,0,1,1-2.567-2.568A2.567,2.567,0,0,1,94.444,60.842Z" transform="translate(279.559 228.838)" fill="#d47172"/>
      <ellipse id="Ellipse_16" data-name="Ellipse 16" cx="2.567" cy="2.567" rx="2.567" ry="2.567" transform="translate(379.352 287.112)" fill="#7696ea"/>
      <ellipse id="Ellipse_17" data-name="Ellipse 17" cx="2.567" cy="2.567" rx="2.567" ry="2.567" transform="translate(389.835 287.112)" fill="#9dd1c9"/>
    </g>
    <g id="Group_178" data-name="Group 178" transform="translate(278 230)">
      <path id="Path_31" data-name="Path 31" d="M169.706,97.6h3.913a14.9,14.9,0,0,0,14.9,14.9v3.913a14.9,14.9,0,0,0-14.9,14.9h-3.913a14.9,14.9,0,0,0-14.9-14.9v-3.913A14.9,14.9,0,0,0,169.706,97.6Z" transform="translate(-127.953 -53.581)" fill="#1a1a1a"/>
      <path id="Path_32" data-name="Path 32" d="M154.855,73.775h1.73a14.9,14.9,0,0,0,14.9,14.9v1.729a14.9,14.9,0,0,0-14.9,14.9h-1.73a14.9,14.9,0,0,0-14.9-14.9V88.678A14.9,14.9,0,0,0,154.855,73.775Z" transform="translate(-139.954 -72.838)" fill="none" stroke="#1a1a1a" stroke-miterlimit="10" stroke-width="0.5"/>
      <path id="Path_33" data-name="Path 33" d="M181.711,73.257h0a14.9,14.9,0,0,0,14.9,14.9h0a14.9,14.9,0,0,0-14.9,14.9h0a14.9,14.9,0,0,0-14.9-14.9h0A14.9,14.9,0,0,0,181.711,73.257Z" transform="translate(-118.249 -73.257)" fill="#920061"/>
    </g>
    <path id="Path_315" data-name="Path 315" d="M426.443,320.675h3.208a21.282,21.282,0,0,0,21.283,21.28v3.208a21.282,21.282,0,0,0-21.283,21.28h-3.208a21.28,21.28,0,0,0-21.28-21.28v-3.208A21.28,21.28,0,0,0,426.443,320.675Z" transform="translate(445.98 204.325)" fill="#920061"/>
    <g id="Group_1305" data-name="Group 1305">
      <path id="Path_531" data-name="Path 531" d="M2020.04,673.588s-3.828-10.576.635-17.84,20.507-17.58,15.98-26.495-16.206-8.587-20.239-3.459-.836,9.684-3.876,10.692-21.059,4.183-21.055-6.389,9.754-26.547,25.158-29.006,36-4.881,43.041,14.7.422,28.465-9.855,35.061-3.681,17.759-7.443,19.889S2020.96,677.044,2020.04,673.588Z" transform="translate(-1483.635 -280.425)" fill="#fcb200"/>
      <path id="Path_532" data-name="Path 532" d="M2099.061,928.817c.125-8.487,4.333-14.309,11.809-15.263s14.192,2.1,17.3,11.476c2.371,7.154-6.371,14.642-13.847,15.6S2098.95,936.353,2099.061,928.817Z" transform="translate(-1563.979 -514.888)" fill="#fcb200"/>
      <g id="Group_305" data-name="Group 305" transform="translate(504.34 320.239)">
        <path id="Path_533" data-name="Path 533" d="M2046.015,620.616c-3.149-8.761-9.186-13.89-18.459-15.677-7.923-1.529-16.9-.329-24.693.914a26.6,26.6,0,0,0-2.77.6c-13.991,3.83-22.471,18.671-22.473,28.511a6.456,6.456,0,0,0,2.706,5.546c2.769,2,7.138,2.278,10.318,2.159a35.258,35.258,0,0,0,8.164-1.22,1.982,1.982,0,0,0,1.134-.861,5.867,5.867,0,0,0,.489-2.693,11.122,11.122,0,0,1,2.3-7.171,9.667,9.667,0,0,1,5.384-3.2,13.529,13.529,0,0,1,4.465-.3,12.63,12.63,0,0,1,10.217,6.941c3.093,6.093-3.572,12.895-9.452,18.894a49.625,49.625,0,0,0-6.523,7.5c-4.4,7.166-.739,17.659-.645,17.924a1.542,1.542,0,0,0,.99.967,8.244,8.244,0,0,0,3.023.43c5.756,0,15.889-2.724,18.481-4.192a1.994,1.994,0,0,0,.172-.109c1.293-.894,1.243-2.944,1.177-5.508-.109-4.3-.258-10.194,6.1-14.274,6.1-3.914,9.632-7.835,11.462-12.713C2049.817,637.115,2049.305,629.767,2046.015,620.616Zm1.374,22.4c-1.812,4.835-5.321,8.723-11.381,12.611-6.452,4.144-6.3,10.1-6.192,14.452.066,2.6.119,4.663-1.246,5.435-.243.137-.534.281-.868.428-3.66,1.618-12.414,3.734-17.512,3.731a8.122,8.122,0,0,1-2.944-.41,1.353,1.353,0,0,1-.871-.835l0-.008c-.038-.106-3.759-10.614.625-17.752a49.518,49.518,0,0,1,6.5-7.462c5.928-6.05,12.649-12.907,9.488-19.132a12.826,12.826,0,0,0-10.379-7.05c-.463-.046-.921-.068-1.377-.068a13.576,13.576,0,0,0-2.547.238,10.116,10.116,0,0,0-6.108,3.4,11.436,11.436,0,0,0-2.347,7.29,4.941,4.941,0,0,1-.567,2.754,1.836,1.836,0,0,1-.914.615,35.338,35.338,0,0,1-8.108,1.207c-3.146.116-7.47-.154-10.189-2.119a6.27,6.27,0,0,1-2.625-5.382c.005-9.442,7.87-23.524,20.939-27.89a25.605,25.605,0,0,1,4.134-1.015c17.236-2.752,36.188-4.116,42.927,14.629C2049.1,629.789,2049.607,637.092,2047.389,643.013Z" transform="translate(-1977.62 -604.22)" fill="#1a1a1a" stroke="#1a1a1a" stroke-width="0.3"/>
      </g>
      <g id="Group_306" data-name="Group 306" transform="translate(531.568 399.705)">
        <path id="Path_534" data-name="Path 534" d="M2114.5,929.86c-2.822-8.518-9.007-12.619-17.411-11.546-.417.053-.825.121-1.225.208a12.42,12.42,0,0,0-7.505,4.637,17.694,17.694,0,0,0-3.169,10.518,10.941,10.941,0,0,0,3.838,8.366,14.708,14.708,0,0,0,9.728,3.66,14.54,14.54,0,0,0,1.815-.114,17.553,17.553,0,0,0,5.936-1.97,18.166,18.166,0,0,0,6.748-6.055A8.926,8.926,0,0,0,2114.5,929.86Zm-1.418,7.6a18.234,18.234,0,0,1-7.581,6.442,16.779,16.779,0,0,1-4.959,1.486,14.521,14.521,0,0,1-11.381-3.493,10.752,10.752,0,0,1-3.767-8.212,17.484,17.484,0,0,1,3.129-10.4,12.125,12.125,0,0,1,6.7-4.4,15,15,0,0,1,1.893-.364,19.8,19.8,0,0,1,2.526-.165c7.009,0,12.168,4.035,14.664,11.571A8.727,8.727,0,0,1,2113.08,937.457Z" transform="translate(-2085.185 -918.147)" fill="#1a1a1a" stroke="#1a1a1a" stroke-width="0.3"/>
      </g>
    </g>
    <g id="Group_1306" data-name="Group 1306">
      <g id="Group_311" data-name="Group 311" transform="translate(645.089 319.033)">
        <g id="Group_309" data-name="Group 309">
          <path id="Path_535" data-name="Path 535" d="M2548.434,581.6s-1.049-8.987,3.784-13.853,19.3-9.987,17.394-17.8-11.108-9.71-15.211-6.437-2.438,7.429-5.005,7.658-17.261-.6-15.31-8.882,12.529-18.991,25.044-18.078,29.091,2.811,31,19.437-4.914,22.368-14.177,25.639-6.154,13.229-9.492,14.2S2548.517,584.48,2548.434,581.6Z" transform="translate(-2533.908 -524.155)" fill="#920061"/>
        </g>
        <g id="Group_310" data-name="Group 310" transform="translate(9.411 63.622)">
          <path id="Path_536" data-name="Path 536" d="M2571.338,785.337c1.661-6.622,6.029-10.407,12.059-9.776s10.727,4.256,11.434,12.174c.539,6.038-7.687,10.292-13.717,9.661S2569.862,791.217,2571.338,785.337Z" transform="translate(-2571.085 -775.493)" fill="#920061"/>
        </g>
      </g>
      <g id="Group_312" data-name="Group 312" transform="translate(642.098 319.347)">
        <path id="Path_537" data-name="Path 537" d="M2578.471,544.958c-.853-7.44-4.635-12.568-11.568-15.677-5.921-2.655-13.173-3.372-19.5-3.833a21,21,0,0,0-2.289-.04c-11.657.423-21.028,10.477-22.84,18.183a5.2,5.2,0,0,0,1.1,4.842c3.316,3.822,12.1,4.336,14.3,4.139a1.576,1.576,0,0,0,1.045-.466,4.707,4.707,0,0,0,.878-2.017,8.951,8.951,0,0,1,3.124-5.192,7.767,7.767,0,0,1,4.812-1.516,10.87,10.87,0,0,1,3.546.592,10.154,10.154,0,0,1,6.721,7.316c1.3,5.341-5.172,9.439-10.883,13.054a40.142,40.142,0,0,0-6.49,4.67c-2.511,2.531-3.415,6.182-3.726,8.8a24.325,24.325,0,0,0-.081,5.116,1.238,1.238,0,0,0,.6.939c1.615,1.177,6.214,1.607,10.376,1.607a32.836,32.836,0,0,0,7.154-.59,1.541,1.541,0,0,0,.149-.053c1.185-.458,1.521-2.073,1.944-4.1.707-3.389,1.676-8.032,7.4-10.055,5.5-1.942,8.986-4.359,11.318-7.842C2578.407,558.579,2579.362,552.729,2578.471,544.958Zm-3.05,17.79c-2.311,3.453-5.777,5.852-11.237,7.781-5.817,2.053-6.8,6.746-7.511,10.173-.428,2.053-.767,3.673-1.977,4.027a7.56,7.56,0,0,1-.765.175c-3.933.734-14.16.625-16.623-1.167a1.084,1.084,0,0,1-.529-.815v-.008a24.189,24.189,0,0,1,.078-5.083c.311-2.592,1.2-6.2,3.681-8.7a40.026,40.026,0,0,1,6.462-4.648c5.757-3.645,12.282-7.776,10.956-13.231a10.324,10.324,0,0,0-6.83-7.435,11.037,11.037,0,0,0-3.1-.59c-.152-.008-.3-.01-.45-.01a7.958,7.958,0,0,0-4.962,1.552,9.2,9.2,0,0,0-3.182,5.275,3.967,3.967,0,0,1-.954,2.053,1.469,1.469,0,0,1-.825.311c-2.175.195-10.887-.306-14.16-4.083a5.048,5.048,0,0,1-1.063-4.7c1.739-7.387,10.482-16.958,21.511-17.978,0,0,0,0,0,0a20.526,20.526,0,0,1,3.442-.035c14.006,1.02,29.1,3.443,30.921,19.365C2579.192,552.709,2578.248,558.521,2575.42,562.748Z" transform="translate(-2522.09 -525.394)" fill="#1a1a1a" stroke="#1a1a1a" stroke-width="0.3"/>
      </g>
      <g id="Group_313" data-name="Group 313" transform="translate(651.511 382.974)">
        <path id="Path_538" data-name="Path 538" d="M2583.182,789.061c-.643-7.192-4.729-11.54-11.507-12.249-.342-.035-.676-.056-1.008-.061,0,0,0,0,0,0-5.412-.122-9.536,3.514-11.138,9.9a8.8,8.8,0,0,0,1.463,7.257,11.766,11.766,0,0,0,9.632,4.966,15.335,15.335,0,0,0,10.166-4.01A7.183,7.183,0,0,0,2583.182,789.061Zm-2.511,5.688a14.684,14.684,0,0,1-7.121,3.645,13.528,13.528,0,0,1-4.159.253,11.684,11.684,0,0,1-8.267-4.832,8.648,8.648,0,0,1-1.438-7.126,14.066,14.066,0,0,1,4.364-7.564,9.72,9.72,0,0,1,6.042-2.207c.1-.005.208-.008.311-.008a11.679,11.679,0,0,1,1.253.066c6.693.7,10.728,5,11.36,12.1A7.028,7.028,0,0,1,2580.67,794.749Z" transform="translate(-2559.274 -776.748)" fill="#1a1a1a" stroke="#1a1a1a" stroke-width="0.3"/>
      </g>
    </g>
    <g id="Group_1307" data-name="Group 1307">
      <path id="Path_539" data-name="Path 539" d="M2801.233,881.817s-.386-9.039,4.792-13.537,19.979-8.542,18.656-16.476-10.365-10.5-14.7-7.538-2.978,7.23-5.554,7.27-17.17-1.872-14.616-9.984,13.891-18.018,26.3-16.188,28.806,4.942,29.483,21.663-6.545,21.946-16.023,24.527-7.11,12.74-10.51,13.466S2801.1,884.691,2801.233,881.817Z" transform="translate(-2049.655 -414.022)" fill="#fff"/>
      <path id="Path_540" data-name="Path 540" d="M2810.75,1084c2.144-6.482,6.778-9.935,12.745-8.863s10.386,5.033,10.508,12.981c.094,6.062-8.422,9.7-14.389,8.627S2808.847,1089.76,2810.75,1084Z" transform="translate(-2065.198 -600.593)" fill="#fff"/>
      <g id="Group_321" data-name="Group 321" transform="translate(736.848 411.216)">
        <g id="Group_319" data-name="Group 319">
          <path id="Path_541" data-name="Path 541" d="M2833.866,847.484c-.3-7.483-3.7-12.874-10.384-16.484-5.711-3.083-12.889-4.331-19.17-5.255a21.362,21.362,0,0,0-2.25-.21c-11.67-.448-21.767,8.9-24.144,16.454a5.2,5.2,0,0,0,.739,4.911c3.025,4.058,11.758,5.217,13.955,5.179a1.587,1.587,0,0,0,1.079-.387,4.724,4.724,0,0,0,1.023-1.947,8.959,8.959,0,0,1,3.5-4.949,7.785,7.785,0,0,1,4.911-1.159,10.886,10.886,0,0,1,3.493.851,10.159,10.159,0,0,1,6.164,7.792c.906,5.422-5.85,9.034-11.812,12.219a40.021,40.021,0,0,0-6.817,4.182c-2.691,2.339-3.858,5.913-4.364,8.5a24.58,24.58,0,0,0-.456,5.1,1.243,1.243,0,0,0,.527.982c2.04,1.726,9.51,2.519,14.17,2.519a17.867,17.867,0,0,0,3.238-.215,1.3,1.3,0,0,0,.152-.041c1.215-.372,1.668-1.959,2.24-3.944.955-3.329,2.261-7.888,8.123-9.485,5.625-1.531,9.282-3.686,11.862-6.989C2832.8,861.064,2834.182,855.3,2833.866,847.484ZM2829.515,865c-2.557,3.273-6.189,5.412-11.776,6.933-5.952,1.62-7.275,6.23-8.24,9.6-.577,2.015-1.032,3.6-2.265,3.868a7.9,7.9,0,0,1-.787.122c-3.987.438-14.16-.423-16.481-2.39a1.08,1.08,0,0,1-.468-.851v-.008a24.433,24.433,0,0,1,.453-5.065c.5-2.562,1.656-6.1,4.311-8.407a39.967,39.967,0,0,1,6.787-4.159c6.009-3.212,12.821-6.852,11.9-12.393a10.322,10.322,0,0,0-6.265-7.913,10.975,10.975,0,0,0-3.056-.818h0a9.787,9.787,0,0,0-1.177-.071,7.676,7.676,0,0,0-4.326,1.21,9.214,9.214,0,0,0-3.559,5.03,3.96,3.96,0,0,1-1.1,1.974,1.47,1.47,0,0,1-.848.251c-2.19.038-10.834-1.106-13.821-5.113a5.037,5.037,0,0,1-.714-4.761c2.281-7.245,11.718-16.158,22.8-16.35a20.728,20.728,0,0,1,3.407.218c13.892,2.048,28.766,5.574,29.414,21.585C2834.015,855.268,2832.646,861,2829.515,865Z" transform="translate(-2777.615 -825.519)" fill="#1a1a1a" stroke="#1a1a1a" stroke-width="0.3"/>
        </g>
        <g id="Group_320" data-name="Group 320" transform="translate(5.27 63.241)">
          <path id="Path_542" data-name="Path 542" d="M2811.694,1075.539c-.334-.058-.663-.1-.99-.137-5.394-.521-9.776,2.8-11.847,9.057a8.8,8.8,0,0,0,.924,7.346,11.864,11.864,0,0,0,8,5.506,12.85,12.85,0,0,0,2.225.19,15.311,15.311,0,0,0,2.8-.266,14.635,14.635,0,0,0,6.645-3.02,7.184,7.184,0,0,0,2.815-5.615C2822.158,1081.384,2818.4,1076.744,2811.694,1075.539Zm7.655,18.55a14.682,14.682,0,0,1-7.384,3.114,13.463,13.463,0,0,1-4.151-.053,11.684,11.684,0,0,1-7.89-5.43,9.042,9.042,0,0,1-1.324-4.632,8.16,8.16,0,0,1,.415-2.577,14.035,14.035,0,0,1,4.908-7.222,9.669,9.669,0,0,1,5.678-1.775c.175,0,.349.005.526.013a12.522,12.522,0,0,1,1.539.175c6.622,1.19,10.331,5.771,10.439,12.9A7.017,7.017,0,0,1,2819.349,1094.089Z" transform="translate(-2798.433 -1075.349)" fill="#1a1a1a" stroke="#1a1a1a" stroke-width="0.3"/>
        </g>
      </g>
    </g>
    <g id="Group_1304" data-name="Group 1304" transform="translate(0 -5)">
      <path id="Path_234" data-name="Path 234" d="M332.951,144.576V161.67h-4.83V144.576c0-6.5-4.937-11.786-11.011-11.786S306.1,138.076,306.1,144.576V161.67h-4.83V144.576c0-9.309,7.105-16.88,15.841-16.88S332.951,135.267,332.951,144.576Z" transform="translate(340.828 345.468)" fill="#920061"/>
      <rect id="Rectangle_71" data-name="Rectangle 71" width="44.064" height="36.568" rx="8" transform="translate(635.905 500.813)" fill="#fff" stroke="#1a1a1a" stroke-width="1"/>
      <path id="Path_237" data-name="Path 237" d="M326,195.385l1.845,8.751h-7.828l1.844-8.751a3.915,3.915,0,1,1,4.139,0Z" transform="translate(334.009 323.471)" fill="#920061"/>
      <path id="Path_18" data-name="Path 18" d="M82.362,121.4,67.747,137.65a8.481,8.481,0,0,0-1.187,4.342v85.552a8.512,8.512,0,0,0,8.511,8.513l81.07-.3c1.062.067,5.242.2,7.231-1.789,3.73-3.73,17.095-18.489,17.095-18.489" transform="translate(527.41 335.654)" fill="none" stroke="#1a1a1a" stroke-miterlimit="10" stroke-width="0.5"/>
      <rect id="Rectangle_15" data-name="Rectangle 15" width="100.192" height="102.578" rx="4.79" transform="translate(608.419 453.864)" fill="none" stroke="#1a1a1a" stroke-miterlimit="10" stroke-width="0.5"/>
      <line id="Line_6" data-name="Line 6" x1="13.748" y2="14.714" transform="translate(595.957 553.815)" fill="none" stroke="#1a1a1a" stroke-miterlimit="10" stroke-width="0.5"/>
    </g>
    <g id="Group_1275" data-name="Group 1275" transform="translate(171.616 -102.775)">
      <g id="Group_1257" data-name="Group 1257" transform="translate(289.752 898.476)">
        <path id="Path_1728" data-name="Path 1728" d="M349.309,1108.9c-3.571-2.18-1.539-18.437-1.539-18.437s16.637-13.309,18.924-3.12,15.805,14.766,23.5,16.014c5.312.862,6.956,3.8,7.465,5.544Z" transform="translate(-347.195 -1083.502)" fill="#1a1a1a"/>
      </g>
      <g id="Group_1258" data-name="Group 1258" transform="translate(217.441 898.476)">
        <path id="Path_1729" data-name="Path 1729" d="M244.89,1108.9c-3.571-2.18-1.539-18.437-1.539-18.437s16.637-13.309,18.925-3.12,15.805,14.766,23.5,16.014c5.312.862,6.956,3.8,7.465,5.544Z" transform="translate(-242.776 -1083.502)" fill="#1a1a1a"/>
      </g>
      <g id="Group_1259" data-name="Group 1259" transform="translate(231.156 682.781)">
        <path id="Path_1730" data-name="Path 1730" d="M262.581,780.27c0,16.017,6.218,38.582,6.218,38.582,4.74,22.959,45.863,179.452,49.825,180.947,6.6,2.49,23.446-2.738,23.184-5.084-12.821-115.035-17.335-210.5-18.079-214.193C321.621,778.893,270.538,762.422,262.581,780.27Z" transform="translate(-262.581 -772.033)" fill="#1a1a1a"/>
      </g>
      <g id="Group_1260" data-name="Group 1260" transform="translate(245.057 481.776)">
        <path id="Path_1731" data-name="Path 1731" d="M315.983,494.458s-11.236-12.257-14.709-12.665-17.774,6.441-18.591,9.145,15.731-2.7,16.65,0,1.941,4.541,6.64,4.746a19.823,19.823,0,0,1,8.784,2.861Z" transform="translate(-282.654 -481.776)" fill="#ffb27d"/>
      </g>
      <g id="Group_1261" data-name="Group 1261" transform="translate(232.168 530.526)">
        <path id="Path_1732" data-name="Path 1732" d="M288.323,568.825l-.013,2.886s.645,9.029-8.477,10.347-16.032-3.52-15.785-10.487c.822-5.394,1.724-9.1,1.785-13.562a38.152,38.152,0,0,0-.324-5.407l17.676-.429,5.206,1.036Z" transform="translate(-264.042 -552.172)" fill="#ffb27d"/>
      </g>
      <g id="Group_1262" data-name="Group 1262" transform="translate(233.635 530.526)">
        <path id="Path_1733" data-name="Path 1733" d="M289.042,553.208l-.051,11.622c-20.015-1.5-22.578-10.241-22.831-12.228l17.676-.429Z" transform="translate(-266.16 -552.172)" fill="#e8945b"/>
      </g>
      <g id="Group_1263" data-name="Group 1263" transform="translate(226.122 493.61)">
        <path id="Path_1734" data-name="Path 1734" d="M289.626,544.406s-27.59,5.573-30.8-11.663-8.927-28.123,8.553-32.411,22.136,1.65,24.606,7.143S296.72,542.512,289.626,544.406Z" transform="translate(-255.311 -498.865)" fill="#ffb27d"/>
      </g>
      <g id="Group_1264" data-name="Group 1264" transform="translate(207.158 663.166)">
        <path id="Path_1735" data-name="Path 1735" d="M297.734,757.132c-30.029,136.757-33.88,232.093-33.88,232.093s-9,2.631-26.953.394c0,0-4.109-60.583-6.2-105.968-.614-13.3-6.882-91.86,1.758-129.943C235.937,738.36,301.143,741.607,297.734,757.132Z" transform="translate(-227.928 -743.708)" fill="#2b2b2b"/>
      </g>
      <g id="Group_1265" data-name="Group 1265" transform="translate(199.097 546.594)">
        <path id="Path_1736" data-name="Path 1736" d="M310.324,720.737s-8.916,8.117-32.472,7.969c-14.807-.093-34.828-3.539-43.784-5.395-12.049-2.5-10.131-6.857-9.154-15.777,1.253-11.433,1.757-32.161-4.678-67.3q-1.42-7.778-3.321-16.509c-5.413-24.8,25.766-39.167,29.788-45.019,22.9,21,29.294,1.519,29.294,1.519l.006-.005c.226,0,10.853,1.541,20.558-4.262,9.275-5.546,8.489,29.93,8.5,41.383.015,12.3,2.57,42.633,2.924,56C308.45,690.689,310.324,720.737,310.324,720.737Z" transform="translate(-216.286 -575.375)" fill="#920061"/>
      </g>
      <g id="Group_1266" data-name="Group 1266" transform="translate(267.677 488.497)">
        <path id="Path_1737" data-name="Path 1737" d="M378.738,530.386a28.715,28.715,0,0,1-.8,3.124s-.006,0-.006.009c-6.784,21.524-35.074,46.16-38.831,54.194-2.208,4.72-3.119,18.628-3.046,18.194l-20.734-46.784s29.848-22.43,31.1-25.612c1.9-4.82-27.3-31.3-27.3-31.3s-1.455-2.295.331-6.5a7.816,7.816,0,0,1,3.72-4.228S380.8,519.792,378.738,530.386Z" transform="translate(-315.318 -491.481)" fill="#920061"/>
      </g>
      <g id="Group_1267" data-name="Group 1267" transform="translate(200.771 599.056)">
        <path id="Path_1738" data-name="Path 1738" d="M226.128,704.627c-2.118-14.473-2.212-17.76-7.424-52.888,1.963.4,8.78-2.911,12.095,2.724C240.425,670.831,243.57,683.359,226.128,704.627Z" transform="translate(-218.704 -651.131)" fill="#7b0051"/>
      </g>
      <g id="Group_1268" data-name="Group 1268" transform="translate(199.724 651.886)">
        <path id="Path_1739" data-name="Path 1739" d="M218.159,735.076s14.322-8.658,18.76-7.56,14.068,5.283,13.472,7.842-11.784,4.305-13.73,4-5.089.053-6.364,1.152-11.424,1.511-12.663-1.46S218.159,735.076,218.159,735.076Z" transform="translate(-217.192 -727.42)" fill="#ffb27d"/>
      </g>
      <g id="Group_1269" data-name="Group 1269" transform="translate(160.384 549.924)">
        <path id="Path_1740" data-name="Path 1740" d="M229.512,580.184s-21.894,4.275-30.415,11.323c-8.706,7.2-40.641,49.782-38.622,64.536,2.048,14.975,37.56,38.145,37.56,38.145s6.971,2.315,7.217-8.787c0,0-18.736-27.7-17.749-30.9.62-2.015,28.234-24.165,28.234-24.165Z" transform="translate(-160.384 -580.184)" fill="#920061"/>
      </g>
      <g id="Group_1270" data-name="Group 1270" transform="translate(251.86 563.856)">
        <path id="Path_1741" data-name="Path 1741" d="M317.5,704.777a15.049,15.049,0,0,1-4.278,9.962l-4.11,4.2a2.532,2.532,0,0,1-3.715-.1l-5.7-6.514a9.029,9.029,0,0,1-2.226-6.335c.233-5.165.647-15.118.893-24.715.2-7.776.3-15.325.094-19.9-.646-14.619-5.98-61.069-5.98-61.069h3.513a187.906,187.906,0,0,1,15.488,42.009,162.907,162.907,0,0,1,3.424,19.06S318.121,687.892,317.5,704.777Z" transform="translate(-292.478 -600.302)" fill="#fcb200"/>
      </g>
      <g id="Group_1271" data-name="Group 1271" transform="translate(246.562 557.887)">
        <path id="Path_1742" data-name="Path 1742" d="M285.237,594.022,295,591.683a1.477,1.477,0,0,1,1.24,1.7c-.035,1.59-2.749,6.236-3.951,6.607S282.928,597.238,285.237,594.022Z" transform="translate(-284.828 -591.683)" fill="#fcb200"/>
      </g>
      <g id="Group_1272" data-name="Group 1272" transform="translate(225.487 546.394)">
        <path id="Path_1743" data-name="Path 1743" d="M254.395,579.04c-.076-1.521,7.264-3.953,7.264-3.953s5.519,12.367,19.108,12.565c0,0-3.873,7.537-8.437,9.489C272.329,597.141,254.843,588.074,254.395,579.04Z" transform="translate(-254.394 -575.087)" fill="#7b0051"/>
      </g>
      <g id="Group_1273" data-name="Group 1273" transform="translate(251.859 547.178)">
        <path id="Path_1744" data-name="Path 1744" d="M292.476,588s4.565-7.155,4.59-11.781a31.873,31.873,0,0,1,9.317,4.559s-.561,8.893-4.042,13.361A37.5,37.5,0,0,0,292.476,588Z" transform="translate(-292.476 -576.219)" fill="#7b0051"/>
      </g>
      <g id="Group_1274" data-name="Group 1274" transform="translate(216.894 484.798)">
        <path id="Path_1745" data-name="Path 1745" d="M243.051,518.152c4.2,14.123,13.909,16.09,13.909,16.09a19.389,19.389,0,0,1-1.278-5.929,5.835,5.835,0,0,1,.318-2.084,8.992,8.992,0,0,0-.12-5.512c-.414-1.215-.408-2.38.6-2.955,1.616-.923,3.579.764,4.8,2.128a3.054,3.054,0,0,0,3.219.871.111.111,0,0,1,.022-.007c4.76-1.582.425-12.4,5.625-12.173,17.189.751,18.718-1.923,21.509-4.79,2.015-2.07,1.176-9.14-1.609-9.908a52.48,52.48,0,0,1-11.548-4.56,24.771,24.771,0,0,0-24.32.026C242.864,493.818,240.18,508.5,243.051,518.152Z" transform="translate(-241.986 -486.139)" fill="#1a1a1a"/>
      </g>
    </g>
  </g>
</svg>
