<svg xmlns="http://www.w3.org/2000/svg" width="19.904" height="20" viewBox="0 0 19.904 20">
  <path id="google-icon" d="M-2048.709,1488.75v-1.172q.024-.211.048-.422a9.906,9.906,0,0,1,2.5-5.66,9.746,9.746,0,0,1,5.688-3.178c.374-.066.754-.1,1.131-.156h1.088c.07.011.139.023.209.032.327.04.657.065.982.119a9.138,9.138,0,0,1,2.907.99c.5.274.979.6,1.479.908l-2.325,3.035a6.175,6.175,0,0,0-7.781.237,6.206,6.206,0,0,0-1.6,7.18,6.134,6.134,0,0,0,6.553,3.62,6.1,6.1,0,0,0,4.907-4.217h-5.816v-3.8h9.93c0,.675.027,1.339-.008,2a12.692,12.692,0,0,1-.208,1.936,9.748,9.748,0,0,1-3.679,5.884,9.68,9.68,0,0,1-7.046,2.026,9.414,9.414,0,0,1-4.5-1.622,9.878,9.878,0,0,1-4.3-6.605C-2048.623,1489.51-2048.658,1489.128-2048.709,1488.75Z" transform="translate(2048.709 -1478.162)" fill="#fff"/>
</svg>
