<svg xmlns="http://www.w3.org/2000/svg" width="31.429" height="40" viewBox="0 0 31.429 40">
  <path id="information-icon" d="M3184.417,3793.946q0-9.152,0-18.3c0-1.187.524-1.707,1.719-1.707h27.99c1.187,0,1.72.528,1.72,1.708q0,18.3,0,36.606c0,1.154-.536,1.686-1.7,1.686h-28.035a1.475,1.475,0,0,1-1.7-1.687Q3184.417,3803.1,3184.417,3793.946Zm19.286-12.868h-6.83a2.236,2.236,0,0,0-.4.011.709.709,0,0,0,0,1.406,2.236,2.236,0,0,0,.4.012h13.66a2.189,2.189,0,0,0,.4-.012.709.709,0,0,0,0-1.406,2.239,2.239,0,0,0-.4-.011Zm.045,8.572h-6.875a1.979,1.979,0,0,0-.445.018.708.708,0,0,0,0,1.391,1.952,1.952,0,0,0,.445.019h13.66a2.191,2.191,0,0,0,.4-.011.709.709,0,0,0,0-1.406,2.191,2.191,0,0,0-.4-.011Zm-.045,8.571h-6.83a2.235,2.235,0,0,0-.4.011.709.709,0,0,0,0,1.406,2.188,2.188,0,0,0,.4.011h13.66a2.191,2.191,0,0,0,.4-.011.709.709,0,0,0,0-1.406,2.237,2.237,0,0,0-.4-.011Zm.021,8.571h-6.83a2.616,2.616,0,0,0-.4.008.688.688,0,0,0-.641.684.7.7,0,0,0,.642.728,3.139,3.139,0,0,0,.4.008h13.615a2.818,2.818,0,0,0,.445-.014.7.7,0,0,0,.6-.723.686.686,0,0,0-.6-.676,2.288,2.288,0,0,0-.445-.015Zm-12.9-25.988c-.164-.185-.289-.331-.42-.47s-.269-.277-.41-.409a.723.723,0,0,0-1.067-.069.714.714,0,0,0,.047,1.066c.275.292.564.569.848.852,1,1,1.063,1,2.048.011.756-.756,1.518-1.506,2.265-2.27.458-.468.329-1.162-.254-1.249a1.09,1.09,0,0,0-.777.283C3192.338,3779.255,3191.62,3780,3190.819,3780.8Zm-.012,8.584c-.3-.325-.546-.62-.82-.889a.716.716,0,1,0-1.018.995c.275.291.565.569.848.852,1,1,1.063,1,2.049.011.756-.756,1.517-1.506,2.265-2.27.458-.468.328-1.163-.254-1.249a1.085,1.085,0,0,0-.777.284C3192.338,3787.827,3191.62,3788.577,3190.807,3789.389Zm.022,8.557c-.3-.309-.552-.594-.825-.86a.719.719,0,1,0-1.019,1c.4.416.814.824,1.226,1.23.464.457.8.461,1.26.009.728-.72,1.45-1.447,2.174-2.172a7.263,7.263,0,0,0,.615-.642.647.647,0,0,0-.061-.926.659.659,0,0,0-.928-.06,3.11,3.11,0,0,0-.356.335C3192.236,3796.535,3191.557,3797.216,3190.829,3797.946Zm-.008,8.583c-.322-.342-.591-.658-.892-.941a.71.71,0,1,0-1,1.01q.673.711,1.385,1.386a.677.677,0,0,0,1.033.021q1.449-1.417,2.864-2.867a.679.679,0,0,0-.018-1,.709.709,0,0,0-1,.014c-.09.077-.17.167-.253.25Z" transform="translate(-3184.417 -3773.935)" fill="#fff"/>
</svg>
