<svg xmlns="http://www.w3.org/2000/svg" width="121" height="121" viewBox="0 0 121 121">
  <g id="insight-analytics" transform="translate(-576.499 -1404.5)">
    <path id="Path_18" data-name="Path 18" d="M82.819,119.021,67.8,137.914a8.418,8.418,0,0,0-1.245,4.412v86.94a8.791,8.791,0,0,0,8.924,8.651l85.006-.3c1.113.068,5.5.2,7.583-1.818,3.911-3.791,17.11-14.988,17.11-14.988" transform="translate(510.439 1287.083)" fill="none" stroke="#fff" stroke-miterlimit="10" stroke-width="1"/>
    <rect id="Rectangle_15" data-name="Rectangle 15" width="105.499" height="104.242" rx="4.79" transform="translate(591.5 1405)" fill="none" stroke="#fff" stroke-miterlimit="10" stroke-width="1"/>
    <line id="Line_6" data-name="Line 6" x1="13.48" y2="14.267" transform="translate(579.019 1507.5)" fill="none" stroke="#fff" stroke-miterlimit="10" stroke-width="1"/>
    <g id="Group_1561" data-name="Group 1561" transform="translate(611.028 1433.031)">
      <path id="Path_2372" data-name="Path 2372" d="M-574.692,1161.02a32.516,32.516,0,0,1-11.374-2.255,2.217,2.217,0,0,1-.688-.47,17.178,17.178,0,0,1-.087-24.56,7.974,7.974,0,0,1,3.15-1.442,30.172,30.172,0,0,1,20.2.708,3.434,3.434,0,0,1,1.157.76,17.262,17.262,0,0,1-.128,24.494,2.36,2.36,0,0,1-.74.518A32.434,32.434,0,0,1-574.692,1161.02Zm-11.247-15.111a11.318,11.318,0,0,0,11.315,11.34,11.321,11.321,0,0,0,11.306-11.348,11.334,11.334,0,0,0-11.245-11.271A11.322,11.322,0,0,0-585.939,1145.909Z" transform="translate(616.719 -1121.853)" fill="#fff"/>
      <path id="Path_2373" data-name="Path 2373" d="M-700.023,1083.506v5.116a19.083,19.083,0,0,0-18.08,18.085h-5.116C-723.392,1094.543-712.373,1083.4-700.023,1083.506Z" transform="translate(723.23 -1083.406)" fill="#fff"/>
      <path id="Path_2374" data-name="Path 2374" d="M-723.27,1214.9h5.116a19.076,19.076,0,0,0,18.086,18.078v5.115C-712.07,1238.273-723.362,1227.413-723.27,1214.9Z" transform="translate(723.271 -1190.027)" fill="#fff"/>
      <path id="Path_2375" data-name="Path 2375" d="M-417.853,1174.837c4.479-7.258,4.481-14.46-.038-21.7.019,0,.091-.048.127-.027a19.033,19.033,0,0,1,7.071,6.24,8.03,8.03,0,0,1,.113,9.052A18.555,18.555,0,0,1-417.853,1174.837Z" transform="translate(475.466 -1139.884)" fill="#fff"/>
      <path id="Path_2376" data-name="Path 2376" d="M-619.211,1152.422c-4.626,7.386-4.625,14.6-.055,21.9-.2-.091-.369-.149-.517-.236a20.69,20.69,0,0,1-5.986-4.982c-2.9-3.684-2.9-7.7,0-11.375A21.379,21.379,0,0,1-619.211,1152.422Z" transform="translate(645.917 -1139.329)" fill="#fff"/>
      <path id="Path_2377" data-name="Path 2377" d="M-591.854,1088.172v-5.194a24.153,24.153,0,0,1,16.651,7.437,33.5,33.5,0,0,0-4.339.548,5.878,5.878,0,0,1-4.881-.743,15.481,15.481,0,0,0-6.87-1.922c-.163-.014-.324-.042-.486-.067C-591.8,1088.227-591.814,1088.2-591.854,1088.172Z" transform="translate(616.631 -1082.977)" fill="#fff"/>
      <path id="Path_2378" data-name="Path 2378" d="M-591.918,1302.341V1297.1c.935-.13,1.864-.222,2.779-.394a18.528,18.528,0,0,0,6.452-2.55,1.172,1.172,0,0,1,.7-.222c2.2.325,4.391.684,6.643,1.043A24.073,24.073,0,0,1-591.918,1302.341Z" transform="translate(616.683 -1254.162)" fill="#fff"/>
      <path id="Path_2379" data-name="Path 2379" d="M-532.368,1168.625a9.747,9.747,0,0,1-9.871,9.77,9.76,9.76,0,0,1-9.7-9.872,9.767,9.767,0,0,1,9.8-9.7A9.753,9.753,0,0,1-532.368,1168.625Zm-6.792.717a3.737,3.737,0,0,0,3.789-3.745,3.773,3.773,0,0,0-3.777-3.772,3.752,3.752,0,0,0-3.742,3.724A3.714,3.714,0,0,0-539.16,1169.342Z" transform="translate(584.243 -1144.521)" fill="#fff"/>
      <path id="Path_2380" data-name="Path 2380" d="M-493.777,1182.828a2.224,2.224,0,0,1,2.236,2.241,2.267,2.267,0,0,1-2.222,2.275,2.319,2.319,0,0,1-2.291-2.3A2.258,2.258,0,0,1-493.777,1182.828Z" transform="translate(538.893 -1164.003)" fill="#fff"/>
    </g>
  </g>
</svg>
