<?xml version="1.0" encoding="iso-8859-1"?>
<!-- Generator: Adobe Illustrator 19.0.0, SVG Export Plug-In . SVG Version: 6.00 Build 0)  -->
<svg version="1.1" id="Layer_1" xmlns="http://www.w3.org/2000/svg" xmlns:xlink="http://www.w3.org/1999/xlink" x="0px" y="0px"
	 viewBox="0 0 512 512" style="enable-background:new 0 0 512 512;" xml:space="preserve">
<g>
	<g>
		<path d="M485.878,480.469v-95.776h-90.913V96.699h-27.369V42.853h-95.922V0.184h-31.347v42.668h-95.922v53.845h-27.369v287.994
			H26.122v95.777H0v31.347h26.122h90.913h31.347h19.797h175.641h19.797h31.347h90.913H512v-31.347H485.878z M117.036,480.47H57.469
			v-64.43h59.566V480.47z M175.752,74.2h160.496v22.498H175.752V74.2z M216.942,480.47h-17.415V181.599h17.415V480.47z
			 M265.355,480.469h-17.066v-298.87h17.066V480.469z M312.474,480.469h-15.772v-298.87h15.772V480.469z M363.617,384.692v95.777
			h-19.797V150.252H168.179v330.217h-19.797v-95.777V128.045h215.234V384.692z M454.531,480.47h-59.566v-64.43h59.566V480.47z"/>
	</g>
</g>
<g>
</g>
<g>
</g>
<g>
</g>
<g>
</g>
<g>
</g>
<g>
</g>
<g>
</g>
<g>
</g>
<g>
</g>
<g>
</g>
<g>
</g>
<g>
</g>
<g>
</g>
<g>
</g>
<g>
</g>
</svg>
