<svg id="instagram-icon" xmlns="http://www.w3.org/2000/svg" width="19.905" height="19.998" viewBox="0 0 19.905 19.998">
  <path id="Path_5881" data-name="Path 5881" d="M-2726.327,1912.54h10.729a10.812,10.812,0,0,1,1.115.243,4.985,4.985,0,0,1,3.469,4.789q.014,4.969,0,9.938a4.834,4.834,0,0,1-.921,2.906,4.926,4.926,0,0,1-4.2,2.121q-4.8,0-9.6,0a5.681,5.681,0,0,1-1-.076,4.843,4.843,0,0,1-3.823-3.12,10.138,10.138,0,0,1-.354-1.41v-10.78c.025-.14.048-.28.074-.419a4.884,4.884,0,0,1,3.092-3.829A9.875,9.875,0,0,1-2726.327,1912.54Zm-2.916,10h-.007c0,1.627,0,3.254,0,4.881a3.294,3.294,0,0,0,.3,1.5,3.261,3.261,0,0,0,3.126,1.95q4.858.005,9.716,0a4.743,4.743,0,0,0,.657-.046,3.277,3.277,0,0,0,2.763-3.1c.021-3.41.009-6.821.011-10.231a2.961,2.961,0,0,0-.292-1.322,3.261,3.261,0,0,0-3.121-1.958q-4.868-.007-9.736,0a4.828,4.828,0,0,0-.657.047,3.293,3.293,0,0,0-2.755,3.087C-2729.261,1919.076-2729.243,1920.808-2729.243,1922.539Z" transform="translate(2730.913 -1912.54)" fill="#fff"/>
  <path id="Path_5882" data-name="Path 5882" d="M-2644.031,1994.471a4.985,4.985,0,0,1,5,4.96,4.986,4.986,0,0,1-4.951,4.99,4.987,4.987,0,0,1-5-4.96A4.983,4.983,0,0,1-2644.031,1994.471Zm.009,8.287a3.308,3.308,0,0,0,3.328-3.292,3.307,3.307,0,0,0-3.287-3.333,3.308,3.308,0,0,0-3.338,3.3A3.308,3.308,0,0,0-2644.022,2002.759Z" transform="translate(2653.957 -1989.447)" fill="#fff"/>
  <path id="Path_5883" data-name="Path 5883" d="M-2497.453,1969.647a1.232,1.232,0,0,1-1.238-1.228,1.244,1.244,0,0,1,1.238-1.253,1.256,1.256,0,0,1,1.244,1.252A1.244,1.244,0,0,1-2497.453,1969.647Z" transform="translate(2512.795 -1963.831)" fill="#fff"/>
</svg>
