<svg xmlns="http://www.w3.org/2000/svg" width="38.04" height="40" viewBox="0 0 38.04 40">
  <g id="interim-icon" transform="translate(1136.545 -1747.5)">
    <path id="Path_68709" data-name="Path 68709" d="M-1060.907,1747.5h17.344c-.013.128-.037.256-.037.384q0,4.2,0,8.4c0,.939.448,1.374,1.4,1.374h8.74c.007.146.016.236.016.326q0,12.928,0,25.856a3.5,3.5,0,0,1-3.7,3.661q-11.522,0-23.044,0a4.621,4.621,0,0,1-.93-.082,3.281,3.281,0,0,1-1.944-1.18c.25-.24.478-.452.7-.672,1.612-1.61,3.231-3.213,4.831-4.835a3.5,3.5,0,0,0,.022-5.041c-.078-.081-.151-.168-.205-.229l1.978-1.975a8.635,8.635,0,0,0,11.886-1.537,8.614,8.614,0,0,0-.386-11.176,8.585,8.585,0,0,0-11.131-1.311,8.346,8.346,0,0,0-3.475,4.842,8.533,8.533,0,0,0,1.381,7.432l-1.991,2a3.63,3.63,0,0,0-4.451-.838v-12.061c0-3.19.008-6.379,0-9.569a3.411,3.411,0,0,1,1.314-2.947A9.611,9.611,0,0,1-1060.907,1747.5Z" transform="translate(-65.061)" fill="#fff"/>
    <path id="Path_68710" data-name="Path 68710" d="M-989.642,1883.139a6.25,6.25,0,0,1-6.228-6.279,6.273,6.273,0,0,1,6.26-6.22,6.243,6.243,0,0,1,6.235,6.31A6.221,6.221,0,0,1-989.642,1883.139Z" transform="translate(-126.022 -110.314)" fill="#fff"/>
    <path id="Path_68711" data-name="Path 68711" d="M-1136.545,2019.8a2.876,2.876,0,0,1,.916-2.231q2.494-2.475,4.972-4.966l2.43-2.428a1.2,1.2,0,0,1,1.934-.023q1,.988,1.987,1.988a1.185,1.185,0,0,1-.006,1.849q-3.751,3.758-7.51,7.507a2.725,2.725,0,0,1-4.64-1.193A4.4,4.4,0,0,1-1136.545,2019.8Z" transform="translate(0 -234.861)" fill="#fff"/>
    <path id="Path_68712" data-name="Path 68712" d="M-839.128,1762.456h-6.959V1755.5Z" transform="translate(-260.203 -7.166)" fill="#fff"/>
  </g>
</svg>
