<svg xmlns="http://www.w3.org/2000/svg" width="109" height="109" viewBox="0 0 109 109">
  <g id="integrity" transform="translate(4102.887 4829.887)">
    <g id="Ellipse_2377" data-name="Ellipse 2377" transform="translate(-4102.887 -4829.887)" fill="#f2f2f2" stroke="#000" stroke-width="3" stroke-dasharray="2">
      <circle cx="54.5" cy="54.5" r="54.5" stroke="none"/>
      <circle cx="54.5" cy="54.5" r="53" fill="none"/>
    </g>
    <g id="handshake-svgrepo-com" transform="translate(-4087.502 -4798.669)">
      <g id="Group_43347" data-name="Group 43347" transform="translate(0 0)">
        <rect id="XMLID_60_" width="26.602" height="10.874" transform="translate(1.494 26.654) rotate(-71.07)" fill="#fcb200"/>
        <path id="Path_77319" data-name="Path 77319" d="M27.881,87.635l-1,.492a5.219,5.219,0,0,1-4,.23l-1.673-.59a1.242,1.242,0,0,0-.3-.148l-10.3-3.526a1.49,1.49,0,0,0-1.886.918L.081,110.187A1.479,1.479,0,0,0,1,112.073L11.283,115.6a1.706,1.706,0,0,0,.476.082,1.5,1.5,0,0,0,1.411-1l8.151-23.716.558.2a8.275,8.275,0,0,0,6.314-.361l1-.492a5.209,5.209,0,0,1,3.969-.246l18.911,6.511A3.871,3.871,0,0,1,50.761,98.8c-.8.558-2,.558-3.575.016l-8.43-2.887a1.482,1.482,0,0,0-1.181.1,1.56,1.56,0,0,0-.738.935c-.016.049-1.181,4.412-4.9,6.413-2.345,1.263-5.265,1.312-8.693.148a1.483,1.483,0,1,0-.968,2.8,17.236,17.236,0,0,0,5.544,1.017A11.418,11.418,0,0,0,33.327,106a13.638,13.638,0,0,0,5.839-6.79l7.036,2.411c2.509.869,4.609.738,6.232-.394,2.608-1.8,2.739-5.462,2.755-5.626a1.488,1.488,0,0,0-1-1.443L34.114,87.242A8.3,8.3,0,0,0,27.881,87.635ZM10.857,112.3l-7.479-2.559,7.659-22.355,7.479,2.559Z" transform="translate(0 -84.014)"/>
        <rect id="XMLID_142_" width="26.601" height="10.873" transform="translate(69.094 30.331) rotate(-116.073)" fill="#5cc7ff"/>
        <path id="Path_77320" data-name="Path 77320" d="M147.5,114.82l-3.526,3.247a45.054,45.054,0,0,1-10.71,7.315l-18.714,9.152a1.669,1.669,0,1,1-1.46-3l.23-.115h0l10.234-5a1.485,1.485,0,0,0-1.3-2.673l-10.234,5h0l-5.15,2.526a1.661,1.661,0,0,1-2.231-.771,1.613,1.613,0,0,1-.082-1.263,1.653,1.653,0,0,1,.836-.951l3.887-1.9h0l11.12-5.445a1.485,1.485,0,0,0-1.3-2.673l-11.136,5.462h0l-.426.213-5.314,2.608a1.613,1.613,0,0,1-1.263.082,1.66,1.66,0,0,1-.18-3.067l1.837-.9h0l3.756-1.837,1.05-.508h0l8.627-4.232a1.485,1.485,0,0,0-1.3-2.673l-9.349,4.576-4.084,2a1.675,1.675,0,0,1-2.231-.771,1.613,1.613,0,0,1-.082-1.263,1.653,1.653,0,0,1,.836-.951l7.135-3.493a1.485,1.485,0,1,0-1.3-2.673l-7.135,3.493a4.57,4.57,0,0,0-2.345,2.657,4.583,4.583,0,0,0,1.64,5.232,4.653,4.653,0,0,0-.492,4.871,4.57,4.57,0,0,0,2.657,2.345,4.644,4.644,0,0,0,1.476.246,4.473,4.473,0,0,0,.476,2.149,4.642,4.642,0,0,0,4.166,2.591,4.509,4.509,0,0,0,2.034-.476l1.05-.508a4.793,4.793,0,0,0,.443,1.624,4.642,4.642,0,0,0,4.166,2.591,4.509,4.509,0,0,0,2.034-.476l18.714-9.152a48.015,48.015,0,0,0,11.415-7.791l4.182-3.854,9.578-4.691a1.484,1.484,0,0,0,.689-1.985l-11.71-23.864a1.49,1.49,0,0,0-1.985-.689l-9.775,4.773a1.484,1.484,0,0,0-.689,1.985Zm-.787-26.34,10.382,21.24-7.1,3.477-10.382-21.24Z" transform="translate(-80.221 -84.841)"/>
      </g>
    </g>
  </g>
</svg>
