<svg id="linkedin-icon" xmlns="http://www.w3.org/2000/svg" width="19.916" height="20" viewBox="0 0 19.916 20">
  <path id="Path_5878" data-name="Path 5878" d="M-2145.606,2307.126h-4.115v-13.263h3.946v1.765a12.152,12.152,0,0,1,.821-.945,4.251,4.251,0,0,1,2.6-1.132,6.414,6.414,0,0,1,2.523.241,3.791,3.791,0,0,1,2.582,2.737,9.7,9.7,0,0,1,.369,2.735c.018,2.568.011,5.136.013,7.7,0,.032-.006.063-.01.115H-2141v-.284c0-2.2,0-4.391-.009-6.587a7.873,7.873,0,0,0-.128-1.375,1.915,1.915,0,0,0-2.417-1.68,2.113,2.113,0,0,0-1.956,2.07,10.254,10.254,0,0,0-.1,1.379c-.01,2.074,0,4.148,0,6.222Z" transform="translate(2156.781 -2287.126)" fill="#fff"/>
  <path id="Path_5879" data-name="Path 5879" d="M-2249.237,2311.961h-4.1V2298.69h4.1Z" transform="translate(2253.681 -2291.962)" fill="#fff"/>
  <path id="Path_5880" data-name="Path 5880" d="M-2253.883,2198.74a2.409,2.409,0,0,1-2.37,2.422,2.421,2.421,0,0,1-2.408-2.413,2.407,2.407,0,0,1,2.375-2.392A2.392,2.392,0,0,1-2253.883,2198.74Z" transform="translate(2258.661 -2196.357)" fill="#fff"/>
</svg>
