<svg xmlns="http://www.w3.org/2000/svg" width="106.448" height="106.623" viewBox="0 0 106.448 106.623">
  <g id="local-internation-data-icon" transform="translate(-0.421)">
    <path id="Path_77278" data-name="Path 77278" d="M39.746,12.729A51.654,51.654,0,1,1,23.644,23.5" transform="translate(-6.195 -6.864)" fill="#f2c34e"/>
    <g id="Group_43333" data-name="Group 43333" transform="translate(20.213 11.632)">
      <path id="Path_77279" data-name="Path 77279" d="M292.736,257.516h-3.47l-1.667,5.027s4.112,6.868,5.1,6.682,11.769-3.321,11.769-3.321v-5l-5.033-5.027" transform="translate(-247.587 -214.222)" fill="#d4e4ac"/>
      <path id="Path_77280" data-name="Path 77280" d="M142.144,115.875l5,8.336-11.67,11.67-6.668-1.667-3.334,3.334,1.667,10c-7.013,3.267-13.337-1.667-13.337-1.667l-8.336-13.337,1.667-13.337L95.463,80.864l15-25.007,8.336,5,18.339-1.667,13.337,8.336-5,6.669-9.892,18.339L122.36,100.87v5l6.557,3.334,4.946,5Z" transform="translate(-95.463 -55.857)" fill="#d4e4ac"/>
    </g>
    <g id="Group_43334" data-name="Group 43334" transform="translate(19.511 1.63)">
      <path id="Path_77281" data-name="Path 77281" d="M311.3,173.467c0,3.053-5.528,12.9-5.528,12.9s-5.528-9.846-5.528-12.9a5.528,5.528,0,1,1,11.056,0Z" transform="translate(-256.895 -134.596)" fill="#5cc7ff"/>
      <path id="Path_77282" data-name="Path 77282" d="M383.348,341.586c0,3.053-5.528,12.9-5.528,12.9s-5.528-9.846-5.528-12.9a5.528,5.528,0,0,1,11.056,0Z" transform="translate(-313.941 -267.704)" fill="#5cc7ff"/>
      <path id="Path_77283" data-name="Path 77283" d="M103.149,13.353c0,3.053-5.528,12.9-5.528,12.9s-5.528-9.846-5.528-12.9a5.528,5.528,0,0,1,11.056,0Z" transform="translate(-92.093 -7.825)" fill="#5cc7ff"/>
      <path id="Path_77284" data-name="Path 77284" d="M140.229,227.82c0,3.053-5.528,12.9-5.528,12.9s-5.528-9.846-5.528-12.9a5.528,5.528,0,0,1,11.056,0Z" transform="translate(-121.451 -177.63)" fill="#5cc7ff"/>
    </g>
    <path id="Path_77285" data-name="Path 77285" d="M438.989,145.345l-3.206,6.669v6.669l-3.463,8.272,8.207,4.938H447.2s1.807-10.429-4.937-28.278Z" transform="translate(-341.957 -113.707)" fill="#d4e4ac"/>
    <path id="Path_77286" data-name="Path 77286" d="M299.573,183.5l-1.421-2.531c-.958-1.706-5.737-10.385-5.737-13.7a7.157,7.157,0,1,1,14.315,0c0,3.311-4.779,11.99-5.736,13.7Zm0-20.125a3.9,3.9,0,0,0-3.9,3.9c0,1.344,1.809,5.469,3.9,9.474,2.089-4.006,3.9-8.13,3.9-9.474A3.9,3.9,0,0,0,299.573,163.374Z" transform="translate(-231.187 -126.771)"/>
    <path id="Path_77287" data-name="Path 77287" d="M371.624,351.618l-1.421-2.531c-.958-1.706-5.737-10.385-5.737-13.7a7.157,7.157,0,1,1,14.315,0c0,3.311-4.779,11.99-5.737,13.7Zm0-20.125a3.9,3.9,0,0,0-3.9,3.9c0,1.343,1.809,5.468,3.9,9.473,2.089-4.006,3.9-8.13,3.9-9.473A3.9,3.9,0,0,0,371.624,331.493Z" transform="translate(-288.234 -259.88)"/>
    <path id="Path_77288" data-name="Path 77288" d="M91.426,23.385,90,20.854c-.958-1.706-5.737-10.385-5.737-13.7a7.158,7.158,0,1,1,14.315,0c0,3.311-4.779,11.99-5.737,13.7Zm0-20.125a3.9,3.9,0,0,0-3.9,3.9c0,1.344,1.809,5.469,3.9,9.474,2.089-4.006,3.9-8.13,3.9-9.474A3.9,3.9,0,0,0,91.426,3.259Z" transform="translate(-66.386 0)"/>
    <path id="Path_77289" data-name="Path 77289" d="M128.506,237.852l-1.421-2.531c-.958-1.706-5.737-10.385-5.737-13.7a7.157,7.157,0,1,1,14.315,0c0,3.311-4.779,11.99-5.737,13.7Zm0-20.125a3.9,3.9,0,0,0-3.9,3.9c0,1.344,1.809,5.469,3.9,9.474,2.089-4.006,3.9-8.13,3.9-9.474A3.9,3.9,0,0,0,128.506,217.727Z" transform="translate(-95.744 -169.806)"/>
    <g id="Group_43335" data-name="Group 43335" transform="translate(23.643 25.376)">
      <rect id="Rectangle_5865" data-name="Rectangle 5865" width="3.476" height="3.259" fill="#fff"/>
      <rect id="Rectangle_5866" data-name="Rectangle 5866" width="3.259" height="3.259" transform="translate(43.456 33.027)" fill="#fff"/>
    </g>
    <path id="Path_77290" data-name="Path 77290" d="M185.071,69.08l-2.545-2.036,5.525-6.906-11.32-7.075-18.322,1.666-7.7-4.62-2.435,2.435-2.3-2.3L150.2,46l8.97,5.382,18.355-1.668,15.355,9.6Z" transform="translate(-115.238 -36.424)"/>
    <path id="Path_77291" data-name="Path 77291" d="M90.486,165.607l-3.541-12.394,3.752-5.629,2.712,1.808-2.916,4.374,3.127,10.945Z" transform="translate(-68.506 -116.85)"/>
    <path id="Path_77292" data-name="Path 77292" d="M91.279,16.433a53.28,53.28,0,0,0-58.365-11.4l1.271,3a50.019,50.019,0,0,1,54.79,10.7,50.171,50.171,0,0,1,8.462,11.235L91.87,38.506v6.83l-3.686,9.423,9.928,6.051h5.045a49.976,49.976,0,0,1-49.513,43.222c-.122,0-.244,0-.366,0l-1.331-9.458,2.107-2.107,6.667,1.667L73.941,80.906,67.907,70.862l-8.574-1.712-4.867-4.842-6.052-3V56.656L60.9,50.437,59.447,47.52,45.155,54.638v8.688l7.388,3.666,5.188,5.161,8.124,1.622L69.836,80.4,59.722,90.52l-6.667-1.667-4.561,4.562L49.97,103.9a50,50,0,0,1-8.81-1.432L31.918,88.6,33.5,77.55l-3.227-.461L28.515,89.376l7.694,11.54A49.987,49.987,0,0,1,18.592,18.463L16.3,16.14A53.224,53.224,0,1,0,91.28,91.7a53.223,53.223,0,0,0,0-75.269ZM99.027,57.55,92.216,53.4l2.914-7.448V39.443l3.927-6.268a49.808,49.808,0,0,1,4.552,20.892q0,1.751-.121,3.483Z" transform="translate(0 -0.668)"/>
    <path id="Path_77293" data-name="Path 77293" d="M281.561,263.214c-1.125-1.694-2.108-3.381-2.149-3.452l-.375-.644,2.286-6.67h4.634v3.259h-2.305l-1.046,3.053a40.751,40.751,0,0,0,3.422,5.035c1.661-.454,6.246-1.821,9.707-2.866v-3.116l-4.392-4.387,2.3-2.306,5.348,5.342v6.886l-1.157.35c-1.787.541-10.754,3.251-11.776,3.445Z" transform="translate(-220.595 -198.826)"/>
    <rect id="Rectangle_5867" data-name="Rectangle 5867" width="3.259" height="3.259" transform="translate(30.379 70.136)" fill="#fff"/>
  </g>
</svg>
