<svg xmlns="http://www.w3.org/2000/svg" width="40" height="39.994" viewBox="0 0 40 39.994">
  <path id="logout" d="M662.1,1609.5a20,20,0,1,1-20,20.13A20.046,20.046,0,0,1,662.1,1609.5Zm-12.027,20.019c.025.352.044.74.081,1.127a11.995,11.995,0,1,0,23.794-2.974,11.7,11.7,0,0,0-4.2-7.395,1.318,1.318,0,0,0-2.192.693,1.39,1.39,0,0,0,.572,1.42,9.022,9.022,0,0,1,3.176,8.545,9.328,9.328,0,1,1-15-8.754,1.331,1.331,0,1,0-1.691-2.049A11.973,11.973,0,0,0,650.074,1629.52Zm10.686-6.037q0,2.271,0,4.542a1.339,1.339,0,1,0,2.666.021q0-4.542,0-9.084a1.339,1.339,0,1,0-2.666.02Q660.757,1621.233,660.76,1623.483Z" transform="translate(-642.099 -1609.501)" fill="#fff"/>
</svg>
