<svg id="Layer_1" data-name="Layer 1" xmlns="http://www.w3.org/2000/svg" viewBox="0 0 68.84 64.64"><defs><style>.cls-1{fill:#a024c4;}.cls-2{fill:#b81165;}.cls-3{fill:#f7ab16;}.cls-4{fill:#10a5c9;}</style></defs><path class="cls-1" d="M139-6.89a37.4,37.4,0,0,1,3.55,3.46c.48.48.77.55,1.36.08,7.79-6.2,17.44-6.19,25.11,0,.59.49.87.36,1.33-.12,1.17-1.23,2.4-2.4,3.6-3.6a3.72,3.72,0,0,0,1.34-1.88c.11-.56.64-.77,1.22-.69a.93.93,0,0,1,.88.82c.11.56,0,1.14-.6,1.26-1,.22-1.55,1-2.21,1.67-1.13,1.1-2.22,2.25-3.37,3.33a.84.84,0,0,0,0,1.38,18.49,18.49,0,0,1,4.51,10.47c.1.85.44,1,1.2,1,2.43,0,2.4,0,2.06-2.45a22.84,22.84,0,0,0-1.25-4.67,1.17,1.17,0,0,0-.84-.85c-1.78-.53-2.52-1.85-2-3.38a2.53,2.53,0,0,1,3.24-1.58c1.55.54,2.12,2,1.44,3.66a1.2,1.2,0,0,0,0,1,25.89,25.89,0,0,1,1.73,7.46c0,.27,0,.55.29.72a5.89,5.89,0,0,0,3.78-.54c.14-.14.27-.36.43-.39,1.85-.33,1.36-1.62,1.16-2.77A30.32,30.32,0,0,0,178-10.68a1.36,1.36,0,0,1-.23-.41l1.51,0a31.18,31.18,0,0,1,8.6,15.7,22,22,0,0,1,.42,2.56,3.94,3.94,0,0,0,1.08,2.75,2.46,2.46,0,0,1-.43,3.48,2.5,2.5,0,0,1-3.51-.27,1.82,1.82,0,0,0-1.71-.72c-2.33,0-4.65,0-7,0-.69,0-.94.16-1,.89a15.73,15.73,0,0,1-1.45,5.57c-.65-.61-1.66-.17-2.29-.81a5.29,5.29,0,0,1,.15-.57A16.86,16.86,0,0,0,143.4.63,19.2,19.2,0,0,0,139.82,8a7.9,7.9,0,0,0-2.33-.18,15.17,15.17,0,0,1,2.42-6.27A33.35,33.35,0,0,1,142-1.54c.29-.34.07-.52-.17-.77-1.4-1.41-2.78-2.85-4.17-4.28Z" transform="translate(-121.03 20.72)"/><path class="cls-2" d="M137.49,7.81a7.58,7.58,0,0,1,2.33.19,23.68,23.68,0,0,0-.11,5.77c1.45,11.46,14.75,18.1,24.8,12.39A18.15,18.15,0,0,0,172,18c.63.64,1.64.2,2.29.81a17.36,17.36,0,0,1-3.09,5c-.54.57-.45.9.06,1.41,1.87,1.89,1.84,1.89,3.45-.35a27.07,27.07,0,0,0,3-5.7,6,6,0,0,1,2.06.23,23.94,23.94,0,0,1-4.63,8.23c-.27.32-.82.61-.37,1.18l-1.24.36c-.95-.94-2-1.83-2.83-2.83-.62-.71-1-.93-1.86-.22a18.29,18.29,0,0,1-10.14,4.37c-1,.11-1.3.42-1.18,1.35a5.38,5.38,0,0,1-.05,1.06l-2,0c-.15-2.16-.15-2.16-2.31-2.52A18.14,18.14,0,0,1,144,26.11c-.73-.63-1.11-.4-1.62.11-1.05,1.06-2.09,2.12-3.14,3.17l-1.31-.31a.78.78,0,0,0,0-1.21,27.2,27.2,0,0,1-5.25-9c-.33-.85-.1-1.45.7-1.69s1.23.24,1.43,1a20.74,20.74,0,0,0,4.52,8.2c.43.52.7.53,1.19.05,1.73-1.69,1.77-1.68.34-3.64a19,19,0,0,1-3.64-9.6c-.07-.68-.31-.83-.94-.83-3.19,0-6.39,0-9.58,0a1.48,1.48,0,0,0-1.26.68,2.3,2.3,0,0,1-2.67.75,2.19,2.19,0,0,1-1.7-2c1.52-.59,2.85-1.65,4.54-1.8a1.37,1.37,0,0,0,1.19.38c.7,0,1.41,0,2.12,0a6.56,6.56,0,0,0,2.44-.11c.79-.35.13-1.47.56-2.14a6.06,6.06,0,0,0,1.94-.21V8c-.08,2.48.23,2.72,2.76,2.35.48-.07.54-.29.58-.68C137.25,9,137.39,8.43,137.49,7.81Z" transform="translate(-121.03 20.72)"/><path class="cls-3" d="M173.5,29.22l1.24-.36c2,1.64,3.7,3.64,5.59,5.43a1.52,1.52,0,0,0,1.63.55,2.54,2.54,0,1,1,.44,5A2.47,2.47,0,0,1,179.85,37c0-.49.25-.95-.17-1.45-.64-.76-1.1-1-2-.2a30.35,30.35,0,0,1-9.36,5.8c-.52.22-.77.67-1.19,1a1.1,1.1,0,0,1-1.42-.09,1.06,1.06,0,0,1-.33-1.28c.2-.48.59-.88,1.08-.76,1.48.39,2.64-.47,3.76-1a32.46,32.46,0,0,0,6.43-4.35c1-.84,1-1,.09-2A43.75,43.75,0,0,1,173.5,29.22Z" transform="translate(-121.03 20.72)"/><path class="cls-4" d="M163.89-10.23a24,24,0,0,0-12.14-.68,18.87,18.87,0,0,0-6.85,2.76,1.07,1.07,0,0,1-1.65-.29,1.1,1.1,0,0,1,.5-1.68A25.69,25.69,0,0,1,162-12.85a19.73,19.73,0,0,1,2.72.8,3.69,3.69,0,0,0,2.9.18,1.88,1.88,0,0,1,2.4.94Z" transform="translate(-121.03 20.72)"/><path class="cls-4" d="M163.42-19.5a1.05,1.05,0,0,1-1.59.94c-1.2-.85-2.53-.77-3.84-.84A30,30,0,0,0,144.26-17c-1.49.65-3,1.21-4,2.63a.88.88,0,0,1-1.17.23,1.11,1.11,0,0,1-.72-1.11c0-.45.23-1,.68-1,2.06-.15,3.57-1.57,5.4-2.24a33.48,33.48,0,0,1,15.82-2,3.77,3.77,0,0,0,1.6-.15A1.13,1.13,0,0,1,163.42-19.5Z" transform="translate(-121.03 20.72)"/><path class="cls-1" d="M133.85,7.86a6.06,6.06,0,0,1-1.94.21A19.66,19.66,0,0,1,133.7,1.4a2.48,2.48,0,0,0,.16-2,2.48,2.48,0,0,1,1.79-3.21A2.57,2.57,0,0,1,138.77-2a2.46,2.46,0,0,1-2,3.15,1.32,1.32,0,0,0-1.09.87A34.8,34.8,0,0,0,133.85,7.86Z" transform="translate(-121.03 20.72)"/><path class="cls-3" d="M156.42,43.89c-3.64-1-7.51-.85-11-2.47-1.89-.85-3.81-1.62-5.63-2.64a3.62,3.62,0,0,0-1-.19,1,1,0,0,1-.91-.93,1.19,1.19,0,0,1,.62-1.28.9.9,0,0,1,1.26.28c.87,1.61,2.54,2,4,2.72A29.33,29.33,0,0,0,154.6,42.1a2.87,2.87,0,0,0,1.44-.38,1.17,1.17,0,0,1,1.5,1.53A1,1,0,0,1,156.42,43.89Z" transform="translate(-121.03 20.72)"/><path class="cls-1" d="M125.6,10c-1.69.15-3,1.21-4.54,1.8-.19-1.77.71-2.94,2.45-2.93.84,0,1-.35,1-1a30.19,30.19,0,0,1,4.26-12.74,3.65,3.65,0,0,0,.36-1.46h2.17A.92.92,0,0,1,131-5.23c-1.61.84-2.06,2.54-2.7,4A32.06,32.06,0,0,0,125.6,10Z" transform="translate(-121.03 20.72)"/><path class="cls-3" d="M171.26,30.05c.48.83.19,1.31-.61,1.8a33.36,33.36,0,0,1-8.48,3.76,1.36,1.36,0,0,1-1.42-.18,1.13,1.13,0,0,1-.29-1.29c.2-.61.67-.65,1.21-.72a15.77,15.77,0,0,0,4.56-1.55l1.72-.78.24-.05-.05-.05A19,19,0,0,0,171.26,30.05Z" transform="translate(-121.03 20.72)"/><path class="cls-3" d="M137.92,29.08l1.31.31a32.5,32.5,0,0,1-2.51,2.33,3.35,3.35,0,0,0-1.15,1.91,1.31,1.31,0,0,1-1.41,1.29,1.24,1.24,0,0,1-1.32-1.34,2,2,0,0,0-.6-1.11,17.85,17.85,0,0,1-3-4.19l1.24-.1c.81,1.05,1.61,2.11,2.43,3.16s1.34,1.19,2.42.14A20.69,20.69,0,0,1,137.92,29.08Z" transform="translate(-121.03 20.72)"/><path class="cls-4" d="M179.23-11.12l-1.51,0a39.29,39.29,0,0,0-6.95-4.84,2.81,2.81,0,0,0-1.88-.5,1,1,0,0,1-1.15-.79,1.1,1.1,0,0,1,.37-1.27,1,1,0,0,1,1.31,0c1.16,1.45,3,1.84,4.4,2.88A27.53,27.53,0,0,1,179.23-11.12Z" transform="translate(-121.03 20.72)"/><path class="cls-4" d="M139-6.89l-1.33.3-5-4.93a4.25,4.25,0,0,0-2.05-1.5c-.56-.12-.75-.65-.66-1.22a1.05,1.05,0,0,1,1-1,1,1,0,0,1,1.17.77,2.79,2.79,0,0,0,1,1.53Z" transform="translate(-121.03 20.72)"/><path class="cls-1" d="M163.89-10.23l6.17-.7A2.35,2.35,0,0,1,170.22-8a2.26,2.26,0,0,1-2.42,1.1,2.29,2.29,0,0,1-2.16-2C165.47-9.93,164.5-9.83,163.89-10.23Z" transform="translate(-121.03 20.72)"/><path class="cls-2" d="M130.52,28.18l-1.24.1a24.56,24.56,0,0,1-3.15-6.42,4,4,0,0,0-1-1.95,1,1,0,0,1-.07-1.39,1.05,1.05,0,0,1,1.36-.39,1,1,0,0,1,.67,1.33,2.23,2.23,0,0,0,.1,1.59A38.32,38.32,0,0,0,130.52,28.18Z" transform="translate(-121.03 20.72)"/><path class="cls-1" d="M179.74,19.45a6,6,0,0,0-2.06-.23,29.7,29.7,0,0,0,.86-3.76,1,1,0,0,1,1.37-.91,1.05,1.05,0,0,1,.85,1.42A22,22,0,0,1,179.74,19.45Z" transform="translate(-121.03 20.72)"/><path class="cls-2" d="M183.34,26.3a28.27,28.27,0,0,0,2.91-7.06c.41,0,.91-.24,1.14.35a23.6,23.6,0,0,1-2.69,6.77C184.26,26.21,183.78,26.65,183.34,26.3Z" transform="translate(-121.03 20.72)"/><path class="cls-3" d="M155.44,32.91l2,0,.27,1.51a1.36,1.36,0,0,1-.5,1.57,1.32,1.32,0,0,1-1.55,0,1.42,1.42,0,0,1-.47-1.58C155.27,33.91,155.36,33.41,155.44,32.91Z" transform="translate(-121.03 20.72)"/><path class="cls-1" d="M187.39,19.59c-.23-.59-.73-.31-1.14-.35.07-.73.4-1.41,0-2.18a1,1,0,0,1,.57-1.27,1.08,1.08,0,0,1,1.4.22,1,1,0,0,1,.13,1.39C187.73,18,187.79,18.9,187.39,19.59Z" transform="translate(-121.03 20.72)"/><path class="cls-3" d="M183.34,26.3c.44.35.92-.09,1.36.06a5.35,5.35,0,0,0,0,.8c0,.7-.23,1.34-1.06,1.44a1.09,1.09,0,0,1-1.29-.9C182.15,26.88,182.59,26.46,183.34,26.3Z" transform="translate(-121.03 20.72)"/><path class="cls-2" d="M171.26,30.05a19,19,0,0,1-3.12.94c.5-.41,1-.85,1.51-1.22A1.05,1.05,0,0,1,171.26,30.05Z" transform="translate(-121.03 20.72)"/><path class="cls-4" d="M131.35-6.38h-2.17C129.94-7.61,130.66-7.6,131.35-6.38Z" transform="translate(-121.03 20.72)"/><path class="cls-2" d="M168.19,31l-.24.05Z" transform="translate(-121.03 20.72)"/></svg>