<svg xmlns="http://www.w3.org/2000/svg" viewBox="0 0 100.02 100.02"><defs><style>.cls-1{fill:none;}.cls-2{fill:#fff;}</style></defs><g id="Layer_2" data-name="Layer 2"><g id="Layer_1-2" data-name="Layer 1"><path class="cls-1" d="M54,0h46V100H0V0H50.11a4,4,0,0,1-.66.16,21.34,21.34,0,0,0-8,2.41C33.33,7.05,29,14,29,23.29c-.05,7,2.82,12.74,8,17.38,7,6.26,18.42,7.44,26.45,2.52,8.8-5.38,12.79-13.33,11.35-23.54-1.22-8.7-6.29-14.72-14.42-18A46.19,46.19,0,0,0,54,0ZM52.17,52.91c-1.68-1.77-3.34-3.5-5-5.25a1,1,0,0,0-1.26-.33,31.82,31.82,0,0,0-3.23,1.35c-3,1.76-6,3.66-9,5.44a26.89,26.89,0,0,1-9.35,3.7c-2.62.42-4.05-.29-5.25-2.63a6.12,6.12,0,0,1-.6-1.43c-.52-2.54-1-5.09-1.5-7.62a2.88,2.88,0,0,1,1.16-2.86,9.12,9.12,0,0,0,2.37-2.77c1.38-3.21,2.54-6.52,3.72-9.81A1.25,1.25,0,0,0,22.94,29a2.54,2.54,0,0,0-1.67.79,29.61,29.61,0,0,0-2,3.64,21.45,21.45,0,0,0-.78,2.07,3.11,3.11,0,0,1-.38-1.4q-.39-7-.79-14a4.71,4.71,0,0,0-.23-1.34,1.47,1.47,0,0,0-1.67-1A1.42,1.42,0,0,0,14,19,7.26,7.26,0,0,0,14,20.53c.09,1.84.21,3.69.29,5.54a7.3,7.3,0,0,1-.09,1h-.32A10.16,10.16,0,0,1,13.62,26c-.14-2.14-.26-4.28-.39-6.42-.06-.9-.09-1.82-.21-2.72a1.63,1.63,0,0,0-1.74-1.5,1.52,1.52,0,0,0-1.55,1.44,5.91,5.91,0,0,0-.05,1.26c.14,2.6.31,5.19.45,7.78A6,6,0,0,1,10,27l-.33,0a8.54,8.54,0,0,1-.17-1c-.16-2.07-.27-4.15-.46-6.22-.14-1.51-.88-2.39-1.86-2.33s-1.58,1-1.51,2.54c.11,2.37.26,4.74.38,7.11a7.71,7.71,0,0,1-.11,1.16l-.3,0a6.82,6.82,0,0,1-.2-.87c-.13-1.33-.21-2.66-.36-4a1.68,1.68,0,0,0-2.52-1.33,2,2,0,0,0-.89,2C2,29.56,2.32,35,2.77,40.44a12.72,12.72,0,0,0,1.08,3.79,5.52,5.52,0,0,1,.57,2.51,38.47,38.47,0,0,0,1,11.11c2.45,9.84,9.48,15.31,19.59,15.26,1.25,0,2.5-.15,3.89-.23V99.75H76.81V90.28l.25,0,2.71,9.51H98.09a3.69,3.69,0,0,0,0-.54c-.91-3.28-1.69-6.6-2.75-9.84A77.67,77.67,0,0,0,82.87,65.49c-6.35-8.17-14.12-14.45-24-18a1.27,1.27,0,0,0-1.59.32C55.67,49.52,54,51.16,52.17,52.91Z"/><path d="M54,0a46.19,46.19,0,0,1,6.38,1.62c8.13,3.31,13.2,9.33,14.42,18,1.44,10.21-2.55,18.16-11.35,23.54-8,4.92-19.4,3.74-26.45-2.52C31.78,36,28.91,30.24,29,23.29,29,14,33.33,7.05,41.49,2.57a21.34,21.34,0,0,1,8-2.41A4,4,0,0,0,50.11,0Z"/><path d="M52.17,52.91c1.79-1.75,3.5-3.39,5.15-5.09a1.27,1.27,0,0,1,1.59-.32c9.84,3.54,17.61,9.82,24,18A77.67,77.67,0,0,1,95.29,89.38c1.06,3.24,1.84,6.56,2.75,9.84a3.69,3.69,0,0,1,0,.54H79.77l-2.71-9.51-.25,0v9.47H28.94V72.88c-1.39.08-2.64.22-3.89.23-10.11,0-17.14-5.42-19.59-15.26a38.47,38.47,0,0,1-1-11.11,5.52,5.52,0,0,0-.57-2.51,12.72,12.72,0,0,1-1.08-3.79C2.32,35,2,29.56,1.66,24.11a2,2,0,0,1,.89-2,1.68,1.68,0,0,1,2.52,1.33c.15,1.32.23,2.65.36,4a6.82,6.82,0,0,0,.2.87l.3,0A7.71,7.71,0,0,0,6,27.08c-.12-2.37-.27-4.74-.38-7.11-.07-1.56.52-2.49,1.51-2.54s1.72.82,1.86,2.33c.19,2.07.3,4.15.46,6.22a8.54,8.54,0,0,0,.17,1L10,27a6,6,0,0,0,.14-1.11c-.14-2.59-.31-5.18-.45-7.78a5.91,5.91,0,0,1,.05-1.26,1.52,1.52,0,0,1,1.55-1.44A1.63,1.63,0,0,1,13,16.9c.12.9.15,1.82.21,2.72.13,2.14.25,4.28.39,6.42a10.16,10.16,0,0,0,.22,1.07h.32a7.3,7.3,0,0,0,.09-1c-.08-1.85-.2-3.7-.29-5.54A7.26,7.26,0,0,1,14,19a1.42,1.42,0,0,1,1.42-1.24,1.47,1.47,0,0,1,1.67,1,4.71,4.71,0,0,1,.23,1.34q.41,7,.79,14a3.11,3.11,0,0,0,.38,1.4,21.45,21.45,0,0,1,.78-2.07,29.61,29.61,0,0,1,2-3.64A2.54,2.54,0,0,1,22.94,29a1.25,1.25,0,0,1,1.32,1.68c-1.18,3.29-2.34,6.6-3.72,9.81a9.12,9.12,0,0,1-2.37,2.77A2.88,2.88,0,0,0,17,46.14c.53,2.53,1,5.08,1.5,7.62a6.12,6.12,0,0,0,.6,1.43c1.2,2.34,2.63,3.05,5.25,2.63a26.89,26.89,0,0,0,9.35-3.7c3-1.78,6-3.68,9-5.44a31.82,31.82,0,0,1,3.23-1.35,1,1,0,0,1,1.26.33C48.83,49.41,50.49,51.14,52.17,52.91Zm.06,45.89c1.74-2.37,3.37-4.63,5-6.86a2.06,2.06,0,0,0,.47-1.77c-.28-1.5-.45-3-.68-4.52q-2-13.49-4-27c-.22-1.48-.46-3-.71-4.59-.15.22-.21.26-.21.31q-2.72,18.1-5.41,36.21a1.21,1.21,0,0,0,.16.8C48.6,93.84,50.36,96.24,52.23,98.8Z"/><path class="cls-2" d="M52.23,98.8c-1.87-2.56-3.63-5-5.38-7.39a1.21,1.21,0,0,1-.16-.8q2.69-18.1,5.41-36.21s.06-.09.21-.31c.25,1.63.49,3.11.71,4.59q2,13.49,4,27c.23,1.5.4,3,.68,4.52a2.06,2.06,0,0,1-.47,1.77C55.6,94.17,54,96.43,52.23,98.8Z"/></g></g></svg>