<svg id="partnerships" xmlns="http://www.w3.org/2000/svg" width="97.415" height="97.415" viewBox="0 0 97.415 97.415">
  <path id="Path_77323" data-name="Path 77323" d="M16.012,37.467l-1.181-1.181a5.475,5.475,0,0,1,3.686-9.347,5.472,5.472,0,0,1,5.274-5.274,5.472,5.472,0,0,1,5.274-5.274,5.115,5.115,0,0,1,3.247-4.558L30.075,9.854h-2.06L9.708,27.648V36.74l3.516,3.516Z" transform="translate(7.358 7.469)" fill="#fcb200"/>
  <path id="Path_77324" data-name="Path 77324" d="M21.973,4.976,5.122,21.827l6.3,6.3L28.277,11.278Zm-4.76,8.575,3.516-3.516,2.486,2.486L19.7,16.037Z" transform="translate(3.882 3.771)" fill="#5cc7ff"/>
  <path id="Path_77325" data-name="Path 77325" d="M24.973,57.13l6.3-6.3L14.426,33.976l-6.3,6.3ZM22.7,46.067l3.516,3.516-2.486,2.486-3.516-3.516Z" transform="translate(6.156 25.751)" fill="#5cc7ff"/>
  <path id="Path_77326" data-name="Path 77326" d="M52.005,31.648,33.7,13.854H28.122L52.005,37.222Z" transform="translate(21.314 10.5)" fill="#fcb200"/>
  <path id="Path_77327" data-name="Path 77327" d="M33.122,49.827l6.3,6.3L56.277,39.278l-6.3-6.3ZM47.7,44.039l-2.487-2.487,3.516-3.516,2.486,2.486Z" transform="translate(25.104 24.993)" fill="#5cc7ff"/>
  <path id="Path_77328" data-name="Path 77328" d="M26.771,43.827v-6.3L16.224,26.976l-3.516,3.516v5.576l18.307,18.82h5.576l-9.306-9.561A2.426,2.426,0,0,1,26.771,43.827Z" transform="translate(9.632 20.446)" fill="#fcb200"/>
  <path id="Path_77329" data-name="Path 77329" d="M43.078,28.9l-2.487,2.486L27.619,18.411A1.971,1.971,0,0,0,24.831,21.2L37.8,34.171l-2.486,2.486L22.345,23.685a1.971,1.971,0,0,0-2.788,2.788L32.529,39.445l-2.486,2.486L17.072,28.959a1.971,1.971,0,0,0-2.788,2.788l20,20L31.8,54.236l-2.273-2.271v2.06l9.517,10.031h5.576L62.929,45.234v-2.06L33.559,13.8l-.666-.666A1.971,1.971,0,0,0,30.1,15.926Z" transform="translate(10.389 9.52)" fill="#fcb200"/>
  <path id="Path_77330" data-name="Path 77330" d="M56.276,25.827,39.425,8.976l-6.3,6.3L49.972,32.13ZM41.7,20.037l-3.516-3.516,2.486-2.486,3.516,3.516Z" transform="translate(25.103 6.803)" fill="#5cc7ff"/>
  <g id="Group_43351" data-name="Group 43351">
    <path id="Path_77331" data-name="Path 77331" d="M76.835,51.968a1.761,1.761,0,0,0-.515-1.243L75.8,50.21l.515-.515a1.764,1.764,0,0,0,.515-1.243v-6.3l20.58-20.58L94.928,19.08,83.865,30.143,67.014,13.292,78.076,2.229,75.591,0,55.011,20.838h-6.3c-.466,0-.914-.072-1.243.258l-.515.387-.515-.578-.666-.7L39.4,14.083c-.33-.332-.777-.276-1.243-.276H35.371L21.823,0,19.337,2.359l4.031,3.966L6.517,23.145,2.486,19.1,0,21.575,13.548,35.116v9.82a1.756,1.756,0,0,0,.515,1.243l4.759,4.759v5.576L0,75.334,2.487,77.82l9.3-9.3L28.644,85.368l-9.3,9.3,2.486,2.742L40.647,78.85h6.3a1.756,1.756,0,0,0,1.243-.515l1.243-1.243h5.576l20.58,20.323L78.078,94.8,67.015,83.673,83.867,66.79,94.928,77.837l2.486-2.494L76.835,54.754ZM64.53,15.779,81.381,32.63l-6.3,6.3L58.226,22.081Zm-9.519,8.575L73.318,42.148v5.576L49.436,24.354ZM73.319,52.7v2.06L55.011,73.576H49.434L39.917,63.543v-2.06l2.273,2.273,2.486-2.486-20-20a1.971,1.971,0,0,1,2.788-2.788L40.432,51.453l2.486-2.487L29.946,35.993a1.971,1.971,0,0,1,2.788-2.786L45.706,46.179l2.486-2.487L35.22,30.72a1.971,1.971,0,0,1,2.788-2.786L50.98,40.905l2.486-2.487L40.494,25.446a1.971,1.971,0,0,1,2.788-2.786l.666.666ZM25.855,8.747l6.3,6.3L15.308,31.9,9,25.6Zm-8.79,26.369L35.373,17.323h2.06L39.669,19.3a5.294,5.294,0,0,0-3.247,4.687A5.415,5.415,0,0,0,31.149,29.2a5.444,5.444,0,0,0-5.274,5.242,5.457,5.457,0,0,0-3.686,9.322l1.181,1.178-2.788,2.786-3.516-3.518ZM31.129,82.881,14.278,66.029l6.3-6.3L37.433,76.578Zm9.517-7.547L22.34,56.512V50.936l3.516-3.516L36.4,57.967v6.3a2.413,2.413,0,0,0,.515,1.5l9.3,9.563ZM64.53,81.123l-6.3-6.3,16.851-16.85,6.3,6.3Z"/>
    <rect id="Rectangle_5905" data-name="Rectangle 5905" width="4.971" height="3.516" transform="translate(70.318 66.545) rotate(-45)"/>
    <rect id="Rectangle_5906" data-name="Rectangle 5906" width="3.516" height="4.971" transform="translate(26.368 74.304) rotate(-45)"/>
    <rect id="Rectangle_5907" data-name="Rectangle 5907" width="4.971" height="3.516" transform="translate(21.095 17.324) rotate(-45)"/>
    <rect id="Rectangle_5908" data-name="Rectangle 5908" width="3.516" height="4.971" transform="translate(63.285 23.326) rotate(-45)"/>
  </g>
</svg>
