<svg xmlns="http://www.w3.org/2000/svg" width="22.979" height="28" viewBox="0 0 22.979 28">
  <g id="pdf-icon" transform="translate(-1004 -726.528)">
    <path id="Path_77253" data-name="Path 77253" d="M-340.46-251.5c.76.8,1.516,1.611,2.28,2.41q3,3.14,6.015,6.274c.068.071.13.147.2.221-2.729,0-5.458,0-8.187.007-.289,0-.366-.087-.365-.37.008-2.848,0-5.7,0-8.543Z" transform="translate(1358.74 978.028)" fill="#ec676a"/>
    <path id="Path_77254" data-name="Path 77254" d="M-383.21-19.831c-.2-.036-.413-.012-.619-.031-.176-.016-.212.059-.209.219.009.454,0,.908,0,1.362v.888c0,.741,0,.741.733.642a1.387,1.387,0,0,0,1.336-1.484A1.4,1.4,0,0,0-383.21-19.831Z" transform="translate(1398.813 762.291)" fill="#e4252a"/>
    <path id="Path_77255" data-name="Path 77255" d="M-497.17-238.895c0-.158,0-.316-.01-.475a.3.3,0,0,0-.191-.3,5.339,5.339,0,0,0-1-.061q-3.324,0-6.648,0c-.754,0-.754,0-.754-.754q0-3.665,0-7.33a1,1,0,0,0-.138-.682h-10.747a4.414,4.414,0,0,0-1.15.248,3.882,3.882,0,0,0-2.307,3.563c-.015,7.6.007,12.757-.018,20.355a3.968,3.968,0,0,0,3.815,3.835c5.115-.032,10.229-.007,15.344-.015a3.506,3.506,0,0,0,1.255-.174,4.133,4.133,0,0,0,2.565-3.728C-497.186-230.055-497.17-233.256-497.17-238.895Zm-14.164,6.989a1.691,1.691,0,0,1-1.644,1.631,7,7,0,0,1-.889.013c-.253-.016-.349.049-.335.322.024.483,0,.968.01,1.452,0,.18-.046.243-.232.234-.316-.015-.633-.016-.948,0-.2.01-.248-.054-.246-.247.01-.85,0-1.7,0-2.55,0-.83,0-1.66,0-2.49,0-.193.033-.282.255-.277.672.014,1.344,0,2.016.008a3.251,3.251,0,0,1,.619.053A1.689,1.689,0,0,1-511.335-231.906Zm5.463.942a2.55,2.55,0,0,1-2.3,2.65,21.488,21.488,0,0,1-2.429.057c-.182.007-.148-.116-.148-.219q0-1.276,0-2.552c0-.841.006-1.681,0-2.522,0-.2.053-.277.264-.268a15.45,15.45,0,0,1,2.456.091A2.551,2.551,0,0,1-505.871-230.963Zm4.377-1.629c-.652-.013-1.306,0-1.958-.009-.207,0-.293.03-.288.268.013.624,0,.624.613.624.4,0,.791.009,1.187,0,.185-.006.241.056.231.236a5.9,5.9,0,0,0,0,.741c.014.2-.069.228-.24.225-.524-.009-1.048,0-1.572-.007-.168,0-.218.049-.216.216.009.6,0,1.207.007,1.81,0,.175-.036.248-.228.238a9.652,9.652,0,0,0-.979,0c-.2.011-.223-.071-.222-.24.007-.85,0-1.7,0-2.551s.006-1.681,0-2.522c0-.195.054-.252.248-.251q1.721.012,3.441,0c.216,0,.272.072.258.272a4.234,4.234,0,0,0,0,.682C-501.187-232.629-501.282-232.588-501.494-232.592Z" transform="translate(1524.139 975.028)" fill="#e4252a"/>
    <path id="Path_77256" data-name="Path 77256" d="M-445.067-19.251c0-.565,0-.565.574-.564a3.524,3.524,0,0,1,.356.007.542.542,0,0,1,.517.515.523.523,0,0,1-.464.588c-.282.035-.572.015-.858.022-.114,0-.126-.065-.125-.153C-445.066-18.974-445.067-19.112-445.067-19.251Z" transform="translate(1455.011 762.246)" fill="#e4252a"/>
  </g>
</svg>
