<svg xmlns="http://www.w3.org/2000/svg" width="33.067" height="34" viewBox="0 0 33.067 34">
  <g id="Group_43079" data-name="Group 43079" transform="translate(2215.161 -6295.055)">
    <g id="recruitment-icon">
      <path id="Path_68643" data-name="Path 68643" d="M1390.672,1336.294c1.1,1.093,2.2,2.185,3.293,3.287a1.817,1.817,0,1,1-2.556,2.583c-1.014-1-2.015-2.007-3.016-3.018a1.988,1.988,0,0,1-.229-.346,11.178,11.178,0,1,1,2.507-2.506Zm-9.108-15.951a9.4,9.4,0,1,0,9.386,9.415A9.421,9.421,0,0,0,1381.565,1320.343Z" transform="translate(-3580.181 4986.332)" fill="#f9f9f9"/>
      <path id="Path_68644" data-name="Path 68644" d="M1337.008,1229.151a3.693,3.693,0,1,1,3.675,3.752A3.688,3.688,0,0,1,1337.008,1229.151Z" transform="translate(-3550.359 5069.554)" fill="#f9f9f9"/>
      <path id="Path_68645" data-name="Path 68645" d="M1546.4,1229.215a3.693,3.693,0,1,1,3.7,3.69A3.69,3.69,0,0,1,1546.4,1229.215Z" transform="translate(-3737.684 5069.553)" fill="#f9f9f9"/>
      <path id="Path_68646" data-name="Path 68646" d="M1329.826,1306.119c-.952.791-1.832,1.516-2.7,2.251a2.03,2.03,0,0,0-.456.49,1.359,1.359,0,0,1-1.4.611c-1.54-.036-3.081-.011-4.621-.013-.654,0-.894-.266-.781-.916a5.411,5.411,0,0,1,2.245-3.58.461.461,0,0,1,.406-.018,5.427,5.427,0,0,0,5.633-.007.328.328,0,0,1,.45.032Z" transform="translate(-3535 4998.554)" fill="#f9f9f9"/>
      <path id="Path_68647" data-name="Path 68647" d="M1538.3,1306.373c.46-.423.9-.843,1.366-1.241a.379.379,0,0,1,.34,0,5.472,5.472,0,0,0,5.673.013.461.461,0,0,1,.4.023,5.423,5.423,0,0,1,2.239,3.585c.111.646-.129.907-.79.908-1.724,0-3.449,0-5.173-.006a.638.638,0,0,1-.443-.159,13.7,13.7,0,0,0-3.455-2.975A1.776,1.776,0,0,1,1538.3,1306.373Z" transform="translate(-3730.444 4998.349)" fill="#f9f9f9"/>
      <path id="Path_68648" data-name="Path 68648" d="M1445.3,1352.974a3.7,3.7,0,1,1-3.712,3.679A3.7,3.7,0,0,1,1445.3,1352.974Z" transform="translate(-3643.919 4955.512)" fill="#f9f9f9"/>
      <path id="Path_68649" data-name="Path 68649" d="M1427.1,1431.953a5.766,5.766,0,0,0,2.459.863,5.373,5.373,0,0,0,3.33-.731.4.4,0,0,1,.519.03,5.572,5.572,0,0,1,2.213,3.734.6.6,0,0,1-.541.73,2.151,2.151,0,0,1-.315.009h-9.276c-.748,0-.957-.254-.832-1A5.433,5.433,0,0,1,1427.1,1431.953Z" transform="translate(-3628.738 4884.855)" fill="#f9f9f9"/>
    </g>
  </g>
</svg>
