<svg xmlns="http://www.w3.org/2000/svg" width="755.915" height="585.75" viewBox="0 0 755.915 585.75">
  <g id="reset-password" transform="translate(-141 -230)">
    <rect id="Rectangle_67" data-name="Rectangle 67" width="452.445" height="331.199" rx="5" transform="translate(362 283.308)" fill="#f2f2f2"/>
    <path id="Rectangle_68" data-name="Rectangle 68" d="M5,0H447.445a5,5,0,0,1,5,5v7.744a0,0,0,0,1,0,0H0a0,0,0,0,1,0,0V5A5,5,0,0,1,5,0Z" transform="translate(361.712 283.308)" fill="#1a1a1a"/>
    <path id="Path_191" data-name="Path 191" d="M94.444,60.842a2.567,2.567,0,1,1-2.567-2.568A2.567,2.567,0,0,1,94.444,60.842Z" transform="translate(279.559 228.838)" fill="#d47172"/>
    <ellipse id="Ellipse_16" data-name="Ellipse 16" cx="2.567" cy="2.567" rx="2.567" ry="2.567" transform="translate(379.352 287.112)" fill="#7696ea"/>
    <ellipse id="Ellipse_17" data-name="Ellipse 17" cx="2.567" cy="2.567" rx="2.567" ry="2.567" transform="translate(389.835 287.112)" fill="#9dd1c9"/>
    <g id="Group_178" data-name="Group 178" transform="translate(278 230)">
      <path id="Path_31" data-name="Path 31" d="M169.706,97.6h3.913a14.9,14.9,0,0,0,14.9,14.9v3.913a14.9,14.9,0,0,0-14.9,14.9h-3.913a14.9,14.9,0,0,0-14.9-14.9v-3.913A14.9,14.9,0,0,0,169.706,97.6Z" transform="translate(-127.953 -53.581)" fill="#1a1a1a"/>
      <path id="Path_32" data-name="Path 32" d="M154.855,73.775h1.73a14.9,14.9,0,0,0,14.9,14.9v1.729a14.9,14.9,0,0,0-14.9,14.9h-1.73a14.9,14.9,0,0,0-14.9-14.9V88.678A14.9,14.9,0,0,0,154.855,73.775Z" transform="translate(-139.954 -72.838)" fill="none" stroke="#1a1a1a" stroke-miterlimit="10" stroke-width="0.5"/>
      <path id="Path_33" data-name="Path 33" d="M181.711,73.257h0a14.9,14.9,0,0,0,14.9,14.9h0a14.9,14.9,0,0,0-14.9,14.9h0a14.9,14.9,0,0,0-14.9-14.9h0A14.9,14.9,0,0,0,181.711,73.257Z" transform="translate(-118.249 -73.257)" fill="#920061"/>
    </g>
    <g id="Group_1309" data-name="Group 1309">
      <g id="Group_1308" data-name="Group 1308" transform="translate(0 -23.5)">
        <path id="Path_18" data-name="Path 18" d="M82.714,119.2,67.747,137.65a8.481,8.481,0,0,0-1.187,4.342v85.552a8.512,8.512,0,0,0,8.511,8.513l81.07-.3c1.062.067,5.242.2,7.231-1.789,3.73-3.73,17.955-18.35,17.955-18.35" transform="translate(464.439 241.583)" fill="none" stroke="#1a1a1a" stroke-miterlimit="10" stroke-width="0.5"/>
        <rect id="Rectangle_15" data-name="Rectangle 15" width="100.192" height="102.578" rx="4.79" transform="translate(545.5 359.5)" fill="none" stroke="#1a1a1a" stroke-miterlimit="10" stroke-width="0.5"/>
        <path id="Path_693" data-name="Path 693" d="M760.219,184.376l5.853-12.718a32.635,32.635,0,1,1,8.523,8l.011.014Z" transform="translate(-196.706 258.254)" fill="#fff" stroke="#920061" stroke-width="1"/>
        <path id="Path_694" data-name="Path 694" d="M802.33,152.406a8.633,8.633,0,1,0-13.4-2.049v0L787.18,152l.419,2.916-2.727-.764-2.2,2.05.42,2.916-2.727-.763-1.888,1.761.256,1.777-1.662-.466-1.1,1.026-.166,2.7,4.027,1.014,13.068-12.192a8.631,8.631,0,0,0,9.425-1.565m-1.275-10.615a2.476,2.476,0,1,1-3.5-.122,2.477,2.477,0,0,1,3.5.122" transform="translate(-196.706 258.254)" fill="#920061"/>
        <line id="Line_6" data-name="Line 6" x1="13.235" y2="14.256" transform="translate(533.5 460.744)" fill="none" stroke="#1a1a1a" stroke-miterlimit="10" stroke-width="0.5"/>
      </g>
    </g>
    <g id="Group_1251" data-name="Group 1251" transform="translate(-3220.773 -304.801)">
      <g id="Group_1249" data-name="Group 1249" transform="translate(3853.26 782.441)">
        <path id="Path_1725" data-name="Path 1725" d="M4082.6,988H3963.674a21.554,21.554,0,0,1-21.554-21.554V863.485a81.093,81.093,0,0,1,49.477-74.644c8.614-3.643,6.554-5.851,15.893-6.361,1.5-.082,14.135-.011,15.646-.011a80.959,80.959,0,0,1,81.016,81.016V966.446A21.554,21.554,0,0,1,4082.6,988Zm-115.16-120.221h111.4v-4.294a55.7,55.7,0,0,0-111.4,0Z" transform="translate(-3942.12 -782.441)" fill="#5cc7ff"/>
      </g>
      <g id="Group_1250" data-name="Group 1250" transform="translate(3838.773 782.469)">
        <path id="Path_1726" data-name="Path 1726" d="M3979.39,988.178H3860.467a21.554,21.554,0,0,1-21.554-21.554V863.663a81.016,81.016,0,1,1,162.031,0V966.624A21.554,21.554,0,0,1,3979.39,988.178ZM3864.23,867.956h111.4v-4.294a55.7,55.7,0,0,0-111.4,0Z" transform="translate(-3838.913 -782.647)" fill="#008dbf"/>
      </g>
      <path id="Path_1727" data-name="Path 1727" d="M4378.305,1628.853a14.286,14.286,0,0,0-3.483-9.364c-1.989-2.953-6.1-4.982-10.863-4.982s-8.875,2.029-10.864,4.982a14.344,14.344,0,0,0,6.58,23.059v21.727c0,1.752,1.919,3.173,4.284,3.173s4.284-1.421,4.284-3.173v-21.727A14.353,14.353,0,0,0,4378.305,1628.853Z" transform="translate(-443.839 -724.377)" fill="#5cc7ff"/>
    </g>
    <g id="Group_1248" data-name="Group 1248" transform="translate(1315.244 -402.681)">
      <path id="Path_1691" data-name="Path 1691" d="M-229.268,1123.192c-.526,3.565-4.6,7.692-8.941,10.787-4.675,3.331-6.548,6.752-8.206,8.46-.613.7-.991,1.087-.991,1.087l-4.99-5.805a1.382,1.382,0,0,0,.229-.22,40.563,40.563,0,0,0,5.834-7.672c4.134-7.575,9.916-8.693,9.916-8.693S-230.889,1121.956-229.268,1123.192Z" transform="translate(-566.884 -162.279)" fill="#ffb27d"/>
      <g id="Group_1246" data-name="Group 1246" transform="translate(-1174.244 857.245)">
        <g id="Group_1242" data-name="Group 1242" transform="translate(19.626 111.963)">
          <path id="Path_1692" data-name="Path 1692" d="M-868.133,1315.591l3.373,2.739s9.226-3.308,11.308,7.655c0,0,.555,4.672-2.405,4.681s-1.738-.511-5.93-.388-7.665-2.087-8.279-5.488l-2.005-2.882Z" transform="translate(968.799 -1251.065)" fill="#ea8e50"/>
          <path id="Path_1693" data-name="Path 1693" d="M-1022.991,1218.42c2.691-2.809,2.474-4.886,2.474-4.886s-31.158-25.509-34.318-27.587c-2.153-1.416-23.864-22.214-35.826-34.161-5.754-5.747-11.911-3.765-19.451-1.6l-6.209,1.782c-7.5,2.151-9.448,12.638-3.3,17.734,17.327,14.351,46.15,30.494,51.543,33.886,13.388,8.422,39.594,18.429,39.594,18.429A16.607,16.607,0,0,0-1022.991,1218.42Z" transform="translate(1123.275 -1148.016)" fill="#7b0051"/>
        </g>
        <path id="Path_1694" data-name="Path 1694" d="M-786.386,1737.881s7.562,5.666,19.148,2.672c0,0,9.341-2.129,11.39,2.531,0,0-14.327,7.279-17.953,9.269a43.42,43.42,0,0,0-7.6,5.7,3.758,3.758,0,0,1-5.44-.42c-.63-.775-1.352-1.7-2.142-2.769-2.209-2.993-7.356-12.663-7.356-12.663Z" transform="translate(941.853 -1398.786)" fill="#1a1a1a"/>
        <path id="Path_1695" data-name="Path 1695" d="M-945.146,1514.644s-4.6,10.617-15.232,8.665c0,0-21.688-17.911-36.565-36.517-4.832-6.043-8.945-12.159-11.363-17.757-9.865-22.84-36.491-56.906-53.42-74.171l42.355-15.323s13.567,27.291,31.618,60.813C-974.745,1464.506-959.411,1491.9-945.146,1514.644Z" transform="translate(1105.052 -1178.427)" fill="#fcb200"/>
        <path id="Path_1696" data-name="Path 1696" d="M-987.753,1440.354l-9.19,46.438c-4.832-6.043-8.945-12.159-11.363-17.757-9.865-22.84-36.491-56.906-53.42-74.171l42.355-15.323S-1005.8,1406.832-987.753,1440.354Z" transform="translate(1105.052 -1178.427)" fill="#f0aa01"/>
        <path id="Path_1697" data-name="Path 1697" d="M-983.864,1746.465s-.461,8.471,9.809,9.6c0,0,5.868.031,5.885,5.422l-29.849.094a23.206,23.206,0,0,1-1.077-6.833c-.161-3.578,3.467-12.93,3.467-12.93Z" transform="translate(1066.54 -1401.209)" fill="#1a1a1a"/>
        <path id="Path_1698" data-name="Path 1698" d="M-1053.518,1376.539s18.869,20.734,30.846,58.087c6.517,20.323-11.944,71.421-15.544,89.174,0,0-12.384,1.051-20.852-2.223,0,0-.644-36.668,4.308-64.93,2.772-15.817-24.844-33.828-36.91-62.407-8.209-19.443,1.777-19.113,14.05-19.58Z" transform="translate(1125.307 -1175.426)" fill="#fcb200"/>
        <path id="Path_1699" data-name="Path 1699" d="M-1095.465,1098.451c-10.5,5.928-31.99.461-31.99.461s8.728-9.978,4.762-26.048l8.243,4.186,8.854,4.5a73.378,73.378,0,0,1,.971,7.936c.1,1.313.192,2.779.255,4.382A27.531,27.531,0,0,1-1095.465,1098.451Z" transform="translate(1145.472 -989.839)" fill="#ffb07b"/>
        <path id="Path_1700" data-name="Path 1700" d="M-1069.6,1222.709c0,1.845-2.126,2.729-2.577,2.818-4.234.774-16.057,5.373-26.708,6.427-8.968.94-17.294.048-26.441-1.789-1.212-.244-4.055-1.01-4.257-2.17-.252-1.268-35.282-71.413-8.051-101.544.64-.707,6.015.567,10.931,1.733a20.179,20.179,0,0,0,12.423-1.015l4.61,2.425c5.662,3.155,16.374,14.363,17.628,23.157.636,4.473,3.194,7.785,3.934,11.719q.413,2.183.841,4.262.837,4.076,1.725,7.762c1.6,6.651,3.292,12.378,4.953,17.324,1.766,5.252,3.5,9.622,5.047,13.275,2.008,4.739,3.7,8.281,4.765,10.993A13.542,13.542,0,0,1-1069.6,1222.709Z" transform="translate(1158.102 -1022.666)" fill="#920061"/>
        <path id="Path_1701" data-name="Path 1701" d="M-1053.784,1256.107c-49.45-23.3-66.575-68.033-66.575-68.033s40.176,14.82,50.086,18.679q.837,4.076,1.724,7.762c1.6,6.652,3.292,12.378,4.953,17.325,1.766,5.252,3.5,9.622,5.047,13.275C-1056.54,1249.854-1054.844,1253.4-1053.784,1256.107Z" transform="translate(1141.108 -1060.686)" fill="#7b0051"/>
        <g id="Group_1245" data-name="Group 1245" transform="translate(14.114)">
          <g id="Group_1244" data-name="Group 1244" transform="translate(61.15)">
            <g id="Group_1243" data-name="Group 1243">
              <path id="Path_1702" data-name="Path 1702" d="M-903.992,1041.173h-27.3a47.544,47.544,0,0,1-47.49-47.491V904.735a47.544,47.544,0,0,1,47.49-47.49h27.3a47.544,47.544,0,0,1,47.49,47.49v88.948A47.544,47.544,0,0,1-903.992,1041.173Zm-27.3-155.877a19.461,19.461,0,0,0-19.439,19.439v88.948a19.461,19.461,0,0,0,19.439,19.439h27.3a19.46,19.46,0,0,0,19.439-19.439V904.735A19.46,19.46,0,0,0-903.992,885.3Z" transform="translate(978.782 -857.245)" fill="#fcb200"/>
            </g>
            <path id="Path_1703" data-name="Path 1703" d="M-440.836,1086.3H-691.183V1053.53h250.347a16.383,16.383,0,0,1,16.383,16.383h0A16.383,16.383,0,0,1-440.836,1086.3Z" transform="translate(801.925 -977.949)" fill="#fcb200"/>
            <path id="Rectangle_878" data-name="Rectangle 878" d="M0,0H26.3a0,0,0,0,1,0,0V64.213A13.148,13.148,0,0,1,13.148,77.361h0A13.148,13.148,0,0,1,0,64.213V0A0,0,0,0,1,0,0Z" transform="translate(329.676 101.75)" fill="#fcb200"/>
          </g>
          <path id="Path_1704" data-name="Path 1704" d="M-875.886,1329.258l4.273,1.567s8.557-6.05,13.885,3.79c0,0,1.927,4.3-1.123,5.232s-1.941.055-6.229,1.482-8.511.4-10.131-2.663l-2.9-2.131Z" transform="translate(978.028 -1147.338)" fill="#ffb07b"/>
          <path id="Path_1705" data-name="Path 1705" d="M-1031.931,1227.3c1.58-4.122,2.3-5.99,2.3-5.99s-32.289-26.318-35.578-28.575c-2.242-1.538-24.562-18.222-35.442-31.223a22.773,22.773,0,0,0-22.139-7.671l-6.779,1.421a10.08,10.08,0,0,0-4.494,17.519c17.881,15.329,48.039,33.108,53.662,36.806,13.959,9.181,44.835,22.045,44.835,22.045A7.951,7.951,0,0,0-1031.931,1227.3Z" transform="translate(1137.589 -1039.333)" fill="#920061"/>
        </g>
        <path id="Path_1706" data-name="Path 1706" d="M-1095.376,1096.167c-10.324.579-17.037-7.944-17.037-7.944a81.952,81.952,0,0,0,7.213-4.489l8.854,4.5A73.368,73.368,0,0,1-1095.376,1096.167Z" transform="translate(1136.221 -996.523)" fill="#ea8e50"/>
        <path id="Path_1707" data-name="Path 1707" d="M-1106.46,1046.437s-15.642,11.225-22.482,1.376-13.466-15.033-3.769-22.616,14.269-5.187,17.352-2.456S-1102.567,1043.263-1106.46,1046.437Z" transform="translate(1151.703 -957.392)" fill="#ffb07b"/>
        <path id="Path_1708" data-name="Path 1708" d="M-1136.246,993.559a25.178,25.178,0,0,0-1.823-6.45s-.982,4.066-8.413,3.505-19.209.731-23.135,9.2c-.249.539-.472,1.094-.67,1.661a19.594,19.594,0,0,1-.882-4.691c-1.412,3.646,0,8.205,0,8.205h0c-.022.133-.039.266-.058.4-1.641,1.386-3.018,5.7-3.018,5.7a5.164,5.164,0,0,1,2.778-2.47c-.034,6.589,2.639,13.031,7.329,14.949,6.859,2.8,6.8.665,13.7,5.24,0,0,1.85-2.3.588-3.838s-6.029-3.786-3.365-6.029,3.645.281,4.627-1.261-3.926-6.029,2.383-10.236S-1135.685,997.344-1136.246,993.559Z" transform="translate(1174.244 -937.104)" fill="#1a1a1a"/>
      </g>
      <g id="Group_1247" data-name="Group 1247" transform="translate(-935.738 888.003)">
        <path id="Path_1709" data-name="Path 1709" d="M-439.7,1484.126l-5.763,2.146s-25.032-34.718-28.115-65.264a46.4,46.4,0,0,1,.824-15.617s-.245-1.4-.673-3.867c-.2-1.153-.442-2.541-.72-4.131-.814-4.663-1.933-11.043-3.213-18.308-2.945-16.718-6.761-38.089-9.726-53.8l1.553-.5,16.8-5.42,3.472-11.029,12.511-3.294s2.795,5.468,5.293,31.294c.461,3.388.88,7.124,1.2,11.175a221.138,221.138,0,0,1-1.191,45.241q-.861,6.733-2.2,13.885a61.943,61.943,0,0,0-.479,13.711C-448.865,1445.319-439.7,1484.126-439.7,1484.126Z" transform="translate(513.174 -1163.373)" fill="#2b2b2b"/>
        <path id="Path_1710" data-name="Path 1710" d="M-446.258,1347.512l-27.168,54.011c-.2-1.153-.442-2.541-.72-4.131-.814-4.663-1.933-11.043-3.213-18.308-2.945-16.718-6.761-38.089-9.726-53.8l1.553-.5,16.8-5.42,3.472-11.029,12.511-3.294s2.795,5.468,5.293,31.294C-446.992,1339.725-446.573,1343.461-446.258,1347.512Z" transform="translate(513.174 -1163.373)" fill="#1a1a1a"/>
        <path id="Path_1711" data-name="Path 1711" d="M-498.31,1301.941l-.629-5.393c-10.537,2.8-38.689-7.82-38.689-7.82s-10.208,8.972-8.868,30.48c.654,10.5,1.849,55.107,3.1,68.307.451,4.784.846,8.189,1.007,9.549a.024.024,0,0,1,0,.013,1.888,1.888,0,0,1-.306,1.169,62.011,62.011,0,0,0-4.607,9.687c-12.249,32.641,1.887,72.838,1.887,72.838l3.668-1.478s8.044-44.735,14.58-64.5a39.156,39.156,0,0,1,3.148-7.56c2.842-4.586,5.479-12.081,7.873-20.994,4.525-16.852,8.166-38.775,10.59-55.7C-505.222,1330.561-498.31,1301.941-498.31,1301.941Z" transform="translate(553.274 -1153.34)" fill="#2b2b2b"/>
        <path id="Path_1712" data-name="Path 1712" d="M-320.759,1129.853c3.182,1.268,6.3,3.766,9.38,6.879,0,0-17.971,31.341-28.314,35.9-5.678,2.5-23.444-16.48-27.116-27.116-.9-2.6,2.416-11.3,1.331-13.126a18.237,18.237,0,0,1-2.417-6.8,3.267,3.267,0,0,1-.112-.954,15.065,15.065,0,0,1,.325-5.435c.411-1.057,1.574-1.512,3.3-1.484h.611c9.306,5.476,21.534,32.372,23.551,33C-334.96,1144.054-320.759,1129.853-320.759,1129.853Z" transform="translate(440.007 -1048.177)" fill="#7b0051"/>
        <path id="Path_1713" data-name="Path 1713" d="M-415.891,1090.522a32.8,32.8,0,0,1-12.135,2.842c-18.115.993-22.227-14.887-22.976-25.427a15.2,15.2,0,0,1,6.216-.786c1.284.071,2.625.2,3.731.339,2.216-1.157,6.2-6.78,8.5-16.186l.781.362,13.071,6.145s-1.388,4.254-2.414,8.323c-.8,3.185-1.374,6.263-.894,7.124,1.03.419,1.647.682,1.647.682a.039.039,0,0,0,0,.014A89.68,89.68,0,0,1-415.891,1090.522Z" transform="translate(490.984 -1007.339)" fill="#ffb27d"/>
        <path id="Path_1714" data-name="Path 1714" d="M-458.667,1127.548c-.137.362-.287.716-.452,1.078-4.588,9.881-13.081,50.812-13.081,50.812,1.21,7.359-55.3-1.445-55.45-8.145-1.99-7.105,7.062-18.52,12.168-24.246a16.294,16.294,0,0,0,1.712-2.305,16.069,16.069,0,0,0,2.315-6.757c1-9.5-2.729-31.4-1.722-35.635.393-1.655,7.877,7.813,8.771,6.863a5.268,5.268,0,0,0,1.67-3.289,17.518,17.518,0,0,0-.07-2.757c-.042-.438-.1-.875-.165-1.313-.705-4.6-9.5-2.634-9.5-2.634,3.222-7.756,20.378-7.137,20.375-6.927s-.01.48-.015,1.266c-.028,3.157,0,11.265,1.012,12.8,1.266,1.91,24.42,10.281,25.643,7.688,1.2-2.55-2.094-14.5-2.216-14.948a.039.039,0,0,1,0-.014,45.884,45.884,0,0,1,5.618,2.935C-459.148,1107.844-455.054,1117.963-458.667,1127.548Z" transform="translate(538.292 -1032.479)" fill="#920061"/>
        <path id="Path_1715" data-name="Path 1715" d="M-419.736,946.815c-.029-.786-.636-9.248-13.527-9.691,0,0,6.339.756,7.434,3.543,0,0-4.316-3.443-7.831-2.336s-5.579,7.266-5.6,9.291,1.932,8.555,4.163,9.11a6.806,6.806,0,0,0,2.7,0,30.459,30.459,0,0,0-1.732,3.09c-5.144,10.559.161,20.878,4.516,19.738,2.793-.731,3.583,4.035,3.583,4.035l27.133-21.966S-408.862,941.011-419.736,946.815Z" transform="translate(483.764 -937.124)" fill="#1a1a1a"/>
        <path id="Path_1716" data-name="Path 1716" d="M-388,1058.4s-1.389,4.249-2.413,8.323c-7.641-2.132-9.961-10.163-10.659-14.468Z" transform="translate(460.282 -1007.922)" fill="#ed985f"/>
        <path id="Path_1717" data-name="Path 1717" d="M-388.121,1026.8s-18.279-4.23-15.47-15.573,2.343-19.528,14.133-17.307,12.977,7.109,12.959,11.124S-383.294,1027.612-388.121,1026.8Z" transform="translate(462.01 -971.828)" fill="#ffb27d"/>
        <path id="Path_1718" data-name="Path 1718" d="M-382.809,995.307c-1.965-4.111-4.278-3.892-5.725-3.163a13.112,13.112,0,0,0-17.013-1.454,22.324,22.324,0,0,1-10.27,11.034s2.808,2.875,10.947,2.811a13.393,13.393,0,0,0,7.26-2.733,43.758,43.758,0,0,1-9.531,7.109c10.188-1.95,17.02-13.745,17.72-15,.863,1.274,2.514,3.988,2.653,6.279.189,3.114-.883,9.159.9,9.389C-385.867,1009.58-379.862,1001.472-382.809,995.307Z" transform="translate(469.348 -968.527)" fill="#1a1a1a"/>
        <path id="Path_1719" data-name="Path 1719" d="M-525.651,1769.123h-29.027s-.7-4.424.821-7.78c1.452-3.221,3.728-4.684,3.183-8.581a10.454,10.454,0,0,0,9.047,3.461c.514.833,3.319,5.295,5.037,6.529C-534.694,1764.115-526.235,1763.63-525.651,1769.123Z" transform="translate(554.838 -1438.695)" fill="#1a1a1a"/>
        <path id="Path_1720" data-name="Path 1720" d="M-364.03,1771.2h-29.027s-1.085-4.63.821-7.78c1.687-2.788,1.04-4.376-.209-6.682a11.269,11.269,0,0,0,4.889.921,10.227,10.227,0,0,0,4.317-1.519c1.249,1.425,6.6,7.487,8.27,8.688C-373.073,1766.194-364.614,1765.708-364.03,1771.2Z" transform="translate(455.541 -1440.774)" fill="#1a1a1a"/>
      </g>
      <path id="Path_1721" data-name="Path 1721" d="M-214.642,1111.262h44.181l-2.455-17.134-39.447,1.585Z" transform="translate(-590.101 -145.669)" fill="#fcb200"/>
      <path id="Path_1722" data-name="Path 1722" d="M-227.3,1051.74c-2.06,2.052-2.011,8.629-6.355,11.724-4.675,3.331-6.548,6.752-8.206,8.46-.613.7-.991,1.087-.991,1.087l-4.99-5.805a1.389,1.389,0,0,0,.229-.219,40.592,40.592,0,0,0,5.834-7.672c4.134-7.575,9.916-8.693,9.916-8.693S-228.922,1050.5-227.3,1051.74Z" transform="translate(-569.684 -118.914)" fill="#ffb27d"/>
      <path id="Path_1723" data-name="Path 1723" d="M-393.47,1081.853l7.364,8.24s-19.678,17.129-23.785,20.688a45.94,45.94,0,0,1-7.922,5.671,5.258,5.258,0,0,1-.685.306c-5.777,2.529-18.25,2.248-30.716.4-1.723-.251-3.424-.54-5.088-.807a119.355,119.355,0,0,1-16.813-4.089,46.8,46.8,0,0,1-7.407-2.974,19.222,19.222,0,0,1-1.941-1.087c-9.748-5.839-9.276-11.264-9.091-13.212a6.71,6.71,0,0,1,4.842-5.575c7.735-2.509,33.685,7.492,37.507,8.215,2.294.485,8.263,2.6,10.272,2.967a60.144,60.144,0,0,0,9.19,1.138c1.407.015,3.889-.856,6.889-2.182C-415.621,1097.264-393.47,1081.853-393.47,1081.853Z" transform="translate(-421.003 -138.121)" fill="#7b0051"/>
      <path id="Path_1724" data-name="Path 1724" d="M-233.474,1132.182a6.549,6.549,0,0,1-.673-2.64,15.013,15.013,0,0,1,3.435-5.117c.7-.482,1.622-1.666,1.841-.877s-.833,4.909-2.06,6.531A6.335,6.335,0,0,1-233.474,1132.182Z" transform="translate(-578.106 -163.598)" fill="#ffb27d"/>
    </g>
    <path id="Path_315" data-name="Path 315" d="M426.443,320.675h3.208a21.282,21.282,0,0,0,21.283,21.28v3.208a21.282,21.282,0,0,0-21.283,21.28h-3.208a21.28,21.28,0,0,0-21.28-21.28v-3.208A21.28,21.28,0,0,0,426.443,320.675Z" transform="translate(445.98 292.704)" fill="#920061"/>
  </g>
</svg>
