<svg xmlns="http://www.w3.org/2000/svg" width="20" height="20" viewBox="0 0 20 20">
  <path id="service-management-icon" d="M-2817.109,146.169H-2820a.78.78,0,0,1-.445-.715c-.034-.473-.114-.942-.166-1.414a.211.211,0,0,0-.164-.2q-.823-.324-1.635-.675a.214.214,0,0,0-.26.025c-.4.323-.805.639-1.21.955a.6.6,0,0,1-.9-.055q-.849-.849-1.7-1.7a.6.6,0,0,1-.057-.885c.316-.406.631-.811.953-1.212a.214.214,0,0,0,.035-.258q-.356-.821-.685-1.653a.2.2,0,0,0-.188-.152c-.511-.055-1.02-.125-1.53-.183a.611.611,0,0,1-.608-.667q0-1.2,0-2.4a.62.62,0,0,1,.633-.684c.5-.055,1.007-.125,1.511-.179.111-.012.145-.063.183-.159.218-.548.442-1.094.676-1.635a.227.227,0,0,0-.032-.276c-.323-.4-.638-.806-.953-1.212a.6.6,0,0,1,.048-.871q.86-.865,1.726-1.726a.594.594,0,0,1,.871-.048c.411.32.821.64,1.227.966a.2.2,0,0,0,.243.026q.822-.353,1.653-.684c.1-.038.145-.072.157-.184.055-.511.125-1.02.182-1.53a.61.61,0,0,1,.663-.612h2.421a.611.611,0,0,1,.667.608c.056.5.125,1.007.178,1.511a.225.225,0,0,0,.175.213q.814.32,1.618.668a.228.228,0,0,0,.276-.029c.4-.323.805-.639,1.211-.954a.6.6,0,0,1,.871.045q.865.861,1.725,1.726a.6.6,0,0,1,.053.87c-.32.41-.641.82-.966,1.226a.2.2,0,0,0-.03.242c.239.554.462,1.114.7,1.668a.261.261,0,0,0,.167.138c.476.069.953.141,1.432.177a.778.778,0,0,1,.714.445v2.891a.777.777,0,0,1-.714.444c-.473.036-.942.115-1.413.167a.211.211,0,0,0-.2.162q-.324.822-.677,1.634a.227.227,0,0,0,.035.275c.323.4.639.8.954,1.21a.594.594,0,0,1-.05.87q-.859.865-1.724,1.726a.6.6,0,0,1-.87.05c-.406-.315-.811-.631-1.211-.953a.228.228,0,0,0-.276-.034q-.811.352-1.635.675a.211.211,0,0,0-.162.2c-.052.472-.131.941-.166,1.413A.777.777,0,0,1-2817.109,146.169Zm-6.444-10a5.011,5.011,0,0,0,4.994,5,5.012,5.012,0,0,0,5-5,5.009,5.009,0,0,0-4.993-4.995A5.01,5.01,0,0,0-2823.553,136.173Z" transform="translate(2828.554 -126.169)" fill="#fff"/>
</svg>
