<svg xmlns="http://www.w3.org/2000/svg" xmlns:xlink="http://www.w3.org/1999/xlink" width="718.202" height="581.426" viewBox="0 0 718.202 581.426">
  <defs>
    <filter id="Rectangle_1627" x="0" y="47.81" width="204.26" height="261.825" filterUnits="userSpaceOnUse">
      <feOffset dy="15" input="SourceAlpha"/>
      <feGaussianBlur stdDeviation="12.5" result="blur"/>
      <feFlood flood-color="#dfdfdf" flood-opacity="0.502"/>
      <feComposite operator="in" in2="blur"/>
      <feComposite in="SourceGraphic"/>
    </filter>
    <filter id="Rectangle_1628" x="365.787" y="47.595" width="204.26" height="261.825" filterUnits="userSpaceOnUse">
      <feOffset dy="15" input="SourceAlpha"/>
      <feGaussianBlur stdDeviation="12.5" result="blur-2"/>
      <feFlood flood-color="#dfdfdf" flood-opacity="0.502"/>
      <feComposite operator="in" in2="blur-2"/>
      <feComposite in="SourceGraphic"/>
    </filter>
    <filter id="Rectangle_1629" x="149.844" y="0" width="270.779" height="357.969" filterUnits="userSpaceOnUse">
      <feOffset dy="15" input="SourceAlpha"/>
      <feGaussianBlur stdDeviation="12.5" result="blur-3"/>
      <feFlood flood-color="#dfdfdf" flood-opacity="0.502"/>
      <feComposite operator="in" in2="blur-3"/>
      <feComposite in="SourceGraphic"/>
    </filter>
  </defs>
  <g id="sign-up-vector" transform="translate(-115.683 -280.69)">
    <path id="Path_315" data-name="Path 315" d="M426.443,320.675h3.208a21.282,21.282,0,0,0,21.283,21.28v3.208a21.282,21.282,0,0,0-21.283,21.28h-3.208a21.28,21.28,0,0,0-21.28-21.28v-3.208A21.28,21.28,0,0,0,426.443,320.675Z" transform="translate(382.951 429.325)" fill="#920061"/>
    <g id="Group_43000" data-name="Group 43000">
      <g id="Group_42983" data-name="Group 42983" transform="translate(573 452)">
        <path id="Path_68391" data-name="Path 68391" d="M-827.693,892.209l-9.39-.758a16.236,16.236,0,0,0-20.255,2.745s-3.721,4.241.3,5.446,2.69.214,8.318,2.026,11.76,1.1,14.755-1.9l3.307-3.357Z" transform="translate(858.905 -772.36)" fill="#daa9ae"/>
        <path id="Path_68392" data-name="Path 68392" d="M-790.669,778.223v11.191s53.063,7.007,60.023,6.443c4.284-.348,28.975-18.97,33.493-30.979,2.818-7.492,4.788-13.549,4.788-13.549l5.175-32.1s-15.663,1.18-18.228,6.378-28.617,44.233-30.612,47.653C-736.031,773.264-785.539,777.653-790.669,778.223Z" transform="translate(813.641 -659.704)" fill="#fcb200"/>
        <path id="Path_68393" data-name="Path 68393" d="M-471.421,661.55s-2.38,19.513-2.648,22.272l22.187,7.612,3.975-13.762s-5.109-9.617-4.081-23.9Z" transform="translate(603.626 -616.282)" fill="#c88d94"/>
        <path id="Path_68394" data-name="Path 68394" d="M-485.473,606.571s22.622,1.034,23.049-13.064,3.634-23.459-10.791-24.715-17.4,4.038-18.683,8.71S-491.347,605.939-485.473,606.571Z" transform="translate(615.712 -559.784)" fill="#daa9ae"/>
        <path id="Path_68395" data-name="Path 68395" d="M-471.252,576.129s-1.691-18.812-21.844-18.138-16.482-22.656,14.968-13.418C-456.086,551.048-469.22,573.144-471.252,576.129Z" transform="translate(624.539 -542.406)" fill="#1a1a1a"/>
        <g id="Group_42981" data-name="Group 42981" transform="translate(83.517 183.55)">
          <path id="Path_68396" data-name="Path 68396" d="M-572.142,1725.493l-3.541,11.39h-35.143S-601.836,1721.519-572.142,1725.493Z" transform="translate(610.826 -1510.316)" fill="#1a1a1a"/>
          <path id="Path_68397" data-name="Path 68397" d="M-377.976,1725.493l-3.136,11.39H-412.23S-404.27,1721.519-377.976,1725.493Z" transform="translate(479.088 -1510.316)" fill="#1a1a1a"/>
          <path id="Path_68398" data-name="Path 68398" d="M-568.089,1093.409l60.267,1.3s-22.718,112.783-49.087,212.629l-31.811.929Z" transform="translate(596.162 -1091.462)" fill="#1a1a1a"/>
          <path id="Path_68399" data-name="Path 68399" d="M-417.422,1087.624s17.555,86.927,7.523,216.809h-27.239l-17.063-171.21h0c-.5-4.995-8.2-9.375-8.2-9.375l-.571-33.352Z" transform="translate(512.748 -1087.624)" fill="#2b2b2b"/>
          <g id="Group_42978" data-name="Group 42978" transform="translate(71.716 7.895)">
            <path id="Path_68400" data-name="Path 68400" d="M-375.61,1122.793c-15.422,0-22.124-11.189-22.19-11.3l.712-.415a25.179,25.179,0,0,0,22.039,11.713h0C-375.237,1122.792-375.425,1122.793-375.61,1122.793Z" transform="translate(397.8 -1111.075)" fill="#1a1a1a"/>
          </g>
          <g id="Group_42980" data-name="Group 42980" transform="translate(89.932 27.499)">
            <g id="Group_42979" data-name="Group 42979">
              <path id="Path_68401" data-name="Path 68401" d="M-337.18,1335.349c-2.47-16.29-4.513-35.623-5.637-55.794-.172-3.083-.33-6.256-.47-9.43-.154-3.5-.288-7.047-.4-10.538a15.924,15.924,0,0,1,.61-3.928,15.373,15.373,0,0,0,.577-3.572c-.33-13.276-.057-25.436.182-36.163q.094-4.22.174-8.268c.449-24.392.619-38.214.613-38.35h0c.006.136.613,13.889.164,38.314q-.075,4.053-.174,8.271c-.24,10.718-.511,22.865-.182,36.12a15.986,15.986,0,0,1-.6,3.813,15.33,15.33,0,0,0-.584,3.679c.111,3.488.246,7.03.4,10.527.14,3.17.3,6.339.469,9.419,1.123,20.143,2.619,39.647,5.085,55.91Z" transform="translate(343.69 -1169.306)" fill="#1a1a1a"/>
            </g>
          </g>
        </g>
        <path id="Path_68402" data-name="Path 68402" d="M-544.089,840.718c.11,3.224,1.268,5.526,4.5,5.482,0,0,23.285.772,30.956.665,8.464-.119,33.585-1.57,33.585-1.57l1.388-.018a4.488,4.488,0,0,0,4.232-5.784c-2.446-8.122-6.029-23.875-3.436-40.417a191.843,191.843,0,0,0,2.414-39.958c-1.012-17.882-5.317-30.331-11.434-35.316a108.965,108.965,0,0,0-17.7-4.656c-2.315,3.608-6.376,7.884-12.613,7.881-6.671,0-9.981-4.616-11.532-8.129-7.6.314-16.222,2.992-19.115,4.763-5.949,3.643-6.123,41.233-2.773,82.853C-544.511,820.238-544.313,834.107-544.089,840.718Z" transform="translate(652.539 -659.481)" fill="#fcb200"/>
        <path id="Path_68403" data-name="Path 68403" d="M-428.086,712.769s-5.9,8.488-12.694,8.964l6.682,9.865s14.928-7.036,14.011-14.607C-420.088,716.991-425.909,712.929-428.086,712.769Z" transform="translate(581.543 -655.416)" fill="#f0aa01"/>
        <path id="Path_68404" data-name="Path 68404" d="M-539.514,976.769l-2.373-1.021a16.236,16.236,0,0,1-19.78,5.15s-5.052-2.511-1.787-5.153,2.408-1.22,6.927-5.033,10.46-5.486,14.37-3.845l4.334,1.85Z" transform="translate(663.648 -823.554)" fill="#daa9ae"/>
        <path id="Path_68405" data-name="Path 68405" d="M-487.359,712.221s4.008,9.6,10.258,9.1l-6.3,9.914s-12.474-7.525-12.849-14.631C-496.253,716.6-489.537,712.381-487.359,712.221Z" transform="translate(618.341 -655.052)" fill="#f0aa01"/>
        <path id="Path_68406" data-name="Path 68406" d="M-445.091,739.984h-9.016a1.328,1.328,0,0,0-.727,1.745c.364,1.382,3.707,4.872,4.834,4.945S-442.4,742.311-445.091,739.984Z" transform="translate(590.916 -673.469)" fill="#920061"/>
        <path id="Path_68407" data-name="Path 68407" d="M-487.809,709s3.079,9.758,9.868,10.233l-6.471,8.646s-12.013-7.391-12.388-14.5C-496.8,713.381-489.986,709.157-487.809,709Z" transform="translate(618.704 -652.914)" fill="#fcb200"/>
        <path id="Path_68408" data-name="Path 68408" d="M-427.837,709.39s-6.153,9.626-12.943,10.1l6.44,8.834s13.878-6.47,14.253-13.575C-420.088,714.75-425.66,709.549-427.837,709.39Z" transform="translate(581.543 -653.174)" fill="#fcb200"/>
        <path id="Path_68409" data-name="Path 68409" d="M-466.506,757.087s-2.9,21.8-2.9,28.022c0,26.163,4.067,66.8,4.067,66.8a11.505,11.505,0,0,1-2.887,8.149A47.916,47.916,0,0,1-474.929,866a23.12,23.12,0,0,1-6.231-11.513c-1.1-4.949-2.585-35.55,3.5-68.284a252.307,252.307,0,0,1,7.973-29.594S-467.225,756.28-466.506,757.087Z" transform="translate(608.993 -684.453)" fill="#920061"/>
        <path id="Path_68410" data-name="Path 68410" d="M-407.491,894.934a35.482,35.482,0,0,0,20.347,16.385l1.388-.018a4.488,4.488,0,0,0,4.232-5.784c-2.446-8.121-6.029-23.875-3.436-40.417a191.845,191.845,0,0,0,2.414-39.958c-7.621-5.017-19.2-10.582-24.945-2.98C-416.5,834.074-419.176,874.485-407.491,894.934Z" transform="translate(564.63 -725.506)" fill="#f0aa01"/>
        <path id="Path_68411" data-name="Path 68411" d="M-458.428,725.311s9.808.9,17.181,3.757c7.306,2.827,18.063,69.4,13.362,78.473-4.437,8.568-70.694,10.424-70.694,10.424l.783-9.714s40.128-9.5,52.534-13.772Z" transform="translate(619.884 -663.735)" fill="#fcb200"/>
        <g id="Group_42982" data-name="Group 42982" transform="translate(64.139 108.384)">
          <path id="Path_68412" data-name="Path 68412" d="M-607.6,864.353h-58.133l12.037,42.36h57.643Z" transform="translate(666.627 -864.353)" fill="#2b2b2b"/>
          <path id="Path_68413" data-name="Path 68413" d="M-610.252,864.353h-58.133l12.037,42.36h57.643Z" transform="translate(668.386 -864.353)" fill="#1a1a1a"/>
          <rect id="Rectangle_1630" data-name="Rectangle 1630" width="74.954" height="1.461" transform="translate(86.991 43.821) rotate(180)" fill="#2b2b2b"/>
          <path id="Path_68414" data-name="Path 68414" d="M-575.218,922a4.5,4.5,0,0,0-3.292-4.113,2.487,2.487,0,0,0-3.292,2.471,4.5,4.5,0,0,0,3.292,4.113A2.487,2.487,0,0,0-575.218,922Z" transform="translate(610.951 -899.794)" fill="#fff"/>
        </g>
      </g>
      <g id="Group_42998" data-name="Group 42998" transform="translate(4.911)">
        <g id="Group_42997" data-name="Group 42997">
          <g transform="matrix(1, 0, 0, 1, 110.77, 280.69)" filter="url(#Rectangle_1627)">
            <rect id="Rectangle_1627-2" data-name="Rectangle 1627" width="129.26" height="186.825" rx="10" transform="translate(37.5 70.31)" fill="#fff"/>
          </g>
          <g id="Group_42958" data-name="Group 42958" transform="translate(157.047 486.823)">
            <path id="Path_68329" data-name="Path 68329" d="M-2157.237,693.543h105.687a3.02,3.02,0,0,0,3.011-3.011,3.02,3.02,0,0,0-3.011-3.011h-105.687a3.02,3.02,0,0,0-3.011,3.011A3.02,3.02,0,0,0-2157.237,693.543Z" transform="translate(2160.248 -687.521)" fill="#7e7e7e"/>
            <path id="Path_68330" data-name="Path 68330" d="M-2051.55,728.663h-105.687a3.02,3.02,0,0,0-3.011,3.011,3.02,3.02,0,0,0,3.011,3.011h105.687a3.02,3.02,0,0,0,3.011-3.011A3.02,3.02,0,0,0-2051.55,728.663Z" transform="translate(2160.248 -714.813)" fill="#7e7e7e"/>
            <path id="Path_68331" data-name="Path 68331" d="M-2051.55,769.805h-105.687a3.02,3.02,0,0,0-3.011,3.011,3.02,3.02,0,0,0,3.011,3.011h105.687a3.02,3.02,0,0,0,3.011-3.011A3.02,3.02,0,0,0-2051.55,769.805Z" transform="translate(2160.248 -742.104)" fill="#7e7e7e"/>
          </g>
          <g id="Group_42959" data-name="Group 42959" transform="translate(173.709 463.07)">
            <path id="Path_68332" data-name="Path 68332" d="M-1904.821,623.425l-5.215-.039-1.574-4.972-1.649,4.948-5.215-.039,4.2,3.1-1.649,4.948,4.242-3.034,4.2,3.1-1.574-4.972Z" transform="translate(1983.206 -617.926)" fill="#fcb200"/>
            <path id="Path_68333" data-name="Path 68333" d="M-1958.106,623.023l-1.574-4.972-1.649,4.948-5.215-.039,4.2,3.1L-1964,631l4.242-3.033,4.2,3.1-1.574-4.972,4.242-3.034Z" transform="translate(2015.094 -617.685)" fill="#fcb200"/>
            <path id="Path_68334" data-name="Path 68334" d="M-2006.177,622.661l-1.574-4.972-1.649,4.948-5.215-.039,4.2,3.1-1.649,4.948,4.242-3.034,4.2,3.1-1.574-4.972,4.242-3.034Z" transform="translate(2046.982 -617.445)" fill="#fcb200"/>
            <path id="Path_68335" data-name="Path 68335" d="M-2054.247,622.3l-1.574-4.972-1.649,4.948-5.215-.039,4.2,3.1-1.649,4.948,4.242-3.034,4.2,3.1-1.574-4.972,4.242-3.034Z" transform="translate(2078.869 -617.205)" fill="#fcb200"/>
            <path id="Path_68336" data-name="Path 68336" d="M-2102.318,621.936l-1.574-4.972-1.649,4.948-5.215-.039,4.2,3.1-1.649,4.948,4.242-3.033,4.2,3.1-1.574-4.972,4.242-3.034Z" transform="translate(2110.756 -616.964)" fill="#fcb200"/>
          </g>
          <g id="Group_42961" data-name="Group 42961" transform="translate(167.379 366.129)">
            <circle id="Ellipse_113" data-name="Ellipse 113" cx="43.443" cy="43.443" r="43.443" transform="translate(2.08 2.08)" fill="#fff"/>
            <g id="Group_42960" data-name="Group 42960" transform="translate(15.738 11.822)">
              <path id="Path_68337" data-name="Path 68337" d="M-2046.169,365.709s-1-2.05-6-1.488-6.413,5.055-6.644,8.051-3.108,37.825-8.939,42.966l18.631-2.806Z" transform="translate(2072.823 -364.124)" fill="#1a1a1a"/>
              <path id="Path_68338" data-name="Path 68338" d="M-2018.675,368.729s-5.336-1.8-8.144.868a5.643,5.643,0,0,0-1.217,6.2Z" transform="translate(2046.774 -366.785)" fill="#920061"/>
              <path id="Path_68339" data-name="Path 68339" d="M-2004.855,380.393s-.1-11.764-19.034-10.41a9.255,9.255,0,0,0-7.607,4.945c-2.13,4.162-3.058,11.49,3.823,23.239Z" transform="translate(2049.805 -367.938)" fill="#1a1a1a"/>
              <path id="Path_68340" data-name="Path 68340" d="M-2003.49,471.582a2.375,2.375,0,0,0-1.2-1l-.021,0-.668-.13c-.354-.065-.7-.126-1.052-.182a29.594,29.594,0,0,1-.663-11.661l-15.406-4.691c1.216,10.107-.148,14.624-.821,16.142-.288.039-.572.078-.852.12C-2031.7,471.293-1997.357,486.155-2003.49,471.582Z" transform="translate(2044.632 -423.686)" fill="#cd8085"/>
              <path id="Path_68341" data-name="Path 68341" d="M-2001.109,417.337s-18.793.859-19.147-10.853-3.019-19.488,8.965-20.531,14.451,3.355,15.52,7.235S-1996.229,416.812-2001.109,417.337Z" transform="translate(2041.644 -378.501)" fill="#dcabb0"/>
              <path id="Path_68342" data-name="Path 68342" d="M-2028.628,525.322a43.117,43.117,0,0,1-7.88,4.243l-.308.125c-.03.014-.062.026-.092.036-.4.164-.812.319-1.221.467a42.969,42.969,0,0,1-8.634,2.174,43.609,43.609,0,0,1-6.262.449,43.239,43.239,0,0,1-25.187-8.043v0c-.223-.156-.443-.317-.662-.48v0c-.278-.2-.554-.412-.826-.626q-1.617-1.26-3.109-2.665c1.823-7.412,3.339-13.126,4.16-13.944a6.953,6.953,0,0,1,1.7-1.17h0c4.677-2.434,14.572-3.75,14.572-3.75l.024.029a4.983,4.983,0,0,0,.521.509h0a15.888,15.888,0,0,0,1.971,1.421,23.716,23.716,0,0,0,12.262,3.631c2.746-.016,4.015-.744,4.521-1.655.826-1.481-.367-3.452-.482-3.636l-.009-.013a5.53,5.53,0,0,1,.677.143c.042.01.085.024.125.036l.965.3c12.785,4.042,13,5.649,13,5.649,2.24,2.451,4.014,7.135,5.582,12.422q-1.484,1.4-3.094,2.659Q-2027.44,524.516-2028.628,525.322Z" transform="translate(2082.81 -455.672)" fill="#af0ecc"/>
              <path id="Path_68343" data-name="Path 68343" d="M-1994.555,389.63c-.749-6.085-6.834-9.923-11.983-9.923s-10.085.526-10.085.526c-11.6,5.187-5.521,23.315-5.521,23.315s6.756-4.556,7.6-10.173c.53-3.535,6.184-5.433,9.473-6.8.726.452,8.267,5.3,7.415,11.476C-1997.657,398.055-1993.806,395.715-1994.555,389.63Z" transform="translate(2043.624 -374.461)" fill="#1a1a1a"/>
            </g>
          </g>
        </g>
        <g id="Group_42996" data-name="Group 42996">
          <g transform="matrix(1, 0, 0, 1, 110.77, 280.69)" filter="url(#Rectangle_1628)">
            <rect id="Rectangle_1628-2" data-name="Rectangle 1628" width="129.26" height="186.825" rx="10" transform="translate(403.29 70.1)" fill="#fff"/>
          </g>
          <g id="Group_42963" data-name="Group 42963" transform="translate(522.834 486.609)">
            <path id="Path_68344" data-name="Path 68344" d="M-1011.291,693.543H-905.6a3.02,3.02,0,0,0,3.011-3.011,3.02,3.02,0,0,0-3.011-3.011h-105.686a3.02,3.02,0,0,0-3.011,3.011A3.02,3.02,0,0,0-1011.291,693.543Z" transform="translate(1014.302 -687.521)" fill="#7e7e7e"/>
            <path id="Path_68345" data-name="Path 68345" d="M-905.6,728.663h-105.686a3.02,3.02,0,0,0-3.011,3.011,3.02,3.02,0,0,0,3.011,3.011H-905.6a3.02,3.02,0,0,0,3.011-3.011A3.02,3.02,0,0,0-905.6,728.663Z" transform="translate(1014.302 -714.813)" fill="#7e7e7e"/>
            <path id="Path_68346" data-name="Path 68346" d="M-905.6,769.805h-105.686a3.02,3.02,0,0,0-3.011,3.011,3.02,3.02,0,0,0,3.011,3.011H-905.6a3.02,3.02,0,0,0,3.011-3.011A3.02,3.02,0,0,0-905.6,769.805Z" transform="translate(1014.302 -742.104)" fill="#7e7e7e"/>
          </g>
          <g id="Group_42994" data-name="Group 42994">
            <path id="Path_68347" data-name="Path 68347" d="M-765.664,618.414l-1.649,4.948-5.215-.039,4.2,3.1-1.649,4.948,4.242-3.034,4.2,3.1-1.574-4.972,4.242-3.033-5.215-.039Z" transform="translate(1376.757 -155.414)" fill="#fcb200"/>
            <path id="Path_68348" data-name="Path 68348" d="M-813.735,618.051-815.383,623l-5.215-.039,4.2,3.1L-818.051,631l4.242-3.033,4.2,3.1-1.574-4.972,4.242-3.034-5.215-.039Z" transform="translate(1408.644 -155.051)" fill="#fcb200"/>
            <path id="Path_68349" data-name="Path 68349" d="M-861.8,617.689l-1.649,4.948-5.215-.039,4.2,3.1-1.649,4.948,4.242-3.034,4.2,3.1-1.574-4.972,4.242-3.034-5.215-.039Z" transform="translate(1440.531 -154.689)" fill="#fcb200"/>
            <path id="Path_68350" data-name="Path 68350" d="M-909.875,617.327l-1.649,4.948-5.215-.039,4.2,3.1-1.649,4.948,4.242-3.034,4.2,3.1-1.574-4.972,4.242-3.033-5.215-.039Z" transform="translate(1472.418 -154.327)" fill="#fcb200"/>
            <path id="Path_68351" data-name="Path 68351" d="M-957.945,616.964l-1.649,4.948-5.215-.039,4.2,3.1-1.649,4.948,4.242-3.033,4.2,3.1-1.574-4.972,4.242-3.034-5.215-.039Z" transform="translate(1504.306 -153.964)" fill="#fcb200"/>
          </g>
          <g id="Group_42965" data-name="Group 42965" transform="translate(517.251 350)">
            <circle id="Ellipse_114" data-name="Ellipse 114" cx="43.443" cy="43.443" r="43.443" transform="translate(17.994 17.994)" fill="#fff"/>
            <g id="Group_42964" data-name="Group 42964" transform="translate(26.951 30.691)">
              <path id="Path_68352" data-name="Path 68352" d="M-867.273,458.75c2.223-5.927,1.747-9.6,1.747-9.6l13.362-9.183c1.156,11.343,3.164,14.389,3.061,18.859,0,.066-7.131,4.727-12.221,4.7C-865.139,463.5-867.292,458.8-867.273,458.75Z" transform="translate(895.403 -417.387)" fill="#945c2e"/>
              <path id="Path_68353" data-name="Path 68353" d="M-876.217,493.263A43.456,43.456,0,0,1-886.533,508.2q-1.485,1.4-3.1,2.659-1.129.887-2.318,1.693a43.24,43.24,0,0,1-7.882,4.242c-.1.042-.206.085-.307.125-.031.014-.063.025-.092.036q-.609.245-1.223.466a42.819,42.819,0,0,1-8.634,2.174,43.676,43.676,0,0,1-6.26.448A43.227,43.227,0,0,1-941.532,512c-.221-.157-.441-.318-.663-.481v0c-.277-.2-.553-.412-.826-.627q-1.616-1.26-3.109-2.663a43.861,43.861,0,0,1-4.7-5.2c1.373-2.419,2.744-4.668,4.072-6.627,1.864-2.748,12.29-6.672,24.247-9.794l.021.047v0c.938,2.412,2.905,3.976,6.226,3.976,4.833,0,10.864-3.321,11.231-7.747.032,0,19.126,3.6,23.082,5C-879.771,488.643-877.872,490.576-876.217,493.263Z" transform="translate(950.831 -445.851)" fill="#008dbf"/>
              <path id="Path_68354" data-name="Path 68354" d="M-881.129,414.927s16.262.743,16.569-9.391,2.612-16.864-7.758-17.767-12.505,2.9-13.43,6.261S-885.352,414.472-881.129,414.927Z" transform="translate(907.844 -382.674)" fill="#a36d3c"/>
              <path id="Path_68355" data-name="Path 68355" d="M-869.677,396.462s-1.28-14.5-16.023-13.3c-10.63.86-7.611-10.065-7.611-10.065a151.406,151.406,0,0,1,18.591.223C-857.948,374.95-868.186,394.273-869.677,396.462Z" transform="translate(912.938 -372.901)" fill="#1a1a1a"/>
            </g>
          </g>
        </g>
        <g id="Group_42995" data-name="Group 42995">
          <g transform="matrix(1, 0, 0, 1, 110.77, 280.69)" filter="url(#Rectangle_1629)">
            <rect id="Rectangle_1629-2" data-name="Rectangle 1629" width="195.779" height="282.969" rx="10" transform="translate(187.34 22.5)" fill="#fff"/>
          </g>
          <g id="Group_42973" data-name="Group 42973" transform="translate(311.407 508.91)">
            <path id="Path_68373" data-name="Path 68373" d="M-1694.7,782.148h160.075a4.574,4.574,0,0,0,4.56-4.561,4.574,4.574,0,0,0-4.56-4.561H-1694.7a4.574,4.574,0,0,0-4.561,4.561A4.574,4.574,0,0,0-1694.7,782.148Z" transform="translate(1699.264 -773.027)" fill="#7e7e7e"/>
            <path id="Path_68374" data-name="Path 68374" d="M-1534.628,842.1H-1694.7a4.574,4.574,0,0,0-4.561,4.561h0a4.574,4.574,0,0,0,4.561,4.561h160.075a4.574,4.574,0,0,0,4.56-4.561h0A4.574,4.574,0,0,0-1534.628,842.1Z" transform="translate(1699.264 -821.117)" fill="#7e7e7e"/>
            <path id="Path_68375" data-name="Path 68375" d="M-1534.628,911.163H-1694.7a4.574,4.574,0,0,0-4.561,4.561h0a4.574,4.574,0,0,0,4.561,4.56h160.075a4.573,4.573,0,0,0,4.56-4.56h0A4.573,4.573,0,0,0-1534.628,911.163Z" transform="translate(1699.264 -869.206)" fill="#7e7e7e"/>
          </g>
          <g id="Group_42975" data-name="Group 42975" transform="translate(302.951 302)">
            <circle id="Ellipse_115" data-name="Ellipse 115" cx="65.799" cy="65.799" r="65.799" transform="translate(27.255 27.255)" fill="#f9f9f9"/>
            <g id="Group_42974" data-name="Group 42974" transform="translate(37.922 47.557)">
              <path id="Path_68376" data-name="Path 68376" d="M-1427.292,301.136c-12.385-6.414-20.879-9.073-20.382-17.214s-3.241-43.188-27.043-34.017c0,0-3.818-1.7-5.53-1.444a4.71,4.71,0,0,1,2.11,1,18.456,18.456,0,0,0-10,1.914c-1.806,1.025-3.57,3.744-5.117,7.518-.1.244-.2.495-.3.75a57.461,57.461,0,0,0-1.795,5.481,85.757,85.757,0,0,0-2.289,11.357v.005q-.269,1.97-.454,3.973s0,.005,0,.008c-.008.06-.014.122-.019.182-.892,9.859-.229,20.083,3.018,27.043a17.188,17.188,0,0,0,3.833,5.465,26.755,26.755,0,0,1-1.859-5.557,65.723,65.723,0,0,1-1.379-9.337,59.447,59.447,0,0,0,2.083,9.307,28.087,28.087,0,0,0,3.244,7.159c6.828,4.481,16.355,13.486,24.936,22.807,1.919,2.083,3.788,4.179,5.571,6.248a0,0,0,0,1,0,0c3.062,3.554,5.865,7.015,8.2,10.145a.008.008,0,0,0,0,.005c.036.046.068.087.1.133.174.231.342.459.511.688a65.541,65.541,0,0,0,15.449-8.989,65.858,65.858,0,0,0,22.706-33.425A61.2,61.2,0,0,0-1427.292,301.136Z" transform="translate(1529.994 -248.387)" fill="#1a1a1a"/>
              <path id="Path_68377" data-name="Path 68377" d="M-1464.765,414.76c2.2-1.026.845-19.755.845-19.755l18.645-3.693c1.3,6.134.618,16.852,2.932,17.312.075.015-3.5,7.106-8.962,8.6C-1457.118,418.807-1464.845,414.8-1464.765,414.76Z" transform="translate(1506.526 -347.9)" fill="#cd8085"/>
              <path id="Path_68378" data-name="Path 68378" d="M-1448.172,265.547s-9.629-9.006-19.516.889C-1467.688,266.437-1461.5,265.418-1448.172,265.547Z" transform="translate(1508.561 -257.723)" fill="#920061"/>
              <path id="Path_68379" data-name="Path 68379" d="M-1467.971,302.8s5.16-8.154,6.4-15.127c.885-4.978-1.651-23.429-20.192-20.771a25.191,25.191,0,0,0-10.447,3.95c-4.026,2.719-9.835,8.589-3.339,24.69l1.687,5.439Z" transform="translate(1529.992 -261.097)" fill="#1a1a1a"/>
              <path id="Path_68380" data-name="Path 68380" d="M-1328.942,551.726a65.543,65.543,0,0,1-15.449,8.989c-.155.065-.313.128-.468.19-.024-.18-.052-.359-.076-.539v0s0,0,0-.006c-.025-.155-.046-.31-.068-.465a.008.008,0,0,1,0-.005c-.367-2.542-.712-4.911-1.006-6.944-.6-4.144-1-6.9-1-6.9l4.283-.46,13.01-1.4s.06.332.177,1.316v0C-1329.412,546.612-1329.211,548.534-1328.942,551.726Z" transform="translate(1424.541 -454.343)" fill="#dcabb0"/>
              <path id="Path_68381" data-name="Path 68381" d="M-1575.127,446.6l-.014.2-1.838,25.806s-4.356,4.753-8.989,9.6c-.079.081-.16.166-.239.25l0,0c-.438.457-.878.914-1.316,1.368a66.155,66.155,0,0,1-14.729-16.007c2.545-2.667,5.3-5.457,8.086-8.105,7.151-6.8,14.492-12.657,18.93-13.105.035-.005.071-.008.1-.011Z" transform="translate(1602.254 -386.394)" fill="#dcabb0"/>
              <path id="Path_68382" data-name="Path 68382" d="M-1489.26,474.417c-3.193-15.349-8.353-22-8.353-22l-.005,0c-5.909-4.482-16.086-8.093-24.335-9.012-.12-.016-.242-.027-.361-.041h0a11.151,11.151,0,0,1-9.923,5.064,12.241,12.241,0,0,1-9.97-4.84q-.331-.441-.609-.881c-1.8.049-3.393.1-4.81.163-.239.008-.476.019-.7.03q-1.057.045-1.974.092a61.8,61.8,0,0,0-7.774.677s0,0,0,0v0s-4.644-.964-19.693,11.82c0,0,8.508,19.536,8.609,24.259l.231-.171h0q-.167,1.244-.3,2.488v0a65.5,65.5,0,0,0,39.153,12.913,66.14,66.14,0,0,0,9.484-.68,65.132,65.132,0,0,0,13.078-3.293q.93-.334,1.849-.707c.019-.2.041-.4.063-.593v0s0,0,0-.005c.011-.111.022-.22.033-.332.3-2.773.658-5.468,1.06-8.062h0Z" transform="translate(1585.21 -383.682)" fill="#fcb200"/>
              <path id="Path_68383" data-name="Path 68383" d="M-1490.6,329.61s23.3.384,23.315-14.129,3.034-24.237-11.841-25.1-17.771,4.676-18.955,9.519S-1496.657,329.136-1490.6,329.61Z" transform="translate(1529.914 -277.566)" fill="#daa9ae"/>
              <path id="Path_68384" data-name="Path 68384" d="M-1469.97,282.656s6.379,17.027,16.169,19.544,14.037-.106,14.037-.106a27.724,27.724,0,0,1-9.068-16.378S-1465.158,274.552-1469.97,282.656Z" transform="translate(1510.15 -270.193)" fill="#1a1a1a"/>
              <path id="Path_68385" data-name="Path 68385" d="M-1491.807,287.6s-4.764,3.8-5.925,7.5-1.684,11.3-3.9,11.045c0,0-4.806-11.573.595-18.12C-1495.311,281.085-1491.807,287.6-1491.807,287.6Z" transform="translate(1533.567 -273.759)" fill="#1a1a1a"/>
            </g>
          </g>
          <g id="Group_42976" data-name="Group 42976" transform="translate(336.643 472.934)">
            <path id="Path_68386" data-name="Path 68386" d="M-1272.706,664.6l-7.9-.06-2.384-7.531-2.5,7.494-7.9-.059,6.355,4.691-2.5,7.494,6.425-4.595,6.355,4.691-2.384-7.531Z" transform="translate(1391.43 -656.275)" fill="#fcb200"/>
            <path id="Path_68387" data-name="Path 68387" d="M-1361.3,663.937l-2.384-7.531-2.5,7.494-7.9-.06,6.355,4.691-2.5,7.494,6.425-4.595,6.355,4.691-2.384-7.531L-1353.4,664Z" transform="translate(1447.617 -655.852)" fill="#fcb200"/>
            <path id="Path_68388" data-name="Path 68388" d="M-1442,663.328l-2.384-7.531-2.5,7.494-7.9-.06,6.355,4.691-2.5,7.494,6.425-4.595,6.355,4.691-2.384-7.531,6.426-4.595Z" transform="translate(1503.805 -655.428)" fill="#fcb200"/>
            <path id="Path_68389" data-name="Path 68389" d="M-1522.7,662.72l-2.385-7.531-2.5,7.494-7.9-.06,6.355,4.691-2.5,7.494,6.425-4.595,6.355,4.691-2.384-7.531,6.425-4.595Z" transform="translate(1559.992 -655.005)" fill="#fcb200"/>
            <path id="Path_68390" data-name="Path 68390" d="M-1603.4,662.112l-2.384-7.531-2.5,7.494-7.9-.06,6.355,4.691-2.5,7.494,6.425-4.595,6.355,4.691-2.384-7.531,6.425-4.595Z" transform="translate(1616.179 -654.582)" fill="#fcb200"/>
          </g>
        </g>
      </g>
      <g id="Group_42986" data-name="Group 42986" transform="translate(141 564.006)">
        <path id="Path_68416" data-name="Path 68416" d="M-1978.077,890.135s.856-14.957-18.469-14.077S-2018,894.535-2016.5,901.793s8.764,13.2,14.043,12.867a45.231,45.231,0,0,0,10.392-2.09Z" transform="translate(2066.652 -876.021)" fill="#1a1a1a"/>
        <path id="Path_68417" data-name="Path 68417" d="M-1757.713,1238.278a11.755,11.755,0,0,0-14.712-1.6l-25.279-8.158-5.169,8.8,28.345,5.441c2.224,2.117,6.676,2.513,10.715,1.1s3.093-.676,5.983-1.624S-1757.713,1238.278-1757.713,1238.278Z" transform="translate(1924.688 -1109.847)" fill="#a56d3c"/>
        <path id="Path_68418" data-name="Path 68418" d="M-2010.735,1281.048c-.009.05-.013.1-.021.148a54.134,54.134,0,0,1-6.416,19.64c-6.345,10.7-18.378,22.607-47.232,26.5-1.4.184-2.839.357-4.319.505q-4.037.413-8.494.616c-.378.016-.757.033-1.139.041-8.392-.209-17.782-1.746-28.258-4.233-21.5-5.1-35.5-15.6-44.359-28.369a0,0,0,0,1,0,0,69.2,69.2,0,0,1-6.756-12.271c-4.919-11.491-6.8-23.877-6.978-35.364a116.747,116.747,0,0,1,3.736-27.74,50.389,50.389,0,0,1,6.834-15.214,41.21,41.21,0,0,1,2.613-3.473,38.723,38.723,0,0,1,10.6-8.931c10.27-5.852,44.047-11.684,72.659,3.415C-2015.6,1224.1-2007.674,1258.429-2010.735,1281.048Z" transform="translate(2164.713 -1082.126)" fill="#f0aa01"/>
        <path id="Path_68419" data-name="Path 68419" d="M-1974.01,1610.027h-41.9v-64h-11.716v64h-43.582a4.135,4.135,0,0,0-4.123,4.122,4.135,4.135,0,0,0,4.123,4.123h97.2a4.135,4.135,0,0,0,4.123-4.123A4.135,4.135,0,0,0-1974.01,1610.027Z" transform="translate(2105.422 -1320.469)" fill="#fcb200"/>
        <path id="Path_68420" data-name="Path 68420" d="M-1993.74,1454.311a54.183,54.183,0,0,1-6.417,19.64c-6.346,10.7-18.378,22.606-47.233,26.5-1.309.175-2.656.337-4.04.478-.01,0-.02,0-.031,0-.081.01-.165.021-.249.027q-4.04.409-8.494.616c-.38.016-.757.03-1.138.04-8.393-.209-17.782-1.747-28.259-4.232-.437-.1-.875-.209-1.306-.319-.273-.067-.542-.135-.811-.209-.232-.057-.458-.118-.687-.178q-1.061-.283-2.1-.586c-.178-.051-.353-.1-.529-.155-.309-.091-.616-.185-.919-.28-.411-.125-.814-.253-1.215-.383s-.8-.263-1.2-.4c-.448-.151-.889-.306-1.33-.462-.27-.1-.539-.195-.8-.292-.73-.27-1.448-.545-2.158-.828-.185-.071-.371-.148-.556-.222l-.808-.333c-.034-.017-.067-.03-.1-.044-.353-.148-.707-.3-1.053-.451-.381-.168-.758-.337-1.131-.508-.317-.141-.63-.286-.939-.438l-.111-.05q-.5-.237-.99-.478c-.293-.142-.579-.286-.866-.431-.07-.037-.141-.074-.212-.108-.289-.148-.575-.3-.862-.448q-.611-.328-1.219-.66c-.283-.155-.562-.313-.838-.471-.323-.182-.64-.367-.956-.556s-.633-.373-.943-.565-.6-.367-.9-.556c-.232-.148-.464-.3-.7-.448-.168-.1-.333-.215-.495-.323l-.639-.427q-.445-.3-.879-.606-.874-.611-1.713-1.242c-.28-.206-.553-.418-.825-.627-.239-.182-.471-.367-.7-.549-.579-.465-1.144-.929-1.7-1.4-.239-.2-.475-.407-.711-.612-.195-.172-.387-.344-.579-.515s-.384-.347-.572-.522-.377-.347-.566-.526-.381-.36-.569-.542c-.24-.229-.479-.461-.711-.7-.2-.2-.391-.391-.583-.586q-.959-.979-1.861-1.99c-.155-.168-.3-.337-.451-.505l-.071-.08c-.276-.313-.545-.626-.811-.943-.37-.438-.734-.882-1.088-1.326-.145-.182-.29-.364-.431-.545-.374-.478-.737-.956-1.094-1.441-.175-.239-.35-.481-.525-.724q-.283-.394-.555-.788a69.256,69.256,0,0,1-5.1-10.033c11.332-3.437,35.954-9.931,63.51-11.1.475-.02.952-.04,1.427-.057a180.289,180.289,0,0,1,23.775.663C-2030.944,1450.382-2010.785,1452.49-1993.74,1454.311Z" transform="translate(2147.699 -1255.241)" fill="#fcb200"/>
        <path id="Path_68421" data-name="Path 68421" d="M-1916.294,1020.3l-24.7-2.185s2.148-9.8,1.7-24.788l17.718,5.393S-1923.93,1012.426-1916.294,1020.3Z" transform="translate(2016.31 -953.838)" fill="#965c2e"/>
        <path id="Path_68422" data-name="Path 68422" d="M-1917.232,961.727s-21.283,3.885-23.5-9.406-6.455-21.741,7.04-24.783,16.987,1.587,18.806,5.844S-1911.753,960.374-1917.232,961.727Z" transform="translate(2017.741 -909.545)" fill="#a56d3c"/>
        <path id="Path_68423" data-name="Path 68423" d="M-1524.7,1686.421l12.085,12.317,7.249-5.162-10.408-23.214Z" transform="translate(1740.162 -1402.944)" fill="#deadb2"/>
        <path id="Path_68424" data-name="Path 68424" d="M-1961.965,1360.141c-1.267,2.652-17.977,32.716,9.762,40.729s97.25,1.228,97.25,1.228,1.5,23.59,9.348,34.642c12.6,17.749,44.676,50.592,44.676,50.592l5.858-.185s-38.891-102.959-47.932-109.534c-6.612-4.809-39.882-13.32-58.273-16.174-4.48-.695-31.593-1.517-38.85-1.8C-1951.5,1359.189-1961.261,1358.669-1961.965,1360.141Z" transform="translate(2034.295 -1196.516)" fill="#965c2e"/>
        <path id="Path_68425" data-name="Path 68425" d="M-1483.443,1732.274l2.779,9.191h27.575S-1460.143,1729.067-1483.443,1732.274Z" transform="translate(1712.795 -1443.662)" fill="#1a1a1a"/>
        <path id="Path_68426" data-name="Path 68426" d="M-1994.632,1360.141c-1.267,2.652-17.977,32.716,9.762,40.729s92.577,4.527,92.577,4.527,6.174,20.291,14.022,31.343c12.6,17.749,44.676,50.592,44.676,50.592l12.429-.185s-45.462-102.959-54.5-109.534c-6.613-4.809-39.882-13.32-58.273-16.174-4.479-.695-31.593-1.517-38.851-1.8C-1984.167,1359.189-1993.929,1358.669-1994.632,1360.141Z" transform="translate(2055.965 -1196.516)" fill="#a56d3c"/>
        <path id="Path_68427" data-name="Path 68427" d="M-1874.773,1368.442c-.112-.019-.928-.169-10.687.161-10.31.353-20.924,31.28-20.924,31.28-8.97,1.419-71.64-1.316-96.484-8.677-5.926-1.755-9.7-3.775-10.083-6.061-.614-3.682.277-8.743,1.8-13.972,3.382-11.643,9.895-24.131,9.895-24.131,2.923,1.455,7.427,2.323,12.412,2.814,13.095,1.287,29.538-.01,29.538-.01C-1930.067,1346.413-1875.946,1367.193-1874.773,1368.442Z" transform="translate(2064.172 -1188.472)" fill="#008dbf"/>
        <path id="Path_68428" data-name="Path 68428" d="M-1835.715,1120.363l-1.465,5.553-.63,2.382s-21.264-2.167-21.749-5.255c-.244-1.551-4.134-13.844-7.941-25.685-3.768-11.719-7.456-23-7.456-23l-1.953-14.29s12.86,2.419,14.157,4.062c3.124,3.959,12.785,49.9,12.785,49.9C-1849,1114.349-1835.715,1120.363-1835.715,1120.363Z" transform="translate(1973.8 -998.111)" fill="#008dbf"/>
        <path id="Path_68429" data-name="Path 68429" d="M-1820.4,1162.2l-.63,2.382s-21.264-2.167-21.749-5.255c-.244-1.551-4.134-13.844-7.941-25.685l-.894-18.872s11.04,20.874,13.725,33.983c0,0-.406,6.213,2.686,7.2C-1833,1156.659-1824.882,1160.216-1820.4,1162.2Z" transform="translate(1957.022 -1034.393)" fill="#373484" opacity="0.2"/>
        <path id="Path_68430" data-name="Path 68430" d="M-1941.745,1143.642c.931,6.42,5.16,15.064,5.16,15.064l-.161.02-54.366,7.028s1.052-2.663,2.418-6.816c2.794-8.5,6.908-23.25,6.018-34.2-.4-4.909-.581-15.579-1.442-28.268-.62-9.185-1.6-19.43-3.279-29.307,0,0,7.606-5.32,13.44-6.69,9.723-2.283,21.427-.638,35.449,3.235,0,0,12.316,45.091-2.861,74.785a9.032,9.032,0,0,0-.376,5.144Z" transform="translate(2049.556 -997.687)" fill="#008dbf"/>
        <path id="Path_68431" data-name="Path 68431" d="M-1951.494,917.854s-5.135-1.87-8.4,1.32.228,7.148.228,7.148Z" transform="translate(2029.769 -903.409)" fill="#920061"/>
        <path id="Path_68432" data-name="Path 68432" d="M-1950.014,944.635s8.468-1.829,8.137-10.407,8.462-11.7,16.686-10.55c0,0-.024-10.566-21.469-8.421S-1950.014,944.635-1950.014,944.635Z" transform="translate(2027.025 -901.858)" fill="#1a1a1a"/>
        <path id="Path_68433" data-name="Path 68433" d="M-1940.155,1058.538s7.652,10.906,18.54,10.576c0,0,4.763-8.286,2.753-11.4S-1940.155,1058.538-1940.155,1058.538Z" transform="translate(2015.754 -995.751)" fill="#965c2e"/>
        <g id="Group_42984" data-name="Group 42984" transform="translate(146.48 91.483)">
          <path id="Path_68434" data-name="Path 68434" d="M-1657.463,1147.765h69.534l-14.4,50.668h-68.948Z" transform="translate(1690.913 -1147.765)" fill="#2b2b2b"/>
          <path id="Path_68435" data-name="Path 68435" d="M-1654.292,1147.765h69.534l-14.4,50.668H-1668.1Z" transform="translate(1688.809 -1147.765)" fill="#1a1a1a"/>
          <rect id="Rectangle_1631" data-name="Rectangle 1631" width="89.654" height="1.747" transform="translate(0 50.668)" fill="#2b2b2b"/>
          <path id="Path_68436" data-name="Path 68436" d="M-1547.489,1216.712a5.379,5.379,0,0,1,3.937-4.919,2.975,2.975,0,0,1,3.937,2.956,5.378,5.378,0,0,1-3.937,4.919A2.974,2.974,0,0,1-1547.489,1216.712Z" transform="translate(1608.8 -1190.157)" fill="#dadfef"/>
        </g>
        <path id="Path_68437" data-name="Path 68437" d="M-1872.239,1324.631l-.161.02c-6.008-.178-16.308-.3-21.709.66.495-.194,16.338-6.46,16.711-15.744C-1876.469,1315.987-1872.239,1324.631-1872.239,1324.631Z" transform="translate(1985.21 -1163.612)" fill="#027fab"/>
        <path id="Path_68438" data-name="Path 68438" d="M-1984.921,1258.02c-5.566-3.081-2.784-15.7.014-25.721,5.276-9.818,25.362-39.748,27.728-41.867,2.662-2.385,0-3.38,0-3.38-17.08-1.071-26.695-17.354-26.695-17.354l-4.742,3.509.117.338a48.642,48.642,0,0,0-6.3-3.847c.861,12.689,1.04,23.359,1.442,28.268.867,10.656-3.008,24.912-5.792,33.5a195.709,195.709,0,0,0-8.065,22.145l2.266,4.734,6.015,15.3c24.843,7.361,87.514,10.1,96.484,8.677C-1908.83,1262.748-1976.573,1262.639-1984.921,1258.02Z" transform="translate(2060.237 -1070.831)" fill="#027fab"/>
        <path id="Path_68439" data-name="Path 68439" d="M-1798.191,1265.164a11.756,11.756,0,0,0-14.713-1.6l-25.279-8.158-5.169,8.8,28.345,5.44c2.224,2.117,6.676,2.513,10.716,1.1s3.093-.676,5.983-1.623S-1798.191,1265.164-1798.191,1265.164Z" transform="translate(1951.54 -1127.681)" fill="#a56d3c"/>
        <path id="Path_68440" data-name="Path 68440" d="M-1977.477,1062.527s-16.24,3.677-18.879,11.813c-1.226,3.778,16.056,51.909,22,55.428s33.6,8.59,33.6,8.59l1.625-10.9s-18.732-8.179-20.272-10.633S-1977.477,1062.527-1977.477,1062.527Z" transform="translate(2053.076 -999.739)" fill="#008dbf"/>
        <path id="Path_68441" data-name="Path 68441" d="M-1843.078,1252.5l-3.292-1.471-5.245,11.575,6.879,1.443Z" transform="translate(1957.022 -1124.783)" fill="#1a1a1a"/>
        <path id="Path_68442" data-name="Path 68442" d="M-1768.448,1236.221l-3.306-1.493-3.75,8.982,4.961.445Z" transform="translate(1906.533 -1113.968)" fill="#1a1a1a"/>
        <g id="Group_42985" data-name="Group 42985" transform="translate(0 119.704)">
          <path id="Path_68443" data-name="Path 68443" d="M-2064.4,1357.1c-.481.064-.966.128-1.458.185q-1.076.137-2.182.25c-.135.017-.266.031-.4.044l-.03,0c-1.9.269-4.444.559-6.177.636-.781.037-1.569.061-2.364.067q-.166.006-.333,0l-1.007-.02c-8.393-.209-17.782-1.748-28.259-4.232-.437-.1-.875-.209-1.306-.32-.273-.067-.541-.135-.811-.209-.233-.057-.458-.118-.687-.178q-1.06-.283-2.1-.586c-.179-.05-.354-.1-.529-.155-.309-.091-.616-.185-.918-.28-.411-.125-.815-.252-1.216-.383s-.8-.262-1.2-.4c-.448-.152-.889-.307-1.33-.462-.269-.1-.539-.195-.8-.293-.731-.27-1.448-.545-2.158-.828-.185-.071-.371-.149-.556-.222l-.808-.333c-.034-.017-.067-.03-.1-.044-.353-.148-.707-.3-1.053-.451-.38-.168-.758-.337-1.131-.508-.316-.141-.629-.286-.939-.438l-.111-.05c-.333-.158-.664-.317-.99-.478-.293-.142-.58-.286-.865-.431-.071-.037-.142-.074-.212-.108-.29-.148-.576-.3-.862-.448-.407-.219-.814-.438-1.219-.66-.283-.155-.562-.313-.838-.471-.323-.182-.64-.367-.956-.556s-.633-.373-.943-.565-.6-.367-.9-.556c-.232-.148-.464-.3-.7-.448-.168-.1-.333-.215-.494-.323l-.64-.427q-.445-.3-.879-.606-.873-.612-1.713-1.242c-.28-.206-.552-.418-.825-.627-.239-.182-.471-.367-.7-.549-.579-.464-1.145-.929-1.7-1.4-.239-.2-.475-.408-.711-.613-.195-.171-.387-.344-.579-.515s-.384-.347-.572-.522-.377-.347-.566-.526-.381-.36-.569-.542c-.239-.229-.478-.461-.711-.7-.2-.2-.39-.391-.582-.586q-.959-.979-1.862-1.99c-.155-.168-.3-.337-.452-.505l-.07-.08c-.276-.313-.545-.626-.811-.943-.37-.438-.734-.882-1.087-1.326-.145-.182-.29-.364-.431-.545-.374-.478-.737-.956-1.094-1.441-.176-.239-.35-.481-.525-.724q-.284-.394-.556-.788a69.157,69.157,0,0,1-6.756-12.275c-4.919-11.49-6.8-23.875-6.979-35.362a116.769,116.769,0,0,1,3.737-27.74,50.369,50.369,0,0,1,6.834-15.214c.609-.905,1.252-1.787,1.939-2.642.219-.279.445-.556.673-.832,12.059,12.611,39.311,42.351,60.389,72.878C-2078.4,1322.925-2067.913,1341.67-2064.4,1357.1Z" transform="translate(2164.714 -1231.591)" fill="#d59701"/>
          <path id="Path_68444" data-name="Path 68444" d="M-2065.863,1358.919q-1.076.136-2.182.249c-.131.01-.266.024-.4.044-.01,0-.02,0-.03,0-1.9.269-4.444.559-6.177.636-.781.037-1.569.061-2.364.067q-.166.005-.333,0l-1.007-.02c-8.393-.209-17.782-1.747-28.259-4.232-.437-.1-.875-.209-1.306-.319-.273-.068-.541-.135-.811-.209-.233-.057-.458-.118-.687-.178q-1.06-.283-2.1-.586c-.179-.05-.354-.1-.529-.154-.309-.091-.616-.185-.918-.28-.411-.125-.815-.253-1.216-.384s-.8-.262-1.2-.4c-.448-.151-.889-.306-1.33-.462-.269-.1-.539-.195-.8-.292-.731-.27-1.448-.545-2.158-.828-.185-.071-.371-.149-.556-.222l-.808-.333c-.034-.017-.067-.03-.1-.044-.353-.148-.707-.3-1.053-.451-.38-.168-.758-.337-1.131-.508-.316-.141-.629-.286-.939-.438l-.111-.05q-.5-.237-.99-.478c-.293-.142-.58-.286-.865-.431-.071-.037-.142-.074-.212-.108-.29-.148-.576-.3-.862-.448-.407-.219-.814-.438-1.219-.66-.283-.155-.562-.313-.838-.471-.323-.182-.64-.367-.956-.556s-.633-.373-.943-.565-.6-.367-.9-.556c-.232-.148-.464-.3-.7-.448-.168-.1-.333-.215-.494-.323l-.64-.427q-.445-.3-.879-.606-.873-.612-1.713-1.242c-.28-.206-.552-.418-.825-.627-.239-.182-.471-.367-.7-.549-.579-.465-1.145-.929-1.7-1.4-.239-.2-.475-.407-.711-.612-.195-.172-.387-.344-.579-.515s-.384-.347-.572-.522-.377-.347-.566-.526-.381-.36-.569-.542c-.239-.229-.478-.461-.711-.7-.2-.2-.39-.391-.582-.586q-.959-.979-1.862-1.99c-.155-.168-.3-.337-.452-.5l-.07-.08c-.276-.314-.545-.626-.811-.943-.37-.438-.734-.882-1.087-1.327-.145-.182-.29-.363-.431-.545-.374-.478-.737-.956-1.094-1.441-.176-.239-.35-.481-.525-.724q-.284-.394-.556-.787a69.156,69.156,0,0,1-6.756-12.275c-4.919-11.49-6.8-23.875-6.979-35.362a116.773,116.773,0,0,1,3.737-27.74,50.37,50.37,0,0,1,6.834-15.214c.609-.905,1.252-1.787,1.939-2.642,12.432,13.059,39,42.206,59.635,72.1C-2079.844,1324.6-2069.367,1343.51-2065.863,1358.919Z" transform="translate(2164.714 -1233.229)" fill="#eca700"/>
        </g>
        <path id="Path_68445" data-name="Path 68445" d="M-1512.349,1732.274l2.779,9.191H-1482S-1489.05,1729.067-1512.349,1732.274Z" transform="translate(1731.97 -1443.662)" fill="#1a1a1a"/>
      </g>
      <g id="Group_42999" data-name="Group 42999" transform="translate(-22.272 0.104)">
        <path id="Path_68415" data-name="Path 68415" d="M-1370.75,1436.669V1324.411a3.95,3.95,0,0,0-3.938-3.938h-9.934a3.95,3.95,0,0,0-3.939,3.938v112.258a46.42,46.42,0,0,0-35.453,32.021h88.717A46.419,46.419,0,0,0-1370.75,1436.669Z" transform="translate(1821.646 -606.84)" fill="#7e7e7e"/>
        <path id="Rectangle_1632" data-name="Rectangle 1632" d="M5.736,0H315.662A5.736,5.736,0,0,1,321.4,5.736v0a5.736,5.736,0,0,1-5.736,5.736H5.736A5.736,5.736,0,0,1,0,5.736v0A5.736,5.736,0,0,1,5.736,0Z" transform="translate(281.291 707.896)" fill="#7e7e7e"/>
      </g>
    </g>
  </g>
</svg>
