<svg xmlns="http://www.w3.org/2000/svg" width="697.487" height="461.166" viewBox="0 0 697.487 461.166">
  <g id="signup-image" transform="translate(-141 -401)">
    <g id="Group_178" data-name="Group 178" transform="translate(161 401)">
      <path id="Path_31" data-name="Path 31" d="M169.706,97.6h3.913a14.9,14.9,0,0,0,14.9,14.9v3.913a14.9,14.9,0,0,0-14.9,14.9h-3.913a14.9,14.9,0,0,0-14.9-14.9v-3.913A14.9,14.9,0,0,0,169.706,97.6Z" transform="translate(-127.953 -53.581)" fill="#1a1a1a"/>
      <path id="Path_32" data-name="Path 32" d="M154.855,73.775h1.73a14.9,14.9,0,0,0,14.9,14.9v1.729a14.9,14.9,0,0,0-14.9,14.9h-1.73a14.9,14.9,0,0,0-14.9-14.9V88.678A14.9,14.9,0,0,0,154.855,73.775Z" transform="translate(-139.954 -72.838)" fill="none" stroke="#1a1a1a" stroke-miterlimit="10" stroke-width="0.5"/>
      <path id="Path_33" data-name="Path 33" d="M181.711,73.257h0a14.9,14.9,0,0,0,14.9,14.9h0a14.9,14.9,0,0,0-14.9,14.9h0a14.9,14.9,0,0,0-14.9-14.9h0A14.9,14.9,0,0,0,181.711,73.257Z" transform="translate(-118.249 -73.257)" fill="#920061"/>
    </g>
    <path id="Path_315" data-name="Path 315" d="M426.443,320.675h3.208a21.282,21.282,0,0,0,21.283,21.28v3.208a21.282,21.282,0,0,0-21.283,21.28h-3.208a21.28,21.28,0,0,0-21.28-21.28v-3.208A21.28,21.28,0,0,0,426.443,320.675Z" transform="translate(253.98 425.325)" fill="#920061"/>
    <path id="Path_1795" data-name="Path 1795" d="M-2490.368,701.658c-.1-.53-1.341-6.2-10.119-5.236,0,0,4.369-.111,5.386,1.669,0,0-3.264-1.909-5.537-.813s-3.066,5.472-2.881,6.847,2.151,5.606,3.717,5.763a4.665,4.665,0,0,0,1.831-.263,20.8,20.8,0,0,0-.869,2.264c-2.447,7.661,2.163,14.132,5,12.931,1.821-.77,2.825,2.382,2.825,2.382l16.225-17.554S-2483.57,696.656-2490.368,701.658Z" transform="translate(2684.155 -170.853)" fill="#1a1a1a"/>
    <path id="Path_1796" data-name="Path 1796" d="M-2465.693,1091.38l-3.946,1.469s-17.141-23.773-19.251-44.689a31.745,31.745,0,0,1,.564-10.693s-.168-.957-.461-2.648c-.136-.79-.3-1.74-.493-2.829-.557-3.193-1.324-7.561-2.2-12.536-2.017-11.447-4.629-26.08-6.659-36.838l1.063-.341,11.505-3.711,2.378-7.552,8.567-2.255s1.914,3.744,3.625,21.428c.316,2.32.6,4.878.819,7.652a151.452,151.452,0,0,1-.816,30.978q-.59,4.611-1.5,9.508a42.412,42.412,0,0,0-.329,9.388C-2471.969,1064.808-2465.693,1091.38-2465.693,1091.38Z" transform="translate(2680.618 -349.163)" fill="#2b2b2b"/>
    <path id="Path_1797" data-name="Path 1797" d="M-2470.184,997.836l-18.6,36.983c-.136-.79-.3-1.74-.493-2.829-.557-3.193-1.324-7.561-2.2-12.536-2.017-11.447-4.629-26.08-6.659-36.838l1.063-.341,11.505-3.711,2.378-7.552,8.567-2.255s1.914,3.744,3.625,21.428C-2470.687,992.5-2470.4,995.063-2470.184,997.836Z" transform="translate(2680.618 -349.163)" fill="#1a1a1a"/>
    <path id="Path_1798" data-name="Path 1798" d="M-2510.936,965.354l-.431-3.693c-7.214,1.917-26.491-5.355-26.491-5.355s-6.99,6.144-6.072,20.871c.448,7.189,1.266,37.734,2.12,46.772.309,3.276.58,5.607.69,6.539a.016.016,0,0,1,0,.009,1.292,1.292,0,0,1-.209.8,42.39,42.39,0,0,0-3.154,6.633c-8.387,22.35,1.292,49.875,1.292,49.875l2.511-1.012s5.508-30.631,9.984-44.163a26.821,26.821,0,0,1,2.155-5.177c1.945-3.141,3.752-8.272,5.391-14.375,3.1-11.539,5.592-26.55,7.251-38.137C-2515.668,984.951-2510.936,965.354-2510.936,965.354Z" transform="translate(2713.186 -341.015)" fill="#2b2b2b"/>
    <path id="Path_1799" data-name="Path 1799" d="M-2437.815,852.4a5,5,0,0,0,.2.582c2.818,7.943,7.84,16.284,11.264,19.328,2.248,2.012,8.426,4.1,13.681,5.592,3.487,1.022,6.6,1.765,7.877,2.086.406.1.642.145.642.145l1.17-3.459s-2.728-1.706-6.056-3.944c-4.623-3.141-10.4-7.277-11.509-9.054-2.562-4.133-4.26-16.761-6.457-25.289-.109-.459-.222-.9-.335-1.343-.083-.321-.169-.637-.254-.949a.807.807,0,0,0-.079-.226c-.12-.355-.212-.676-.311-.967,0-.028-.021-.062-.044-.1a26.018,26.018,0,0,0-1.482-3.393c-.642-.994-1.341-1.486-2.1-1.318a9.481,9.481,0,0,0-2.354,1.223c-.279.189-.57.406-.868.653a2.239,2.239,0,0,0-.5.427,12.469,12.469,0,0,0-2.958,3.958,15.412,15.412,0,0,0-1.369,4.729C-2440.086,844.135-2439.271,848.2-2437.815,852.4Z" transform="translate(2642.418 -258.392)" fill="#ffb27d"/>
    <path id="Path_1800" data-name="Path 1800" d="M-2472.062,805.537a22.468,22.468,0,0,1-7.943,3.119c-12.178,2.454-16.526-7.9-18.07-14.97a10.4,10.4,0,0,1,4.135-1.144c.877-.078,1.8-.121,2.562-.138,1.387-1,3.532-5.2,4.166-11.8l.565.169,9.462,2.878s-.523,3.019-.817,5.878c-.229,2.237-.315,4.378.095,4.915.74.182,1.183.3,1.183.3a.035.035,0,0,0,0,.01A61.429,61.429,0,0,1-2472.062,805.537Z" transform="translate(2680.576 -226.019)" fill="#ffb27d"/>
    <path id="Path_1801" data-name="Path 1801" d="M-2455.538,783.974s-.524,3.016-.817,5.877c-5.387-.693-7.749-5.907-8.645-8.755Z" transform="translate(2658.929 -226.343)" fill="#ed985f"/>
    <path id="Path_1802" data-name="Path 1802" d="M-2456,755.809s-12.8-1.069-12.014-9.031-.333-13.463,7.875-13.117,9.492,3.541,9.876,6.263S-2452.652,755.882-2456,755.809Z" transform="translate(2660.926 -195.287)" fill="#ffb27d"/>
    <path id="Path_1803" data-name="Path 1803" d="M-2489.495,827.295c-.083-.321-.169-.637-.254-.949a.8.8,0,0,0-.079-.226c-.12-.356-.212-.676-.311-.967,0-.028-.021-.063-.044-.1a26.022,26.022,0,0,0-1.482-3.393,4.236,4.236,0,0,0-1.443-1.586,26.417,26.417,0,0,0-7.614-2.715.028.028,0,0,0,0,.01c.128.293,3.538,8.065,2.972,9.911-.574,1.877-17.087-1.518-18.133-2.688-.836-.94-1.653-6.43-1.944-8.573-.074-.533-.115-.859-.115-.859s-5.972.056-9.073,1.867a25.616,25.616,0,0,1,2.641,5.682c.087.29.169.581.241.873a12.01,12.01,0,0,1,.319,1.862,3.612,3.612,0,0,1-.808,2.393,17.606,17.606,0,0,1-2.076,2.3c-.545.528-1.132,1.085-1.735,1.684h0a159.95,159.95,0,0,1,1.865,16.205,11.016,11.016,0,0,1-.9,4.806,11.2,11.2,0,0,1-.934,1.731c-2.9,4.382-7.908,13.008-5.861,17.626.758,4.526,39.92,4.933,38.377.065,0,0,1.729-28.571,3.865-35.718.076-.262.144-.516.2-.774a15.591,15.591,0,0,0-.587-7.681A13.554,13.554,0,0,1-2489.495,827.295Z" transform="translate(2704.573 -248.639)" fill="#920061"/>
    <path id="Path_1804" data-name="Path 1804" d="M-2457.569,732.388c-1.736-2.593-3.282-2.217-4.19-1.58a8.978,8.978,0,0,0-11.671.688,15.285,15.285,0,0,1-5.875,8.487s2.186,1.672,7.695.829a9.172,9.172,0,0,0,4.651-2.567,29.968,29.968,0,0,1-5.759,5.755c6.712-2.324,10.181-10.988,10.532-11.906a10.065,10.065,0,0,1,2.416,3.994c.434,2.091.3,6.293,1.533,6.274C-2458.238,742.362-2454.965,736.276-2457.569,732.388Z" transform="translate(2668.291 -192.217)" fill="#1a1a1a"/>
    <path id="Path_1805" data-name="Path 1805" d="M-2495.592,888.447c-7.565,1.016-15.1-5.9-19.917-11.6a11.013,11.013,0,0,0,.9-4.806,160.023,160.023,0,0,0-1.865-16.205h0c.6-.6,1.19-1.156,1.735-1.684a17.587,17.587,0,0,0,2.076-2.3C-2504.956,861.408-2485.335,887.069-2495.592,888.447Z" transform="translate(2692.615 -272.65)" fill="#7b0051"/>
    <path id="Path_1806" data-name="Path 1806" d="M-2330.634,967.439c-1.7.491-4.255,2.6-7.727.728a56.97,56.97,0,0,0-6.459-2.839c-.519-.164-.814-.275-.814-.275l1.938-4.028a.779.779,0,0,0,.171.072c.911.313,5.546,1.886,7.832,1.643,2.572-.286,6.414,3.219,6.414,3.219S-2328.938,966.972-2330.634,967.439Z" transform="translate(2580.806 -344.103)" fill="#ffb27d"/>
    <path id="Path_1807" data-name="Path 1807" d="M-2529.856,1321.608h-19.876a10.912,10.912,0,0,1,.562-5.327c.994-2.205,2.552-3.207,2.179-5.876a7.158,7.158,0,0,0,6.195,2.37c.352.571,2.273,3.625,3.449,4.47C-2536.048,1318.179-2530.256,1317.846-2529.856,1321.608Z" transform="translate(2714.456 -572.766)" fill="#1a1a1a"/>
    <path id="Path_1808" data-name="Path 1808" d="M-2406.536,1323.3h-19.876s-.743-3.17.562-5.327c1.156-1.909.713-3-.143-4.575a7.723,7.723,0,0,0,3.348.63,7,7,0,0,0,2.955-1.04,71.55,71.55,0,0,0,5.664,5.949C-2412.729,1319.867-2406.937,1319.535-2406.536,1323.3Z" transform="translate(2633.813 -574.454)" fill="#1a1a1a"/>
    <path id="Path_1809" data-name="Path 1809" d="M-2442.016,783.552s.179,1.054,2.773,1.056c0,0,2.177,0,2.184-1.143A6.994,6.994,0,0,0-2442.016,783.552Z" transform="translate(2643.886 -227.635)" fill="#fff"/>
    <path id="Path_1810" data-name="Path 1810" d="M-2380.136,963.545a7.913,7.913,0,0,0,2.938-.722c1.233-.659,5.261.4,4.871.935s-2.646-.123-2.857.18a3.655,3.655,0,0,1-1.035.69Z" transform="translate(2603.387 -345.143)" fill="#ffb27d"/>
    <rect id="Rectangle_880" data-name="Rectangle 880" width="119.533" height="119.533" rx="20" transform="translate(226.584 560.756)" fill="#fff"/>
    <path id="Path_1811" data-name="Path 1811" d="M-2237.362,854.891v58.368a15.185,15.185,0,0,1-.826,4.953,15.186,15.186,0,0,1-12.286,10.076,15.271,15.271,0,0,1-2.055.138H-2310.9a15.169,15.169,0,0,1-14.277-10.037,15.114,15.114,0,0,1-.89-5.13V854.891a15.167,15.167,0,0,1,15.167-15.168h58.368A15.169,15.169,0,0,1-2237.362,854.891Z" transform="translate(2567.998 -264.713)" fill="rgba(252,178,0,0.2)"/>
    <g id="Group_1347" data-name="Group 1347" transform="translate(242.823 584.738)">
      <path id="Path_1812" data-name="Path 1812" d="M-2240.072,947.142s-.3,9.137-1.465,13.23l-9.256,6.457,34.842,5.214-8.309-11.481s-2.509-12.251-1.193-16.783S-2240.072,947.142-2240.072,947.142Z" transform="translate(2275.911 -916.637)" fill="#ffb27d"/>
      <path id="Path_1813" data-name="Path 1813" d="M-2219.911,959.821s2.755,6.633,7.945,6.486,6.371-6.015,6.371-6.015Z" transform="translate(2255.699 -928.054)" fill="#ed985f"/>
      <path id="Path_1814" data-name="Path 1814" d="M-2235.469,894.278s-1.677-8.367-2.845-10.9-2.144-13.839,10.818-14.424c0,0,4.97.585,7.7-1.072,0,0,0,1.657-.682,2.241a8.617,8.617,0,0,1,7.992,2.826c3.509,3.9-2.339,17.543-2.046,20.76Z" transform="translate(2268.16 -867.881)" fill="#1a1a1a"/>
      <path id="Path_1815" data-name="Path 1815" d="M-2218.872,923.693c-3.76-.066-10.682-5.073-10.682-11.274v-9.676c0-2.265,1.579-4.117,3.509-4.117h14.347c1.929,0,3.508,1.853,3.508,4.117v9.129C-2208.19,918.373-2214.559,923.77-2218.872,923.693Z" transform="translate(2262.01 -888.003)" fill="#ffb27d"/>
      <path id="Path_1816" data-name="Path 1816" d="M-2230.46,903.758s.02-5.814,4.625-6.708,14.911,2.834,16.373-1.406-19.921-4.167-21-1.462S-2230.46,903.758-2230.46,903.758Z" transform="translate(2262.917 -883.851)" fill="#1a1a1a"/>
      <path id="Path_1817" data-name="Path 1817" d="M-2258.5,997.226a.025.025,0,0,0-.014-.006,6.312,6.312,0,0,0-1.484-.4v.017a91.832,91.832,0,0,0-10.716-2.044c-.38-.05-.758-.094-1.129-.139a16.609,16.609,0,0,1-6.038,5.388c-.427.214-.856.408-1.3.594-.383.161-.774.319-1.176.477a7.234,7.234,0,0,1-1.481-.372c-.278-.1-.55-.214-.818-.341a18.087,18.087,0,0,1-6.468-5.938c-.516.052-1.018.111-1.5.172a50.742,50.742,0,0,0-8.592,1.75h-.005c-.269.033-9.757,1.34-24.275,23.279a15.169,15.169,0,0,0,14.277,10.037h58.369a15.276,15.276,0,0,0,2.055-.138,15.186,15.186,0,0,0,12.286-10.076C-2247.5,1002.8-2255.367,998.382-2258.5,997.226Z" transform="translate(2323.489 -950.725)" fill="#008dbf"/>
      <path id="Path_1818" data-name="Path 1818" d="M-2226.362,988.014a3.7,3.7,0,0,0-1.986,2.4s6.206,6.384,10.266,6.481Z" transform="translate(2261.221 -946.506)" fill="#fcb200"/>
      <path id="Path_1819" data-name="Path 1819" d="M-2198.635,996.281l8.01-9.2a3.757,3.757,0,0,1,1.63,2.879S-2195.191,996.525-2198.635,996.281Z" transform="translate(2241.774 -945.894)" fill="#fcb200"/>
      <path id="Path_1820" data-name="Path 1820" d="M-2203.426,1040.931h-8c.943-10.747,2.094-21.377,2.646-26.35.114-1.01.2-1.786.258-2.282.008-.083.016-.158.024-.225.006-.036.008-.072.012-.1.024-.2.036-.305.036-.305l.8-.014,1.261-.022h0l.535-.008s.009.083.02.244c.008.086.016.2.03.333.009.1.017.222.028.352.05.588.122,1.44.211,2.51C-2205.129,1020.253-2204.266,1030.591-2203.426,1040.931Z" transform="translate(2250.148 -961.957)" fill="#fcb200"/>
      <path id="Path_1821" data-name="Path 1821" d="M-2208.387,1003.855a38.482,38.482,0,0,1,5.944-.142.623.623,0,0,1,.477.925c-.631,1.135-1.917,3.1-3.262,3.1C-2207.118,1007.74-2210.063,1003.985-2208.387,1003.855Z" transform="translate(2248.482 -956.731)" fill="#e8a400"/>
    </g>
    <path id="Path_1822" data-name="Path 1822" d="M-2374.442,968.439a5.954,5.954,0,0,1-7.4,1.935,56.87,56.87,0,0,0-6.618-2.447c-.528-.133-.829-.226-.829-.226l1.692-4.137a.78.78,0,0,0,.175.061c.929.257,5.523.273,8.049,1.625C-2376.449,966.814-2373.207,966.766-2374.442,968.439Z" transform="translate(2609.377 -345.765)" fill="#ffb27d"/>
    <path id="Path_1823" data-name="Path 1823" d="M-2473.132,881.485l-.71,3.9s-1.33-.124-3.447-.33c-.635-.065-1-.122-1-.122-1.7-.183-3.728-.456-5.94-.743l-.031,0c-3.8-.569-8.055-1.279-11.669-2.165a31.357,31.357,0,0,1-6.3-2.18,3.578,3.578,0,0,1-.442-.262c-3.7-2.226-8.482-9.305-12.387-17-.542-1.062-1.055-2.127-1.563-3.162A81.646,81.646,0,0,1-2521,848.408a31.976,31.976,0,0,1-1.272-5.315,13.318,13.318,0,0,1-.161-1.515c-.022-.274-.039-.544-.051-.8a13.764,13.764,0,0,1,9.65-3.5c.1.168.2.337.293.51,2.029,3.69,4.244,8.5,6.339,13.3,1.159,2.627,2.285,5.257,3.394,7.679.638,1.474,1.269,2.857,1.858,4.125a41.145,41.145,0,0,0,3,5.584,14.461,14.461,0,0,0,3.947,2.986,133.73,133.73,0,0,0,12.416,6.3c1.749.808,3.4,1.534,4.772,2.134C-2474.594,880.862-2473.132,881.485-2473.132,881.485Z" transform="translate(2696.549 -263.098)" fill="#ffb27d"/>
    <path id="Path_1824" data-name="Path 1824" d="M-2512.613,826.407c-5.865-1.082-9.895,3.774-9.895,3.774-.676-8.62,3.51-10.172,3.51-10.172C-2517.335,819.145-2515.076,821.959-2512.613,826.407Z" transform="translate(2696.614 -251.709)" fill="#920061"/>
    <path id="Rectangle_881" data-name="Rectangle 881" d="M7.814,0H86.257a7.814,7.814,0,0,1,7.814,7.814V9.688A7.814,7.814,0,0,1,86.257,17.5H7.813A7.813,7.813,0,0,1,0,9.689V7.814A7.814,7.814,0,0,1,7.814,0Z" transform="translate(744.416 685.266)" fill="#7e7e7e"/>
    <g id="Group_1352" data-name="Group 1352" transform="translate(747.675 702.768)">
      <g id="Group_1351" data-name="Group 1351">
        <path id="Path_1825" data-name="Path 1825" d="M-842.81,1209.478l-1.117,10.24L-860.1,1367.967a.923.923,0,0,1-.846.909,1.587,1.587,0,0,1-1.389-1.851l12.83-151.813.485-5.734Z" transform="translate(862.347 -1209.478)" fill="#7e7e7e"/>
      </g>
      <path id="Path_1826" data-name="Path 1826" d="M-818.492,1209.478l-1.117,10.24c-.768-4.079-5.582-4.506-5.582-4.506l.486-5.734Z" transform="translate(838.029 -1209.478)" fill="rgba(26,26,26,0.2)"/>
    </g>
    <g id="Group_1354" data-name="Group 1354" transform="translate(815.69 702.768)">
      <g id="Group_1353" data-name="Group 1353">
        <path id="Path_1827" data-name="Path 1827" d="M-647.358,1368.876a.922.922,0,0,1-.846-.909l-16.177-148.249-.7-6.389-.42-3.852h6.214l.486,5.734.38,4.5,12.45,147.313A1.588,1.588,0,0,1-647.358,1368.876Z" transform="translate(665.498 -1209.478)" fill="#7e7e7e"/>
      </g>
      <path id="Path_1828" data-name="Path 1828" d="M-658.419,1219.713c-1.581-4.88-6.656-6.379-6.656-6.379s0,0,0,0l-.42-3.852h6.214l.486,5.734Z" transform="translate(665.498 -1209.478)" fill="rgba(32,32,32,0.2)"/>
    </g>
    <path id="Rectangle_882" data-name="Rectangle 882" d="M5.606,0H88.466a5.605,5.605,0,0,1,5.605,5.605v0a5.606,5.606,0,0,1-5.606,5.606H5.605A5.605,5.605,0,0,1,0,5.606v0A5.606,5.606,0,0,1,5.606,0Z" transform="translate(141 748.843)" fill="#7e7e7e"/>
    <g id="Group_1358" data-name="Group 1358" transform="translate(144.259 760.054)">
      <g id="Group_1357" data-name="Group 1357">
        <path id="Path_1829" data-name="Path 1829" d="M-2589.216,1375.277l-1.118,6.56-16.177,94.969a.8.8,0,0,1-.846.583c-.831,0-1.478-.552-1.39-1.186l12.83-97.252.486-3.674Z" transform="translate(2608.754 -1375.277)" fill="#7e7e7e"/>
      </g>
      <path id="Path_1830" data-name="Path 1830" d="M-2564.9,1375.277l-1.117,6.56c-.768-2.614-5.583-2.886-5.583-2.886l.486-3.674Z" transform="translate(2584.436 -1375.277)" fill="rgba(26,26,26,0.2)"/>
    </g>
    <g id="Group_1360" data-name="Group 1360" transform="translate(212.275 760.054)">
      <g id="Group_1359" data-name="Group 1359">
        <path id="Path_1831" data-name="Path 1831" d="M-2393.763,1477.389a.8.8,0,0,1-.846-.583l-16.177-94.969-.7-4.093-.42-2.468h6.213l.486,3.674.38,2.882,12.45,94.37C-2392.286,1476.837-2392.932,1477.389-2393.763,1477.389Z" transform="translate(2411.903 -1375.277)" fill="#7e7e7e"/>
      </g>
      <path id="Path_1832" data-name="Path 1832" d="M-2404.824,1381.833c-1.581-3.126-6.657-4.086-6.657-4.086s0,0,0,0l-.42-2.468h6.213l.486,3.674Z" transform="translate(2411.903 -1375.277)" fill="rgba(26,26,26,0.2)"/>
    </g>
    <rect id="Rectangle_883" data-name="Rectangle 883" width="120.789" height="120.789" rx="20" transform="translate(269.332 414.727)" fill="#fff"/>
    <path id="Path_1833" data-name="Path 1833" d="M-2112.243,432.846V491.83a15.432,15.432,0,0,1-.491,3.863,15.356,15.356,0,0,1-9.31,10.434q-.261.1-.524.191a15.246,15.246,0,0,1-5,.838h-58.981a15.143,15.143,0,0,1-2.288-.172,15.323,15.323,0,0,1-11.1-7.685,15.242,15.242,0,0,1-1.941-7.468V432.846a15.325,15.325,0,0,1,15.325-15.325h58.981A15.326,15.326,0,0,1-2112.243,432.846Z" transform="translate(2486.721 11.61)" fill="rgba(252,178,0,0.2)"/>
    <path id="Path_1834" data-name="Path 1834" d="M-2104.531,517.933s-.259,8.03-1.287,11.626l-8.134,5.674,30.618,4.582-7.3-10.089s-2.2-10.766-1.048-14.748S-2104.531,517.933-2104.531,517.933Z" transform="translate(2429.175 -51.366)" fill="#ffb27d"/>
    <path id="Path_1835" data-name="Path 1835" d="M-2086.814,529.075s2.421,5.829,6.982,5.7,5.6-5.286,5.6-5.286Z" transform="translate(2411.413 -61.399)" fill="#ed985f"/>
    <path id="Path_1836" data-name="Path 1836" d="M-2100.486,471.477s-1.474-7.352-2.5-9.579-1.884-12.162,9.507-12.676c0,0,4.368.514,6.766-.942,0,0,0,1.456-.6,1.97a7.572,7.572,0,0,1,7.023,2.484c3.083,3.426-2.055,15.416-1.8,18.243Z" transform="translate(2422.363 -8.521)" fill="#1a1a1a"/>
    <path id="Path_1837" data-name="Path 1837" d="M-2076.514,478.916v8.023a9.479,9.479,0,0,1-.828,3.814h0a12.185,12.185,0,0,1-4.107,4.957,7.9,7.9,0,0,1-4.448,1.618,8.614,8.614,0,0,1-4.227-1.595,11.933,11.933,0,0,1-4.748-5.848l-.012-.036-.03-.1a7.714,7.714,0,0,1-.37-2.327v-8.5a3.393,3.393,0,0,1,3.084-3.617h12.606A3.392,3.392,0,0,1-2076.514,478.916Z" transform="translate(2416.959 -26.204)" fill="#ffb27d"/>
    <path id="Path_1838" data-name="Path 1838" d="M-2134.1,561.605s-7.19-1.548-10.409-1.923c-2.843,3.774-4.883,4.787-7.478,5.817-4.183-.577-7.7-5.865-7.7-5.984a43.121,43.121,0,0,0-8.87,1.83h-.006c-.291.036-11.426,1.586-27.7,31.025a15.324,15.324,0,0,0,11.1,7.685c2.1-1.811,6.6-5.721,10.131-8.789-.039.99-.047,1.885-.025,2.668.061,2.108.128,4.2.175,6.293h44.393c-.086-1.062-.155-2.088-.205-3.067-.153-3.051-.294-5.838-.425-8.381,0-.022,0-.045-.005-.067s0-.053,0-.081l.01.009,2.244,1.947.507.441.449.391c.208.178.419.36.63.547q.569.495,1.154,1c.177.155.358.31.535.466.094.083.189.163.285.247s.219.189.328.285c.08.07.163.139.244.211.191.164.38.33.568.494.156.136.308.269.463.4l.386.333c.466.407.924.8,1.367,1.19.177.152.352.305.527.455s.361.314.535.463c.122.109.245.214.367.319.055.048.108.095.161.139.185.161.363.319.538.466l.521.455c.07.061.139.119.205.177s.145.125.214.183c.175-.058.35-.122.524-.191a15.355,15.355,0,0,0,9.31-10.434C-2124.3,562.39-2134.1,561.605-2134.1,561.605Z" transform="translate(2483.044 -81.322)" fill="#fcb200"/>
    <path id="Path_1839" data-name="Path 1839" d="M-2096.084,479.808s.018-5.109,4.064-5.895,13.1,2.49,14.389-1.236-17.507-3.661-18.453-1.285S-2096.084,479.808-2096.084,479.808Z" transform="translate(2417.756 -22.556)" fill="#1a1a1a"/>
    <path id="Path_1840" data-name="Path 1840" d="M-2129.482,658.687h-5.261c-.047-2.094-.114-4.185-.175-6.293-.022-.782-.014-1.678.025-2.668.008-.222.017-.447.028-.677.05.083.142.225.264.424C-2133.817,650.756-2131.67,654.331-2129.482,658.687Z" transform="translate(2442.904 -139.921)" fill="#f0aa01"/>
    <path id="Path_1841" data-name="Path 1841" d="M-2071.679,517.338v3.536a7.9,7.9,0,0,1-4.448,1.618,8.615,8.615,0,0,1-4.227-1.595v-3.56a3.6,3.6,0,0,1,3.59-3.59h1.5A3.6,3.6,0,0,1-2071.679,517.338Z" transform="translate(2407.186 -51.368)" fill="#1a1a1a"/>
    <path id="Path_1842" data-name="Path 1842" d="M-1995.061,652.181q-.261.1-.524.191c-.069-.058-.142-.119-.214-.183s-.136-.116-.205-.177l-.521-.455c-.175-.147-.352-.305-.538-.466-.053-.044-.106-.091-.161-.139-.122-.1-.244-.21-.367-.319-.174-.149-.355-.305-.535-.463s-.349-.3-.527-.455c-.444-.386-.9-.782-1.367-1.19l-.386-.333c-.155-.133-.308-.266-.463-.4-.188-.163-.377-.33-.568-.494-.081-.072-.164-.141-.244-.211-.109-.1-.219-.191-.328-.285s-.191-.164-.286-.247c-.177-.156-.358-.311-.535-.466q-.583-.507-1.154-1c-.211-.186-.422-.369-.63-.547l-.449-.391-.507-.441-2.244-1.947c-.016-.014-.03-.025-.044-.039s.014-.011.039-.028c.422-.3,4.26-2.832,6.684,1.453A101.206,101.206,0,0,0-1995.061,652.181Z" transform="translate(2359.737 -134.443)" fill="#f0aa01"/>
    <path id="Path_1843" data-name="Path 1843" d="M-2076.644,518.121c-1.7,3.862-5.654,6.626-8.555,6.575-2.788-.051-7.553-3.192-8.974-7.442l-.012-.036-.03-.1s2.995,2.555,4.975,1.289h8.319A4.11,4.11,0,0,0-2076.644,518.121Z" transform="translate(2416.258 -53.572)" fill="#1a1a1a"/>
    <path id="Path_1844" data-name="Path 1844" d="M-2070.375,520.055h-1.794c-.412,0-.935-.673-.935-1.085a1.975,1.975,0,0,1,.935-.411h1.794a1.5,1.5,0,0,1,1.11.585A1.234,1.234,0,0,1-2070.375,520.055Z" transform="translate(2402.44 -54.518)" fill="#ffb27d"/>
    <rect id="Rectangle_884" data-name="Rectangle 884" width="120.789" height="120.789" rx="20" transform="translate(413.841 412.262)" fill="#fff"/>
    <path id="Path_1845" data-name="Path 1845" d="M-1694.007,425.713v58.981a15.279,15.279,0,0,1-3.622,9.9,15.3,15.3,0,0,1-11.7,5.43h-58.984a15.251,15.251,0,0,1-10.1-3.8,15.282,15.282,0,0,1-5.223-11.523V425.713a15.328,15.328,0,0,1,15.326-15.328h58.984A15.327,15.327,0,0,1-1694.007,425.713Z" transform="translate(2212.993 16.281)" fill="rgba(252,178,0,0.2)"/>
    <path id="Path_1846" data-name="Path 1846" d="M-1702.791,490.19s-9.622-.482-9.893-6.034-8.218-9.6-5.916-14.061c2.823-5.467.249-10.723,3.812-14.4,3.927-4.05,8.888-1.85,11.505-4.21s7.4-4.535,12.124-1.62,8.323,1.346,11.426,4.153c3.428,3.1,2.128,7.007,4.956,9.127,2.591,1.944,1.535,7.254-.648,11.568-1.573,3.11,2.052,6.025-4.173,9.6-2.59,1.488-2.029,5.23-9.895,5.876C-1693.036,490.481-1700.725,488.821-1702.791,490.19Z" transform="translate(2170.698 -8.643)" fill="#1a1a1a"/>
    <path id="Path_1847" data-name="Path 1847" d="M-1690.506,546.4s-.281,8.676-1.391,12.563l-8.789,6.131,33.086,4.951-7.89-10.9s-2.382-11.633-1.133-15.937S-1690.506,546.4-1690.506,546.4Z" transform="translate(2158.7 -69.778)" fill="#b56f40"/>
    <path id="Path_1848" data-name="Path 1848" d="M-1671.361,558.441s2.616,6.3,7.544,6.16,6.05-5.712,6.05-5.712Z" transform="translate(2139.507 -80.619)" fill="#99592e"/>
    <path id="Path_1849" data-name="Path 1849" d="M-1670.375,524.136c-3.571-.063-10.143-4.818-10.143-10.706v-9.188a3.666,3.666,0,0,1,3.332-3.909h13.623a3.667,3.667,0,0,1,3.332,3.909v8.668C-1660.231,519.084-1666.279,524.208-1670.375,524.136Z" transform="translate(2145.5 -42.588)" fill="#b56f40"/>
    <path id="Path_1850" data-name="Path 1850" d="M-1708.639,593.728h-.006a89.5,89.5,0,0,0-11.246-2.212c-3.073,4.077-5.274,5.165-8.083,6.275-4.515-.624-8.323-6.328-8.323-6.455a46.658,46.658,0,0,0-9.585,1.965.051.051,0,0,0-.014,0c-.4.05-9.191,1.415-22.63,21.483a15.25,15.25,0,0,0,10.1,3.8h52.769c0-.047,0-.093-.007-.139h6.222a15.3,15.3,0,0,0,11.7-5.43C-1697.179,596.8-1708.639,593.728-1708.639,593.728Z" transform="translate(2203.1 -102.148)" fill="#920061"/>
    <path id="Path_1851" data-name="Path 1851" d="M-1680.557,500.341s2.479-7.566,10.6-6.386,8.824,2.915,9.687,4.928,2.53-7.357,2.53-7.357l-9.579-2.846s-11.592,1.319-12.424,3.262l-.833,1.944Z" transform="translate(2145.539 -34.962)" fill="#1a1a1a"/>
    <path id="Path_1852" data-name="Path 1852" d="M-1660.311,523.678a2.609,2.609,0,0,0-2.052-.871h-4.31a1.9,1.9,0,0,0-1.7.7,1.528,1.528,0,0,0-.241.713v0a4.022,4.022,0,0,0-1.916.034h0v0a1.562,1.562,0,0,0-.247-.746,1.9,1.9,0,0,0-1.7-.7h-4.312a2.6,2.6,0,0,0-2.049.871,2.2,2.2,0,0,0-.4,1.894c.491,2.437,3.295,2.748,4.7,2.748a7.694,7.694,0,0,0,.785-.036c1.312,0,2.235-.752,2.906-2.354a4.2,4.2,0,0,0,.328-1.323h0a3.71,3.71,0,0,1,1.9-.039h0a4.191,4.191,0,0,0,.327,1.362c.671,1.6,1.595,2.352,2.907,2.354a7.792,7.792,0,0,0,.787.036c1.4,0,4.207-.311,4.7-2.746A2.217,2.217,0,0,0-1660.311,523.678Zm-10.508,1.018a4.255,4.255,0,0,1-.3,1.126c-.621,1.486-1.464,2.18-2.651,2.18h-.019a8.367,8.367,0,0,1-2.391-.111,3.112,3.112,0,0,1-2.79-2.374,1.924,1.924,0,0,1,.344-1.658,2.328,2.328,0,0,1,1.83-.768h4.312a1.641,1.641,0,0,1,1.465.574,1.328,1.328,0,0,1,.2.669v0a3.671,3.671,0,0,0-.378.14.169.169,0,0,0-.084.225.169.169,0,0,0,.154.1.164.164,0,0,0,.07-.016s.09-.039.231-.088Zm10.633.821a3.115,3.115,0,0,1-2.793,2.374,8.368,8.368,0,0,1-2.391.111h-.016c-1.187,0-2.031-.693-2.651-2.18a4,4,0,0,1-.3-1.154v0c.082.033.164.07.246.113a.17.17,0,0,0,.229-.07.17.17,0,0,0-.071-.229,2.982,2.982,0,0,0-.4-.173v0a1.292,1.292,0,0,1,.2-.638,1.638,1.638,0,0,1,1.464-.574h4.31a2.33,2.33,0,0,1,1.833.768A1.932,1.932,0,0,1-1660.186,525.516Z" transform="translate(2144.705 -57.298)" fill="#1a1a1a"/>
    <path id="Path_1853" data-name="Path 1853" d="M-1249.617,465.341l-78.958-9.105a20.655,20.655,0,0,1-18.151-22.884l9.106-78.958a20.654,20.654,0,0,1,22.884-18.152l78.959,9.105a20.654,20.654,0,0,1,18.151,22.884l-9.105,78.958A20.654,20.654,0,0,1-1249.617,465.341Z" transform="translate(1927.13 64.896)" fill="#fff"/>
    <path id="Path_1854" data-name="Path 1854" d="M-1202.475,404.843l-6.758,58.593a15.225,15.225,0,0,1-2.152,6.245v0a15.362,15.362,0,0,1-7.49,6.27,15.2,15.2,0,0,1-5.691,1.051h0a14.91,14.91,0,0,1-1.645-.1l-24.841-2.865-4.911-.566-16.052-1.852-2.061-.238-10.727-1.237a15.318,15.318,0,0,1-12.458-9.487c-.133-.328-.256-.658-.363-.993a15.029,15.029,0,0,1-.741-4.2,15.312,15.312,0,0,1,.092-2.3l6.759-58.593a15.325,15.325,0,0,1,16.981-13.47l58.593,6.756A15.329,15.329,0,0,1-1202.475,404.843Z" transform="translate(1895.397 35.512)" fill="rgba(252,178,0,0.2)"/>
    <path id="Path_1855" data-name="Path 1855" d="M-1227.273,442.592a1.017,1.017,0,0,0-.025-.139c-.188-1.071-.4-2.133-.635-3.178v0c1.3-8.377-1.911-11.958-4.694-13.774h0c-1.495-2.92-3.092-4.978-4.607-5.677a14.855,14.855,0,0,0-8.134-.857,3.748,3.748,0,0,1,1.62-.943c-1.387-.089-4.329,1.528-4.329,1.528-19.68-5.738-20.309,22.578-19.361,29.065s-5.674,9.188-15.159,15.162c-8.616,5.427-13.256,11.279-15.753,15.919a15.033,15.033,0,0,0,.741,4.2,2.954,2.954,0,0,1,.932-.6c-.019.058-.255.7-.568,1.6a15.318,15.318,0,0,0,12.458,9.487l10.727,1.237,2.061.238,16.052,1.852c1.686-2.39,3.522-4.865,5.43-7.319a159.807,159.807,0,0,1,14.136-16.133c1.456-1.411,2.84-2.646,4.113-3.656.047-.036.094-.074.141-.111a18.558,18.558,0,0,0,1.517-3.689,45.054,45.054,0,0,0,1.636-9.876,43.73,43.73,0,0,1-.926,9.973,17.424,17.424,0,0,1-.663,2.193,11.94,11.94,0,0,0,1.506-2.063C-1225.714,461.29-1225.672,451.675-1227.273,442.592Z" transform="translate(1895.379 11.285)" fill="#1a1a1a"/>
    <path id="Path_1856" data-name="Path 1856" d="M-1148.523,536.2c.06.036-6.478,2.527-10.971.723-4.227-1.693-6.426-7.681-6.365-7.687,1.891-.154,2.716-2.632,3.936-13.551l.817.261,13.728,4.4s-.83,4.384-1.319,8.548C-1149.11,532.392-1149.28,535.734-1148.523,536.2Z" transform="translate(1808.666 -52.637)" fill="#ffb27d"/>
    <path id="Path_1857" data-name="Path 1857" d="M-1166.244,432.613s6.328-7.987,15.647-1.7C-1150.6,430.912-1155.75,430.462-1166.244,432.613Z" transform="translate(1808.917 4.424)" fill="#008dbf"/>
    <path id="Path_1858" data-name="Path 1858" d="M-1138.373,520.842s-.83,4.384-1.32,8.548c-7.836-1.128-11.164-8.779-12.409-12.95Z" transform="translate(1799.661 -53.131)" fill="#ef9e67"/>
    <path id="Path_1859" data-name="Path 1859" d="M-1145.253,477.674s-18.631,1.88-19.624-9.741-4.066-19.2,7.788-20.9,14.547,2.545,15.821,6.343S-1140.432,476.885-1145.253,477.674Z" transform="translate(1808.744 -7.457)" fill="#ffb27d"/>
    <path id="Path_1860" data-name="Path 1860" d="M-1159.058,441.074s-3.959,14.065-11.629,16.742-11.248.863-11.248.863a22.278,22.278,0,0,0,6.156-13.728S-1163.458,434.909-1159.058,441.074Z" transform="translate(1819.187 -2.495)" fill="#1a1a1a"/>
    <path id="Path_1861" data-name="Path 1861" d="M-1119.12,443.62s4.072,2.723,5.251,5.6,2.111,8.939,3.87,8.582c0,0,3.068-9.592-1.7-14.47C-1116.753,438.163-1119.12,443.62-1119.12,443.62Z" transform="translate(1778.075 -3.827)" fill="#1a1a1a"/>
    <path id="Path_1862" data-name="Path 1862" d="M-1173.279,559c-1.936-2.426-5.891-3.688-9.771-4.34-.283-.045-.563-.089-.843-.131-.239-.034-.475-.067-.71-.1-1.636-.214-3.2-.324-4.542-.383-.2-.283-.322-.457-.358-.511a.085.085,0,0,1-.015-.016l-15.755-1.276-.167-.014-.031,0c-.011,0-.022,0-.036,0-1.187-.127-17.509-1.747-20.665,4.01-2.063,3.763-2.1,10.963-1.128,18.953-.294,2.71-.538,5.467-.755,8.057l2.061.238,16.052,1.852,4.912.566,24.841,2.865a14.91,14.91,0,0,0,1.645.1h0a15.2,15.2,0,0,0,5.691-1.051,15.362,15.362,0,0,0,7.49-6.271v0C-1167.747,571.77-1170.736,562.2-1173.279,559Z" transform="translate(1849.37 -76.355)" fill="#af0ecc"/>
    <rect id="Rectangle_885" data-name="Rectangle 885" width="120.721" height="120.721" rx="20" transform="translate(588.392 559.971)" fill="#fff"/>
    <path id="Path_1863" data-name="Path 1863" d="M-1188.891,853.18v58.948a15.335,15.335,0,0,1-.6,4.246,15.329,15.329,0,0,1-13.972,11.052c-.25.014-.5.019-.751.019h-58.948c-.1,0-.21,0-.316-.006s-.2,0-.3-.008a15.321,15.321,0,0,1-14.075-10.966,15.237,15.237,0,0,1-.624-4.337V853.18a15.319,15.319,0,0,1,15.317-15.32h58.948A15.32,15.32,0,0,1-1188.891,853.18Z" transform="translate(1882.371 -263.494)" fill="rgba(252,178,0,0.2)"/>
    <path id="Path_1864" data-name="Path 1864" d="M-1197.669,950.887s-.339,10.484-1.681,15.18l-10.62,7.408,39.976,5.983-9.534-13.173s-2.879-14.056-1.369-19.256S-1197.669,950.887-1197.669,950.887Z" transform="translate(1837.535 -333.889)" fill="#ffb27d"/>
    <path id="Path_1865" data-name="Path 1865" d="M-1174.538,965.435s3.161,7.61,9.115,7.442,7.31-6.9,7.31-6.9Z" transform="translate(1814.345 -346.989)" fill="#ed985f"/>
    <path id="Path_1866" data-name="Path 1866" d="M-1192.389,890.233s-1.923-9.6-3.265-12.507-2.46-15.878,12.412-16.549c0,0,5.7.671,8.834-1.23,0,0,0,1.9-.783,2.572a9.885,9.885,0,0,1,9.17,3.242c4.026,4.473-2.683,20.128-2.348,23.819Z" transform="translate(1828.642 -277.949)" fill="#1a1a1a"/>
    <path id="Path_1867" data-name="Path 1867" d="M-1173.347,923.983c-4.314-.076-12.256-5.821-12.256-12.936v-11.1c0-2.6,1.812-4.724,4.026-4.724h16.46c2.214,0,4.026,2.126,4.026,4.724v10.473C-1161.09,917.879-1168.4,924.07-1173.347,923.983Z" transform="translate(1821.587 -301.037)" fill="#ffb27d"/>
    <path id="Path_1868" data-name="Path 1868" d="M-1186.643,901.11s.023-6.671,5.307-7.7,17.109,3.251,18.786-1.613-22.857-4.781-24.093-1.677S-1186.643,901.11-1186.643,901.11Z" transform="translate(1822.626 -296.273)" fill="#1a1a1a"/>
    <path id="Path_1869" data-name="Path 1869" d="M-1178.8,1036.95h-55.945c-.1,0-.21,0-.316-.005,1.415-12.816,4.451-28.272,6.881-29.29,0,0,.277-.1.813-.269a.048.048,0,0,1,.014,0,54.912,54.912,0,0,1,7.871-1.736l.028,0q1.693-.262,3.683-.469c0,.155,4.6,6.878,10.056,7.632,3.392-1.342,6.057-2.485,9.768-7.413,1.223.144,2.477.311,3.758.51,3.117.48,6.4,1.132,9.831,2,.405.1.815.206,1.226.316h0c.163.039.325.084.488.128,0,0,.039.169.136,1.173v0C-1180.295,1011.8-1179.793,1018.363-1178.8,1036.95Z" transform="translate(1853.956 -372.999)" fill="#af0ecc"/>
    <g id="Group_1369" data-name="Group 1369" transform="translate(604.519 632.646)">
      <path id="Path_1870" data-name="Path 1870" d="M-1254.968,1008.344a.253.253,0,0,0-.042.011,7.771,7.771,0,0,0-.854.247c-.023.008-.045.013-.061.019a.241.241,0,0,1-.05.017l-.033.011c-2.951,1.023-10.342,4.773-20.661,18.21a15.321,15.321,0,0,0,14.075,10.966c.1.005.2.008.3.008s.211.006.316.006h14.852c.161-9.466.275-17.7.347-23.344.031-2.493.052-4.479.069-5.846s.022-2.116.022-2.116l-.028,0A58.9,58.9,0,0,0-1254.968,1008.344Z" transform="translate(1276.67 -1006.533)" fill="#920061"/>
      <path id="Path_1871" data-name="Path 1871" d="M-1099.435,1009.722a8.673,8.673,0,0,0-1.523-.438c-.005,0-.008,0-.011,0a89.918,89.918,0,0,0-10.014-2v0c0,.081.011,1.786.033,4.729v0c.017,1.886.039,4.282.064,7.083.05,5.217.122,11.842.219,19.231h16.077c.252,0,.5-.005.751-.019a15.329,15.329,0,0,0,13.972-11.052C-1089.517,1014.617-1096.409,1010.84-1099.435,1009.722Z" transform="translate(1168.231 -1007.021)" fill="#920061"/>
    </g>
    <path id="Path_1872" data-name="Path 1872" d="M-1160.426,922.617a2.931,2.931,0,0,0-2.307-.982h-4.848a2.147,2.147,0,0,0-1.914.787,1.792,1.792,0,0,0-.274.8v0a4.523,4.523,0,0,0-2.152.039h0v0a1.8,1.8,0,0,0-.277-.84,2.139,2.139,0,0,0-1.913-.787h-4.845a2.931,2.931,0,0,0-2.307.982,2.483,2.483,0,0,0-.452,2.132c.552,2.738,3.708,3.087,5.283,3.087.485,0,.821-.034.885-.039,1.475,0,2.513-.846,3.267-2.648a4.614,4.614,0,0,0,.366-1.487h0a4.178,4.178,0,0,1,2.135-.045h0a4.643,4.643,0,0,0,.372,1.531c.755,1.8,1.792,2.646,3.267,2.648.064.005.4.039.885.039,1.575,0,4.731-.35,5.283-3.087A2.484,2.484,0,0,0-1160.426,922.617Zm-11.818,1.145a4.69,4.69,0,0,1-.333,1.265c-.7,1.673-1.647,2.452-2.981,2.452h-.019a9.466,9.466,0,0,1-2.69-.125c-1.8-.366-2.854-1.265-3.137-2.668a2.174,2.174,0,0,1,.385-1.866,2.62,2.62,0,0,1,2.061-.865h4.845a1.855,1.855,0,0,1,1.65.646,1.472,1.472,0,0,1,.228.751v0a4.157,4.157,0,0,0-.426.158.191.191,0,0,0-.094.253.19.19,0,0,0,.173.111.2.2,0,0,0,.079-.017s.1-.044.259-.1Zm11.956.924c-.283,1.4-1.34,2.3-3.139,2.668a9.448,9.448,0,0,1-2.687.125h-.02c-1.334,0-2.282-.779-2.981-2.452a4.61,4.61,0,0,1-.336-1.3h0a2.784,2.784,0,0,1,.276.127.191.191,0,0,0,.258-.079.191.191,0,0,0-.079-.258,3.353,3.353,0,0,0-.46-.2v0a1.538,1.538,0,0,1,.227-.718,1.852,1.852,0,0,1,1.647-.646h4.848a2.619,2.619,0,0,1,2.06.865A2.175,2.175,0,0,1-1160.287,924.686Z" transform="translate(1819.086 -318.323)" fill="#1a1a1a"/>
    <rect id="Rectangle_886" data-name="Rectangle 886" width="140.005" height="140.005" rx="20" transform="translate(379.048 555.205)" fill="#fff"/>
    <path id="Path_1873" data-name="Path 1873" d="M-1773.3,848.491v68.363a17.771,17.771,0,0,1-11.094,16.471q-.574.233-1.167.424a17.7,17.7,0,0,1-5.505.871h-68.363a17.766,17.766,0,0,1-17.766-17.767V848.491a17.766,17.766,0,0,1,17.766-17.766h68.363A17.766,17.766,0,0,1-1773.3,848.491Z" transform="translate(2274.225 -258.824)" fill="rgba(252,178,0,0.2)"/>
    <path id="Path_1874" data-name="Path 1874" d="M-1765.111,882.376h0a17.823,17.823,0,0,0-6.722-.2,21.669,21.669,0,0,0-8.99,3.4c-3.464,2.339-8.464,7.391-2.874,21.246l2.649,4.765c-.884,10.38-5.13,10.381-5.13,10.381a9.5,9.5,0,0,0,2.753.915s1.31-.5,1.569-1.224a4.662,4.662,0,0,1-.6,1.5s7.208.683,10.807-2.038c1.957-1.48,4.1-4.95,5.481-8.488l5.451.383c.059,2.345-.781,5.027-3.4,7.828,0,0,6.724.66,9-1.2a6.266,6.266,0,0,1-.862,1.316s7.518.27,10.621-2.075S-1744.245,878.076-1765.111,882.376Z" transform="translate(2214.672 -292.354)" fill="#1a1a1a"/>
    <path id="Path_1875" data-name="Path 1875" d="M-1752.224,1029.874h-53.226a52.946,52.946,0,0,1-.793-11.679,24.2,24.2,0,0,1,4.781-12.217,41.708,41.708,0,0,1,8.862-8.991s.124-.025.335-.061c.38-.067,1.037-.172,1.739-.236h.008c.663-.35.932-2.759,1.012-5.583.022-.785.031-1.6.028-2.413,0-.7-.011-1.409-.028-2.105q-.012-.487-.025-.965c0-.091-.005-.18-.009-.269,0-.136-.008-.269-.014-.4,0-.1-.005-.206-.011-.308,0-.161-.011-.317-.017-.472-.008-.21-.017-.416-.025-.619,0-.044-.005-.086-.005-.13-.008-.191-.017-.377-.025-.56-.011-.222-.022-.439-.034-.643l-.008-.158c-.017-.33-.033-.638-.05-.915,0-.075-.008-.15-.011-.222s-.008-.167-.014-.244-.008-.153-.013-.222c-.014-.233-.028-.43-.039-.588,0-.036,0-.069-.006-.1s-.006-.075-.008-.106c-.009-.147-.014-.225-.014-.225l8.983-1.777h0l6.157-1.22.721-.142.18-.036v.011a53.963,53.963,0,0,0,.344,6.384,43.006,43.006,0,0,0,.755,4.512v0c1.12,4.964,2.865,7.954,4.123,8.448h0a.827.827,0,0,0,.125.045C-1762.31,996.924-1753,1012.817-1752.224,1029.874Z" transform="translate(2227.834 -354.078)" fill="#d9935c"/>
    <path id="Path_1876" data-name="Path 1876" d="M-1758.607,979.776s.345,4.766.355,9.255c8.474-.238,12.953-7.969,14.788-12.254Z" transform="translate(2196.608 -354.412)" fill="#cb7d45"/>
    <path id="Path_1877" data-name="Path 1877" d="M-1779.446,933.678s20.049.331,20.063-12.158,2.61-20.857-10.19-21.6-15.292,4.024-16.311,8.191S-1784.661,933.27-1779.446,933.678Z" transform="translate(2214.616 -304.063)" fill="#d9935c"/>
    <path id="Path_1878" data-name="Path 1878" d="M-1764.649,894.375s5.489,14.651,13.913,16.818,12.079-.091,12.079-.091a23.859,23.859,0,0,1-7.8-14.094S-1760.509,887.4-1764.649,894.375Z" transform="translate(2200.562 -298.82)" fill="#1a1a1a"/>
    <path id="Path_1879" data-name="Path 1879" d="M-1779.941,898.1s-4.1,3.271-5.1,6.451-1.449,9.727-3.357,9.5c0,0-4.135-9.959.512-15.593C-1782.956,892.489-1779.941,898.1-1779.941,898.1Z" transform="translate(2217.214 -301.355)" fill="#1a1a1a"/>
    <path id="Path_1880" data-name="Path 1880" d="M-1762.917,896.5s3.911,15.343,14.541,20.257c0,0-10.63-9.426-11.533-19.555S-1762.917,896.5-1762.917,896.5Z" transform="translate(2199.429 -299.264)" fill="#1a1a1a"/>
    <path id="Path_1881" data-name="Path 1881" d="M-1743.707,1042.062q-.512-1.223-1.01-2.41-.25-.594-.5-1.175a.076.076,0,0,0-.008-.031c-4.634-11-8.3-19.308-8.663-19.916-1.034-1.747-15.154-3.48-17.223-3.469-1.5,0-2.326-4.973-2.659-7.7a1.012,1.012,0,0,0-1.57-.716c-.147.1-.3.2-.446.294-.186.119-.369.236-.555.352s-.371.225-.558.332c-.124.072-.249.144-.374.214-.141.081-.283.155-.424.23s-.258.136-.386.2-.258.131-.388.194-.257.125-.385.186l-.305.142c-.189.086-.375.169-.563.247-.133.058-.269.114-.4.169-.094.039-.189.078-.283.114-.516.2-1.031.388-1.542.555a21.4,21.4,0,0,1-10.65,1l-.169-.042a1.638,1.638,0,0,0-2,1.942c.311,1.414.391,2.962-.408,3.744-3.586.8-12.314,3.026-13.95,6.132-1.174,2.227-1.281,15.337-1.917,26.991h63.271a17.7,17.7,0,0,0,5.505-.871q.594-.191,1.167-.424C-1741.982,1046.2-1742.855,1044.1-1743.707,1042.062Z" transform="translate(2230.927 -373.848)" fill="#fcb200"/>
    <path id="Path_1882" data-name="Path 1882" d="M-1687.768,1119.518h-8.487c2.147-3.553,4.193-6.135,5.378-6.279C-1689.862,1113.118-1688.781,1115.785-1687.768,1119.518Z" transform="translate(2155.799 -443.723)" fill="#f0aa01"/>
    <path id="Path_1883" data-name="Path 1883" d="M-1731.913,1015.062s-10.573,6.7-18.571,5.111c0,0-1.92-1.213.728-2.433,2.487-1.142,8.272-4.523,7-7.858a26.1,26.1,0,0,0,6.613-3.232,1.01,1.01,0,0,1,1.568.716C-1734.238,1010.088-1733.415,1015.062-1731.913,1015.062Z" transform="translate(2191.732 -373.849)" fill="#f0aa01"/>
    <path id="Path_1884" data-name="Path 1884" d="M-1377.956,1137.963s16.1,16.468,16.882,22.818-7.761,16.284-7.761,16.284Z" transform="translate(1947.479 -459.905)" fill="#f0aa01"/>
    <path id="Path_1885" data-name="Path 1885" d="M-1440.417,1637.648s-.555,8.953-2.287,9.081c-.23.017-8.784.017-8.784.017l-10.92-.063a3.543,3.543,0,0,1,3.263-3.188c3.192-.556,8.535-2.8,10.469-7.018C-1446.642,1632.039-1440.417,1637.648-1440.417,1637.648Z" transform="translate(2002.751 -785.056)" fill="#920061"/>
    <path id="Path_1886" data-name="Path 1886" d="M-1370.023,1637.648s-.556,8.953-2.287,9.081c-.23.017-8.785.017-8.785.017l-10.92-.063a3.543,3.543,0,0,1,3.263-3.188c3.192-.556,8.534-2.8,10.468-7.018C-1376.249,1632.039-1370.023,1637.648-1370.023,1637.648Z" transform="translate(1956.68 -785.056)" fill="#920061"/>
    <path id="Path_1887" data-name="Path 1887" d="M-1433.762,1338.712s2.856,18.266,13.51,50.692,12.106,46.467,12.106,46.467l11.43-.321s.1-35.437-4.813-51.742-1.059-58.783-1.059-58.783Z" transform="translate(1984.003 -582.334)" fill="#1a1a1a"/>
    <path id="Path_1888" data-name="Path 1888" d="M-1449.875,1327.92a443.365,443.365,0,0,0,4.358,61.323c4.763,33.8,3.148,48.143,3.148,48.143l11.407.38s6.816-33.81,4.862-50.726,9.334-58.047,9.334-58.047Z" transform="translate(1994.554 -584.229)" fill="#2b2b2b"/>
    <path id="Path_1889" data-name="Path 1889" d="M-1414.1,1115.715l-6.077,3.985-8.783-1.637c.121-.709.7-3.648,1.229-6.309.032-.157.064-.314.094-.468.452-2.264.843-4.21.843-4.21l8.2-3.62,3.058-1.349c-.008.048-.237,2.514-.268,2.873A20.911,20.911,0,0,0-1414.1,1115.715Z" transform="translate(1980.86 -436.438)" fill="#ffb27d"/>
    <path id="Path_1890" data-name="Path 1890" d="M-1429.107,1130.368c.17-.072,10.577-3.143,11.707-2.77s1.8,2.561,1.8,2.561l-17.021,3.848S-1431.281,1131.283-1429.107,1130.368Z" transform="translate(1983.256 -453.102)" fill="#f0aa01"/>
    <path id="Path_1891" data-name="Path 1891" d="M-1416.08,1204.931c-1.764,8.046-31.12,9-38.687,1.7-.861-.832-.9-4.706-.578-9.929.635-10.2,2.674-25.553,2.753-33.4a62.127,62.127,0,0,1,1.252-11.178,90.783,90.783,0,0,1,3.724-13.379s14.339-4.635,17.022-3.847C-1417.67,1138.7-1414.316,1196.884-1416.08,1204.931Z" transform="translate(1998.251 -457.841)" fill="#fcb200"/>
    <path id="Path_1892" data-name="Path 1892" d="M-1454.992,1226.616c.635-10.2,2.674-25.553,2.753-33.4a62.116,62.116,0,0,1,1.252-11.178l8.625-1.522S-1433.928,1214.966-1454.992,1226.616Z" transform="translate(1997.897 -487.759)" fill="#f0aa01"/>
    <path id="Path_1893" data-name="Path 1893" d="M-1446.126,1270.226a2.029,2.029,0,0,1-.647,2.349c-1.235.944-2.035,2.472-1.753,3.59s2.991,2.939,3.93,2.645,2.85-1.765,2.644-2.354,1.285-5.172-1-6.935S-1446.126,1270.226-1446.126,1270.226Z" transform="translate(1993.703 -545.592)" fill="#ffb27d"/>
    <path id="Path_1894" data-name="Path 1894" d="M-1461.294,1140.229s-8.411,1.574-15.114,11.452-11.113,17.222-9.878,20.782,12.49,15.907,14.43,15.907,5.072-1.411,5.248-4.586c0,0-7.924-11.876-6.363-13.655.667-.761,10.287-8.57,11.661-5.042C-1459.038,1170.923-1461.294,1140.229-1461.294,1140.229Z" transform="translate(2018.515 -461.389)" fill="#fcb200"/>
    <path id="Path_1895" data-name="Path 1895" d="M-1414.089,1107.647c-1.8,3.052-8.514,5.69-11.314,6.66.032-.157.064-.314.094-.468.452-2.265.843-4.21.843-4.21l8.2-3.62C-1414.45,1105.985-1413.346,1106.391-1414.089,1107.647Z" transform="translate(1978.532 -438.992)" fill="#fca56b"/>
    <path id="Path_1896" data-name="Path 1896" d="M-1434.77,1073.848s13.214,4.122,15.655-4.147,5.789-13.305-2.544-16.287-10.911-.312-12.4,2.25S-1438.144,1072.562-1434.77,1073.848Z" transform="translate(1985.744 -403.709)" fill="#ffb27d"/>
    <path id="Path_1897" data-name="Path 1897" d="M-1430.43,1046.316s.842,9.622,2.832,9.2,3.795-.727,3.5,2.173-1.644,7.509,4.489,8.022,13.541-16.561,11.857-19.556C-1412.609,1037.52-1437.455,1035.776-1430.43,1046.316Z" transform="translate(1982.635 -395.158)" fill="#1a1a1a"/>
    <path id="Path_1898" data-name="Path 1898" d="M-789.22,590.648s-6.031,7.156-13.712,4.162a23.263,23.263,0,0,1-1.676-6.942c0-.362-.007-.714-.013-1.048-.041-3.317-.153-5.179-.153-5.179l.008,0c.35-.145,11.741-4.823,11.732-4.434C-793.229,586.178-789.22,590.648-789.22,590.648Z" transform="translate(1572.342 -92.885)" fill="#ffb27d"/>
    <path id="Path_1899" data-name="Path 1899" d="M-794.178,583.281a17.818,17.818,0,0,1-10.443,7.476c-.041-3.317-.153-5.179-.153-5.179l.008,0C-804.451,585.492-793.851,582.681-794.178,583.281Z" transform="translate(1572.342 -96.822)" fill="#ed975d"/>
    <path id="Path_1900" data-name="Path 1900" d="M-815.454,549.093s12.811,3.012,14.565-5,4.587-13.011-3.519-15.273-10.37.445-11.6,2.975S-818.742,548.1-815.454,549.093Z" transform="translate(1580.636 -60.682)" fill="#ffb27d"/>
    <path id="Path_1901" data-name="Path 1901" d="M-809.447,534.388c.175.112,2.931.959,8.152-9.441a9.06,9.06,0,0,0-.532-8.285c-1.911-3.121-8.684-5.574-14.312-6.642s-6.979,2.1-8.3,5.281c-1.391,3.341-5.409,6.092-5.409,6.092,4.853,2.711,10.7-1.166,12.724-.529s2.74,3.829,2.892,4.852.385,1.873,2.932.96,1.152,3.608.744,4.473C-810.562,531.148-810.908,533.452-809.447,534.388Z" transform="translate(1588.755 -48.79)" fill="#a9453d"/>
    <path id="Path_1902" data-name="Path 1902" d="M-675.74,1122.581h7.758c1.626,0,3.433-1.629,3.886-4.609s3.8-4.609,4.519-7.05-2.984-5.876-2.984-5.876l-.62-.8-.644-.83-6.145,1.445s-.152,1.463-.247,3.327a42.6,42.6,0,0,0-.025,4.265c.181,3.255-.911,6.758-3.8,7.392S-675.74,1122.581-675.74,1122.581Z" transform="translate(1488.052 -437.299)" fill="#1a1a1a"/>
    <path id="Path_1903" data-name="Path 1903" d="M-831.578,1137.67h20.563a1.856,1.856,0,0,0,.437-.126c1.373-.688.943-5.944.778-7.568-.032-.3-.055-.477-.055-.477s-7.231-5.784-8.226-1.355c-.032.138-.068.274-.106.407v0c-1.255,4.143-6.866,6.026-10.107,6.55C-830.771,1135.506-831.414,1136.948-831.578,1137.67Z" transform="translate(1589.885 -452.387)" fill="#1a1a1a"/>
    <path id="Path_1904" data-name="Path 1904" d="M-819.583,812.078s1.1,13.7,2.389,30.171c1.754,22.372,3.864,49.854,4.073,55.06.36,9.04,1.808,23.5,1.808,23.5s3.433,3.435,10.3,1.987a236.578,236.578,0,0,0,7.871-42.484c.027-.358.054-.718.081-1.079C-791.43,857-788.9,810.18-788.9,810.18Z" transform="translate(1582.034 -245.378)" fill="#fcb200"/>
    <path id="Path_1905" data-name="Path 1905" d="M-819.583,812.078s1.1,13.7,2.389,30.171l24.056,38.064c.027-.358.054-.718.081-1.079C-791.43,857-788.9,810.18-788.9,810.18Z" transform="translate(1582.034 -245.378)" fill="#f0aa01"/>
    <path id="Path_1906" data-name="Path 1906" d="M-805.069,803.433s19.794,49.62,32.809,72.939,17.082,29.827,17.082,29.827,7.456-2.983,8.134-5.017c0,0-4.977-45.018-13.693-55.992-4.925-6.2-10.71-24.81-10.982-31.317s-1.763-19.387-1.763-19.387Z" transform="translate(1572.535 -235.105)" fill="#fcb200"/>
    <path id="Path_1907" data-name="Path 1907" d="M-674.719,792.077l.209,3.191a6.877,6.877,0,0,0,3.792,8.578s2.524,1.018,2.627-.947-.221-1.226-.016-3.993-.883-5.382-2.713-6.263l-1.5-1.733Z" transform="translate(1487.325 -232.766)" fill="#ffb27d"/>
    <path id="Path_1908" data-name="Path 1908" d="M-737.7,681.529c-2.191.7-2.542.544-2.542.544s-10.664-19.414-11.744-21.191-22.641-21.771-22.641-21.771l5.541-20.662s24.522,31.755,27.171,36.312c4.376,7.53,6.94,25.017,6.94,25.017A6.413,6.413,0,0,1-737.7,681.529Z" transform="translate(1552.612 -119.894)" fill="#7b0051"/>
    <path id="Path_1909" data-name="Path 1909" d="M-831.726,638.472c.077,4.243.324,9.013.656,13.858q.031.431.061.861c.213,3,.444,6.01.708,8.943q.159,1.765.337,3.481l.018.154c.009.427.061.891.108,1.314,1.081,10.987,2.214,19.667,2.425,19.8a1.232,1.232,0,0,0,.843.215c2.882-.362,11.479.292,18.517-1.239a53.356,53.356,0,0,0,16.472-6.83c.719-.425,2.359-1.551,2.225-2.393-.131-.925-.373-2.262-.681-3.943a213.387,213.387,0,0,1-3.539-27.663q-.183-3.287-.532-6.485a98.478,98.478,0,0,0-2.869-15.486c-2.414-8.689-5.96-15.343-10.409-17.947-.581-.326-3.71,1.664-6.581,3.508a12.686,12.686,0,0,1-8.163,1.934l-2.39,2.644a26.7,26.7,0,0,0-6.82,14.215q-.094.706-.163,1.5A93.414,93.414,0,0,0-831.726,638.472Z" transform="translate(1589.998 -111.143)" fill="#920061"/>
    <path id="Path_1910" data-name="Path 1910" d="M-831.726,674.384c.077,4.243.324,9.012.656,13.858q.031.431.061.861c16.459-10.3,18.994-29.154,18.994-29.154-8.1.355-14.529,2.216-19.487,4.878A93.414,93.414,0,0,0-831.726,674.384Z" transform="translate(1589.998 -147.055)" fill="#7b0051"/>
    <path id="Path_1911" data-name="Path 1911" d="M-999.256,635.792l-3-1.538a8.2,8.2,0,0,0-9.158-5.462s-2.94.595-1.71,2.429,1.022.974,2.7,3.592,4.409,4.325,6.637,4.023l2.507.662Z" transform="translate(1708.896 -126.604)" fill="#ed975d"/>
    <path id="Path_1912" data-name="Path 1912" d="M-981.78,637.936c.849-2.295,2.167-2.146,2.167-2.146s24.472,6.1,26.668,6.36,26.352-9.432,26.352-9.432,9.508-4.267,13.962-.371c3.87,3.386,4.046,7.675,3.141,11.277a10.769,10.769,0,0,1-9.1,8.022c-9.855,1.255-29.517,3.618-33.639,3.044-9.172-1.277-29.955-13.274-29.955-13.274A7.7,7.7,0,0,1-981.78,637.936Z" transform="translate(1688.487 -127.916)" fill="#920061"/>
    <path id="Path_1913" data-name="Path 1913" d="M-2031.387,1166.408s.7-7.584-7.778-7.584a9.955,9.955,0,0,1,3.9,2.09s-5.4-3.173-11.286,1.7-2.227,17.1-4.015,19.424-8.754,2.786-7.9,10.293,22.105,16.908,20.74,23.119c0,0,8.329-12.244,2.374-17.832,0,0,2.9,2.734,3.2,5.985,0,0,.788-6.346-3.25-8.376-3.574-1.8-6.5-8.366-6.191-9.539S-2031.387,1166.408-2031.387,1166.408Z" transform="translate(2392.911 -473.559)" fill="#1a1a1a"/>
    <path id="Path_1914" data-name="Path 1914" d="M-2030.088,1272.589a7.524,7.524,0,0,0-13.325-3.105,6.818,6.818,0,0,0-1.342,3.305c-.881,7.143,10.539,36.234,12.174,38.868,2.977,4.8,20.509,21.234,20.509,21.234l3.231-1.958s-12.435-21.052-14.361-23.022C-2025.428,1305.633-2027.606,1284.536-2030.088,1272.589Z" transform="translate(2383.918 -544.06)" fill="#ed985f"/>
    <path id="Path_1915" data-name="Path 1915" d="M-2025.857,1272.742a18.818,18.818,0,0,1,3.62,5.68s-3.964,11.384-13.229,12.812C-2035.466,1291.233-2028.135,1272.737-2025.857,1272.742Z" transform="translate(2377.807 -548.116)" fill="#7b0051"/>
    <path id="Path_1916" data-name="Path 1916" d="M-2012.845,1177.455c.115-.462-10.039,4.589-10.554,5.16-4.762,5.282-3.4,12.175-.679,12.242,1.748.042,1.409,2.948,1.409,2.948l19.468-8.235S-2005.545,1175.9-2012.845,1177.455Z" transform="translate(2371.973 -485.672)" fill="#1a1a1a"/>
    <path id="Path_1917" data-name="Path 1917" d="M-2139.721,1453.994l-4.213-.619a49.805,49.805,0,0,1-16.275-32.262,37.5,37.5,0,0,1-.1-6.494,1.14,1.14,0,0,0-.147-.717s0,0,0-.006c-.453-.7-1.582-2.436-3.11-4.913-1.506-2.439-4.083-7.052-6.918-12.227-5.108-9.321-11.054-20.468-13.094-24.018-6.5-11.316-3.367-18.925-3.367-18.925s18.131-1.793,23.1-6.139l1.789,2.758s3.929,17.391,3.743,17.471q.29.887.59,1.806a302.527,302.527,0,0,1,8.61,31.268c1.093,5.481,1.672,10.256,1.361,13.509a23.728,23.728,0,0,0,.32,4.948C-2145.684,1431.916-2139.721,1453.994-2139.721,1453.994Z" transform="translate(2477.444 -597.157)" fill="#2b2b2b"/>
    <path id="Path_1918" data-name="Path 1918" d="M-2056.731,1652.285h-17.576a9.646,9.646,0,0,1,.5-4.711c.879-1.95,2.133-2.012.16-5.069,1.116,1.15,4.707,1.625,7.248,1.284.311.5,2.007,3.891,3.047,4.639C-2062.206,1649.252-2057.084,1648.958-2056.731,1652.285Z" transform="translate(2403.291 -790.119)" fill="#1a1a1a"/>
    <path id="Path_1919" data-name="Path 1919" d="M-2157.729,1369.709c-1.536,8.468-5.162,22.56-12.76,27.046-5.108-9.321-11.054-20.468-13.094-24.018-6.5-11.316-3.367-18.925-3.367-18.925s18.131-1.793,23.1-6.139l1.789,2.758s3.929,17.391,3.743,17.471Q-2158.029,1368.79-2157.729,1369.709Z" transform="translate(2477.444 -597.157)" fill="#1a1a1a"/>
    <path id="Path_1920" data-name="Path 1920" d="M-2220.2,1348.173l.059-3.288c-6.55.826-22.583-7.826-22.583-7.826s-6.852,4.557-7.79,17.572c-.458,6.353-3.354,33.219-3.674,41.241-.117,2.907-.156,4.983-.169,5.812a.019.019,0,0,1,0,.008,1.144,1.144,0,0,1-.279.677,37.6,37.6,0,0,0-3.549,5.44c-9.994,18.595-4.768,43.862-4.768,43.862l2.321-.59s8.45-26.193,13.974-37.523a23.711,23.711,0,0,1,2.5-4.282c2.077-2.522,4.267-6.805,6.426-11.961,4.079-9.746,8.041-22.606,10.865-32.564C-2226.661,1364.787-2220.2,1348.173-2220.2,1348.173Z" transform="translate(2527.583 -590.211)" fill="#2b2b2b"/>
    <path id="Path_1921" data-name="Path 1921" d="M-2037,1257.928c-10.707-2.457-3.867-17.5-3.246-17.238,1.483-.3,4.742-2.907,7.656-7.995l.393.342,6.577,5.766s-1.52,2.242-2.8,4.439c-1,1.719-1.849,3.414-1.714,4C-2029.606,1247.653-2034.147,1258.585-2037,1257.928Z" transform="translate(2382.719 -521.906)" fill="#ffb27d"/>
    <path id="Path_1922" data-name="Path 1922" d="M-2005.451,1239.455s-1.52,2.24-2.8,4.439c-4.089-2.52-4.093-7.583-3.778-10.2Z" transform="translate(2362.546 -522.557)" fill="#ed985f"/>
    <path id="Path_1923" data-name="Path 1923" d="M-2005.784,1220.077s-9.927-5.524-6.392-11.654,4.635-10.97,11.123-7.7,6.36,6.311,5.677,8.643S-2003.11,1221.356-2005.784,1220.077Z" transform="translate(2363.062 -500.291)" fill="#ffb27d"/>
    <path id="Path_1924" data-name="Path 1924" d="M-1995.676,1204.216c-.455-2.721-1.837-2.981-2.8-2.8a7.939,7.939,0,0,0-9.656-3.7,13.517,13.517,0,0,1-7.825,4.7s1.152,2.144,5.9,3.47a8.121,8.121,0,0,0,4.683-.374,26.5,26.5,0,0,1-6.737,2.539c6.255.572,12.207-5.146,12.823-5.758a8.9,8.9,0,0,1,.492,4.1c-.412,1.843-2.048,5.182-1.049,5.614C-1999.847,1212.01-1994.994,1208.3-1995.676,1204.216Z" transform="translate(2365.039 -498.718)" fill="#1a1a1a"/>
    <path id="Path_1925" data-name="Path 1925" d="M-2253.383,1652.044h-17.576a9.648,9.648,0,0,1,.5-4.711c.879-1.95,2.257-2.836,1.927-5.2a6.331,6.331,0,0,0,5.479,2.1,19.29,19.29,0,0,0,3.05,3.954C-2258.858,1649.011-2253.737,1648.717-2253.383,1652.044Z" transform="translate(2531.996 -789.878)" fill="#1a1a1a"/>
    <path id="Path_1926" data-name="Path 1926" d="M-2139.7,1279.5a42.733,42.733,0,0,1-8.683,1.574c-4.621.5-9.393.85-11.893,1.847a2.684,2.684,0,0,0-1.712,1.386c-1.083,3.258-5.858,8.285-5.858,8.285-30.606-1.393-33.966-14.194-33.966-14.194,20.591-23.944,55.456-30.875,55.456-30.875s2.491-1.055,8.762,3.928c4.185,3.328,3.634,4.605,3.634,4.605S-2133.049,1277.177-2139.7,1279.5Z" transform="translate(2486.68 -531.549)" fill="#920061"/>
    <path id="Path_1927" data-name="Path 1927" d="M-2069.9,1297.639c-4.622.5-9.394.849-11.893,1.846a48.738,48.738,0,0,1,6.182-26.745S-2070.911,1291.863-2069.9,1297.639Z" transform="translate(2408.191 -548.115)" fill="#7b0051"/>
    <rect id="Rectangle_887" data-name="Rectangle 887" width="128.746" height="128.745" rx="20" transform="translate(368.384 732.945)" fill="#fff"/>
    <path id="Path_1928" data-name="Path 1928" d="M-1816.7,1357.595v62.866a16.272,16.272,0,0,1-4.388,11.135,16.286,16.286,0,0,1-11.95,5.2h-62.867a16.292,16.292,0,0,1-12.194-5.469,16.267,16.267,0,0,1-4.141-10.869v-62.866a16.335,16.335,0,0,1,16.335-16.335h62.867A16.337,16.337,0,0,1-1816.7,1357.595Z" transform="translate(2297.16 -592.96)" fill="rgba(252,178,0,0.2)"/>
    <path id="Path_1929" data-name="Path 1929" d="M-1817.743,1425.44s-9.124-16.55-.756-23.858,23.1-2.946,25.814,0,6.321,11.328-1.165,23.245Z" transform="translate(2238.117 -629.818)" fill="#1a1a1a"/>
    <path id="Path_1930" data-name="Path 1930" d="M-1821.382,1487.834s-.33,10.219-1.638,14.8l-10.352,7.221,38.967,5.831-9.293-12.84s-2.806-13.7-1.334-18.77S-1821.382,1487.834-1821.382,1487.834Z" transform="translate(2245.54 -685.401)" fill="#b56f40"/>
    <path id="Path_1931" data-name="Path 1931" d="M-1798.835,1502.014s3.082,7.418,8.886,7.255,7.125-6.727,7.125-6.727Z" transform="translate(2222.936 -698.171)" fill="#99592e"/>
    <path id="Path_1932" data-name="Path 1932" d="M-1797.672,1461.609c-4.205-.074-11.947-5.674-11.947-12.609v-10.822c0-2.532,1.766-4.6,3.924-4.6h16.046c2.158,0,3.924,2.072,3.924,4.6v10.209C-1785.726,1455.659-1792.849,1461.694-1797.672,1461.609Z" transform="translate(2229.994 -653.378)" fill="#b56f40"/>
    <path id="Path_1933" data-name="Path 1933" d="M-1813.249,1561.915a16.285,16.285,0,0,1-11.95,5.2h-62.867a16.292,16.292,0,0,1-12.194-5.469c13.473-17.9,22.015-19.033,22.237-19.059a57.282,57.282,0,0,1,11.262-2.213c0,.15,4.515,6.764,9.837,7.5,3.306-1.306,5.785-2.588,9.4-7.391a106.705,106.705,0,0,1,13.365,2.61l0-.022S-1826.176,1545.075-1813.249,1561.915Z" transform="translate(2289.316 -723.278)" fill="#5cc7ff"/>
    <path id="Path_1934" data-name="Path 1934" d="M-1809.664,1433.586s2.919-8.911,12.484-7.521,10.392,3.433,11.409,5.8,2.978-8.665,2.978-8.665l-11.281-3.352s-13.652,1.553-14.633,3.842l-.981,2.289Z" transform="translate(2230.039 -644.397)" fill="#1a1a1a"/>
    <path id="Path_1935" data-name="Path 1935" d="M-1790.287,1388.209s-10.108-9.186-5.771-11.148S-1790.287,1388.209-1790.287,1388.209Z" transform="translate(2221.826 -616.26)" fill="#1a1a1a"/>
    <path id="Path_1936" data-name="Path 1936" d="M-1797.464,1393.611s-12.781-4.815-9.472-8.238S-1797.464,1393.611-1797.464,1393.611Z" transform="translate(2228.596 -621.42)" fill="#1a1a1a"/>
    <path id="Path_1937" data-name="Path 1937" d="M-1776.877,1388.9s-2.091-11.848,2.96-11.761S-1776.877,1388.9-1776.877,1388.9Z" transform="translate(2208.846 -616.441)" fill="#1a1a1a"/>
    <path id="Path_1938" data-name="Path 1938" d="M-1774.012,1386.908s5.475-12.745,10.571-11.552S-1774.012,1386.908-1774.012,1386.908Z" transform="translate(2206.689 -615.225)" fill="#1a1a1a"/>
    <path id="Path_1939" data-name="Path 1939" d="M-1774.825,1394.793s8.713-10.793,13.3-8.268S-1774.825,1394.793-1774.825,1394.793Z" transform="translate(2207.222 -622.334)" fill="#1a1a1a"/>
    <path id="Path_1940" data-name="Path 1940" d="M-2057.213,1264.193s-11.583,1.145-12.512,8.671,11.106,38.182,12.829,40.958c3.137,5.054,21.613,22.376,21.613,22.376l3.4-2.064s-13.1-22.184-15.134-24.261C-2050.2,1306.614-2053.29,1266.8-2057.213,1264.193Z" transform="translate(2400.262 -542.521)" fill="#ffb27d"/>
    <path id="Path_1941" data-name="Path 1941" d="M-2073.261,1273.975c.03.171,10.69,3.482,17.55,0,0,0,1.468-15.828-6.722-14.969s-13.04,3.438-13.246,7.359S-2073.261,1273.975-2073.261,1273.975Z" transform="translate(2404.133 -539.104)" fill="#920061"/>
    <path id="Path_1942" data-name="Path 1942" d="M-1971.151,1468.681s-1.431,5.432,0,7.891a22.622,22.622,0,0,0,3.4,4.359v-14.315Z" transform="translate(2336.13 -675.004)" fill="#ffb27d"/>
  </g>
</svg>
