<svg xmlns="http://www.w3.org/2000/svg" width="724.916" height="428.544" viewBox="0 0 724.916 428.544">
  <g id="subscripition-payment" transform="translate(-140.75 -433.456)">
    <g id="Group_178" data-name="Group 178" transform="translate(141 433.456)">
      <path id="Path_31" data-name="Path 31" d="M169.706,97.6h3.913a14.9,14.9,0,0,0,14.9,14.9v3.913a14.9,14.9,0,0,0-14.9,14.9h-3.913a14.9,14.9,0,0,0-14.9-14.9v-3.913A14.9,14.9,0,0,0,169.706,97.6Z" transform="translate(-127.953 -53.581)" fill="#1a1a1a"/>
      <path id="Path_32" data-name="Path 32" d="M154.855,73.775h1.73a14.9,14.9,0,0,0,14.9,14.9v1.729a14.9,14.9,0,0,0-14.9,14.9h-1.73a14.9,14.9,0,0,0-14.9-14.9V88.678A14.9,14.9,0,0,0,154.855,73.775Z" transform="translate(-139.954 -72.838)" fill="none" stroke="#1a1a1a" stroke-miterlimit="10" stroke-width="0.5"/>
      <path id="Path_33" data-name="Path 33" d="M181.711,73.257h0a14.9,14.9,0,0,0,14.9,14.9h0a14.9,14.9,0,0,0-14.9,14.9h0a14.9,14.9,0,0,0-14.9-14.9h0A14.9,14.9,0,0,0,181.711,73.257Z" transform="translate(-118.249 -73.257)" fill="#920061"/>
    </g>
    <path id="Path_315" data-name="Path 315" d="M426.443,320.675h3.208a21.282,21.282,0,0,0,21.283,21.28v3.208a21.282,21.282,0,0,0-21.283,21.28h-3.208a21.28,21.28,0,0,0-21.28-21.28v-3.208A21.28,21.28,0,0,0,426.443,320.675Z" transform="translate(374.309 300.325)" fill="#920061"/>
    <path id="Path_2199" data-name="Path 2199" d="M3749.842,3808.506l-131.116,43.364,26.323,21.937h0l-113.454,118.768-99.448-85.388-396.97,325.266,3.5.054h98.891l293.609-240.572,104.844,90.02,159.026-166.479v0l28.411,23.678Z" transform="translate(-2884.176 -3370.506)" fill="#f0f0f0"/>
    <g id="Group_1473" data-name="Group 1473" transform="translate(237.804 559.592)">
      <g id="Group_1471" data-name="Group 1471" transform="translate(0 0)">
        <path id="Path_2200" data-name="Path 2200" d="M3508.573,4574.829l-29.6-2.546s1.711-18.249-3.5-42.589c-3.842-17.98-11.46-39.282-26.324-59.011-25.35-33.645-100.648-52.467-100.648-52.467v-4.355l2.707-.293a10.766,10.766,0,0,0-2.707-1.286v-10.3a36.411,36.411,0,0,1,8.557.838,58.465,58.465,0,0,0-8.557-1.536v-5.414c109.075,2.916,144.648,68.8,155.8,119.791A204.173,204.173,0,0,1,3508.573,4574.829Z" transform="translate(-3348.506 -4350.197)" fill="#82b378"/>
        <path id="Path_2201" data-name="Path 2201" d="M3638.119,4443.2l-129.545,9.577c-.67-19.954-5.878-40.588-10.915-56.232a265.425,265.425,0,0,0-9.908-26.3c-38.754-84.917-139.244-96.425-139.244-96.425l111.534-45.676c53.881,4.055,91.682,29.932,118.121,62.424C3629.943,4354.206,3638.119,4443.2,3638.119,4443.2Z" transform="translate(-3348.506 -4228.146)" fill="#a8d29f"/>
      </g>
      <path id="Path_2202" data-name="Path 2202" d="M3977.394,4610l-129.545,9.577-29.6-2.546s1.711-18.25-3.5-42.589a175.829,175.829,0,0,1,22.181-11.1q3.417-1.446,6.643-2.934c82.482-38.069,74.8-97.371,73.859-103.043C3969.218,4521,3977.394,4610,3977.394,4610Z" transform="translate(-3687.781 -4394.946)" fill="#82b378" opacity="0.5"/>
      <g id="Group_1472" data-name="Group 1472" transform="translate(22.178 6.601)">
        <path id="Path_2203" data-name="Path 2203" d="M3687.193,4470.817l-115.448-2.233.407-2.223c.061-.337,5.99-34.186-7.851-72.672a144.917,144.917,0,0,0-39.293-58.626c-22.505-20.488-52.58-35.738-89.391-45.326l-5.671-1.476,90.109-35.861.346-.008c.975-.021,24.183-.373,54.015,13.736a167.519,167.519,0,0,1,47.849,34.346c17.8,18.115,32.767,40.919,44.5,67.777.926,2.063,22.855,51.3,21.7,80.857v.036Zm-110.923-5.989,107.3,2.076,1.046-17.965c.459-11.809-3.08-29.216-10.237-50.341-5.436-16.05-11.078-28.667-11.134-28.792-11.526-26.392-26.2-48.772-43.621-66.535a163.767,163.767,0,0,0-46.663-33.58,141.292,141.292,0,0,0-43.955-12.9,29.916,29.916,0,0,0-14.445,1.926l-62.449,24.853a3.736,3.736,0,0,0,.245,7.028c30.369,9.778,55.653,23.769,75.321,41.7a148.682,148.682,0,0,1,40.294,60.255,164.118,164.118,0,0,1,9.344,52.145A138.314,138.314,0,0,1,3576.27,4464.828Z" transform="translate(-3429.946 -4252.387)" fill="#82b378"/>
      </g>
      <path id="Path_2204" data-name="Path 2204" d="M3962.43,4486.153c0,19.019-11.142,30.511-30.161,30.511s-38.713-11.492-38.713-30.511,10.533-30.394,29.552-30.394S3962.43,4467.134,3962.43,4486.153Z" transform="translate(-3745.125 -4393.774)" fill="#82b378"/>
    </g>
    <g id="Group_1496" data-name="Group 1496" transform="translate(432.864 642.283)">
      <g id="Group_1475" data-name="Group 1475" transform="translate(19.354 199.542)">
        <path id="Path_2205" data-name="Path 2205" d="M4274.349,5268.9v11.364a4.333,4.333,0,0,1-.75,2.445,4.406,4.406,0,0,1-2.056,1.639,4.072,4.072,0,0,1-.8.226,4.279,4.279,0,0,1-.772.07H4088.954a4.395,4.395,0,0,1-4.375-4.155c0-.074,0-.149,0-.225V5268.9c0-.075,0-.15,0-.226a4.395,4.395,0,0,1,4.375-4.154H4269.97a4.235,4.235,0,0,1,.772.07,4.105,4.105,0,0,1,.8.225,4.413,4.413,0,0,1,2.056,1.639A4.332,4.332,0,0,1,4274.349,5268.9Z" transform="translate(-4084.575 -5264.523)" fill="#ffb93e"/>
        <path id="Path_2206" data-name="Path 2206" d="M4185.461,5284.646h-96.977a4.151,4.151,0,0,1-3.905-4.155c0-.074,0-.149,0-.225V5268.9c0-.075,0-.15,0-.226a4.151,4.151,0,0,1,3.905-4.154h85.068C4174.911,5270.447,4178.077,5278.64,4185.461,5284.646Z" transform="translate(-4084.575 -5264.523)" fill="#ffa412"/>
        <g id="Group_1474" data-name="Group 1474" transform="translate(66.508)">
          <rect id="Rectangle_890" data-name="Rectangle 890" width="2.057" height="20.124" transform="translate(99.183 0)" fill="#ffa412"/>
          <rect id="Rectangle_891" data-name="Rectangle 891" width="2.058" height="20.124" transform="translate(92.219 0)" fill="#ffa412"/>
          <rect id="Rectangle_892" data-name="Rectangle 892" width="2.057" height="20.124" transform="translate(83.868 0)" fill="#ffa412"/>
          <rect id="Rectangle_893" data-name="Rectangle 893" width="2.057" height="20.124" transform="translate(71.067 0)" fill="#ffa412"/>
          <rect id="Rectangle_894" data-name="Rectangle 894" width="2.057" height="20.124" transform="translate(57.531 0)" fill="#ffa412"/>
          <rect id="Rectangle_895" data-name="Rectangle 895" width="2.057" height="20.124" transform="translate(36.779 0)" fill="#ffa412"/>
          <rect id="Rectangle_896" data-name="Rectangle 896" width="2.058" height="20.124" transform="translate(17.349 0)" fill="#ffa412"/>
          <rect id="Rectangle_897" data-name="Rectangle 897" width="2.057" height="20.124" transform="translate(0 0)" fill="#ffa412"/>
          <rect id="Rectangle_898" data-name="Rectangle 898" width="2.057" height="20.124" transform="translate(105.812 0)" fill="#ffa412"/>
          <rect id="Rectangle_899" data-name="Rectangle 899" width="2.057" height="20.124" transform="translate(110.192 0)" fill="#ffa412"/>
          <rect id="Rectangle_900" data-name="Rectangle 900" width="2.057" height="20.124" transform="translate(114.42 0)" fill="#ffa412"/>
          <path id="Path_2207" data-name="Path 2207" d="M4762.694,5264.593v19.983a4.279,4.279,0,0,1-.772.07h-1.285v-20.123h1.285A4.235,4.235,0,0,1,4762.694,5264.593Z" transform="translate(-4643.036 -5264.523)" fill="#ffa412"/>
          <path id="Path_2208" data-name="Path 2208" d="M4773.191,5267.246V5283.5a4.4,4.4,0,0,1-2.055,1.639v-19.533A4.405,4.405,0,0,1,4773.191,5267.246Z" transform="translate(-4650.676 -5265.312)" fill="#ffa412"/>
        </g>
      </g>
      <g id="Group_1477" data-name="Group 1477" transform="translate(0 179.419)">
        <path id="Path_2209" data-name="Path 2209" d="M4203.28,5195.007v11.365a4.337,4.337,0,0,1-.75,2.445,4.407,4.407,0,0,1-2.055,1.639,4.13,4.13,0,0,1-.8.225,4.3,4.3,0,0,1-.772.07H4017.885a4.394,4.394,0,0,1-4.375-4.154c0-.075-.005-.15-.005-.225v-11.365c0-.074,0-.15.005-.225a4.395,4.395,0,0,1,4.375-4.154H4198.9c.116,0,.232,0,.346.014.048,0,.1.008.148.015s.108.012.162.022.078.012.117.02a4.1,4.1,0,0,1,.8.225c.039.015.075.029.114.046s.075.031.112.048l.221.106c.04.022.084.046.125.07s.075.042.111.065c.07.042.138.085.206.131s.152.109.225.167.114.09.169.138c0,0,.008,0,.01.009.036.032.075.066.111.1a3.847,3.847,0,0,1,.317.327c.032.034.061.068.088.1l.084.106c.056.073.112.148.162.224A4.334,4.334,0,0,1,4203.28,5195.007Z" transform="translate(-4013.505 -5190.628)" fill="#ffb93e"/>
        <path id="Path_2210" data-name="Path 2210" d="M4114.393,5210.751h-96.978a4.15,4.15,0,0,1-3.905-4.154c0-.075-.005-.15-.005-.225v-11.365c0-.074,0-.15.005-.225a4.15,4.15,0,0,1,3.905-4.154h85.066c.038.165.078.329.118.5C4104.021,5197,4107.209,5204.912,4114.393,5210.751Z" transform="translate(-4013.505 -5190.628)" fill="#ffa412"/>
        <g id="Group_1476" data-name="Group 1476" transform="translate(66.508)">
          <rect id="Rectangle_901" data-name="Rectangle 901" width="2.057" height="20.124" transform="translate(99.184 0)" fill="#ffa412"/>
          <rect id="Rectangle_902" data-name="Rectangle 902" width="2.057" height="20.124" transform="translate(92.22 0)" fill="#ffa412"/>
          <rect id="Rectangle_903" data-name="Rectangle 903" width="2.057" height="20.124" transform="translate(83.869 0)" fill="#ffa412"/>
          <rect id="Rectangle_904" data-name="Rectangle 904" width="2.057" height="20.124" transform="translate(71.068 0)" fill="#ffa412"/>
          <rect id="Rectangle_905" data-name="Rectangle 905" width="2.057" height="20.124" transform="translate(57.531 0)" fill="#ffa412"/>
          <rect id="Rectangle_906" data-name="Rectangle 906" width="2.057" height="20.124" transform="translate(36.78 0)" fill="#ffa412"/>
          <rect id="Rectangle_907" data-name="Rectangle 907" width="2.057" height="20.124" transform="translate(17.35 0)" fill="#ffa412"/>
          <rect id="Rectangle_908" data-name="Rectangle 908" width="2.057" height="20.124" transform="translate(0 0)" fill="#ffa412"/>
          <rect id="Rectangle_909" data-name="Rectangle 909" width="2.058" height="20.124" transform="translate(105.812 0)" fill="#ffa412"/>
          <rect id="Rectangle_910" data-name="Rectangle 910" width="2.057" height="20.124" transform="translate(110.192 0)" fill="#ffa412"/>
          <rect id="Rectangle_911" data-name="Rectangle 911" width="2.057" height="20.124" transform="translate(114.421 0)" fill="#ffa412"/>
          <path id="Path_2211" data-name="Path 2211" d="M4691.625,5190.7v19.983a4.332,4.332,0,0,1-.772.07h-1.286v-20.124h1.286A4.243,4.243,0,0,1,4691.625,5190.7Z" transform="translate(-4571.966 -5190.627)" fill="#ffa412"/>
          <path id="Path_2212" data-name="Path 2212" d="M4702.123,5193.35V5209.6a4.411,4.411,0,0,1-2.056,1.639v-19.533A4.4,4.4,0,0,1,4702.123,5193.35Z" transform="translate(-4579.605 -5191.416)" fill="#ffa412"/>
        </g>
      </g>
      <g id="Group_1479" data-name="Group 1479" transform="translate(9.353 159.791)">
        <path id="Path_2213" data-name="Path 2213" d="M4237.625,5122.934V5134.3a4.343,4.343,0,0,1-.75,2.446,4.4,4.4,0,0,1-2.056,1.639,4.038,4.038,0,0,1-.8.225,4.287,4.287,0,0,1-.772.071H4052.229a4.337,4.337,0,0,1-2.019-.5,4.4,4.4,0,0,1-2.342-3.462c-.007-.065-.012-.13-.014-.2s0-.15,0-.226v-11.364c0-.075,0-.15,0-.225a4.4,4.4,0,0,1,4.375-4.155h181.017a4.243,4.243,0,0,1,.772.071,4.1,4.1,0,0,1,.8.225,4.408,4.408,0,0,1,2.056,1.64A4.34,4.34,0,0,1,4237.625,5122.934Z" transform="translate(-4047.849 -5118.554)" fill="#ffb93e"/>
        <path id="Path_2214" data-name="Path 2214" d="M4148.736,5138.678h-96.978a3.536,3.536,0,0,1-1.8-.5,4.43,4.43,0,0,1-2.09-3.462c-.007-.065-.012-.13-.014-.2s0-.15,0-.226v-11.364c0-.075,0-.15,0-.225a4.152,4.152,0,0,1,3.905-4.155h85.068c1.322,5.763,4.353,13.672,11.313,19.628Q4148.435,5138.432,4148.736,5138.678Z" transform="translate(-4047.849 -5118.554)" fill="#ffa412"/>
        <g id="Group_1478" data-name="Group 1478" transform="translate(66.509)">
          <rect id="Rectangle_912" data-name="Rectangle 912" width="2.057" height="20.124" transform="translate(99.183 0)" fill="#ffa412"/>
          <rect id="Rectangle_913" data-name="Rectangle 913" width="2.057" height="20.124" transform="translate(92.219 0)" fill="#ffa412"/>
          <rect id="Rectangle_914" data-name="Rectangle 914" width="2.057" height="20.124" transform="translate(83.868 0)" fill="#ffa412"/>
          <rect id="Rectangle_915" data-name="Rectangle 915" width="2.057" height="20.124" transform="translate(71.067 0)" fill="#ffa412"/>
          <rect id="Rectangle_916" data-name="Rectangle 916" width="2.057" height="20.124" transform="translate(57.531 0)" fill="#ffa412"/>
          <rect id="Rectangle_917" data-name="Rectangle 917" width="2.057" height="20.124" transform="translate(36.779 0)" fill="#ffa412"/>
          <rect id="Rectangle_918" data-name="Rectangle 918" width="2.057" height="20.124" transform="translate(17.35 0)" fill="#ffa412"/>
          <rect id="Rectangle_919" data-name="Rectangle 919" width="2.057" height="20.124" transform="translate(0 0)" fill="#ffa412"/>
          <rect id="Rectangle_920" data-name="Rectangle 920" width="2.057" height="20.124" transform="translate(105.812 0)" fill="#ffa412"/>
          <rect id="Rectangle_921" data-name="Rectangle 921" width="2.057" height="20.124" transform="translate(110.192 0)" fill="#ffa412"/>
          <rect id="Rectangle_922" data-name="Rectangle 922" width="2.057" height="20.124" transform="translate(114.42 0)" fill="#ffa412"/>
          <path id="Path_2215" data-name="Path 2215" d="M4725.97,5118.624v19.983a4.337,4.337,0,0,1-.772.07h-1.286v-20.124h1.286A4.337,4.337,0,0,1,4725.97,5118.624Z" transform="translate(-4606.311 -5118.554)" fill="#ffa412"/>
          <path id="Path_2216" data-name="Path 2216" d="M4736.467,5121.277v16.255a4.411,4.411,0,0,1-2.055,1.639v-19.533A4.406,4.406,0,0,1,4736.467,5121.277Z" transform="translate(-4613.951 -5119.343)" fill="#ffa412"/>
        </g>
      </g>
      <g id="Group_1481" data-name="Group 1481" transform="translate(13.689 139.667)">
        <path id="Path_2217" data-name="Path 2217" d="M4253.546,5049.039V5060.4a4.341,4.341,0,0,1-.75,2.445,4.407,4.407,0,0,1-2.056,1.639,4.088,4.088,0,0,1-.8.226,4.337,4.337,0,0,1-.772.069H4068.151a4.395,4.395,0,0,1-4.375-4.154c0-.075,0-.15,0-.226v-11.364c0-.075,0-.15,0-.225a4.4,4.4,0,0,1,3.857-4.123,4.014,4.014,0,0,1,.518-.032h181.016a4.337,4.337,0,0,1,.772.07,4.189,4.189,0,0,1,.8.225,4.416,4.416,0,0,1,2.056,1.64A4.34,4.34,0,0,1,4253.546,5049.039Z" transform="translate(-4063.771 -5044.659)" fill="#ffb93e"/>
        <path id="Path_2218" data-name="Path 2218" d="M4164.658,5064.783h-96.977a4.151,4.151,0,0,1-3.906-4.154c0-.075,0-.15,0-.226v-11.364c0-.075,0-.15,0-.225a4.224,4.224,0,0,1,3.443-4.123,3.193,3.193,0,0,1,.462-.032h85.068c0,.01,0,.021.007.032C4154.119,5050.61,4157.286,5058.786,4164.658,5064.783Z" transform="translate(-4063.771 -5044.659)" fill="#ffa412"/>
        <g id="Group_1480" data-name="Group 1480" transform="translate(66.508)">
          <rect id="Rectangle_923" data-name="Rectangle 923" width="2.058" height="20.124" transform="translate(99.184 0)" fill="#ffa412"/>
          <rect id="Rectangle_924" data-name="Rectangle 924" width="2.057" height="20.124" transform="translate(92.22 0)" fill="#ffa412"/>
          <rect id="Rectangle_925" data-name="Rectangle 925" width="2.057" height="20.124" transform="translate(83.869 0)" fill="#ffa412"/>
          <rect id="Rectangle_926" data-name="Rectangle 926" width="2.057" height="20.124" transform="translate(71.068 0)" fill="#ffa412"/>
          <rect id="Rectangle_927" data-name="Rectangle 927" width="2.057" height="20.124" transform="translate(57.531 0)" fill="#ffa412"/>
          <rect id="Rectangle_928" data-name="Rectangle 928" width="2.058" height="20.124" transform="translate(36.78 0)" fill="#ffa412"/>
          <rect id="Rectangle_929" data-name="Rectangle 929" width="2.057" height="20.124" transform="translate(17.35 0)" fill="#ffa412"/>
          <rect id="Rectangle_930" data-name="Rectangle 930" width="2.058" height="20.124" transform="translate(0 0)" fill="#ffa412"/>
          <rect id="Rectangle_931" data-name="Rectangle 931" width="2.057" height="20.124" transform="translate(105.813 0)" fill="#ffa412"/>
          <rect id="Rectangle_932" data-name="Rectangle 932" width="2.057" height="20.124" transform="translate(110.192 0)" fill="#ffa412"/>
          <rect id="Rectangle_933" data-name="Rectangle 933" width="2.058" height="20.124" transform="translate(114.421 0)" fill="#ffa412"/>
          <path id="Path_2219" data-name="Path 2219" d="M4741.892,5044.727v19.983a4.285,4.285,0,0,1-.771.07h-1.286v-20.124h1.286A4.242,4.242,0,0,1,4741.892,5044.727Z" transform="translate(-4622.232 -5044.657)" fill="#ffa412"/>
          <path id="Path_2220" data-name="Path 2220" d="M4752.389,5047.38v16.255a4.411,4.411,0,0,1-2.055,1.639v-19.533A4.412,4.412,0,0,1,4752.389,5047.38Z" transform="translate(-4629.872 -5045.446)" fill="#ffa412"/>
        </g>
      </g>
      <g id="Group_1483" data-name="Group 1483" transform="translate(0.38 119.575)">
        <path id="Path_2221" data-name="Path 2221" d="M4204.676,4975.259v11.365a4.335,4.335,0,0,1-.75,2.444,4.4,4.4,0,0,1-2.055,1.64,4.111,4.111,0,0,1-.8.226c-.084.014-.17.029-.254.038l-.143.015c-.046,0-.094.007-.143.01-.078,0-.155.008-.232.008H4019.281a4.4,4.4,0,0,1-4.375-4.155c0-.075-.005-.15-.005-.225v-11.365c0-.075,0-.15.005-.225s.007-.123.012-.184a4.4,4.4,0,0,1,3.283-3.834c.043-.012.089-.022.133-.032a4.35,4.35,0,0,1,.946-.1H4200.3c.133,0,.263.008.392.017l.175.02h0c.068.01.136.021.2.034a4.043,4.043,0,0,1,.8.225,4.4,4.4,0,0,1,2.055,1.639A4.336,4.336,0,0,1,4204.676,4975.259Z" transform="translate(-4014.901 -4970.878)" fill="#ffb93e"/>
        <path id="Path_2222" data-name="Path 2222" d="M4115.788,4991h-96.977a4.152,4.152,0,0,1-3.905-4.155c0-.075-.005-.15-.005-.225v-11.365c0-.075,0-.15.005-.225s.007-.123.012-.184a4.265,4.265,0,0,1,3.033-3.861,1.276,1.276,0,0,1,.167-.039,3.412,3.412,0,0,1,.692-.071h85.068c.01.049.022.1.034.143,1.373,5.9,4.54,13.994,11.836,19.949Z" transform="translate(-4014.901 -4970.878)" fill="#ffa412"/>
        <g id="Group_1482" data-name="Group 1482" transform="translate(66.509)">
          <rect id="Rectangle_934" data-name="Rectangle 934" width="2.057" height="20.123" transform="translate(99.183 0.001)" fill="#ffa412"/>
          <rect id="Rectangle_935" data-name="Rectangle 935" width="2.058" height="20.123" transform="translate(92.219 0.001)" fill="#ffa412"/>
          <rect id="Rectangle_936" data-name="Rectangle 936" width="2.058" height="20.123" transform="translate(83.868 0.001)" fill="#ffa412"/>
          <rect id="Rectangle_937" data-name="Rectangle 937" width="2.057" height="20.123" transform="translate(71.067 0.001)" fill="#ffa412"/>
          <rect id="Rectangle_938" data-name="Rectangle 938" width="2.057" height="20.123" transform="translate(57.531 0.001)" fill="#ffa412"/>
          <rect id="Rectangle_939" data-name="Rectangle 939" width="2.057" height="20.123" transform="translate(36.779 0.001)" fill="#ffa412"/>
          <rect id="Rectangle_940" data-name="Rectangle 940" width="2.057" height="20.123" transform="translate(17.349 0.001)" fill="#ffa412"/>
          <rect id="Rectangle_941" data-name="Rectangle 941" width="2.057" height="20.123" transform="translate(0 0.001)" fill="#ffa412"/>
          <rect id="Rectangle_942" data-name="Rectangle 942" width="2.057" height="20.123" transform="translate(105.812 0.001)" fill="#ffa412"/>
          <rect id="Rectangle_943" data-name="Rectangle 943" width="2.057" height="20.123" transform="translate(110.192 0.001)" fill="#ffa412"/>
          <rect id="Rectangle_944" data-name="Rectangle 944" width="2.057" height="20.123" transform="translate(114.42 0.001)" fill="#ffa412"/>
          <path id="Path_2223" data-name="Path 2223" d="M4693.022,4970.947v19.983a4.238,4.238,0,0,1-.771.07h-1.286v-20.123h1.286A4.281,4.281,0,0,1,4693.022,4970.947Z" transform="translate(-4573.363 -4970.877)" fill="#ffa412"/>
          <path id="Path_2224" data-name="Path 2224" d="M4703.52,4973.6v16.254a4.409,4.409,0,0,1-2.055,1.639v-19.533A4.409,4.409,0,0,1,4703.52,4973.6Z" transform="translate(-4581.004 -4971.667)" fill="#ffa412"/>
        </g>
      </g>
      <g id="Group_1485" data-name="Group 1485" transform="translate(0 99.595)">
        <path id="Path_2225" data-name="Path 2225" d="M4203.28,4901.889v11.364a4.34,4.34,0,0,1-.75,2.446,4.406,4.406,0,0,1-2.055,1.639,3.978,3.978,0,0,1-.625.189h0c-.058.014-.114.026-.172.036a4.3,4.3,0,0,1-.772.07H4017.885a3.937,3.937,0,0,1-.567-.039,2.026,2.026,0,0,1-.215-.034,4.394,4.394,0,0,1-3.594-4.082c0-.075-.005-.149-.005-.226v-11.364c0-.075,0-.15.005-.225a4.4,4.4,0,0,1,4.375-4.155H4198.9c.116,0,.232.005.346.015l.148.015c.053,0,.108.012.162.021s.078.012.117.02a4.063,4.063,0,0,1,.8.226c.039.015.075.029.114.046s.075.031.112.048c.074.033.147.071.221.106s.159.087.236.136.138.084.206.131.152.109.225.167.114.089.169.138a.032.032,0,0,1,.01.01c.036.031.075.065.111.1a4,4,0,0,1,.317.327c.032.034.061.068.088.1s.055.071.084.107c.056.072.112.147.162.223A4.336,4.336,0,0,1,4203.28,4901.889Z" transform="translate(-4013.505 -4897.509)" fill="#ffb93e"/>
        <path id="Path_2226" data-name="Path 2226" d="M4114.393,4917.633h-96.978c-.078,0-.155,0-.23-.007s-.168-.014-.25-.026a4.222,4.222,0,0,1-3.426-4.121c0-.075-.005-.149-.005-.226v-11.364c0-.075,0-.15.005-.225a4.151,4.151,0,0,1,3.905-4.155h85.066c.038.165.078.33.118.5,1.409,5.83,4.559,13.657,11.619,19.484C4114.276,4917.538,4114.334,4917.584,4114.393,4917.633Z" transform="translate(-4013.505 -4897.509)" fill="#ffa412"/>
        <g id="Group_1484" data-name="Group 1484" transform="translate(66.508 0)">
          <rect id="Rectangle_945" data-name="Rectangle 945" width="2.057" height="20.123" transform="translate(99.184 0.001)" fill="#ffa412"/>
          <rect id="Rectangle_946" data-name="Rectangle 946" width="2.057" height="20.123" transform="translate(92.22 0.001)" fill="#ffa412"/>
          <rect id="Rectangle_947" data-name="Rectangle 947" width="2.057" height="20.123" transform="translate(83.869 0.001)" fill="#ffa412"/>
          <rect id="Rectangle_948" data-name="Rectangle 948" width="2.057" height="20.123" transform="translate(71.068 0.001)" fill="#ffa412"/>
          <rect id="Rectangle_949" data-name="Rectangle 949" width="2.057" height="20.123" transform="translate(57.531 0.001)" fill="#ffa412"/>
          <rect id="Rectangle_950" data-name="Rectangle 950" width="2.057" height="20.123" transform="translate(36.78 0.001)" fill="#ffa412"/>
          <rect id="Rectangle_951" data-name="Rectangle 951" width="2.057" height="20.123" transform="translate(17.35 0.001)" fill="#ffa412"/>
          <rect id="Rectangle_952" data-name="Rectangle 952" width="2.057" height="20.123" transform="translate(0 0.001)" fill="#ffa412"/>
          <rect id="Rectangle_953" data-name="Rectangle 953" width="2.058" height="20.123" transform="translate(105.812 0.001)" fill="#ffa412"/>
          <rect id="Rectangle_954" data-name="Rectangle 954" width="2.057" height="20.123" transform="translate(110.192 0.001)" fill="#ffa412"/>
          <rect id="Rectangle_955" data-name="Rectangle 955" width="2.057" height="20.123" transform="translate(114.421 0.001)" fill="#ffa412"/>
          <path id="Path_2227" data-name="Path 2227" d="M4691.625,4897.58v19.983a4.243,4.243,0,0,1-.772.07h-1.286V4897.51h1.286A4.287,4.287,0,0,1,4691.625,4897.58Z" transform="translate(-4571.966 -4897.51)" fill="#ffa412"/>
          <path id="Path_2228" data-name="Path 2228" d="M4702.123,4900.235v16.254a4.406,4.406,0,0,1-2.056,1.64V4898.6A4.4,4.4,0,0,1,4702.123,4900.235Z" transform="translate(-4579.605 -4898.3)" fill="#ffa412"/>
        </g>
      </g>
      <g id="Group_1487" data-name="Group 1487" transform="translate(9.353 79.967)">
        <path id="Path_2229" data-name="Path 2229" d="M4237.625,4829.816v11.365a4.345,4.345,0,0,1-.75,2.446,4.415,4.415,0,0,1-2.056,1.639,4.138,4.138,0,0,1-.8.225,4.243,4.243,0,0,1-.772.071H4052.229a4.343,4.343,0,0,1-2.019-.5,4.4,4.4,0,0,1-2.342-3.462c-.007-.065-.012-.13-.014-.2s0-.15,0-.225v-11.365c0-.075,0-.15,0-.225a4.395,4.395,0,0,1,4.375-4.154h181.017a4.287,4.287,0,0,1,.772.069,4.141,4.141,0,0,1,.8.226,4.413,4.413,0,0,1,2.056,1.639A4.339,4.339,0,0,1,4237.625,4829.816Z" transform="translate(-4047.849 -4825.438)" fill="#ffb93e"/>
        <path id="Path_2230" data-name="Path 2230" d="M4148.736,4845.561h-96.978a3.541,3.541,0,0,1-1.8-.5,4.432,4.432,0,0,1-2.09-3.462c-.007-.065-.012-.13-.014-.2s0-.15,0-.225v-11.365c0-.075,0-.15,0-.225a4.152,4.152,0,0,1,3.905-4.154h85.068c1.322,5.762,4.353,13.671,11.313,19.627C4148.337,4845.231,4148.535,4845.4,4148.736,4845.561Z" transform="translate(-4047.849 -4825.438)" fill="#ffa412"/>
        <g id="Group_1486" data-name="Group 1486" transform="translate(66.509 0)">
          <rect id="Rectangle_956" data-name="Rectangle 956" width="2.057" height="20.123" transform="translate(99.183 0.001)" fill="#ffa412"/>
          <rect id="Rectangle_957" data-name="Rectangle 957" width="2.057" height="20.123" transform="translate(92.219 0.001)" fill="#ffa412"/>
          <rect id="Rectangle_958" data-name="Rectangle 958" width="2.057" height="20.123" transform="translate(83.868 0.001)" fill="#ffa412"/>
          <rect id="Rectangle_959" data-name="Rectangle 959" width="2.057" height="20.123" transform="translate(71.067 0.001)" fill="#ffa412"/>
          <rect id="Rectangle_960" data-name="Rectangle 960" width="2.057" height="20.123" transform="translate(57.531 0.001)" fill="#ffa412"/>
          <rect id="Rectangle_961" data-name="Rectangle 961" width="2.057" height="20.123" transform="translate(36.779 0.001)" fill="#ffa412"/>
          <rect id="Rectangle_962" data-name="Rectangle 962" width="2.057" height="20.123" transform="translate(17.35 0.001)" fill="#ffa412"/>
          <rect id="Rectangle_963" data-name="Rectangle 963" width="2.057" height="20.123" transform="translate(0 0.001)" fill="#ffa412"/>
          <rect id="Rectangle_964" data-name="Rectangle 964" width="2.057" height="20.123" transform="translate(105.812 0.001)" fill="#ffa412"/>
          <rect id="Rectangle_965" data-name="Rectangle 965" width="2.057" height="20.123" transform="translate(110.192 0.001)" fill="#ffa412"/>
          <rect id="Rectangle_966" data-name="Rectangle 966" width="2.057" height="20.123" transform="translate(114.42 0.001)" fill="#ffa412"/>
          <path id="Path_2231" data-name="Path 2231" d="M4725.97,4825.508v19.983a4.248,4.248,0,0,1-.772.071h-1.286v-20.124h1.286A4.337,4.337,0,0,1,4725.97,4825.508Z" transform="translate(-4606.311 -4825.438)" fill="#ffa412"/>
          <path id="Path_2232" data-name="Path 2232" d="M4736.467,4828.162v16.255a4.4,4.4,0,0,1-2.055,1.638v-19.532A4.4,4.4,0,0,1,4736.467,4828.162Z" transform="translate(-4613.951 -4826.228)" fill="#ffa412"/>
        </g>
      </g>
      <g id="Group_1489" data-name="Group 1489" transform="translate(24.146 59.844)">
        <path id="Path_2233" data-name="Path 2233" d="M4291.944,4755.921v11.364a4.335,4.335,0,0,1-.75,2.445,4.409,4.409,0,0,1-2.056,1.64,4.052,4.052,0,0,1-.8.225,4.252,4.252,0,0,1-.772.07H4106.548a4.4,4.4,0,0,1-4.375-4.154c0-.075,0-.15,0-.225v-11.364c0-.075,0-.15,0-.226a4.4,4.4,0,0,1,3.857-4.123,4.042,4.042,0,0,1,.518-.031h181.016a4.252,4.252,0,0,1,.772.07,4.086,4.086,0,0,1,.8.225,4.4,4.4,0,0,1,2.056,1.639A4.336,4.336,0,0,1,4291.944,4755.921Z" transform="translate(-4102.169 -4751.541)" fill="#ffb93e"/>
        <path id="Path_2234" data-name="Path 2234" d="M4203.056,4771.665h-96.977a4.151,4.151,0,0,1-3.906-4.154c0-.075,0-.15,0-.225v-11.364c0-.075,0-.15,0-.226a4.225,4.225,0,0,1,3.443-4.123,3.2,3.2,0,0,1,.463-.031h85.068c0,.009,0,.022.006.031C4192.518,4757.494,4195.684,4765.668,4203.056,4771.665Z" transform="translate(-4102.169 -4751.541)" fill="#ffa412"/>
        <g id="Group_1488" data-name="Group 1488" transform="translate(66.509)">
          <rect id="Rectangle_967" data-name="Rectangle 967" width="2.057" height="20.123" transform="translate(99.183 0.001)" fill="#ffa412"/>
          <rect id="Rectangle_968" data-name="Rectangle 968" width="2.057" height="20.123" transform="translate(92.219 0.001)" fill="#ffa412"/>
          <rect id="Rectangle_969" data-name="Rectangle 969" width="2.057" height="20.123" transform="translate(83.868 0.001)" fill="#ffa412"/>
          <rect id="Rectangle_970" data-name="Rectangle 970" width="2.057" height="20.123" transform="translate(71.067 0.001)" fill="#ffa412"/>
          <rect id="Rectangle_971" data-name="Rectangle 971" width="2.057" height="20.123" transform="translate(57.531 0.001)" fill="#ffa412"/>
          <rect id="Rectangle_972" data-name="Rectangle 972" width="2.057" height="20.123" transform="translate(36.779 0.001)" fill="#ffa412"/>
          <rect id="Rectangle_973" data-name="Rectangle 973" width="2.057" height="20.123" transform="translate(17.349 0.001)" fill="#ffa412"/>
          <rect id="Rectangle_974" data-name="Rectangle 974" width="2.057" height="20.123" transform="translate(0 0.001)" fill="#ffa412"/>
          <rect id="Rectangle_975" data-name="Rectangle 975" width="2.058" height="20.123" transform="translate(105.812 0.001)" fill="#ffa412"/>
          <rect id="Rectangle_976" data-name="Rectangle 976" width="2.057" height="20.123" transform="translate(110.191 0.001)" fill="#ffa412"/>
          <rect id="Rectangle_977" data-name="Rectangle 977" width="2.057" height="20.123" transform="translate(114.42 0.001)" fill="#ffa412"/>
          <path id="Path_2235" data-name="Path 2235" d="M4780.291,4751.611v19.983a4.248,4.248,0,0,1-.772.07h-1.286v-20.124h1.286A4.248,4.248,0,0,1,4780.291,4751.611Z" transform="translate(-4660.631 -4751.541)" fill="#ffa412"/>
          <path id="Path_2236" data-name="Path 2236" d="M4790.789,4754.265v16.254a4.41,4.41,0,0,1-2.055,1.64v-19.533A4.4,4.4,0,0,1,4790.789,4754.265Z" transform="translate(-4668.272 -4752.331)" fill="#ffa412"/>
        </g>
      </g>
      <g id="Group_1491" data-name="Group 1491" transform="translate(0.38 39.752)">
        <path id="Path_2237" data-name="Path 2237" d="M4204.676,4682.142v11.364a4.336,4.336,0,0,1-.75,2.445,4.408,4.408,0,0,1-2.055,1.64,4.075,4.075,0,0,1-.8.225c-.084.015-.17.029-.254.039-.068.009-.136.015-.2.02l-.1.007c-.071,0-.141,0-.213,0H4019.281a4.395,4.395,0,0,1-4.375-4.155c0-.075-.005-.15-.005-.226v-11.364c0-.075,0-.15.005-.225a4.394,4.394,0,0,1,4.375-4.155H4200.3c.078,0,.155,0,.232.007a4.342,4.342,0,0,1,.54.063,4.044,4.044,0,0,1,.8.226,3.982,3.982,0,0,1,.38.169c.078.039.153.078.226.121a.076.076,0,0,1,.023.015c.075.043.148.09.221.138a.155.155,0,0,1,.036.024,2.006,2.006,0,0,1,.2.142,3.889,3.889,0,0,1,.436.38c.043.042.085.085.123.128a.284.284,0,0,1,.022.025c.026.026.051.053.075.082,0,0,.01.013.014.017.044.051.087.1.128.161.062.077.119.155.174.236A4.338,4.338,0,0,1,4204.676,4682.142Z" transform="translate(-4014.901 -4677.762)" fill="#ffb93e"/>
        <path id="Path_2238" data-name="Path 2238" d="M4115.788,4697.886h-96.977a4.152,4.152,0,0,1-3.905-4.155c0-.075-.005-.15-.005-.226v-11.364c0-.075,0-.15.005-.225a4.151,4.151,0,0,1,3.905-4.155h85.068c.034.152.07.308.111.465,1.412,5.871,4.593,13.778,11.759,19.627Z" transform="translate(-4014.901 -4677.762)" fill="#ffa412"/>
        <g id="Group_1490" data-name="Group 1490" transform="translate(66.509)">
          <rect id="Rectangle_978" data-name="Rectangle 978" width="2.057" height="20.124" transform="translate(99.183 0)" fill="#ffa412"/>
          <rect id="Rectangle_979" data-name="Rectangle 979" width="2.058" height="20.124" transform="translate(92.219 0)" fill="#ffa412"/>
          <rect id="Rectangle_980" data-name="Rectangle 980" width="2.058" height="20.124" transform="translate(83.868 0)" fill="#ffa412"/>
          <rect id="Rectangle_981" data-name="Rectangle 981" width="2.057" height="20.124" transform="translate(71.067 0)" fill="#ffa412"/>
          <rect id="Rectangle_982" data-name="Rectangle 982" width="2.057" height="20.124" transform="translate(57.531 0)" fill="#ffa412"/>
          <rect id="Rectangle_983" data-name="Rectangle 983" width="2.057" height="20.124" transform="translate(36.779 0)" fill="#ffa412"/>
          <rect id="Rectangle_984" data-name="Rectangle 984" width="2.057" height="20.124" transform="translate(17.349 0)" fill="#ffa412"/>
          <rect id="Rectangle_985" data-name="Rectangle 985" width="2.057" height="20.124" transform="translate(0 0)" fill="#ffa412"/>
          <rect id="Rectangle_986" data-name="Rectangle 986" width="2.057" height="20.124" transform="translate(105.812 0)" fill="#ffa412"/>
          <rect id="Rectangle_987" data-name="Rectangle 987" width="2.057" height="20.124" transform="translate(110.192 0)" fill="#ffa412"/>
          <rect id="Rectangle_988" data-name="Rectangle 988" width="2.057" height="20.124" transform="translate(114.42 0)" fill="#ffa412"/>
          <path id="Path_2239" data-name="Path 2239" d="M4693.022,4677.832v19.983a4.281,4.281,0,0,1-.771.071h-1.286v-20.124h1.286A4.2,4.2,0,0,1,4693.022,4677.832Z" transform="translate(-4573.363 -4677.762)" fill="#ffa412"/>
          <path id="Path_2240" data-name="Path 2240" d="M4703.52,4680.486v16.254a4.409,4.409,0,0,1-2.055,1.639v-19.533A4.4,4.4,0,0,1,4703.52,4680.486Z" transform="translate(-4581.004 -4678.551)" fill="#ffa412"/>
        </g>
      </g>
      <g id="Group_1493" data-name="Group 1493" transform="translate(13.689 20.092)">
        <path id="Path_2241" data-name="Path 2241" d="M4253.546,4609.953v11.364a4.343,4.343,0,0,1-.75,2.445,4.411,4.411,0,0,1-2.056,1.639,4.155,4.155,0,0,1-.8.225,4.292,4.292,0,0,1-.772.07H4068.151a4.322,4.322,0,0,1-1.956-.465,4.4,4.4,0,0,1-2.406-3.511c-.005-.058-.009-.118-.012-.179s0-.15,0-.226v-11.364c0-.075,0-.15,0-.226a4.4,4.4,0,0,1,3.857-4.123,4.014,4.014,0,0,1,.518-.032h181.016a4.292,4.292,0,0,1,.772.07,4.119,4.119,0,0,1,.8.225,4.415,4.415,0,0,1,2.056,1.64A4.341,4.341,0,0,1,4253.546,4609.953Z" transform="translate(-4063.771 -4605.573)" fill="#ffb93e"/>
        <path id="Path_2242" data-name="Path 2242" d="M4164.658,4625.7h-96.977a3.519,3.519,0,0,1-1.745-.465,4.422,4.422,0,0,1-2.148-3.511c-.005-.058-.009-.118-.012-.179s0-.15,0-.226v-11.364c0-.075,0-.15,0-.226a4.224,4.224,0,0,1,3.443-4.123,3.193,3.193,0,0,1,.462-.032h85.068c0,.01,0,.022.007.032,1.327,5.77,4.37,13.678,11.345,19.627Q4164.374,4625.468,4164.658,4625.7Z" transform="translate(-4063.771 -4605.573)" fill="#ffa412"/>
        <g id="Group_1492" data-name="Group 1492" transform="translate(66.508)">
          <rect id="Rectangle_989" data-name="Rectangle 989" width="2.058" height="20.123" transform="translate(99.184 0.001)" fill="#ffa412"/>
          <rect id="Rectangle_990" data-name="Rectangle 990" width="2.057" height="20.123" transform="translate(92.22 0.001)" fill="#ffa412"/>
          <rect id="Rectangle_991" data-name="Rectangle 991" width="2.057" height="20.123" transform="translate(83.869 0.001)" fill="#ffa412"/>
          <rect id="Rectangle_992" data-name="Rectangle 992" width="2.057" height="20.123" transform="translate(71.068 0.001)" fill="#ffa412"/>
          <rect id="Rectangle_993" data-name="Rectangle 993" width="2.057" height="20.123" transform="translate(57.531 0.001)" fill="#ffa412"/>
          <rect id="Rectangle_994" data-name="Rectangle 994" width="2.058" height="20.123" transform="translate(36.78 0.001)" fill="#ffa412"/>
          <rect id="Rectangle_995" data-name="Rectangle 995" width="2.057" height="20.123" transform="translate(17.35 0.001)" fill="#ffa412"/>
          <rect id="Rectangle_996" data-name="Rectangle 996" width="2.058" height="20.123" transform="translate(0 0.001)" fill="#ffa412"/>
          <rect id="Rectangle_997" data-name="Rectangle 997" width="2.057" height="20.123" transform="translate(105.813 0.001)" fill="#ffa412"/>
          <rect id="Rectangle_998" data-name="Rectangle 998" width="2.057" height="20.123" transform="translate(110.192 0.001)" fill="#ffa412"/>
          <rect id="Rectangle_999" data-name="Rectangle 999" width="2.058" height="20.123" transform="translate(114.421 0.001)" fill="#ffa412"/>
          <path id="Path_2243" data-name="Path 2243" d="M4741.892,4605.642v19.982a4.242,4.242,0,0,1-.771.071h-1.286v-20.124h1.286A4.2,4.2,0,0,1,4741.892,4605.642Z" transform="translate(-4622.232 -4605.571)" fill="#ffa412"/>
          <path id="Path_2244" data-name="Path 2244" d="M4752.389,4608.295v16.255a4.408,4.408,0,0,1-2.055,1.639v-19.533A4.41,4.41,0,0,1,4752.389,4608.295Z" transform="translate(-4629.872 -4606.36)" fill="#ffa412"/>
        </g>
      </g>
      <g id="Group_1495" data-name="Group 1495" transform="translate(0.38 0)">
        <path id="Path_2245" data-name="Path 2245" d="M4204.676,4536.173v11.365a4.336,4.336,0,0,1-.75,2.445,4.407,4.407,0,0,1-2.055,1.639,4.145,4.145,0,0,1-.8.226c-.084.014-.17.029-.254.038l-.143.014c-.046.006-.094.008-.143.01-.078,0-.155.008-.232.008H4019.281a4.394,4.394,0,0,1-4.375-4.154c0-.075-.005-.15-.005-.225v-11.365c0-.075,0-.15.005-.225a4.395,4.395,0,0,1,4.375-4.155H4200.3a4.291,4.291,0,0,1,.772.07,4.077,4.077,0,0,1,.8.226,4.4,4.4,0,0,1,2.055,1.639A4.339,4.339,0,0,1,4204.676,4536.173Z" transform="translate(-4014.901 -4531.793)" fill="#ffb93e"/>
        <path id="Path_2246" data-name="Path 2246" d="M4115.788,4551.917h-96.977a4.151,4.151,0,0,1-3.905-4.154c0-.075-.005-.15-.005-.225v-11.365c0-.075,0-.15.005-.225a4.152,4.152,0,0,1,3.905-4.155h85.068c1.355,5.915,4.512,14.088,11.87,20.092Z" transform="translate(-4014.901 -4531.793)" fill="#ffa412"/>
        <g id="Group_1494" data-name="Group 1494" transform="translate(66.509)">
          <rect id="Rectangle_1000" data-name="Rectangle 1000" width="2.057" height="20.124" transform="translate(99.183 0.001)" fill="#ffa412"/>
          <rect id="Rectangle_1001" data-name="Rectangle 1001" width="2.058" height="20.124" transform="translate(92.219 0.001)" fill="#ffa412"/>
          <rect id="Rectangle_1002" data-name="Rectangle 1002" width="2.058" height="20.124" transform="translate(83.868 0.001)" fill="#ffa412"/>
          <rect id="Rectangle_1003" data-name="Rectangle 1003" width="2.057" height="20.124" transform="translate(71.067 0.001)" fill="#ffa412"/>
          <rect id="Rectangle_1004" data-name="Rectangle 1004" width="2.057" height="20.124" transform="translate(57.531 0.001)" fill="#ffa412"/>
          <rect id="Rectangle_1005" data-name="Rectangle 1005" width="2.057" height="20.124" transform="translate(36.779 0.001)" fill="#ffa412"/>
          <rect id="Rectangle_1006" data-name="Rectangle 1006" width="2.057" height="20.124" transform="translate(17.349 0.001)" fill="#ffa412"/>
          <rect id="Rectangle_1007" data-name="Rectangle 1007" width="2.058" height="20.124" transform="translate(0 0)" fill="#ffa412"/>
          <rect id="Rectangle_1008" data-name="Rectangle 1008" width="2.057" height="20.124" transform="translate(105.812 0.001)" fill="#ffa412"/>
          <rect id="Rectangle_1009" data-name="Rectangle 1009" width="2.057" height="20.124" transform="translate(110.192 0.001)" fill="#ffa412"/>
          <rect id="Rectangle_1010" data-name="Rectangle 1010" width="2.057" height="20.124" transform="translate(114.42 0.001)" fill="#ffa412"/>
          <path id="Path_2247" data-name="Path 2247" d="M4693.022,4531.862v19.983a4.2,4.2,0,0,1-.771.071h-1.286v-20.125h1.286A4.281,4.281,0,0,1,4693.022,4531.862Z" transform="translate(-4573.363 -4531.792)" fill="#ffa412"/>
          <path id="Path_2248" data-name="Path 2248" d="M4703.52,4534.517v16.254a4.418,4.418,0,0,1-2.055,1.639v-19.533A4.4,4.4,0,0,1,4703.52,4534.517Z" transform="translate(-4581.004 -4532.582)" fill="#ffa412"/>
        </g>
      </g>
    </g>
    <g id="Group_1499" data-name="Group 1499" transform="translate(345.304 657.106)">
      <circle id="Ellipse_33" data-name="Ellipse 33" cx="102.446" cy="102.446" r="102.446" transform="translate(8.937 0)" fill="#e2810e"/>
      <circle id="Ellipse_34" data-name="Ellipse 34" cx="102.446" cy="102.446" r="102.446" transform="translate(0 0)" fill="#ffb93e"/>
      <g id="Group_1497" data-name="Group 1497" transform="translate(9.106 10.317)">
        <path id="Path_2249" data-name="Path 2249" d="M3818.756,4810.791a93.339,93.339,0,1,1,66-27.338A92.729,92.729,0,0,1,3818.756,4810.791Zm0-181.111a87.772,87.772,0,1,0,62.064,25.708A87.2,87.2,0,0,0,3818.756,4629.68Z" transform="translate(-3725.416 -4624.111)" fill="#ffa412"/>
      </g>
      <g id="Group_1498" data-name="Group 1498" transform="translate(61.567 34.724)">
        <path id="Path_2250" data-name="Path 2250" d="M3971.782,4809.757a15.4,15.4,0,0,0-.221-5.42,11.258,11.258,0,0,0-2.291-4.5,21.273,21.273,0,0,0-4.583-4.043,56,56,0,0,0-7.1-3.976,146.873,146.873,0,0,1-13.114-7.208,46.432,46.432,0,0,1-9.805-7.98,27.32,27.32,0,0,1-5.792-9.727,30.845,30.845,0,0,1,2.493-23.327,25.958,25.958,0,0,1,7.232-8.036,32.391,32.391,0,0,1,10.356-4.932,43.223,43.223,0,0,1,12.931-1.491l1.825-15.385,12.383,1.469-1.851,15.6a38.746,38.746,0,0,1,11.654,4.955,29.283,29.283,0,0,1,13.044,18.717,38.967,38.967,0,0,1,.511,13.22l-22.367-2.654q1.024-8.626-2.3-13.359a13.188,13.188,0,0,0-9.748-5.495,16.763,16.763,0,0,0-6.113.26,11.354,11.354,0,0,0-4.456,2.167,10.583,10.583,0,0,0-2.873,3.706,15.586,15.586,0,0,0-1.363,4.87,14.26,14.26,0,0,0,.2,4.906,10.54,10.54,0,0,0,2.2,4.308,21.291,21.291,0,0,0,4.621,4.046,71.932,71.932,0,0,0,7.382,4.267q7.173,3.694,12.978,7.372a47.017,47.017,0,0,1,9.758,8.047,26.391,26.391,0,0,1,6.792,22.131,28.222,28.222,0,0,1-3.553,11.1,25.63,25.63,0,0,1-7.263,7.96,31.293,31.293,0,0,1-10.413,4.743,46.642,46.642,0,0,1-12.994,1.374l-1.7,14.306-12.306-1.46,1.689-14.233a52.256,52.256,0,0,1-12.088-4.278,33.126,33.126,0,0,1-9.9-7.481,29.642,29.642,0,0,1-6.214-11.127,36.1,36.1,0,0,1-1.029-15.139l22.367,2.654a22.228,22.228,0,0,0,.42,8.688,14.389,14.389,0,0,0,3.183,5.918,13.947,13.947,0,0,0,5.115,3.523,23.91,23.91,0,0,0,6.132,1.565,19.957,19.957,0,0,0,6.5-.176,13.311,13.311,0,0,0,4.912-2.042,10.605,10.605,0,0,0,3.251-3.587A12.922,12.922,0,0,0,3971.782,4809.757Z" transform="translate(-3918.052 -4713.734)" fill="#ffa412"/>
      </g>
    </g>
    <g id="Group_1506" data-name="Group 1506" transform="translate(646.785 702.422)">
      <g id="Group_1501" data-name="Group 1501" transform="translate(84.922 63.425)">
        <path id="Path_2251" data-name="Path 2251" d="M5177.612,5012.411s-11.114-12.965-.685-21.2c0,0,7.617-4.612,13.829-4.237,0,0-8.8,14.758-5.954,16.227s8.622-17.152,8.622-17.152,17.334-1.681,22.911,1c0,0-14.819,12.127-11.7,12.849s19.128-11.182,19.128-11.182,16.134,2.746,15.274,12.588-6.42,12.881-8.863,12.619-16.736-5.718-17.047-3.716,8.292,8.545,14.317,8.851c0,0-11.375,12.544-18.935,8.924s-8.2-9.359-12.917-11.512-8.735-2.146-6.79.049,10.474,4.329,13.168,9.1,5.113,7.981-2.708,6.805-20.535-6.9-21.093-13.453Z" transform="translate(-5158.827 -4985.526)" fill="#dc9c01"/>
        <g id="Group_1500" data-name="Group 1500" transform="translate(0 15.965)">
          <path id="Path_2252" data-name="Path 2252" d="M5218.809,5044.228s-43.82-1.688-53.5,10.843a31.682,31.682,0,0,1-8.726,12.247l-1.026,2.8s7.593-8.006,10.31-8.491C5165.87,5061.625,5161.62,5046.1,5218.809,5044.228Z" transform="translate(-5146.527 -5044.152)" fill="#dc9c01"/>
          <path id="Path_2253" data-name="Path 2253" d="M5132.45,5126.272s-9.406,6.956-10.059,19.384l1.707.153s3-12.852,8.434-17.877S5132.45,5126.272,5132.45,5126.272Z" transform="translate(-5122.391 -5103.106)" fill="#dc9c01"/>
        </g>
      </g>
      <g id="Group_1503" data-name="Group 1503" transform="translate(0 28.222)">
        <path id="Path_2254" data-name="Path 2254" d="M4875.4,4902.039s17.68-9.9,9.429-23.336c0,0-6.6-8.25-13.672-10.372,0,0,3.771,20.037,0,20.507s-2.594-22.629-2.594-22.629-18.623-8.958-25.93-8.25c0,0,11.55,19.565,7.78,19.094s-16.737-20.272-16.737-20.272-19.094-3.537-22.158,7.778,1.885,16.973,4.714,17.68,20.979.472,20.508,2.829-12.729,6.129-19.565,4.008c0,0,7.544,18.622,17.444,17.679s12.965-7.072,19.093-7.543,10.608,1.179,7.543,2.828-13.436.541-18.386,4.749-8.958,6.8.235,8.688,25.694.708,28.994-6.365Z" transform="translate(-4810.553 -4856.256)" fill="#fcb200"/>
        <g id="Group_1502" data-name="Group 1502" transform="translate(9.688 11.838)">
          <path id="Path_2255" data-name="Path 2255" d="M4846.13,4899.726s49.5,16.029,55.16,33.944a37.6,37.6,0,0,0,4.714,17.208v3.536s-5.186-12.022-8.015-13.672C4897.99,4940.742,4909.069,4925.185,4846.13,4899.726Z" transform="translate(-4846.13 -4899.726)" fill="#dc9c01"/>
          <path id="Path_2256" data-name="Path 2256" d="M5059.673,5081.681s7.633,11.593,3.281,25.7l-1.964-.528s1.907-15.542-2.087-23.36S5059.673,5081.681,5059.673,5081.681Z" transform="translate(-4999.798 -5030.528)" fill="#dc9c01"/>
        </g>
      </g>
      <g id="Group_1505" data-name="Group 1505" transform="translate(77.654 0)">
        <path id="Path_2257" data-name="Path 2257" d="M5111.023,4812.975s-23.305-13.05-12.43-30.762c0,0,8.7-10.876,18.023-13.673,0,0-4.972,26.413,0,27.034s3.418-29.83,3.418-29.83,24.547-11.808,34.18-10.876c0,0-15.226,25.791-10.254,25.169s22.062-26.723,22.062-26.723,25.169-4.661,29.209,10.254-2.486,22.373-6.215,23.306-27.654.621-27.033,3.728,16.779,8.079,25.79,5.282c0,0-9.943,24.548-22.994,23.305s-17.09-9.322-25.169-9.943-13.983,1.553-9.944,3.729,17.712.713,24.237,6.26,11.808,8.966-.311,11.452-33.87.932-38.22-8.391Z" transform="translate(-5095.702 -4752.625)" fill="#fcb200"/>
        <g id="Group_1504" data-name="Group 1504" transform="translate(3.013 15.605)">
          <path id="Path_2258" data-name="Path 2258" d="M5208.068,4809.927s-65.254,21.129-72.711,44.745c0,0,.311,10.565-6.215,22.683v4.661s6.836-15.847,10.565-18.022C5139.707,4863.994,5125.1,4843.485,5208.068,4809.927Z" transform="translate(-5123.048 -4809.927)" fill="#dc9c01"/>
          <path id="Path_2259" data-name="Path 2259" d="M5112.859,5049.776s-10.063,15.282-4.326,33.884l2.589-.7s-2.513-20.489,2.752-30.793S5112.859,5049.776,5112.859,5049.776Z" transform="translate(-5106.765 -4982.348)" fill="#dc9c01"/>
        </g>
      </g>
      <path id="Path_2260" data-name="Path 2260" d="M5027.1,5208.094a45.65,45.65,0,0,0,45.65-45.65h-91.3A45.65,45.65,0,0,0,5027.1,5208.094Z" transform="translate(-4934.91 -5050.839)" fill="#920061"/>
      <path id="Path_2261" data-name="Path 2261" d="M5053.2,5207.742a45.674,45.674,0,0,1-51.319-45.3h11.34A45.657,45.657,0,0,0,5053.2,5207.742Z" transform="translate(-4949.776 -5050.837)" fill="#7b0051"/>
      <path id="Path_2262" data-name="Path 2262" d="M5071.7,5323.556h-92.562a5.632,5.632,0,0,1,5.632-5.632h81.3a5.632,5.632,0,0,1,5.632,5.632Z" transform="translate(-4933.225 -5163.979)" fill="#920061"/>
      <rect id="Rectangle_1011" data-name="Rectangle 1011" width="93.84" height="1.4" transform="translate(45.038 111.604)" fill="#7b0051"/>
    </g>
    <g id="Group_1509" data-name="Group 1509" transform="translate(187.662 438)">
      <path id="Path_2263" data-name="Path 2263" d="M3704.919,3962.905l-.015,2.768s.754,8.656-9.906,9.92-19.4,1.1-19.111-5.579c.96-5.171,2.68-13.2,2.751-17.48a30.134,30.134,0,0,0-.379-5.184l20.655-.412,6.083.994Z" transform="translate(-3608.165 -3901.927)" fill="#ffb27d"/>
      <path id="Path_2264" data-name="Path 2264" d="M3702.618,3947.933l-.078,14.973a17.465,17.465,0,0,1-7.446,1.643c-9.492,0-15.628-6.961-18.835-12.014a30.134,30.134,0,0,0-.379-5.184l20.655-.412Z" transform="translate(-3605.786 -3901.927)" fill="#e2915a"/>
      <path id="Path_2265" data-name="Path 2265" d="M3658.044,3849.454c2.4,12.9,19.038,12.474,26.23,11.663,2.024-.225,3.3-.484,3.3-.484,2.282-.609,3.555-4.2,4.147-8.913,1.174-9.318-.309-23-1.883-26.494-2.369-5.264-6.831-10.958-23.591-6.85S3654.969,3832.928,3658.044,3849.454Z" transform="translate(-3589.532 -3807.353)" fill="#ffb27d"/>
      <path id="Path_2266" data-name="Path 2266" d="M3743.285,5299.862h23.582a57.02,57.02,0,0,0-1.881-8.465,24.034,24.034,0,0,0-1.336-3.4c-2.293-4.578-16.861-1.666-16.861-1.666s-1.353,1.159-2.409,5.587A46.9,46.9,0,0,0,3743.285,5299.862Z" transform="translate(-3688.391 -4875.904)" fill="#1a1a1a"/>
      <path id="Path_2267" data-name="Path 2267" d="M3390.936,5266.771c.064,3.209.468,6.245,1.632,7.443h46.645c-.593-1.688-2.272-4.226-7.06-5-5.441-.88-13.923-3.5-18.876-8.735a14.053,14.053,0,0,1-3.655-6.618c-2.195-9.771-18.146,2.994-18.146,2.994A79.018,79.018,0,0,0,3390.936,5266.771Z" transform="translate(-3264.781 -4850.257)" fill="#1a1a1a"/>
      <path id="Path_2268" data-name="Path 2268" d="M3506.021,4605.379a73.606,73.606,0,0,1,1.171,8.617c1.483,28.924,24.347,95.058,28.437,96.6,6.328,2.388,16.293-2.688,21.506-4.349a4.471,4.471,0,0,0,3.138-5.079c-11.323-52.054-15.484-127.01-17-171.388-.765-22.352-4.6-37.793-4.6-37.793s-55.766-14.879-56.1,3.943C3482.283,4512.584,3501.048,4577.9,3506.021,4605.379Z" transform="translate(-3410.89 -4294.48)" fill="#2b2b2b"/>
      <path id="Path_2269" data-name="Path 2269" d="M3568.778,4605.379l37.253-75.6c-.765-22.352-4.6-37.793-4.6-37.793s-55.766-14.879-56.1,3.943C3545.039,4512.584,3563.8,4577.9,3568.778,4605.379Z" transform="translate(-3473.647 -4294.48)" fill="#1a1a1a"/>
      <path id="Path_2270" data-name="Path 2270" d="M3699.119,4503.462l-29.48,213.664s-12.946,3.122-23.015.624c0,0-8.631-113.636-7.912-141.108s-6.194-73.511,1.578-78.588S3699.119,4503.462,3699.119,4503.462Z" transform="translate(-3591.581 -4301.948)" fill="#2b2b2b"/>
      <path id="Path_2271" data-name="Path 2271" d="M3691.246,3787.25a55.439,55.439,0,0,1-16.077-4.351c-7.062-3.071-15.972.311-18.864,1.834a4.308,4.308,0,0,1,.705-1.74,3.883,3.883,0,0,0-1.49,2.208c-.133.1-.193.167-.159.189a4.983,4.983,0,0,0-2.418.156s.662-.094.9.331a.4.4,0,0,0,.106.117c-11.016,5.323-12.033,22.732-8.488,26.761,4.265,4.847,9.379,15.761,9.379,15.761a9.359,9.359,0,0,0,1.089-6.844c-.776-4.265,2.908-4.265,7.561-6.2s.775-7.367,4.847-10.663,19-1.357,18.8-3.877C3692.681,3798.912,3691.246,3787.817,3691.246,3787.25Z" transform="translate(-3585.8 -3781.653)" fill="#1a1a1a"/>
      <path id="Path_2272" data-name="Path 2272" d="M3564.88,4045.3l6.788,145.633s56.649.926,55.031-11.894-20.419-129.279-20.419-129.279l-41.4-4.46Z" transform="translate(-3499.673 -3973.505)" fill="#e9f3fe"/>
      <path id="Path_2273" data-name="Path 2273" d="M3734.324,4113.381c3.37,10.11-2.984,44.037-5.249,55.53-.5,2.431-.829,3.867-.829,3.867,7.846,12.763,36.578,12.6,36.578,12.6,5.525-24.423,8.4-63.319,8.4-63.319l-22.046-96.64-27.737,25.639s2.1,15.637,4.7,31.55C3730.18,4095.2,3732.5,4108.021,3734.324,4113.381Z" transform="translate(-3689.342 -3959.033)" fill="#920061"/>
      <path id="Path_2274" data-name="Path 2274" d="M3663.73,3939.925s.538,1.664,4.737,1.056c0,0,3.526-.51,3.264-2.365A11.436,11.436,0,0,0,3663.73,3939.925Z" transform="translate(-3571.604 -3895.703)" fill="#fff"/>
      <path id="Path_2275" data-name="Path 2275" d="M3426.307,4033.7l.012.061c1.341,1.3,39.157,38.016,46.483,52.4,7.46,14.588-34.091,43.649-34.091,43.649a9.676,9.676,0,0,1-4.529.644c1.958,16.13,4.158,31.013,2.855,37.366-2.355,11.481-12.975,15.337-12.975,14.454,0-.28-2.737-41.866-5.994-63.347-7.229-47.676-15.852-92.421-15.852-92.421C3414.581,4027.785,3426.307,4033.7,3426.307,4033.7Zm22.516,58.758a.336.336,0,0,0,.055-.221c0-2.1-8.012-6.742-16.687-12.211l-.166-.167-.017-.01c.154,4.468.137,8.853-.128,12.935-.492,7.57.058,16.618.974,25.831C3436.985,4112.161,3448.016,4094.831,3448.823,4092.455Z" transform="translate(-3302.341 -3959.822)" fill="#920061"/>
      <g id="Group_1508" data-name="Group 1508" transform="translate(63.601 61.239)">
        <path id="Path_2276" data-name="Path 2276" d="M3700.731,4015.934c-.069-1.39,6.514-3.31,6.514-3.31s7.535,10.447,19.949,10.627c0,0-3.538,6.885-7.707,8.668C3719.487,4031.919,3701.141,4024.188,3700.731,4015.934Z" transform="translate(-3700.731 -4010.963)" fill="#d9e9f9"/>
        <g id="Group_1507" data-name="Group 1507" transform="translate(25.525 14.209)">
          <path id="Path_2277" data-name="Path 2277" d="M3653.109,4155.209a13.744,13.744,0,0,1-4.377,8.885l-3.95,3.64a2.314,2.314,0,0,1-3.385-.272l-4.893-6.214a8.252,8.252,0,0,1-1.729-5.886c.458-4.7,1.311-13.762,1.993-22.505.555-7.084,1-13.967,1.034-18.154.107-13.369-2.545-56-2.545-56l3.2.167a171.648,171.648,0,0,1,12.128,39.064,148.957,148.957,0,0,1,2.216,17.553S3654.476,4139.835,3653.109,4155.209Z" transform="translate(-3634.738 -4058.702)" fill="#fcb200"/>
          <path id="Path_2278" data-name="Path 2278" d="M3653.109,4260.038a13.745,13.745,0,0,1-4.377,8.885l-3.95,3.64a2.314,2.314,0,0,1-3.385-.272l-4.893-6.214a8.254,8.254,0,0,1-1.729-5.886c.458-4.7,1.311-13.761,1.993-22.505,8.857-9.95,12.446-23.7,13.822-34.923a148.957,148.957,0,0,1,2.216,17.553S3654.476,4244.663,3653.109,4260.038Z" transform="translate(-3634.738 -4163.53)" fill="#e9a708"/>
        </g>
        <path id="Path_2279" data-name="Path 2279" d="M3652.02,4028.876s6.576-3.9,6.6-8.125c0,0,4.248-.532,6.1,1.528,0,0,1.56,7.243-.509,11.45C3664.213,4033.729,3654.743,4032.287,3652.02,4028.876Z" transform="translate(-3625.557 -4016.832)" fill="#d9e9f9"/>
        <path id="Path_2280" data-name="Path 2280" d="M3680.59,4042.74l8.917-2.137a1.351,1.351,0,0,1,1.133,1.554c-.032,1.452-2.511,5.7-3.61,6.035S3678.481,4045.678,3680.59,4042.74Z" transform="translate(-3658.591 -4031.322)" fill="#e9a708"/>
        <path id="Path_2281" data-name="Path 2281" d="M3700.732,4010.779c-.069-1.39,4.387-4.253,4.387-4.253s8.624,10.08,21.037,10.26c0,0-3.538,6.885-7.707,8.667C3718.449,4025.453,3701.142,4019.033,3700.732,4010.779Z" transform="translate(-3699.693 -4006.526)" fill="#e9f3fe"/>
        <path id="Path_2282" data-name="Path 2282" d="M3652.213,4023.485s6.651-3.525,6.674-7.752c0,0,4.015,1.767,5.87,3.826a12.2,12.2,0,0,1-.351,8.78S3654.936,4026.9,3652.213,4023.485Z" transform="translate(-3625.75 -4013.226)" fill="#e9f3fe"/>
      </g>
      <path id="Path_2283" data-name="Path 2283" d="M3533.427,4397.957a6.131,6.131,0,0,0-6.934-6.134,3.8,3.8,0,0,0-2.575,1.422c-2.526,3.361-4.928,13.143-.453,13.6,1.822.187,4.161-1.092,5.964-2.461,1.831-1.392,4-3.57,4-5.87Z" transform="translate(-3394.407 -4225.607)" fill="#ffb27d"/>
      <path id="Path_2284" data-name="Path 2284" d="M3806.909,4321.72c8.123-8.454,22.157-25.085,21.659-38.734-.663-19.117-22.6-47.572-22.6-47.572,2.045,12.6,4.365,25.417,6.188,30.776C3815.528,4276.3,3809.174,4310.227,3806.909,4321.72Z" transform="translate(-3767.176 -4111.843)" fill="#7b0051"/>
      <path id="Path_2285" data-name="Path 2285" d="M3793.812,4430.227s5.839,2.919,9.384,1.459,7.716-2.556,11.678,1.954,4.8,7.638,3.962,9.306-10.072,1.043-11.6,0-3.957-3.609-5.5-3.161c-4.243,1.233-7.816-2-9.816-4.582C3790.712,4433.648,3793.969,4432.895,3793.812,4430.227Z" transform="translate(-3753.824 -4253.603)" fill="#ffb27d"/>
      <path id="Path_2286" data-name="Path 2286" d="M3866.228,4025.417s-23.256,2.575-28.741,12.7-34,51.172-33.07,68.229,38.9,36.184,38.9,36.184,8.41-3.553,8.536-7.376-26.25-26.674-24.651-30.939,30.642-37.993,33.445-49.114S3866.228,4025.417,3866.228,4025.417Z" transform="translate(-3804.394 -3959.033)" fill="#920061"/>
      <path id="Path_2287" data-name="Path 2287" d="M3493.088,4194.508l.166.167c8.675,5.469,16.687,10.11,16.687,12.211,1.16-3.7-10.111-19.174-13.759-22.322C3492.48,4181.358,3493.088,4194.508,3493.088,4194.508Z" transform="translate(-3363.403 -4074.474)" fill="#7b0051"/>
      <path id="Path_2288" data-name="Path 2288" d="M3732.569,4006.526s17.656,73.948,14.845,101.8c0,0-6.492-29.768-22.113-54.15,0,0,5.7-5.013,5.391-6.862a19.511,19.511,0,0,0-8.337-.41s.454-31.876,3.014-35.243S3732.569,4006.526,3732.569,4006.526Z" transform="translate(-3663.542 -3945.287)" fill="#7b0051"/>
      <path id="Path_2289" data-name="Path 2289" d="M3606.5,4015.733c-.239.112,17.5,72.26,18.99,95.353,0,0-1.77-41.209-1.6-53.086,0,0-7.333-3.882-7.333-5.244s7.822-5.045,7.822-5.045-4.953-25.378-7.657-28.175S3606.5,4015.733,3606.5,4015.733Z" transform="translate(-3509.759 -3951.987)" fill="#7b0051"/>
    </g>
    <g id="Group_1510" data-name="Group 1510" transform="translate(527.417 589.791)">
      <path id="Path_2290" data-name="Path 2290" d="M4395.6,4414.58l48.348-.057a11.475,11.475,0,0,0,11.428-11.454l-.024-20.952a11.475,11.475,0,0,0-11.454-11.427l-48.349.056a11.475,11.475,0,0,0-11.427,11.455l.023,20.952A11.476,11.476,0,0,0,4395.6,4414.58Z" transform="translate(-4377.745 -4362.07)" fill="#1a1a1a"/>
      <path id="Path_2291" data-name="Path 2291" d="M4430.416,4353.115v0a11.525,11.525,0,0,0-8.834-5.728h0a.009.009,0,0,1-.008,0c-.37-.034-.743-.055-1.125-.055l-9.627.014-.006-4.522a3.79,3.79,0,0,0-3.793-3.783l-2.511,0-10.109.012-1.821,0a3.793,3.793,0,0,0-3.784,3.792l.006,4.522-16.618.018a11.519,11.519,0,0,0-11.471,11.5l.027,21.2a11.515,11.515,0,0,0,11.5,11.469l48.26-.054a11.239,11.239,0,0,0,2.479-.276h.008a11.29,11.29,0,0,0,3.558-1.462,11.507,11.507,0,0,0,5.427-9.759l-.024-21.193A11.389,11.389,0,0,0,4430.416,4353.115Zm-39.247-10.271a1.421,1.421,0,0,1,1.414-1.417l2.146,0,7.957-.006,4.336-.005a1.415,1.415,0,0,1,1.416,1.411l.006,4.522-17.269.018Z" transform="translate(-4360.711 -4339.037)" fill="#2b2b2b"/>
    </g>
  </g>
</svg>
