<svg xmlns="http://www.w3.org/2000/svg" width="19.904" height="16.517" viewBox="0 0 19.904 16.517">
  <path id="twitter-icon" d="M-2546.982,1437.422a8.5,8.5,0,0,0,5.962-1.755,4.237,4.237,0,0,1-3.822-2.9h1.76l.02-.089a4.135,4.135,0,0,1-2.286-1.477,4.2,4.2,0,0,1-.9-2.625,4.236,4.236,0,0,0,1.787.487,4.258,4.258,0,0,1-1.207-5.543,11.6,11.6,0,0,0,8.375,4.333c0-.456-.029-.882,0-1.3a4.1,4.1,0,0,1,4.147-3.783,4.012,4.012,0,0,1,2.8,1.171.316.316,0,0,0,.342.1,8.876,8.876,0,0,0,2.182-.842c.048-.027.1-.046.211-.1a4.493,4.493,0,0,1-1.666,2.264c.238-.048.479-.087.715-.144s.488-.128.729-.2.469-.167.759-.271a7.185,7.185,0,0,1-1.182,1.439,8.008,8.008,0,0,1-.689.591.387.387,0,0,0-.168.369,11.837,11.837,0,0,1-6.566,10.978,11.482,11.482,0,0,1-11.14-.585C-2546.878,1437.5-2546.929,1437.458-2546.982,1437.422Z" transform="translate(2546.982 -1422.764)" fill="#fff"/>
</svg>
