<svg xmlns="http://www.w3.org/2000/svg" width="701.089" height="428.592" viewBox="0 0 701.089 428.592">
  <g id="welcome-vector" transform="translate(-179 -433)">
    <g id="Group_43014" data-name="Group 43014" transform="translate(7857.875 -484.205)" opacity="0.1">
      <g id="Group_43004" data-name="Group 43004" transform="translate(-7678.875 1179.205)">
        <g id="Group_43003" data-name="Group 43003" transform="translate(0 33.931)">
          <path id="Path_68473" data-name="Path 68473" d="M399.5,1149.311,365.842,1025.9l29.417-2.047,10.9,60.4q1.832,9.916,2.952,16.616T411,1112.826q.025-7.84.3-15.126t.861-14.023l5.121-61.354,29.417-2.047,13.239,59.994q.822,3.617,3.208,16.761,1.43,7.659,2.311,12.088.108-11.356.271-17.82t.351-10.8l2.4-61.735,29.5-2.052L481.9,1143.577l-31.611,2.2-10.428-51.289q-1.37-6.764-2.583-14.233t-2.343-15.474q-.006,9.309-.193,16.59t-.559,13.675l-2.911,52.054Z" transform="translate(-365.842 -1016.709)" fill="#1a1a1a"/>
        </g>
      </g>
      <path id="Path_68488" data-name="Path 68488" d="M927.634,1163.774V1038.328H995.9v24.356H956.8v23.053h36.086v25.171H956.8v27.37h39.1v25.5Z" transform="translate(-8461.034 182.022)" fill="#1a1a1a"/>
      <path id="Path_68489" data-name="Path 68489" d="M1241.429,1163.774h-64.6V1038.328h29.325V1138.44h35.272Z" transform="translate(-8627.071 182.022)" fill="#1a1a1a"/>
      <path id="Path_68490" data-name="Path 68490" d="M1450.667,1100.175H1479.5q.079,1.142.122,2.444t.041,3.91q0,22.971-10.061,34.091t-30.832,11.119q-12.219,0-20.935-4.073a33.5,33.5,0,0,1-14.092-12.3q-3.748-5.865-5.376-16.292t-1.63-33.072q0-22.645,1.63-33.073t5.376-16.292a33.549,33.549,0,0,1,13.929-12.259q8.634-4.113,20.609-4.114,20.608,0,30.914,11.445t10.3,34.253v1.222l-28.511-.081q-.164-12.788-2.932-17.961t-9.286-5.173q-7.087,0-9.694,6.313t-2.607,33.357V1086q0,29.081,2.607,35.638a9.615,9.615,0,0,0,9.694,6.558q6.6,0,9.245-4.765t2.648-17.717Z" transform="translate(-8773.594 194.058)" fill="#1a1a1a"/>
      <path id="Path_68491" data-name="Path 68491" d="M1688.147,1086q0-22.645,1.629-33.073t5.376-16.292a33.054,33.054,0,0,1,14.092-12.341q8.716-4.032,20.935-4.032,12.3,0,20.894,4.032a33.224,33.224,0,0,1,13.97,12.341q3.91,5.947,5.54,16.374t1.629,32.991q0,22.482-1.629,32.95t-5.54,16.414a33.034,33.034,0,0,1-13.97,12.3q-8.675,4.072-20.894,4.073t-20.935-4.073a33.5,33.5,0,0,1-14.092-12.3q-3.748-5.865-5.376-16.292T1688.147,1086Zm54.088,11.323v-22.646q0-20.851-2.646-25.781t-9.572-4.929q-6.762,0-9.367,5.051t-2.607,25.659v22.646q0,20.364,2.607,25.537t9.531,5.173q6.842,0,9.449-5.05T1742.235,1097.324Z" transform="translate(-8967.757 194.058)" fill="#1a1a1a"/>
      <path id="Path_68492" data-name="Path 68492" d="M1991.044,1163.774V1038.328H2032.1l11.161,53.355q.08.409,1.343,10.06t2.647,19.347q1.058-7.249,2.647-17.962t1.833-11.852l11.079-52.948h40.647v125.446h-27.7l2.525-96.935-19.876,96.935h-22.319l-19.876-96.935,2.525,96.935Z" transform="translate(-9169.573 182.022)" fill="#1a1a1a"/>
      <path id="Path_68575" data-name="Path 68575" d="M2388.031,1163.774V1038.328h68.263v24.356h-39.1v23.053h36.086v25.171h-36.086v27.37h39.1v25.5Z" transform="translate(-9434.08 182.022)" fill="#1a1a1a"/>
    </g>
    <g id="Group_43026" data-name="Group 43026" transform="translate(-3825.426 -915.022)">
      <g id="Group_43024" data-name="Group 43024" transform="translate(4145.425 1348.022)">
        <g id="Group_43015" data-name="Group 43015" transform="translate(213.58 81.808)">
          <path id="Path_68581" data-name="Path 68581" d="M5050.831,1976.009c-2.47-.794-7.162-.906-9.144-.019-1.882.842-4.7.6-6.549,1.309-1.736.729-2.992,5.015-3.367,6.387a3.164,3.164,0,0,0,2.167,3.9c4.06,1.048,2.832,1.409,6.488,1.548,5.9.224,9.812-.849,13.392-4l4.393-2.226-1.814-7.806S5053.655,1975.615,5050.831,1976.009Z" transform="translate(-5031.669 -1888.14)" fill="#ef6343"/>
          <path id="Path_68582" data-name="Path 68582" d="M5105.053,1765.1c-1.694-4.326.365-5.781.365-5.781s34.561-18.823,38.006-21.224,26.95-47.029,26.95-47.029,7.917-17.156,17.858-17.772c9.746-.6,15.429,5.778,18.691,12.031,3.889,7.451-8.261,9.568-12.639,16.742-15.508,25.409-27.327,42.533-33.9,46.922-14.623,9.769-51.517,21.56-51.517,21.56A14.625,14.625,0,0,1,5105.053,1765.1Z" transform="translate(-5083.435 -1673.259)" fill="#2b2b2b"/>
        </g>
        <g id="Group_43020" data-name="Group 43020" transform="translate(0 0)">
          <g id="Group_43016" data-name="Group 43016" transform="translate(50.653 74.763)">
            <path id="Path_68583" data-name="Path 68583" d="M4485.433,2073.659l.848,5.391s6.081,8.953-3.686,15.3c0,0-4.269,2.34-5.218-.922s-.067-2.106-1.517-6.684-.452-9.226,2.588-11.161l2.1-3.277Z" transform="translate(-4472.598 -1950.297)" fill="#ff7955"/>
            <path id="Path_68584" data-name="Path 68584" d="M4484.2,1777.31c4.332.571,4.934.155,4.934.155s13.339-39.891,14.754-43.578,34.918-48.356,34.918-48.356l-17.36-36.725s-35.047,67.65-38.45,77.061c-5.622,15.553-4.482,49.1-4.482,49.1A12.176,12.176,0,0,0,4484.2,1777.31Z" transform="translate(-4474.888 -1648.806)" fill="#027fab"/>
            <path id="Path_68585" data-name="Path 68585" d="M4469.2,2097.387s-.8,4.348-1.723,5.634-1.815,2.419-1,3.042,4.207-2.757,4.335-3.45S4469.2,2097.387,4469.2,2097.387Z" transform="translate(-4466.156 -1968.149)" fill="#ff7955"/>
          </g>
          <g id="Group_43017" data-name="Group 43017" transform="translate(0 209.634)">
            <path id="Path_68586" data-name="Path 68586" d="M4331.112,2200.3l61.29,8.734a14.692,14.692,0,0,0,16.57-12.436l3.784-26.561a14.692,14.692,0,0,0-12.437-16.57l-61.29-8.733a14.692,14.692,0,0,0-16.57,12.436l-3.785,26.561A14.691,14.691,0,0,0,4331.112,2200.3Z" transform="translate(-4310.407 -2136.621)" fill="#233862"/>
            <path id="Path_68587" data-name="Path 68587" d="M4302.969,2179.82l61.182,8.718a14.748,14.748,0,0,0,16.632-12.482l3.829-26.869a14.747,14.747,0,0,0-12.483-16.632l-12.2-1.739.816-5.729a4.862,4.862,0,0,0-4.12-5.49l-18.306-2.608a4.859,4.859,0,0,0-5.489,4.12l-.816,5.729-21.064-3a14.747,14.747,0,0,0-16.631,12.483l-3.829,26.869A14.748,14.748,0,0,0,4302.969,2179.82Zm53.945-49.433-21.892-3.119.816-5.729a1.816,1.816,0,0,1,1.506-1.533,1.837,1.837,0,0,1,.543,0l18.306,2.608a1.814,1.814,0,0,1,1.537,2.049Z" transform="translate(-4290.339 -2116.94)" fill="#1a1a1a"/>
          </g>
          <path id="Path_68588" data-name="Path 68588" d="M4629.443,1577.751s13.7,11.324,27.032,3.126c0,0,1.732-8.027.777-13.539-.118-.679-.229-1.337-.332-1.963-1.049-6.212-1.471-9.728-1.471-9.728h-.016c-.7-.154-23.574-5.029-23.424-4.306C4635.417,1568.038,4629.443,1577.751,4629.443,1577.751Z" transform="translate(-4531.746 -1504.605)" fill="#ff7955"/>
          <path id="Path_68589" data-name="Path 68589" d="M4648.231,1563.243c2.743,3.432,11.137,9.6,22.048,10.425-1.049-6.212-1.471-9.728-1.471-9.728h-.015C4668.175,1563.888,4647.416,1562.232,4648.231,1563.243Z" transform="translate(-4545.104 -1512.899)" fill="#ef6343"/>
          <path id="Path_68590" data-name="Path 68590" d="M4645.857,1467.991s-22.917,9.973-28.907-4.394-12.983-22.754,1.394-29.729,19.525-2.686,22.691,1.623S4651.664,1465.027,4645.857,1467.991Z" transform="translate(-4517.813 -1418.403)" fill="#ff7955"/>
          <path id="Path_68591" data-name="Path 68591" d="M4587.07,1438.427c-.289.269-5.152,2.786-18.435-14.875a17.2,17.2,0,0,1-1.815-15.661c2.51-6.479,14.334-13.361,24.487-17.264s13.752,1.555,17.308,7.052c3.733,5.771,12.173,9.547,12.173,9.547-8.148,6.711-20.385,1.449-23.952,3.327s-3.822,8.084-3.758,10.047-.084,3.63-5.153,2.787-.927,7.133.128,8.61C4588.054,1432,4589.482,1436.183,4587.07,1438.427Z" transform="translate(-4486.374 -1389.305)" fill="#1a1a1a"/>
          <g id="Group_43018" data-name="Group 43018" transform="translate(34.991 188.918)">
            <path id="Path_68592" data-name="Path 68592" d="M4442.663,2784.986h-14.732c-3.088,0-6.52-3.092-7.379-8.753s-7.207-8.753-8.581-13.387,5.666-11.158,5.666-11.158l1.176-1.512,1.225-1.576,11.669,2.744s.288,2.779.468,6.318a80.985,80.985,0,0,1,.047,8.1c-.344,6.18,1.73,12.833,7.22,14.036S4442.663,2784.986,4442.663,2784.986Z" transform="translate(-4411.793 -2545.9)" fill="#1a1a1a"/>
            <path id="Path_68593" data-name="Path 68593" d="M4771.8,2822.362h-39.05a3.52,3.52,0,0,1-.828-.24c-2.607-1.306-1.792-11.287-1.479-14.371.061-.572.1-.906.1-.906s13.731-10.982,15.621-2.573c.061.261.129.519.2.773v0c2.384,7.868,13.039,11.441,19.194,12.438C4770.262,2818.252,4771.481,2820.992,4771.8,2822.362Z" transform="translate(-4638.373 -2583.276)" fill="#1a1a1a"/>
            <path id="Path_68594" data-name="Path 68594" d="M4703.61,2084.381s-2.084,26.018-4.536,57.293c-3.332,42.484-7.338,94.669-7.734,104.555-.685,17.167-3.434,44.626-3.434,44.626s-6.519,6.524-19.566,3.774c0,0-11.626-39.2-14.947-80.674q-.078-1.02-.155-2.05c-3.089-42.221-7.893-131.129-7.893-131.129Z" transform="translate(-4578.057 -2070.479)" fill="#2b2b2b"/>
            <path id="Path_68595" data-name="Path 68595" d="M4703.61,2084.381s-2.084,26.018-4.536,57.293l-45.682,72.281q-.078-1.02-.155-2.05c-3.089-42.221-7.893-131.129-7.893-131.129Z" transform="translate(-4578.057 -2070.479)" fill="#1a1a1a"/>
            <path id="Path_68596" data-name="Path 68596" d="M4542.255,2062.026s-37.587,94.226-62.3,138.507-32.438,56.639-32.438,56.639-14.16-5.664-15.447-9.526c0,0,9.452-85.487,26-106.326,9.353-11.776,20.339-47.114,20.854-59.471s3.347-36.815,3.347-36.815Z" transform="translate(-4426.226 -2045.034)" fill="#2b2b2b"/>
          </g>
          <path id="Path_68597" data-name="Path 68597" d="M4658.81,1763.623a2.319,2.319,0,0,1-1.505.688c-5.5.3-21.345,4.438-35.014,3.967-11.522-.328-21.886-3.03-33.093-7.176-1.492-.55-4.937-2.1-4.974-3.717-.07-1.769-.07-4.351-.065-7.6a405.23,405.23,0,0,0-2.766-52.886c-.518-4.133-.919-8.239-1.21-12.293a187.575,187.575,0,0,1,.111-29.907c1.561-17.054,5.934-30.692,13.36-37.065.979-.8,7.495,1.852,13.489,4.323a24.1,24.1,0,0,0,15.9.845l5.367,4.128c6.548,5.306,13.826,12.631,17.562,24.245a156.736,156.736,0,0,1,4.47,20.532c1.3,7.952,2.452,16.948,3.478,26.11.357,3.524,1.813,15.45,3.51,38.459C4658.583,1751.995,4659.1,1763.36,4658.81,1763.623Z" transform="translate(-4496.294 -1551.749)" fill="#008dbf"/>
          <path id="Path_68598" data-name="Path 68598" d="M4727.6,1871.167c-34.719-11.943-49.4-64.2-49.4-64.2l46.906,35.333c.813,7.933,1.657,18.088,1.677,18.394C4727.083,1864.338,4727.355,1867.847,4727.6,1871.167Z" transform="translate(-4566.459 -1686.637)" fill="#027fab"/>
          <g id="Group_43019" data-name="Group 43019" transform="translate(95.926 84.651)">
            <path id="Path_68599" data-name="Path 68599" d="M5018.234,1976.712c4.283-1.3,8.379-.749,8.957-.141-3.063,1.205-6.271,2.8-4.674,3.219,1.905.823,3.325-.943,6.474-.833,1.9.066,5.086,1.52,7.515,2.633,1.293.593-.115,7.147-5.809,7.963-5.847.837-10.854-.252-14.865-3.544l-4.526-1.943,1.316-7.905S5015.817,1977.5,5018.234,1976.712Z" transform="translate(-4899.519 -1891.565)" fill="#ff7955"/>
            <path id="Path_68600" data-name="Path 68600" d="M4739.814,1772.4c1.416-4.425-.732-5.746-.732-5.746s-43.739-19.507-47.33-21.684-28.382-44.938-28.382-44.938-9.229-17.506-20.449-16.888c-9.75.537-15.031,6.746-17.89,13.193a20.448,20.448,0,0,0,4.228,22.648c13.272,13.407,39.919,39.944,46.754,43.907,15.214,8.821,60.335,15.189,60.335,15.189A14.63,14.63,0,0,0,4739.814,1772.4Z" transform="translate(-4623.297 -1683.128)" fill="#008dbf"/>
          </g>
        </g>
        <g id="Group_43021" data-name="Group 43021" transform="translate(288.926 12.551)">
          <path id="Path_68601" data-name="Path 68601" d="M5361.091,1648.022a78.652,78.652,0,0,0-13.331,3.136c-14.038,4.359-13.9,8.941-20.165,24.141-3.759,11.976-5.216,37.372-2.2,66.61,0,0,3.193,17.6,18.331,13.034C5362.33,1749.327,5361.091,1648.022,5361.091,1648.022Z" transform="translate(-5314.962 -1586.036)" fill="#1a1a1a"/>
          <path id="Path_68602" data-name="Path 68602" d="M5320.131,2024.1s5.18,179.77-4.6,234.061c-.555,3.088-9.129,6.1-9.129,6.1l17.448,3.689,5.859-29.965s26.611-42.957,16.3-78.061c-.536-1.823,1.521-11.261,1.835-13.135,1.562-9.322,9.744-31.413,12.335-46.5C5363.3,2082.109,5320.131,2024.1,5320.131,2024.1Z" transform="translate(-5302.594 -1853.761)" fill="#ff7955"/>
          <path id="Path_68603" data-name="Path 68603" d="M5412.321,1611.942l5.5,4,17.458-2.674a51.117,51.117,0,0,1-.909-7.585c-.024-.382-.048-.776-.069-1.189-.136-2.463-.233-5.481-.271-9.174,0-.122,0-.244,0-.369q-.01-1.372-.01-2.869c0-.153,0-.307,0-.463l-7.57,1.92-11.964,3.036-.233.063s.09.73.139,1.961v0a39.934,39.934,0,0,1-.375,7.2A29.541,29.541,0,0,1,5412.321,1611.942Z" transform="translate(-5378 -1545.881)" fill="#ff7955"/>
          <path id="Path_68604" data-name="Path 68604" d="M5404.481,1453.461s3.611-30.682,43.037-17.14c8.946,3.073,6.475,30.4-15.985,39.794Z" transform="translate(-5372.418 -1432.87)" fill="#1a1a1a"/>
          <path id="Path_68605" data-name="Path 68605" d="M5438.076,2183.5c-.72,7.411-.863,13.815-1.727,19.355a4.652,4.652,0,0,0-.145.648c-1.727,11.3-4.317,19-5.468,25.545-1.368,7.7-18.78,2.086-17.7.072,0,0,7.125-3.023,11.081-12.52,6.188-14.751-5.108-71.021-12.231-97.716-1.368-5.18-2.591-9.283-3.455-11.729-.143-.5-.36-1.007-.575-1.655s-.5-1.44-.791-2.3c-1.511-4.462-3.6-11.009-5.972-18.853-7.339-23.241-17.7-57.708-24.25-79.726-.072,0-.072-.072-.072-.144-2.015-6.907-3.742-12.52-4.821-16.262-.432-1.439-.792-2.59-1.008-3.382-.287-.935-.432-1.368-.432-1.368a52.78,52.78,0,0,1,10.722-6.187,34.123,34.123,0,0,1,5.181-1.8c9.138-2.231,16.622.646,22.738,8.274a44.525,44.525,0,0,1,4.677,7.052,89.916,89.916,0,0,1,6.691,16.478c1.727,5.4,3.454,15.254,5.181,26.623v.072c3.382,22.81,5.568,51.641,8.087,63.8a20.664,20.664,0,0,0,2.083,5.035c2.808,5.931,4.078,12.761,4.8,21.107C5441.889,2138.742,5440.737,2157.81,5438.076,2183.5Z" transform="translate(-5348.234 -1818.627)" fill="#ff7955"/>
          <path id="Path_68606" data-name="Path 68606" d="M5325.816,2771.995c-.746-1.873-5.512-5.511-5.512-5.511s-6.8,24.906-9.657,25.624a38.843,38.843,0,0,1-13.65.651s-4.945,2.4-3.56,4.827c.547.958,20.263.89,20.879.2,1.678-1.864,4.131-12.339,5.984-14.573l.177,14.71s1.917.274,1.917,0a185.148,185.148,0,0,1,1.159-19.512C5325.023,2775.834,5326.24,2773.058,5325.816,2771.995Z" transform="translate(-5293.192 -2382.265)" fill="#b64c41"/>
          <path id="Path_68607" data-name="Path 68607" d="M5537.619,2771.995c-.746-1.873-5.512-5.511-5.512-5.511s-6.8,24.906-9.657,25.624a38.847,38.847,0,0,1-13.651.651s-4.944,2.4-3.559,4.827c.548.958,20.263.89,20.879.2,1.679-1.864,4.131-12.339,5.984-14.573l.177,14.71s1.917.274,1.917,0a185.29,185.29,0,0,1,1.159-19.512C5536.827,2775.834,5538.043,2773.058,5537.619,2771.995Z" transform="translate(-5443.974 -2382.265)" fill="#b64c41"/>
          <path id="Path_68608" data-name="Path 68608" d="M5405.021,2097.88s-.576.216-1.583.576a188.594,188.594,0,0,1-27.055,7.627c-1.511.359-3.022.647-4.533.935-2.95.5-5.972.935-8.995,1.295-1.008.144-1.943.216-2.95.288-5.541.5-16.406-1.366-24.32-2.949-5.326-1.081-9.283-2.015-9.283-2.015s9.6-91.925,6.363-117.253c-.144-1.223-2.837-10.18-3.053-11.043h.935l18.206-.575,6.691-.216,20.723-.647a6.212,6.212,0,0,0,.72.576,65.672,65.672,0,0,1,13.527,16.693,62.7,62.7,0,0,1,5.685,12.089,74.159,74.159,0,0,1,2.878,10.65C5403.8,2040.1,5405.021,2097.88,5405.021,2097.88Z" transform="translate(-5316.764 -1818.028)" fill="#008dbf"/>
          <path id="Path_68609" data-name="Path 68609" d="M5387.538,1679.735c-.176,1.676-.375,3.435-.583,5.254-.676,5.941-1.489,12.559-2.3,19.336-1.056,8.827-2.1,17.912-2.82,26.124-.016.187-.033.379-.049.572-.566,6.546-.923,12.5-.9,17.286a48.543,48.543,0,0,0,.429,7,13.742,13.742,0,0,0,.593,2.506.053.053,0,0,1-.016.01,32.064,32.064,0,0,1-5.414,2.468c-1.083.4-2.319.8-3.7,1.181l-.072.017c-.534.149-1.089.292-1.666.423a52.713,52.713,0,0,1-8.591,1.291,58.273,58.273,0,0,1-20.759-2.462q-2.1-.628-4.287-1.446c-.093-.033-.182-.066-.274-.1-.05-.016-.094-.033-.149-.055-.1-.038-.209-.077-.319-.121,0,0-.522-2.155-1.22-5.875-.033-.187-.065-.374-.1-.566-.494-2.693-1.066-6.128-1.6-10.108-1.627-12.13-2.885-29.317-.489-45.987,1.468-10.256,6.436-15.2,10.141-25.486a32.547,32.547,0,0,1,12.265-15.887s-1.531,8.313,21.818-.591h.005c.082.022-.214.671-.132.687.6.149,1.2.313,1.792.49,4.139,1.208,7.992,3.072,9.128,5.892C5389.016,1663.439,5388.538,1670.364,5387.538,1679.735Z" transform="translate(-5320.763 -1590.657)" fill="#008dbf"/>
          <path id="Path_68610" data-name="Path 68610" d="M5418.187,1610.542c9.362.177,18.311-8.695,20.015-10.482.194-.2.3-.313.3-.313l-.3-.056-7.578-1.412-11.963,3.036-.233.063s.09.73.139,1.961v0A39.9,39.9,0,0,1,5418.187,1610.542Z" transform="translate(-5382.175 -1550.625)" fill="#ef6343"/>
          <path id="Path_68611" data-name="Path 68611" d="M5397.942,1518.965s23.111,5.786,26.492-8.662,8.643-23.431-5.969-27.736-18.781.534-21.082,5.082S5392.018,1517.088,5397.942,1518.965Z" transform="translate(-5365.32 -1467.058)" fill="#ff7955"/>
          <path id="Path_68612" data-name="Path 68612" d="M5435.421,1468.529s-6.985,7.953,4.692,16.077,10.043,23.193,6.644,27.293c0,0,25.06-22.247,14.618-36.7S5435.421,1468.529,5435.421,1468.529Z" transform="translate(-5392.969 -1456.764)" fill="#1a1a1a"/>
          <path id="Path_68613" data-name="Path 68613" d="M5406.428,1472.206s-9.669.727-10.742,11.8c0,0-3.379-17.79,11.835-16.718S5406.428,1472.206,5406.428,1472.206Z" transform="translate(-5365.93 -1457.339)" fill="#131f2d"/>
          <path id="Path_68614" data-name="Path 68614" d="M5434.626,1658.994c-6.456-4.514-15.891-4.527-15.891-4.527s-25.976,28.781-28.135,43.317c-2.158,14.463.144,53.247,8.347,58.859a33.777,33.777,0,0,0,7.915,3.67,78.532,78.532,0,0,0,18.2,3.6,53.547,53.547,0,0,0,11.945-.287s3.094-43.892,4.03-73.97c0-.014,0-.027,0-.041C5444.042,1675.24,5443.677,1665.323,5434.626,1658.994Z" transform="translate(-5361.992 -1590.624)" fill="#2b2b2b"/>
          <path id="Path_68615" data-name="Path 68615" d="M5510.376,1733.047c-.936,30.078-4.03,73.97-4.03,73.97a53.538,53.538,0,0,1-11.945.287c-.072-.144-.217-.27-.216-.432.022-7.288,10.47-47.555-6.955-88.15C5489.068,1706.277,5510.376,1733.047,5510.376,1733.047Z" transform="translate(-5431.328 -1634.019)" fill="#1a1a1a"/>
          <path id="Path_68616" data-name="Path 68616" d="M5517.569,2170.422s-.576.216-1.583.576a188.637,188.637,0,0,1-27.055,7.627c-1.511.359-3.022.647-4.534.936a15.75,15.75,0,0,0,3.743-3.238c11.224-12.521,16.333-44.612,18.635-69.222v-.072c1.583-16.549,1.872-29.644,1.872-31.228a74.1,74.1,0,0,1,2.877,10.65C5516.346,2112.642,5517.569,2170.422,5517.569,2170.422Z" transform="translate(-5429.311 -1890.57)" fill="#027fab"/>
        </g>
        <g id="Group_43023" data-name="Group 43023" transform="translate(318.216 78.634)">
          <g id="Group_43022" data-name="Group 43022" transform="translate(0 119.148)">
            <path id="Path_68617" data-name="Path 68617" d="M5435.633,2159.159l61.29,8.734a14.693,14.693,0,0,0,16.57-12.437l3.784-26.561a14.692,14.692,0,0,0-12.436-16.57l-61.29-8.734a14.692,14.692,0,0,0-16.57,12.437l-3.785,26.561A14.693,14.693,0,0,0,5435.633,2159.159Z" transform="translate(-5414.928 -2095.481)" fill="#2b2b2b"/>
            <path id="Path_68618" data-name="Path 68618" d="M5407.491,2138.68l61.182,8.718a14.749,14.749,0,0,0,16.632-12.483l3.829-26.869a14.747,14.747,0,0,0-12.483-16.632l-12.2-1.739.815-5.729a4.861,4.861,0,0,0-4.12-5.489l-18.306-2.609a4.859,4.859,0,0,0-5.489,4.12l-.816,5.729-21.064-3a14.747,14.747,0,0,0-16.632,12.483l-3.828,26.869A14.747,14.747,0,0,0,5407.491,2138.68Zm53.945-49.434-21.892-3.119.816-5.729a1.811,1.811,0,0,1,2.049-1.538l18.305,2.608a1.814,1.814,0,0,1,1.538,2.048Z" transform="translate(-5394.861 -2075.8)" fill="#1a1a1a"/>
          </g>
          <path id="Path_68619" data-name="Path 68619" d="M5576.929,2044.142c-2.508,2.344-4.8,6.222-4.04,6.959.487.272,1.345-.954,2.345-1.574-.35,1.943-.611,2.881-1.437,3.667-.059,1.608,2.219,2.03,4.68,2.424,1.3.208,4.634,1.215,6.4-.764,1.352-1.511,2.051-5.563,1.513-9.1l-.718-5.134-6.954-1.825S5578.606,2042.184,5576.929,2044.142Z" transform="translate(-5521.492 -1930.309)" fill="#ff7955"/>
          <path id="Path_68620" data-name="Path 68620" d="M5515.446,1775.31c-4.6-.658-4.85-3.167-4.85-3.167s.65-39.348.259-43.53-14.825-27.83-25.064-43.118c-12.462-18.606,5.952-30.217,17.319-18.606,9.517,9.719,25.2,46.665,25.584,52.33,1.353,20.15-6.625,55.452-6.625,55.452A14.635,14.635,0,0,1,5515.446,1775.31Z" transform="translate(-5456.63 -1662.242)" fill="#2b2b2b"/>
        </g>
      </g>
    </g>
    <g id="Group_43027" data-name="Group 43027" transform="translate(61 -0.456)">
      <g id="Group_178" data-name="Group 178" transform="translate(141 433.456)">
        <path id="Path_31" data-name="Path 31" d="M169.706,97.6h3.913a14.9,14.9,0,0,0,14.9,14.9v3.913a14.9,14.9,0,0,0-14.9,14.9h-3.913a14.9,14.9,0,0,0-14.9-14.9v-3.913A14.9,14.9,0,0,0,169.706,97.6Z" transform="translate(-127.953 -53.581)" fill="#1a1a1a"/>
        <path id="Path_32" data-name="Path 32" d="M154.855,73.775h1.73a14.9,14.9,0,0,0,14.9,14.9v1.729a14.9,14.9,0,0,0-14.9,14.9h-1.73a14.9,14.9,0,0,0-14.9-14.9V88.678A14.9,14.9,0,0,0,154.855,73.775Z" transform="translate(-139.954 -72.838)" fill="none" stroke="#1a1a1a" stroke-miterlimit="10" stroke-width="0.5"/>
        <path id="Path_33" data-name="Path 33" d="M181.711,73.257h0a14.9,14.9,0,0,0,14.9,14.9h0a14.9,14.9,0,0,0-14.9,14.9h0a14.9,14.9,0,0,0-14.9-14.9h0A14.9,14.9,0,0,0,181.711,73.257Z" transform="translate(-118.249 -73.257)" fill="#920061"/>
      </g>
      <path id="Path_315" data-name="Path 315" d="M426.443,320.675h3.208a21.282,21.282,0,0,0,21.283,21.28v3.208a21.282,21.282,0,0,0-21.283,21.28h-3.208a21.28,21.28,0,0,0-21.28-21.28v-3.208A21.28,21.28,0,0,0,426.443,320.675Z" transform="translate(346.309 265.959)" fill="#920061"/>
    </g>
  </g>
</svg>
