<svg xmlns="http://www.w3.org/2000/svg" width="633.266" height="600.303" viewBox="0 0 633.266 600.303">
  <g id="work-with-partners" transform="translate(-297.952 -440)">
    <path id="Path_70" data-name="Path 70" d="M514.932,23.905c0,.559-8.052-3.911-8.388-4.47-10.065-5.029-20.466-8.381-31.2-11.734C448.839-.121,421.663-.68,394.487.438,287.462,6.025,166.682,35.639,71.064,135.1,38.856,168.621-9.456,230.083,1.615,309.425c4.7,32.966,24.156,57.551,38.918,73.2,35.9,37.995,77.5,55.875,118.1,67.609,119.774,34.084,261.02,16.2,373.413-77.666a266.147,266.147,0,0,0,42.273-44.141,237.1,237.1,0,0,0,28.853-50.846C658.527,140.683,540.1,52.4,486.415,27.816c-18.453-8.381-23.821-9.5-42.609-15.086" transform="matrix(0.999, 0.035, -0.035, 0.999, 314.271, 440)" fill="#fff4d9"/>
    <g id="Group_137" data-name="Group 137" transform="translate(-864.526 185.171)">
      <g id="Group_71" data-name="Group 71" transform="translate(1337.206 456.364)">
        <path id="Path_71" data-name="Path 71" d="M1798.65,876.318l-16,30.351-8.2-2.984,2.664,8.1L1761.08,960.1S1752.21,898.712,1798.65,876.318Z" transform="translate(-1679.339 -816.391)" fill="#920061"/>
        <path id="Path_72" data-name="Path 72" d="M1758.29,950.058S1740.6,1015.27,1738.9,1077.5c0,0,14.672,5.115,37.721,1.065C1799.78,1074.5,1758.29,950.058,1758.29,950.058Z" transform="translate(-1665.66 -863.296)" fill="#920061"/>
        <path id="Path_73" data-name="Path 73" d="M1545.58,1177.5c4.747-.089,11.431.5,13.639-1.918a6.676,6.676,0,0,1,5.456-2.337l-.6-3.13-.716-3.739s-.27-.341-1.244-.328a18.446,18.446,0,0,1-5.082-.439c-4-1.429-19.9,8.1-19.369,10.747C1537.87,1177.35,1543.56,1177.54,1545.58,1177.5Z" transform="translate(-1537.655 -1000.315)" fill="#a16d3c"/>
        <path id="Path_74" data-name="Path 74" d="M1669.18,946.544s-26.871,55.5-35.187,61.46-37.959,18.84-37.959,18.84a7.559,7.559,0,0,0-.057,4.548c.749,2.814,2.228,3.609,2.228,3.609s41.445-3.7,51.081-9.7,30.883-29.9,30.883-29.9Z" transform="translate(-1574.56 -861.061)" fill="#920061"/>
        <g id="Group_69" data-name="Group 69" transform="translate(80.976 181.089)">
          <path id="Path_75" data-name="Path 75" d="M2013.51,1745.24h15.9c2-1.087,3.786-3.576,4.35-7.287.777-5.124,6.519-7.917,7.761-12.109s-5.124-10.087-5.124-10.087l-1.064-1.372-1.108-1.424-10.555,2.486s-.262,2.514-.42,5.716a72.957,72.957,0,0,0-.046,7.322c.311,5.587-1.562,11.606-6.527,12.693C2013,1741.98,2013.17,1744.16,2013.51,1745.24Z" transform="translate(-1921.208 -1529.659)" fill="#1a1a1a"/>
          <path id="Path_76" data-name="Path 76" d="M1760.17,1769.16h36.37c1.749-2.134,1.1-10.012.84-12.583-.054-.518-.092-.82-.092-.82s-12.42-9.934-14.125-2.328c-.052.239-.115.472-.184.7-2.149,7.115-11.79,10.348-17.357,11.249C1762,1765.96,1760.66,1767.84,1760.17,1769.16Z" transform="translate(-1760.168 -1553.57)" fill="#1a1a1a"/>
          <path id="Path_77" data-name="Path 77" d="M1779.21,1238.11s1.886,23.529,4.1,51.812c3.013,38.42,6.636,85.613,6.994,94.553.619,15.524,3.1,40.357,3.1,40.357s5.9,5.9,17.694,3.413c0,0,10.515-35.449,13.518-72.956l.14-1.853c2.794-38.183,7.138-118.585,7.138-118.585Z" transform="translate(-1772.281 -1225.536)" fill="#2b2b2b"/>
          <path id="Path_78" data-name="Path 78" d="M1779.21,1238.11s1.886,23.529,4.1,51.812l41.312,65.367.14-1.853c2.794-38.183,7.138-118.585,7.138-118.585Z" transform="translate(-1772.281 -1225.536)" fill="#1a1a1a"/>
          <path id="Path_79" data-name="Path 79" d="M1802.88,1224.63s33.992,85.213,56.342,125.258,29.336,51.22,29.336,51.22,12.805-5.122,13.969-8.614c0,0-8.547-77.309-23.515-96.155-8.458-10.648-18.393-42.606-18.859-53.781s-3.027-33.293-3.027-33.293Z" transform="translate(-1787.334 -1209.259)" fill="#2b2b2b"/>
        </g>
        <path id="Path_80" data-name="Path 80" d="M1826.13,848.219c13.283,4.192,36.266-7.12,36.266-7.12s-12.247-9.192-11.6-28.3l-10.27,8.277-6.977,5.621a83.592,83.592,0,0,0,.791,9.123q.21,1.589.495,3.425a2.459,2.459,0,0,1-1.115,2.478,31.41,31.41,0,0,0-7.585,6.5Z" transform="translate(-1721.148 -775.986)" fill="#a16d3c"/>
        <path id="Path_81" data-name="Path 81" d="M1775.12,1012.01a2.151,2.151,0,0,0,1.4.532c4.988-.068,19.534,2.7,31.842,1.439,10.375-1,19.559-4.07,29.421-8.491,1.31-.587,4.324-2.2,4.256-3.659-.044-1.6-.2-3.927-.4-6.855a366.706,366.706,0,0,1-.729-47.888c.214-3.761.325-7.492.339-11.166.1-27.377-5.327-51.456-16.235-59.606,0,0-7.606,4.267-12.87,5.95-5.158,1.649-7.816,1.317-10.49-.457,0,0-5.209,2.588-7.436,5.016-5.155,5.619-9.179,13.078-11.839,23.786-2.263,9.112-4.383,22.4-5.115,39.426C1776.93,957.754,1774.79,1011.74,1775.12,1012.01Z" transform="translate(-1688.682 -816.391)" fill="#fff"/>
        <path id="Path_82" data-name="Path 82" d="M1860.38,921.552l-14.621-45.234s-35.1,13.238-36.729,62.807c-.639,11.3-3.348,57.585,1.553,95.945,0,0,27.35,10.655,60.879-10.372Z" transform="translate(-1709.43 -816.391)" fill="#920061"/>
        <path id="Path_83" data-name="Path 83" d="M1846.5,840.813a83.593,83.593,0,0,0,.791,9.123c7.73-1.326,16.5-13.82,16.5-13.82a24.628,24.628,0,0,0-10.314-.924Z" transform="translate(-1734.107 -790.104)" fill="#8a5e35"/>
        <path id="Path_84" data-name="Path 84" d="M1822.53,780.829s23.925,3.975,26.171-10.963,6.847-24.485-8.334-27.654-19.012,2.083-20.975,6.887S1816.37,779.41,1822.53,780.829Z" transform="translate(-1715.891 -730.475)" fill="#a16d3c"/>
        <g id="Group_70" data-name="Group 70" transform="translate(146.434 192.838)">
          <path id="Path_85" data-name="Path 85" d="M2005.23,1303.39l-48.849,6.961a11.71,11.71,0,0,1-13.206-9.912l-3.017-21.169a11.711,11.711,0,0,1,9.912-13.207l48.848-6.961a11.71,11.71,0,0,1,13.206,9.912l3.017,21.169a11.711,11.711,0,0,1-9.911,13.207Z" transform="translate(-1940.04 -1252.64)" fill="#1a1a1a"/>
          <path id="Path_86" data-name="Path 86" d="M1957.85,1267.24l3.052,21.413a11.74,11.74,0,0,0,6.9,9.071,11.524,11.524,0,0,0,3.806.961h.009a11.477,11.477,0,0,0,2.543-.08l48.76-6.951a11.752,11.752,0,0,0,9.948-13.254l-3.049-21.416a11.757,11.757,0,0,0-13.257-9.948l-16.789,2.394-.65-4.569a3.872,3.872,0,0,0-4.373-3.283l-1.841.262L1982.7,1243.3l-2.537.362a3.869,3.869,0,0,0-3.283,4.373l.65,4.568-9.727,1.384c-.386.055-.76.13-1.128.219a.01.01,0,0,1-.008,0h0a11.763,11.763,0,0,0-8.093,7.068h0a11.617,11.617,0,0,0-.719,5.97Zm39.522-17.472-17.448,2.489-.65-4.569a1.445,1.445,0,0,1,1.226-1.631l4.382-.625,8.038-1.148,2.169-.308a1.487,1.487,0,0,1,.434.006,1.447,1.447,0,0,1,1.2,1.22Z" transform="translate(-1951.292 -1241.544)" fill="#2b2b2b"/>
        </g>
        <path id="Path_87" data-name="Path 87" d="M2017.1,1201.96s2.566,3.417,2.667,4.782c.689,9.254-3.539,10.535,7.409,15.675,0,0,4.674,1.782,4.754-1.846s-3.243-3.688-2.636-8.768c.7-5.86.63-5.914-3.216-8.974l-2.546-4.209Z" transform="translate(-1842.62 -1021.404)" fill="#a16d3c"/>
        <path id="Path_88" data-name="Path 88" d="M1932.27,999.568a37.565,37.565,0,0,1-8.6.479s-12.244-37.826-13.82-41.281-36.37-44.353-36.37-44.353l14.114-38.095s8.278,4.844,17.029,19.944c10.81,18.652,22.7,48.691,24.807,53.572,6.315,14.6,8.506,47.323,8.506,47.323A15.761,15.761,0,0,1,1932.27,999.568Z" transform="translate(-1751.271 -816.391)" fill="#920061"/>
        <path id="Path_89" data-name="Path 89" d="M1837.85,749.6s-2.455-.411-2.059-3.792.391-7.8-2.359-6.978-2.886,3.025-4.016,1.74-1.15-6.7-9.331-7.079-11.505,2.471-15.31.8-4-7.431-4-7.431a6.544,6.544,0,0,0,2.716,2.71s-6.347-8.681,1-14.634,14.841-2.056,19.094-1.8c9.369.567,15.422,1.129,18.482,7.286S1843.86,743.673,1837.85,749.6Z" transform="translate(-1705.017 -711.645)" fill="#1a1a1a"/>
        <path id="Path_90" data-name="Path 90" d="M2021.47,1218.98s-2.47,2.575-2.626,3.646c-.5,3.439-1.649,4.924-1.073,5.3,1.2.778,2.78-1.769,3.536-4.053a10.444,10.444,0,0,0,.163-4.893Z" transform="translate(-1842.952 -1034.354)" fill="#a16d3c"/>
        <path id="Path_91" data-name="Path 91" d="M1845.41,876.318l-16,30.351-8.2-2.984,2.664,8.1L1807.83,960.1S1798.96,898.712,1845.41,876.318Z" transform="translate(-1709.08 -816.391)" fill="#7b0051"/>
        <path id="Path_92" data-name="Path 92" d="M1826.13,826.192s.932,2.463,3.261,2.529,4.127-2.2,4.127-2.2S1828.46,825.353,1826.13,826.192Z" transform="translate(-1721.148 -784.314)" fill="#fff"/>
      </g>
      <g id="Group_75" data-name="Group 75" transform="translate(1222.526 456.404)">
        <g id="Group_72" data-name="Group 72" transform="translate(69.075 211.642)">
          <path id="Path_93" data-name="Path 93" d="M1449.29,1358.78l48.578-11.255a11.834,11.834,0,0,0,8.832-14.158l-4.878-21.052a11.834,11.834,0,0,0-14.158-8.831l-48.578,11.255a11.834,11.834,0,0,0-8.831,14.159l4.877,21.051a11.835,11.835,0,0,0,14.158,8.831Z" transform="translate(-1423.54 -1299.593)" fill="#1a1a1a"/>
          <path id="Path_94" data-name="Path 94" d="M1481.36,1302.16h0a11.885,11.885,0,0,0-10.2-3.71h0a.011.011,0,0,1-.009,0c-.38.05-.76.116-1.143.2l-9.672,2.243-1.053-4.543a3.91,3.91,0,0,0-4.689-2.924l-2.524.584-10.157,2.353-1.83.425a3.912,3.912,0,0,0-2.924,4.689l1.053,4.543-16.7,3.867a11.881,11.881,0,0,0-8.866,14.211l4.937,21.3a11.877,11.877,0,0,0,14.21,8.864l48.491-11.233a11.6,11.6,0,0,0,2.426-.851h.006a11.664,11.664,0,0,0,3.237-2.294,11.868,11.868,0,0,0,3.194-11.065l-4.933-21.3a11.746,11.746,0,0,0-2.849-5.364Zm-41.824-1.233a1.463,1.463,0,0,1,.686-1.587,1.5,1.5,0,0,1,.407-.164l2.157-.5,7.995-1.85,4.357-1.009a1.46,1.46,0,0,1,1.75,1.09l1.053,4.543-17.352,4.018Z" transform="translate(-1412.338 -1293.324)" fill="#2b2b2b"/>
        </g>
        <path id="Path_95" data-name="Path 95" d="M1492.56,1240.55s-1.467,5.2-.964,6.861c3.412,11.234,9.313,18.586-6.549,16.688,0,0,.656-.65-2.38-6.366-3.5-6.594-3.444-6.69-.3-12.057l1.083-6.129Z" transform="translate(-1386.315 -1047.476)" fill="#ffb27d"/>
        <path id="Path_96" data-name="Path 96" d="M1538.6,1178.18c-4.789-.29-10.626-1.543-12.753-4.075a11.781,11.781,0,0,0-4.819-3.642l.735-3.135.881-3.745s.287-.333,1.269-.28c0,0,3.755.849,5.15-.228s3.944-.421,5.513.622c2,1.326,4.693,1.112,4.626,1.761,0,0-3.959,1.946-3.589,2.274,3.625,3.218,13.172,4.5,12.552,7.012C1547.92,1175.73,1540.64,1178.3,1538.6,1178.18Z" transform="translate(-1412.396 -998.48)" fill="#ffb27d"/>
        <path id="Path_97" data-name="Path 97" d="M1338.19,843.1l-.014,2.6s.709,8.141-9.316,9.33-18.246,1.035-17.974-5.247c.9-4.865,2.52-12.415,2.588-16.44a28.3,28.3,0,0,0-.357-4.875l19.426-.388,5.722.935Z" transform="translate(-1278.723 -785.749)" fill="#ffb27d"/>
        <path id="Path_98" data-name="Path 98" d="M1342.17,829.017l-.07,14.083a16.433,16.433,0,0,1-7,1.545c-8.928,0-14.7-6.547-17.715-11.3a28.344,28.344,0,0,0-.357-4.875l19.426-.388Z" transform="translate(-1282.634 -785.749)" fill="#e2915a"/>
        <path id="Path_99" data-name="Path 99" d="M1307.39,767.161c2.254,12.13,17.905,11.732,24.669,10.969,1.9-.212,3.1-.455,3.1-.455,2.146-.573,3.344-3.954,3.9-8.382,1.1-8.764-.291-21.628-1.771-24.918-2.228-4.951-6.425-10.306-22.187-6.442S1304.49,751.619,1307.39,767.161Z" transform="translate(-1274.486 -727.566)" fill="#ffb27d"/>
        <path id="Path_100" data-name="Path 100" d="M1277.74,1783.68h22.179a53.557,53.557,0,0,0-1.769-7.962,22.593,22.593,0,0,0-1.256-3.195c-2.157-4.306-15.858-1.567-15.858-1.567s-1.272,1.091-2.266,5.255a44.116,44.116,0,0,0-1.03,7.469Z" transform="translate(-1257.647 -1384.952)" fill="#1a1a1a"/>
        <path id="Path_101" data-name="Path 101" d="M1461.89,1760.9c.061,3.017.441,5.872,1.535,7H1507.3c-.557-1.588-2.136-3.975-6.64-4.706-5.118-.828-13.095-3.292-17.752-8.215a13.208,13.208,0,0,1-3.437-6.225c-2.064-9.189-17.066,2.816-17.066,2.816a74.3,74.3,0,0,0-.515,9.33Z" transform="translate(-1374.776 -1369.174)" fill="#1a1a1a"/>
        <path id="Path_102" data-name="Path 102" d="M1343.18,1319.65a69.277,69.277,0,0,1,1.1,8.1c1.4,27.2,22.9,89.4,26.745,90.852,5.952,2.246,15.324-2.528,20.227-4.089a4.2,4.2,0,0,0,2.951-4.777c-10.649-48.957-14.563-119.453-15.987-161.189a189.4,189.4,0,0,0-4.328-35.544s-52.448-13.994-52.759,3.708C1320.86,1232.38,1338.51,1293.81,1343.18,1319.65Z" transform="translate(-1285.246 -1027.253)" fill="#008dbf"/>
        <path id="Path_103" data-name="Path 103" d="M1343.18,1319.65l35.036-71.1a189.4,189.4,0,0,0-4.328-35.544s-52.448-13.994-52.759,3.708C1320.86,1232.38,1338.51,1293.81,1343.18,1319.65Z" transform="translate(-1285.246 -1027.253)" fill="#017ba7"/>
        <path id="Path_104" data-name="Path 104" d="M1310.96,1221.37l-27.726,200.949s-12.176,2.936-21.646.587c0,0-8.117-106.874-7.441-132.712s-5.826-69.138,1.484-73.912S1310.96,1221.37,1310.96,1221.37Z" transform="translate(-1241.355 -1031.847)" fill="#008dbf"/>
        <path id="Path_105" data-name="Path 105" d="M1326.43,730.462c-4.331,1.364-13.489-.028-17.318,3.068s-.181,8.206-4.557,10.028l-.017.007a2.16,2.16,0,0,1-2.514-.63c-1.212-1.513-2.888-3.02-4.421-2.4-1.257.515-1.321,2.139-.766,3.718a4.394,4.394,0,0,1-.47,3.972,2.168,2.168,0,0,0-.476,1.6c.364,2,1.358,4.606,1.722,5.937l.1,1.4s-7.33-7.935-10.417-14.611c-2.118-4.582-2.076-21.706,8.287-26.711a.347.347,0,0,1-.1-.112c-.224-.4-.848-.31-.848-.31a4.673,4.673,0,0,1,2.274-.147c-.03-.021.026-.086.151-.181a3.657,3.657,0,0,1,1.4-2.076,4.067,4.067,0,0,0-.664,1.637c2.723-1.435,11.1-4.613,17.742-1.723a55.348,55.348,0,0,0,11.409,3.535,4.757,4.757,0,0,1,3.853,4.846C1330.68,724.6,1329.53,729.331,1326.43,730.462Z" transform="translate(-1263.022 -711.754)" fill="#1a1a1a"/>
        <path id="Path_106" data-name="Path 106" d="M1304.4,897.311l6.383,136.967s53.278.87,51.757-11.186-19.2-121.586-19.2-121.586" transform="translate(-1274.602 -829.784)" fill="#e9f3fe"/>
        <path id="Path_107" data-name="Path 107" d="M1271.61,974.205s-2.7,36.583-7.9,59.55c0,0-31.091,1.65-38.469-10.355,0,0,5.841-49.419,5.841-59.442,0-3.523-.271-8.313-.7-13.667-.646-8.111-1.65-17.505-2.6-25.689-1.323-11.4-2.537-20.456-2.537-20.456l25.633-20.831Z" transform="translate(-1224.251 -820.882)" fill="#008dbf"/>
        <path id="Path_108" data-name="Path 108" d="M1440.64,1017.97s-5.8,3.631-14.935,2.413c-3.324,8.154-11.167,10.924-11.167,10.187,0-.089-1.76-15.4-3.84-33.442-.2-1.8-.413-3.631-.626-5.473-.017-.158-.039-.315-.056-.473-.349-3.022-.7-6.078-1.052-9.121-2.5-21.729-4.906-42.558-4.906-42.558-5.452-33.374-10.068-55.431-10.068-55.431,11.632,1.21,19.479,5.353,22.611,10.779,9.283,16.09,16.005,56.334,19.943,86.46.008.076.017.153.03.23.678,5.2,1.275,10.1,1.782,14.509.034.277.064.549.094.818C1439.9,1009.49,1440.64,1017.97,1440.64,1017.97Z" transform="translate(-1331.59 -821.362)" fill="#008dbf"/>
        <path id="Path_109" data-name="Path 109" d="M1384.95,884.077" transform="translate(-1325.845 -821.366)" fill="#2b478b"/>
        <path id="Path_110" data-name="Path 110" d="M1373.96,823.51s.506,1.565,4.455.994c0,0,3.315-.479,3.07-2.224A10.757,10.757,0,0,0,1373.96,823.51Z" transform="translate(-1318.854 -781.92)" fill="#fff"/>
        <g id="Group_74" data-name="Group 74" transform="translate(28.282 57.595)">
          <path id="Path_111" data-name="Path 111" d="M1300.24,877.424c-.065-1.307,6.126-3.113,6.126-3.113s7.087,9.825,18.762,10c0,0-3.327,6.475-7.248,8.152C1317.88,892.458,1300.63,885.187,1300.24,877.424Z" transform="translate(-1300.244 -872.749)" fill="#d9e9f9"/>
          <path id="Path_112" data-name="Path 112" d="M1368.64,887.687s6.185-3.667,6.207-7.642c0,0,3.994-.5,5.739,1.437,0,0,1.466,6.812-.479,10.769C1380.1,892.252,1371.2,890.9,1368.64,887.687Z" transform="translate(-1343.746 -876.36)" fill="#d9e9f9"/>
          <path id="Path_113" data-name="Path 113" d="M1356.48,896.012l8.387-2.01a1.27,1.27,0,0,1,1.066,1.461c-.03,1.366-2.362,5.358-3.4,5.677S1354.5,898.776,1356.48,896.012Z" transform="translate(-1335.793 -885.275)" fill="#fcb200"/>
          <path id="Path_114" data-name="Path 114" d="M1302.93,874.02c-.065-1.307,4.125-4,4.125-4s8.11,9.479,19.786,9.649c0,0-3.327,6.475-7.248,8.152C1319.59,887.821,1303.31,881.782,1302.93,874.02Z" transform="translate(-1301.951 -870.02)" fill="#e9f3fe"/>
          <path id="Path_115" data-name="Path 115" d="M1368.64,883.79s6.256-3.316,6.277-7.291c0,0,3.776,1.662,5.521,3.6a11.479,11.479,0,0,1-.33,8.257S1371.2,887,1368.64,883.79Z" transform="translate(-1343.746 -874.141)" fill="#e9f3fe"/>
          <g id="Group_73" data-name="Group 73" transform="translate(22.921 13.363)">
            <path id="Path_116" data-name="Path 116" d="M1380.53,1017.88a17.794,17.794,0,0,1-4.219,10.3l-3.758,4.242a1.917,1.917,0,0,1-3.182-.275l-4.536-7.114a10.929,10.929,0,0,1-1.561-6.771c.483-5.429,1.387-15.89,2.126-25.985.6-8.179,1.1-16.124,1.176-20.955.25-15.423-1.771-64.575-1.771-64.575l3.014.158a227.075,227.075,0,0,1,10.978,44.93c.906,6.383,1.587,13.18,1.89,20.225C1380.69,972.053,1381.99,1000.12,1380.53,1017.88Z" transform="translate(-1363.228 -906.74)" fill="#fcb200"/>
            <path id="Path_117" data-name="Path 117" d="M1380.53,1096.68a17.794,17.794,0,0,1-4.219,10.3l-3.758,4.242a1.917,1.917,0,0,1-3.182-.276l-4.536-7.114a10.928,10.928,0,0,1-1.561-6.771c.483-5.429,1.387-15.89,2.126-25.985,8.446-11.578,11.977-27.481,13.4-40.442.906,6.383,1.587,13.18,1.89,20.225C1380.69,1050.86,1381.99,1078.93,1380.53,1096.68Z" transform="translate(-1363.228 -985.549)" fill="#fcb200"/>
          </g>
        </g>
        <path id="Path_118" data-name="Path 118" d="M1297.48,870.02s16.6,69.547,13.962,95.746c0,0-6.106-28-20.8-50.928,0,0,5.361-4.715,5.07-6.454a18.349,18.349,0,0,0-7.841-.385s.427-29.979,2.835-33.146A17.545,17.545,0,0,1,1297.48,870.02Z" transform="translate(-1264.091 -812.425)" fill="#017ba7"/>
        <path id="Path_119" data-name="Path 119" d="M1385.49,876.5c-2.49.2,16.456,67.96,17.859,89.679,0,0-1.664-38.757-1.5-49.928,0,0-6.9-3.651-6.9-4.932s7.358-4.744,7.358-4.744-4.659-23.868-7.2-26.5S1385.49,876.5,1385.49,876.5Z" transform="translate(-1326.041 -816.546)" fill="#017ba7"/>
        <path id="Path_120" data-name="Path 120" d="M1480.01,1266.21s-1.15,1.556-.419,5.466.327,6.067,1.338,5.393,3.1-5.368,3.1-5.368Z" transform="translate(-1385.889 -1064.438)" fill="#ffb27d"/>
        <path id="Path_121" data-name="Path 121" d="M1274.01,1034.53c-19.332-2.886-32.258-20.951-39.2-34.632-.646-8.111-1.65-17.505-2.6-25.689l4.523-12.9Z" transform="translate(-1228.686 -870.49)" fill="#017ba7"/>
        <path id="Path_122" data-name="Path 122" d="M1466.46,1175.86c-3.849.891-15.527,3.073-27.752.26-.2-1.8-.413-3.631-.626-5.473-.017-.158-.038-.315-.056-.473q.6-2.352,1.206-4.7c6.918,2.476,22.377,7.9,27.134,9.573C1466.4,1175.32,1466.43,1175.59,1466.46,1175.86Z" transform="translate(-1359.602 -1000.355)" fill="#017ba7"/>
        <path id="Path_123" data-name="Path 123" d="M1249.14,883.3c.007.005-16.987,2.145-24.74,12.968s8.9,69.767,43.453,88.643c16.623,9.08,64.587,11.125,64.587,11.125s2.636.264,3.682-5.044a21.21,21.21,0,0,0,0-5.007s-54.6-20.471-59.4-24.413S1249.14,883.3,1249.14,883.3Z" transform="translate(-1222.527 -820.872)" fill="#008dbf"/>
      </g>
      <path id="Path_124" data-name="Path 124" d="M1570.42,1160.41s-5.712-1.433-7.349-1.779c-1.912-.4-3.661-1.842-4.219-1.164-1.036,1.258,3.336,3.473,5.061,7.362.847,1.91,2.551,2.948,5.966,1.545C1571.6,1165.67,1572.97,1162.1,1570.42,1160.41Z" transform="translate(-213.832 -538.748)" fill="#a16d3c"/>
      <g id="Group_76" data-name="Group 76" transform="translate(1517.035 455.79)">
        <circle id="Ellipse_1" data-name="Ellipse 1" cx="24.805" cy="24.805" r="24.805" transform="translate(0 3.083) rotate(-3.562)" fill="#fcb200"/>
      </g>
      <g id="Group_77" data-name="Group 77" transform="translate(1529.401 464.175)">
        <path id="Path_125" data-name="Path 125" d="M2082.19,741.069a7.962,7.962,0,1,1,7.962,7.961,7.962,7.962,0,0,1-7.962-7.961Z" transform="translate(-2076.22 -733.107)" fill="#fff"/>
        <path id="Path_126" data-name="Path 126" d="M2079.72,776.862a13.932,13.932,0,0,0-13.933,13.933h27.865A13.932,13.932,0,0,0,2079.72,776.862Z" transform="translate(-2065.784 -760.939)" fill="#fff"/>
      </g>
      <g id="Group_78" data-name="Group 78" transform="translate(1339.859 395.966)">
        <circle id="Ellipse_2" data-name="Ellipse 2" cx="16.734" cy="16.734" r="16.734" transform="translate(0 32.572) rotate(-76.7)" fill="#fcb200"/>
      </g>
      <g id="Group_79" data-name="Group 79" transform="translate(1350.59 404.012)">
        <path id="Path_127" data-name="Path 127" d="M1585.5,573.157a5.371,5.371,0,1,1,5.371,5.371,5.371,5.371,0,0,1-5.371-5.371Z" transform="translate(-1581.473 -567.786)" fill="#fff"/>
        <path id="Path_128" data-name="Path 128" d="M1583.83,597.3a9.4,9.4,0,0,0-9.4,9.4h18.8A9.4,9.4,0,0,0,1583.83,597.3Z" transform="translate(-1574.432 -586.561)" fill="#fff"/>
      </g>
      <g id="Group_88" data-name="Group 88" transform="translate(1479.241 331.052)">
        <g id="Group_83" data-name="Group 83">
          <path id="Path_129" data-name="Path 129" d="M1928.02,368.328a1.457,1.457,0,1,1,.964,1.821,1.457,1.457,0,0,1-.964-1.821Z" transform="translate(-1927.952 -367.299)" fill="#fcb200"/>
          <path id="Path_130" data-name="Path 130" d="M1945.72,373.775a1.457,1.457,0,1,1,.964,1.821,1.457,1.457,0,0,1-.964-1.821Z" transform="translate(-1939.213 -370.764)" fill="#fcb200"/>
          <path id="Path_131" data-name="Path 131" d="M1964.62,381.114a1.457,1.457,0,1,1,1.821-.964,1.457,1.457,0,0,1-1.821.964Z" transform="translate(-1950.623 -374.274)" fill="#fcb200"/>
          <g id="Group_80" data-name="Group 80" transform="translate(19.498 5.999)">
            <path id="Path_132" data-name="Path 132" d="M1981.6,384.813a1.457,1.457,0,1,1,.964,1.821A1.457,1.457,0,0,1,1981.6,384.813Z" transform="translate(-1981.531 -383.784)" fill="#fcb200"/>
            <path id="Path_133" data-name="Path 133" d="M1999.3,390.26a1.456,1.456,0,1,1,.1,1.11,1.457,1.457,0,0,1-.1-1.11Z" transform="translate(-1992.792 -387.249)" fill="#fcb200"/>
            <path id="Path_134" data-name="Path 134" d="M2018.2,397.6a1.456,1.456,0,1,1,1.11-.1,1.457,1.457,0,0,1-1.11.1Z" transform="translate(-2004.202 -390.76)" fill="#fcb200"/>
          </g>
          <g id="Group_82" data-name="Group 82" transform="translate(38.735 11.918)">
            <path id="Path_135" data-name="Path 135" d="M2034.46,401.077a1.456,1.456,0,1,1,.1,1.11,1.457,1.457,0,0,1-.1-1.11Z" transform="translate(-2034.391 -400.048)" fill="#fcb200"/>
            <path id="Path_136" data-name="Path 136" d="M2052.16,406.524a1.455,1.455,0,1,1,.1,1.11,1.457,1.457,0,0,1-.1-1.11Z" transform="translate(-2045.652 -403.513)" fill="#fcb200"/>
            <path id="Path_137" data-name="Path 137" d="M2071.06,413.864a1.456,1.456,0,1,1,1.11-.1,1.457,1.457,0,0,1-1.11.1Z" transform="translate(-2057.062 -407.024)" fill="#fcb200"/>
            <g id="Group_81" data-name="Group 81" transform="translate(19.498 5.999)">
              <path id="Path_138" data-name="Path 138" d="M2088.03,417.562a1.456,1.456,0,1,1,.1,1.11,1.457,1.457,0,0,1-.1-1.11Z" transform="translate(-2087.97 -416.534)" fill="#fcb200"/>
              <path id="Path_139" data-name="Path 139" d="M2105.74,423.01a1.457,1.457,0,1,1,.964,1.82A1.457,1.457,0,0,1,2105.74,423.01Z" transform="translate(-2099.232 -419.999)" fill="#fcb200"/>
              <path id="Path_140" data-name="Path 140" d="M2124.64,430.349a1.457,1.457,0,1,1,1.82-.964,1.457,1.457,0,0,1-1.82.964Z" transform="translate(-2110.641 -423.509)" fill="#fcb200"/>
            </g>
          </g>
        </g>
        <g id="Group_87" data-name="Group 87" transform="translate(77.748 23.921)">
          <path id="Path_141" data-name="Path 141" d="M2141.66,434.062a1.457,1.457,0,1,1,.964,1.821,1.457,1.457,0,0,1-.964-1.821Z" transform="translate(-2141.594 -433.033)" fill="#fcb200"/>
          <path id="Path_142" data-name="Path 142" d="M2159.36,439.509a1.457,1.457,0,1,1,.964,1.821,1.457,1.457,0,0,1-.964-1.821Z" transform="translate(-2152.855 -436.498)" fill="#fcb200"/>
          <path id="Path_143" data-name="Path 143" d="M2178.26,446.848a1.457,1.457,0,1,1,1.82-.964,1.457,1.457,0,0,1-1.82.964Z" transform="translate(-2164.265 -440.008)" fill="#fcb200"/>
          <g id="Group_84" data-name="Group 84" transform="translate(19.498 5.999)">
            <path id="Path_144" data-name="Path 144" d="M2195.24,450.547a1.457,1.457,0,1,1,.963,1.821A1.457,1.457,0,0,1,2195.24,450.547Z" transform="translate(-2195.174 -449.518)" fill="#fcb200"/>
            <path id="Path_145" data-name="Path 145" d="M2212.94,455.994a1.456,1.456,0,1,1,.1,1.11,1.456,1.456,0,0,1-.1-1.11Z" transform="translate(-2206.435 -452.983)" fill="#fcb200"/>
            <path id="Path_146" data-name="Path 146" d="M2231.84,463.334a1.457,1.457,0,1,1,1.821-.964,1.457,1.457,0,0,1-1.821.964Z" transform="translate(-2217.844 -456.494)" fill="#fcb200"/>
          </g>
          <g id="Group_86" data-name="Group 86" transform="translate(38.735 11.918)">
            <path id="Path_147" data-name="Path 147" d="M2248.1,466.811a1.457,1.457,0,1,1,.964,1.821,1.457,1.457,0,0,1-.964-1.821Z" transform="translate(-2248.033 -465.782)" fill="#fcb200"/>
            <path id="Path_148" data-name="Path 148" d="M2265.8,472.259a1.456,1.456,0,1,1,.1,1.11A1.457,1.457,0,0,1,2265.8,472.259Z" transform="translate(-2259.295 -469.247)" fill="#fcb200"/>
            <path id="Path_149" data-name="Path 149" d="M2284.7,479.6a1.456,1.456,0,1,1,1.11-.1,1.457,1.457,0,0,1-1.11.1Z" transform="translate(-2270.705 -472.758)" fill="#fcb200"/>
            <g id="Group_85" data-name="Group 85" transform="translate(19.498 5.999)">
              <path id="Path_150" data-name="Path 150" d="M2301.68,483.3a1.456,1.456,0,1,1,.1,1.11A1.456,1.456,0,0,1,2301.68,483.3Z" transform="translate(-2301.613 -482.268)" fill="#fcb200"/>
              <path id="Path_151" data-name="Path 151" d="M2319.38,488.744a1.457,1.457,0,1,1,.964,1.821,1.457,1.457,0,0,1-.964-1.821Z" transform="translate(-2312.874 -485.733)" fill="#fcb200"/>
              <path id="Path_152" data-name="Path 152" d="M2338.28,496.083a1.457,1.457,0,1,1,1.82-.964,1.457,1.457,0,0,1-1.82.964Z" transform="translate(-2324.283 -489.243)" fill="#fcb200"/>
            </g>
          </g>
        </g>
      </g>
      <g id="Group_99" data-name="Group 99" transform="translate(1560.119 361.053)">
        <g id="Group_91" data-name="Group 91" transform="translate(0 65.621)">
          <g id="Group_89" data-name="Group 89" transform="translate(0 16.457)">
            <path id="Path_153" data-name="Path 153" d="M2150.79,708a1.457,1.457,0,1,1,2.036-.314,1.457,1.457,0,0,1-2.036.314Z" transform="translate(-2150.193 -694.417)" fill="#fcb200"/>
            <path id="Path_154" data-name="Path 154" d="M2161.74,693.053a1.457,1.457,0,1,1,2.036-.314,1.457,1.457,0,0,1-2.036.314Z" transform="translate(-2157.156 -684.912)" fill="#fcb200"/>
            <path id="Path_155" data-name="Path 155" d="M2174.86,677.6a1.457,1.457,0,1,1-.314-2.036,1.457,1.457,0,0,1,.314,2.036Z" transform="translate(-2164.211 -675.282)" fill="#fcb200"/>
          </g>
          <g id="Group_90" data-name="Group 90" transform="translate(12.056)">
            <path id="Path_156" data-name="Path 156" d="M2183.92,662.774a1.457,1.457,0,1,1,2.036-.314A1.457,1.457,0,0,1,2183.92,662.774Z" transform="translate(-2183.321 -649.195)" fill="#fcb200"/>
            <path id="Path_157" data-name="Path 157" d="M2194.86,647.831a1.457,1.457,0,1,1,2.036-.314,1.457,1.457,0,0,1-2.036.314Z" transform="translate(-2190.284 -639.69)" fill="#fcb200"/>
            <path id="Path_158" data-name="Path 158" d="M2207.99,632.378a1.457,1.457,0,1,1-.314-2.036,1.457,1.457,0,0,1,.314,2.036Z" transform="translate(-2197.338 -630.06)" fill="#fcb200"/>
          </g>
        </g>
        <g id="Group_98" data-name="Group 98" transform="translate(24.121)">
          <g id="Group_94" data-name="Group 94" transform="translate(0 32.693)">
            <g id="Group_92" data-name="Group 92" transform="translate(0 16.457)">
              <path id="Path_159" data-name="Path 159" d="M2217.07,617.514a1.457,1.457,0,1,1,2.036-.314,1.457,1.457,0,0,1-2.036.314Z" transform="translate(-2216.477 -603.935)" fill="#fcb200"/>
              <path id="Path_160" data-name="Path 160" d="M2228.02,602.571a1.457,1.457,0,1,1,2.036-.314,1.457,1.457,0,0,1-2.036.314Z" transform="translate(-2223.44 -594.429)" fill="#fcb200"/>
              <path id="Path_161" data-name="Path 161" d="M2241.15,587.117a1.457,1.457,0,1,1-.314-2.036,1.457,1.457,0,0,1,.314,2.036Z" transform="translate(-2230.494 -584.799)" fill="#fcb200"/>
            </g>
            <g id="Group_93" data-name="Group 93" transform="translate(12.056)">
              <path id="Path_162" data-name="Path 162" d="M2250.2,572.292a1.457,1.457,0,1,1,2.036-.314,1.457,1.457,0,0,1-2.036.314Z" transform="translate(-2249.605 -558.712)" fill="#fcb200"/>
              <path id="Path_163" data-name="Path 163" d="M2261.15,557.349a1.457,1.457,0,1,1,2.035-.314,1.457,1.457,0,0,1-2.035.314Z" transform="translate(-2256.568 -549.208)" fill="#fcb200"/>
              <path id="Path_164" data-name="Path 164" d="M2274.27,541.9a1.457,1.457,0,1,1-.315-2.036A1.457,1.457,0,0,1,2274.27,541.9Z" transform="translate(-2263.622 -539.578)" fill="#fcb200"/>
            </g>
          </g>
          <g id="Group_97" data-name="Group 97" transform="translate(23.95)">
            <g id="Group_95" data-name="Group 95" transform="translate(0 16.457)">
              <path id="Path_165" data-name="Path 165" d="M2282.89,527.676a1.457,1.457,0,1,1,2.036-.314A1.457,1.457,0,0,1,2282.89,527.676Z" transform="translate(-2282.289 -514.097)" fill="#fcb200"/>
              <path id="Path_166" data-name="Path 166" d="M2293.83,512.734a1.457,1.457,0,1,1,2.036-.314,1.457,1.457,0,0,1-2.036.314Z" transform="translate(-2289.251 -504.592)" fill="#fcb200"/>
              <path id="Path_167" data-name="Path 167" d="M2306.96,497.28a1.457,1.457,0,1,1-.314-2.036,1.457,1.457,0,0,1,.314,2.036Z" transform="translate(-2296.306 -494.962)" fill="#fcb200"/>
            </g>
            <g id="Group_96" data-name="Group 96" transform="translate(12.055)">
              <path id="Path_168" data-name="Path 168" d="M2316.01,482.455a1.457,1.457,0,1,1,2.036-.314,1.457,1.457,0,0,1-2.036.314Z" transform="translate(-2315.416 -468.875)" fill="#fcb200"/>
              <path id="Path_169" data-name="Path 169" d="M2326.96,467.512A1.457,1.457,0,1,1,2329,467.2,1.457,1.457,0,0,1,2326.96,467.512Z" transform="translate(-2322.379 -459.37)" fill="#fcb200"/>
              <path id="Path_170" data-name="Path 170" d="M2340.08,452.058a1.457,1.457,0,1,1-.314-2.036,1.457,1.457,0,0,1,.314,2.036Z" transform="translate(-2329.433 -449.74)" fill="#fcb200"/>
            </g>
          </g>
        </g>
      </g>
      <g id="Group_110" data-name="Group 110" transform="translate(1572.751 459.193)">
        <g id="Group_102" data-name="Group 102" transform="translate(0 13.158)">
          <g id="Group_100" data-name="Group 100" transform="translate(0 3.3)">
            <path id="Path_171" data-name="Path 171" d="M2184.93,772.368a1.457,1.457,0,1,1,1.674,1.2,1.457,1.457,0,0,1-1.674-1.2Z" transform="translate(-2184.907 -768.48)" fill="#fcb200"/>
            <path id="Path_172" data-name="Path 172" d="M2203.21,769.372a1.457,1.457,0,1,1,1.673,1.2,1.457,1.457,0,0,1-1.673-1.2Z" transform="translate(-2196.534 -766.574)" fill="#fcb200"/>
            <path id="Path_173" data-name="Path 173" d="M2223.4,767.538a1.457,1.457,0,1,1,1.2-1.673,1.457,1.457,0,0,1-1.2,1.673Z" transform="translate(-2208.314 -764.644)" fill="#fcb200"/>
          </g>
          <g id="Group_101" data-name="Group 101" transform="translate(20.131)">
            <path id="Path_174" data-name="Path 174" d="M2240.25,763.3a1.457,1.457,0,1,1,1.673,1.2,1.457,1.457,0,0,1-1.673-1.2Z" transform="translate(-2240.226 -759.412)" fill="#fcb200"/>
            <path id="Path_175" data-name="Path 175" d="M2258.52,760.3a1.457,1.457,0,1,1,1.673,1.2,1.457,1.457,0,0,1-1.673-1.2Z" transform="translate(-2251.853 -757.506)" fill="#fcb200"/>
            <path id="Path_176" data-name="Path 176" d="M2278.72,758.469a1.457,1.457,0,1,1,1.2-1.673,1.457,1.457,0,0,1-1.2,1.673Z" transform="translate(-2263.633 -755.575)" fill="#fcb200"/>
          </g>
        </g>
        <g id="Group_109" data-name="Group 109" transform="translate(40.28)">
          <g id="Group_105" data-name="Group 105" transform="translate(0 6.556)">
            <g id="Group_103" data-name="Group 103" transform="translate(0 3.3)">
              <path id="Path_177" data-name="Path 177" d="M2295.61,754.224a1.457,1.457,0,1,1,1.674,1.2,1.457,1.457,0,0,1-1.674-1.2Z" transform="translate(-2295.593 -750.337)" fill="#fcb200"/>
              <path id="Path_178" data-name="Path 178" d="M2313.89,751.227a1.457,1.457,0,1,1,1.673,1.2,1.457,1.457,0,0,1-1.673-1.2Z" transform="translate(-2307.22 -748.43)" fill="#fcb200"/>
              <path id="Path_179" data-name="Path 179" d="M2334.08,749.394a1.457,1.457,0,1,1,1.2-1.673,1.457,1.457,0,0,1-1.2,1.673Z" transform="translate(-2319 -746.5)" fill="#fcb200"/>
            </g>
            <g id="Group_104" data-name="Group 104" transform="translate(20.131)">
              <path id="Path_180" data-name="Path 180" d="M2350.93,745.156a1.457,1.457,0,1,1,1.673,1.2,1.457,1.457,0,0,1-1.673-1.2Z" transform="translate(-2350.912 -741.268)" fill="#fcb200"/>
              <path id="Path_181" data-name="Path 181" d="M2369.21,742.16a1.457,1.457,0,1,1,1.674,1.2,1.457,1.457,0,0,1-1.674-1.2Z" transform="translate(-2362.539 -739.363)" fill="#fcb200"/>
              <path id="Path_182" data-name="Path 182" d="M2389.4,740.326a1.457,1.457,0,1,1,1.2-1.673,1.457,1.457,0,0,1-1.2,1.673Z" transform="translate(-2374.319 -737.432)" fill="#fcb200"/>
            </g>
          </g>
          <g id="Group_108" data-name="Group 108" transform="translate(39.993)">
            <g id="Group_106" data-name="Group 106" transform="translate(0 3.3)">
              <path id="Path_183" data-name="Path 183" d="M2405.51,736.21a1.457,1.457,0,1,1,1.674,1.2,1.457,1.457,0,0,1-1.674-1.2Z" transform="translate(-2405.49 -732.322)" fill="#fcb200"/>
              <path id="Path_184" data-name="Path 184" d="M2423.79,733.213a1.457,1.457,0,1,1,1.674,1.2,1.457,1.457,0,0,1-1.674-1.2Z" transform="translate(-2417.117 -730.416)" fill="#fcb200"/>
              <path id="Path_185" data-name="Path 185" d="M2443.98,731.379a1.457,1.457,0,1,1,1.2-1.673A1.457,1.457,0,0,1,2443.98,731.379Z" transform="translate(-2428.897 -728.485)" fill="#fcb200"/>
            </g>
            <g id="Group_107" data-name="Group 107" transform="translate(20.131)">
              <path id="Path_186" data-name="Path 186" d="M2460.83,727.141a1.457,1.457,0,1,1,1.673,1.2,1.457,1.457,0,0,1-1.673-1.2Z" transform="translate(-2460.809 -723.254)" fill="#fcb200"/>
              <path id="Path_187" data-name="Path 187" d="M2479.11,724.145a1.457,1.457,0,1,1,1.673,1.2,1.457,1.457,0,0,1-1.673-1.2Z" transform="translate(-2472.436 -721.348)" fill="#fcb200"/>
              <path id="Path_188" data-name="Path 188" d="M2499.3,722.311a1.457,1.457,0,1,1,1.2-1.673,1.457,1.457,0,0,1-1.2,1.673Z" transform="translate(-2484.216 -719.417)" fill="#fcb200"/>
            </g>
          </g>
        </g>
      </g>
      <g id="Group_116" data-name="Group 116" transform="translate(1497.467 340.283)">
        <g id="Group_112" data-name="Group 112" transform="translate(24.77 77.482)">
          <g id="Group_111" data-name="Group 111" transform="translate(6.212 19.431)">
            <path id="Path_189" data-name="Path 189" d="M2076.42,697.338a1.457,1.457,0,1,1,.944-1.831,1.457,1.457,0,0,1-.944,1.831Z" transform="translate(-2070.39 -681.567)" fill="#fcb200"/>
            <path id="Path_190" data-name="Path 190" d="M2070.78,679.694a1.456,1.456,0,1,1,.852-.72,1.457,1.457,0,0,1-.852.72Z" transform="translate(-2066.802 -670.344)" fill="#fcb200"/>
            <path id="Path_191" data-name="Path 191" d="M2066.01,659.987a1.457,1.457,0,1,1-1.831-.944,1.457,1.457,0,0,1,1.831.944Z" transform="translate(-2063.167 -658.973)" fill="#fcb200"/>
          </g>
          <path id="Path_192" data-name="Path 192" d="M2059.35,643.942a1.457,1.457,0,1,1,.944-1.831,1.457,1.457,0,0,1-.944,1.831Z" transform="translate(-2053.32 -628.171)" fill="#fcb200"/>
          <path id="Path_193" data-name="Path 193" d="M2053.71,626.3a1.457,1.457,0,1,1,.944-1.831,1.457,1.457,0,0,1-.944,1.831Z" transform="translate(-2049.732 -616.949)" fill="#fcb200"/>
          <path id="Path_194" data-name="Path 194" d="M2048.94,606.591a1.457,1.457,0,1,1-1.831-.944,1.457,1.457,0,0,1,1.831.944Z" transform="translate(-2046.097 -605.578)" fill="#fcb200"/>
        </g>
        <g id="Group_114" data-name="Group 114" transform="translate(12.341 38.602)">
          <g id="Group_113" data-name="Group 113" transform="translate(6.212 19.431)">
            <path id="Path_195" data-name="Path 195" d="M2042.27,590.5a1.457,1.457,0,1,1,.944-1.831,1.457,1.457,0,0,1-.944,1.831Z" transform="translate(-2036.236 -574.73)" fill="#fcb200"/>
            <path id="Path_196" data-name="Path 196" d="M2036.63,572.858a1.457,1.457,0,1,1,.944-1.831A1.457,1.457,0,0,1,2036.63,572.858Z" transform="translate(-2032.648 -563.508)" fill="#fcb200"/>
            <path id="Path_197" data-name="Path 197" d="M2031.86,553.15a1.457,1.457,0,1,1-1.831-.944A1.457,1.457,0,0,1,2031.86,553.15Z" transform="translate(-2029.013 -552.137)" fill="#fcb200"/>
          </g>
          <path id="Path_198" data-name="Path 198" d="M2025.2,537.106a1.457,1.457,0,1,1,.944-1.831,1.457,1.457,0,0,1-.944,1.831Z" transform="translate(-2019.166 -521.335)" fill="#fcb200"/>
          <path id="Path_199" data-name="Path 199" d="M2019.56,519.462a1.457,1.457,0,1,1,.944-1.831,1.457,1.457,0,0,1-.944,1.831Z" transform="translate(-2015.579 -510.112)" fill="#fcb200"/>
          <path id="Path_200" data-name="Path 200" d="M2014.79,499.755a1.457,1.457,0,1,1-1.831-.944,1.457,1.457,0,0,1,1.831.944Z" transform="translate(-2011.943 -498.742)" fill="#fcb200"/>
        </g>
        <g id="Group_115" data-name="Group 115" transform="translate(6.212 19.431)">
          <path id="Path_201" data-name="Path 201" d="M2008.36,484.426a1.457,1.457,0,1,1,.944-1.831A1.457,1.457,0,0,1,2008.36,484.426Z" transform="translate(-2002.325 -468.656)" fill="#fcb200"/>
          <path id="Path_202" data-name="Path 202" d="M2002.72,466.782a1.457,1.457,0,1,1,.944-1.831A1.457,1.457,0,0,1,2002.72,466.782Z" transform="translate(-1998.737 -457.432)" fill="#fcb200"/>
          <path id="Path_203" data-name="Path 203" d="M1997.95,447.075a1.457,1.457,0,1,1-1.831-.944,1.457,1.457,0,0,1,1.831.944Z" transform="translate(-1995.102 -446.062)" fill="#fcb200"/>
        </g>
        <path id="Path_204" data-name="Path 204" d="M1991.29,431.031a1.457,1.457,0,1,1,.944-1.831,1.457,1.457,0,0,1-.944,1.831Z" transform="translate(-1985.255 -415.26)" fill="#fcb200"/>
        <path id="Path_205" data-name="Path 205" d="M1985.65,413.387a1.457,1.457,0,1,1,.944-1.831,1.457,1.457,0,0,1-.944,1.831Z" transform="translate(-1981.668 -404.037)" fill="#fcb200"/>
        <path id="Path_206" data-name="Path 206" d="M1980.88,393.68a1.457,1.457,0,1,1-1.832-.944,1.457,1.457,0,0,1,1.832.944Z" transform="translate(-1978.033 -392.666)" fill="#fcb200"/>
      </g>
      <g id="Group_127" data-name="Group 127" transform="translate(1369.05 340.138)">
        <g id="Group_119" data-name="Group 119" transform="translate(0 46.208)">
          <g id="Group_117" data-name="Group 117" transform="translate(0 11.588)">
            <path id="Path_207" data-name="Path 207" d="M1625.42,574.552a1.456,1.456,0,1,1,.936.606A1.457,1.457,0,0,1,1625.42,574.552Z" transform="translate(-1625.157 -564.559)" fill="#fcb200"/>
            <path id="Path_208" data-name="Path 208" d="M1640.66,564.03a1.457,1.457,0,1,1,2.027.372,1.457,1.457,0,0,1-2.027-.372Z" transform="translate(-1634.854 -557.867)" fill="#fcb200"/>
            <path id="Path_209" data-name="Path 209" d="M1658.13,553.741a1.457,1.457,0,1,1,.371-2.026,1.457,1.457,0,0,1-.371,2.026Z" transform="translate(-1644.679 -551.086)" fill="#fcb200"/>
          </g>
          <g id="Group_118" data-name="Group 118" transform="translate(16.79)">
            <path id="Path_210" data-name="Path 210" d="M1671.55,542.709a1.457,1.457,0,1,1,2.026.372,1.457,1.457,0,0,1-2.026-.372Z" transform="translate(-1671.293 -532.716)" fill="#fcb200"/>
            <path id="Path_211" data-name="Path 211" d="M1686.8,532.187a1.457,1.457,0,1,1,2.027.371,1.457,1.457,0,0,1-2.027-.371Z" transform="translate(-1680.989 -526.023)" fill="#fcb200"/>
            <path id="Path_212" data-name="Path 212" d="M1704.27,521.9a1.457,1.457,0,1,1,.371-2.026,1.457,1.457,0,0,1-.371,2.026Z" transform="translate(-1690.814 -519.242)" fill="#fcb200"/>
          </g>
        </g>
        <g id="Group_126" data-name="Group 126" transform="translate(33.593)">
          <g id="Group_122" data-name="Group 122" transform="translate(0 23.021)">
            <g id="Group_120" data-name="Group 120" transform="translate(0 11.588)">
              <path id="Path_213" data-name="Path 213" d="M1717.72,510.839a1.457,1.457,0,1,1,2.026.371A1.457,1.457,0,0,1,1717.72,510.839Z" transform="translate(-1717.467 -500.846)" fill="#fcb200"/>
              <path id="Path_214" data-name="Path 214" d="M1732.97,500.316a1.457,1.457,0,1,1,2.026.372,1.457,1.457,0,0,1-2.026-.372Z" transform="translate(-1727.164 -494.153)" fill="#fcb200"/>
              <path id="Path_215" data-name="Path 215" d="M1750.44,490.027a1.457,1.457,0,1,1,.372-2.026,1.457,1.457,0,0,1-.372,2.026Z" transform="translate(-1736.988 -487.372)" fill="#fcb200"/>
            </g>
            <g id="Group_121" data-name="Group 121" transform="translate(16.789)">
              <path id="Path_216" data-name="Path 216" d="M1763.86,479a1.457,1.457,0,1,1,2.026.372,1.457,1.457,0,0,1-2.026-.372Z" transform="translate(-1763.602 -469.002)" fill="#fcb200"/>
              <path id="Path_217" data-name="Path 217" d="M1779.1,468.473a1.457,1.457,0,1,1,2.026.371,1.457,1.457,0,0,1-2.026-.371Z" transform="translate(-1773.299 -462.309)" fill="#fcb200"/>
              <path id="Path_218" data-name="Path 218" d="M1796.58,458.184a1.457,1.457,0,1,1,.372-2.026,1.457,1.457,0,0,1-.372,2.026Z" transform="translate(-1783.124 -455.528)" fill="#fcb200"/>
            </g>
          </g>
          <g id="Group_125" data-name="Group 125" transform="translate(33.354)">
            <g id="Group_123" data-name="Group 123" transform="translate(0 11.588)">
              <path id="Path_219" data-name="Path 219" d="M1809.38,447.579a1.457,1.457,0,1,1,2.027.371,1.457,1.457,0,0,1-2.027-.371Z" transform="translate(-1809.119 -437.586)" fill="#fcb200"/>
              <path id="Path_220" data-name="Path 220" d="M1824.62,437.057a1.456,1.456,0,1,1,.936.606,1.457,1.457,0,0,1-.936-.606Z" transform="translate(-1818.815 -430.893)" fill="#fcb200"/>
              <path id="Path_221" data-name="Path 221" d="M1842.09,426.767a1.457,1.457,0,1,1,.371-2.026,1.457,1.457,0,0,1-.371,2.026Z" transform="translate(-1828.64 -424.112)" fill="#fcb200"/>
            </g>
            <g id="Group_124" data-name="Group 124" transform="translate(16.789)">
              <path id="Path_222" data-name="Path 222" d="M1855.51,415.736a1.457,1.457,0,1,1,2.026.371,1.457,1.457,0,0,1-2.026-.371Z" transform="translate(-1855.254 -405.742)" fill="#fcb200"/>
              <path id="Path_223" data-name="Path 223" d="M1870.76,405.213a1.457,1.457,0,1,1,2.026.372,1.457,1.457,0,0,1-2.026-.372Z" transform="translate(-1864.951 -399.049)" fill="#fcb200"/>
              <path id="Path_224" data-name="Path 224" d="M1888.23,394.924a1.457,1.457,0,1,1,.371-2.026,1.457,1.457,0,0,1-.371,2.026Z" transform="translate(-1874.775 -392.268)" fill="#fcb200"/>
            </g>
          </g>
        </g>
      </g>
      <g id="Group_131" data-name="Group 131" transform="translate(1647.382 387.601)">
        <path id="Path_225" data-name="Path 225" d="M2390.43,523.094a1.457,1.457,0,1,1-.044,2.06,1.457,1.457,0,0,1,.044-2.06Z" transform="translate(-2389.983 -522.69)" fill="#fcb200"/>
        <path id="Path_226" data-name="Path 226" d="M2403.25,536.469a1.457,1.457,0,1,1-.044,2.06,1.457,1.457,0,0,1,.044-2.06Z" transform="translate(-2398.134 -531.197)" fill="#fcb200"/>
        <path id="Path_227" data-name="Path 227" d="M2416.19,552.08a1.456,1.456,0,1,1,2.059.044A1.456,1.456,0,0,1,2416.19,552.08Z" transform="translate(-2406.393 -539.817)" fill="#fcb200"/>
        <g id="Group_128" data-name="Group 128" transform="translate(14.113 14.731)">
          <path id="Path_228" data-name="Path 228" d="M2429.21,563.572a1.457,1.457,0,1,1-.044,2.06,1.457,1.457,0,0,1,.044-2.06Z" transform="translate(-2428.764 -563.168)" fill="#fcb200"/>
          <path id="Path_229" data-name="Path 229" d="M2442.03,576.948a1.457,1.457,0,1,1-.044,2.06,1.457,1.457,0,0,1,.044-2.06Z" transform="translate(-2436.916 -571.675)" fill="#fcb200"/>
          <path id="Path_230" data-name="Path 230" d="M2454.97,592.558a1.456,1.456,0,1,1,1.021.449,1.457,1.457,0,0,1-1.021-.449Z" transform="translate(-2445.174 -580.295)" fill="#fcb200"/>
        </g>
        <g id="Group_130" data-name="Group 130" transform="translate(28.238 29.473)">
          <path id="Path_231" data-name="Path 231" d="M2468.03,604.084a1.457,1.457,0,1,1-.045,2.06A1.457,1.457,0,0,1,2468.03,604.084Z" transform="translate(-2467.579 -603.68)" fill="#fcb200"/>
          <path id="Path_232" data-name="Path 232" d="M2480.84,617.459a1.457,1.457,0,1,1-.044,2.06,1.457,1.457,0,0,1,.044-2.06Z" transform="translate(-2475.73 -612.187)" fill="#fcb200"/>
          <path id="Path_233" data-name="Path 233" d="M2493.78,633.071a1.457,1.457,0,1,1,2.059.044A1.457,1.457,0,0,1,2493.78,633.071Z" transform="translate(-2483.989 -620.807)" fill="#fcb200"/>
          <g id="Group_129" data-name="Group 129" transform="translate(14.113 14.731)">
            <path id="Path_234" data-name="Path 234" d="M2506.81,644.563a1.457,1.457,0,1,1-.044,2.06A1.457,1.457,0,0,1,2506.81,644.563Z" transform="translate(-2506.36 -644.158)" fill="#fcb200"/>
            <path id="Path_235" data-name="Path 235" d="M2519.62,657.938a1.457,1.457,0,1,1-.044,2.059A1.457,1.457,0,0,1,2519.62,657.938Z" transform="translate(-2514.512 -652.665)" fill="#fcb200"/>
            <path id="Path_236" data-name="Path 236" d="M2532.56,673.548a1.456,1.456,0,1,1,1.021.449,1.456,1.456,0,0,1-1.021-.449Z" transform="translate(-2522.77 -661.285)" fill="#fcb200"/>
          </g>
        </g>
      </g>
      <g id="Group_132" data-name="Group 132" transform="translate(1467.443 310.314)">
        <circle id="Ellipse_3" data-name="Ellipse 3" cx="20.616" cy="20.616" r="20.616" transform="matrix(0.16, -0.987, 0.987, 0.16, 0, 40.699)" fill="#fcb200"/>
      </g>
      <g id="Group_133" data-name="Group 133" transform="translate(1479.515 319.078)">
        <path id="Path_237" data-name="Path 237" d="M1942.34,341.013a6.617,6.617,0,1,1,6.617,6.617,6.617,6.617,0,0,1-6.617-6.617Z" transform="translate(-1937.378 -334.396)" fill="#fff"/>
        <path id="Path_238" data-name="Path 238" d="M1940.28,370.761a11.579,11.579,0,0,0-11.58,11.58h23.159a11.58,11.58,0,0,0-11.578-11.579Z" transform="translate(-1928.704 -357.527)" fill="#fff"/>
      </g>
      <g id="Group_134" data-name="Group 134" transform="translate(1598.167 334.564)">
        <circle id="Ellipse_4" data-name="Ellipse 4" cx="31.767" cy="31.767" r="31.767" transform="translate(0 62.953) rotate(-82.238)" fill="#fcb200"/>
      </g>
      <g id="Group_135" data-name="Group 135" transform="translate(1616.091 347.39)">
        <circle id="Ellipse_5" data-name="Ellipse 5" cx="10.196" cy="10.196" r="10.196" transform="translate(7.647 0)" fill="#fff"/>
        <path id="Path_239" data-name="Path 239" d="M2321.84,468.229a17.842,17.842,0,0,0-17.84,17.84l35.686,0A17.843,17.843,0,0,0,2321.84,468.229Z" transform="translate(-2304 -447.837)" fill="#fff"/>
      </g>
      <circle id="Ellipse_6" data-name="Ellipse 6" cx="21.447" cy="21.447" r="21.447" transform="translate(1689.616 474.844) rotate(-84.345)" fill="#fcb200"/>
      <g id="Group_136" data-name="Group 136" transform="translate(1703.672 445.544)">
        <path id="Path_240" data-name="Path 240" d="M2555.73,687.284a5.371,5.371,0,1,1,5.371,5.371A5.371,5.371,0,0,1,2555.73,687.284Z" transform="translate(-2551.705 -681.913)" fill="#fff"/>
        <path id="Path_241" data-name="Path 241" d="M2554.06,711.43a9.4,9.4,0,0,0-9.4,9.4h18.8a9.4,9.4,0,0,0-9.4-9.4Z" transform="translate(-2544.664 -700.688)" fill="#fff"/>
      </g>
    </g>
  </g>
</svg>
