<svg xmlns="http://www.w3.org/2000/svg" width="674.002" height="607.675" viewBox="0 0 674.002 607.675">
  <g id="work-together" transform="translate(-3511.479 -7775.526)">
    <g id="Group_42898" data-name="Group 42898" transform="translate(3511.479 8344.641)">
      <g id="Group_42897" data-name="Group 42897">
        <rect id="Rectangle_1612" data-name="Rectangle 1612" width="170.755" height="38.557" transform="translate(52.65 0.001)" fill="#017ba7"/>
        <rect id="Rectangle_1613" data-name="Rectangle 1613" width="170.754" height="38.56" fill="#008dbf"/>
      </g>
    </g>
    <g id="Group_42901" data-name="Group 42901" transform="translate(3762.854 8205.473)">
      <g id="Group_42900" data-name="Group 42900">
        <g id="Group_42899" data-name="Group 42899">
          <rect id="Rectangle_1614" data-name="Rectangle 1614" width="127.147" height="177.718" transform="translate(166.35 177.718) rotate(180)" fill="#df9f04"/>
          <rect id="Rectangle_1615" data-name="Rectangle 1615" width="127.146" height="177.718" transform="translate(127.146 177.718) rotate(180)" fill="#fcb200"/>
        </g>
      </g>
      <path id="Path_68271" data-name="Path 68271" d="M1692.82,1103.17l39.2,26.685V1103.17Z" transform="translate(-1565.677 -1103.168)" fill="#fcb200" opacity="0.52"/>
    </g>
    <g id="Group_42905" data-name="Group 42905" transform="translate(3728.192 7861.858)">
      <path id="Path_68281" data-name="Path 68281" d="M1812.88,497.052c-2.107-.32-8.457,5.551-8.457,5.551h0c-13.559,1.567-33.384,5.167-40.518,6.541-5.061.975-18.664-3.664-31.954-8.989-15.805-6.336-31.165-13.646-31.165-13.646-8.77-.447-18.73,15.554-.944,25.727,2.714,1.553,12.917,4.2,24.663,6.624h0c16.2,3.339,35.349,6.238,41.866,5.219,7.57-1.185,29-9.023,41.742-15.025h0l.033-.016.142-.067c.765-.358,3.885-1.747,5.967-1.624,2.388.142,7.706-4.228,7.868-5.395S1814.99,497.371,1812.88,497.052Z" transform="translate(-1558.249 -422.415)" fill="#ed975d"/>
      <path id="Path_68282" data-name="Path 68282" d="M1766.6,792.335l-7.655,1.555s-35.035-39.365-40.441-55.929c-2.893-8.852-21.389-12.677-40.719-17.675-16.824-4.35-34.28-9.591-42.616-19.817-17.918-21.971,11.253-48.967,11.253-48.967s31.017,18.434,57.774,37.478c18.7,13.309,35.326,26.915,37.83,34.735C1748.1,742.732,1761.01,778.878,1766.6,792.335Z" transform="translate(-1525.108 -512.624)" fill="#017ba7"/>
      <path id="Path_68283" data-name="Path 68283" d="M1898.53,964.429h4.307c1.442-.227,2.508-.644,3.987-.837a3.993,3.993,0,0,1,3.486.837.525.525,0,0,1,.04.044h18.294c.46-.657.019-2.179-.414-3.3a2.6,2.6,0,0,0-1.713-1.566c-1.94-.562-5.765-1.062-9.267-4.233-1.97-1.78-9.515-6.547-9.515-6.547l-.04-.009c-.166,0-.954.245-4.386,3.143-1.774,1.495-4.8-2.112-4.8-2.112a4.3,4.3,0,0,0-.991,1.345,4.542,4.542,0,0,0-.393,2.808c.273,1.648-.608,4.711-1.311,6.784-.426,1.255-.785,2.146-.785,2.146S1894.83,963.966,1898.53,964.429Z" transform="translate(-1667.289 -671.732)" fill="#df9f04"/>
      <path id="Path_68284" data-name="Path 68284" d="M1703.94,688.855l-26.322,31.2c-16.767-4.335-34.165-9.558-42.473-19.75-17.858-21.9,11.215-48.8,11.215-48.8S1677.27,669.875,1703.94,688.855Z" transform="translate(-1525.107 -512.624)" fill="#008dbf" opacity="0.34"/>
      <path id="Path_68285" data-name="Path 68285" d="M1638.65,682.963s-2.076,6.547-5.456,16.4c-4.274,12.455-10.64,30.189-17.546,46.636-1.517,3.614-3.062,7.167-4.615,10.587-5.742,12.656-11.621,23.505-16.8,29.018-9.3,9.911-31.908,73.63-31.908,73.63l-5.633-1.559s-7.854-54.409,19.969-85.37a1.968,1.968,0,0,0,.563-1.156.015.015,0,0,0,0-.012c.37-4.583,1.694-25.106,4.576-45.9.708-5.1,1.509-10.217,2.411-15.119.056-.314.116-.624.172-.933,4.233-22.664,8.286-32.745,13.517-37.815l38.466,10.95Z" transform="translate(-1484.83 -523.483)" fill="#017ba7"/>
      <path id="Path_68286" data-name="Path 68286" d="M1552.42,1084.72h4.2c1.407-.222,2.445-.629,3.888-.817a3.9,3.9,0,0,1,3.4.817c.026.027.039.042.039.042h17.839c.449-.641.018-2.125-.4-3.218a2.539,2.539,0,0,0-1.67-1.527c-1.891-.548-5.621-1.035-9.036-4.127-1.922-1.736-9.278-6.385-9.278-6.385l-.039-.009c-.162,0-.931.24-4.277,3.065-1.73,1.458-4.678-2.059-4.678-2.059a4.214,4.214,0,0,0-.967,1.312,4.439,4.439,0,0,0-.383,2.739c.267,1.607-.593,4.594-1.278,6.615-.416,1.224-.766,2.092-.766,2.092S1548.81,1084.26,1552.42,1084.72Z" transform="translate(-1481.188 -741.142)" fill="#df9f04"/>
      <path id="Path_68287" data-name="Path 68287" d="M1478.88,530.683s-6.436,15.745-13.857,31.072c-6.242,12.885-13.177,25.473-17.575,28.159-6.2,3.788-23.282,14.473-34.363,22.443,0,0-8.647-.066-9.99,1.59s-4.444,9.094-3.538,9.846,7.779.4,9.45-1.308c1.457-1.494,4.7-2.567,5.506-2.817l.15-.046.034-.01h0c13.465-4.142,34.586-12.772,40.98-16.994,5.5-3.634,17.708-18.666,27.443-32.045h0c7.057-9.7,12.816-18.526,13.778-21.5C1503.2,529.575,1485.06,524.449,1478.88,530.683Z" transform="translate(-1399.389 -445.2)" fill="#ffb27d"/>
      <path id="Path_68288" data-name="Path 68288" d="M1604.66,368.863a32.493,32.493,0,0,0-2.306-2.979,7.227,7.227,0,0,0,2.841-.427c2.259-.934,3.289-8.106,2.95-10.234s-3.476-8.279-7.347-8.892-7.869,3.684-7.869,3.684c.715-3.1,7.263-4.892,7.263-4.892-13.487,2.487-12.8,11.482-12.706,12.312-12.346-4.4-19.593,18.851-19.593,18.851l31.978,18.845s.084-5.135,3.136-4.8C1607.76,390.844,1611.72,379.16,1604.66,368.863Z" transform="translate(-1491.51 -345.124)" fill="#2b2b2b"/>
      <path id="Path_68289" data-name="Path 68289" d="M1625.37,474.262c-7.338,3.459-17.074-1.523-17.022-1.575.629-.629.408-2.513-.169-4.976a36.252,36.252,0,0,0-4.454-10.272c-.524-.892-1.048-1.782-1.678-2.726l.839-.314,14.256-5.713s2.306,4.14,4.717,7.914c2.044,3.145,4.193,5.975,5.136,5.871C1627.04,462.417,1636.48,468.916,1625.37,474.262Z" transform="translate(-1510.181 -401.742)" fill="#ffb27d"/>
      <path id="Path_68290" data-name="Path 68290" d="M1619.16,451.807c-.367,5.083-2.1,14.256-8.962,17.61a36.26,36.26,0,0,0-4.455-10.273Z" transform="translate(-1512.205 -403.448)" fill="#ed975d"/>
      <path id="Path_68291" data-name="Path 68291" d="M1584.83,437.514s18.56-7.316,13.826-18.8-5.526-20.169-17.576-15.984-12.532,9.511-11.884,13.73S1579.88,439.12,1584.83,437.514Z" transform="translate(-1492.123 -376.031)" fill="#ffb27d"/>
      <path id="Path_68292" data-name="Path 68292" d="M1588.99,414.646c8.569-1.21,11.071-4.673,11.071-4.673a23.738,23.738,0,0,1-12.531-9.994s-9.632-3.248-16.77,2.182a4.812,4.812,0,0,0-.9,2.013c-1.636-.536-4.1-.4-5.516,4.227-2.133,6.946,5.454,14.53,5.454,14.53,1.839-.52-.235-6.71-.525-10.014-.213-2.432,1.1-5.544,1.806-7.02.909,1.178,9.949,12.54,20.987,12.993a46.561,46.561,0,0,1-11.138-5.981A14.245,14.245,0,0,0,1588.99,414.646Z" transform="translate(-1489.365 -374.586)" fill="#2b2b2b"/>
      <path id="Path_68293" data-name="Path 68293" d="M1634.26,512.244c-.156-.554-.326-1.129-.5-1.719a43.544,43.544,0,0,0,4.684-14.035c1.258-8.491-.891-13.732-.891-13.732s-12.874-6.827-18.558-7.7a.318.318,0,0,0-.071-.021c-.067-.009-.144-.016-.228-.021-5.738-.791-18.161,1.745-18.161,1.745s2.4,6.38-4.365,10.632-13.981-1.089-13.981-1.089c-.217.146-.449.308-.687.476h0s-17.789,11.737-19.386,14.419-8.438,15.963-8.438,15.963,2.169,11.149,26.2,12.081a55.515,55.515,0,0,1,3.979,13.363c1.909,15.134-.307,27.073,1.917,35.906s42.32,3.8,49.58,2.1,5.627-9.453,6.187-16.985C1642.24,554.161,1636.62,520.593,1634.26,512.244Z" transform="translate(-1483.736 -416.055)" fill="#008dbf"/>
      <path id="Path_68294" data-name="Path 68294" d="M1726.14,518.4a43.55,43.55,0,0,1-4.717,14.1c-.629-2.777-3.2-12.945-7.337-17.558C1714.08,514.935,1721.05,515.565,1726.14,518.4Z" transform="translate(-1571.434 -437.961)" fill="#017ba7"/>
    </g>
    <g id="Group_42909" data-name="Group 42909" transform="translate(3515.582 7951.856)">
      <path id="Path_68295" data-name="Path 68295" d="M1380.43,725.8s7.345-8.9,8.925-9.952,8.519-2.9,8.916-2.525.414.909-.445,1.668-4.14,2.674-3.672,2.889,10.366-4.712,11.793-3.054-.808,8.5-4.622,11.778-15.2,4.678-15.915,5.136C1379.33,735.623,1380.43,725.8,1380.43,725.8Z" transform="translate(-1171.615 -640.966)" fill="#a16d3c"/>
      <path id="Path_68296" data-name="Path 68296" d="M1090.39,665.969s10.551,12.518,23.988,7.282c0,0,2.891-6.992,2.932-12.145,0-.634.012-1.249.022-1.834.072-5.8.267-9.06.267-9.06h-.014c-.611-.255-20.541-8.437-20.524-7.758C1097.41,658.148,1090.39,665.969,1090.39,665.969Z" transform="translate(-1010.89 -601.688)" fill="#a16d3c"/>
      <path id="Path_68297" data-name="Path 68297" d="M1109.83,650.717c1.922,3.562,8.516,10.531,18.27,13.077.072-5.8.267-9.06.267-9.06h-.014C1127.81,654.584,1109.26,649.667,1109.83,650.717Z" transform="translate(-1021.659 -606.21)" fill="#7d5026"/>
      <path id="Path_68298" data-name="Path 68298" d="M1124.89,612.62s-22.412,5.27-25.479-8.738-8.025-22.762,6.156-26.718,18.14.778,20.3,5.2S1130.65,610.889,1124.89,612.62Z" transform="translate(-1014.007 -564.698)" fill="#a16d3c"/>
      <path id="Path_68299" data-name="Path 68299" d="M1085.97,594.039c-.306.2-5.129,1.677-14.262-16.517a15.847,15.847,0,0,1,.932-14.494c3.342-5.46,15.192-9.752,25.037-11.62s12.209,3.672,14.528,9.24c2.433,5.844,9.462,10.656,9.462,10.656-8.49,4.743-18.715-2.04-22.258-.925s-4.794,6.7-5.06,8.489-.674,3.276-5.129,1.678-2.014,6.313-1.3,7.826C1087.92,588.372,1088.53,592.4,1085.97,594.039Z" transform="translate(-999.801 -551.039)" fill="#2b2b2b"/>
      <g id="Group_42906" data-name="Group 42906" transform="translate(0 172.073)">
        <path id="Path_68300" data-name="Path 68300" d="M940.45,1390.06H926.879c-2.844,0-6.006-2.886-6.8-8.172s-6.639-8.171-7.905-12.5,5.219-10.418,5.219-10.418l1.084-1.411,1.128-1.471,10.75,2.562s.265,2.594.431,5.9c.115,2.385.178,5.144.044,7.562-.316,5.77,1.595,11.981,6.651,13.1S940.45,1390.06,940.45,1390.06Z" transform="translate(-912.012 -1169.358)" fill="#fcb200"/>
        <path id="Path_68301" data-name="Path 68301" d="M1139.99,1407.52h-35.974a3.171,3.171,0,0,1-.764-.228c-2.4-1.238-1.65-10.706-1.361-13.631.056-.542.094-.859.094-.859s12.65-10.417,14.391-2.441c.055.249.118.494.185.734h0c2.2,7.463,12.013,10.852,17.682,11.8C1138.57,1403.63,1139.7,1406.22,1139.99,1407.52Z" transform="translate(-1017.072 -1186.688)" fill="#fcb200"/>
        <path id="Path_68302" data-name="Path 68302" d="M1104.77,961.722s-1.921,23.969-4.179,52.78c-3.069,39.139-6.76,87.214-7.124,96.322-.631,15.815-3.164,41.112-3.164,41.112s-6.005,6.01-18.025,3.477c0,0-10.711-36.113-13.77-74.321q-.072-.94-.143-1.888c-2.845-38.9-7.271-120.8-7.271-120.8Z" transform="translate(-989.105 -948.915)" fill="#2b2b2b"/>
        <path id="Path_68303" data-name="Path 68303" d="M1104.77,961.722s-1.921,23.969-4.179,52.78l-42.084,66.59q-.072-.94-.143-1.888c-2.845-38.9-7.271-120.8-7.271-120.8Z" transform="translate(-989.105 -948.915)" fill="#242424"/>
        <path id="Path_68304" data-name="Path 68304" d="M1025.6,952.77s-34.628,86.806-57.4,127.6-29.883,52.179-29.883,52.179-13.045-5.218-14.231-8.776c0,0,8.707-78.755,23.955-97.953,8.616-10.848,18.737-43.4,19.211-54.787s3.084-33.916,3.084-33.916Z" transform="translate(-918.704 -937.117)" fill="#2b2b2b"/>
      </g>
      <g id="Group_42907" data-name="Group 42907" transform="translate(10.642 65.669)">
        <path id="Path_68305" data-name="Path 68305" d="M952.857,934.476s-.9,10.841-1.554,12.505-5.035,6.825-5.542,6.751-.81-.48-.553-1.531,1.766-4.3,1.288-4.212-5.489,9.224-7.484,8.71-3.948-7.013-2.76-11.6,9.247-11.8,9.555-12.538C948.417,926.286,952.857,934.476,952.857,934.476Z" transform="translate(-935.89 -826.875)" fill="#a16d3c"/>
        <path id="Path_68306" data-name="Path 68306" d="M959.692,808.73c3.833,1.23,4.447.952,4.447.952s18.654-33.963,20.544-37.072,39.608-38.086,39.608-38.086l-9.693-36.145s-42.9,55.552-47.532,63.524c-7.655,13.173-12.141,43.766-12.141,43.766a11.215,11.215,0,0,0,4.767,3.061Z" transform="translate(-946.441 -698.379)" fill="#df9f04"/>
      </g>
      <path id="Path_68307" data-name="Path 68307" d="M1095.72,738.663c-.135,7.424-.565,15.767-1.147,24.243q-.054.754-.107,1.508c-.372,5.25-.775,10.513-1.239,15.644q-.279,3.087-.589,6.089l-.032.27c-.016.748-.107,1.559-.19,2.3-1.891,19.221-3.874,34.407-4.242,34.64a2.159,2.159,0,0,1-1.476.376c-5.041-.633-20.08.51-32.393-2.169-10.391-2.192-19.337-6.346-28.817-11.949-1.259-.743-4.127-2.714-3.893-4.186.23-1.618.653-3.957,1.191-6.9a373.249,373.249,0,0,0,6.192-48.394q.32-5.752.93-11.344a172.23,172.23,0,0,1,5.021-27.092c4.222-15.2,10.425-26.842,18.209-31.4,1.017-.57,6.488,2.912,11.514,6.136a22.184,22.184,0,0,0,14.279,3.383l4.182,4.625c5.064,5.888,10.457,13.726,11.929,24.867q.167,1.235.285,2.627A163.351,163.351,0,0,1,1095.72,738.663Z" transform="translate(-972.75 -622.659)" fill="#fcb200"/>
      <path id="Path_68308" data-name="Path 68308" d="M1145.04,779.911c-.135,7.424-.566,15.767-1.147,24.243q-.054.754-.107,1.508c-28.792-18.023-33.229-51-33.229-51,14.165.622,25.418,3.878,34.091,8.535A163.431,163.431,0,0,1,1145.04,779.911Z" transform="translate(-1022.068 -663.907)" fill="#df9f04"/>
      <g id="Group_42908" data-name="Group 42908" transform="translate(85.927 73.077)">
        <path id="Path_68309" data-name="Path 68309" d="M1232.06,727.648c-1.484-4.015-3.792-3.754-3.792-3.754s-42.809,10.669-46.651,11.126-46.1-16.5-46.1-16.5-16.633-7.464-24.425-.649c-6.77,5.923-7.079,13.426-5.494,19.727a18.838,18.838,0,0,0,15.922,14.034c17.24,2.2,51.637,6.329,58.847,5.326,16.046-2.234,52.4-23.222,52.4-23.222a13.472,13.472,0,0,0-.707-6.088Z" transform="translate(-1104.806 -715.001)" fill="#fcb200"/>
      </g>
    </g>
    <g id="man" transform="translate(3954.815 7775.523)">
      <g id="Group_42910" data-name="Group 42910" transform="translate(110.528 163.362)">
        <path id="Path_68310" data-name="Path 68310" d="M2312.05,916.353s6.332,5.868,5.1,10.038-6.949,6.949-7.721,12.046-3.861,7.876-6.64,7.876h-13.253s-2.046-3.586,2.9-4.667,6.8-7.069,6.5-12.629a99.456,99.456,0,0,1,.463-12.972l10.5-2.471Z" transform="translate(-2197.171 -730.714)" fill="#fcb200"/>
        <path id="Path_68311" data-name="Path 68311" d="M2131.3,960.166c-.642.323-2.9.545-6,.694h-29.969c.1-.892.8-4.069,5.7-4.859,5.537-.9,15.127-4.118,17.265-11.2.072-.226.133-.46.185-.694,1.7-7.566,14.051,2.315,14.051,2.315s.036.3.089.818C2132.92,950.022,2133.64,959,2131.3,960.166Z" transform="translate(-2095.335 -745.261)" fill="#fcb200"/>
        <path id="Path_68312" data-name="Path 68312" d="M2110.44,550.948s1.877,23.41,4.082,51.551c3,38.226,6.6,85.181,6.959,94.076.616,15.446,3.09,40.153,3.09,40.153s5.865,5.87,17.6,3.4c0,0,10.461-35.27,13.449-72.588q.071-.918.139-1.844c2.78-37.99,7.1-117.986,7.1-117.986Z" transform="translate(-2103.273 -538.439)" fill="#008dbf"/>
        <path id="Path_68313" data-name="Path 68313" d="M2110.44,550.948s1.877,23.41,4.082,51.551l41.1,65.037q.071-.918.139-1.844c2.78-37.99,7.1-117.986,7.1-117.986Z" transform="translate(-2103.273 -538.439)" fill="#1a1a1a" opacity="0.43"/>
        <path id="Path_68314" data-name="Path 68314" d="M2128.5,543.465s33.819,84.782,56.058,124.625,29.188,50.963,29.188,50.963,12.741-5.1,13.9-8.571c0,0-8.5-76.919-23.4-95.669-8.415-10.6-18.3-42.391-18.763-53.511s-3.012-33.125-3.012-33.125Z" transform="translate(-2112.764 -528.176)" fill="#008dbf"/>
      </g>
      <g id="Group_42911" data-name="Group 42911" transform="translate(0 65.059)">
        <path id="Path_68315" data-name="Path 68315" d="M1884.33,461.274s-9.174-2.1-10.718-1.992-6.945,2.365-7.017,2.8.184.794,1.116.857,4.005-.332,3.811.04-9.042,2.111-9.14,3.892,4.75,5.09,8.845,5.312,12.148-4.536,12.839-4.6C1889.92,467.078,1884.33,461.274,1884.33,461.274Z" transform="translate(-1862.384 -393.665)" fill="#ffb27d"/>
        <path id="Path_68316" data-name="Path 68316" d="M1899.21,390.93c-1.315-4.191-1.008-4.858-1.008-4.858s37.186-20.107,40.591-22.146,41.833-42.934,41.833-42.934l39.362,10.834s-60.912,46.4-69.641,51.4c-14.426,8.257-47.833,12.93-47.833,12.93a12.229,12.229,0,0,1-3.3-5.226Z" transform="translate(-1881.193 -320.991)" fill="#211f1f"/>
      </g>
      <path id="Path_68317" data-name="Path 68317" d="M2061.66,258.817s-13.8,24.28-27.287,27.449c0,0,.562-8.154,3.845-13.734-1.345-1.586-2.525-3.043-3.548-4.348a81.466,81.466,0,0,1-5.01-7.014l4.578-12.307,3.106-8.349a40.124,40.124,0,0,0,4.853,6.993C2051.03,257.67,2061.66,258.817,2061.66,258.817Z" transform="translate(-1950.29 -213.639)" fill="#ffb27d"/>
      <path id="Path_68318" data-name="Path 68318" d="M2042.19,255.249s1.646,12.167-7.528,20.676a81.464,81.464,0,0,1-5.01-7.014l4.578-12.307a26.147,26.147,0,0,1,7.96-1.355Z" transform="translate(-1950.29 -221.381)" fill="#ed975d"/>
      <path id="Path_68319" data-name="Path 68319" d="M2002.67,243.783s20.618-8.038,15.414-20.8-6.046-22.4-19.43-17.8-13.94,10.5-13.24,15.181S1997.17,245.545,2002.67,243.783Z" transform="translate(-1926.938 -194.458)" fill="#ffb27d"/>
      <path id="Path_68320" data-name="Path 68320" d="M2136.23,399.929c-8.32,11.958-70.5,27.935-69.765,19.657a89.908,89.908,0,0,0-.009-16.326q-.233-2.66-.661-5.64c-1.58-10.875-5.333-24.86-13.7-41.046-.628-1.214-1.281-2.435-1.959-3.673a126.53,126.53,0,0,1-8.622-19.372c-4.309-12.451-6.044-24.363-3.871-32.151a1.083,1.083,0,0,1,.034-.11c13-6.011,18.036-29.321,18.036-29.321s44.347,7.961,69.188,67.074C2124.9,339.022,2143.47,389.521,2136.23,399.929Z" transform="translate(-1953.996 -230.159)" fill="#2b2b2b"/>
      <path id="Path_68321" data-name="Path 68321" d="M2083.5,458.733q-.234-2.66-.661-5.64c-1.58-10.875-5.333-24.86-13.7-41.046,1.436-8.711,3.42-15.955,5.6-19.216,8.845-13.256,14-15.328,14-15.328S2102,433.439,2083.5,458.733Z" transform="translate(-1971.041 -285.631)" fill="#211f1f"/>
      <g id="Group_42912" data-name="Group 42912" transform="translate(16.982 53.411)">
        <path id="Path_68322" data-name="Path 68322" d="M1923.75,520.655s-12.267.644-14.169,1.329-7.876,5.452-7.809,6.027.515.93,1.709.677,4.91-1.848,4.8-1.311-10.6,5.883-10.086,8.153,7.783,4.694,13.005,3.509,13.632-10.037,14.478-10.36C1932.85,525.945,1923.75,520.655,1923.75,520.655Z" transform="translate(-1898.176 -414.273)" fill="#ffb27d"/>
        <path id="Path_68323" data-name="Path 68323" d="M1945.76,407.477c-2.458-3.97-.686-5.782-.686-5.782s37.9-29.672,40.868-32.67,16.731-50.729,16.731-50.729,4.736-19.318,15.827-21.448c9.637-1.851,16.3,2.917,20.657,8.507a20.553,20.553,0,0,1,1.393,23.113c-9.677,16.3-29.2,48.67-34.9,54.2-12.686,12.306-55.132,29.5-55.132,29.5a14.7,14.7,0,0,1-4.758-4.691Z" transform="translate(-1922.497 -296.443)" fill="#2b2b2b"/>
      </g>
      <path id="Path_68324" data-name="Path 68324" d="M2012.53,188.689c.144-.285.564-.59,1.588-.9a4.286,4.286,0,0,0-2.076-.077c-.578-1.413-1.986-3.818-4.625-3.837a3.253,3.253,0,0,1,2.073,1.909c-3.617-2.292-10.32-2.958-27.055,2.616-22.055,7.346-11.036,20.149-7.694,21.176s9.5-5.561,15.031-6.461,8.529,6.811,10.639,7.45.911-1.115,3.12-2.872,3.479,2.377,3.43,5.279,4.261,5.655,4.261,5.655l2.527-4.635c2.527-4.635,1.84-21.461-.575-24.49C2012.96,189.233,2012.75,188.961,2012.53,188.689Z" transform="translate(-1918.426 -183.872)" fill="#2b2b2b"/>
    </g>
    <path id="Path_68325" data-name="Path 68325" d="M1254.09,1431.28v22.244l-52.652-22.244Z" transform="translate(2480.792 6912.924)" fill="#0181af"/>
    <rect id="Rectangle_1617" data-name="Rectangle 1617" width="174.126" height="228.708" transform="translate(4011.353 8154.482)" fill="#9905b4"/>
    <rect id="Rectangle_1618" data-name="Rectangle 1618" width="174.129" height="228.708" transform="translate(3957.661 8154.483)" fill="#af0ecc"/>
    <path id="Path_68326" data-name="Path 68326" d="M2318.36,982.575v34.2l-53.688-34.2Z" transform="translate(1867.12 7171.908)" fill="#af0ecc" opacity="0.5"/>
  </g>
</svg>
