<svg xmlns="http://www.w3.org/2000/svg" width="22.739" height="16.062" viewBox="0 0 22.739 16.062">
  <path id="youtube-icon" d="M-1653.286,1671.294c2.334.092,4.669.175,7,.281a12.4,12.4,0,0,1,1.644.2,2.887,2.887,0,0,1,2.411,2.534,27.619,27.619,0,0,1,.346,5.791c-.045,1.355-.175,2.708-.306,4.058a3.032,3.032,0,0,1-1.362,2.392,3.811,3.811,0,0,1-1.732.507,63.65,63.65,0,0,1-7.048.294c-2.383-.012-4.767-.084-7.149-.161a20.216,20.216,0,0,1-2.283-.235,2.863,2.863,0,0,1-2.45-2.434,24.351,24.351,0,0,1-.37-4.074,34.727,34.727,0,0,1,.23-5.373,9.753,9.753,0,0,1,.219-1.192,2.909,2.909,0,0,1,2.569-2.167,61.647,61.647,0,0,1,6.689-.342c.529-.009,1.058-.074,1.587-.074C-1653.288,1671.27-1653.287,1671.318-1653.286,1671.294Zm-2.193,4.644v6.839l5.9-3.42Z" transform="translate(1664.599 -1671.287)" fill="#fff"/>
</svg>
