<svg xmlns="http://www.w3.org/2000/svg" width="18" height="19.8" viewBox="0 0 18 19.8">
  <path id="calender-icon" d="M17.3,2.8H15.5V1.9a.9.9,0,1,0-1.8,0v.9H8.3V1.9a.9.9,0,1,0-1.8,0v.9H4.7A2.7,2.7,0,0,0,2,5.5V18.1a2.7,2.7,0,0,0,2.7,2.7H17.3A2.7,2.7,0,0,0,20,18.1V5.5A2.7,2.7,0,0,0,17.3,2.8ZM4.7,4.6H6.5v.9a.9.9,0,1,0,1.8,0V4.6h5.4v.9a.9.9,0,1,0,1.8,0V4.6h1.8a.9.9,0,0,1,.9.9V8.2H3.8V5.5A.9.9,0,0,1,4.7,4.6ZM17.3,19H4.7a.9.9,0,0,1-.9-.9V10H18.2v8.1A.9.9,0,0,1,17.3,19Z" transform="translate(-2 -1)" fill="#b3b3b3"/>
</svg>
