<svg xmlns="http://www.w3.org/2000/svg" xmlns:xlink="http://www.w3.org/1999/xlink" width="380" height="140" viewBox="0 0 380 140">
  <defs>
    <clipPath id="clip-path">
      <rect id="Rectangle_1639" data-name="Rectangle 1639" width="380" height="140" rx="10" transform="translate(1505 135)" fill="#008dbf"/>
    </clipPath>
  </defs>
  <g id="credit-bg" transform="translate(-1505 -135)" clip-path="url(#clip-path)">
    <g id="Group_5" data-name="Group 5" transform="translate(1443.06 58.273)" opacity="0.05">
      <path id="Path_1" data-name="Path 1" d="M2,1193.264V1068.986c1.917-.044,3.835-.056,5.751-.137,10.971-.467,21.945-1.429,32.91-1.327,21.171.2,42.34.918,63.5,1.595a34.5,34.5,0,0,0,15.244-2.711c5-2.189,10-4.368,14.936-6.7,12.517-5.906,25.693-8.771,39.4-9.677,7.1-.47,14.176-1.543,21.239-2.519s14.066-2.46,21.147-3.191a38.916,38.916,0,0,1,23.353,4.545c6.455,3.59,11.016,8.852,12.9,16.3,3.2,12.677-3.8,23.716-16.354,25.488a57.511,57.511,0,0,1-10.486.266c-5.2-.227-10.382-1.035-15.577-1.1-11.765-.14-19.438,5.53-23.386,16.951a45.478,45.478,0,0,0-1.423,24.087c3.881,19.527,14.668,33.9,31.882,42.731,23.207,11.905,47.219,12.921,71.361,3.17,22.415-9.054,38.675-25.425,50.446-46.733,8.154-14.76,12.462-30.826,15.2-47.446,1.074-6.518,2.509-12.982,4.021-19.41a22.846,22.846,0,0,1,4.84-9.506,13.1,13.1,0,0,1,13.428-4.708c1.108.22,2.193.572,3.281.888a160.518,160.518,0,0,1,42.8,20.02c4.686,3.05,9.35,6.141,14.122,9.043a100.053,100.053,0,0,0,49.335,14.774,160.232,160.232,0,0,0,33.11-2.743c14.059-2.451,28.055-5.341,42.3-6.425a19.237,19.237,0,0,0,12.774-5.763,61.35,61.35,0,0,0,7.663-9.281c3.439-5.318,6.524-10.892,9.539-16.482,3.951-7.322,7.56-14.839,11.542-22.143,11.151-20.453,25.494-38.115,43.877-52.152a149.3,149.3,0,0,1,66.984-28.823,44.9,44.9,0,0,1,11.465-.24c3.174.3,3.967,2.354,2.442,5.267a21.607,21.607,0,0,1-3.165,4.51c-2.479,2.71-5.028,5.37-7.726,7.846-5.236,4.8-10.587,9.476-15.9,14.186-10.213,9.047-20.281,18.246-28.989,28.886-7.7,9.413-14.2,19.576-18.38,31.181a61.233,61.233,0,0,0-3.372,30.512c2.357,15.252,9.972,27.4,21.866,36.508,20.315,15.564,42.952,18.819,67.015,11.711,18.336-5.417,32.866-16.814,44.829-31.864,8.223-10.345,14.411-21.96,20.1-33.893,3.137-6.579,6.106-13.26,9.6-19.634a127.14,127.14,0,0,1,9.123-13.826,22.732,22.732,0,0,1,8.99-7.293c13.676-6.186,27.311-12.478,41.108-18.367a102.541,102.541,0,0,1,35.924-8.382c16.82-.742,32.4,3.08,46.211,13.239a166.352,166.352,0,0,1,13.53,11.1c11.937,10.894,23.654,22.041,35.589,32.936,5.659,5.165,11.618,9.984,17.44,14.96v57.251a33.166,33.166,0,0,1-3.664-.383,46.3,46.3,0,0,1-21.757-10.894c-5.25-4.755-10.15-9.951-14.931-15.215-5.793-6.378-11.229-13.1-16.945-19.548a112.268,112.268,0,0,0-17.294-16.2c-12.569-9.255-26.626-13.062-41.973-12.14a106.244,106.244,0,0,0-25.628,5.021c-13.249,4.179-25.713,10.3-38.311,16.12a63.211,63.211,0,0,0-19.366,13.891c-2.619,2.738-5.208,5.508-7.792,8.281-4.621,4.958-9.165,9.994-13.854,14.883a132.609,132.609,0,0,1-37.67,27.66c-15.047,7.353-30.856,11.524-47.559,11.253-24.455-.4-46.076-8.933-64.809-25.018-5.379-4.619-10.316-9.78-15.477-14.67-2.246-2.129-4.446-4.328-6.837-6.273-5.991-4.873-9.874-4.651-15.083,1-2.563,2.778-4.766,5.906-7.153,8.857-3.472,4.292-6.823,8.7-10.479,12.819a22.794,22.794,0,0,1-18.8,8.026c-8.6-.359-17.2-.735-25.806-.826-11.885-.125-23.776-.152-35.658.076-12.219.235-24.414,1.4-36.658.356-18.284-1.555-35.031-7.3-49.47-19.118-5.564-4.554-10.674-9.708-15.855-14.737-4.113-3.993-7.918-8.322-12.042-12.3a56.6,56.6,0,0,0-18.939-12.056c-4.807-1.872-8.477-.776-11.072,3.74a36.721,36.721,0,0,0-3.512,8.639c-1.784,6.6-3.152,13.325-4.835,19.959-6.266,24.7-17.348,46.754-35.34,64.568-27.711,27.437-60.456,38.239-98.483,29.6-18.617-4.229-34.706-13.246-47.327-28.253a118.318,118.318,0,0,1-17.889-29.918c-2.509-5.853-4.79-11.817-7.486-17.576a47.731,47.731,0,0,0-5.569-9.112,12.372,12.372,0,0,0-12.153-4.7,45.169,45.169,0,0,0-8.52,2.23c-3.519,1.269-6.924,2.877-10.362,4.378a38.853,38.853,0,0,1-16.2,3.256q-14.947-.154-29.9.127c-12.8.23-25.592.752-38.172,3.526-5.564,1.227-10.957,2.967-15.713,6.328-6.482,4.582-8.9,10.917-7.2,18.814a39.624,39.624,0,0,0,4.9,11.828A87.869,87.869,0,0,0,30.6,1170.325c5.865,5.815,11.985,11.359,17.919,17.1a75.8,75.8,0,0,1,7.056,7.529c3.249,4.142,2.053,6.768-3.125,7.429a8.406,8.406,0,0,1-1.354.111c-4.18-.153-8.389-.052-12.532-.54a156.6,156.6,0,0,1-32.975-7.974A25.917,25.917,0,0,0,2,1193.264Z" transform="translate(-2 -618.654)" fill="#fff"/>
      <path id="Path_2" data-name="Path 2" d="M2,965.133V940.7c1.806.053,3.612.173,5.417.149,22.533-.293,45.065-.8,67.6-.836,11.652-.019,23.329.459,34.951,1.323a93.057,93.057,0,0,0,26.634-1.738,144.591,144.591,0,0,1,32.363-3.292c14.267.2,28.541.045,42.8.42a143.247,143.247,0,0,1,19.558,2.018,53.707,53.707,0,0,1,12.329,3.74c18.1,7.8,28.151,21.878,30.447,41.889,1.89,16.464-5.536,31.87-19.647,39.821a66.347,66.347,0,0,1-12.223,5.108c-4.631,1.493-9.493,2.219-14.153,3.632a46.02,46.02,0,0,0-10.354,4.186c-5.114,3.067-6.88,8.109-6.026,14.074.788,5.5,3.476,10.023,7.119,14a41.272,41.272,0,0,0,14.876,10.174c21.305,8.851,42.132,7.2,62.206-3.831,18.6-10.222,31.2-26.181,39.747-45.733,5.379-12.3,8.125-25.346,10.222-38.572,1.164-7.341,2.327-14.688,4.793-21.725a33.1,33.1,0,0,1,7.224-12.494c4.32-4.437,9.463-6.178,15.5-4.89,1.107.236,2.22.447,3.325.69,14.1,3.1,27.553,8.288,41.108,13.179,12.484,4.5,24.917,9.225,37.594,13.085a106.578,106.578,0,0,0,42.677,3.9,141.841,141.841,0,0,0,31.05-7.218c8.8-3.023,17.471-6.459,26.335-9.255a38.563,38.563,0,0,0,16.135-9.911c1.935-1.958,3.842-3.954,5.646-6.039,8.65-10,17.085-20.2,25.923-30.018,15.126-16.8,31.729-31.859,50.78-43.912,14.235-9.006,29.424-15.927,45.082-21.779,21.491-8.031,42.769-16.532,63.254-27.066a144.374,144.374,0,0,1,29.586-11.169c6.045-1.58,12.157-2.952,18.447-2.179,7.721.948,9.871,4.767,6.647,12.017-1.641,3.688-3.835,7.113-5.713,10.695-2.628,5.012-5.444,9.944-7.69,15.134a31.266,31.266,0,0,0-2.352,9.741c-.585,7.233,2.608,11.072,9.582,12.337,5.04.914,9.982.07,14.765-1.351q10.428-3.1,20.662-6.876c14.63-5.395,29.389-10.185,44.935-11.913,10.3-1.144,20.559-1.264,30.787.7,12.746,2.447,24,8.3,34.233,16.235,16.092,12.475,32,25.2,46.631,39.5q6.646,6.5,13.37,12.905c1.641,1.556,3.443,2.933,5.172,4.392v28.626c-4.2-3.7-8.569-7.214-12.567-11.131q-21.893-21.443-45.072-41.4c-3.559-3.049-7.3-5.9-11.139-8.57a65.3,65.3,0,0,0-25.288-10.621,96.8,96.8,0,0,0-32.121-.5c-11.985,1.707-23.353,5.571-34.41,10.464-10.6,4.692-21.079,9.7-31.746,14.228a33.479,33.479,0,0,0-14.7,11.926,71.577,71.577,0,0,0-8.356,16.325c-2.615,7.061-5.058,14.191-7.541,21.3-4.251,12.18-9.092,24.067-16.167,34.863-9.788,14.936-22.284,26.652-38.741,33.276-20.778,8.362-41.248,7.643-60.813-3.874-13.061-7.689-21.858-19.029-25.261-34.32-2.613-11.741-.916-23.124,3.364-34.17,4.628-11.945,11.762-22.234,20.179-31.634,11.245-12.558,24.051-23.3,37.432-33.3,11.442-8.551,23.211-16.638,34.753-25.05,4.24-3.089,8.357-6.384,12.3-9.858a20.637,20.637,0,0,0,4.354-5.723c1.9-3.561.455-6.05-3.448-5.98a31.818,31.818,0,0,0-7.7,1.092c-6.672,1.811-13.292,3.826-19.913,5.83-14.647,4.434-29.383,8.589-43.9,13.439a171.186,171.186,0,0,0-72.869,46.97,230.97,230.97,0,0,0-25.728,34.178c-4.835,7.729-9.521,15.565-14.6,23.125a107.385,107.385,0,0,1-9.69,12.094,22.388,22.388,0,0,1-13.708,7.036c-4.361.658-8.69,1.579-13,2.524-12.827,2.81-25.48,6.424-38.515,8.273a111.262,111.262,0,0,1-47.066-2.943c-10.871-3.137-20.874-8.286-30.764-13.719-12.292-6.753-24.847-12.927-38.1-17.428a171.915,171.915,0,0,0-17.333-4.78c-3.967-.9-7.594.569-10.708,3.226a19.489,19.489,0,0,0-6.027,8.727,136.866,136.866,0,0,0-4.039,14.721c-1.8,8.63-2.894,17.423-4.9,26-5.347,22.832-15.756,42.846-33.07,58.49-21.986,19.865-47.417,27.407-76.277,20.856-12.6-2.86-24.038-8.337-32.989-18.243-8.588-9.506-13.46-20.577-12.687-33.836.7-12.052,7.8-19.906,19.484-21.245,3.924-.449,7.908-.328,11.861-.525,4.63-.231,9.3-.183,13.874-.858,12.362-1.826,21.088-9.908,23.329-21.644a34.173,34.173,0,0,0-7.291-29.03c-5.409-6.687-12.592-10.488-20.64-12.708-10.142-2.8-20.4-2.183-30.695-1.141-8.893.9-17.79,1.825-26.706,2.388-14.444.911-28.507,3.458-42,9a142.632,142.632,0,0,1-14.39,5.237,37.063,37.063,0,0,1-10.672,1.593c-9.619-.139-19.229-.8-28.847-1.135A776.983,776.983,0,0,0,2,965.133Zm715.773,52.453a53.3,53.3,0,0,0,21.562-4.605c17.285-7.569,28.779-20.913,35.92-38.485,4.449-10.947,6.323-22.5,7.49-34.223,1.3-13.065,2.688-26.12,3.961-39.188a129.154,129.154,0,0,0,.888-13.546c-.043-5.206-2.353-7.662-7.328-8.352a31.123,31.123,0,0,0-6.756-.165c-9.138.746-17.726,3.641-26.014,7.5-16.333,7.6-30.729,18.226-44.233,30.205a123.374,123.374,0,0,0-21.274,23.851,69.651,69.651,0,0,0-10.244,23.015c-4.8,20.86,4.193,39.984,23.093,49.02A51.462,51.462,0,0,0,717.773,1017.586Z" transform="translate(-2 -528.066)" fill="#fff"/>
      <path id="Path_3" data-name="Path 3" d="M1021.356,1737.466V1761.9c-2.82.81-5.612,1.744-8.463,2.408-20.22,4.7-40.551,5.745-61.014,1.785-12.065-2.335-23.608-6.451-35.109-10.75q-8.771-3.278-17.712-6.072a36.622,36.622,0,0,0-30.206,3.279c-4.452,2.532-9.054,4.811-13.69,6.973-17.9,8.345-36.683,10.21-55.822,6.718-21.723-3.963-43.353-8.5-64.942-13.186a165.432,165.432,0,0,0-49.267-3.56,461.662,461.662,0,0,1-67.2.281c-26.907-1.66-53.828-2.7-80.793-2.695a261.248,261.248,0,0,0-67.157,9.128c-10.627,2.818-21.074,6.346-31.641,9.411-15.928,4.62-32.045,5.917-48.385,2.522-4.438-.922-8.9-1.732-13.33-2.679-6.867-1.467-13.85-2.554-20.554-4.6-20.781-6.343-42.076-8.9-63.611-10.148q-15.931-.926-31.82-2.575c-14.874-1.57-29.738-3.028-44.713-2.932-8.266.053-16.545.218-24.8-.161-20.015-.919-40.038-1.839-60.019-3.308-16.363-1.2-32.669-3.224-49-4.833-10.141-1-20.28-2.049-30.438-2.823-16.745-1.276-33.179,1.809-49.664,4.078v-31.418c.669.116,1.347.2,2.006.355,13.439,3.235,26.884,6.439,40.309,9.731a468.74,468.74,0,0,0,83.155,12.756c21.156,1.295,42.334.767,63.51.641,14.262-.085,28.537.063,42.788.617a277.241,277.241,0,0,0,53.169-2.834c12.648-1.95,25.243-4.268,37.886-6.253,12.512-1.964,25.063-2.263,37.5.515,7.406,1.655,14.715,3.773,22.061,5.713,11.635,3.073,23.424,4.3,35.354,2.565,9.072-1.316,18.138-2.793,27.116-4.661,16.9-3.516,33.887-6.085,51.146-6.669,19.71-.667,39.4-.231,59.094.617,20.146.868,40.213,2.685,60.272,4.763,13.285,1.376,26.617,2.526,39.955,3.045,12.89.5,25.819-.167,38.722.119a201.4,201.4,0,0,1,26.731,1.9c14.2,2.229,28.266,5.337,42.374,8.155,10.109,2.019,20.141,4.5,30.3,6.186,13.357,2.218,31.246-2.133,40.818-19.48,1.9-3.44,3.683-6.95,5.658-10.342,2.73-4.687,5.443-9.4,8.44-13.9a33.413,33.413,0,0,1,10.281-10.021c6.348-3.923,13.045-4.664,19.835-1.6a53.376,53.376,0,0,1,9.639,5.787c4.407,3.258,8.562,6.876,12.8,10.374a197.549,197.549,0,0,0,23.346,16.81c24.33,14.734,50.415,21.656,78.7,18.548C1010.461,1739.571,1015.895,1738.384,1021.356,1737.466Z" transform="translate(-2 -1098.622)" fill="#fff"/>
      <path id="Path_4" data-name="Path 4" d="M1021.356,1574v27.927c-1.23.139-2.473.2-3.688.426-12.88,2.372-25.823,3.465-38.866,1.78-22.289-2.879-41.743-12.018-57.7-28.391-4.79-4.916-8.868-10.556-13.39-15.757-3.763-4.329-7.507-8.709-11.614-12.678a29.393,29.393,0,0,0-14.007-7.492c-8.491-1.957-16.405-.126-23.94,3.964a55.9,55.9,0,0,0-20.283,19.194c-3.439,5.311-6.331,11-9.409,16.553-2.463,4.444-4.578,9.115-7.3,13.383-7.885,12.374-19.218,17.3-33.316,15-12.625-2.067-25.187-4.557-37.754-6.981s-25.132-4.964-37.954-5.487c-11.2-.456-22.4-.937-33.6-1.01-17.12-.112-34.153-1.395-51.167-3.177-14.525-1.522-29.03-3.314-43.584-4.46q-37.426-2.945-74.978-3.368a240.606,240.606,0,0,0-39.288,2.388c-9.962,1.52-19.9,3.231-29.874,4.641-14.334,2.027-28.467,1.115-42.255-3.688q-9.645-3.36-19.283-6.742a69.1,69.1,0,0,0-41.475-1.913c-10.835,2.889-21.623,6.054-32.245,9.672a267.826,267.826,0,0,1-80.9,14.764q-39.387.862-78.778,1.569a361.029,361.029,0,0,1-43.077-1.666,367.9,367.9,0,0,1-70.8-14.332c-9.645-2.951-19.22-6.143-28.826-9.226v-7.68c1.181.374,2.391.67,3.538,1.133,38.276,15.444,77.852,23.4,119.08,21.818,10.407-.4,20.827-.655,31.21-1.424q15.9-1.179,31.73-3.29c9.877-1.325,19.71-2.76,29.693-3.181,11.865-.5,23.748-1.185,35.551-2.48a157.351,157.351,0,0,0,52.865-15.793c12.6-6.234,24.243-14.027,35.572-22.382,3.859-2.846,7.841-5.522,11.822-8.187a14.79,14.79,0,0,1,10.366-2.55,50.717,50.717,0,0,1,10.312,1.966c6.189,2.2,12.254,4.805,18.256,7.511,6.735,3.036,13.284,6.507,20.02,9.54a73.673,73.673,0,0,0,30.627,6.982c9.045-.031,18.129-.263,27.124-1.164a353.767,353.767,0,0,1,56.662-.744q26.617,1.6,53.232,3.26c9.154.563,18.319.991,27.459,1.747,13.2,1.091,26.365,2.8,39.583,3.562,18.874,1.084,37.777,1.741,56.677,2.218,18.347.463,36.657,1.267,54.917,3.253a129.2,129.2,0,0,0,26.79.3c7.777-.771,14.109-3.936,18.757-10.474,1.469-2.066,3.019-4.071,4.5-6.13,2.42-3.37,4.76-6.8,7.227-10.134a125.987,125.987,0,0,1,31.247-30.242,82.586,82.586,0,0,1,22.964-11.082c16.708-4.817,31.366-1.145,43.757,11.393a86.7,86.7,0,0,1,8.292,9.68c3.535,4.828,6.667,9.965,10.068,14.9,3.529,5.122,6.906,10.392,10.82,15.192a59.123,59.123,0,0,0,36.08,21.212C993.312,1580.327,1007.415,1578.251,1021.356,1574Z" transform="translate(-2 -979.138)" fill="#fff"/>
      <path id="Path_5" data-name="Path 5" d="M2,462.157V438.419c1.128,0,2.257-.032,3.385-.011,8.489.157,16.977.384,25.466.47,9.171.093,18.344.022,27.515.088a60.942,60.942,0,0,1,17.77,2.608c13.319,4.155,26.65,8.3,39.82,12.917a95.226,95.226,0,0,1,35.649,21.79,233.986,233.986,0,0,1,16.317,18.2c4.975,6.029,9.483,12.462,14.222,18.7,7.231,9.517,16.012,17.072,26.8,21.989a50.161,50.161,0,0,1,19.136,15.244,53.377,53.377,0,0,0,22.452,16.974,160.981,160.981,0,0,0,16.969,6.061c3.99,1.129,8.234,1.373,12.386,1.791a12.3,12.3,0,0,0,4.335-.64,5.836,5.836,0,0,0,4.6-5.771,38.565,38.565,0,0,0-.539-6.918c-.443-2.984-1.332-5.91-1.619-8.9-.541-5.648,1.666-8.819,7.046-10.189a39.08,39.08,0,0,1,7.384-.989c8.567-.492,16.928.977,25.186,3.129,16.584,4.321,33.241,8.027,50.425,8.933,15.9.838,31.683.43,47.363-2.53,15.471-2.921,29.291-8.918,39.171-22.241a9.05,9.05,0,0,1,.7-.765,45.018,45.018,0,0,1,11.139-9.061c6.3-3.43,12.477-7.124,18.925-10.226a514.182,514.182,0,0,0,54.841-30.687c5.278-3.387,10.618-6.71,16.133-9.661a102.946,102.946,0,0,1,13.99-6.219,22.6,22.6,0,0,1,19.975,2.029c3.222,1.938,6.338,4.062,9.5,6.1,2.974,1.914,5.886,3.939,8.937,5.712a25,25,0,0,0,20.013,2.726,92.1,92.1,0,0,0,14.677-5.355c20.823-10.036,41.138-21.053,60.294-34.21,6.495-4.461,12.974-8.949,19.515-13.337,18.733-12.568,38.317-23.476,59.429-31.233A231.247,231.247,0,0,0,824.516,379.9a135.837,135.837,0,0,1,33.8-13.423c13.861-3.419,27.75-6.753,41.713-9.691a119.342,119.342,0,0,0,43.708-18.406c6.3-4.338,12.4-8.982,18.553-13.536,5.512-4.079,10.883-8.368,16.5-12.286a43.417,43.417,0,0,1,9.284-5c6.2-2.356,10.354.267,11.748,6.943a24.813,24.813,0,0,1-2.371,16.264,72.278,72.278,0,0,1-7.492,12.411c-4.5,5.818-9.584,11.157-14.342,16.77a66.174,66.174,0,0,0-5.882,7.652c-3.6,5.779-2.96,10.875,1.769,15.774a28.977,28.977,0,0,0,4.712,3.973,66.167,66.167,0,0,0,7.377,4.293c11.926,5.9,24.616,8.513,37.765,9.079v30.022c-1.336-.235-2.673-.463-4.007-.707A352.726,352.726,0,0,1,981.541,422c-19.009-5.572-37.144-13.4-54.918-22.194q-12.389-6.132-24.93-11.941c-15.124-6.987-30.622-7.422-46.437-2.663-10.706,3.222-20.678,8.171-30.7,13.062-7.763,3.787-15.551,7.61-23.6,10.676a319.972,319.972,0,0,0-46.01,21.5c-11.353,6.541-22.551,13.38-33.634,20.394-25.673,16.246-52.687,29.954-79.26,44.5a77.153,77.153,0,0,1-11.6,4.92c-6.07,2.124-12.379,3.274-18.71,1.66a85.667,85.667,0,0,1-12.438-4.515c-5.01-2.148-9.811-4.813-14.834-6.923a34.121,34.121,0,0,0-26.519-.252c-3.275,1.284-6.539,2.643-9.68,4.234a310.8,310.8,0,0,0-32.69,19.252,70.289,70.289,0,0,0-21.169,21.357c-6.645,10.74-16.115,17.693-27.551,22.228-13.569,5.38-27.74,7.588-42.1,8.8a224.757,224.757,0,0,1-33.261.314,318.65,318.65,0,0,1-38.118-4.256c-9.682-1.8-19.281-4.073-28.934-6.045-3.319-.678-6.67-1.364-10.092-.546-3.768.9-5.735,3.052-5.878,7.014a53.759,53.759,0,0,0,.415,7.3c.385,3.815,1.155,7.609,1.258,11.426a31.682,31.682,0,0,1-1.042,8.915,6.023,6.023,0,0,1-6.7,4.735,26.612,26.612,0,0,1-6.615-1.331c-4.493-1.58-8.89-3.449-13.329-5.191-14.058-5.517-28.135-10.983-42.17-16.559a73.96,73.96,0,0,1-26.472-17.9,69.86,69.86,0,0,0-18.247-13.793A60.329,60.329,0,0,1,180.4,529.092c-6.268-6.387-12.435-12.89-18.407-19.569-14.244-15.931-31.147-27.588-51.226-34.266-7.753-2.578-15.5-5.163-23.288-7.639a83.687,83.687,0,0,0-24.025-4.23c-12-.2-24.006-.163-36.006-.379C18.963,462.856,10.482,462.45,2,462.157Z" transform="translate(-2 -200.336)" fill="#fff"/>
      <path id="Path_6" data-name="Path 6" d="M2,123.485c2.541-.973,5.15-1.791,7.609-2.946,9.507-4.463,18.858-4.155,28.118.7,2.62,1.374,5.287,2.672,7.813,4.211A104.643,104.643,0,0,0,77.025,138.09c4.746,1.081,9.434,2.447,14.124,3.775,15.28,4.329,28.843,12.115,41.463,21.8,11.453,8.793,21.917,18.75,32.238,28.871q7.494,7.348,14.844,14.85a186.233,186.233,0,0,1,25,31.626c3.256,5.177,6.418,10.423,9.855,15.471a106.309,106.309,0,0,0,8.016,10.361c5.569,6.329,12.648,8.612,20.859,7.746a98.515,98.515,0,0,0,18.865-4.234,124.871,124.871,0,0,1,15.118-3.866c8.772-1.554,17.415.053,25.827,2.5,10.988,3.2,21.891,6.722,32.759,10.334a176.271,176.271,0,0,0,42.22,8.294,248.845,248.845,0,0,0,36.642.4c39.7-2.778,76.384-14.547,108.616-39.169,14.627-11.174,27.03-24.724,38.638-39.076,7.813-9.66,15.538-19.4,23.484-28.941a98.956,98.956,0,0,1,17.478-16.993,65.156,65.156,0,0,1,11.081-6.7c9.134-4.178,18.115-3.319,26.59,2.111,2.682,1.718,5.111,3.846,7.715,5.7,3.531,2.512,6.989,5.175,10.711,7.354a24.607,24.607,0,0,0,22.894,1.619,84.756,84.756,0,0,0,14.078-7.6A122.767,122.767,0,0,0,719.7,143.359c9.69-10.965,12.318-24.015,9.806-38.33a70.239,70.239,0,0,0-8.085-22.1c-4.275-7.663-8.956-15.086-13.313-22.7-3.61-6.309-7.136-12.676-10.454-19.15a49.606,49.606,0,0,1-4.907-15.159c-1-6.527.215-12.442,4.443-17.635A67.2,67.2,0,0,0,701.278,2h40.774a39.7,39.7,0,0,0,3.164,2.808c3.885,2.8,8.038,5.244,11.7,8.315,6.772,5.679,11.531,12.787,12.7,21.942.366,2.873.4,5.794.52,8.7.318,7.662.386,15.329,1.814,22.912,3.425,18.181,12.1,32.657,27.893,42.15,11.08,6.661,23.243,8.9,35.886,8.684,15.89-.273,31.141-3.849,45.976-9.641,23.51-9.179,44.027-22.608,59.906-43.036a144.734,144.734,0,0,1,12.672-13.59,80.718,80.718,0,0,1,17.429-13.229A33.621,33.621,0,0,1,993.99,33.9a123.113,123.113,0,0,1,27.366,7.9V52.968c-2.5-1.072-4.954-2.312-7.523-3.179-4.185-1.412-8.406-2.763-12.688-3.813-7.492-1.838-14.594-.413-21.35,3.243a77.164,77.164,0,0,0-17.349,13.346c-5.548,5.484-10.9,11.175-16.333,16.783a131.621,131.621,0,0,1-25.5,20.762,198.384,198.384,0,0,1-57.342,23.92c-16.51,4.021-33.248,5.818-50.187,2.955a77.659,77.659,0,0,1-40.26-19.589c-7.166-6.546-12.138-14.476-13.868-24.209-1.38-7.767-2.391-15.613-3.286-23.457-.883-7.735-1.005-15.578-2.186-23.256C751.131,21.153,742.273,11.443,727.8,7.248c-6.666-1.932-13.255-1.528-19.427,2-6.115,3.495-9.062,8.845-8.679,16.1a38.68,38.68,0,0,0,4.044,14.3A108.37,108.37,0,0,0,715.7,59.081c5.125,6.81,10.558,13.377,15.618,20.236,3.411,4.624,6.582,9.46,9.541,14.4a31.8,31.8,0,0,1,4.665,14.8c.863,17.356-3.918,32.776-16.107,45.058a314.037,314.037,0,0,1-23.562,21.067,217.183,217.183,0,0,1-18.688,13.285,49.544,49.544,0,0,1-14.659,6.332c-5.627,1.5-11.085,1.095-16.119-1.868a98.187,98.187,0,0,1-10.079-7.058c-2.983-2.3-5.71-4.953-8.634-7.342a24.6,24.6,0,0,0-9.627-4.986c-5.425-1.359-10.569-.309-15.581,1.833a55.045,55.045,0,0,0-16.377,11.086c-7.037,6.739-13.871,13.707-20.631,20.741-7.558,7.864-14.795,16.058-22.425,23.846-14.365,14.664-30,27.651-48.159,37.15-30.43,15.919-62.9,23.959-96.829,25.981-11.172.666-22.418.593-33.607.18a252.541,252.541,0,0,1-27.008-2.665c-11.757-1.712-23.4-4.25-35.157-5.97a100.349,100.349,0,0,0-40.783,2.175c-8.319,2.22-16.661,4.424-25.094,6.1-11.684,2.32-21.771-.978-29.62-10.437a68.035,68.035,0,0,1-6.168-8.314c-4.39-7.325-8.447-14.86-12.8-22.212-4.583-7.747-8.959-15.669-14.112-23.006-12.027-17.125-27.137-31.168-43.282-44.087a117.537,117.537,0,0,0-40.608-21.236c-4.46-1.312-8.918-2.663-13.436-3.729a111.107,111.107,0,0,1-35.3-14.953c-2.772-1.8-5.71-3.327-8.575-4.973-9.491-5.456-19.226-6.181-29.41-2.026C9.546,139.94,5.705,140.613,2,141.638Z" transform="translate(-2 -2)" fill="#fff"/>
      <path id="Path_7" data-name="Path 7" d="M1021.356,1356.464c-3.889.747-7.751,1.718-11.67,2.2-9.456,1.157-17.911-1.59-25.479-7.437a78.448,78.448,0,0,1-14.269-14.876c-5.718-7.516-11.145-15.269-16.983-22.683-5.051-6.415-10.264-12.732-15.829-18.673-8.4-8.967-18.633-14.712-30.763-16.447-9.452-1.353-18.743-.217-27.925,2.236a143.307,143.307,0,0,0-27.286,10.563c-8.034,4.033-16.023,8.176-23.882,12.555a103.3,103.3,0,0,0-11.042,7.482c-4.038,3-7.963,6.158-11.844,9.367-17.839,14.756-38.392,23.475-60.476,28.806a127.07,127.07,0,0,1-40.133,3.213A159.556,159.556,0,0,1,663.1,1343.6c-4.493-1.593-8.959-3.27-13.464-4.827-2.357-.815-4.748-1.553-7.164-2.156a19.208,19.208,0,0,0-15.387,2.291,82.457,82.457,0,0,0-8.393,5.917,35.934,35.934,0,0,1-22.626,8.116,447.265,447.265,0,0,1-49.2-1.781,508.74,508.74,0,0,0-50.9-1.767c-9.046.152-18.122.052-27.148-.536a84.523,84.523,0,0,1-47.046-18.025,184.177,184.177,0,0,1-22.516-21.193c-4.44-4.812-8.851-9.659-13.439-14.32-4.306-4.375-6.679-4.05-9.75,1.375A102.728,102.728,0,0,0,371,1307.337c-5.966,14.114-12.682,27.792-21.439,40.342-15.055,21.575-34.012,38.191-58.1,48.273a111.514,111.514,0,0,1-49.158,8.512,122.054,122.054,0,0,1-36.787-7.682,104.408,104.408,0,0,1-37.271-24.335c-4.722-4.69-9.24-9.6-14.014-14.23a95.392,95.392,0,0,0-9.371-8.03,18.493,18.493,0,0,0-13.823-3.764q-19.332,2.742-38.585,6.057a43.678,43.678,0,0,0-9.945,3.439,24.2,24.2,0,0,0-5.976,3.912,10.751,10.751,0,0,0-3.351,11.982,29.547,29.547,0,0,0,3.882,8.07,117.83,117.83,0,0,0,8.56,10.357c3.214,3.6,6.686,6.954,9.893,10.557a22.12,22.12,0,0,1,3.424,5.162c1.448,3.057.649,5.672-2.441,6.869a42.408,42.408,0,0,1-9.515,2.3c-8.471,1.16-16.976.453-25.434-.217a178.688,178.688,0,0,1-41.92-8.176c-5.922-1.949-11.755-4.183-17.629-6.288v-3.491c.868.252,1.758.446,2.6.766a178.622,178.622,0,0,0,35.069,9.413,121.381,121.381,0,0,0,25.364,1.751,25.959,25.959,0,0,0,5.031-.69c5.1-1.294,6.029-3.936,2.784-8.272a52,52,0,0,0-5.553-6.109c-4.452-4.305-9.195-8.309-13.47-12.786-4.507-4.719-8.753-9.726-12.836-14.84A29.52,29.52,0,0,1,35.61,1355c-1.816-7.1.212-12.96,6.214-16.964a30.87,30.87,0,0,1,7.915-3.911,110.759,110.759,0,0,1,14.522-3.48,252.855,252.855,0,0,1,37.232-2.814c7.667-.109,15.1-1.06,22.3-3.889a50.1,50.1,0,0,1,6.854-1.991c6.373-1.5,11.972.078,16.386,5.054a87.086,87.086,0,0,1,7.091,9.332c3.465,5.171,6.634,10.552,10.056,15.755,6.178,9.4,13.138,18.159,21.9,25.125,24.207,19.256,51.83,25.257,81.663,20.722,24.2-3.679,44.612-15.525,61.895-33.106,15.735-16.006,26.711-35.107,33.848-56.553,2.487-7.473,4.412-15.141,6.805-22.649a41.282,41.282,0,0,1,3.87-8.854c2.194-3.615,5.18-4.347,8.766-2.152a58.89,58.89,0,0,1,9.573,7.15c3.751,3.521,7.057,7.542,10.581,11.32,5.012,5.373,9.862,10.925,15.113,16.04,12.605,12.28,27.32,20.579,44.511,23.933,11.974,2.336,24.061,2.663,36.192,2.085a497.512,497.512,0,0,1,50.245.592c12.2.651,24.43.909,36.648,1.254a22.068,22.068,0,0,0,15.307-5.708c2.43-2.083,4.685-4.383,7.01-6.594,2.409-2.29,4.751-4.659,7.222-6.875,5.717-5.125,12.1-6.121,18.906-2.642,3.842,1.963,7.5,4.306,11.231,6.5,6.875,4.035,13.526,8.547,20.652,12.039,22.31,10.934,45.727,14.479,70.1,9.513a132.882,132.882,0,0,0,62.967-31.769c6.832-6.107,13.421-12.5,20.089-18.8a71.247,71.247,0,0,1,19.327-13.417c4.241-1.932,8.362-4.138,12.574-6.141,12.045-5.728,24.337-10.741,37.429-13.379,9.993-2.014,20-2.448,30-.085,11.846,2.8,21.63,9.261,30.192,17.908,7.13,7.2,13.186,15.334,19.357,23.373,3.855,5.022,7.738,10.029,11.782,14.89a64.122,64.122,0,0,0,14.155,12.957,39.309,39.309,0,0,0,27.265,6.058Z" transform="translate(-2 -819.556)" fill="#fff"/>
      <path id="Path_8" data-name="Path 8" d="M436.925,2c2.05,1.645,4.111,3.275,6.145,4.94a36.179,36.179,0,0,1,3.1,2.717c1.918,1.975,1.808,3.256-.641,4.612a44.934,44.934,0,0,1-6.841,3.049c-10.81,3.8-21.609,7.649-32.491,11.226-18,5.916-36.082,11.561-54.077,17.491-4.619,1.522-9.062,3.627-13.538,5.581a6.7,6.7,0,0,0-3.977,3.552,9.312,9.312,0,0,0,2.373,1.216,38.246,38.246,0,0,0,6.4.723c24.12-.006,48.244.149,72.359-.22,14.719-.225,29.339-2.226,43.919-4.286,12.777-1.805,25.517-3.918,38.318-5.512a45.735,45.735,0,0,1,12.819.387c6.332,1.028,8.925,5.356,7.119,11.675a61.019,61.019,0,0,1-4.588,10.819c-1.944,3.8-4.395,7.329-6.424,11.089-4.415,8.182-3.548,12.212,3.711,17.939,2.963,2.338,6.047,4.514,8.978,6.891,8.8,7.138,13.159,16.67,13.927,28.013,1.116,16.476-3.415,31.527-11.407,45.574-10.519,18.492-25.66,32.044-43.781,42.228a127.328,127.328,0,0,1-49.6,15.769c-31.843,3.333-62.281-1.824-90.911-16.7a122.575,122.575,0,0,1-36.927-29.755,87.506,87.506,0,0,1-20.239-44.573c-.417-2.755-.968-5.491-1.521-8.222-1.586-7.833-6.172-12.854-13.716-14.73-4.718-1.173-9.565-1.79-14.318-2.833a56.417,56.417,0,0,1-9.461-2.651c-5.664-2.338-8.1-6.708-7.657-12.968.131-1.85.485-3.685.759-5.524.189-1.264.5-2.515.611-3.785.3-3.293-.915-4.68-4.127-4.152a39.934,39.934,0,0,0-8.162,2.286c-9.188,3.638-18.284,7.52-27.472,11.158-4.43,1.754-8.947,3.3-13.493,4.713-11.3,3.5-21.645,1.352-30.476-6.6A227.615,227.615,0,0,1,135,86.2c-8.381-9.3-16.349-19-24.723-28.313A164.459,164.459,0,0,0,84.158,34.066c-13.719-9.864-29-14.892-45.629-16.159A138.355,138.355,0,0,0,4.7,19.354a20.011,20.011,0,0,1-2.7.1V14.567c.779-.129,1.564-.232,2.338-.391a117.641,117.641,0,0,1,60.349,3.188C77.62,21.5,89.059,28.576,99.528,37.219c11.558,9.542,22.787,19.5,34.177,29.261,6.613,5.666,13.356,11.156,20.869,15.547A52.5,52.5,0,0,0,171.3,88.59c10.528,2,20.521-.02,30.092-4.5,5.555-2.6,11-5.48,16.37-8.467a255.508,255.508,0,0,1,48.962-21.385c15.493-4.769,30.978-9.615,46.633-13.763C339.1,33.654,364.972,27.4,390.778,20.85q9.222-2.339,18.357-5.038c2.1-.617,4.431-1.068,6.005-3.6a25.054,25.054,0,0,0-2.824-2.788c-2.685-1.937-5.487-3.7-8.2-5.6A15,15,0,0,1,402.267,2Zm43.6,60.163c-5.448.609-10.175,1.123-14.9,1.668-14.619,1.685-29.212,3.672-43.861,5-16.574,1.5-33.2,2.386-49.8,3.59a319.867,319.867,0,0,0-45.71,6.437c-12.194,2.684-24.22,6-35.548,11.475a51.887,51.887,0,0,0-9.852,6.1c-5.844,4.682-5.736,8.756-.075,13.6,2,1.711,4.091,3.317,6.041,5.086a14.8,14.8,0,0,1,4.945,13.447c-.355,2.881-.8,5.754-1.317,8.61a62.5,62.5,0,0,0-.588,20.471c1.409,9.4,5.267,17.741,10.523,25.453,11.206,16.438,26.116,28.4,43.73,36.59a151.587,151.587,0,0,0,87.8,12.852,123.422,123.422,0,0,0,60.509-26.45c12.94-10.452,23.324-23.049,29.783-38.742,4.377-10.634,6.855-21.653,5.133-33.314-1.124-7.614-4.027-14.379-9.928-19.279a58.431,58.431,0,0,0-10.344-6.58c-3.618-1.89-7.54-3.157-11.265-4.845a54.2,54.2,0,0,1-7.854-4.081c-4.371-2.926-5.188-6.359-2.744-11.074,1.378-2.659,3.214-5.062,4.711-7.661a56.662,56.662,0,0,0,4.331-8.261c1.893-5.085-.065-8.467-5.3-9.377A84.028,84.028,0,0,0,480.524,62.163Z" transform="translate(-2 -2)" fill="#fff"/>
      <path id="Path_9" data-name="Path 9" d="M1021.356,1482.641c-4.049,1.04-8.074,2.2-12.152,3.095a60.438,60.438,0,0,1-20.573,1.351,45.586,45.586,0,0,1-26.816-13.068,97.889,97.889,0,0,1-12.915-16.146c-3.9-5.852-7.539-11.912-11.716-17.548a165.963,165.963,0,0,0-13.4-16.179c-7.724-8.049-17.02-13.453-28.07-15.169a56.15,56.15,0,0,0-24.848,2.114,102.8,102.8,0,0,0-26.02,11.8c-9.614,6.119-18.944,12.715-28.31,19.237-4.308,3-8.386,6.347-12.607,9.48-2.661,1.975-5.385,3.859-8.1,5.764a37.377,37.377,0,0,1-21,7.057c-23.831.582-47.346,4.236-70.872,7.777-8.062,1.213-16.1,2.851-24.2,3.44a204.932,204.932,0,0,1-27.814.4c-25.887-1.651-51.8-2.27-77.71-3.324-14.36-.584-28.693-1.9-43.033-2.972a405.66,405.66,0,0,0-53.964-.685,160.262,160.262,0,0,1-29.17-.54,80.888,80.888,0,0,1-31.67-10.874c-7.931-4.719-15.618-9.872-23.516-14.652-4.772-2.887-9.759-5.4-14.615-8.14-3.915-2.21-7.447-1.495-10.616,1.445-3.191,2.959-6.288,6.027-9.368,9.108-6.811,6.815-13.331,13.963-20.424,20.452-19.64,17.966-42.175,30.353-68.033,35.988a155.988,155.988,0,0,1-47.288,2.654c-10.933-.972-21.832-2.348-32.753-3.474-2.7-.279-5.424-.311-8.139-.418a22.927,22.927,0,0,0-14.728,4.265c-7.613,5.411-16.38,7.823-25.432,9.067-17.332,2.38-34.776,2.616-52.2,1.971-29.008-1.073-56.842-7.892-83.733-18.981A33.325,33.325,0,0,0,2,1495.907v-2.793a237.211,237.211,0,0,0,52.314,15.718,237.247,237.247,0,0,0,48.05,3.007c7.672-.261,15.347-1.058,22.964-2.072a34.3,34.3,0,0,0,9.641-3.173c4.845-2.246,7.122-6.3,6.487-11.846-.291-2.539-.764-5.056-1.079-7.593-1.062-8.546,2.6-12.282,10.791-10.37a78.311,78.311,0,0,1,13.757,4.881c9.986,4.425,20.019,8.661,30.5,11.723a167.367,167.367,0,0,0,45.845,7.166c34.529.248,64.7-11.749,90.831-34.765,10.714-9.437,19.837-20.382,28.472-31.789,3.266-4.315,6.548-8.621,9.937-12.833a34.455,34.455,0,0,1,4.38-4.354,4.886,4.886,0,0,1,6.564-.321c4,2.849,8.023,5.664,11.964,8.6,6.969,5.183,13.779,10.6,20.848,15.632,9.276,6.6,19.283,11.7,30.358,14.377a114.922,114.922,0,0,0,26.281,2.931c6.111.043,12.226-.206,18.336-.422,19.28-.681,38.46.955,57.661,2.379,13.772,1.021,27.57,1.841,41.37,2.214,14.145.382,28.307.164,42.461.106,10.117-.042,20.08-1.661,29.979-3.631a142.791,142.791,0,0,1,26.677-2.529c9.961-.09,19.929-.111,29.879-.54,16.343-.7,32.354-3.864,48.278-7.52,1.657-.38,3.3-.818,4.972-1.13a88.127,88.127,0,0,0,29.661-11.665c9.258-5.622,18.45-11.359,27.656-17.072,10.184-6.32,20.516-12.352,31.545-17.009,9.694-4.094,19.648-7.1,30.242-7.249a50.57,50.57,0,0,1,29.221,8.794,72.485,72.485,0,0,1,16.887,15.548c5.343,6.769,10.3,13.86,15.4,20.829,4.488,6.132,8.9,12.327,13.443,18.413a43.672,43.672,0,0,0,4.457,4.786c11.432,11.281,25.011,14.312,40.2,10.875,3.311-.749,6.555-1.811,9.836-2.7.747-.2,1.523-.292,2.286-.432Z" transform="translate(-2 -908.031)" fill="#fff"/>
      <path id="Path_10" data-name="Path 10" d="M2,250.338c7.119.341,13.876-1.923,20.783-3.083a41.906,41.906,0,0,1,26.471,3.665c2.745,1.379,5.531,2.687,8.194,4.219a129.848,129.848,0,0,0,33.434,13.366c5.052,1.268,10.035,2.845,15.014,4.4,19.02,5.936,35.155,16.84,49.824,30.368,15.446,14.245,27.418,31.167,37.373,49.758,4.307,8.044,8.9,15.937,13.609,23.741a52.616,52.616,0,0,0,11.461,13.711c9.185,7.54,19.609,10.514,31.176,8.088,6.863-1.44,13.6-3.494,20.395-5.293,14-3.709,28.164-4.013,42.456-2.338,21.943,2.572,43.913,4.72,66.05,3.367,12.31-.753,24.674-.975,36.925-2.3,33.582-3.636,65.884-12.138,95.9-28.524,14.793-8.076,27.938-18.57,40.207-30.19,11.4-10.8,22.428-22.026,33.818-32.844a161.4,161.4,0,0,1,15.764-13.222,52.6,52.6,0,0,1,11.991-6.386c7.182-2.786,14.071-1.62,20.167,3.292,3.025,2.438,5.811,5.188,8.81,7.663,3.084,2.545,6.185,5.1,9.477,7.341a19.647,19.647,0,0,0,19.133,2.246,80.885,80.885,0,0,0,12.96-6.021,216.383,216.383,0,0,0,20.033-13.73c10.429-8.194,20.5-16.871,30.7-25.372a69.833,69.833,0,0,0,15.81-19c1.672-2.9,3.313-5.829,5.107-8.652a51.5,51.5,0,0,1,4.266-5.854,11.293,11.293,0,0,1,11.3-4.112c3.658.724,7.285,1.676,10.862,2.749,7.711,2.312,15.376,4.73,23.345,6.051a126.122,126.122,0,0,0,31.159.982c28.964-2.4,55.984-11.663,81.662-25.313C931,196,942.8,186.641,953.607,175.9c5.532-5.5,11.047-11.042,16.917-16.144a92.815,92.815,0,0,1,13.07-9.329,26.277,26.277,0,0,1,22.928-2.358c5.023,1.732,9.9,3.929,14.835,5.917v9.076c-3.862-1.923-7.649-4.029-11.6-5.731-7.561-3.254-15.029-2.645-22.3,1.142a77.9,77.9,0,0,0-15.877,11.3C965,175.654,958.6,181.746,952,187.585c-17.487,15.448-37.556,26.149-59.169,34.131-22.514,8.314-45.629,13.676-69.5,15.072-10.715.627-21.5.031-32.25-.032-2.036-.012-4.072-.188-6.108-.186-8.544.007-16.084,2.813-22.081,9.133-10.174,10.723-21.9,19.452-33.539,28.337-9.631,7.355-19.064,14.983-28.628,22.434a154.856,154.856,0,0,1-26.087,16.934,69.716,69.716,0,0,1-10.079,4.088,19.778,19.778,0,0,1-17.882-2.633c-4.015-2.793-7.7-6.091-11.476-9.237-2.636-2.2-5.084-4.637-7.774-6.758-5.217-4.115-11.077-4.98-17.367-3.2a40.684,40.684,0,0,0-14.186,7.322c-7.8,6.173-15.422,12.577-22.979,19.057-9.907,8.5-19.556,17.314-29.532,25.723-21.962,18.511-47.1,30.657-74.27,38.7a423.884,423.884,0,0,1-58.385,12.682c-15.117,2.235-30.244,4.436-45.3,7.026a107.085,107.085,0,0,1-36.812-.455c-8.471-1.469-16.98-2.822-25.524-3.691-12.88-1.309-25.507.462-37.9,4.273-4.978,1.531-10.025,2.855-15.1,4.016-4.718,1.08-9.458.526-14.137-.563-11.8-2.746-21.7-8.732-29.047-18.658-4.033-5.449-7.691-11.215-11.214-17.033-4.9-8.1-9.393-16.452-14.284-24.555a154.421,154.421,0,0,0-27.734-34.2c-15.515-14.251-33.538-23.643-53.518-29.139a213.346,213.346,0,0,1-38.9-14.41A52.085,52.085,0,0,0,33.5,266.543c-4.289.332-8.57.807-12.863,1.062-6.208.369-12.424.6-18.636.885Z" transform="translate(-2 -96.038)" fill="#fff"/>
      <path id="Path_11" data-name="Path 11" d="M2,807.216c24.776,1.73,49.575.364,74.362.48,20.369.095,39.675,4.809,58.472,12.454,10.729,4.364,21.537,8.525,32.32,12.749a328.9,328.9,0,0,0,57.853,16.241,128.98,128.98,0,0,1,29.184,9,78.765,78.765,0,0,1,35.069,30.85,216.372,216.372,0,0,1,15.8,32,78.464,78.464,0,0,0,3.91,8.5c2.44,4.364,5.425,4.784,8.619,1.036a34.03,34.03,0,0,0,5.172-8.122c2.722-6.125,5.172-12.388,7.473-18.7,3.814-10.456,7.515-20.963,13.071-30.611a62.6,62.6,0,0,1,6.706-9.6c3.615-4.2,8.36-5.571,13.825-4.908,15.3,1.855,30.332,5.22,45.41,8.338,13.205,2.73,26.468,5.177,39.947,5.842,22.827,1.127,45.267-1.089,66.71-9.759a209.943,209.943,0,0,0,21.468-10.405,305.066,305.066,0,0,1,31.881-15.5,141.187,141.187,0,0,0,19.372-10.044c12.135-7.237,24.236-14.564,36.039-22.353a467.93,467.93,0,0,1,71.2-39.023c15.444-6.712,30.144-14.961,44.922-23.063,20.1-11.021,40.883-20.542,62.823-27,10.415-3.067,21.114-5.143,31.725-7.473,7.517-1.65,15.071-3.182,22.664-4.4A75.019,75.019,0,0,1,899,708.445a212.409,212.409,0,0,1,23.4,11.094c16.974,9.548,33.757,19.463,50.489,29.456,13.823,8.257,26.721,17.926,39.249,28.122,3,2.443,6.14,4.711,9.215,7.06v16.756c-1.266-.932-2.587-1.8-3.791-2.807-7.451-6.26-14.67-12.836-22.367-18.755-7.965-6.125-16.232-11.874-24.643-17.337-12.342-8.017-24.95-15.6-37.406-23.433-11.7-7.355-23.562-14.353-36.289-19.7-12.331-5.185-25.114-7.983-38.44-7.08-8.57.58-17.1,1.838-25.635,2.891-29.085,3.589-55.957,14.3-81.677,28q-33.941,18.081-69.011,33.562c-18.586,8.169-35.942,18.667-52.6,30.393q-23.68,16.664-47.36,33.325a131.935,131.935,0,0,1-23.748,13.425c-7.184,3.094-14.069,6.959-20.964,10.72-13.287,7.249-27.117,12.838-42.03,15.36a162.237,162.237,0,0,1-38.573,1.84c-13.824-.969-27.361-3.63-40.845-6.722q-20.034-4.594-40.1-9.043A97.1,97.1,0,0,0,366.153,864a16.024,16.024,0,0,0-15.053,6.326,72.891,72.891,0,0,0-7.169,10.969c-5.056,9.457-7.642,19.853-10.247,30.213-2.519,10.019-4.933,20.069-8.947,29.609a75.072,75.072,0,0,1-11.977,20.171,36.937,36.937,0,0,1-10.373,8.9,21.254,21.254,0,0,1-6.367,2.217c-2.669.448-4.376-1.143-4.527-3.927a20.864,20.864,0,0,1,.434-5.185c1.168-5.805,2.6-11.556,3.674-17.379,2.394-13.012.859-25.69-3.414-38.1-7.113-20.656-19.465-36.581-39.164-45.89a91.961,91.961,0,0,0-21.936-7.194c-9.892-1.906-19.9-3.208-29.739-5.368q-23.391-5.134-46.6-11.124c-11.074-2.868-21.947-6.547-32.967-9.647a139.328,139.328,0,0,0-37.6-5.181c-16.192-.03-32.385.4-48.578.412-10.525.008-21.05-.372-31.576-.573-.677-.013-1.355.016-2.032.026Z" transform="translate(-2 -458.121)" fill="#fff"/>
      <path id="Path_12" data-name="Path 12" d="M2,638.926c9.5.29,19.006.679,28.512.845,11.433.2,22.871.136,34.305.324a96.754,96.754,0,0,1,28.656,5.23c6.251,2.053,12.467,4.223,18.664,6.445a125.225,125.225,0,0,1,45.638,28.86c5.25,5.13,10.488,10.3,16.081,15.02A140.426,140.426,0,0,0,188.8,706.5c5.878,3.755,11.714,7.536,16.909,12.244a100.652,100.652,0,0,0,32.666,19.537c10.408,3.917,20.732,8.074,31.034,12.277a163.518,163.518,0,0,1,25.674,13.458,66.517,66.517,0,0,0,9.257,5.1c6.381,2.733,11.142.515,13.414-6.2a31.447,31.447,0,0,0,1.546-8.17c.241-4.171.016-8.37.015-12.557,0-2.442-.115-4.9.108-7.322.473-5.148,3.17-7.768,8.225-7.865a30.435,30.435,0,0,1,7.07.738,401.547,401.547,0,0,0,62.867,8.585c23.357,1.375,46.641.7,69.5-5.268a103.763,103.763,0,0,0,20.093-7.42,65.476,65.476,0,0,0,23.141-19.012c2.592-3.381,5.1-6.837,7.767-10.151a70.949,70.949,0,0,1,30.567-21.9c11.287-4.318,22.682-3.633,34.071-.477,4.479,1.241,8.911,2.665,13.348,4.057a42.973,42.973,0,0,0,30.906-1.388c7.175-3.13,14.253-6.572,21.113-10.372,32.777-18.155,65.6-36.227,97.775-55.508a357.884,357.884,0,0,1,60.27-28.777c6.785-2.5,13.235-6.014,19.716-9.319,7.61-3.881,15.233-7.668,23.36-10.324a69.311,69.311,0,0,1,44.083-.073c11.248,3.66,22,8.574,32.774,13.438,15.747,7.108,31.345,14.631,47.769,19.987,11.858,3.868,23.884,7.193,35.83,10.779,3.9,1.172,7.789,2.405,11.683,3.611v11.869c-13.529-6.312-27.973-9.911-41.951-14.89-18.113-6.452-35.323-15.039-52.746-23.135-12.276-5.7-24.706-10.99-37.8-14.5a68.1,68.1,0,0,0-47.106,3.955c-5.066,2.3-10,4.936-14.874,7.64a149.877,149.877,0,0,1-21.722,9.825c-22.16,8.025-43.277,18.465-63.749,30.205Q692.487,647.233,642.89,674c-5.912,3.177-11.966,6.083-18.02,8.968a55.236,55.236,0,0,1-34.455,4.549,74.274,74.274,0,0,0-28.037.189A61.467,61.467,0,0,0,535.117,700.4c-4.073,3.328-8.071,6.781-11.859,10.443-17.284,16.7-38.122,25.464-61.22,29.326-19.67,3.289-39.446,3.495-59.26,2.107-19.656-1.377-39.172-4.023-58.6-7.34a51.363,51.363,0,0,0-7.058-.917c-6.1-.181-9.309,2.5-10.232,8.751-.66,4.475-.741,9.038-1.357,13.521a62.652,62.652,0,0,1-2.291,11.216,25.943,25.943,0,0,1-4.386,7.758c-2.979,3.733-6.984,4.522-11.36,2.75a26.745,26.745,0,0,1-4.224-2.206,41.223,41.223,0,0,1-4.732-3.389c-14.42-12.28-31.063-20.285-48.522-26.729-6.919-2.554-13.874-5.006-20.772-7.618a112.171,112.171,0,0,1-25.957-14.291c-7.863-5.682-15.989-10.979-23.914-16.573-4.848-3.422-9.585-7.016-14.277-10.662-3.158-2.454-6.22-5.052-9.2-7.727-20.962-18.784-45.9-28.989-72.547-35.443-8.986-2.176-18.2-2.2-27.366-2.3-14.378-.167-28.758-.113-43.137-.257C9.223,650.78,5.612,650.347,2,650.1Z" transform="translate(-2 -363.141)" fill="#fff"/>
      <path id="Path_13" data-name="Path 13" d="M1021.356,252.09a63.009,63.009,0,0,0-9.68-12.455c-6.318-6.167-13.441-7.577-21.189-3.563a117.05,117.05,0,0,0-13.594,8.512c-4.283,3.03-8.339,6.415-12.37,9.8a196.593,196.593,0,0,1-79.788,41.007c-13.958,3.481-27.819,7.376-41.735,11.04a205.007,205.007,0,0,0-30.446,10.8q-10.917,4.81-22,9.228a301.893,301.893,0,0,0-65.284,36.19c-5.83,4.221-11.612,8.513-17.41,12.783a286.676,286.676,0,0,1-43.552,26.335c-6.233,3.068-12.614,5.732-19.5,6.949a22.537,22.537,0,0,1-16.344-3.015c-3.379-2.1-6.541-4.581-9.746-6.968-2.841-2.115-5.57-4.388-8.415-6.5a19.273,19.273,0,0,0-19.026-2.829,72.988,72.988,0,0,0-12.063,5.51c-6.273,3.705-12.326,7.813-18.378,11.9-7.189,4.855-14.248,9.914-21.418,14.8-18.785,12.8-39.025,22.531-60.247,30.232-8.852,3.212-17.6,6.72-26.345,10.244a76.454,76.454,0,0,0-20.845,12.28c-11.409,9.608-24.774,13.591-39.126,15.124-20.895,2.232-41.313-.2-61.5-5.889a202.4,202.4,0,0,0-20.906-4.52c-11.019-1.876-21.9-.489-32.6,2.481a47.974,47.974,0,0,0-7.98,2.872,13.226,13.226,0,0,0-7.884,10.991c-.025.231-.072.459-.112.688-.869,5.008-2.816,6.248-7.264,4.051a30.126,30.126,0,0,1-7.275-5.041,79.234,79.234,0,0,0-24.366-15.591c-2.619-1.09-5.155-2.392-7.714-3.63a64.207,64.207,0,0,1-24.718-20.77c-3.547-4.971-7-10.016-10.474-15.038-3.543-5.118-7.021-10.285-10.609-15.369q-22.691-32.156-59.592-44.049c-12.086-3.918-24.146-7.916-36.22-11.873a72.6,72.6,0,0,0-21.39-3.5c-4.189-.078-8.38-.069-12.569-.015-12.563.161-25.126.975-37.685-.106V352.629a47.473,47.473,0,0,0,5.717.611c10.074-.1,20.147-.311,30.221-.481,7.812-.132,15.643-.451,23.355,1.192a93.374,93.374,0,0,1,9.817,2.724c11.953,3.952,23.857,8.065,35.817,11.993,15,4.928,29.09,11.638,41.411,21.909a122.188,122.188,0,0,1,22.213,24.392c5.185,7.481,9.969,15.253,15.068,22.8,4.129,6.109,8.339,12.169,12.746,18.067a45.51,45.51,0,0,0,11.8,10.939c10.943,7.084,22.695,12,35.578,13.9,4.937.725,9.708-.088,14.438-1.326,6.466-1.692,12.876-3.615,19.354-5.258a78.579,78.579,0,0,1,36.357-.318c10.071,2.177,20.043,4.843,30.126,6.956a101.144,101.144,0,0,0,48.1-1.075,54.28,54.28,0,0,0,13.53-5.474c15.39-9.238,32.056-15.049,48.961-20.39,11.241-3.551,22.444-7.268,33.517-11.332,19.746-7.247,37.85-17.753,54.89-30.228,9.127-6.682,18.08-13.617,27.279-20.189a189.737,189.737,0,0,1,16.976-10.884,51.909,51.909,0,0,1,11.07-4.241c4.834-1.4,9.476-.311,13.624,2.5,2.638,1.786,5.072,3.9,7.565,5.9,3.385,2.725,6.657,5.606,10.125,8.212a23.866,23.866,0,0,0,21.27,4.107,79.162,79.162,0,0,0,16.459-6.442,243.9,243.9,0,0,0,37.754-24.055c11.408-8.8,22.945-17.4,34.956-25.337A283.959,283.959,0,0,1,840,300.961c16.28-3.5,32.373-7.743,48.372-12.455a200.954,200.954,0,0,0,74.282-40.122c4.883-4.152,9.767-8.327,14.9-12.139A98.541,98.541,0,0,1,990.5,227.99c7.833-4.1,15.561-3.491,22.711,1.937,2.811,2.134,5.435,4.527,8.144,6.8Z" transform="translate(-2 -147.361)" fill="#fff"/>
      <path id="Path_14" data-name="Path 14" d="M1234,1938.6c3.255-.346,6.511-.679,9.764-1.041,10.987-1.22,21.527-4.41,32-7.814,18.156-5.9,36.476-11.16,55.255-14.485,21.895-3.877,43.9-6.594,66.194-6.474,19.817.107,39.649.041,59.453-.613,16.062-.531,32.111-1.824,48.131-3.2,12.218-1.05,24.194.2,36.134,2.548q38.852,7.635,77.7,15.313a110.145,110.145,0,0,0,24.669,2.158c13.011-.4,26.032-.971,39-2.042a228.8,228.8,0,0,1,49.148,1.323,339.878,339.878,0,0,0,36.881,3.166,216.376,216.376,0,0,0,65.417-8.862c.325-.094.661-.15.993-.224v13.266c-5.627,1.551-11.267,3.052-16.873,4.68-2.119.615-4.157,1.526-6.232,2.3h-186.2c-1.393-.448-2.767-.979-4.182-1.333-27.04-6.769-54.38-11.966-81.819-16.689a152.868,152.868,0,0,0-46.286-1.048c-11.326,1.5-22.711,2.559-34.086,3.632-19.146,1.807-38.317,3.225-57.337,6.364-17.753,2.931-35.606,5.223-53.411,7.829-2.1.308-4.174.825-6.261,1.244Z" transform="translate(-815.384 -1240.411)" fill="#fff"/>
      <path id="Path_15" data-name="Path 15" d="M2,879.321c1.915-.008,3.829-.009,5.744-.023q19.195-.141,38.39-.291c14.042-.129,28.084-.429,42.126-.407,13.968.022,27.752,1.916,41.472,4.609,7.209,1.415,14.57,2.019,21.864,2.975,11.673,1.531,23.342,3.1,35.023,4.561q13.812,1.733,27.649,3.256c10.818,1.205,21.516,2.847,31.785,6.847,31.521,12.277,43.081,43.682,40.679,67.31a53.976,53.976,0,0,1-12.187,29.419c-4.008,4.855-8.729,9.093-13.162,13.573-2.258,2.282-4.779,4.317-6.849,6.76-3.993,4.713-3.186,8.948,2.086,12.029a24.183,24.183,0,0,0,10.032,3.012c9.892.961,19.117-1.4,27.847-6.046,10.271-5.46,18.462-13.357,25.16-22.96,8.521-12.215,13.537-25.966,16.717-40.506,2.058-9.409,3.848-18.885,6.146-28.23a76.195,76.195,0,0,1,4.774-13.014A44.773,44.773,0,0,1,352.412,914c4.9-6.553,11.4-8.654,19.277-7.192,12.489,2.317,24.727,5.642,36.922,9.184,13.938,4.047,27.9,8,42.209,10.458,21.349,3.662,42.644,4.133,63.536-2.583,7.853-2.525,15.423-6.038,23-9.389,7.794-3.446,15.551-7.018,23.11-10.969a78.025,78.025,0,0,0,13.147-8.563c11.44-9.33,22.471-19.19,33.949-28.469,11.117-8.987,22.379-17.818,33.952-26.169,17.607-12.7,37.1-21.8,57-29.974a515.56,515.56,0,0,0,50.9-23.947,263.885,263.885,0,0,1,54.343-22.575c19.535-5.524,39.3-6.679,59.148-2.41a133.466,133.466,0,0,1,20.047,6.474A353.4,353.4,0,0,1,956.4,806.917c3.38,2.341,6.762,4.684,10.212,6.911a300.355,300.355,0,0,1,43.475,34.545c3.648,3.453,7.5,6.674,11.265,10v12.567c-7.808-7.248-15.522-14.605-23.442-21.72-16.664-14.971-34.769-27.968-53.408-40.152-12.512-8.179-26.063-14.127-40.81-16.537-6.8-1.111-13.73-1.395-20.6-2.027-5.184-.476-10.391-.753-15.553-1.411a11.455,11.455,0,0,1-9.722-7.242c-4.891-12.061-14.605-16.163-26.286-16.949-11.215-.754-22.1,1.38-32.827,4.5a221.668,221.668,0,0,0-43.142,17.646,557.5,557.5,0,0,1-58.6,26.744c-21.627,8.58-42.227,19.154-60.965,33.337a415.719,415.719,0,0,0-33.241,28.225c-8.786,8.231-17.381,16.676-26.137,24.941a120.431,120.431,0,0,1-9.381,8.044,37.5,37.5,0,0,1-7.294,4.409q-13.987,6.315-28.113,12.3a125.132,125.132,0,0,1-34.606,9.682,129.39,129.39,0,0,1-33.522-.6c-17.562-2.516-34.4-8-51.285-13.289-12.442-3.9-24.847-7.942-37.668-10.395-1.557-.3-3.106-.668-4.676-.851-6.108-.715-11.078,1.639-15.171,6.162a40.813,40.813,0,0,0-7.817,13.775c-2.624,7.227-3.978,14.774-5.3,22.325-2.059,11.8-4.4,23.517-8.852,34.668-6.5,16.27-16.039,30.189-30.115,40.48-12.481,9.125-26.325,13.837-41.768,12.836-6.383-.414-12.616-1.755-18.244-4.955a32.071,32.071,0,0,1-7.8-6.027c-4.3-4.7-3.823-9.928,1.115-13.883a60.09,60.09,0,0,1,8.114-5.04c4.656-2.638,9.509-4.935,14.037-7.783a49.8,49.8,0,0,0,19.067-21.273c5.9-12.6,6.12-25.619,2.224-38.757-6.254-21.088-20.25-34.142-40.549-40.448-7.736-2.4-15.7-3.418-23.718-4.084-16.358-1.36-32.714-2.758-49.079-4.013-4.964-.381-9.958-.5-14.937-.473-11.665.056-23.272-.143-34.894-1.759C99.523,889,82.509,889.07,65.51,889.381c-20.721.379-41.444.637-62.165.955A13.051,13.051,0,0,0,2,890.492Z" transform="translate(-2 -494.618)" fill="#fff"/>
      <path id="Path_16" data-name="Path 16" d="M1021.356,726.323c-7.036-5.081-13.934-10.38-21.133-15.2-21.837-14.63-44.752-27.332-68.043-39.3-9.4-4.832-18.975-9.363-28.691-13.481a72.913,72.913,0,0,0-29.792-6.01,58.706,58.706,0,0,0-16.754,2.5c-18.171,5.722-36.653,10.324-54.83,15.969-24.339,7.558-47.406,18.415-69.626,31.058q-26.6,15.136-54.223,28.135c-15.953,7.538-31.236,16.388-46.408,25.445-14.587,8.707-29.324,17.129-45,23.632a117.155,117.155,0,0,1-12.144,4.433,138.646,138.646,0,0,0-29.435,12.471c-5.261,2.961-10.5,5.968-15.788,8.873a156.271,156.271,0,0,1-56.751,17.983,193.964,193.964,0,0,1-51.806-.7c-14.221-2.068-28.385-4.55-42.59-6.743-6.6-1.019-13.226-1.829-19.851-2.653-6-.746-10.674,1.66-13.863,6.831-1.993,3.231-3.709,6.655-5.383,10.079-3.5,7.168-6.813,14.436-10.372,21.574a79.373,79.373,0,0,1-5.73,9.873c-5.568,8.018-10.43,8.347-17.089,1.156-2.723-2.94-5.1-6.226-7.566-9.407-3.457-4.456-6.715-9.083-10.3-13.422-10.468-12.66-23.807-21.1-38.919-26.417-10.037-3.534-20.352-6.286-30.637-9.01a220.593,220.593,0,0,1-43.162-16.533c-15.027-7.6-30.1-15.1-45.277-22.378-11.821-5.664-24.046-10.3-36.99-12.46a126.145,126.145,0,0,0-17.209-1.78c-11.316-.309-22.644-.094-33.965-.236-12.563-.158-25.124-.478-37.687-.71-.778-.014-1.558.112-2.337.174V738.192c10.292.385,20.581.942,30.876,1.111,12.114.2,24.233.1,36.35.063,17.275-.051,33.723,4,49.416,11.092,9.828,4.443,19.411,9.5,28.91,14.66,13.01,7.065,25.852,14.456,38.736,21.763,13.677,7.758,28.35,12.794,43.359,16.946,10.607,2.934,21.079,6.266,31.063,11.069a95.588,95.588,0,0,1,32.419,24.851c3.322,3.967,6.759,7.836,10.255,11.643a29.552,29.552,0,0,0,4.648,4.055c4.575,3.249,8.538,3,12.564-1a30.644,30.644,0,0,0,5.3-6.76c3.226-5.86,6.191-11.879,9.074-17.927,1.539-3.229,2.654-6.67,4.027-9.986.707-1.709,1.486-3.4,2.358-5.023,3.1-5.779,7.937-8.051,14.213-7.153,16.475,2.357,32.936,4.821,49.419,7.114,16.514,2.3,33.1,3.778,49.779,2.9,25.2-1.332,49.221-7.321,71.527-19.76q7.76-4.328,15.41-8.867a129.517,129.517,0,0,1,39.078-15.6c11.6-2.464,22.494-7.1,33.036-12.544,8.291-4.279,16.387-8.956,24.612-13.373,13.841-7.432,27.537-15.182,41.62-22.1,18.608-9.136,36.58-19.464,54.731-29.467a406.487,406.487,0,0,1,71.057-31.263c2.373-.768,4.761-1.508,7.176-2.119a223.076,223.076,0,0,0,30.524-10.6,145.508,145.508,0,0,1,18.633-6.441c10.922-2.863,21.8-1.527,32.525,1.608a142.043,142.043,0,0,1,25.877,10.462c24.727,12.9,49.472,25.782,73.974,39.129,9.268,5.048,17.891,11.348,26.807,17.078Z" transform="translate(-2 -419.818)" fill="#fff"/>
      <path id="Path_17" data-name="Path 17" d="M2,1873.882a18.882,18.882,0,0,0,2.675.291c13.915-.413,27.844-.588,41.74-1.361,18.895-1.052,37.784-1.623,56.682-.6,23.85,1.286,47.681,2.937,71.533,4.166,13,.67,26.02.918,39.034,1.134,16.193.267,32.383.628,48.455,2.8,25.933,3.509,51.646,8.216,76.893,15.413,8.207,2.34,16.141,5.106,23.636,9.429,11.02,6.355,23.226,9.006,35.657,10.585,4.481.569,8.983.961,13.476,1.434H343.824c-3.4-1.823-6.745-3.793-10.232-5.431a102.261,102.261,0,0,0-12.532-5.281,336.589,336.589,0,0,0-99.98-15.862c-14.946-.081-29.9-.312-44.834-.871-33.276-1.246-66.538-2.232-99.851-1.284-24.786.705-49.6.566-74.395.8Z" transform="translate(-2 -1218.98)" fill="#fff"/>
      <path id="Path_18" data-name="Path 18" d="M311.884,1972.042H2v-16.058c10.529,0,21.059-.025,31.587.008q96.8.3,193.6.625c24.61.084,48.7,4,72.378,10.7C303.775,1968.5,307.783,1970.447,311.884,1972.042Z" transform="translate(-2 -1273.852)" fill="#fff"/>
      <path id="Path_19" data-name="Path 19" d="M1754.013,2c-.474,2.5-1.028,4.994-1.408,7.513-1.245,8.244.435,16.218,2.495,24.079,2.291,8.744,5.084,17.35,7.356,26.1a60.786,60.786,0,0,1,1.815,12.008c.294,5.589-1.577,8.109-6.652,9.951-7.941,2.883-16.087,4.892-24.551,4.774-12.442-.174-24.883-.54-37.321-.941-5.989-.193-11.99-.451-17.946-1.073a36.408,36.408,0,0,1-9.509-2.366c-5.081-2.011-7.635-6.174-7.342-11.749a61.858,61.858,0,0,1,1.628-9.932c.946-4.3,2.271-8.516,3.177-12.824a31.528,31.528,0,0,0-4.571-24.3c-1.369-2.134-3.009-4.093-4.276-6.284a54.59,54.59,0,0,1-4.328-8.6C1651.615,5.681,1649.534,4.1,1648,2h40.774c3.1.46,6.191,1.033,9.305,1.357,5.4.56,10.839.754,16.2,1.527a27.019,27.019,0,0,1,7.631,2.7,4.207,4.207,0,0,1,1.9,2.944c.153,1.55-1.223,2.437-2.609,2.761a15.335,15.335,0,0,1-4.349.539c-3.95-.244-7.885-.718-11.83-1.062-5.077-.442-10.167-.923-15.21.252-6.859,1.6-9.326,4.776-9.155,12.044.1,4.3.562,8.582.764,12.878.235,4.994.285,10,.557,14.99.378,6.93,3.731,11.793,9.958,14.527a28.962,28.962,0,0,0,2.854,1.112,57.594,57.594,0,0,0,27.512,1.819c13.052-2.225,23.791-17.953,21.566-29.633-.456-2.393-.73-4.821-1.137-7.225-.484-2.863-1.052-5.711-1.53-8.575-1.339-8.018-.757-15.753,3.3-22.959Z" transform="translate(-1088.713 -2)" fill="#fff"/>
      <path id="Path_20" data-name="Path 20" d="M1516.426,2a52.426,52.426,0,0,1,8.826,8.578c1.658,2.074,4.266,3.381,6.534,4.9,3.413,2.28,7.051,4.23,10.331,6.689,10.723,8.04,13.314,17.352,8.217,29.9-1.779,4.379-4.184,8.493-6.351,12.7-1.8,3.492-3.782,6.888-5.474,10.432a20,20,0,0,0-.46,16.559,63.271,63.271,0,0,0,8.106,14.866c3.891,5.2,7.426,6.261,13.385,4.012,2.863-1.08,5.635-2.424,8.417-3.719a92.323,92.323,0,0,1,47.682-8.124,178.4,178.4,0,0,1,25.448,4.139c8.3,1.935,16.566,2.441,24.8-.3.431-.143.869-.261,1.3-.417,6.7-2.439,9.564-6.268,9.4-13.593a42.967,42.967,0,0,0-1.659-11.324c-2.369-7.87-5.3-15.562-7.888-23.363-2.811-8.458-5.722-16.892-8.178-25.461a40.743,40.743,0,0,1-.394-22.712A35.929,35.929,0,0,0,1659.136,2h4.757c-.652,2.823-1.333,5.64-1.95,8.471-1.349,6.188-.429,12.269,1,18.286,2.35,9.871,6.407,19.1,10.254,28.408,3.27,7.913,6.431,15.882,9.341,23.94a46.871,46.871,0,0,1,2.651,16.781c-.12,7.437-3.2,12.878-9.618,16.4-8.695,4.776-17.742,6.111-27.238,3.1-3.132-.991-6.208-2.186-9.268-3.4a79.626,79.626,0,0,0-31.5-6.007,57.814,57.814,0,0,0-26.083,6.811,78.66,78.66,0,0,0-19.556,14.926c-2.881,2.963-5.669,6.023-8.563,8.972a31.325,31.325,0,0,1-4.11,3.635c-2.914,2.072-4.83,1.512-6.106-1.83a46.621,46.621,0,0,1-1.632-6.039c-1.558-6.665-2.692-13.466-4.72-19.973a103.364,103.364,0,0,0-7.223-17.642c-5.01-9.442-4.475-18.135,1.478-26.816,2.931-4.274,5.586-8.756,8.233-13.226a35.016,35.016,0,0,0,4.549-11.582,16.3,16.3,0,0,0-4.254-14.759,27.108,27.108,0,0,0-10.141-6.856c-5.177-2.013-10.482-3.681-15.727-5.512-2.676-.935-5.374-1.816-8-2.885a6.142,6.142,0,0,1-4.057-4.377c-.479-2.207-1.885-3.618-3.5-4.965C1496.7,4.661,1495.38,3.3,1494,2Z" transform="translate(-987.04 -2)" fill="#fff"/>
      <path id="Path_21" data-name="Path 21" d="M2255.514,2a31.344,31.344,0,0,0,3.169,2.381c10.364,5.956,20.823,11.743,31.1,17.848a90.078,90.078,0,0,1,11.04,8.086,29.858,29.858,0,0,1,5.26,5.865,8.088,8.088,0,0,1-.11,10.047c-1.549,2.14-3.378,4.064-5.015,6.14a65.617,65.617,0,0,0-5.169,6.89c-5.387,9.078-3.527,18.9,4.7,25.395a30.687,30.687,0,0,0,18.638,6.627c23.76.576,43.2-8.4,56.519-28.984a82.289,82.289,0,0,1,25.034-25.072q13.527-8.684,26.652-18.021a41.135,41.135,0,0,1,26.562-7.723,186.12,186.12,0,0,1,46.75,7.867c.756.23,1.49.536,2.234.806v6.284a142.828,142.828,0,0,0-31.292-7.653c-4.814-.656-9.678-1.057-14.531-1.236a30.435,30.435,0,0,0-17.533,4.6c-12.3,7.692-24.124,16.119-34.5,26.434a92.5,92.5,0,0,0-10.484,12.784c-14.168,20.351-33.718,31.964-57.078,37.306-10.826,2.476-21.769,2.885-32.592-.345a38.085,38.085,0,0,1-17.131-10.228c-8.636-9.1-11.463-19.8-8.092-32.074a99.86,99.86,0,0,1,3.47-10.2c3.106-7.86,1.541-14.67-4.425-20.29a112.289,112.289,0,0,0-12.112-10.082c-5.495-3.878-11.341-7.227-17.014-10.841-1.237-.788-2.38-1.731-3.567-2.6Z" transform="translate(-1483.521 -2)" fill="#fff"/>
      <path id="Path_22" data-name="Path 22" d="M44.813,2c-.8,1.083-.243,1.754.728,2.115,2.017.749,4.039,1.511,6.11,2.071,11.827,3.2,23.642,6.532,34.4,12.653,8.205,4.666,16.17,9.794,24.1,14.944,9.849,6.394,19.462,13.174,29.351,19.5a118.252,118.252,0,0,0,22.27,11.051c11.57,4.341,23.038,4.331,34.436-.5,7.842-3.323,15.646-6.741,23.443-10.174,19.4-8.538,39.618-14.489,59.916-20.186,24.771-6.953,49.866-12.518,74.932-18.2,2.425-.549,4.833-1.221,7.193-2.011a20.808,20.808,0,0,0,3.364-1.915C361.828,6.807,356.9,5.288,353.338,2h25.824c.874.708,1.711,1.473,2.63,2.114,2.623,1.829,5.323,3.544,7.9,5.44a21.788,21.788,0,0,1,2.737,3.113,47.9,47.9,0,0,1-5.8,2.456c-5.8,1.55-11.636,2.973-17.48,4.349-29.552,6.96-59.134,13.794-88.315,22.307-20.157,5.88-40.121,12.3-59.039,21.742-7.633,3.81-15.293,7.577-23.047,11.115-12.975,5.921-26.032,5.494-38.81-.541a122.251,122.251,0,0,1-16.6-9.449c-7.917-5.4-15.463-11.368-23.192-17.058-9.659-7.111-19.016-14.724-29.083-21.167-24.7-15.812-51.605-21.2-80.386-16.147-2.888.507-5.779,1-8.668,1.5V8.982a15.876,15.876,0,0,0,2.649-.2Q11.189,7.191,17.7,5.473c1.731-.458,3.437-1.033,5.126-1.64.778-.279,1.385-.815.92-1.833Z" transform="translate(-2 -2)" fill="#fff"/>
      <path id="Path_23" data-name="Path 23" d="M2,144.946a16.061,16.061,0,0,0,2.649-.41,63.538,63.538,0,0,1,32.528-1.8c10.445,2.041,20.974,3.63,31.422,5.659a85.248,85.248,0,0,1,28.67,11.382c4.559,2.815,9.126,5.621,13.773,8.278a37.445,37.445,0,0,0,6.811,3.1c4.862,1.6,7.005-.358,6.191-5.473a28.294,28.294,0,0,0-1.089-4.746c-7.913-23-18.378-44.545-34.6-62.66C78.217,86.961,66.006,79.082,51.086,76.137a83.641,83.641,0,0,0-27.711-.627C16.213,76.493,9.122,78.027,2,79.316V74.429c4.139-.583,8.271-1.212,12.417-1.741,11.16-1.424,22.337-1.854,33.5-.083,15.891,2.522,29.177,10.247,40.559,21.7,10.53,10.592,18.783,22.932,26,36.035,8.533,15.5,15.825,31.63,22.8,47.913a32.93,32.93,0,0,1,2.086,6.61c.519,2.664-.59,3.812-3.212,3.287a24.549,24.549,0,0,1-6.409-2.19c-4.543-2.351-8.981-4.923-13.41-7.5q-3.838-2.232-7.512-4.76c-12.9-8.851-27.093-14.261-42.232-17.464q-14.608-3.091-29.019-7.148c-10.845-3.039-21.441-2.967-31.988,1.109-1.156.447-2.384.695-3.579,1.035Z" transform="translate(-2 -47.199)" fill="#fff"/>
      <path id="Path_24" data-name="Path 24" d="M419.231,2c.978.551,1.983,1.059,2.927,1.666.918.59,1.775,1.282,2.6,1.885-.7,2.312-2.449,2.842-4,3.349-4.95,1.618-9.951,3.074-14.942,4.56q-21.161,6.3-42.327,12.583a111.878,111.878,0,0,1-20.865,4.527,59.894,59.894,0,0,1-31.457-5.315C299.117,19.688,287.338,13.5,275.5,7.462,273.434,6.411,271.077,5.2,271.764,2h14.951a2.544,2.544,0,0,0,.872,3.625,19.677,19.677,0,0,0,3.724,2.4c7.47,3.284,14.879,6.752,22.5,9.613a56.781,56.781,0,0,0,26.071,3.057c13.605-1.418,26.464-5.8,39.1-10.949a10.821,10.821,0,0,0,2.337-1.39,1.927,1.927,0,0,0,.266-3.232C380.569,4.053,379.5,3.038,378.456,2Z" transform="translate(-180.022 -2)" fill="#fff"/>
      <path id="Path_25" data-name="Path 25" d="M2475.428,2c-6.375,3.961-12.734,7.951-19.131,11.876-11.472,7.041-23.979,10.684-37.216,12.02-15.387,1.552-30.166-1.54-44.764-6.015C2360,15.493,2346.163,9.763,2332.454,3.7A15.611,15.611,0,0,1,2330,2h17.669a18.105,18.105,0,0,0,3.1,1.77c12.918,4.345,26.054,7.788,39.615,9.118,13.406,1.314,26.671.5,39.539-3.981,4.808-1.673,9.5-3.658,13.568-6.907Z" transform="translate(-1538.979 -2)" fill="#fff"/>
      <path id="Path_26" data-name="Path 26" d="M223.346,2a3.69,3.69,0,0,0,1.883,4.1c1.246.8,2.518,1.556,3.818,2.257,11.61,6.257,23.2,12.557,34.861,18.713,4.82,2.544,9.744,4.9,14.718,7.114a65.463,65.463,0,0,0,47.052,2.987c10.075-3.069,20.044-6.545,30.2-9.279,22.406-6.03,44.9-11.707,67.362-17.529,1.972-.511,3.969-.947,5.9-1.59A28.744,28.744,0,0,0,432.7,7.034C432,4.07,429.165,3.85,427.9,2h18.348c1.35,1.033,2.735,2.022,4.037,3.114.994.834,1.882,1.8,2.889,2.776a7.527,7.527,0,0,1-4.731,2.584c-9.9,2.4-19.837,4.689-29.716,7.195-28.114,7.131-56.1,14.709-83.5,24.448-9.567,3.4-19.393,5.584-29.652,4.543a72.325,72.325,0,0,1-24.108-6.78c-8.186-3.93-16.236-8.207-24.123-12.74-11.456-6.584-22.883-13.2-34.876-18.718a49.361,49.361,0,0,1-4.777-2.637A3.449,3.449,0,0,1,215.871,2Z" transform="translate(-143.156 -2)" fill="#fff"/>
      <path id="Path_27" data-name="Path 27" d="M1842,1983.258c4.173-.9,8.313-2.044,12.526-2.662,16.1-2.363,32.212-4.712,48.357-6.752a106.191,106.191,0,0,1,26.053.385,436.76,436.76,0,0,1,48.446,8.324,15.9,15.9,0,0,1,1.893.7Z" transform="translate(-1216.795 -1285.068)" fill="#fff"/>
      <path id="Path_28" data-name="Path 28" d="M409.764,2c.78.832,1.593,1.633,2.332,2.5,1.425,1.673,1.34,2.738-.492,3.988a18.187,18.187,0,0,1-3.639,1.851c-20.31,7.924-40.136,6.375-59.527-3.292A18.936,18.936,0,0,1,346.123,5.6,2.51,2.51,0,0,1,345.2,2h10.873a3.072,3.072,0,0,0,1.936,3.856c.619.276,1.218.607,1.849.847a56.165,56.165,0,0,0,28.554,3.229A29.96,29.96,0,0,0,395.244,8.1c2.785-1.127,2.911-2.394.856-4.563-.458-.483-.86-1.022-1.287-1.535Z" transform="translate(-228.318 -2)" fill="#fff"/>
      <path id="Path_29" data-name="Path 29" d="M2959.746,6.887c-6.648-1.347-13.3-2.682-19.938-4.062A8.855,8.855,0,0,1,2938,2h21.746Z" transform="translate(-1940.39 -2)" fill="#fff"/>
      <path id="Path_30" data-name="Path 30" d="M770.406,528.777a24.626,24.626,0,0,1-3.272,1.435,67.828,67.828,0,0,1-17.837,2.049A151.142,151.142,0,0,1,682.7,518.022c-11.006-5.187-21.976-10.453-32.988-15.626-11.267-5.293-22.881-9.484-35.242-11.082-4.038-.522-8.113-.832-12.181-.989a43.868,43.868,0,0,1-20.646-6.2c-9.9-5.764-18.8-12.958-27.312-20.642a115.544,115.544,0,0,1-10.041-10.38,29.517,29.517,0,0,1-4.33-7.039c-2.165-4.767-1.584-9.435,1.955-13.269a53.741,53.741,0,0,1,8.209-7.247c7.67-5.474,16.369-8.4,25.519-9.879,7.61-1.226,15.248-1.988,22.986-1a23.316,23.316,0,0,1,16.461,9.362,115.51,115.51,0,0,1,7,10.7c4.734,8.073,9.307,16.26,15.245,23.489,25.625,31.2,57.314,52.395,96.379,61.245,10.6,2.4,21.3,4.388,31.935,6.625a44.738,44.738,0,0,1,4.7,1.525Q770.382,528.2,770.406,528.777Zm-104.7-30.217.484-.939a23.882,23.882,0,0,0-2.035-3.036c-2.472-2.716-4.962-5.422-7.584-7.983-14.427-14.088-27.194-29.538-37.313-47.227a90.417,90.417,0,0,0-6.589-9.715,24.11,24.11,0,0,0-16.242-9.856,57.621,57.621,0,0,0-37.01,7.127,35.629,35.629,0,0,0-8.45,6.882c-4.345,4.718-4.741,9.733-1.474,15.329a37.189,37.189,0,0,0,5.4,7.122,107.915,107.915,0,0,0,28.327,20.773,46.767,46.767,0,0,0,19.257,4.988,128.608,128.608,0,0,1,14.831,1.62c11.666,1.97,22.746,6.017,33.693,10.494,3.672,1.5,7.432,2.785,11.195,4.036A16.319,16.319,0,0,0,665.709,498.559Z" transform="translate(-356.335 -270.315)" fill="#fff"/>
      <path id="Path_31" data-name="Path 31" d="M2111.882,69.958c-.26,2.3-.646,6.116-1.144,9.913a14.052,14.052,0,0,1-.951,3.339c-1.642,4.1-4.458,5.424-8.452,3.752a24.254,24.254,0,0,1-5.585-3.256,72.784,72.784,0,0,1-20.82-25.842,26.574,26.574,0,0,1-3.011-12.049,12.606,12.606,0,0,1,8.426-12.251c4.821-1.861,9.579-1.4,14.237.551,6.893,2.881,11.434,8.134,14.19,15.146C2111.191,55.42,2111.612,61.906,2111.882,69.958Zm-15.744-12.883c-.4-4.4-1.8-8.207-5.864-10.3-3.725-1.92-7.065.284-6.734,4.517a12.618,12.618,0,0,0,6.882,10.462c2.556,1.406,4.627.275,5.389-2.641A20.449,20.449,0,0,0,2096.138,57.075Z" transform="translate(-1368.587 -21.779)" fill="#fff"/>
      <path id="Path_32" data-name="Path 32" d="M30.356,137.178c-4.861,0-9.722.038-14.582-.023a18.747,18.747,0,0,1-4.36-.517c-3-.763-3.641-2.435-1.857-5.107a19.3,19.3,0,0,1,3.675-4.058,52.794,52.794,0,0,1,25.549-11.318c10.713-1.805,20.971-.571,30.478,5.137a41.741,41.741,0,0,1,15.282,15.5,19.142,19.142,0,0,1,2.094,5.811c.427,2.341-.569,3.354-2.844,3.064a32.331,32.331,0,0,1-5.562-1.462c-5.826-1.842-11.563-4.05-17.472-5.537-8.289-2.086-16.813-2.075-25.307-1.96-1.7.023-3.394,0-5.091,0Q30.357,136.945,30.356,137.178Z" transform="translate(-6.337 -75.802)" fill="#fff"/>
      <path id="Path_33" data-name="Path 33" d="M2091.076,1156.391c-.2,17.361-6.081,32.088-19.818,42.713-11.083,8.572-23.6,11.714-37.184,7.858-11.667-3.312-19.7-10.746-22.2-23.358-1.277-6.43-.264-12.725,2.051-18.809a57.021,57.021,0,0,1,11.619-18.287,100.916,100.916,0,0,1,29.96-22.537,49.336,49.336,0,0,1,10.2-3.7c8.014-1.921,13.919.666,18.324,7.8,4.605,7.455,6.427,15.806,7.035,24.494C2091.153,1153.829,2091.076,1155.112,2091.076,1156.391Zm-46.681,41.158c14.4.037,26.316-9.115,29.651-21.846a29.457,29.457,0,0,0,.876-9.977c-1.015-10.884-8.691-16.8-19.2-14.841a38.148,38.148,0,0,0-25.31,16.736,26.385,26.385,0,0,0-3.56,8.217,16.539,16.539,0,0,0,8.131,18.918A20.6,20.6,0,0,0,2044.4,1197.549Z" transform="translate(-1328.578 -729.486)" fill="#fff"/>
      <path id="Path_34" data-name="Path 34" d="M1016.61,211c4.554.33,8.839.629,13.122.965a10.236,10.236,0,0,1,1.992.414c4.4,1.259,5.655,3.467,4.5,8.066-.453,1.8-1.128,3.536-1.631,5.322-1.66,5.881-.39,9.382,4.991,12.067a76.9,76.9,0,0,0,11.111,4.224c5.509,1.75,11.129,3.131,16.636,4.886a54.37,54.37,0,0,1,8.478,3.525c9.752,5.056,14.7,13.438,15.531,24.49.789,10.475-1.614,20.323-5.839,29.758-6.839,15.275-17.448,27.344-30.445,37.307a122.043,122.043,0,0,1-59.866,24.451,149.528,149.528,0,0,1-79.714-11.467c-16.739-7.259-31.17-17.928-42.294-32.924a66.46,66.46,0,0,1-8.5-15.043c-4.459-11.21-4.574-22.412.221-33.54,1.557-3.612,3.271-7.159,5.053-10.66,2.845-5.591,3.927-11.306,2.009-17.5-1.673-5.4.142-9.748,4.726-12.574a74.079,74.079,0,0,1,11.814-6.03c11.159-4.357,22.833-6.662,34.615-8.386,15.358-2.246,30.809-3.5,46.286-4.46C985.216,212.92,1001.03,211.958,1016.61,211ZM979.146,364.989c4.287-.449,11.867-.91,19.338-2.089a117.12,117.12,0,0,0,57.194-25.672c12.114-9.984,21.894-21.876,27.622-36.921,2.75-7.222,4.369-14.676,3.815-22.489-.775-10.926-5.837-18.884-15.667-23.4a36.769,36.769,0,0,0-7-2.615c-7.612-1.744-15.281-3.227-22.914-4.874-7.19-1.55-14.41-2.992-21.531-4.834a22,22,0,0,1-13.519-9.885,13.482,13.482,0,0,0-9.033-6.315,87.077,87.077,0,0,0-13.089-1.814A241.462,241.462,0,0,0,931.3,228.2a85.978,85.978,0,0,0-19.261,5.5c-4.551,2-8.783,4.582-11.45,8.968-4.562,7.5-10.558,13.607-16.88,19.477a68.515,68.515,0,0,0-11.721,13.518,33.293,33.293,0,0,0-4.45,26.674c2.122,8.659,6.448,16.092,11.963,22.839A94.792,94.792,0,0,0,910.241,349.5C930.882,360.062,952.93,364.489,979.146,364.989Z" transform="translate(-569.334 -138.042)" fill="#fff"/>
      <path id="Path_35" data-name="Path 35" d="M645.438,492.351c-16.2,1.8-28.367-4.354-39.291-13.74a32.224,32.224,0,0,1-6.283-7.68c-2.479-4.078-1.976-8.316,1.123-11.925a22.552,22.552,0,0,1,5.393-4.705,36.454,36.454,0,0,1,25.118-5.076,24.446,24.446,0,0,1,15.643,9.652A94.485,94.485,0,0,1,660.3,482.768c.126.323.247.651.342.985,1.475,5.2.183,7.282-5.1,8.222a14.823,14.823,0,0,1-2.347.359C650.139,492.376,647.084,492.351,645.438,492.351Zm-16.21-15.356c2.914-.245,5.756-.785,7.183-3.788,1.4-2.943.42-5.677-1.315-8.163a12.64,12.64,0,0,0-16.1-3.988c-4.394,2.319-5.206,6.571-1.846,10.312A17.444,17.444,0,0,0,629.228,476.995Z" transform="translate(-395.679 -292.787)" fill="#fff"/>
      <path id="Path_36" data-name="Path 36" d="M1018.545,333.3c15.143.818,30.3,1.5,45.426,2.511,8.118.545,16.252,1.4,24.062,3.985a45.923,45.923,0,0,1,8.115,3.481c7.353,4.143,11.084,10.725,11.507,19.276.433,8.762-2.2,16.751-6.188,24.317-5.651,10.71-13.591,19.41-22.914,26.811a113.05,113.05,0,0,1-53.454,23.329,135.764,135.764,0,0,1-78.614-10.681,82.277,82.277,0,0,1-30.474-22.817c-4.57-5.581-8.085-11.753-9.592-19a25.752,25.752,0,0,1,5.462-22.484,44.576,44.576,0,0,1,12.645-10.422c10.247-5.921,21.324-9.565,32.661-12.479,18.589-4.779,37.511-6.047,56.59-5.649,1.584.033,3.17,0,4.754,0C1018.536,333.429,1018.541,333.367,1018.545,333.3Zm10.266,4.266-25.479.737a230.08,230.08,0,0,0-45.408,5.738c-10.181,2.358-20.132,5.445-29.421,10.467a44.932,44.932,0,0,0-12,9.032c-6.678,7.284-8.346,15.748-5.468,25.191,2.075,6.81,6.023,12.464,10.79,17.539a80.29,80.29,0,0,0,25.306,17.9C971.517,435.406,997,438.8,1023.405,434.9a110.272,110.272,0,0,0,48.842-19.677c9.947-7.131,18.52-15.66,24.815-26.422,3.656-6.25,6.282-12.9,6.9-20.23.8-9.484-2.227-17.224-10.444-22.172a43.185,43.185,0,0,0-8.717-3.793,76.294,76.294,0,0,0-19.7-3.343C1052.218,338.526,1039.323,338.049,1028.811,337.571Z" transform="translate(-598.69 -217.648)" fill="#fff"/>
      <path id="Path_37" data-name="Path 37" d="M1056.605,361.5c8.781.468,19.294.917,29.79,1.633a59.232,59.232,0,0,1,16.58,3.452c12.948,4.79,17.956,14.783,14.24,28.411-2.575,9.445-7.874,17.209-14.444,24.1-13.257,13.9-29.411,22.651-47.574,27.651a114.312,114.312,0,0,1-33.248,4.12c-19.461-.479-38.167-4.472-55.584-13.762-8.107-4.324-15.44-9.708-21.276-17.04a35.936,35.936,0,0,1-6.261-11.105c-2.751-8.335-1.363-15.805,4.438-22.337a42.246,42.246,0,0,1,13.566-9.7c8.964-4.347,18.466-6.932,28.132-8.936a262.9,262.9,0,0,1,40.383-5.051C1035.181,362.44,1045.018,362.025,1056.605,361.5Zm-3.681,6.853c-4.794.209-12.484.51-20.171.886a280.623,280.623,0,0,0-42.09,5.094c-9.116,1.846-18.083,4.263-26.541,8.345a40.366,40.366,0,0,0-11.016,7.447c-6.569,6.476-7.879,14.59-3.708,22.9a36.154,36.154,0,0,0,7.473,9.865A69.294,69.294,0,0,0,979.7,437.043a115.406,115.406,0,0,0,51.588,7.892,105.5,105.5,0,0,0,45.276-13.391c9.706-5.532,18.289-12.469,24.941-21.714a39.4,39.4,0,0,0,7.044-15.331c1.666-8.332-1.215-15.461-8.52-19.45a45.933,45.933,0,0,0-11.428-4.218C1077.824,368.3,1066.8,368.478,1052.925,368.351Z" transform="translate(-619.609 -235.999)" fill="#fff"/>
      <path id="Path_38" data-name="Path 38" d="M1079.939,390.917c9.593.585,19.2.976,28.769,1.848,4.012.366,7.959,1.66,11.887,2.721a20.182,20.182,0,0,1,4.645,2.1c7.164,4.1,9.836,10.722,7.734,18.9a34.527,34.527,0,0,1-5.371,11.2c-5.446,7.791-12.513,13.731-20.469,18.585a97.247,97.247,0,0,1-40.31,13.6,109.3,109.3,0,0,1-50.493-5.707,70.3,70.3,0,0,1-19.447-10.522,36.513,36.513,0,0,1-9.235-10.125c-4.626-7.856-3.636-15.461,2.845-21.768a40.94,40.94,0,0,1,12.679-7.957c9.664-4.174,19.833-6.434,30.114-8.16C1048.72,393.041,1064.3,391.97,1079.939,390.917Zm-26.38,66.47c4.507-.36,9.032-.564,13.519-1.108a91.235,91.235,0,0,0,37.047-12.725,61.53,61.53,0,0,0,16.763-14.56,31.049,31.049,0,0,0,6-11.619c1.66-6.7-.366-12.388-6.124-15.908a37.846,37.846,0,0,0-8.71-3.76,73.709,73.709,0,0,0-20.469-2.729c-7.913-.113-15.837.1-23.748.415a235.946,235.946,0,0,0-40.366,5.035,93.428,93.428,0,0,0-22.55,7.441,30.629,30.629,0,0,0-10.356,7.737c-3.984,4.873-4.547,10.217-1.89,15.923a22.24,22.24,0,0,0,6.8,8.584,84.522,84.522,0,0,0,11.974,7.845C1024.681,454.654,1038.875,457.15,1053.559,457.387Z" transform="translate(-650.847 -255.148)" fill="#fff"/>
      <path id="Path_39" data-name="Path 39" d="M1133.5,437.426c5.825-.074,11.956.061,17.906,1.684a29.952,29.952,0,0,1,7.81,3.249c4.339,2.679,5.259,6.8,3,11.443a22.156,22.156,0,0,1-6.442,7.545,55.468,55.468,0,0,1-21.1,10.047,72.087,72.087,0,0,1-38.911-.289,34.452,34.452,0,0,1-11.9-5.8c-7.055-5.557-6.926-12.132.42-17.237,6.023-4.186,12.925-6.1,19.924-7.605A133.951,133.951,0,0,1,1133.5,437.426Zm-6.783,7.325c-6.654.4-13.166,1.168-19.413,3.367a30.15,30.15,0,0,0-7.822,4c-3.491,2.571-3.438,6.16.161,8.524a24.9,24.9,0,0,0,8.061,3.4,44.064,44.064,0,0,0,25.353-1.846,35.146,35.146,0,0,0,7.217-3.764c2.382-1.59,4.756-3.619,4.144-6.994-.58-3.2-3.365-4.294-6.031-4.865C1134.538,445.747,1130.607,445.337,1126.713,444.751Z" transform="translate(-712.829 -285.411)" fill="#fff"/>
    </g>
  </g>
</svg>
