<svg xmlns="http://www.w3.org/2000/svg" width="795.56" height="1232" viewBox="0 0 795.56 1232">
  <g id="shape-bg-right" opacity="0.9">
    <g id="Group_3376" data-name="Group 3376" transform="translate(35.76 0)">
      <g id="Group_3339" data-name="Group 3339" transform="translate(10.814 893.898)">
        <path id="Path_6714" data-name="Path 6714" d="M596.512,752.809l-.178.1-81.146,46.851v93.9l.175.1,81.15,46.85.175-.1,81.15-46.851v-93.9l-.178-.1ZM515.89,800.166l80.622-46.545,80.622,46.545v93.093l-80.622,46.548L515.89,893.259Z" transform="translate(-515.187 -752.809)" fill="#e4f8ff"/>
      </g>
      <g id="Group_3340" data-name="Group 3340" transform="translate(172.76 893.898)">
        <path id="Path_6715" data-name="Path 6715" d="M640.975,752.809l-.178.1L559.65,799.762v93.9l.175.1,81.15,46.85.175-.1,81.15-46.851v-93.9l-.179-.1Zm-80.622,47.357,80.622-46.545L721.6,800.166v93.093l-80.622,46.548-80.622-46.548Z" transform="translate(-559.65 -752.809)" fill="#e4f8ff"/>
      </g>
      <g id="Group_3341" data-name="Group 3341" transform="translate(334.707 893.898)">
        <path id="Path_6716" data-name="Path 6716" d="M685.438,752.809l-.178.1-81.146,46.851v93.9l.175.1,81.15,46.85.175-.1,81.15-46.851v-93.9l-.178-.1Zm-80.622,47.357,80.622-46.545,80.622,46.545v93.093l-80.622,46.548-80.622-46.548Z" transform="translate(-604.113 -752.809)" fill="#e4f8ff"/>
      </g>
      <g id="Group_3342" data-name="Group 3342" transform="translate(496.653 893.898)">
        <path id="Path_6717" data-name="Path 6717" d="M729.9,752.809l-.178.1-81.146,46.851v93.9l.175.1,81.15,46.85.175-.1,81.146-46.851v-93.9l-.175-.1Zm-80.622,47.357L729.9,753.621l80.618,46.545v93.093L729.9,939.807l-80.622-46.548Z" transform="translate(-648.576 -752.809)" fill="#e4f8ff"/>
      </g>
      <g id="Group_3343" data-name="Group 3343" transform="translate(658.594 893.897)">
        <path id="Path_6718" data-name="Path 6718" d="M794.242,765.1l-19.88-11.477-80.621,46.546v93.094l80.621,46.546,19.88-11.477v.813l-19.7,11.376-.176.1L693.213,893.77l-.176-.1V799.762l81.149-46.851.176-.1,19.88,11.478Z" transform="translate(-693.038 -752.809)" fill="#e4f8ff"/>
      </g>
      <g id="Group_3344" data-name="Group 3344" transform="translate(91.785 753.648)">
        <path id="Path_6719" data-name="Path 6719" d="M618.742,791.315l-.175.1-81.15,46.851v93.9l.175.1,81.15,46.85.175-.1,81.15-46.851v-93.9l-.175-.1Zm-80.622,47.357,80.622-46.545,80.622,46.545v93.1l-80.622,46.544-80.622-46.544Z" transform="translate(-537.418 -791.315)" fill="#e4f8ff"/>
      </g>
      <g id="Group_3345" data-name="Group 3345" transform="translate(253.732 753.648)">
        <path id="Path_6720" data-name="Path 6720" d="M663.206,791.315l-.175.1-81.15,46.851v93.9l.175.1,81.15,46.85.175-.1,81.15-46.851v-93.9l-.175-.1Zm-80.622,47.357,80.622-46.545,80.622,46.545v93.1l-80.622,46.544-80.622-46.544Z" transform="translate(-581.881 -791.315)" fill="#e4f8ff"/>
      </g>
      <g id="Group_3346" data-name="Group 3346" transform="translate(415.678 753.648)">
        <path id="Path_6721" data-name="Path 6721" d="M707.669,791.315l-.175.1-81.15,46.851v93.9l.175.1,81.15,46.85.175-.1,81.15-46.851v-93.9l-.175-.1Zm-80.622,47.357,80.622-46.545,80.622,46.545v93.1l-80.622,46.544-80.622-46.544Z" transform="translate(-626.344 -791.315)" fill="#e4f8ff"/>
      </g>
      <g id="Group_3347" data-name="Group 3347" transform="translate(577.625 753.648)">
        <path id="Path_6722" data-name="Path 6722" d="M752.128,791.315l-.175.1-81.146,46.851v93.9l.175.1,81.146,46.85.178-.1,81.146-46.851v-93.9l-.175-.1ZM671.51,838.672l80.618-46.545,80.622,46.545v93.1l-80.622,46.544L671.51,931.768Z" transform="translate(-670.807 -791.315)" fill="#e4f8ff"/>
      </g>
      <g id="Group_3348" data-name="Group 3348" transform="translate(739.568 788.92)">
        <path id="Path_6723" data-name="Path 6723" d="M735.5,801.812l-19.528,11.274V906.18L735.5,917.454v.813l-20.056-11.579-.176-.1V812.68L735.5,801Z" transform="translate(-715.269 -800.999)" fill="#e4f8ff"/>
      </g>
      <g id="Group_3349" data-name="Group 3349" transform="translate(334.707 613.399)">
        <path id="Path_6724" data-name="Path 6724" d="M685.438,829.821l-.178.1-81.146,46.85v93.905l.175.1,81.15,46.851.175-.1,81.15-46.851V876.774l-.178-.1Zm-80.622,47.357,80.622-46.545,80.622,46.545v93.1l-80.622,46.544-80.622-46.544Z" transform="translate(-604.113 -829.821)" fill="#e4f8ff"/>
      </g>
      <g id="Group_3350" data-name="Group 3350" transform="translate(496.653 613.399)">
        <path id="Path_6725" data-name="Path 6725" d="M729.9,829.821l-.178.1-81.146,46.85v93.905l.175.1,81.15,46.851.175-.1,81.146-46.851V876.774l-.175-.1Zm-80.622,47.357L729.9,830.633l80.618,46.545v93.1L729.9,1016.819l-80.622-46.544Z" transform="translate(-648.576 -829.821)" fill="#e4f8ff"/>
      </g>
      <g id="Group_3351" data-name="Group 3351" transform="translate(658.594 613.399)">
        <path id="Path_6726" data-name="Path 6726" d="M794.242,842.111l-19.88-11.477L693.741,877.18v93.094l80.621,46.546,19.88-11.477v.813l-19.7,11.376-.176.1-81.149-46.851-.176-.1V876.773l81.149-46.851.176-.1,19.88,11.478Z" transform="translate(-693.038 -829.82)" fill="#e4f8ff"/>
      </g>
      <g id="Group_3352" data-name="Group 3352" transform="translate(415.678 473.149)">
        <path id="Path_6727" data-name="Path 6727" d="M707.669,868.327l-.175.1-81.15,46.851v93.905l.175.1,81.15,46.85.175-.1,81.15-46.851V915.28l-.175-.1Zm-80.622,47.361,80.622-46.549,80.622,46.549v93.093l-80.622,46.544-80.622-46.544Z" transform="translate(-626.344 -868.327)" fill="#e4f8ff"/>
      </g>
      <g id="Group_3353" data-name="Group 3353" transform="translate(577.625 473.149)">
        <path id="Path_6728" data-name="Path 6728" d="M752.128,868.327l-.175.1L670.807,915.28v93.905l.175.1,81.146,46.85.178-.1,81.146-46.851V915.28l-.175-.1ZM671.51,915.688l80.618-46.549,80.622,46.549v93.093l-80.622,46.544-80.618-46.544Z" transform="translate(-670.807 -868.327)" fill="#e4f8ff"/>
      </g>
      <g id="Group_3354" data-name="Group 3354" transform="translate(739.568 508.421)">
        <path id="Path_6729" data-name="Path 6729" d="M735.5,878.823,715.973,890.1v93.093L735.5,994.466v.813L715.445,983.7l-.176-.1V889.691L735.5,878.011Z" transform="translate(-715.269 -878.011)" fill="#e4f8ff"/>
      </g>
      <g id="Group_3355" data-name="Group 3355" transform="translate(496.653 332.9)">
        <path id="Path_6730" data-name="Path 6730" d="M729.9,906.833l-.178.1-81.146,46.851v93.905l.175.1,81.15,46.851.175-.1,81.146-46.85V953.786l-.175-.1Zm-80.622,47.361L729.9,907.645l80.618,46.548v93.093L729.9,1093.831l-80.622-46.544Z" transform="translate(-648.576 -906.833)" fill="#e4f8ff"/>
      </g>
      <g id="Group_3356" data-name="Group 3356" transform="translate(658.594 332.9)">
        <path id="Path_6731" data-name="Path 6731" d="M794.242,919.123l-19.88-11.477-80.621,46.546v93.093l80.621,46.546,19.88-11.477v.813l-19.7,11.376-.176.1-81.149-46.851-.176-.1V953.785l81.149-46.851.176-.1,19.88,11.478Z" transform="translate(-693.038 -906.833)" fill="#e4f8ff"/>
      </g>
      <g id="Group_3357" data-name="Group 3357" transform="translate(739.568 227.923)">
        <path id="Path_6732" data-name="Path 6732" d="M735.5,955.836,715.973,967.11V1060.2l19.528,11.275v.813l-20.056-11.579-.176-.1V966.7L735.5,955.023Z" transform="translate(-715.269 -955.023)" fill="#e4f8ff"/>
      </g>
      <g id="Group_3358" data-name="Group 3358" transform="translate(415.678 0)">
        <path id="Path_6733" data-name="Path 6733" d="M627.047,1022.35v52.605l80.622,46.546,80.621-46.546V1022.35h.7v53.011l-81.149,46.851-.175.1-81.15-46.851-.175-.1V1022.35Z" transform="translate(-626.344 -1022.35)" fill="#e4f8ff"/>
      </g>
      <g id="Group_3359" data-name="Group 3359" transform="translate(577.624 0)">
        <path id="Path_6734" data-name="Path 6734" d="M671.51,1022.35v52.605l80.618,46.546,80.622-46.546V1022.35h.7v53.011l-81.149,46.851-.176.1-81.146-46.851-.176-.1V1022.35Z" transform="translate(-670.807 -1022.35)" fill="#e4f8ff"/>
      </g>
      <g id="Group_3360" data-name="Group 3360" transform="translate(180.18 1088.236)">
        <path id="Path_6735" data-name="Path 6735" d="M772.747,855.309V775.646l-103.7-59.869-103.7,59.869v79.663h-3.666V773.531L669.05,711.546l107.363,61.985v81.779Z" transform="translate(-561.687 -711.546)" fill="#e4f8ff"/>
      </g>
      <g id="Group_3361" data-name="Group 3361" transform="translate(391.24 1088.236)">
        <path id="Path_6736" data-name="Path 6736" d="M830.695,855.309V775.646L727,715.777,623.3,775.646v79.663h-3.666V773.531L727,711.546l107.363,61.985v81.779Z" transform="translate(-619.635 -711.546)" fill="#e4f8ff"/>
      </g>
      <g id="Group_3362" data-name="Group 3362" transform="translate(602.3 1088.236)">
        <path id="Path_6737" data-name="Path 6737" d="M681.248,775.646v79.663h-3.666V773.531l107.36-61.985,50.139,28.948v4.232l-50.139-28.948Z" transform="translate(-677.582 -711.546)" fill="#e4f8ff"/>
      </g>
      <g id="Group_3363" data-name="Group 3363" transform="translate(285.711 905.451)">
        <path id="Path_6738" data-name="Path 6738" d="M698.024,733.127,590.661,795.115V919.084l107.363,61.988,107.363-61.988V795.115Zm-103.7,64.1,103.7-59.868,103.7,59.868V916.971l-103.7,59.868-103.7-59.868Z" transform="translate(-590.661 -733.127)" fill="#e4f8ff"/>
      </g>
      <g id="Group_3364" data-name="Group 3364" transform="translate(496.77 905.451)">
        <path id="Path_6739" data-name="Path 6739" d="M755.971,733.127,648.608,795.115V919.084l107.363,61.988,107.359-61.988V795.115Zm-103.7,64.1,103.7-59.868,103.7,59.868V916.971l-103.7,59.868-103.7-59.868Z" transform="translate(-648.608 -733.127)" fill="#e4f8ff"/>
      </g>
      <g id="Group_3365" data-name="Group 3365" transform="translate(707.827 937.432)">
        <path id="Path_6740" data-name="Path 6740" d="M758.527,746.139l-48.307,27.89v119.74l48.307,27.889v4.232l-51.972-30.006V771.913l51.972-30.006Z" transform="translate(-706.555 -741.907)" fill="#e4f8ff"/>
      </g>
      <g id="Group_3366" data-name="Group 3366" transform="translate(391.242 722.671)">
        <path id="Path_6741" data-name="Path 6741" d="M726.995,783.311l-107.36,61.984V969.267l107.36,61.984,107.363-61.984V845.295Zm-103.7,64.1,103.7-59.872,103.7,59.872v119.74l-103.7,59.868L623.3,967.151Z" transform="translate(-619.635 -783.311)" fill="#e4f8ff"/>
      </g>
      <g id="Group_3367" data-name="Group 3367" transform="translate(602.3 722.67)">
        <path id="Path_6742" data-name="Path 6742" d="M835.081,816.49l-50.139-28.948L681.248,847.411v119.74l103.694,59.869,50.139-28.948v4.231l-50.139,28.948-107.36-61.985V845.3l107.36-61.985,50.139,28.948Z" transform="translate(-677.582 -783.311)" fill="#e4f8ff"/>
      </g>
      <g id="Group_3368" data-name="Group 3368" transform="translate(707.827 571.866)">
        <path id="Path_6743" data-name="Path 6743" d="M758.527,846.506,710.219,874.4v119.74l48.307,27.89v4.232l-51.972-30.006V872.28l51.972-30.006Z" transform="translate(-706.555 -842.275)" fill="#e4f8ff"/>
      </g>
      <g id="Group_3369" data-name="Group 3369" transform="translate(496.77 174.323)">
        <path id="Path_6744" data-name="Path 6744" d="M755.971,933.862,648.608,995.846v123.972L755.971,1181.8l107.359-61.984V995.846Zm-103.7,64.1,103.7-59.872,103.7,59.872V1117.7l-103.7,59.868-103.7-59.868Z" transform="translate(-648.608 -933.862)" fill="#e4f8ff"/>
      </g>
      <g id="Group_3370" data-name="Group 3370" transform="translate(391.24 0)">
        <path id="Path_6745" data-name="Path 6745" d="M719.67,984.046l-96.37,55.639v119.74L727,1219.294l103.7-59.869v-119.74l-96.369-55.639h7.329l92.707,53.523v123.972L727,1223.525l-107.364-61.985V1037.569l92.707-53.523Z" transform="translate(-619.635 -984.046)" fill="#e4f8ff"/>
      </g>
      <g id="Group_3371" data-name="Group 3371" transform="translate(602.3 0)">
        <path id="Path_6746" data-name="Path 6746" d="M784.942,1219.294l50.139-28.948v4.231l-50.139,28.948-107.36-61.985V1037.569l92.7-53.523h7.329l-96.366,55.639v119.74Z" transform="translate(-677.582 -984.046)" fill="#e4f8ff"/>
        <path id="Path_6747" data-name="Path 6747" d="M751.881,1067.727,709.07,1043.01H716.4l35.483,20.485Z" transform="translate(-594.382 -1043.01)" fill="#e4f8ff"/>
      </g>
      <g id="Group_3374" data-name="Group 3374" transform="translate(505.929 0)">
        <path id="Path_6750" data-name="Path 6750" d="M658.453,1034.23l90.874,52.465,90.87-52.465h7.329l-98.2,56.7-98.2-56.7Z" transform="translate(-651.123 -1034.23)" fill="#e4f8ff"/>
      </g>
      <g id="Group_3375" data-name="Group 3375" transform="translate(716.987 0)">
        <path id="Path_6751" data-name="Path 6751" d="M751.882,1067.727l-42.813-24.717H716.4l35.483,20.486Z" transform="translate(-709.069 -1043.01)" fill="#e4f8ff"/>
      </g>
      <path id="Path_6752" data-name="Path 6752" d="M523.382,785.021a11.165,11.165,0,1,1,11.167-11.167A11.165,11.165,0,0,1,523.382,785.021Z" transform="translate(-512.218 260.698)" fill="#e4f8ff"/>
      <path id="Path_6753" data-name="Path 6753" d="M520.354,789.507a6.989,6.989,0,1,1-6.99,6.989A6.989,6.989,0,0,1,520.354,789.507Z" transform="translate(-509.19 144.558)" fill="#e4f8ff"/>
      <path id="Path_6754" data-name="Path 6754" d="M542.078,802.536a6.287,6.287,0,1,1-6.29,6.286A6.288,6.288,0,0,1,542.078,802.536Z" transform="translate(-449.94 85.48)" fill="#e4f8ff"/>
      <ellipse id="Ellipse_49" data-name="Ellipse 49" cx="3.239" cy="3.239" rx="3.239" ry="3.239" transform="translate(88.898 1078.063)" fill="#e4f8ff"/>
      <path id="Path_6755" data-name="Path 6755" d="M564.394,764a6.4,6.4,0,1,1-6.407,6.4A6.406,6.406,0,0,1,564.394,764Z" transform="translate(-391.284 264.151)" fill="#e4f8ff"/>
      <path id="Path_6756" data-name="Path 6756" d="M567.905,810.83a11.245,11.245,0,1,1,11.247-11.244A11.246,11.246,0,0,1,567.905,810.83Z" transform="translate(-394.795 141.468)" fill="#e4f8ff"/>
      <path id="Path_6757" data-name="Path 6757" d="M585.418,751.619a4.74,4.74,0,1,1-4.742,4.742A4.742,4.742,0,0,1,585.418,751.619Z" transform="translate(-331.333 324.942)" fill="#e4f8ff"/>
      <path id="Path_6758" data-name="Path 6758" d="M610.548,763.357a8.738,8.738,0,1,1-8.738,8.738A8.738,8.738,0,0,1,610.548,763.357Z" transform="translate(-275.492 262.456)" fill="#e4f8ff"/>
      <ellipse id="Ellipse_50" data-name="Ellipse 50" cx="10.429" cy="10.429" rx="10.429" ry="10.429" transform="translate(324.627 930.624)" fill="#e4f8ff"/>
      <path id="Path_6759" data-name="Path 6759" d="M630.393,751.424a5.451,5.451,0,1,1-5.449,5.453A5.448,5.448,0,0,1,630.393,751.424Z" transform="translate(-214.365 324.427)" fill="#e4f8ff"/>
      <path id="Path_6760" data-name="Path 6760" d="M653.219,764.035a6.268,6.268,0,1,1-6.268,6.268A6.271,6.271,0,0,1,653.219,764.035Z" transform="translate(-156.217 264.248)" fill="#e4f8ff"/>
      <circle id="Ellipse_51" data-name="Ellipse 51" cx="4.469" cy="4.469" r="4.469" transform="translate(492.533 936.584)" fill="#e4f8ff"/>
      <path id="Path_6761" data-name="Path 6761" d="M673.96,751.764a4.212,4.212,0,1,1-4.214,4.214A4.214,4.214,0,0,1,673.96,751.764Z" transform="translate(-95.986 325.325)" fill="#e4f8ff"/>
      <path id="Path_6762" data-name="Path 6762" d="M697.952,763.934a6.636,6.636,0,1,1-6.64,6.636A6.637,6.637,0,0,1,697.952,763.934Z" transform="translate(-39.003 263.981)" fill="#e4f8ff"/>
      <ellipse id="Ellipse_52" data-name="Ellipse 52" cx="7.537" cy="7.537" rx="7.537" ry="7.537" transform="translate(651.411 933.516)" fill="#e4f8ff"/>
      <path id="Path_6763" data-name="Path 6763" d="M719.958,751.182a6.332,6.332,0,1,1-6.33,6.334A6.333,6.333,0,0,1,719.958,751.182Z" transform="translate(19.962 323.788)" fill="#e4f8ff"/>
      <path id="Path_6764" data-name="Path 6764" d="M543.643,827.614a8.445,8.445,0,1,1-8.447,8.446A8.444,8.444,0,0,1,543.643,827.614Z" transform="translate(-451.504 -35.256)" fill="#e4f8ff"/>
      <path id="Path_6765" data-name="Path 6765" d="M585.112,811.712a4.318,4.318,0,1,1,4.316-4.32A4.32,4.32,0,0,1,585.112,811.712Z" transform="translate(-331.027 86.91)" fill="#e4f8ff"/>
      <path id="Path_6766" data-name="Path 6766" d="M587.791,827.733a8.011,8.011,0,1,1-8.013,8.013A8.012,8.012,0,0,1,587.791,827.733Z" transform="translate(-333.706 -34.941)" fill="#e4f8ff"/>
      <ellipse id="Ellipse_53" data-name="Ellipse 53" cx="5.057" cy="5.057" rx="5.057" ry="5.057" transform="translate(329.999 748.997)" fill="#e4f8ff"/>
      <path id="Path_6767" data-name="Path 6767" d="M635.022,824.68a11.834,11.834,0,1,1,11.834-11.834A11.83,11.83,0,0,1,635.022,824.68Z" transform="translate(-218.994 81.455)" fill="#e4f8ff"/>
      <path id="Path_6768" data-name="Path 6768" d="M677.268,801.852a8.776,8.776,0,1,1-8.774,8.774A8.775,8.775,0,0,1,677.268,801.852Z" transform="translate(-99.294 83.676)" fill="#e4f8ff"/>
      <path id="Path_6769" data-name="Path 6769" d="M699.482,840.366a8.747,8.747,0,1,1-8.749,8.745A8.745,8.745,0,0,1,699.482,840.366Z" transform="translate(-40.532 -95.058)" fill="#e4f8ff"/>
      <path id="Path_6770" data-name="Path 6770" d="M678.383,827.1a10.313,10.313,0,1,1-10.311,10.315A10.312,10.312,0,0,1,678.383,827.1Z" transform="translate(-100.409 -36.611)" fill="#e4f8ff"/>
      <path id="Path_6771" data-name="Path 6771" d="M722.17,801.687a9.379,9.379,0,1,1-9.379,9.379A9.379,9.379,0,0,1,722.17,801.687Z" transform="translate(17.751 83.236)" fill="#e4f8ff"/>
      <path id="Path_6772" data-name="Path 6772" d="M571.354,847.645a6.727,6.727,0,1,1-6.727-6.724A6.728,6.728,0,0,1,571.354,847.645Z" transform="translate(-391.516 -93.592)" fill="#e4f8ff"/>
      <ellipse id="Ellipse_54" data-name="Ellipse 54" cx="5.423" cy="5.423" rx="5.423" ry="5.423" transform="translate(410.606 795.381)" fill="#e4f8ff"/>
      <path id="Path_6773" data-name="Path 6773" d="M652.887,841.172a5.811,5.811,0,1,1-5.809,5.809A5.809,5.809,0,0,1,652.887,841.172Z" transform="translate(-155.884 -92.929)" fill="#e4f8ff"/>
      <ellipse id="Ellipse_55" data-name="Ellipse 55" cx="5.756" cy="5.756" rx="5.756" ry="5.756" transform="translate(734.165 608.049)" fill="#e4f8ff"/>
      <path id="Path_6774" data-name="Path 6774" d="M698.573,881.369a7.494,7.494,0,1,1,7.492-7.492A7.493,7.493,0,0,1,698.573,881.369Z" transform="translate(-39.624 -213.321)" fill="#e4f8ff"/>
      <ellipse id="Ellipse_56" data-name="Ellipse 56" cx="7.166" cy="7.166" rx="7.166" ry="7.166" transform="translate(732.755 793.638)" fill="#e4f8ff"/>
      <path id="Path_6775" data-name="Path 6775" d="M610.487,883.374a8.656,8.656,0,1,1,8.654-8.654A8.655,8.655,0,0,1,610.487,883.374Z" transform="translate(-275.431 -214.164)" fill="#e4f8ff"/>
      <path id="Path_6776" data-name="Path 6776" d="M623.973,887.791a8.987,8.987,0,1,1,8.986,8.989A8.986,8.986,0,0,1,623.973,887.791Z" transform="translate(-216.931 -273.988)" fill="#e4f8ff"/>
      <ellipse id="Ellipse_57" data-name="Ellipse 57" cx="5.431" cy="5.431" rx="5.431" ry="5.431" transform="translate(491.57 468.125)" fill="#e4f8ff"/>
      <ellipse id="Ellipse_58" data-name="Ellipse 58" cx="7.073" cy="7.073" rx="7.073" ry="7.073" transform="translate(408.956 513.232)" fill="#e4f8ff"/>
      <ellipse id="Ellipse_59" data-name="Ellipse 59" cx="7.547" cy="7.547" rx="7.547" ry="7.547" transform="translate(489.455 653.008)" fill="#e4f8ff"/>
      <ellipse id="Ellipse_60" data-name="Ellipse 60" cx="10.72" cy="10.72" rx="10.72" ry="10.72" transform="translate(567.255 509.586)" fill="#e4f8ff"/>
      <path id="Path_6777" data-name="Path 6777" d="M697.529,918.117a6.055,6.055,0,1,1-6.057,6.057A6.054,6.054,0,0,1,697.529,918.117Z" transform="translate(-38.58 -450.617)" fill="#e4f8ff"/>
      <path id="Path_6778" data-name="Path 6778" d="M678.6,878.362a10.606,10.606,0,1,1-10.606,10.606A10.607,10.607,0,0,1,678.6,878.362Z" transform="translate(-100.623 -275.165)" fill="#e4f8ff"/>
      <ellipse id="Ellipse_61" data-name="Ellipse 61" cx="4.811" cy="4.811" rx="4.811" ry="4.811" transform="translate(735.11 515.494)" fill="#e4f8ff"/>
      <path id="Path_6779" data-name="Path 6779" d="M652.295,1005.407a4.994,4.994,0,1,1,4.994-4.994A4.994,4.994,0,0,1,652.295,1005.407Z" transform="translate(-155.292 -807.355)" fill="#e4f8ff"/>
      <path id="Path_6780" data-name="Path 6780" d="M652.9,943.849a5.831,5.831,0,1,1-5.831,5.831A5.832,5.832,0,0,1,652.9,943.849Z" transform="translate(-155.9 -569.624)" fill="#e4f8ff"/>
      <path id="Path_6781" data-name="Path 6781" d="M679.163,977.928a11.384,11.384,0,1,1,11.385-11.382A11.385,11.385,0,0,1,679.163,977.928Z" transform="translate(-101.189 -633.238)" fill="#e4f8ff"/>
      <path id="Path_6782" data-name="Path 6782" d="M697.627,943.75a6.192,6.192,0,1,1-6.192,6.192A6.191,6.191,0,0,1,697.627,943.75Z" transform="translate(-38.678 -569.885)" fill="#e4f8ff"/>
      <path id="Path_6783" data-name="Path 6783" d="M722.093,955.739a9.273,9.273,0,1,1-9.273,9.273A9.271,9.271,0,0,1,722.093,955.739Z" transform="translate(17.828 -631.704)" fill="#e4f8ff"/>
      <path id="Path_6784" data-name="Path 6784" d="M724.339,1005.3a12.369,12.369,0,1,1,12.369-12.369A12.369,12.369,0,0,1,724.339,1005.3Z" transform="translate(15.581 -753.122)" fill="#e4f8ff"/>
      <path id="Path_6785" data-name="Path 6785" d="M660.267,1027.337a6.72,6.72,0,1,1-6.72-6.72A6.72,6.72,0,0,1,660.267,1027.337Z" transform="translate(-156.544 -927.779)" fill="#e4f8ff"/>
      <path id="Path_6786" data-name="Path 6786" d="M699.487,994.387a8.756,8.756,0,1,1-8.756,8.756A8.757,8.757,0,0,1,699.487,994.387Z" transform="translate(-40.538 -810.084)" fill="#e4f8ff"/>
      <path id="Path_6787" data-name="Path 6787" d="M699.479,1037.551a8.745,8.745,0,1,1,8.741-8.745A8.745,8.745,0,0,1,699.479,1037.551Z" transform="translate(-40.53 -929.248)" fill="#e4f8ff"/>
      <path id="Path_6788" data-name="Path 6788" d="M631.484,1033.387a6.957,6.957,0,1,1-6.953,6.957A6.956,6.956,0,0,1,631.484,1033.387Z" transform="translate(-215.456 -987.535)" fill="#e4f8ff"/>
      <path id="Path_6789" data-name="Path 6789" d="M676.486,1033.184a7.7,7.7,0,1,1-7.7,7.7A7.7,7.7,0,0,1,676.486,1033.184Z" transform="translate(-98.512 -988.071)" fill="#e4f8ff"/>
    </g>
    <g id="Group_3402" data-name="Group 3402" transform="translate(0 15.48)" opacity="0.2">
      <g id="Group_3377" data-name="Group 3377" transform="translate(20.915 1059.79)">
        <path id="Path_6790" data-name="Path 6790" d="M705.8,868.276V769.35l-98.4-56.812L509,769.35v98.926h-.858V768.854l99.045-57.184.215-.124,99.046,57.183.215.124v99.422Z" transform="translate(-508.142 -711.546)" fill="#e4f8ff"/>
      </g>
      <g id="Group_3378" data-name="Group 3378" transform="translate(218.576 1059.79)">
        <path id="Path_6791" data-name="Path 6791" d="M760.074,868.276V769.35l-98.4-56.812-98.4,56.812v98.926h-.859V768.854l99.045-57.184.215-.124,99.046,57.183.214.124v99.422Z" transform="translate(-562.411 -711.546)" fill="#e4f8ff"/>
      </g>
      <g id="Group_3379" data-name="Group 3379" transform="translate(416.239 1059.79)">
        <path id="Path_6792" data-name="Path 6792" d="M814.342,868.276V769.35l-98.4-56.812-98.4,56.812v98.926h-.858V768.854l99.046-57.184.214-.124,99.046,57.183.214.124v99.422Z" transform="translate(-616.68 -711.546)" fill="#e4f8ff"/>
      </g>
      <g id="Group_3380" data-name="Group 3380" transform="translate(613.901 1059.79)">
        <path id="Path_6793" data-name="Path 6793" d="M671.807,769.35v98.926h-.858V768.854l99.042-57.184.214-.124,62.566,36.122v.992L770.2,712.538Z" transform="translate(-670.949 -711.546)" fill="#e4f8ff"/>
      </g>
      <g id="Group_3381" data-name="Group 3381" transform="translate(317.406 888.609)">
        <path id="Path_6794" data-name="Path 6794" d="M688.808,738.638l-.215.124-99.048,57.184V910.564l.215.124,99.048,57.184.215-.128,99.044-57.18V795.946l-.215-.124Zm-98.4,57.8,98.4-56.808,98.4,56.808V910.065l-98.4,56.812-98.4-56.812Z" transform="translate(-589.545 -738.638)" fill="#e4f8ff"/>
      </g>
      <g id="Group_3382" data-name="Group 3382" transform="translate(515.069 888.609)">
        <path id="Path_6795" data-name="Path 6795" d="M743.077,738.638l-.215.124-99.048,57.184V910.564l.215.124,99.048,57.184.211-.128,99.044-57.18V795.946l-.215-.124Zm-98.4,57.8,98.4-56.808,98.4,56.808V910.065l-98.4,56.812-98.4-56.812Z" transform="translate(-643.814 -738.638)" fill="#e4f8ff"/>
      </g>
      <g id="Group_3383" data-name="Group 3383" transform="translate(712.729 909.548)">
        <path id="Path_6796" data-name="Path 6796" d="M761.077,745.379,698.94,781.253V894.877l62.137,35.874v.992L698.3,895.5l-.214-.124V780.756l62.995-36.37Z" transform="translate(-698.082 -744.387)" fill="#e4f8ff"/>
      </g>
      <g id="Group_3384" data-name="Group 3384" transform="translate(416.239 717.43)">
        <path id="Path_6797" data-name="Path 6797" d="M715.939,785.637l-.215.124L616.68,842.944V957.56l.215.127,99.044,57.18.215-.124L815.2,957.56V842.944l-.215-.124Zm-98.4,57.8,98.4-56.809,98.4,56.809V957.064l-98.4,56.812-98.4-56.812Z" transform="translate(-616.68 -785.637)" fill="#e4f8ff"/>
      </g>
      <g id="Group_3385" data-name="Group 3385" transform="translate(613.901 717.43)">
        <path id="Path_6798" data-name="Path 6798" d="M832.771,822.75,770.2,786.629l-98.4,56.811V957.064l98.4,56.811,62.566-36.121v.992l-62.351,36-.215.124-99.042-57.184-.215-.124V842.944l99.042-57.183.214-.124,62.566,36.122Z" transform="translate(-670.949 -785.636)" fill="#e4f8ff"/>
      </g>
      <g id="Group_3386" data-name="Group 3386" transform="translate(515.069 546.25)">
        <path id="Path_6799" data-name="Path 6799" d="M743.077,832.635l-.215.124-99.048,57.184v114.615l.215.124,99.048,57.184.211-.124,99.044-57.184V889.942l-.215-.124Zm-98.4,57.8,98.4-56.812,98.4,56.812v113.624l-98.4,56.812-98.4-56.812Z" transform="translate(-643.814 -832.635)" fill="#e4f8ff"/>
      </g>
      <g id="Group_3387" data-name="Group 3387" transform="translate(712.729 567.188)">
        <path id="Path_6800" data-name="Path 6800" d="M761.077,839.375,698.94,875.249V988.873l62.137,35.874v.992L698.3,989.493l-.214-.124V874.753l62.995-36.369Z" transform="translate(-698.082 -838.383)" fill="#e4f8ff"/>
      </g>
      <g id="Group_3388" data-name="Group 3388" transform="translate(416.239 32.712)">
        <path id="Path_6801" data-name="Path 6801" d="M715.939,973.629l-.215.123-99.044,57.184v114.615l.215.124,99.044,57.183.215-.124,99.044-57.183V1030.937l-.215-.124Zm-98.4,57.8,98.4-56.812,98.4,56.812v113.625l-98.4,56.812-98.4-56.812Z" transform="translate(-616.68 -973.629)" fill="#e4f8ff"/>
      </g>
      <g id="Group_3389" data-name="Group 3389" transform="translate(613.901 32.711)">
        <path id="Path_6802" data-name="Path 6802" d="M832.771,1010.743,770.2,974.621l-98.4,56.811v113.625l98.4,56.811,62.566-36.121v.991l-62.351,36-.215.124-99.042-57.183-.215-.124V1030.936l99.042-57.184.214-.124,62.566,36.122Z" transform="translate(-670.949 -973.629)" fill="#e4f8ff"/>
      </g>
      <g id="Group_3390" data-name="Group 3390" transform="translate(515.07 0)">
        <path id="Path_6803" data-name="Path 6803" d="M644.673,1020.627v32.959l98.4,56.811,98.4-56.811v-32.959h.858v33.455l-99.042,57.183-.215.124-99.045-57.184-.215-.124v-33.455Z" transform="translate(-643.814 -1020.627)" fill="#e4f8ff"/>
      </g>
      <g id="Group_3391" data-name="Group 3391" transform="translate(712.729 0)">
        <path id="Path_6804" data-name="Path 6804" d="M761.077,1096.2l-62.78-36.246-.214-.124v-33.455h.858v32.959l62.137,35.874Z" transform="translate(-698.082 -1026.375)" fill="#e4f8ff"/>
      </g>
      <g id="Group_3392" data-name="Group 3392" transform="translate(386.411 1021.979)">
        <path id="Path_6805" data-name="Path 6805" d="M866.1,906.086v-116.3L739.532,716.711,612.965,789.783v116.3H608.49V787.2l131.041-75.655L870.572,787.2V906.086Z" transform="translate(-608.49 -711.546)" fill="#e4f8ff"/>
      </g>
      <g id="Group_3393" data-name="Group 3393" transform="translate(644.019 1021.979)">
        <path id="Path_6806" data-name="Path 6806" d="M683.691,789.783v116.3h-4.473V787.2l131.036-75.655.669.386V717.1l-.669-.386Z" transform="translate(-679.218 -711.546)" fill="#e4f8ff"/>
      </g>
      <g id="Group_3394" data-name="Group 3394" transform="translate(772.818 872.863)">
        <path id="Path_6807" data-name="Path 6807" d="M717.485,918.1l-2.905-1.677V765.111l2.905-1.677Z" transform="translate(-714.58 -763.434)" fill="#e4f8ff"/>
      </g>
      <g id="Group_3395" data-name="Group 3395" transform="translate(515.215 352.696)">
        <path id="Path_6808" data-name="Path 6808" d="M904.364,1093.5,774.9,1168.251l-131.041-75.657V941.282L774.9,865.625l129.469,74.75ZM774.9,870.79,648.33,943.865v146.146L774.9,1163.086l126.562-73.075V943.865Z" transform="translate(-643.854 -865.625)" fill="#e4f8ff"/>
      </g>
      <g id="Group_3396" data-name="Group 3396" transform="translate(386.413 129.603)">
        <path id="Path_6809" data-name="Path 6809" d="M739.529,926.877l-131.038,75.657v151.311L739.529,1229.5l131.042-75.654V1002.534Zm-126.565,78.236,126.565-73.071L866.1,1005.113v146.15l-126.569,73.071-126.565-73.071Z" transform="translate(-608.491 -926.877)" fill="#e4f8ff"/>
      </g>
      <g id="Group_3397" data-name="Group 3397" transform="translate(644.019 129.603)">
        <path id="Path_6810" data-name="Path 6810" d="M810.922,932.427l-.669-.386-126.562,73.072v146.148l126.562,73.073.669-.386v5.165l-.669.386-131.036-75.655V1002.532l131.036-75.655.669.386Z" transform="translate(-679.218 -926.877)" fill="#e4f8ff"/>
      </g>
      <g id="Group_3398" data-name="Group 3398" transform="translate(0 0)">
        <path id="Path_6811" data-name="Path 6811" d="M506.874,988.128v130.895L633.441,1192.1l126.566-73.072V988.128h4.475v133.477L633.441,1197.26,502.4,1121.605V988.128Z" transform="translate(-502.4 -988.128)" fill="#e4f8ff"/>
      </g>
      <g id="Group_3399" data-name="Group 3399" transform="translate(257.607 0)">
        <path id="Path_6812" data-name="Path 6812" d="M577.6,988.128v130.895L704.168,1192.1l126.567-73.072V988.128h4.474v133.477L704.168,1197.26l-131.041-75.655V988.128Z" transform="translate(-573.127 -988.128)" fill="#e4f8ff"/>
      </g>
      <g id="Group_3400" data-name="Group 3400" transform="translate(515.215 0)">
        <path id="Path_6813" data-name="Path 6813" d="M904.363,988.128v134.382L774.895,1197.26l-131.04-75.655V988.128h4.474v130.895L774.895,1192.1l126.563-73.072V988.128Z" transform="translate(-643.854 -988.128)" fill="#e4f8ff"/>
      </g>
      <g id="Group_3401" data-name="Group 3401" transform="translate(772.818 0)">
        <path id="Path_6814" data-name="Path 6814" d="M717.485,1143.593l-2.905-1.677V1008.439h2.905Z" transform="translate(-714.58 -1008.439)" fill="#e4f8ff"/>
      </g>
      <ellipse id="Ellipse_62" data-name="Ellipse 62" cx="10.308" cy="10.308" rx="10.308" ry="10.308" transform="translate(11.036 1107.038)" fill="#e4f8ff"/>
      <path id="Path_6815" data-name="Path 6815" d="M569.624,736.09a9.778,9.778,0,1,1-9.78,9.776A9.777,9.777,0,0,1,569.624,736.09Z" transform="translate(-350.617 371.478)" fill="#e4f8ff"/>
      <ellipse id="Ellipse_63" data-name="Ellipse 63" cx="6.172" cy="6.172" rx="6.172" ry="6.172" transform="translate(311.664 1054.113)" fill="#e4f8ff"/>
      <path id="Path_6816" data-name="Path 6816" d="M705.945,751.51a10.676,10.676,0,1,1-10.676,10.676A10.68,10.68,0,0,1,705.945,751.51Z" transform="translate(7.213 298.099)" fill="#e4f8ff"/>
      <circle id="Ellipse_64" data-name="Ellipse 64" cx="12.587" cy="12.587" r="12.587" transform="translate(601.742 1104.759)" fill="#e4f8ff"/>
      <path id="Path_6817" data-name="Path 6817" d="M549.559,760.4a8.21,8.21,0,1,1-8.21-8.21A8.209,8.209,0,0,1,549.559,760.4Z" transform="translate(-421.176 299.887)" fill="#e4f8ff"/>
      <ellipse id="Ellipse_65" data-name="Ellipse 65" cx="6.619" cy="6.619" rx="6.619" ry="6.619" transform="translate(410.048 1110.726)" fill="#e4f8ff"/>
      <ellipse id="Ellipse_66" data-name="Ellipse 66" cx="7.092" cy="7.092" rx="7.092" ry="7.092" transform="translate(508.406 1053.194)" fill="#e4f8ff"/>
      <path id="Path_6818" data-name="Path 6818" d="M704.838,801.553a9.146,9.146,0,1,1,9.142-9.146A9.148,9.148,0,0,1,704.838,801.553Z" transform="translate(8.323 153.757)" fill="#e4f8ff"/>
      <ellipse id="Ellipse_67" data-name="Ellipse 67" cx="10.564" cy="10.564" rx="10.564" ry="10.564" transform="translate(307.272 935.602)" fill="#e4f8ff"/>
      <path id="Path_6819" data-name="Path 6819" d="M613.786,809.4a10.969,10.969,0,1,1,10.967,10.971A10.969,10.969,0,0,1,613.786,809.4Z" transform="translate(-208.087 79.707)" fill="#e4f8ff"/>
      <ellipse id="Ellipse_68" data-name="Ellipse 68" cx="6.629" cy="6.629" rx="6.629" ry="6.629" transform="translate(508.868 711.296)" fill="#e4f8ff"/>
      <path id="Path_6820" data-name="Path 6820" d="M623.059,847.666a8.632,8.632,0,1,1,8.632-8.632A8.632,8.632,0,0,1,623.059,847.666Z" transform="translate(-206.394 -64.049)" fill="#e4f8ff"/>
      <ellipse id="Ellipse_69" data-name="Ellipse 69" cx="9.211" cy="9.211" rx="9.211" ry="9.211" transform="translate(506.286 936.954)" fill="#e4f8ff"/>
      <ellipse id="Ellipse_70" data-name="Ellipse 70" cx="13.084" cy="13.084" rx="13.084" ry="13.084" transform="translate(601.245 761.902)" fill="#e4f8ff"/>
      <path id="Path_6821" data-name="Path 6821" d="M703.561,846.408a7.39,7.39,0,1,1-7.39,7.39A7.391,7.391,0,0,1,703.561,846.408Z" transform="translate(9.597 -135.873)" fill="#e4f8ff"/>
      <path id="Path_6822" data-name="Path 6822" d="M680.456,797.884a12.946,12.946,0,1,1-12.944,12.944A12.944,12.944,0,0,1,680.456,797.884Z" transform="translate(-66.128 78.276)" fill="#e4f8ff"/>
      <path id="Path_6823" data-name="Path 6823" d="M648.355,952.95a6.1,6.1,0,1,1,6.094-6.1A6.1,6.1,0,0,1,648.355,952.95Z" transform="translate(-132.856 -571.287)" fill="#e4f8ff"/>
      <ellipse id="Ellipse_71" data-name="Ellipse 71" cx="7.116" cy="7.116" rx="7.116" ry="7.116" transform="translate(508.381 596.689)" fill="#e4f8ff"/>
      <ellipse id="Ellipse_72" data-name="Ellipse 72" cx="13.896" cy="13.896" rx="13.896" ry="13.896" transform="translate(600.433 532.85)" fill="#e4f8ff"/>
      <path id="Path_6824" data-name="Path 6824" d="M703.684,877.694a7.558,7.558,0,1,1-7.558,7.558A7.557,7.557,0,0,1,703.684,877.694Z" transform="translate(9.477 -281.446)" fill="#e4f8ff"/>
      <path id="Path_6825" data-name="Path 6825" d="M658.085,979.715a8.2,8.2,0,1,1-8.2-8.2A8.2,8.2,0,0,1,658.085,979.715Z" transform="translate(-134.384 -718.269)" fill="#e4f8ff"/>
      <path id="Path_6826" data-name="Path 6826" d="M705.953,939.5a10.686,10.686,0,1,1-10.687,10.687A10.689,10.689,0,0,1,705.953,939.5Z" transform="translate(7.205 -574.62)" fill="#e4f8ff"/>
      <path id="Path_6827" data-name="Path 6827" d="M705.946,992.179a10.672,10.672,0,1,1,10.672-10.672A10.673,10.673,0,0,1,705.946,992.179Z" transform="translate(7.216 -720.061)" fill="#e4f8ff"/>
      <path id="Path_6828" data-name="Path 6828" d="M622.956,987.1a8.49,8.49,0,1,1-8.49,8.49A8.489,8.489,0,0,1,622.956,987.1Z" transform="translate(-206.291 -791.204)" fill="#e4f8ff"/>
      <ellipse id="Ellipse_73" data-name="Ellipse 73" cx="9.393" cy="9.393" rx="9.393" ry="9.393" transform="translate(604.935 194.993)" fill="#e4f8ff"/>
      <path id="Path_6829" data-name="Path 6829" d="M623.693,1037.166a9.506,9.506,0,1,1,9.506-9.506A9.509,9.509,0,0,1,623.693,1037.166Z" transform="translate(-207.028 -937.393)" fill="#e4f8ff"/>
      <path id="Path_6830" data-name="Path 6830" d="M642.476,1040.274a5.3,5.3,0,1,1,5.3,5.3A5.3,5.3,0,0,1,642.476,1040.274Z" transform="translate(-132.28 -1007.067)" fill="#e4f8ff"/>
      <path id="Path_6831" data-name="Path 6831" d="M678.229,1037.8a9.876,9.876,0,1,1,9.878-9.874A9.875,9.875,0,0,1,678.229,1037.8Z" transform="translate(-63.901 -937.663)" fill="#e4f8ff"/>
      <path id="Path_6832" data-name="Path 6832" d="M706.685,1056.6a11.692,11.692,0,1,1,11.692-11.692A11.692,11.692,0,0,1,706.685,1056.6Z" transform="translate(6.476 -1011.704)" fill="#e4f8ff"/>
    </g>
  </g>
</svg>
