<svg xmlns="http://www.w3.org/2000/svg" width="795.56" height="1232" viewBox="0 0 795.56 1232">
  <g id="shape-bg-left" transform="translate(0 0)" opacity="0.9">
    <g id="Group_3376" data-name="Group 3376" transform="translate(0 0)">
      <g id="Group_3339" data-name="Group 3339" transform="translate(586.336 150.291)">
        <path id="Path_6714" data-name="Path 6714" d="M596.512,940.619l.178-.1,81.146-46.851v-93.9l-.175-.1-81.15-46.85-.175.1-81.15,46.851v93.9l.178.1Zm80.622-47.357-80.622,46.545L515.89,893.263V800.169l80.622-46.548,80.622,46.548Z" transform="translate(-515.187 -752.809)" fill="#e4f8ff"/>
      </g>
      <g id="Group_3340" data-name="Group 3340" transform="translate(424.389 150.291)">
        <path id="Path_6715" data-name="Path 6715" d="M640.975,940.619l.178-.1L722.3,893.667v-93.9l-.175-.1-81.15-46.85-.175.1-81.15,46.851v93.9l.179.1ZM721.6,893.263l-80.622,46.545-80.622-46.545V800.169l80.622-46.548L721.6,800.169Z" transform="translate(-559.65 -752.809)" fill="#e4f8ff"/>
      </g>
      <g id="Group_3341" data-name="Group 3341" transform="translate(262.443 150.291)">
        <path id="Path_6716" data-name="Path 6716" d="M685.438,940.619l.178-.1,81.146-46.851v-93.9l-.175-.1-81.15-46.85-.175.1-81.15,46.851v93.9l.178.1Zm80.622-47.357-80.622,46.545-80.622-46.545V800.169l80.622-46.548,80.622,46.548Z" transform="translate(-604.113 -752.809)" fill="#e4f8ff"/>
      </g>
      <g id="Group_3342" data-name="Group 3342" transform="translate(100.501 150.291)">
        <path id="Path_6717" data-name="Path 6717" d="M729.9,940.619l.178-.1,81.146-46.851v-93.9l-.175-.1-81.15-46.85-.175.1-81.146,46.851v93.9l.175.1Zm80.622-47.357L729.9,939.807l-80.618-46.545V800.169L729.9,753.621l80.622,46.548Z" transform="translate(-648.576 -752.809)" fill="#e4f8ff"/>
      </g>
      <g id="Group_3343" data-name="Group 3343" transform="translate(0 150.29)">
        <path id="Path_6718" data-name="Path 6718" d="M693.038,928.33l19.88,11.477,80.621-46.546V800.168l-80.621-46.546L693.038,765.1v-.813l19.7-11.376.176-.1,81.149,46.851.176.1v93.906l-81.149,46.851-.176.1-19.88-11.478Z" transform="translate(-693.038 -752.809)" fill="#e4f8ff"/>
      </g>
      <g id="Group_3344" data-name="Group 3344" transform="translate(505.365 290.541)">
        <path id="Path_6719" data-name="Path 6719" d="M618.743,979.125l.175-.1,81.15-46.851v-93.9l-.175-.1-81.15-46.851-.175.1-81.15,46.851v93.9l.175.1Zm80.622-47.357-80.622,46.545-80.622-46.545v-93.1l80.622-46.544,80.622,46.544Z" transform="translate(-537.418 -791.315)" fill="#e4f8ff"/>
      </g>
      <g id="Group_3345" data-name="Group 3345" transform="translate(343.418 290.541)">
        <path id="Path_6720" data-name="Path 6720" d="M663.206,979.125l.175-.1,81.15-46.851v-93.9l-.175-.1-81.15-46.851-.175.1-81.15,46.851v93.9l.175.1Zm80.622-47.357-80.622,46.545-80.622-46.545v-93.1l80.622-46.544,80.622,46.544Z" transform="translate(-581.881 -791.315)" fill="#e4f8ff"/>
      </g>
      <g id="Group_3346" data-name="Group 3346" transform="translate(181.472 290.541)">
        <path id="Path_6721" data-name="Path 6721" d="M707.669,979.125l.175-.1,81.15-46.851v-93.9l-.175-.1-81.15-46.851-.175.1-81.15,46.851v93.9l.175.1Zm80.622-47.357-80.622,46.545-80.622-46.545v-93.1l80.622-46.544,80.622,46.544Z" transform="translate(-626.344 -791.315)" fill="#e4f8ff"/>
      </g>
      <g id="Group_3347" data-name="Group 3347" transform="translate(19.529 290.541)">
        <path id="Path_6722" data-name="Path 6722" d="M752.132,979.125l.175-.1,81.146-46.851v-93.9l-.175-.1-81.146-46.851-.178.1-81.146,46.851v93.9l.175.1Zm80.618-47.357-80.618,46.545L671.51,931.768v-93.1l80.622-46.544,80.618,46.544Z" transform="translate(-670.807 -791.315)" fill="#e4f8ff"/>
      </g>
      <g id="Group_3348" data-name="Group 3348" transform="translate(0 325.812)">
        <path id="Path_6723" data-name="Path 6723" d="M715.269,917.454,734.8,906.18V813.086l-19.528-11.275V801l20.056,11.579.176.1v93.906l-20.232,11.681Z" transform="translate(-715.269 -800.999)" fill="#e4f8ff"/>
      </g>
      <g id="Group_3349" data-name="Group 3349" transform="translate(262.443 430.79)">
        <path id="Path_6724" data-name="Path 6724" d="M685.438,1017.632l.178-.1,81.146-46.85V876.774l-.175-.1-81.15-46.851-.175.1-81.15,46.851v93.905l.178.1Zm80.622-47.357-80.622,46.545-80.622-46.545v-93.1l80.622-46.544,80.622,46.544Z" transform="translate(-604.113 -829.821)" fill="#e4f8ff"/>
      </g>
      <g id="Group_3350" data-name="Group 3350" transform="translate(100.501 430.79)">
        <path id="Path_6725" data-name="Path 6725" d="M729.9,1017.632l.178-.1,81.146-46.85V876.774l-.175-.1L729.9,829.821l-.175.1-81.146,46.851v93.905l.175.1Zm80.622-47.357L729.9,1016.819l-80.618-46.545v-93.1L729.9,830.633l80.622,46.544Z" transform="translate(-648.576 -829.821)" fill="#e4f8ff"/>
      </g>
      <g id="Group_3351" data-name="Group 3351" transform="translate(0 430.789)">
        <path id="Path_6726" data-name="Path 6726" d="M693.038,1005.342l19.88,11.477,80.621-46.546V877.18l-80.621-46.546-19.88,11.477V841.3l19.7-11.376.176-.1,81.149,46.851.176.1V970.68l-81.149,46.851-.176.1-19.88-11.478Z" transform="translate(-693.038 -829.821)" fill="#e4f8ff"/>
      </g>
      <g id="Group_3352" data-name="Group 3352" transform="translate(181.472 571.04)">
        <path id="Path_6727" data-name="Path 6727" d="M707.669,1056.137l.175-.1,81.15-46.851V915.28l-.175-.1-81.15-46.85-.175.1-81.15,46.851v93.905l.175.1Zm80.622-47.361-80.622,46.549-80.622-46.549V915.684l80.622-46.544,80.622,46.544Z" transform="translate(-626.344 -868.327)" fill="#e4f8ff"/>
      </g>
      <g id="Group_3353" data-name="Group 3353" transform="translate(19.529 571.04)">
        <path id="Path_6728" data-name="Path 6728" d="M752.132,1056.137l.175-.1,81.146-46.851V915.28l-.175-.1-81.146-46.85-.178.1L670.807,915.28v93.905l.175.1Zm80.618-47.361-80.618,46.549-80.622-46.549V915.684l80.622-46.544,80.618,46.544Z" transform="translate(-670.807 -868.327)" fill="#e4f8ff"/>
      </g>
      <g id="Group_3354" data-name="Group 3354" transform="translate(0 606.31)">
        <path id="Path_6729" data-name="Path 6729" d="M715.269,994.466,734.8,983.191V890.1l-19.528-11.275v-.813l20.056,11.579.176.1V983.6l-20.232,11.681Z" transform="translate(-715.269 -878.011)" fill="#e4f8ff"/>
      </g>
      <g id="Group_3355" data-name="Group 3355" transform="translate(100.501 711.289)">
        <path id="Path_6730" data-name="Path 6730" d="M729.9,1094.643l.178-.1,81.146-46.851V953.785l-.175-.1-81.15-46.85-.175.1-81.146,46.85v93.905l.175.1Zm80.622-47.361L729.9,1093.831l-80.618-46.548V954.19L729.9,907.645l80.622,46.544Z" transform="translate(-648.576 -906.833)" fill="#e4f8ff"/>
      </g>
      <g id="Group_3356" data-name="Group 3356" transform="translate(0 711.288)">
        <path id="Path_6731" data-name="Path 6731" d="M693.038,1082.354l19.88,11.477,80.621-46.546V954.192l-80.621-46.546-19.88,11.477v-.813l19.7-11.376.176-.1,81.149,46.851.176.1v93.907l-81.149,46.851-.176.1-19.88-11.478Z" transform="translate(-693.038 -906.833)" fill="#e4f8ff"/>
      </g>
      <g id="Group_3357" data-name="Group 3357" transform="translate(0 886.809)">
        <path id="Path_6732" data-name="Path 6732" d="M715.269,1071.478,734.8,1060.2V967.11l-19.528-11.275v-.813L735.325,966.6l.176.1v93.907l-20.232,11.681Z" transform="translate(-715.269 -955.023)" fill="#e4f8ff"/>
      </g>
      <g id="Group_3358" data-name="Group 3358" transform="translate(181.472 1132.035)">
        <path id="Path_6733" data-name="Path 6733" d="M788.29,1122.315v-52.605l-80.622-46.546-80.621,46.546v52.605h-.7V1069.3l81.149-46.851.175-.1,81.15,46.851.175.1v53.011Z" transform="translate(-626.344 -1022.35)" fill="#e4f8ff"/>
      </g>
      <g id="Group_3359" data-name="Group 3359" transform="translate(19.528 1132.035)">
        <path id="Path_6734" data-name="Path 6734" d="M832.751,1122.315v-52.605l-80.618-46.546-80.622,46.546v52.605h-.7V1069.3l81.149-46.851.176-.1,81.146,46.851.176.1v53.011Z" transform="translate(-670.807 -1022.35)" fill="#e4f8ff"/>
      </g>
      <g id="Group_3360" data-name="Group 3360" transform="translate(364.893)">
        <path id="Path_6735" data-name="Path 6735" d="M565.353,711.546v79.663l103.7,59.869,103.7-59.869V711.546h3.666v81.779L669.05,855.31,561.687,793.325V711.546Z" transform="translate(-561.687 -711.546)" fill="#e4f8ff"/>
      </g>
      <g id="Group_3361" data-name="Group 3361" transform="translate(153.833)">
        <path id="Path_6736" data-name="Path 6736" d="M623.3,711.546v79.663L727,851.078l103.7-59.869V711.546h3.666v81.779L727,855.31,619.635,793.325V711.546Z" transform="translate(-619.635 -711.546)" fill="#e4f8ff"/>
      </g>
      <g id="Group_3362" data-name="Group 3362">
        <path id="Path_6737" data-name="Path 6737" d="M831.415,791.209V711.546h3.666v81.779L727.721,855.31l-50.139-28.948V822.13l50.139,28.948Z" transform="translate(-677.582 -711.546)" fill="#e4f8ff"/>
      </g>
      <g id="Group_3363" data-name="Group 3363" transform="translate(259.362 78.604)">
        <path id="Path_6738" data-name="Path 6738" d="M698.024,981.071l107.363-61.988V795.115L698.024,733.127,590.661,795.115V919.084Zm103.7-64.1-103.7,59.868-103.7-59.868V797.228l103.7-59.868,103.7,59.868Z" transform="translate(-590.661 -733.127)" fill="#e4f8ff"/>
      </g>
      <g id="Group_3364" data-name="Group 3364" transform="translate(48.307 78.604)">
        <path id="Path_6739" data-name="Path 6739" d="M755.967,981.071l107.363-61.988V795.115L755.967,733.127,648.608,795.115V919.084Zm103.7-64.1-103.7,59.868-103.7-59.868V797.228l103.7-59.868,103.7,59.868Z" transform="translate(-648.608 -733.127)" fill="#e4f8ff"/>
      </g>
      <g id="Group_3365" data-name="Group 3365" transform="translate(0 110.584)">
        <path id="Path_6740" data-name="Path 6740" d="M706.555,921.659l48.307-27.89V774.029l-48.307-27.889v-4.232l51.972,30.006V895.885l-51.972,30.006Z" transform="translate(-706.555 -741.907)" fill="#e4f8ff"/>
      </g>
      <g id="Group_3366" data-name="Group 3366" transform="translate(153.834 261.388)">
        <path id="Path_6741" data-name="Path 6741" d="M727,1031.251l107.36-61.984V845.3L727,783.311,619.635,845.3V969.267Zm103.7-64.1L727,1027.023,623.3,967.151V847.411L727,787.543l103.7,59.868Z" transform="translate(-619.635 -783.311)" fill="#e4f8ff"/>
      </g>
      <g id="Group_3367" data-name="Group 3367" transform="translate(0 261.388)">
        <path id="Path_6742" data-name="Path 6742" d="M677.582,998.073l50.139,28.948,103.694-59.869V847.412L727.721,787.542,677.582,816.49v-4.231l50.139-28.948L835.081,845.3V969.267l-107.36,61.985L677.582,1002.3Z" transform="translate(-677.582 -783.311)" fill="#e4f8ff"/>
      </g>
      <g id="Group_3368" data-name="Group 3368" transform="translate(0 476.15)">
        <path id="Path_6743" data-name="Path 6743" d="M706.555,1022.026l48.307-27.89V874.4l-48.307-27.89v-4.232l51.972,30.006V996.252l-51.972,30.006Z" transform="translate(-706.555 -842.275)" fill="#e4f8ff"/>
      </g>
      <g id="Group_3369" data-name="Group 3369" transform="translate(48.307 809.736)">
        <path id="Path_6744" data-name="Path 6744" d="M755.967,1181.8l107.363-61.984V995.846L755.967,933.862,648.608,995.846v123.972Zm103.7-64.1-103.7,59.872-103.7-59.872V997.962l103.7-59.868,103.7,59.868Z" transform="translate(-648.608 -933.862)" fill="#e4f8ff"/>
      </g>
      <g id="Group_3370" data-name="Group 3370" transform="translate(153.833 992.52)">
        <path id="Path_6745" data-name="Path 6745" d="M734.325,1223.526l96.37-55.639v-119.74L727,988.278l-103.7,59.869v119.74l96.369,55.639h-7.329L619.635,1170V1046.031L727,984.046l107.364,61.985V1170l-92.707,53.523Z" transform="translate(-619.635 -984.046)" fill="#e4f8ff"/>
      </g>
      <g id="Group_3371" data-name="Group 3371" transform="translate(0 992.52)">
        <path id="Path_6746" data-name="Path 6746" d="M727.721,988.278l-50.139,28.948v-4.231l50.139-28.948,107.36,61.985V1170l-92.7,53.523h-7.329l96.366-55.639v-119.74Z" transform="translate(-677.582 -984.046)" fill="#e4f8ff"/>
        <path id="Path_6747" data-name="Path 6747" d="M709.07,1043.01l42.812,24.718h-7.328l-35.483-20.485Z" transform="translate(-709.07 -828.248)" fill="#e4f8ff"/>
      </g>
      <g id="Group_3372" data-name="Group 3372" transform="translate(479.583 1175.303)">
        <path id="Path_6748" data-name="Path 6748" d="M724.305,1090.926l-90.874-52.465-90.872,52.465h-7.331l98.2-56.7,98.2,56.7Z" transform="translate(-535.228 -1034.23)" fill="#e4f8ff"/>
      </g>
      <g id="Group_3373" data-name="Group 3373" transform="translate(268.522 1175.303)">
        <path id="Path_6749" data-name="Path 6749" d="M782.252,1090.926l-90.874-52.465-90.873,52.465h-7.331l98.2-56.7,98.2,56.7Z" transform="translate(-593.175 -1034.23)" fill="#e4f8ff"/>
      </g>
      <g id="Group_3374" data-name="Group 3374" transform="translate(57.466 1175.303)">
        <path id="Path_6750" data-name="Path 6750" d="M840.2,1090.926l-90.874-52.465-90.87,52.465h-7.329l98.2-56.7,98.2,56.7Z" transform="translate(-651.123 -1034.23)" fill="#e4f8ff"/>
      </g>
      <g id="Group_3375" data-name="Group 3375" transform="translate(0 1207.282)">
        <path id="Path_6751" data-name="Path 6751" d="M709.069,1043.01l42.813,24.717h-7.329l-35.483-20.486Z" transform="translate(-709.069 -1043.01)" fill="#e4f8ff"/>
      </g>
      <path id="Path_6752" data-name="Path 6752" d="M523.385,762.69a11.165,11.165,0,1,1-11.167,11.167A11.165,11.165,0,0,1,523.385,762.69Z" transform="translate(225.251 -576.409)" fill="#e4f8ff"/>
      <path id="Path_6753" data-name="Path 6753" d="M520.354,803.486a6.989,6.989,0,1,1,6.99-6.989A6.989,6.989,0,0,1,520.354,803.486Z" transform="translate(228.282 -505.552)" fill="#e4f8ff"/>
      <path id="Path_6754" data-name="Path 6754" d="M542.075,815.109a6.287,6.287,0,1,1,6.29-6.286A6.288,6.288,0,0,1,542.075,815.109Z" transform="translate(125.586 -471.125)" fill="#e4f8ff"/>
      <ellipse id="Ellipse_49" data-name="Ellipse 49" cx="3.239" cy="3.239" rx="3.239" ry="3.239" transform="translate(664.422 147.457)" fill="#e4f8ff"/>
      <path id="Path_6755" data-name="Path 6755" d="M564.394,776.807a6.4,6.4,0,1,1,6.407-6.4A6.406,6.406,0,0,1,564.394,776.807Z" transform="translate(22.296 -572.956)" fill="#e4f8ff"/>
      <path id="Path_6756" data-name="Path 6756" d="M567.905,788.339a11.245,11.245,0,1,1-11.247,11.244A11.246,11.246,0,0,1,567.905,788.339Z" transform="translate(18.784 -508.638)" fill="#e4f8ff"/>
      <path id="Path_6757" data-name="Path 6757" d="M585.414,761.1a4.74,4.74,0,1,1,4.742-4.742A4.742,4.742,0,0,1,585.414,761.1Z" transform="translate(-79.7 -605.662)" fill="#e4f8ff"/>
      <path id="Path_6758" data-name="Path 6758" d="M610.548,780.833a8.738,8.738,0,1,1,8.738-8.738A8.738,8.738,0,0,1,610.548,780.833Z" transform="translate(-185.805 -574.647)" fill="#e4f8ff"/>
      <ellipse id="Ellipse_50" data-name="Ellipse 50" cx="10.429" cy="10.429" rx="10.429" ry="10.429" transform="translate(414.315 280.518)" fill="#e4f8ff"/>
      <path id="Path_6759" data-name="Path 6759" d="M630.393,762.325a5.451,5.451,0,1,1,5.449-5.453A5.448,5.448,0,0,1,630.393,762.325Z" transform="translate(-286.621 -606.177)" fill="#e4f8ff"/>
      <path id="Path_6760" data-name="Path 6760" d="M653.219,776.572a6.268,6.268,0,1,1,6.268-6.268A6.271,6.271,0,0,1,653.219,776.572Z" transform="translate(-390.423 -572.856)" fill="#e4f8ff"/>
      <ellipse id="Ellipse_51" data-name="Ellipse 51" cx="4.469" cy="4.469" rx="4.469" ry="4.469" transform="translate(258.329 286.477)" fill="#e4f8ff"/>
      <path id="Path_6761" data-name="Path 6761" d="M673.96,760.189a4.212,4.212,0,1,1,4.214-4.214A4.214,4.214,0,0,1,673.96,760.189Z" transform="translate(-492.135 -605.279)" fill="#e4f8ff"/>
      <path id="Path_6762" data-name="Path 6762" d="M697.948,777.206a6.636,6.636,0,1,1,6.64-6.636A6.637,6.637,0,0,1,697.948,777.206Z" transform="translate(-597.098 -573.122)" fill="#e4f8ff"/>
      <ellipse id="Ellipse_52" data-name="Ellipse 52" cx="7.537" cy="7.537" rx="7.537" ry="7.537" transform="translate(93.315 283.409)" fill="#e4f8ff"/>
      <path id="Path_6763" data-name="Path 6763" d="M719.958,763.846a6.332,6.332,0,1,1,6.33-6.334A6.333,6.333,0,0,1,719.958,763.846Z" transform="translate(-700.079 -606.817)" fill="#e4f8ff"/>
      <path id="Path_6764" data-name="Path 6764" d="M543.639,844.5a8.445,8.445,0,1,1,8.447-8.446A8.444,8.444,0,0,1,543.639,844.5Z" transform="translate(124.022 -404.862)" fill="#e4f8ff"/>
      <path id="Path_6765" data-name="Path 6765" d="M585.108,803.076a4.318,4.318,0,1,1-4.316,4.32A4.32,4.32,0,0,1,585.108,803.076Z" transform="translate(-79.394 -469.699)" fill="#e4f8ff"/>
      <path id="Path_6766" data-name="Path 6766" d="M587.787,843.756a8.011,8.011,0,1,1,8.013-8.013A8.012,8.012,0,0,1,587.787,843.756Z" transform="translate(-82.073 -404.548)" fill="#e4f8ff"/>
      <ellipse id="Ellipse_53" data-name="Ellipse 53" cx="5.057" cy="5.057" rx="5.057" ry="5.057" transform="translate(419.686 472.888)" fill="#e4f8ff"/>
      <path id="Path_6767" data-name="Path 6767" d="M635.026,801.013a11.834,11.834,0,1,1-11.834,11.834A11.83,11.83,0,0,1,635.026,801.013Z" transform="translate(-291.254 -475.15)" fill="#e4f8ff"/>
      <path id="Path_6768" data-name="Path 6768" d="M677.272,819.4a8.776,8.776,0,1,1,8.774-8.774A8.775,8.775,0,0,1,677.272,819.4Z" transform="translate(-495.447 -472.933)" fill="#e4f8ff"/>
      <path id="Path_6769" data-name="Path 6769" d="M699.478,857.86a8.747,8.747,0,1,1,8.749-8.745A8.745,8.745,0,0,1,699.478,857.86Z" transform="translate(-598.628 -371.168)" fill="#e4f8ff"/>
      <path id="Path_6770" data-name="Path 6770" d="M678.383,847.727a10.313,10.313,0,1,1,10.311-10.315A10.312,10.312,0,0,1,678.383,847.727Z" transform="translate(-496.558 -406.218)" fill="#e4f8ff"/>
      <path id="Path_6771" data-name="Path 6771" d="M722.17,820.445a9.379,9.379,0,1,1,9.379-9.379A9.379,9.379,0,0,1,722.17,820.445Z" transform="translate(-702.291 -473.369)" fill="#e4f8ff"/>
      <path id="Path_6772" data-name="Path 6772" d="M557.9,847.648a6.727,6.727,0,1,1,6.727,6.724A6.728,6.728,0,0,1,557.9,847.648Z" transform="translate(22.063 -369.702)" fill="#e4f8ff"/>
      <ellipse id="Ellipse_54" data-name="Ellipse 54" cx="5.423" cy="5.423" rx="5.423" ry="5.423" transform="translate(338.347 425.773)" fill="#e4f8ff"/>
      <path id="Path_6773" data-name="Path 6773" d="M652.886,852.794a5.811,5.811,0,1,1,5.809-5.809A5.809,5.809,0,0,1,652.886,852.794Z" transform="translate(-390.09 -369.038)" fill="#e4f8ff"/>
      <ellipse id="Ellipse_55" data-name="Ellipse 55" cx="5.756" cy="5.756" rx="5.756" ry="5.756" transform="translate(14.123 612.439)" fill="#e4f8ff"/>
      <path id="Path_6774" data-name="Path 6774" d="M698.569,866.381a7.494,7.494,0,1,1-7.492,7.492A7.493,7.493,0,0,1,698.569,866.381Z" transform="translate(-597.719 -302.429)" fill="#e4f8ff"/>
      <ellipse id="Ellipse_56" data-name="Ellipse 56" cx="7.166" cy="7.166" rx="7.166" ry="7.166" transform="translate(12.713 424.03)" fill="#e4f8ff"/>
      <path id="Path_6775" data-name="Path 6775" d="M610.487,866.062a8.656,8.656,0,1,1-8.654,8.654A8.655,8.655,0,0,1,610.487,866.062Z" transform="translate(-185.744 -303.272)" fill="#e4f8ff"/>
      <path id="Path_6776" data-name="Path 6776" d="M641.948,887.795a8.987,8.987,0,1,1-8.986-8.989A8.986,8.986,0,0,1,641.948,887.795Z" transform="translate(-289.191 -269.599)" fill="#e4f8ff"/>
      <ellipse id="Ellipse_57" data-name="Ellipse 57" cx="5.431" cy="5.431" rx="5.431" ry="5.431" transform="translate(257.366 753.012)" fill="#e4f8ff"/>
      <ellipse id="Ellipse_58" data-name="Ellipse 58" cx="7.073" cy="7.073" rx="7.073" ry="7.073" transform="translate(336.698 704.621)" fill="#e4f8ff"/>
      <ellipse id="Ellipse_59" data-name="Ellipse 59" cx="7.547" cy="7.547" rx="7.547" ry="7.547" transform="translate(255.251 563.898)" fill="#e4f8ff"/>
      <ellipse id="Ellipse_60" data-name="Ellipse 60" cx="10.72" cy="10.72" rx="10.72" ry="10.72" transform="translate(171.105 700.974)" fill="#e4f8ff"/>
      <path id="Path_6777" data-name="Path 6777" d="M697.525,930.228a6.055,6.055,0,1,1,6.057-6.057A6.054,6.054,0,0,1,697.525,930.228Z" transform="translate(-596.675 -165.728)" fill="#e4f8ff"/>
      <path id="Path_6778" data-name="Path 6778" d="M678.6,899.575A10.606,10.606,0,1,1,689.2,888.968,10.607,10.607,0,0,1,678.6,899.575Z" transform="translate(-496.772 -270.772)" fill="#e4f8ff"/>
      <ellipse id="Ellipse_61" data-name="Ellipse 61" cx="4.811" cy="4.811" rx="4.811" ry="4.811" transform="translate(15.068 706.883)" fill="#e4f8ff"/>
      <path id="Path_6779" data-name="Path 6779" d="M652.295,995.42a4.994,4.994,0,1,1-4.994,4.994A4.994,4.994,0,0,1,652.295,995.42Z" transform="translate(-389.498 38.527)" fill="#e4f8ff"/>
      <path id="Path_6780" data-name="Path 6780" d="M652.9,955.512a5.831,5.831,0,1,1,5.831-5.831A5.832,5.832,0,0,1,652.9,955.512Z" transform="translate(-390.106 -97.737)" fill="#e4f8ff"/>
      <path id="Path_6781" data-name="Path 6781" d="M679.163,955.16a11.384,11.384,0,1,1-11.385,11.382A11.385,11.385,0,0,1,679.163,955.16Z" transform="translate(-497.338 -67.851)" fill="#e4f8ff"/>
      <path id="Path_6782" data-name="Path 6782" d="M697.623,956.134a6.192,6.192,0,1,1,6.192-6.192A6.191,6.191,0,0,1,697.623,956.134Z" transform="translate(-596.773 -97.999)" fill="#e4f8ff"/>
      <path id="Path_6783" data-name="Path 6783" d="M722.093,974.286a9.273,9.273,0,1,1,9.273-9.273A9.271,9.271,0,0,1,722.093,974.286Z" transform="translate(-702.214 -66.321)" fill="#e4f8ff"/>
      <path id="Path_6784" data-name="Path 6784" d="M724.339,980.56a12.369,12.369,0,1,1-12.369,12.369A12.369,12.369,0,0,1,724.339,980.56Z" transform="translate(-704.46 -0.737)" fill="#e4f8ff"/>
      <path id="Path_6785" data-name="Path 6785" d="M646.827,1027.337a6.72,6.72,0,1,1,6.72,6.72A6.72,6.72,0,0,1,646.827,1027.337Z" transform="translate(-390.751 105.105)" fill="#e4f8ff"/>
      <path id="Path_6786" data-name="Path 6786" d="M699.487,1011.9a8.756,8.756,0,1,1,8.756-8.756A8.757,8.757,0,0,1,699.487,1011.9Z" transform="translate(-598.637 35.798)" fill="#e4f8ff"/>
      <path id="Path_6787" data-name="Path 6787" d="M699.476,1020.061a8.745,8.745,0,1,1-8.741,8.745A8.745,8.745,0,0,1,699.476,1020.061Z" transform="translate(-598.625 103.636)" fill="#e4f8ff"/>
      <path id="Path_6788" data-name="Path 6788" d="M631.488,1047.3a6.957,6.957,0,1,1,6.953-6.957A6.956,6.956,0,0,1,631.488,1047.3Z" transform="translate(-287.716 138.847)" fill="#e4f8ff"/>
      <path id="Path_6789" data-name="Path 6789" d="M676.486,1048.577a7.7,7.7,0,1,1,7.7-7.7A7.7,7.7,0,0,1,676.486,1048.577Z" transform="translate(-494.661 138.31)" fill="#e4f8ff"/>
    </g>
    <g id="Group_3402" data-name="Group 3402" transform="translate(19.835 0)" opacity="0.2">
      <g id="Group_3377" data-name="Group 3377" transform="translate(556.289)">
        <path id="Path_6790" data-name="Path 6790" d="M509,711.546v98.926l98.4,56.812,98.4-56.812V711.546h.858v99.422l-99.045,57.184-.215.124-99.046-57.183-.215-.124V711.546Z" transform="translate(-508.142 -711.546)" fill="#e4f8ff"/>
      </g>
      <g id="Group_3378" data-name="Group 3378" transform="translate(358.627)">
        <path id="Path_6791" data-name="Path 6791" d="M563.269,711.546v98.926l98.4,56.812,98.4-56.812V711.546h.859v99.422l-99.045,57.184-.215.124-99.046-57.183-.214-.124V711.546Z" transform="translate(-562.411 -711.546)" fill="#e4f8ff"/>
      </g>
      <g id="Group_3379" data-name="Group 3379" transform="translate(160.966)">
        <path id="Path_6792" data-name="Path 6792" d="M617.538,711.546v98.926l98.4,56.812,98.4-56.812V711.546h.858v99.422l-99.046,57.184-.214.124-99.046-57.183-.214-.124V711.546Z" transform="translate(-616.68 -711.546)" fill="#e4f8ff"/>
      </g>
      <g id="Group_3380" data-name="Group 3380" transform="translate(0.001)">
        <path id="Path_6793" data-name="Path 6793" d="M831.913,810.472V711.546h.858v99.422l-99.042,57.184-.214.124-62.566-36.122v-.992l62.566,36.122Z" transform="translate(-670.949 -711.546)" fill="#e4f8ff"/>
      </g>
      <g id="Group_3381" data-name="Group 3381" transform="translate(259.796 98.676)">
        <path id="Path_6794" data-name="Path 6794" d="M688.8,967.872l.215-.124,99.048-57.184V795.946l-.215-.124L688.8,738.638l-.215.128-99.044,57.18V910.564l.215.124Zm98.4-57.8-98.4,56.808-98.4-56.808V796.444l98.4-56.812,98.4,56.812Z" transform="translate(-589.545 -738.638)" fill="#e4f8ff"/>
      </g>
      <g id="Group_3382" data-name="Group 3382" transform="translate(62.137 98.676)">
        <path id="Path_6795" data-name="Path 6795" d="M743.07,967.872l.215-.124,99.048-57.184V795.946l-.215-.124L743.07,738.638l-.211.128-99.044,57.18V910.564l.215.124Zm98.4-57.8-98.4,56.808-98.4-56.808V796.444l98.4-56.812,98.4,56.812Z" transform="translate(-643.814 -738.638)" fill="#e4f8ff"/>
      </g>
      <g id="Group_3383" data-name="Group 3383" transform="translate(0.001 119.616)">
        <path id="Path_6796" data-name="Path 6796" d="M698.082,930.751l62.137-35.874V781.253l-62.137-35.874v-.992l62.78,36.246.214.124V895.374l-62.995,36.37Z" transform="translate(-698.082 -744.387)" fill="#e4f8ff"/>
      </g>
      <g id="Group_3384" data-name="Group 3384" transform="translate(160.967 269.86)">
        <path id="Path_6797" data-name="Path 6797" d="M715.939,1014.867l.215-.124L815.2,957.56V842.944l-.215-.127-99.044-57.18-.215.124L616.68,842.944V957.56l.215.124Zm98.4-57.8-98.4,56.809-98.4-56.809V843.44l98.4-56.812,98.4,56.813Z" transform="translate(-616.68 -785.637)" fill="#e4f8ff"/>
      </g>
      <g id="Group_3385" data-name="Group 3385" transform="translate(0.001 269.858)">
        <path id="Path_6798" data-name="Path 6798" d="M670.949,977.754l62.566,36.122,98.4-56.811V843.44l-98.4-56.811L670.949,822.75v-.992l62.351-36,.215-.124,99.042,57.184.215.124V957.561l-99.042,57.183-.214.124-62.566-36.122Z" transform="translate(-670.949 -785.636)" fill="#e4f8ff"/>
      </g>
      <g id="Group_3386" data-name="Group 3386" transform="translate(62.137 441.039)">
        <path id="Path_6799" data-name="Path 6799" d="M743.07,1061.865l.215-.124,99.048-57.184V889.943l-.215-.124L743.07,832.635l-.211.124-99.044,57.184v114.615l.215.124Zm98.4-57.8-98.4,56.812-98.4-56.812V890.438l98.4-56.812,98.4,56.812Z" transform="translate(-643.814 -832.635)" fill="#e4f8ff"/>
      </g>
      <g id="Group_3387" data-name="Group 3387" transform="translate(0.001 461.975)">
        <path id="Path_6800" data-name="Path 6800" d="M698.082,1024.748l62.137-35.874V875.25l-62.137-35.874v-.992l62.78,36.246.214.124V989.37l-62.995,36.369Z" transform="translate(-698.082 -838.383)" fill="#e4f8ff"/>
      </g>
      <g id="Group_3388" data-name="Group 3388" transform="translate(160.967 954.579)">
        <path id="Path_6801" data-name="Path 6801" d="M715.939,1202.859l.215-.123,99.044-57.184V1030.937l-.215-.124-99.044-57.183-.215.124-99.044,57.184v114.615l.215.124Zm98.4-57.8-98.4,56.812-98.4-56.812V1031.432l98.4-56.812,98.4,56.812Z" transform="translate(-616.68 -973.629)" fill="#e4f8ff"/>
      </g>
      <g id="Group_3389" data-name="Group 3389" transform="translate(0.001 954.578)">
        <path id="Path_6802" data-name="Path 6802" d="M670.949,1165.746l62.566,36.122,98.4-56.811V1031.433l-98.4-56.811-62.566,36.121v-.992l62.351-36,.215-.124,99.042,57.184.215.124v114.616l-99.042,57.184-.214.124-62.566-36.122Z" transform="translate(-670.949 -973.629)" fill="#e4f8ff"/>
      </g>
      <g id="Group_3390" data-name="Group 3390" transform="translate(62.138 1125.757)">
        <path id="Path_6803" data-name="Path 6803" d="M841.473,1111.389v-32.959l-98.4-56.811-98.4,56.811v32.959h-.858v-33.455l99.042-57.183.215-.124,99.045,57.184.215.124v33.455Z" transform="translate(-643.814 -1020.627)" fill="#e4f8ff"/>
      </g>
      <g id="Group_3391" data-name="Group 3391" transform="translate(0.001 1146.695)">
        <path id="Path_6804" data-name="Path 6804" d="M698.082,1026.375l62.78,36.246.214.124V1096.2h-.858v-32.959l-62.137-35.874Z" transform="translate(-698.082 -1026.375)" fill="#e4f8ff"/>
      </g>
      <g id="Group_3392" data-name="Group 3392" transform="translate(127.232)">
        <path id="Path_6805" data-name="Path 6805" d="M612.964,711.546v116.3l126.567,73.073L866.1,827.849v-116.3h4.475V830.431L739.531,906.086,608.49,830.431V711.546Z" transform="translate(-608.49 -711.546)" fill="#e4f8ff"/>
      </g>
      <g id="Group_3393" data-name="Group 3393" transform="translate(0.001)">
        <path id="Path_6806" data-name="Path 6806" d="M806.449,827.849v-116.3h4.473V830.431L679.886,906.086l-.669-.386v-5.165l.669.386Z" transform="translate(-679.218 -711.546)" fill="#e4f8ff"/>
      </g>
      <g id="Group_3394" data-name="Group 3394" transform="translate(0.001 188.989)">
        <path id="Path_6807" data-name="Path 6807" d="M714.58,763.434l2.905,1.677V916.424L714.58,918.1Z" transform="translate(-714.58 -763.434)" fill="#e4f8ff"/>
      </g>
      <g id="Group_3395" data-name="Group 3395" transform="translate(0 561.198)">
        <path id="Path_6808" data-name="Path 6808" d="M643.854,940.376l129.469-74.75,131.041,75.657v151.311l-131.041,75.657L643.854,1093.5Zm129.469,222.711,126.565-73.075V943.865L773.323,870.79,646.761,943.865v146.146Z" transform="translate(-643.854 -865.625)" fill="#e4f8ff"/>
      </g>
      <g id="Group_3396" data-name="Group 3396" transform="translate(127.232 784.295)">
        <path id="Path_6809" data-name="Path 6809" d="M739.532,1229.5l131.038-75.657V1002.531L739.532,926.877l-131.042,75.654v151.311ZM866.1,1151.263l-126.565,73.071-126.569-73.071v-146.15l126.569-73.071L866.1,1005.113Z" transform="translate(-608.491 -926.877)" fill="#e4f8ff"/>
      </g>
      <g id="Group_3397" data-name="Group 3397" transform="translate(0.001 784.294)">
        <path id="Path_6810" data-name="Path 6810" d="M679.218,1223.949l.669.386,126.562-73.073V1005.114L679.886,932.041l-.669.386v-5.165l.669-.386,131.036,75.655v151.313L679.886,1229.5l-.669-.386Z" transform="translate(-679.218 -926.877)" fill="#e4f8ff"/>
      </g>
      <g id="Group_3398" data-name="Group 3398" transform="translate(513.642 1007.388)">
        <path id="Path_6811" data-name="Path 6811" d="M760.007,1197.26V1066.365L633.441,993.293l-126.566,73.073V1197.26H502.4V1063.783l131.041-75.655,131.041,75.655V1197.26Z" transform="translate(-502.4 -988.128)" fill="#e4f8ff"/>
      </g>
      <g id="Group_3399" data-name="Group 3399" transform="translate(256.035 1007.388)">
        <path id="Path_6812" data-name="Path 6812" d="M830.734,1197.26V1066.365L704.168,993.293,577.6,1066.365V1197.26h-4.474V1063.783l131.041-75.655,131.041,75.655V1197.26Z" transform="translate(-573.127 -988.128)" fill="#e4f8ff"/>
      </g>
      <g id="Group_3400" data-name="Group 3400" transform="translate(0.001 1007.388)">
        <path id="Path_6813" data-name="Path 6813" d="M643.854,1197.26V1062.878l129.468-74.749,131.04,75.655V1197.26h-4.474V1066.365L773.322,993.293,646.76,1066.365V1197.26Z" transform="translate(-643.854 -988.128)" fill="#e4f8ff"/>
      </g>
      <g id="Group_3401" data-name="Group 3401" transform="translate(0.001 1081.366)">
        <path id="Path_6814" data-name="Path 6814" d="M714.58,1008.439l2.905,1.677v133.477H714.58Z" transform="translate(-714.58 -1008.439)" fill="#e4f8ff"/>
      </g>
      <ellipse id="Ellipse_62" data-name="Ellipse 62" cx="10.308" cy="10.308" rx="10.308" ry="10.308" transform="translate(744.073 88.866)" fill="#e4f8ff"/>
      <path id="Path_6815" data-name="Path 6815" d="M569.62,755.645a9.778,9.778,0,1,1,9.78-9.776A9.777,9.777,0,0,1,569.62,755.645Z" transform="translate(-12.902 -646.694)" fill="#e4f8ff"/>
      <ellipse id="Ellipse_63" data-name="Ellipse 63" cx="6.172" cy="6.172" rx="6.172" ry="6.172" transform="translate(451.716 150.062)" fill="#e4f8ff"/>
      <path id="Path_6816" data-name="Path 6816" d="M705.948,772.861a10.676,10.676,0,1,1,10.676-10.676A10.68,10.68,0,0,1,705.948,772.861Z" transform="translate(-643.381 -605.95)" fill="#e4f8ff"/>
      <ellipse id="Ellipse_64" data-name="Ellipse 64" cx="12.587" cy="12.587" rx="12.587" ry="12.587" transform="translate(148.809 86.587)" fill="#e4f8ff"/>
      <path id="Path_6817" data-name="Path 6817" d="M533.14,760.4a8.21,8.21,0,1,1,8.21,8.21A8.209,8.209,0,0,1,533.14,760.4Z" transform="translate(114.201 -604.161)" fill="#e4f8ff"/>
      <ellipse id="Ellipse_65" data-name="Ellipse 65" cx="6.619" cy="6.619" rx="6.619" ry="6.619" transform="translate(352.438 92.555)" fill="#e4f8ff"/>
      <ellipse id="Ellipse_66" data-name="Ellipse 66" cx="7.092" cy="7.092" rx="7.092" ry="7.092" transform="translate(253.135 149.142)" fill="#e4f8ff"/>
      <path id="Path_6818" data-name="Path 6818" d="M704.831,783.262a9.146,9.146,0,1,1-9.142,9.146A9.148,9.148,0,0,1,704.831,783.262Z" transform="translate(-642.268 -522.052)" fill="#e4f8ff"/>
      <ellipse id="Ellipse_67" data-name="Ellipse 67" cx="10.564" cy="10.564" rx="10.564" ry="10.564" transform="translate(447.325 259.79)" fill="#e4f8ff"/>
      <path id="Path_6819" data-name="Path 6819" d="M635.724,809.4a10.969,10.969,0,1,1-10.967-10.971A10.969,10.969,0,0,1,635.724,809.4Z" transform="translate(-265.698 -481.982)" fill="#e4f8ff"/>
      <ellipse id="Ellipse_68" data-name="Ellipse 68" cx="6.629" cy="6.629" rx="6.629" ry="6.629" transform="translate(253.598 491.965)" fill="#e4f8ff"/>
      <path id="Path_6820" data-name="Path 6820" d="M623.059,830.4a8.632,8.632,0,1,1-8.632,8.632A8.632,8.632,0,0,1,623.059,830.4Z" transform="translate(-264 -397.499)" fill="#e4f8ff"/>
      <ellipse id="Ellipse_69" data-name="Ellipse 69" cx="9.211" cy="9.211" rx="9.211" ry="9.211" transform="translate(251.016 261.143)" fill="#e4f8ff"/>
      <ellipse id="Ellipse_70" data-name="Ellipse 70" cx="13.084" cy="13.084" rx="13.084" ry="13.084" transform="translate(148.312 428.45)" fill="#e4f8ff"/>
      <path id="Path_6821" data-name="Path 6821" d="M703.561,861.188a7.39,7.39,0,1,1,7.39-7.39A7.391,7.391,0,0,1,703.561,861.188Z" transform="translate(-640.994 -355.204)" fill="#e4f8ff"/>
      <path id="Path_6822" data-name="Path 6822" d="M680.457,823.777A12.946,12.946,0,1,1,693.4,810.832,12.944,12.944,0,0,1,680.457,823.777Z" transform="translate(-519.06 -483.417)" fill="#e4f8ff"/>
      <path id="Path_6823" data-name="Path 6823" d="M648.351,940.759a6.1,6.1,0,1,1-6.094,6.1A6.1,6.1,0,0,1,648.351,940.759Z" transform="translate(-388.126 -105.902)" fill="#e4f8ff"/>
      <ellipse id="Ellipse_71" data-name="Ellipse 71" cx="7.116" cy="7.116" rx="7.116" ry="7.116" transform="translate(253.111 605.598)" fill="#e4f8ff"/>
      <ellipse id="Ellipse_72" data-name="Ellipse 72" cx="13.896" cy="13.896" rx="13.896" ry="13.896" transform="translate(147.5 655.878)" fill="#e4f8ff"/>
      <path id="Path_6824" data-name="Path 6824" d="M703.68,892.81a7.558,7.558,0,1,1,7.558-7.558A7.557,7.557,0,0,1,703.68,892.81Z" transform="translate(-641.117 -272.537)" fill="#e4f8ff"/>
      <path id="Path_6825" data-name="Path 6825" d="M641.68,979.716a8.2,8.2,0,1,1,8.2,8.2A8.2,8.2,0,0,1,641.68,979.716Z" transform="translate(-389.657 -24.642)" fill="#e4f8ff"/>
      <path id="Path_6826" data-name="Path 6826" d="M705.956,960.872a10.686,10.686,0,1,1,10.687-10.687A10.689,10.689,0,0,1,705.956,960.872Z" transform="translate(-643.389 -109.231)" fill="#e4f8ff"/>
      <path id="Path_6827" data-name="Path 6827" d="M705.942,970.835a10.672,10.672,0,1,1-10.672,10.672A10.673,10.673,0,0,1,705.942,970.835Z" transform="translate(-643.379 -26.433)" fill="#e4f8ff"/>
      <path id="Path_6828" data-name="Path 6828" d="M622.956,1004.08a8.49,8.49,0,1,1,8.49-8.49A8.489,8.489,0,0,1,622.956,1004.08Z" transform="translate(-263.897 16.544)" fill="#e4f8ff"/>
      <ellipse id="Ellipse_73" data-name="Ellipse 73" cx="9.393" cy="9.393" rx="9.393" ry="9.393" transform="translate(152.003 1002.741)" fill="#e4f8ff"/>
      <path id="Path_6829" data-name="Path 6829" d="M623.693,1018.153a9.506,9.506,0,1,1-9.506,9.506A9.509,9.509,0,0,1,623.693,1018.153Z" transform="translate(-264.634 98.594)" fill="#e4f8ff"/>
      <path id="Path_6830" data-name="Path 6830" d="M653.079,1040.274a5.3,5.3,0,1,1-5.3-5.3A5.3,5.3,0,0,1,653.079,1040.274Z" transform="translate(-387.55 143.04)" fill="#e4f8ff"/>
      <path id="Path_6831" data-name="Path 6831" d="M678.233,1018.052a9.876,9.876,0,1,1-9.878,9.874A9.875,9.875,0,0,1,678.233,1018.052Z" transform="translate(-516.837 98.327)" fill="#e4f8ff"/>
      <path id="Path_6832" data-name="Path 6832" d="M706.682,1033.219a11.692,11.692,0,1,1-11.692,11.692A11.692,11.692,0,0,1,706.682,1033.219Z" transform="translate(-644.119 138.402)" fill="#e4f8ff"/>
    </g>
  </g>
</svg>
