<svg xmlns="http://www.w3.org/2000/svg" width="82.999" height="21.784" viewBox="0 0 82.999 21.784">
  <g id="visa-icon" transform="translate(-1266.001 -607)">
    <g id="visa_2_" data-name="visa (2)" transform="translate(1254.775 559.481)">
      <g id="Group_38917" data-name="Group 38917" transform="translate(11.226 51.519)">
        <path id="Path_64126" data-name="Path 64126" d="M28.566,64.28H25.3l2.04-12.537h3.264Zm-6.01-12.537-3.112,8.623-.368-1.857h0l-1.1-5.638a1.4,1.4,0,0,0-1.548-1.129H11.286l-.06.212a12.21,12.21,0,0,1,3.414,1.433L17.476,64.28h3.4l5.193-12.537H22.557ZM48.229,64.28h3L48.613,51.743H45.989a1.5,1.5,0,0,0-1.507.934l-4.868,11.6h3.4l.68-1.862h4.149Zm-3.592-4.435,1.715-4.691.965,4.691ZM39.87,54.758l.466-2.692a9.421,9.421,0,0,0-2.936-.547c-1.62,0-5.466.708-5.466,4.15,0,3.239,4.514,3.279,4.514,4.98s-4.049,1.4-5.386.324l-.485,2.815a9.147,9.147,0,0,0,3.684.708c2.227,0,5.588-1.153,5.588-4.292,0-3.26-4.555-3.563-4.555-4.98s3.179-1.235,4.576-.466Z" transform="translate(-11.226 -51.519)" fill="#2566af"/>
      </g>
      <path id="Path_64127" data-name="Path 64127" d="M19.077,58.953l-1.1-5.638a1.4,1.4,0,0,0-1.548-1.129H11.286l-.06.212a12.646,12.646,0,0,1,4.844,2.432A9.776,9.776,0,0,1,19.077,58.953Z" transform="translate(0 -0.443)" fill="#e6a540"/>
    </g>
    <g id="mastercard-2_1_" data-name="mastercard-2 (1)" transform="translate(1321 607)">
      <path id="Path_64110" data-name="Path 64110" d="M129.555,1320.149v.056h.052a.056.056,0,0,0,.028-.007.025.025,0,0,0,.011-.021.023.023,0,0,0-.01-.021.052.052,0,0,0-.028-.007h-.052Zm.053-.04a.1.1,0,0,1,.063.018.06.06,0,0,1,.022.05.057.057,0,0,1-.018.043.085.085,0,0,1-.05.021l.07.08h-.054l-.064-.079h-.021v.079h-.045v-.212h.1Zm-.014.285a.168.168,0,0,0,.069-.014.18.18,0,0,0,.056-.038.175.175,0,0,0,.038-.056.181.181,0,0,0,0-.139.185.185,0,0,0-.038-.056.18.18,0,0,0-.056-.038.175.175,0,0,0-.069-.013.191.191,0,0,0-.07.013.176.176,0,0,0-.095.234.169.169,0,0,0,.037.056.18.18,0,0,0,.057.038.17.17,0,0,0,.07.014m0-.406a.235.235,0,0,1,.164.067.223.223,0,0,1,.05.073.225.225,0,0,1,0,.177.24.24,0,0,1-.05.073.249.249,0,0,1-.074.049.237.237,0,0,1-.183,0,.239.239,0,0,1-.074-.049.236.236,0,0,1-.049-.075.228.228,0,0,1,.124-.3.233.233,0,0,1,.092-.018m-21.435-.816a.7.7,0,1,1,.7.736.689.689,0,0,1-.7-.736m1.86,0v-1.149h-.5v.28a.871.871,0,0,0-.726-.337,1.208,1.208,0,0,0,0,2.413.871.871,0,0,0,.726-.337v.279h.5v-1.15Zm16.881,0a.7.7,0,1,1,.7.736.689.689,0,0,1-.7-.736m1.861,0V1317.1h-.5v1.2a.871.871,0,0,0-.726-.337,1.208,1.208,0,0,0,0,2.413.871.871,0,0,0,.726-.337v.279h.5Zm-12.541-.759a.57.57,0,0,1,.581.557H115.61a.592.592,0,0,1,.611-.557m.01-.448a1.208,1.208,0,0,0,.033,2.413,1.4,1.4,0,0,0,.942-.322l-.245-.37a1.1,1.1,0,0,1-.668.24.638.638,0,0,1-.687-.563h1.706c0-.062.01-.125.01-.192a1.1,1.1,0,0,0-1.091-1.206m6.032,1.206a.7.7,0,1,1,.7.736.689.689,0,0,1-.7-.736m1.86,0v-1.148h-.5v.28a.872.872,0,0,0-.726-.337,1.208,1.208,0,0,0,0,2.413.871.871,0,0,0,.726-.337v.279h.5v-1.15Zm-4.681,0a1.161,1.161,0,0,0,1.226,1.207,1.2,1.2,0,0,0,.826-.274l-.24-.4a1.009,1.009,0,0,1-.6.207.737.737,0,0,1,0-1.471,1.012,1.012,0,0,1,.6.207l.24-.4a1.2,1.2,0,0,0-.826-.274,1.161,1.161,0,0,0-1.226,1.206m6.441-1.206a.678.678,0,0,0-.606.337v-.279h-.5v2.3h.5v-1.288c0-.38.163-.591.49-.591a.81.81,0,0,1,.312.058l.154-.471a1.058,1.058,0,0,0-.356-.063m-13.391.24a1.719,1.719,0,0,0-.937-.24c-.582,0-.957.279-.957.736,0,.375.279.606.793.678l.236.034c.274.038.4.11.4.24,0,.177-.182.279-.524.279a1.224,1.224,0,0,1-.764-.24l-.235.39a1.658,1.658,0,0,0,.995.3c.664,0,1.048-.312,1.048-.75,0-.4-.3-.615-.8-.687l-.235-.034c-.216-.028-.39-.072-.39-.225s.163-.269.437-.269a1.483,1.483,0,0,1,.716.2l.216-.4Zm6.446-.24a.676.676,0,0,0-.605.337v-.28h-.5v2.3h.5v-1.288c0-.38.163-.591.49-.591a.81.81,0,0,1,.312.058l.154-.471a1.058,1.058,0,0,0-.356-.063m-4.263.058h-.817v-.7h-.505v.7h-.466v.457h.466v1.048c0,.533.207.851.8.851a1.17,1.17,0,0,0,.625-.178l-.144-.428a.925.925,0,0,1-.442.13c-.25,0-.331-.154-.331-.385v-1.038h.817Zm-7.469,2.3v-1.442a.856.856,0,0,0-.9-.913.89.89,0,0,0-.808.409.843.843,0,0,0-.759-.409.76.76,0,0,0-.673.341v-.284h-.5v2.3h.5v-1.274a.538.538,0,0,1,.563-.611c.332,0,.5.216.5.606v1.279h.505v-1.274a.542.542,0,0,1,.562-.611c.341,0,.5.216.5.606v1.279Z" transform="translate(-102.11 -1298.664)" fill="#231f20"/>
      <path id="Path_64111" data-name="Path 64111" d="M1929.579,977.556v-.336h-.087l-.1.23-.1-.23h-.088v.336h.062V977.3l.094.218h.064l.095-.219v.254h.062Zm-.555,0v-.278h.112v-.057h-.286v.057h.112v.278h.062Z" transform="translate(-1901.85 -963.541)" fill="#f79410"/>
      <path id="Path_64112" data-name="Path 64112" d="M737.281,145.756H729.71V132.15h7.571Z" transform="translate(-719.495 -130.301)" fill="#ff5f00"/>
      <path id="Path_64113" data-name="Path 64113" d="M10.695,8.653a8.639,8.639,0,0,1,3.3-6.8,8.653,8.653,0,1,0,0,13.606,8.639,8.639,0,0,1-3.3-6.8" transform="translate(0 0)" fill="#eb001b"/>
      <path id="Path_64114" data-name="Path 64114" d="M1014.11,8.653a8.653,8.653,0,0,1-14,6.8,8.654,8.654,0,0,0,0-13.606,8.653,8.653,0,0,1,14,6.8" transform="translate(-986.11 0)" fill="#f79e1b"/>
    </g>
  </g>
</svg>
