<svg xmlns="http://www.w3.org/2000/svg" width="30.534" height="35.976" viewBox="0 0 30.534 35.976">
  <g id="bd-users-icon" transform="translate(-1362.602 285.764)">
    <path id="Path_77350" data-name="Path 77350" d="M1467.443-74.2q-3.673,0-7.346,0a2.665,2.665,0,0,1-2.852-2.863q0-4.6,0-9.193a2.669,2.669,0,0,1,2.853-2.865q7.346,0,14.693,0a2.671,2.671,0,0,1,2.853,2.866q0,4.6,0,9.193a2.665,2.665,0,0,1-2.854,2.861Q1471.116-74.2,1467.443-74.2Zm-.036-6.384a6.659,6.659,0,0,0,1.239-.385c1.21-.655,2.395-1.356,3.585-2.047a1.279,1.279,0,0,0,.589-1.8,1.28,1.28,0,0,0-1.874-.415c-1.012.571-2.028,1.137-3.029,1.728a.8.8,0,0,1-.924.007c-1.012-.6-2.04-1.17-3.065-1.746a1.284,1.284,0,0,0-1.848.41,1.284,1.284,0,0,0,.6,1.821c1.146.66,2.284,1.336,3.446,1.967A8.563,8.563,0,0,0,1467.406-80.582Z" transform="translate(-84.508 -175.591)" fill="#fff"/>
    <path id="Path_77351" data-name="Path 77351" d="M1406.139-268.932a8.414,8.414,0,0,1-8.367-8.513,8.4,8.4,0,0,1,8.634-8.318,8.4,8.4,0,0,1,8.184,8.565A8.416,8.416,0,0,1,1406.139-268.932Z" transform="translate(-31.403 0)" fill="#fff"/>
    <path id="Path_77352" data-name="Path 77352" d="M1366.585-138.811a11.113,11.113,0,0,0,6.095,3.471c-.291.231-.553.415-.786.629a5.1,5.1,0,0,0-1.724,3.875c-.011,2.755,0,5.511,0,8.266v.544h-.4q-2.849,0-5.7,0a1.3,1.3,0,0,1-1.458-1.46c0-2.956-.034-5.913.01-8.868A7.245,7.245,0,0,1,1366.585-138.811Z" transform="translate(0 -131.22)" fill="#fff"/>
    <path id="Path_77353" data-name="Path 77353" d="M1521.636-138.867a7.332,7.332,0,0,1,2.894,2.727h-6.618A11.347,11.347,0,0,0,1521.636-138.867Z" transform="translate(-138.681 -131.17)" fill="#fff"/>
  </g>
</svg>
