<svg xmlns="http://www.w3.org/2000/svg" width="35.685" height="36" viewBox="0 0 35.685 36">
  <g id="bgc-servicies-icon" transform="translate(2394.367 58.566)">
    <path id="Path_77237" data-name="Path 77237" d="M-2276.961,207.867h-1.65c-3.229,0-6.458,0-9.688.008a3.112,3.112,0,0,1-3.066-1.794,3.185,3.185,0,0,1,.493-3.53,6.883,6.883,0,0,1,3.084-2.162,15.918,15.918,0,0,1,11.806.047,6.948,6.948,0,0,1,2.927,2.054,3.333,3.333,0,0,1,.8,2.815,3.124,3.124,0,0,1-3.13,2.565c-.524.011-1.048,0-1.572,0Z" transform="translate(-94.596 -238.039)" fill="#fff"/>
    <path id="Path_77238" data-name="Path 77238" d="M-2313.11-54.662l1.851.86-7.52,1.747,4.143-6.51c.078.8.145,1.475.215,2.2.171-.068.3-.116.428-.171a17.784,17.784,0,0,1,24.251,11.561,17.42,17.42,0,0,1-2.25,14.6,1.079,1.079,0,0,1-1.1.6,1.025,1.025,0,0,1-.674-1.655,15.828,15.828,0,0,0,1.777-3.578,15.43,15.43,0,0,0,.784-6.737,15.552,15.552,0,0,0-4.126-9.149,15.5,15.5,0,0,0-8.951-4.854,14.9,14.9,0,0,0-4.24-.135,16.032,16.032,0,0,0-4.179,1.038C-2312.813-54.8-2312.925-54.745-2313.11-54.662Z" transform="translate(-69.643)" fill="#fff"/>
    <path id="Path_77239" data-name="Path 77239" d="M-2370.324,69.3l-1.85-.858,7.522-1.746-4.07,6.392-.086-.008-.2-2.057c-.644.24-1.255.491-1.881.7a17.779,17.779,0,0,1-23.18-13.771,17.415,17.415,0,0,1,2.531-12.756,1.658,1.658,0,0,1,.729-.6.936.936,0,0,1,1.074.375,1.025,1.025,0,0,1,0,1.214,15.712,15.712,0,0,0-1.93,4.194,15.8,15.8,0,0,0,12.5,20,15.464,15.464,0,0,0,8.447-.9C-2370.6,69.436-2370.49,69.375-2370.324,69.3Z" transform="translate(0 -95.651)" fill="#fff"/>
    <path id="Path_77240" data-name="Path 77240" d="M-2232.748,53.074a5.531,5.531,0,0,1-5.526-5.559,5.554,5.554,0,0,1,5.583-5.553,5.568,5.568,0,0,1,5.531,5.569A5.544,5.544,0,0,1-2232.748,53.074Z" transform="translate(-143.817 -92.825)" fill="#fff"/>
  </g>
</svg>
