<svg xmlns="http://www.w3.org/2000/svg" width="30.656" height="36" viewBox="0 0 30.656 36">
  <g id="checks-icon" transform="translate(-2419.954 -1825.947)">
    <path id="Path_77186" data-name="Path 77186" d="M2435.636,1861.947h-.7c-.2-.061-.4-.114-.6-.184a25.214,25.214,0,0,1-5.539-2.7,18.154,18.154,0,0,1-6.113-6.61,24.17,24.17,0,0,1-2.579-9.732,74.661,74.661,0,0,1-.066-8.255,3.613,3.613,0,0,1,.726-2.053,4,4,0,0,1,3.168-1.615,14.757,14.757,0,0,0,8.469-3.092c.523-.414,1-.884,1.529-1.292a2.205,2.205,0,0,1,2.71-.006c.363.275.69.6,1.037.894a14.213,14.213,0,0,0,5.331,2.88,23.372,23.372,0,0,0,4.185.682,3.815,3.815,0,0,1,3.344,3.594,69.969,69.969,0,0,1-.133,8.919,27.016,27.016,0,0,1-1.2,6.01,18.108,18.108,0,0,1-6.993,9.373A24.05,24.05,0,0,1,2435.636,1861.947Zm-.349-9.027a8.971,8.971,0,1,0-8.973-8.959A9,9,0,0,0,2435.287,1852.92Z" transform="translate(0 0)" fill="#fff"/>
    <path id="Path_77187" data-name="Path 77187" d="M2554.16,1991.378a6.856,6.856,0,1,1-6.854-6.863A6.873,6.873,0,0,1,2554.16,1991.378Zm-8.392,1.458c-.428-.441-.764-.8-1.113-1.143a1.052,1.052,0,0,0-1.561-.071,1.074,1.074,0,0,0,.075,1.563q.838.851,1.688,1.689a1.082,1.082,0,0,0,1.737-.014q2.336-2.332,4.667-4.669a2.314,2.314,0,0,0,.19-.206,1.055,1.055,0,0,0-.085-1.406,1.036,1.036,0,0,0-1.377-.078,3.431,3.431,0,0,0-.308.286q-1.838,1.837-3.673,3.677A2.382,2.382,0,0,0,2545.768,1992.836Z" transform="translate(-112.022 -147.42)" fill="#fff"/>
  </g>
</svg>
