<svg xmlns="http://www.w3.org/2000/svg" width="35.86" height="36" viewBox="0 0 35.86 36">
  <g id="companies-icon" transform="translate(-1926.74 -1795.5)">
    <path id="Path_77188" data-name="Path 77188" d="M2058.687,1795.5c1.052.469.725,1.4.772,2.232h-13.3a1.753,1.753,0,0,1,.718-2.232Z" transform="translate(-108.11 0)" fill="#fff"/>
    <path id="Path_77189" data-name="Path 77189" d="M2045.625,1873.625h-3.937v-.388q0-2.707,0-5.413a1.079,1.079,0,0,0-1.209-1.215h-6.714a1.079,1.079,0,0,0-1.217,1.207q0,2.707,0,5.413v.394h-3.8v-.371q0-14.992,0-29.984c0-.872.394-1.268,1.262-1.268h14.342c.874,0,1.271.392,1.271,1.259q0,14.992,0,29.984Zm-11.673-25.295c0-.362.012-.725,0-1.086a1.051,1.051,0,0,0-2.1.011q-.022,1.069,0,2.138a1.051,1.051,0,0,0,2.1-.011C2033.961,1849.031,2033.952,1848.681,2033.952,1848.33Zm4.219.032c0-.362.008-.725,0-1.087a1.052,1.052,0,1,0-2.1.017q-.014,1.034,0,2.068a1.053,1.053,0,1,0,2.105-.017C2038.177,1849.017,2038.171,1848.69,2038.171,1848.363Zm4.219-.038c0-.339.005-.678,0-1.016a1.053,1.053,0,1,0-2.105-.014q-.014,1.034,0,2.068a1.052,1.052,0,1,0,2.1.013C2042.4,1849.026,2042.39,1848.676,2042.39,1848.325Zm-8.438,6.365c0-.362.008-.725,0-1.087a1.052,1.052,0,1,0-2.1.018q-.014,1.034,0,2.068a1.052,1.052,0,1,0,2.1.017C2033.961,1855.368,2033.952,1855.029,2033.952,1854.69Zm2.11-.064c0,.351-.005.7,0,1.052a1.053,1.053,0,1,0,2.105.007q.014-1.034,0-2.068a1.052,1.052,0,1,0-2.1-.007C2036.056,1853.948,2036.063,1854.287,2036.063,1854.625Zm6.328.01c0-.327,0-.655,0-.982a1.054,1.054,0,1,0-2.106-.013q-.011,1.016,0,2.033a1.053,1.053,0,1,0,2.105.013C2042.4,1855.337,2042.39,1854.986,2042.39,1854.635Zm-8.437,6.346c0-.339.005-.678,0-1.017a1.053,1.053,0,1,0-2.105-.014q-.014,1.034,0,2.068a1.052,1.052,0,1,0,2.1.015C2033.961,1861.683,2033.952,1861.332,2033.953,1860.982Zm4.218.036c0-.362.008-.725,0-1.087a1.052,1.052,0,1,0-2.1.018q-.014,1.034,0,2.068a1.052,1.052,0,1,0,2.1.017C2038.179,1861.7,2038.171,1861.357,2038.171,1861.018Zm2.11-.066c0,.35-.005.7,0,1.052a1.053,1.053,0,1,0,2.105.01q.015-1.034,0-2.068a1.052,1.052,0,1,0-2.1-.01C2040.274,1860.274,2040.281,1860.613,2040.281,1860.952Z" transform="translate(-92.446 -42.14)" fill="#fff"/>
    <path id="Path_77190" data-name="Path 77190" d="M1928.851,1919.4l5.326-1.772v23.96h-2.654v-.367q0-2.021,0-4.042a1.062,1.062,0,1,0-2.108-.008c0,1.463,0,2.926,0,4.421-.613,0-1.209.037-1.8-.011a1.011,1.011,0,0,1-.873-1c-.005-.094,0-.187,0-.281q0-11,0-22a2.273,2.273,0,0,1,.023-.455,1.051,1.051,0,0,1,2.082.17c.012.222,0,.445,0,.668S1928.851,1919.13,1928.851,1919.4Zm2.671,6.058c0-.362.009-.725,0-1.087a1.051,1.051,0,0,0-2.1,0c-.012.7-.011,1.4,0,2.1a1.052,1.052,0,1,0,2.1,0C1931.529,1926.141,1931.522,1925.8,1931.522,1925.463Zm0,6.289c0-.35.01-.7,0-1.052a1.052,1.052,0,0,0-2.1.011q-.017,1.051,0,2.1a1.052,1.052,0,1,0,2.1-.011C1931.529,1932.453,1931.522,1932.1,1931.522,1931.752Z" transform="translate(0 -110.111)" fill="#fff"/>
    <path id="Path_77191" data-name="Path 77191" d="M2236.221,1941.619c0-1.537.005-3.024,0-4.51a1.056,1.056,0,1,0-2.108.018q0,2.039,0,4.077v.4h-2.575v-23.912l5.176,1.721c0-.438,0-.842,0-1.246a1.059,1.059,0,1,1,2.108.012q0,11.142,0,22.284a1.065,1.065,0,0,1-1.158,1.16C2237.2,1941.621,2236.731,1941.619,2236.221,1941.619Zm0-16.174c0-.339.006-.678,0-1.016a1.053,1.053,0,1,0-2.105-.012q-.013,1.034,0,2.068a1.052,1.052,0,1,0,2.1.012C2236.228,1926.145,2236.22,1925.795,2236.221,1925.444Zm0,6.357c0-.362.009-.725,0-1.087a1.052,1.052,0,0,0-2.1,0c-.013.7-.011,1.4,0,2.1a1.052,1.052,0,1,0,2.1,0C2236.228,1932.479,2236.22,1932.14,2236.22,1931.8Z" transform="translate(-276.223 -110.119)" fill="#fff"/>
    <path id="Path_77192" data-name="Path 77192" d="M2091.92,2132.075V2127.2h4.878v4.879Z" transform="translate(-149.694 -300.6)" fill="#fff"/>
  </g>
</svg>
