<svg xmlns="http://www.w3.org/2000/svg" width="29.261" height="36.062" viewBox="0 0 29.261 36.062">
  <g id="dormant-clients-icon" transform="translate(-193.676 -151.054)">
    <path id="Path_77249" data-name="Path 77249" d="M348.07,193.055h2.278l-3.378,4.593a1.343,1.343,0,0,0-.114,1.4,1.3,1.3,0,0,0,1.177.721h4.9a1.328,1.328,0,0,0,0-2.657h-2.278l3.378-4.631a1.342,1.342,0,0,0,.114-1.4,1.3,1.3,0,0,0-1.177-.721h-4.9a1.345,1.345,0,0,0-1.328,1.328,1.306,1.306,0,0,0,1.328,1.366Z" transform="translate(-140.766 -36.156)" fill="#fff"/>
    <path id="Path_77250" data-name="Path 77250" d="M469.936,157.811h-2.278l3.378-4.631a1.343,1.343,0,0,0,.114-1.4,1.3,1.3,0,0,0-1.177-.721H465.04a1.328,1.328,0,0,0,0,2.657h2.278l-3.378,4.631a1.343,1.343,0,0,0-.114,1.4,1.3,1.3,0,0,0,1.177.721h4.935a1.345,1.345,0,0,0,1.329-1.329,1.32,1.32,0,0,0-1.329-1.329Z" transform="translate(-248.361)" fill="#fff"/>
    <path id="Path_77251" data-name="Path 77251" d="M215.541,279.944a3.8,3.8,0,0,1-3.341,1.974h-4.935a3.685,3.685,0,0,1-3.341-2.05,3.93,3.93,0,0,1-.266-2.847,13.177,13.177,0,1,0,16.361,12.793,13.343,13.343,0,0,0-4.479-9.87Zm-12.148,8.579a1.11,1.11,0,0,0-2.05,0,1.228,1.228,0,0,1-1.67.418,1.2,1.2,0,0,1-.456-1.632,3.564,3.564,0,0,1,6.3,0,1.24,1.24,0,0,1-.456,1.67,1.191,1.191,0,0,1-1.671-.456Zm3.454,8.958a2.989,2.989,0,1,1,2.581-2.961A2.781,2.781,0,0,1,206.847,297.481Zm7.175-8.5a1.24,1.24,0,0,1-1.67-.456,1.11,1.11,0,0,0-2.05,0,1.224,1.224,0,0,1-2.126-1.215,3.883,3.883,0,0,1,3.151-1.9,3.824,3.824,0,0,1,3.151,1.9,1.267,1.267,0,0,1-.456,1.67Z" transform="translate(0 -115.87)" fill="#fff"/>
  </g>
</svg>
