<svg xmlns="http://www.w3.org/2000/svg" width="41.347" height="40" viewBox="0 0 41.347 40">
  <g id="interim-icon" transform="translate(1381.335 -940.969)">
    <path id="Path_77200" data-name="Path 77200" d="M-1306.131,1152.977a3.953,3.953,0,0,1-.688-.408,1.309,1.309,0,0,1-.348-1.5,1.36,1.36,0,0,1,1.376-.886q8.24,0,16.48,0a2.33,2.33,0,0,0,2.449-2.1,2.482,2.482,0,0,0-1.751-3,2.526,2.526,0,0,0-.662-.064c-4.219,0-8.438-.014-12.657,0a5.281,5.281,0,0,1-3.648-1.3,4.872,4.872,0,0,1-1.631-4.319,4.867,4.867,0,0,1,4.955-4.386c4.837-.077,9.675-.12,14.512-.178.185,0,.37-.018.592-.03V1132.8l5.825,3.357-5.816,3.333v-1.9h-1.128q-6.9.009-13.793.02a2.31,2.31,0,0,0-2.426,2.526,2.325,2.325,0,0,0,2.388,2.1c3.926,0,7.853-.015,11.779.013a10.141,10.141,0,0,1,2.747.275,4.906,4.906,0,0,1,3.487,4.5,5.757,5.757,0,0,1-.51,3.2,5.022,5.022,0,0,1-3.729,2.654c-.15.024-.3.068-.444.1Z" transform="translate(-66.409 -172.008)" fill="#35bae9"/>
    <path id="Path_77201" data-name="Path 77201" d="M-1374.123,1043.371c-.3.031-.5.069-.7.069-1.79,0-3.58-.023-5.369.012a1,1,0,0,1-1.147-1.134q.02-10.505.009-21.011c0-.892.307-1.2,1.207-1.2q2.633,0,5.266,0c.909,0,1.2.293,1.2,1.205,0,4.027.007,8.053-.012,12.08a1.381,1.381,0,0,1-.291.818,7.168,7.168,0,0,0-1.756,4.363,7.057,7.057,0,0,0,1.16,4.145C-1374.438,1042.906-1374.312,1043.086-1374.123,1043.371Z" transform="translate(0 -70.96)" fill="#35bae9"/>
    <path id="Path_77202" data-name="Path 77202" d="M-1160.921,960.806h-3.326v-.556q0-9.085,0-18.17c0-.784.312-1.11,1.073-1.11q2.787,0,5.575,0c.737,0,1.061.32,1.062,1.072q.008,8.7,0,17.4c0,.1-.02.194-.038.368l-4.35-2.491Z" transform="translate(-194.654)" fill="#35bae9"/>
    <path id="Path_77203" data-name="Path 77203" d="M-1052.016,1124.431a5.288,5.288,0,0,0-.582-.473c-.945-.558-1.893-1.112-2.853-1.642a.6.6,0,0,1-.385-.639c.027-.359,0-.723.009-1.084.016-.588.3-.923.875-.928q2.969-.028,5.939,0c.568.005.852.375.853,1q0,3.615,0,7.23c0,1.257,0,2.513,0,3.77a.919.919,0,0,1-1.01,1.027q-2.815.012-5.629,0c-.281,0-.654,0-.817-.163a1.322,1.322,0,0,1-.2-.836c-.019-1.2.1-2.42-.033-3.611a1.929,1.929,0,0,1,1.359-2.224A26.307,26.307,0,0,0-1052.016,1124.431Z" transform="translate(-291.829 -160.215)" fill="#35bae9"/>
    <path id="Path_77204" data-name="Path 77204" d="M-1265.208,1067.629h-7.662c-.008-.134-.028-.316-.028-.5q0-2.967,0-5.934c0-.848.3-1.15,1.141-1.151q2.735,0,5.47,0c.771,0,1.1.327,1.1,1.092q0,2.993,0,5.986C-1265.183,1067.256-1265.2,1067.39-1265.208,1067.629Z" transform="translate(-97.232 -106.769)" fill="#35bae9"/>
  </g>
</svg>
