<svg xmlns="http://www.w3.org/2000/svg" width="42.318" height="39.769" viewBox="0 0 42.318 39.769">
  <g id="nearing-tat-icon" transform="translate(91.394 -1010.668)">
    <path id="Path_77214" data-name="Path 77214" d="M-49.075,1020.212c-.1.482-.186.97-.316,1.445a8.662,8.662,0,0,1-8.31,6.408c-3.251.019-6.5,0-9.754,0h-.306v-.454c0-2.149.014-4.3-.005-6.448a5.544,5.544,0,0,0-4.405-5.337,5.472,5.472,0,0,0-6.187,3.215,6.376,6.376,0,0,0-.459,2.2c-.06,2.106-.021,4.215-.022,6.323v.43c-.051.033-.073.06-.095.059-1.638-.019-3.287.072-4.911-.086a8.619,8.619,0,0,1-7.392-6.911,8.7,8.7,0,0,1,7.456-10.327,9.03,9.03,0,0,1,1.237-.061q12.3-.005,24.593,0a8.668,8.668,0,0,1,8.805,7.618,2.384,2.384,0,0,0,.073.272Z" fill="#35bae9"/>
    <path id="Path_77215" data-name="Path 77215" d="M-12.483,1091.466c1.025.107,2.023.208,3.02.315,1.711.182,3.429.317,5.13.566a3.486,3.486,0,0,1,3.057,3.311c.082,3.083.023,6.169.023,9.313H-1.7q-8.6,0-17.193-.009a1.067,1.067,0,0,1-.632-.209q-2.951-2.43-5.873-4.893a2.8,2.8,0,0,1-.977-2.969,2.784,2.784,0,0,1,2.244-2.171,2.905,2.905,0,0,1,2.609.711c.84.713,1.69,1.415,2.536,2.12.1.086.21.166.389.307v-.5q0-7.646,0-15.292a3.053,3.053,0,0,1,2.194-3.011,3.053,3.053,0,0,1,3.918,2.96c.016,2.976,0,5.952,0,8.927Z" transform="translate(-57.759 -60.736)" fill="#35bae9"/>
    <path id="Path_77216" data-name="Path 77216" d="M62.309,1337.984c0,.872.024,1.71-.008,2.547a1.183,1.183,0,0,1-1.048,1.108,3.335,3.335,0,0,1-.494.029q-7.127,0-14.254,0a1.385,1.385,0,0,1-1.2-.409,1.418,1.418,0,0,1-.329-.731c-.041-.836-.015-1.676-.015-2.548Z" transform="translate(-121.313 -291.235)" fill="#35bae9"/>
  </g>
</svg>
