<svg xmlns="http://www.w3.org/2000/svg" width="40.102" height="40.105" viewBox="0 0 40.102 40.105">
  <g id="new-request-icon" transform="translate(2446.708 -936.454)">
    <path id="Path_77195" data-name="Path 77195" d="M-2443.575,936.454h18.015q0,3.994,0,7.988c0,.994.413,1.411,1.4,1.411h8v.475c0,1.4-.008,2.793.007,4.19a.906.906,0,0,1-.3.716c-2.5,2.481-5.01,4.959-7.483,7.468a5.185,5.185,0,0,0-1.134,1.616,40.109,40.109,0,0,0-1.343,3.958,2.688,2.688,0,0,0,.83,2.852,2.8,2.8,0,0,0,2.9.654c.968-.309,1.923-.659,2.9-.954a5.875,5.875,0,0,0,2.668-1.633c.278-.3.584-.573.933-.913.012.142.02.19.02.237,0,2.819.024,5.639-.008,8.458a3.528,3.528,0,0,1-3.662,3.577q-11.61.014-23.22-.011a3.957,3.957,0,0,1-1.623-.351,3.439,3.439,0,0,1-2.029-3.377q0-10.651,0-21.3,0-5.678,0-11.356a3.589,3.589,0,0,1,1.3-2.894A4.211,4.211,0,0,1-2443.575,936.454Zm10.927,11.749h-7.871c-.941,0-1.486.431-1.487,1.174s.547,1.175,1.485,1.175h15.781c.13,0,.262,0,.391-.006a1.159,1.159,0,0,0,1.081-1.285,1.168,1.168,0,0,0-1.276-1.057Q-2428.6,948.2-2432.648,948.2Zm-2.35,4.7q-2.858,0-5.717,0a1.2,1.2,0,0,0-1.209.754,1.178,1.178,0,0,0,1.209,1.593q4.464.007,8.928,0c.875,0,1.749.008,2.623,0a1.16,1.16,0,0,0,1.206-1.172,1.164,1.164,0,0,0-1.245-1.172C-2431.135,952.9-2433.067,952.9-2435,952.9Zm.021,7.049c1.919,0,3.837,0,5.756,0a1.168,1.168,0,0,0,1.243-1.389,1.172,1.172,0,0,0-1.246-.957q-3.25-.006-6.5,0-2.506,0-5.012,0a1.176,1.176,0,0,0-1.165.7,1.167,1.167,0,0,0,1.129,1.643C-2438.841,959.958-2436.909,959.951-2434.977,959.951Zm.007,4.7h.235c1.84,0,3.681,0,5.521,0a1.165,1.165,0,0,0,1.252-1.24,1.169,1.169,0,0,0-1.27-1.106q-3.759-.006-7.518,0-2,0-3.994,0a1.172,1.172,0,0,0-1.161.71,1.169,1.169,0,0,0,1.14,1.637C-2438.833,964.657-2436.9,964.65-2434.97,964.651Zm7.007,7.049c1.135,0,2.271,0,3.406,0a1.178,1.178,0,0,0,1.3-1.158,1.179,1.179,0,0,0-1.308-1.189q-3.386,0-6.772,0a1.18,1.18,0,0,0-1.3,1.159,1.182,1.182,0,0,0,1.308,1.189C-2430.208,971.7-2429.085,971.7-2427.963,971.7Z" fill="#35bae9"/>
    <path id="Path_77196" data-name="Path 77196" d="M-2206.879,936.454a4.824,4.824,0,0,1,2.746,1.664c.836.878,1.711,1.72,2.569,2.577a3.593,3.593,0,0,1,1.131,2.786h-7.073v-7.026Z" transform="translate(-215.783)" fill="#35bae9"/>
    <path id="Path_77197" data-name="Path 77197" d="M-2089.64,1057.352c-.382,1.311-1.554,1.973-2.342,2.912l-3.36-3.358a21.364,21.364,0,0,1,2.042-1.9,2.336,2.336,0,0,1,3.551,1.245,2.461,2.461,0,0,0,.108.241Z" transform="translate(-316.965 -106.565)" fill="#35bae9"/>
    <path id="Path_77198" data-name="Path 77198" d="M-2190.85,1104.506l7.627-7.627,3.225,3.233-7.628,7.628Z" transform="translate(-230.808 -144.719)" fill="#35bae9"/>
    <path id="Path_77199" data-name="Path 77199" d="M-2212.733,1198.408c-1,.329-2.013.682-3.042,1a.548.548,0,0,1-.672-.7c.307-1.031.665-2.048.985-3.021Z" transform="translate(-207.695 -233.853)" fill="#35bae9"/>
  </g>
</svg>
