<svg xmlns="http://www.w3.org/2000/svg" width="39.827" height="40.004" viewBox="0 0 39.827 40.004">
  <g id="pending-action-icon" transform="translate(9099.576 11059.842)">
    <path id="Path_77211" data-name="Path 77211" d="M-409.829,1033h-18.829c.081-.065.159-.133.243-.2a12.736,12.736,0,0,0,4.749-6.916c.2-.732.316-1.491.476-2.265h.455q4.57,0,9.14,0a1.277,1.277,0,0,0,1.025-.381,1.1,1.1,0,0,0,.213-1.267,1.172,1.172,0,0,0-1.162-.7q-4.629,0-9.257,0h-.466a13.386,13.386,0,0,0-1.344-4.688h4.906c2.044,0,4.088,0,6.133,0a1.19,1.19,0,0,0,1.2-.711,1.171,1.171,0,0,0-1.175-1.634c-4.036,0-8.073-.008-12.109.009a1.038,1.038,0,0,1-.855-.4,12.542,12.542,0,0,0-8.4-4.224c-.769-.069-1.55-.01-2.359-.01v-.439q0-6.23,0-12.46A3.52,3.52,0,0,1-433.536,993q8.086,0,16.171,0h.426v.486q0,4.14,0,8.281a1.213,1.213,0,0,0,1.383,1.389h8.774v12.841q0,6.7,0,13.4a3.51,3.51,0,0,1-2.339,3.4C-409.353,1032.875-409.593,1032.931-409.829,1033Zm-12.2-25.783h-1.483c-2.355,0-4.71,0-7.065,0a1.176,1.176,0,0,0-1.2,1.052,1.177,1.177,0,0,0,.932,1.261,2.462,2.462,0,0,0,.5.028h15.613c.429,0,.859.007,1.288,0a1.135,1.135,0,0,0,1.1-.734,1.169,1.169,0,0,0-1.175-1.606Q-417.772,1007.212-422.027,1007.217Z" transform="translate(-8652.968 -12052.839)" fill="#35bae9"/>
    <path id="Path_77212" data-name="Path 77212" d="M-517.386,1195.457a19.64,19.64,0,0,1-2.681-.637,10.143,10.143,0,0,1-6.919-8.79,10.464,10.464,0,0,1,8.961-11.565,10.578,10.578,0,0,1,11.894,8.69,10.548,10.548,0,0,1-8.926,12.2c-.2.031-.407.067-.611.1Zm2.031-11.72c0-1.189,0-2.32,0-3.452a1.175,1.175,0,0,0-1.182-1.235,1.172,1.172,0,0,0-1.158,1.219q-.01,2.284,0,4.569a1.173,1.173,0,0,0,1.254,1.241q1.464.008,2.929,0a1.183,1.183,0,0,0,1.283-1.174,1.185,1.185,0,0,0-1.289-1.168C-514.116,1183.735-514.713,1183.738-515.355,1183.738Z" transform="translate(-8572.522 -12215.296)" fill="#35bae9"/>
    <path id="Path_77213" data-name="Path 77213" d="M-212.572,1008.214h-6.938v-6.938Z" transform="translate(-8848.028 -12060.256)" fill="#35bae9"/>
  </g>
</svg>
