<svg xmlns="http://www.w3.org/2000/svg" width="27.804" height="36.5" viewBox="0 0 27.804 36.5">
  <g id="reports-icon" transform="translate(6025 8508)">
    <path id="Path_77193" data-name="Path 77193" d="M1968.518,1345.5h14.329q0,3.6,0,7.2a3.229,3.229,0,0,0,3.512,3.495h7.181v.387q0,11.03,0,22.06a3.208,3.208,0,0,1-3.362,3.359q-10.531,0-21.062,0a3.738,3.738,0,0,1-.6-.034,3.2,3.2,0,0,1-2.774-3.309q0-10.941,0-21.882,0-4.009,0-8.019a3.044,3.044,0,0,1,1.414-2.685A7.863,7.863,0,0,1,1968.518,1345.5Zm11.133,17.181q3.151,0,6.3,0a1.073,1.073,0,1,0-.007-2.139q-4.451,0-8.9,0c-1.246,0-2.493,0-3.739,0a1.072,1.072,0,1,0,.006,2.138Q1976.482,1362.686,1979.651,1362.681Zm-.018,2.139q-3.151,0-6.3,0a1.082,1.082,0,0,0-1.086.654,1.069,1.069,0,0,0,1.081,1.485q4.166,0,8.333,0,2.154,0,4.309,0a1.072,1.072,0,1,0,.005-2.138C1983.859,1364.816,1981.746,1364.819,1979.633,1364.819Zm0,6.416q3.152,0,6.3,0a1.084,1.084,0,0,0,1.074-.616A1.061,1.061,0,0,0,1986,1369.1c-2.042-.007-4.083,0-6.125,0q-3.276,0-6.552,0a1.075,1.075,0,0,0-1.048.6,1.064,1.064,0,0,0,1.028,1.538C1975.412,1371.239,1977.525,1371.235,1979.638,1371.235Zm-2.131,2.139q-2.083,0-4.165,0a1.075,1.075,0,1,0,.006,2.137q4.147,0,8.294,0a1.077,1.077,0,1,0-.006-2.138Q1979.571,1373.372,1977.507,1373.374Z" transform="translate(-7990.737 -9853.5)" fill="#fff"/>
    <path id="Path_77194" data-name="Path 77194" d="M2168.247,1352.881l7.84,7.836c-.083.005-.17.016-.258.016q-3.187,0-6.374,0a1.089,1.089,0,0,1-1.208-1.211q0-3.186,0-6.373Z" transform="translate(-8173.286 -9860.881)" fill="#fff"/>
  </g>
</svg>
