<svg xmlns="http://www.w3.org/2000/svg" width="34.053" height="36.145" viewBox="0 0 34.053 36.145">
  <g id="active-services-icon" transform="translate(1882.587 -17.981)">
    <path id="Path_77241" data-name="Path 77241" d="M-1869.845,36.193c-3.116,1.864-4.895,3.723-5.766,6.058l1.026.526c.169-.285.325-.54.473-.8a10.325,10.325,0,0,1,4.826-4.533,1.635,1.635,0,0,1,1.184.012,6.081,6.081,0,0,0,5.079.016,1.769,1.769,0,0,1,1.267,0,9.692,9.692,0,0,1,4.186,3.614c-4.6,3.013-5.6,5.721-3.861,10.339-5.246,1.706-13.866.078-18.555-7.385a17.01,17.01,0,0,1,3.24-21.863,17,17,0,0,1,22.021-.3,16.842,16.842,0,0,1,4.467,20.445,7.789,7.789,0,0,0-5.614-1.607c-.241.025-.589-.358-.787-.625a12.228,12.228,0,0,0-4.645-3.874,7.285,7.285,0,0,0,1.852-5.675,6.4,6.4,0,0,0-6.119-5.961,6.416,6.416,0,0,0-6.094,6A7.362,7.362,0,0,0-1869.845,36.193Z" fill="#fff"/>
    <path id="Path_77242" data-name="Path 77242" d="M-1767.452,151.662a6.088,6.088,0,0,1,6.159-5.994,6.088,6.088,0,0,1,6.048,6.2,6.127,6.127,0,0,1-6.164,6.012A6.113,6.113,0,0,1-1767.452,151.662Zm8.4-2.235-3.091,3.275-1.381-1.566-.882.564,2.348,2.4,3.829-3.832Z" transform="translate(-93.557 -103.757)" fill="#fff"/>
    <path id="Path_77243" data-name="Path 77243" d="M-1817.564,65.725a5.637,5.637,0,0,1,1.415-3.993,4.5,4.5,0,0,1,6.905.035,5.861,5.861,0,0,1,.142,7.422,4.364,4.364,0,0,1-4.742,1.647,5.156,5.156,0,0,1-3.671-4.4C-1817.549,66.153-1817.555,65.871-1817.564,65.725Z" transform="translate(-52.836 -34.255)" fill="#fff"/>
  </g>
</svg>
