<svg xmlns="http://www.w3.org/2000/svg" width="38.204" height="36" viewBox="0 0 38.204 36">
  <path id="alerts-icon" d="M2522.205,1303.208v1.194a2.247,2.247,0,0,0-.069.245,5.6,5.6,0,0,1-1.7,3.24,5.7,5.7,0,0,1-4.112,1.532q-13.222-.016-26.444-.006c-.211,0-.423,0-.634-.017a5.374,5.374,0,0,1-4.571-2.959,5.521,5.521,0,0,1,.154-5.549q6.7-12.28,13.375-24.572a5.248,5.248,0,0,1,1.735-1.916,5.585,5.585,0,0,1,8.143,2.063q6.161,11.321,12.316,22.646A13.108,13.108,0,0,1,2522.205,1303.208Zm-21.341-12.845v1.081c0,1.491-.012,2.982,0,4.473a2.239,2.239,0,1,0,4.472-.074q0-5.442,0-10.884a3.09,3.09,0,0,0-.045-.556,2.233,2.233,0,0,0-4.427.481C2500.858,1286.71,2500.865,1288.537,2500.865,1290.363Zm2.239,14.569a2.234,2.234,0,0,0,.018-4.467,2.266,2.266,0,0,0-2.254,2.248A2.241,2.241,0,0,0,2503.1,1304.932Z" transform="translate(-2484.001 -1273.419)" fill="#fff"/>
</svg>
