<svg xmlns="http://www.w3.org/2000/svg" width="36" height="36" viewBox="0 0 36 36">
  <g id="candidates-icon" transform="translate(1897.2 -583.8)">
    <path id="Path_77170" data-name="Path 77170" d="M-1897.2,634.438a2.438,2.438,0,0,1,.975-1.411,2.12,2.12,0,0,1,3.213,1.3,3.342,3.342,0,0,1,.065.731c0,3.463.012,6.927,0,10.39a3.646,3.646,0,0,0,1.159,2.758c1.843,1.8,3.666,3.617,5.491,5.432a1.088,1.088,0,0,0,1.135.293.979.979,0,0,0,.7-.77,1.091,1.091,0,0,0-.392-1.066q-1.819-1.8-3.628-3.6c-.634-.63-1.242-1.288-1.907-1.883a2.054,2.054,0,0,1,.033-2.871,2.108,2.108,0,0,1,2.938-.119q3.089,3,6.148,6.023a4.043,4.043,0,0,1,1.163,3q0,5.862,0,11.724h-9.927a1.33,1.33,0,0,1-.79-1.413c.033-1.238.006-2.477.011-3.715a3.99,3.99,0,0,0-.544-2.111c-1.436-2.4-2.88-4.8-4.314-7.2a10.49,10.49,0,0,1-1.525-3.052Z" transform="translate(0 -44.557)" fill="#fff"/>
    <path id="Path_77171" data-name="Path 77171" d="M-1679.638,664.368c0-3.874.007-7.748,0-11.622a4.427,4.427,0,0,1,1.386-3.334c1.927-1.881,3.831-3.787,5.745-5.681a2.1,2.1,0,0,1,2.6-.345,2.079,2.079,0,0,1,.972,2.417,2.216,2.216,0,0,1-.541.839q-2.721,2.742-5.473,5.454a1.108,1.108,0,0,0-.4,1.064,1.059,1.059,0,0,0,1.751.559c.418-.379.807-.789,1.208-1.186,1.463-1.448,2.916-2.905,4.391-4.34a3.6,3.6,0,0,0,1.138-2.732c-.014-3.5-.006-7,0-10.5a2.137,2.137,0,0,1,1.378-2.126,2.12,2.12,0,0,1,2.776,1.355c.028.087.067.172.1.257V646.81a9.929,9.929,0,0,1-1.53,3.131c-1.329,2.21-2.656,4.421-4,6.62a5.315,5.315,0,0,0-.859,3.056c.043,1.11-.016,2.224.019,3.335a1.328,1.328,0,0,1-.79,1.416Z" transform="translate(-198.581 -44.568)" fill="#fff"/>
    <path id="Path_77172" data-name="Path 77172" d="M-1736.354,583.8c.238.061.479.114.715.184a4.355,4.355,0,0,1,3.039,4.932,4.356,4.356,0,0,1-4.551,3.454,4.342,4.342,0,0,1-4.016-3.981,4.384,4.384,0,0,1,3.587-4.522,2,2,0,0,0,.234-.068Z" transform="translate(-142.349)" fill="#fff"/>
    <path id="Path_77173" data-name="Path 77173" d="M-1768.222,708.033a8.585,8.585,0,0,1,13.455,0c-.05.056-.1.118-.157.174q-2.432,2.429-4.872,4.851a.782.782,0,0,1-.484.206c-.8.021-1.606.015-2.409,0a.59.59,0,0,1-.374-.133q-2.573-2.513-5.131-5.042A.193.193,0,0,1-1768.222,708.033Z" transform="translate(-117.699 -110.377)" fill="#fff"/>
    <path id="Path_77174" data-name="Path 77174" d="M-1821.994,684.932a4.206,4.206,0,0,0-3.173.279c0-1.1-.047-2.159.015-3.212a1.534,1.534,0,0,1,1.587-1.372,1.567,1.567,0,0,1,1.552,1.457c.042.8.015,1.6.018,2.407C-1821.994,684.62-1821.994,684.748-1821.994,684.932Z" transform="translate(-65.692 -88.328)" fill="#fff"/>
    <path id="Path_77175" data-name="Path 77175" d="M-1592.421,685.217a4.2,4.2,0,0,0-3.164-.3c0-.992-.043-1.949.013-2.9a1.545,1.545,0,0,1,1.571-1.4,1.553,1.553,0,0,1,1.569,1.438C-1592.386,683.094-1592.421,684.133-1592.421,685.217Z" transform="translate(-275.113 -88.323)" fill="#fff"/>
  </g>
</svg>
