<svg xmlns="http://www.w3.org/2000/svg" width="35.982" height="36.023" viewBox="0 0 35.982 36.023">
  <g id="client-icon" transform="translate(991.666 -207.987)">
    <path id="Path_77167" data-name="Path 77167" d="M-971.852,440.826l-6.28-.405c-.839-.054-1.678-.118-2.517-.157a.911.911,0,0,0-.457.141c-1.294.738-2.581,1.486-3.872,2.23a1.191,1.191,0,0,1-1.879-.5q-2.274-3.934-4.546-7.87a1.2,1.2,0,0,1,.5-1.879q4.646-2.683,9.292-5.367a5.727,5.727,0,0,1,4.523-.628c2.568.689,5.139,1.364,7.7,2.072a2.806,2.806,0,0,1,2.071,2.829,2.761,2.761,0,0,1-2.192,2.685,3.885,3.885,0,0,1-1.614-.066c-1.558-.373-3.1-.814-4.646-1.238a1.225,1.225,0,0,0-1.335.3,1.148,1.148,0,0,0,.642,1.9c1.423.388,2.847.779,4.277,1.141a8.924,8.924,0,0,0,1.8.322,5.143,5.143,0,0,0,5.35-4.536.58.58,0,0,1,.252-.369c1.581-.927,3.164-1.852,4.76-2.753a2.845,2.845,0,0,1,3.946,1.031,2.846,2.846,0,0,1-1.094,3.934q-5.563,3.234-11.143,6.437A6.1,6.1,0,0,1-971.852,440.826Z" transform="translate(0 -198.891)" fill="#fff"/>
    <g id="Group_43350" data-name="Group 43350" transform="translate(-982.47 207.987)">
      <path id="Path_77168" data-name="Path 77168" d="M-856.768,206.25a5.808,5.808,0,0,1,2.257.958,4.789,4.789,0,0,1,1.574,5.575,4.8,4.8,0,0,1-4.92,3.005,4.823,4.823,0,0,1-4.251-4.033,4.8,4.8,0,0,1,3.906-5.434,1.451,1.451,0,0,0,.211-.072Z" transform="translate(866.17 -206.25)" fill="#fff"/>
      <path id="Path_77169" data-name="Path 77169" d="M-897.568,303.219a7.022,7.022,0,0,0,3.111,1.732,6.912,6.912,0,0,0,6.361-1.467c.24-.2.383-.226.637-.029a8.755,8.755,0,0,1,3.574,6.946,1.153,1.153,0,0,1-1.271,1.282q-7.526,0-15.053,0a1.148,1.148,0,0,1-1.253-1.262A8.82,8.82,0,0,1-897.568,303.219Z" transform="translate(901.463 -293.332)" fill="#fff"/>
    </g>
  </g>
</svg>
