<svg xmlns="http://www.w3.org/2000/svg" width="31.501" height="40.355" viewBox="0 0 31.501 40.355">
  <g id="complete-icon" transform="translate(855.728 -969.999)">
    <path id="Path_77208" data-name="Path 77208" d="M-758.945,969c.226.075.454.144.678.226a3.475,3.475,0,0,1,2.045,1.889.457.457,0,0,0,.511.314c.737-.015,1.474-.005,2.235-.005v4.826h-12.073v-4.826c.705,0,1.413-.02,2.118.008a.622.622,0,0,0,.69-.423,3.517,3.517,0,0,1,2.409-1.918c.087-.023.171-.06.256-.09Z" transform="translate(-80.467 1)" fill="#35bae9"/>
    <path id="Path_77209" data-name="Path 77209" d="M-848.458,991.494v.479q0,2.726,0,5.451a1.222,1.222,0,0,0,1.324,1.338q7.147,0,14.294,0A1.228,1.228,0,0,0-831.5,997.4q0-2.705,0-5.411v-.471c.135-.009.251-.024.367-.024q2.766,0,5.532,0a1.233,1.233,0,0,1,1.37,1.373q0,18.09,0,36.18a1.234,1.234,0,0,1-1.367,1.377q-14.375,0-28.75,0a1.24,1.24,0,0,1-1.383-1.4q0-18.07,0-36.14a1.239,1.239,0,0,1,1.394-1.39C-852.4,991.493-850.458,991.494-848.458,991.494Zm18.228,23.207a9.8,9.8,0,0,0-9.663-9.784,9.771,9.771,0,0,0-9.718,9.758,9.681,9.681,0,0,0,9.651,9.705A9.7,9.7,0,0,0-830.23,1014.7Z" transform="translate(0 -20.072)" fill="#35bae9"/>
    <path id="Path_77210" data-name="Path 77210" d="M-761.9,1146.665a7.277,7.277,0,0,1-7.276,7.259,7.253,7.253,0,0,1-7.258-7.267,7.275,7.275,0,0,1,7.266-7.27A7.3,7.3,0,0,1-761.9,1146.665Zm-8.452.773c-.558-.57-1.041-1.074-1.537-1.566a1.208,1.208,0,0,0-1.765-.075,1.232,1.232,0,0,0,.067,1.8q1.12,1.133,2.252,2.253a1.211,1.211,0,0,0,1.88.021q2.361-2.344,4.706-4.7a1.215,1.215,0,0,0,.074-1.766,1.21,1.21,0,0,0-1.794.061q-1.689,1.676-3.364,3.366C-770.007,1147-770.158,1147.211-770.348,1147.438Z" transform="translate(-70.757 -152.039)" fill="#35bae9"/>
  </g>
</svg>
