<svg xmlns="http://www.w3.org/2000/svg" width="34.556" height="30.227" viewBox="0 0 34.556 30.227">
  <g id="credits-icon" transform="translate(836.833 -121.298)">
    <path id="Path_77319" data-name="Path 77319" d="M-802.247,337.122a2.175,2.175,0,0,1-1.2,1.572,3.311,3.311,0,0,1-1.206.24q-9.971.021-19.942.01h-9.786a2.2,2.2,0,0,1-2.417-2.431q0-5.062,0-10.123V326c.134-.006.243-.016.352-.016l16.7,0a.457.457,0,0,1,.456.192,18.582,18.582,0,0,0,5.832,5.277,5.818,5.818,0,0,0,1.959.948,3.153,3.153,0,0,0,2.214-.367,22.073,22.073,0,0,0,5.611-4.326c.433-.485.8-1.025,1.209-1.535a1.493,1.493,0,0,1,.217-.188Zm-26.989-6.816c-.7,0-1.393,0-2.09,0a1.085,1.085,0,0,0-1.153,1.063,1.083,1.083,0,0,0,1.158,1.093q2.073.009,4.146,0a1.085,1.085,0,0,0,1.17-1.081,1.088,1.088,0,0,0-1.175-1.076C-827.865,330.3-828.551,330.306-829.236,330.306Z" transform="translate(-0.03 -187.42)" fill="#fff"/>
    <path id="Path_77320" data-name="Path 77320" d="M-614.841,131.143c-.063.488-.127.976-.188,1.465a11.583,11.583,0,0,1-4.193,7.568,25.006,25.006,0,0,1-3.626,2.512,1.125,1.125,0,0,1-1.214.026,20.771,20.771,0,0,1-4.941-3.77,11.35,11.35,0,0,1-2.914-6.217,55.172,55.172,0,0,1-.194-7.108,1.13,1.13,0,0,1,.82-1.08q3.007-1.278,6.007-2.571c.433-.186.87-.365,1.3-.556a1.164,1.164,0,0,1,.978-.012q3.714,1.595,7.431,3.183a1.294,1.294,0,0,1,.734.824Zm-9.639,1.274c-.473-.707-.895-1.357-1.338-1.992a1.06,1.06,0,0,0-1.509-.3,1.056,1.056,0,0,0-.279,1.488q1.048,1.61,2.129,3.2a1.059,1.059,0,0,0,1.775.086c1.444-1.78,2.87-3.576,4.3-5.369a1.016,1.016,0,0,0,.21-.919,1.032,1.032,0,0,0-.819-.8,1.066,1.066,0,0,0-1.125.438q-1.4,1.75-2.8,3.5C-624.11,131.959-624.284,132.173-624.479,132.417Z" transform="translate(-187.436)" fill="#fff"/>
    <path id="Path_77321" data-name="Path 77321" d="M-821.709,198a26.433,26.433,0,0,0,.456,6.45h-15.577v-1.185c0-1.012-.008-2.024,0-3.035a2.153,2.153,0,0,1,2.23-2.24q6.341-.013,12.682,0C-821.862,197.985-821.808,197.992-821.709,198Z" transform="translate(0 -70.216)" fill="#fff"/>
  </g>
</svg>
