<svg xmlns="http://www.w3.org/2000/svg" width="27.86" height="36.188" viewBox="0 0 27.86 36.188">
  <g id="finance-users-icon" transform="translate(-802.79 -669.585)">
    <path id="Path_77334" data-name="Path 77334" d="M805.127,800.93a2.638,2.638,0,0,1-2.022-1.485,3.481,3.481,0,0,1-.291-1.327c-.024-3.192-.037-6.385,0-9.577a6.2,6.2,0,0,1,2.839-5.422,7.228,7.228,0,0,1,2.907-.909c.754-.128,1.512-.233,2.268-.347.559-.085.754.033.955.584q2.049,5.617,4.1,11.235c.04.11.08.221.128.328a.739.739,0,0,0,.708.491.73.73,0,0,0,.733-.505c.164-.415.315-.836.468-1.256q1.852-5.088,3.7-10.176c.259-.712.392-.789,1.16-.666,1,.16,2.007.277,2.995.489a5.9,5.9,0,0,1,4.572,4.246,6.823,6.823,0,0,1,.284,2.015c.029,3.039-.017,6.079.025,9.117a2.851,2.851,0,0,1-2.338,3.164Z" transform="translate(0 -95.157)" fill="#fff"/>
    <path id="Path_77335" data-name="Path 77335" d="M861.653,676.735a7.139,7.139,0,1,1-7.112-7.149A7.157,7.157,0,0,1,861.653,676.735Z" transform="translate(-37.795)" fill="#fff"/>
    <path id="Path_77336" data-name="Path 77336" d="M883.974,778.623c.318,0,.636-.009.953,0a.87.87,0,0,1,.741,1.381c-.259.42-.554.819-.81,1.241a.777.777,0,0,0-.1.453c.127,1.181.275,2.36.408,3.54a.86.86,0,0,1-.048.375c-.257.707-.515,1.414-.8,2.111-.057.142-.219.241-.332.36-.112-.121-.271-.223-.329-.366-.278-.686-.533-1.381-.785-2.077a.939.939,0,0,1-.055-.409c.132-1.181.28-2.359.407-3.541a.78.78,0,0,0-.108-.452c-.242-.4-.51-.791-.773-1.181a.889.889,0,0,1,.785-1.439C883.408,778.625,883.691,778.622,883.974,778.623Z" transform="translate(-67.269 -92.428)" fill="#fff"/>
  </g>
</svg>
