<svg xmlns="http://www.w3.org/2000/svg" width="44.759" height="40.103" viewBox="0 0 44.759 40.103">
  <g id="Group_43435" data-name="Group 43435" transform="translate(1998.477 -905.839)">
    <g id="in-progress-icon">
      <path id="Path_77205" data-name="Path 77205" d="M-1892.751,927.946c-.25.352-.477.724-.755,1.053-.582.69-1.188,1.359-1.788,2.033a1.328,1.328,0,0,1-2.174-.011q-1.014-1.144-2.023-2.292a1.364,1.364,0,0,1-.2-1.919c.459-.551,1.144-.593,1.964-.1.015-.125.038-.231.04-.338a17.283,17.283,0,0,0-13.825-17.5c-7.136-1.442-13.029.91-17.6,6.588a2.47,2.47,0,0,1-.965.75,1.18,1.18,0,0,1-1.367-.524,1.324,1.324,0,0,1,.068-1.551,19.382,19.382,0,0,1,3.625-3.824,19.816,19.816,0,0,1,13.54-4.455,20.063,20.063,0,0,1,18.67,15.7,21.977,21.977,0,0,1,.474,4.594c0,.173,0,.345,0,.533a4.532,4.532,0,0,1,.792-.3c.665-.118,1.092.167,1.521.955Z" transform="translate(-60.967)" fill="#35bae9"/>
      <path id="Path_77206" data-name="Path 77206" d="M-1878.02,1009.7c-.844,0-1.689.006-2.533,0a1.3,1.3,0,0,1-1.373-1.369c-.008-.611-.013-1.223,0-1.834a.444.444,0,0,0-.29-.463q-1.015-.547-2-1.155a.405.405,0,0,0-.5-.022c-.508.312-1.028.6-1.548.9a1.313,1.313,0,0,1-1.97-.513q-1.266-2.166-2.509-4.345a1.316,1.316,0,0,1,.525-1.937c.5-.3,1-.595,1.514-.867a.5.5,0,0,0,.3-.548c-.029-.724-.033-1.452,0-2.176a.525.525,0,0,0-.312-.583c-.515-.27-1.016-.568-1.515-.866a1.308,1.308,0,0,1-.521-1.905q1.26-2.22,2.551-4.422a1.3,1.3,0,0,1,1.878-.5c.548.3,1.077.637,1.632.923a.608.608,0,0,0,.489-.023q1.015-.547,2-1.152a.61.61,0,0,0,.263-.416c.029-.625.006-1.252.014-1.878a1.272,1.272,0,0,1,1.29-1.359q2.642-.036,5.285,0a1.27,1.27,0,0,1,1.287,1.362c.008.626-.015,1.253.014,1.878a.608.608,0,0,0,.267.41q.981.606,2,1.154a.608.608,0,0,0,.488.025c.555-.287,1.086-.62,1.632-.924a1.3,1.3,0,0,1,1.876.5q1.29,2.2,2.552,4.422a1.3,1.3,0,0,1-.49,1.88c-.533.327-1.089.616-1.615.954a.61.61,0,0,0-.231.435c-.022.768.006,1.538-.017,2.306a.451.451,0,0,0,.27.478c.523.286,1.039.586,1.55.893a1.319,1.319,0,0,1,.516,1.941q-1.241,2.18-2.51,4.345a1.306,1.306,0,0,1-1.934.524q-.782-.435-1.548-.9a.433.433,0,0,0-.539.009c-.649.411-1.319.792-2,1.156a.442.442,0,0,0-.287.463c.017.611.012,1.223,0,1.834a1.3,1.3,0,0,1-1.378,1.364C-1876.3,1009.71-1877.16,1009.7-1878.02,1009.7Zm.041-9.326a3.926,3.926,0,0,0,3.915-3.963,3.937,3.937,0,0,0-3.948-3.892,3.936,3.936,0,0,0-3.915,3.968A3.928,3.928,0,0,0-1877.978,1000.378Z" transform="translate(-98.096 -70.565)" fill="#35bae9"/>
      <path id="Path_77207" data-name="Path 77207" d="M-1996.151,1074.539a5.309,5.309,0,0,1-.958.278,1.172,1.172,0,0,1-1.185-.662,1.172,1.172,0,0,1,.094-1.393c.795-.948,1.611-1.88,2.453-2.785a1.237,1.237,0,0,1,1.836.019c.822.886,1.619,1.8,2.4,2.717a1.268,1.268,0,0,1-.033,1.683,1.322,1.322,0,0,1-1.671.239c-.083-.048-.164-.1-.364-.222a31.5,31.5,0,0,0,.221,3.214c1.271,7.416,5.5,12.333,12.713,14.466a17.216,17.216,0,0,0,18.495-6.334,1.727,1.727,0,0,1,.99-.8,1.31,1.31,0,0,1,1.38.535,1.306,1.306,0,0,1-.034,1.514,18.864,18.864,0,0,1-3.212,3.5,19.874,19.874,0,0,1-13.887,4.832,20.106,20.106,0,0,1-18.756-15.658,22.226,22.226,0,0,1-.481-4.637C-1996.151,1074.867-1996.151,1074.694-1996.151,1074.539Z" transform="translate(0 -149.403)" fill="#35bae9"/>
    </g>
  </g>
</svg>
