<svg xmlns="http://www.w3.org/2000/svg" width="39.648" height="39.653" viewBox="0 0 39.648 39.653">
  <g id="interim-past-icon" transform="translate(-331.999 -1012.747)">
    <path id="Path_77217" data-name="Path 77217" d="M507.078,1200.559c-.772-.136-1.558-.217-2.313-.418a11.9,11.9,0,0,1-8.76-12.863,11.878,11.878,0,0,1,23.133-2.171,22.468,22.468,0,0,1,.5,2.494c.022.111.041.223.062.335v1.471a1.9,1.9,0,0,0-.056.257,11.449,11.449,0,0,1-1.877,5.457,11.624,11.624,0,0,1-6.759,4.969c-.8.222-1.638.315-2.458.468Zm2.71-13.867c0-.191,0-.33,0-.47,0-1.2.019-2.4-.011-3.6a1.97,1.97,0,0,0-3.936.011q-.032,3.058,0,6.116a1.8,1.8,0,0,0,1.843,1.884c1.406.032,2.813.021,4.219,0a1.727,1.727,0,0,0,1.531-.834,2.1,2.1,0,0,0,.071-2.142,1.772,1.772,0,0,0-1.686-.964C511.162,1186.685,510.505,1186.692,509.788,1186.692Z" transform="translate(-148.054 -148.159)" fill="#35bae9"/>
    <path id="Path_77218" data-name="Path 77218" d="M337.953,1016.71c0-.7,0-1.329,0-1.96a1.974,1.974,0,0,1,2.955-1.769,1.807,1.807,0,0,1,.994,1.673c.022.668,0,1.337,0,2.03h19.828c0-.643-.008-1.272,0-1.9a1.939,1.939,0,0,1,2.569-1.953,1.8,1.8,0,0,1,1.375,1.711c.019.36.011.722.012,1.084,0,.345,0,.691,0,1.083.587,0,1.139.027,1.688-.006a2.209,2.209,0,0,1,2.293,2.271c-.043,2.929-.014,5.859-.014,8.788v.447a15.822,15.822,0,0,0-10.791-3.53,14.845,14.845,0,0,0-10.295,4.65c-5.357,5.69-6.017,12.121-2.591,19.093-.116.005-.25.017-.384.017q-5.672,0-11.344,0a2.032,2.032,0,0,1-2.256-2.248q0-13.609,0-27.218a2.038,2.038,0,0,1,2.277-2.266h3.678Z" transform="translate(0)" fill="#35bae9"/>
  </g>
</svg>
