<svg xmlns="http://www.w3.org/2000/svg" width="36" height="36" viewBox="0 0 36 36">
  <g id="kyc-services-icon" transform="translate(2876 -596)">
    <path id="Path_77244" data-name="Path 77244" d="M-2860.6,596c.61.092,1.224.166,1.831.28a14.432,14.432,0,0,1,11.385,11.679,14.372,14.372,0,0,1-11.278,16.554,14.365,14.365,0,0,1-16.972-10.906c-.166-.726-.244-1.472-.364-2.209V609.43a1.436,1.436,0,0,0,.058-.234,13.832,13.832,0,0,1,2.331-6.717,14.17,14.17,0,0,1,9.316-6.211c.571-.113,1.15-.18,1.725-.268Zm-3.905,14.245c-.05.034-.095.069-.144.1a6.227,6.227,0,0,0-3.227,5.088c-.083.935.249,1.294,1.2,1.295h9.734c.246,0,.493.01.738-.005a.911.911,0,0,0,.925-1.013,6.118,6.118,0,0,0-1.852-4.308,18.39,18.39,0,0,0-1.49-1.2,4.539,4.539,0,0,0,.182-6.652,4.527,4.527,0,0,0-6.26-.024A4.554,4.554,0,0,0-2864.507,610.245Z" fill="#fff"/>
    <path id="Path_77245" data-name="Path 77245" d="M-2528.935,945.658a3.955,3.955,0,0,1-2.008-1.269c-2.256-2.281-4.531-4.542-6.8-6.809-.09-.09-.2-.164-.336-.28a18.407,18.407,0,0,0,3.96-3.919,1.555,1.555,0,0,0,.206.372q3.383,3.4,6.781,6.78a3.974,3.974,0,0,1,1.293,2.033v.844a9.728,9.728,0,0,1-.658,1.291,2.681,2.681,0,0,1-1.662.959Z" transform="translate(-314.159 -313.658)" fill="#fff"/>
    <path id="Path_77246" data-name="Path 77246" d="M-2733.3,817.445a4.45,4.45,0,0,1,4.434-3.577,4.432,4.432,0,0,1,4.322,3.577Z" transform="translate(-132.664 -202.549)" fill="#fff"/>
    <path id="Path_77247" data-name="Path 77247" d="M-2703.968,713.949a2.684,2.684,0,0,1-2.652,2.712,2.686,2.686,0,0,1-2.738-2.7,2.7,2.7,0,0,1,2.67-2.7A2.7,2.7,0,0,1-2703.968,713.949Z" transform="translate(-154.925 -107.156)" fill="#fff"/>
  </g>
</svg>
