<svg xmlns="http://www.w3.org/2000/svg" width="36.115" height="36.033" viewBox="0 0 36.115 36.033">
  <g id="kyc-review-icon" transform="translate(-1382.987 -160.919)">
    <path id="Path_77340" data-name="Path 77340" d="M1651.479,427.527a7.13,7.13,0,0,1-.68.684c-.557.431-1.141.827-1.71,1.243a.894.894,0,0,0-.364,1.168c.249.733.508,1.463.758,2.2a.892.892,0,0,1-.267,1.106.94.94,0,0,1-1.174-.028c-.641-.456-1.275-.922-1.915-1.38a.928.928,0,0,0-1.285,0c-.63.452-1.255.909-1.887,1.36a.956.956,0,0,1-1.2.048.9.9,0,0,1-.252-1.138c.243-.71.492-1.419.734-2.129a.921.921,0,0,0-.382-1.225c-.625-.458-1.258-.906-1.885-1.362a.931.931,0,0,1-.423-1.123.9.9,0,0,1,1-.649c.764,0,1.528,0,2.291,0,.7-.007.876-.144,1.091-.808s.431-1.34.65-2.009c.176-.54.461-.779.914-.776s.726.242.9.789c.221.68.439,1.362.66,2.042.2.6.382.748,1.02.759.717.012,1.435.032,2.15-.005a1.164,1.164,0,0,1,1.255.675Z" transform="translate(-232.378 -237.164)" fill="#fff"/>
    <path id="Path_77341" data-name="Path 77341" d="M1513.428,373.782c.47,0,.939.01,1.409,0a.788.788,0,0,0,.788-.628c.219-.718.462-1.428.694-2.141.186-.569.464-.811.924-.807s.723.244.9.791c.229.7.456,1.405.687,2.107a.8.8,0,0,0,.923.688c.763.018,1.527.007,2.29.008.684,0,.982.175,1.134.663.146.469-.009.811-.551,1.2-.59.426-1.182.849-1.77,1.278a.906.906,0,0,0-.378,1.193c.249.733.508,1.462.757,2.194a.883.883,0,0,1-.28,1.1.941.941,0,0,1-1.174-.04c-.612-.436-1.219-.878-1.829-1.318a.979.979,0,0,0-1.428-.009c-.609.44-1.216.882-1.828,1.318a.954.954,0,0,1-1.2.038.888.888,0,0,1-.256-1.108c.246-.721.5-1.439.747-2.161a.92.92,0,0,0-.389-1.222c-.626-.457-1.258-.905-1.884-1.362a.929.929,0,0,1-.417-1.125.891.891,0,0,1,.971-.644c.388,0,.775,0,1.163,0Z" transform="translate(-116.189 -189.601)" fill="#fff"/>
    <path id="Path_77342" data-name="Path 77342" d="M1385.174,426.282c.47,0,.94.01,1.409,0a.788.788,0,0,0,.79-.625c.226-.74.472-1.474.715-2.209a.9.9,0,0,1,.9-.742c.443,0,.723.236.893.754.23.7.453,1.406.683,2.108.186.57.378.718,1.006.728.834.012,1.668-.01,2.5.01a.932.932,0,0,1,.764,1.429,1.448,1.448,0,0,1-.374.363c-.614.453-1.237.894-1.854,1.343a.905.905,0,0,0-.382,1.192c.249.733.508,1.462.758,2.194a.887.887,0,0,1-.277,1.1.94.94,0,0,1-1.174-.037c-.631-.45-1.256-.907-1.886-1.359a.948.948,0,0,0-1.342.009c-.609.44-1.217.881-1.828,1.319a.967.967,0,0,1-1.232.061.9.9,0,0,1-.246-1.139c.243-.71.491-1.418.733-2.129a.92.92,0,0,0-.386-1.223c-.625-.457-1.257-.906-1.884-1.361a.93.93,0,0,1-.421-1.124.9.9,0,0,1,1-.647c.376,0,.752,0,1.128,0Z" transform="translate(0 -237.164)" fill="#fff"/>
    <path id="Path_77343" data-name="Path 77343" d="M1463.626,180.661a14.955,14.955,0,0,0-6.437-5.258c-.266-.115-.535-.223-.815-.34a7.983,7.983,0,1,0-10.182-.036c-.113.046-.2.083-.286.116a15.056,15.056,0,0,0-7.179,5.68,1.406,1.406,0,0,0,1.421,2.2,1.579,1.579,0,0,0,.991-.73,11.97,11.97,0,0,1,12.068-5.118,11.743,11.743,0,0,1,8.114,5.109,1.421,1.421,0,1,0,2.3-1.628Z" transform="translate(-50.248)" fill="#fff"/>
  </g>
</svg>
