<svg xmlns="http://www.w3.org/2000/svg" width="40.06" height="40.064" viewBox="0 0 40.06 40.064">
  <g id="pending-review-icon" transform="translate(-1194.017 -1042.511)">
    <path id="Path_77222" data-name="Path 77222" d="M1242.369,1104.3a10.524,10.524,0,0,0,10.748-2.695c3.007-3,3.777-6.669,2.706-10.809a16.454,16.454,0,0,1,7.205.1,16.776,16.776,0,0,1,9.775,6.318,17.155,17.155,0,0,1-22.924,24.833A16.922,16.922,0,0,1,1242.369,1104.3Zm18.213,1.889c0-2.376,0-4.684,0-6.992a1.439,1.439,0,1,0-2.86.014q0,4.112,0,8.223a1.457,1.457,0,0,0,1.637,1.616q4.089,0,8.178,0a1.441,1.441,0,1,0,.012-2.86q-3.218,0-6.435,0Z" transform="translate(-42.247 -42.225)" fill="#35bae9"/>
    <path id="Path_77223" data-name="Path 77223" d="M1194.017,1051.842a9.3,9.3,0,1,1,9.285,9.265A9.3,9.3,0,0,1,1194.017,1051.842Zm10.727-2.116c0-.492.009-.983,0-1.474a1.427,1.427,0,1,0-2.854-.015q-.021,1.43,0,2.86a1.427,1.427,0,0,0,2.853.015C1204.755,1050.649,1204.743,1050.187,1204.743,1049.725Zm0,5.64a1.429,1.429,0,1,0-1.4,1.448A1.435,1.435,0,0,0,1204.741,1055.365Z" transform="translate(0)" fill="#35bae9"/>
  </g>
</svg>
