<svg xmlns="http://www.w3.org/2000/svg" width="31.5" height="41.355" viewBox="0 0 31.5 41.355">
  <g id="reports-not-started-icon" transform="translate(-823.334 -1006.092)">
    <path id="Path_77219" data-name="Path 77219" d="M920.116,1006.092c.226.075.454.144.678.226a3.475,3.475,0,0,1,2.045,1.889.457.457,0,0,0,.511.314c.737-.015,1.474-.005,2.235-.005v4.826H913.512v-4.826c.705,0,1.413-.02,2.118.008a.622.622,0,0,0,.69-.423,3.517,3.517,0,0,1,2.409-1.918c.087-.023.171-.06.256-.09Z" transform="translate(-80.466 0)" fill="#35bae9"/>
    <path id="Path_77220" data-name="Path 77220" d="M830.6,1028.588v.479q0,2.726,0,5.451a1.222,1.222,0,0,0,1.324,1.338q7.147,0,14.294,0a1.228,1.228,0,0,0,1.341-1.362q0-2.705,0-5.411v-.471c.135-.009.251-.024.367-.024q2.766,0,5.532,0a1.233,1.233,0,0,1,1.37,1.373q0,18.09,0,36.179a1.234,1.234,0,0,1-1.367,1.377h-28.75a1.24,1.24,0,0,1-1.383-1.4q0-18.07,0-36.139a1.239,1.239,0,0,1,1.394-1.39C826.666,1028.587,828.6,1028.588,830.6,1028.588Zm18.228,23.206a9.691,9.691,0,1,0-19.381-.026,9.69,9.69,0,1,0,19.381.026Z" transform="translate(0 -20.073)" fill="#35bae9"/>
    <path id="Path_77221" data-name="Path 77221" d="M910.307,1191.015h-.82a.684.684,0,0,0-.1-.023,7.169,7.169,0,0,1-1.774-.351,7.259,7.259,0,1,1,5.777-13.254,7.059,7.059,0,0,1,3.67,5.167c.052.285.073.576.108.864v.683a1.151,1.151,0,0,0-.023.133,6.685,6.685,0,0,1-.576,2.387,7.166,7.166,0,0,1-5.477,4.289C910.83,1190.959,910.568,1190.981,910.307,1191.015Zm-.4-9.016c-.066-.08-.095-.122-.13-.157q-1.221-1.222-2.444-2.443c-.157-.157-.261-.157-.416,0l-1.351,1.353c-.182.183-.181.267.005.454l2.434,2.434c.035.035.067.071.106.112-.041.043-.074.079-.109.114l-2.453,2.454c-.156.157-.156.258,0,.416l1.352,1.352c.183.183.269.183.453,0l2.444-2.444c.034-.034.069-.066.117-.111.043.051.073.091.108.127l2.443,2.444c.164.164.259.164.424,0l1.352-1.352c.18-.18.179-.262,0-.443l-2.446-2.442c-.035-.035-.068-.071-.108-.113.039-.041.071-.078.106-.113l2.434-2.435c.184-.184.185-.274,0-.455l-1.333-1.333c-.186-.186-.27-.186-.453,0q-1.212,1.212-2.424,2.425A1.425,1.425,0,0,0,909.907,1182Z" transform="translate(-70.756 -152.039)" fill="#35bae9"/>
  </g>
</svg>
