<svg xmlns="http://www.w3.org/2000/svg" width="36.047" height="36.05" viewBox="0 0 36.047 36.05">
  <g id="review-icon" transform="translate(-1794 -504)">
    <path id="Path_77344" data-name="Path 77344" d="M1794,722.676c.06-.3.11-.6.183-.89a6.783,6.783,0,0,1,6.109-5.112,8.854,8.854,0,0,1-1.229-.4,4.127,4.127,0,0,1-1.1-.742,3.879,3.879,0,0,1-1.126-2.389,4.3,4.3,0,0,1,.081-1.325,3.837,3.837,0,0,1,4.009-3,3.931,3.931,0,0,1,3.681,3.535,4,4,0,0,1-3.457,4.307,6.508,6.508,0,0,1,3.737,1.469,9.871,9.871,0,0,0-1.54,7.5h-.37c-2.521,0-5.043-.014-7.564.01a1.357,1.357,0,0,1-1.419-.784Z" transform="translate(0 -185.592)" fill="#fff"/>
    <path id="Path_77345" data-name="Path 77345" d="M1924.444,504a1.659,1.659,0,0,1,.828.9c.362.774.743,1.539,1.136,2.3a.557.557,0,0,0,.35.26c.912.153,1.828.285,2.745.412a1.1,1.1,0,0,1,1.007.748,1.067,1.067,0,0,1-.351,1.171c-.665.644-1.324,1.3-1.993,1.936a.44.44,0,0,0-.15.457c.174.92.317,1.847.482,2.769a1.06,1.06,0,0,1-.4,1.124,1.047,1.047,0,0,1-1.191.052c-.817-.433-1.641-.854-2.453-1.3a.533.533,0,0,0-.578,0c-.792.431-1.6.84-2.391,1.265a1.084,1.084,0,0,1-1.254-.023,1.1,1.1,0,0,1-.387-1.194c.171-.9.3-1.8.469-2.7a.441.441,0,0,0-.149-.458c-.661-.632-1.309-1.277-1.969-1.91a1.084,1.084,0,0,1-.376-1.2,1.116,1.116,0,0,1,1.042-.752q1.358-.178,2.71-.4a.56.56,0,0,0,.349-.264c.393-.759.774-1.524,1.136-2.3a1.654,1.654,0,0,1,.827-.9Z" transform="translate(-112.142)" fill="#fff"/>
    <path id="Path_77346" data-name="Path 77346" d="M1921.689,716.67a6.672,6.672,0,0,1,4.884,2.666,6.408,6.408,0,0,1,1.345,3.779c.014.469.014.939.007,1.408a1.048,1.048,0,0,1-1.134,1.112q-5.561.005-11.121,0a1.055,1.055,0,0,1-1.152-1.13,9.263,9.263,0,0,1,.4-3.436,6.809,6.809,0,0,1,5.889-4.414,3.9,3.9,0,0,1-3.434-4.534,3.849,3.849,0,0,1,3.91-3.3,3.945,3.945,0,0,1,3.808,3.277C1925.413,714.318,1924.232,715.913,1921.689,716.67Z" transform="translate(-109.202 -185.596)" fill="#fff"/>
    <path id="Path_77347" data-name="Path 77347" d="M2063.292,725.623a9.792,9.792,0,0,0-1.588-7.479,6.813,6.813,0,0,1,3.756-1.495,4,4,0,0,1-2.765-1.662,3.921,3.921,0,0,1-.58-3.157,3.844,3.844,0,0,1,4.033-3.013,3.932,3.932,0,0,1,.261,7.824c.406.079.813.133,1.2.242a6.185,6.185,0,0,1,1.152.418,6.616,6.616,0,0,1,3.851,6.038c.015.41.011.821,0,1.232a1.022,1.022,0,0,1-.984,1.045C2068.854,725.632,2066.074,725.623,2063.292,725.623Z" transform="translate(-242.579 -185.587)" fill="#fff"/>
    <path id="Path_77348" data-name="Path 77348" d="M2053.71,586.4a1.089,1.089,0,0,1-1.146-1.261c.113-.682.243-1.361.34-2.045a.568.568,0,0,0-.133-.416q-.67-.7-1.381-1.355a1.091,1.091,0,0,1-.372-1.2,1.1,1.1,0,0,1,1.043-.751c.628-.078,1.254-.168,1.877-.28a.571.571,0,0,0,.355-.258c.308-.578.595-1.169.875-1.761a1.077,1.077,0,0,1,2.014,0c.28.593.565,1.184.874,1.762a.569.569,0,0,0,.359.252c.634.113,1.272.2,1.911.287a1.085,1.085,0,0,1,.631,1.948c-.443.419-.864.862-1.318,1.268a.58.58,0,0,0-.2.617c.114.586.2,1.177.314,1.764a1.113,1.113,0,0,1-.4,1.224,1.088,1.088,0,0,1-1.254,0c-.555-.3-1.123-.582-1.676-.889a.472.472,0,0,0-.517.006q-.862.473-1.741.916A3.221,3.221,0,0,1,2053.71,586.4Z" transform="translate(-232.844 -65.585)" fill="#fff"/>
    <path id="Path_77349" data-name="Path 77349" d="M1811.508,585.207c.1-.569.2-1.241.333-1.906a.7.7,0,0,0-.233-.768c-.451-.392-.861-.83-1.293-1.243a1.056,1.056,0,0,1-.343-1.172,1.083,1.083,0,0,1,.977-.739c.65-.089,1.3-.174,1.946-.288a.571.571,0,0,0,.355-.261c.307-.579.593-1.17.873-1.763a1.078,1.078,0,0,1,2.014.01c.275.582.556,1.163.861,1.729a.612.612,0,0,0,.375.28c.633.117,1.272.2,1.911.288a1.083,1.083,0,0,1,.647,1.928c-.462.433-.9.887-1.365,1.321a.484.484,0,0,0-.177.514c.134.642.219,1.293.338,1.938a1.051,1.051,0,0,1-.415,1.117,1.024,1.024,0,0,1-1.16.053c-.571-.3-1.149-.584-1.706-.906a.573.573,0,0,0-.643.006c-.583.324-1.172.64-1.774.927A1.056,1.056,0,0,1,1811.508,585.207Z" transform="translate(-14.417 -65.584)" fill="#fff"/>
  </g>
</svg>
