<svg xmlns="http://www.w3.org/2000/svg" width="39.774" height="40.788" viewBox="0 0 39.774 40.788">
  <g id="alerts-icon" transform="translate(-1825 -176)">
    <g id="Group_43145" data-name="Group 43145" transform="translate(3683.422 -1473.975)">
      <path id="Path_68713" data-name="Path 68713" d="M-1830.34,1718.657v.469q0,3.186,0,6.371c0,.835-.219,1.056-1.038,1.056h-26.02c-.8,0-1.023-.229-1.023-1.03q0-17.162,0-34.324c0-.788.224-1.026.983-1.026h21.224v.467c0,1.178,0,2.357,0,3.535a1.716,1.716,0,0,0,1.871,1.864c1.314,0,2.628,0,3.975,0,.01.144.025.263.026.382,0,.507-.031,1.016.008,1.52a1.959,1.959,0,0,1-.852,2.136,2.822,2.822,0,0,0-.78,1.039q-2.633,4.526-5.235,9.068a.759.759,0,0,1-.761.452q-7.173-.023-14.346-.009a2.563,2.563,0,0,0-.49.029.528.528,0,0,0-.464.544.541.541,0,0,0,.465.586,2.055,2.055,0,0,0,.45.024h14.186a4.581,4.581,0,0,0-.636,3.718h-13.553a2,2,0,0,0-.45.018.541.541,0,0,0-.461.59.532.532,0,0,0,.505.548,3.025,3.025,0,0,0,.411.008q6.824,0,13.647-.006a.761.761,0,0,1,.682.329,4.1,4.1,0,0,0,3.268,1.628c1.3.029,2.6.008,3.9.01Zm-14.026-17.82h-7.968a2.674,2.674,0,0,0-.369.008.558.558,0,0,0-.556.592.55.55,0,0,0,.531.572,2.394,2.394,0,0,0,.369.013h15.978a2.287,2.287,0,0,0,.369-.016.551.551,0,0,0,.519-.584.557.557,0,0,0-.534-.573,2.728,2.728,0,0,0-.41-.011Zm.011,6.071h7.968a2.138,2.138,0,0,0,.41-.013.544.544,0,0,0,.483-.572.545.545,0,0,0-.489-.567,1.992,1.992,0,0,0-.369-.011h-16.059a1.9,1.9,0,0,0-.369.012.537.537,0,0,0-.479.572.536.536,0,0,0,.485.567,2.289,2.289,0,0,0,.41.012Zm0,13.526h-7.968a3.184,3.184,0,0,0-.451.016.523.523,0,0,0-.486.521.525.525,0,0,0,.4.591,1.742,1.742,0,0,0,.486.047q7.989,0,15.977,0a1.813,1.813,0,0,0,.448-.03.544.544,0,0,0,.451-.6.536.536,0,0,0-.522-.535,3.762,3.762,0,0,0-.41-.011Zm-2.35-24.478q-2.935,0-5.871,0c-.454,0-.687.205-.686.578s.242.576.689.583c.369.006.739,0,1.108,0q5.255,0,10.51-.008a.888.888,0,0,0,.59-.19.737.737,0,0,0,.133-.585c-.067-.306-.34-.384-.644-.383C-1842.818,1695.957-1844.761,1695.955-1846.7,1695.955Z" transform="translate(0 -35.791)" fill="#fff"/>
      <path id="Path_68714" data-name="Path 68714" d="M-1659.235,1797.807c-2.164,0-4.328.013-6.492,0a2.932,2.932,0,0,1-2.973-3.205,3.13,3.13,0,0,1,.4-1.274q3.215-5.632,6.478-11.238a2.956,2.956,0,0,1,5.191.007q3.253,5.587,6.465,11.2a2.966,2.966,0,0,1-2.617,4.514C-1654.934,1797.819-1657.085,1797.807-1659.235,1797.807Zm.815-9.52h.209c0-.929,0-1.858,0-2.787,0-.6-.349-.9-1.02-.9s-1.025.3-1.008.9q.08,2.747.192,5.493c.024.593.346.917.84.905s.776-.339.785-.951C-1658.41,1790.064-1658.42,1789.175-1658.42,1788.287Zm.173,5.819a.977.977,0,0,0-.993-.982,1.006,1.006,0,0,0-.987,1,1,1,0,0,0,1,.979A.971.971,0,0,0-1658.247,1794.106Z" transform="translate(-168.913 -116.257)" fill="#fff"/>
      <path id="Path_68715" data-name="Path 68715" d="M-1795.91,1649.978v1.141c0,.987-.005,1.973,0,2.96a1.652,1.652,0,0,0,1.749,1.754c1.206.012,2.412,0,3.617,0h.463v7.721a4.484,4.484,0,0,0-3.035-.482c-.008-.176-.02-.32-.021-.464,0-1.069-.008-2.138,0-3.207a2.327,2.327,0,0,0-.735-1.762c-1.27-1.25-2.534-2.5-3.777-3.781a2.537,2.537,0,0,0-1.94-.8q-8.982.019-17.964.007h-.557c0-.853-.018-1.658.008-2.463a.655.655,0,0,1,.617-.616,2.065,2.065,0,0,1,.369-.01h21.2Z" transform="translate(-35.891)" fill="#fff"/>
      <path id="Path_68716" data-name="Path 68716" d="M-1590.078,1953.622v-3.457h3.039c0,.969.023,1.934-.013,2.9a.594.594,0,0,1-.618.555C-1588.46,1953.635-1589.25,1953.622-1590.078,1953.622Z" transform="translate(-238.923 -267.278)" fill="#fff"/>
      <path id="Path_68717" data-name="Path 68717" d="M-1643.852,1691.913l4.311,4.333a.7.7,0,0,1-.168.023c-1.2,0-2.406,0-3.61,0-.344,0-.554-.116-.554-.491q0-1.907,0-3.815C-1643.869,1691.933-1643.847,1691.9-1643.852,1691.913Z" transform="translate(-191.026 -37.337)" fill="#fff"/>
      <path id="Path_68718" data-name="Path 68718" d="M-1599.249,1656.051h-1.463c-.808,0-1.615,0-2.423,0-.294,0-.471-.11-.47-.43q0-1.95.007-3.9c0-.022.024-.043,0-.009Z" transform="translate(-226.879 -1.531)" fill="#fff"/>
    </g>
  </g>
</svg>
