<svg xmlns="http://www.w3.org/2000/svg" width="108.365" height="109.221" viewBox="0 0 108.365 109.221">
  <g id="analytics-icon" transform="translate(-2.005)">
    <path id="Path_77249" data-name="Path 77249" d="M136.459,139.295H72.746a9.2,9.2,0,0,1-9.2-9.2V49.619a9.2,9.2,0,0,1,9.2-9.2h63.713a9.2,9.2,0,0,1,9.2,9.2V130.1A9.2,9.2,0,0,1,136.459,139.295Z" transform="translate(-48.414 -31.798)" fill="#84a7b7"/>
    <path id="Path_77250" data-name="Path 77250" d="M165.578,121.617H110.913a4.6,4.6,0,0,1-4.6-4.6V34.241a4.6,4.6,0,0,1,4.6-4.6h54.665a4.6,4.6,0,0,1,4.6,4.6v82.778A4.6,4.6,0,0,1,165.578,121.617Z" transform="translate(-82.057 -23.319)" fill="#f2f2f2"/>
    <path id="Path_77251" data-name="Path 77251" d="M216.511,184v45.988a3.435,3.435,0,0,1-3.421,3.449h0a3.435,3.435,0,0,1-3.421-3.449V184a3.435,3.435,0,0,1,3.421-3.449h0A3.435,3.435,0,0,1,216.511,184Zm22.428-3.449A3.435,3.435,0,0,0,235.517,184v45.988a3.421,3.421,0,1,0,6.843,0V184A3.436,3.436,0,0,0,238.938,180.547Z" transform="translate(-163.364 -142.032)" fill="#30a2de"/>
    <path id="Path_77252" data-name="Path 77252" d="M155.924,160.712v18.4a3.421,3.421,0,1,1-6.842,0v-18.4a3.421,3.421,0,1,1,6.842,0Zm22.428-44.838h0a3.435,3.435,0,0,0-3.421,3.449v59.784a3.435,3.435,0,0,0,3.421,3.449h0a3.435,3.435,0,0,0,3.421-3.449V119.323A3.435,3.435,0,0,0,178.351,115.874Z" transform="translate(-115.701 -91.156)" fill="#5cc7ff"/>
    <path id="Path_77253" data-name="Path 77253" d="M110.995,108.508a11.451,11.451,0,0,1-11.4,11.5c-1.879,0-2.054-.461-3.617-1.273L79.589,135.25a1.7,1.7,0,0,1-1.21.505H40.314l-29.72,30.007a1.7,1.7,0,0,1-1.21.505,7.81,7.81,0,0,1-2.806-.505,1.734,1.734,0,0,1,0-2.439L36.8,132.812a1.7,1.7,0,0,1,1.21-.505H76.074l15.5-15.625a11.451,11.451,0,1,1,19.422-8.174Z" transform="translate(-3.204 -76.316)" fill="#f2c34e"/>
    <path id="Path_77254" data-name="Path 77254" d="M68.946,156.94a4.562,4.562,0,1,1-4.561-4.6A4.58,4.58,0,0,1,68.946,156.94Zm-26.229,16.1a4.6,4.6,0,1,0,4.561,4.6A4.58,4.58,0,0,0,42.716,173.035Zm60.441-20.694a4.6,4.6,0,1,0,4.561,4.6A4.58,4.58,0,0,0,103.157,152.341Zm21.668-22.994a4.6,4.6,0,1,0,4.561,4.6A4.58,4.58,0,0,0,124.825,129.347Z" transform="translate(-28.438 -101.754)" fill="#bf890d"/>
    <path id="Path_77255" data-name="Path 77255" d="M212.32,21.88H198.747a6.9,6.9,0,0,1-6.9-6.9h0a6.9,6.9,0,0,1,6.9-6.9H212.32a6.9,6.9,0,0,1,6.9,6.9h0A6.9,6.9,0,0,1,212.32,21.88Z" transform="translate(-149.346 -6.36)" fill="#920061"/>
    <path id="Path_77256" data-name="Path 77256" d="M218.3,24.253a6.907,6.907,0,0,1,.918,3.449h0a6.87,6.87,0,0,1-6.842,6.9H198.692a6.87,6.87,0,0,1-6.842-6.9h0a6.9,6.9,0,0,1,.918-3.449,6.829,6.829,0,0,0,5.925,3.449h13.685A6.829,6.829,0,0,0,218.3,24.253Z" transform="translate(-149.347 -19.079)" fill="#750b52"/>
    <path id="Path_77257" data-name="Path 77257" d="M15.134,67.3a1.724,1.724,0,0,0,1.724-1.724V17.82a7.471,7.471,0,0,1,5.685-7.271c-.007.123-.011.247-.011.372V58.136a1.724,1.724,0,0,0,3.449,0V10.922a2.886,2.886,0,0,1,.343-1.37c.03-.047.058-.095.083-.145a2.829,2.829,0,0,1,2.41-1.36H40.8q-.019.285-.019.575A8.632,8.632,0,0,0,49.4,17.245H62.974A8.632,8.632,0,0,0,71.6,8.623c0-.193-.006-.385-.019-.575H83.557a2.83,2.83,0,0,1,2.41,1.359,1.636,1.636,0,0,0,.084.147,2.885,2.885,0,0,1,.343,1.369v6.9a1.724,1.724,0,1,0,3.449,0v-6.9q0-.189-.011-.375a7.4,7.4,0,0,1,5.481,5.522,1.724,1.724,0,1,0,3.355-.8A10.825,10.825,0,0,0,88.405,6.9a6.262,6.262,0,0,0-4.848-2.3H70.6A8.63,8.63,0,0,0,62.974,0H49.4a8.631,8.631,0,0,0-7.625,4.6H28.818A6.261,6.261,0,0,0,23.97,6.9,10.9,10.9,0,0,0,13.409,17.82V65.571A1.724,1.724,0,0,0,15.134,67.3ZM49.4,3.449H62.974a5.174,5.174,0,1,1,0,10.347H49.4a5.174,5.174,0,1,1,0-10.347Zm47.841,16.1A13.234,13.234,0,0,0,86.831,40.813l-8.98,9.053a6.222,6.222,0,0,0-2.277-.429,6.3,6.3,0,0,0-6.049,4.6H42.849a6.29,6.29,0,1,0-11.9,4.028L18.186,70.928a6.217,6.217,0,0,0-3.052-.8,6.328,6.328,0,0,0-5.487,9.406l-7.141,7.2a1.725,1.725,0,0,0,2.449,2.429l7.127-7.185a6.219,6.219,0,0,0,3.053.8,6.328,6.328,0,0,0,5.487-9.406L33.055,60.835A6.232,6.232,0,0,0,36.8,62.083a6.3,6.3,0,0,0,6.049-4.6H69.526a6.29,6.29,0,1,0,11.085-5.5l8.651-8.722a13.019,13.019,0,0,0,6.255,2.615V98.3a7.444,7.444,0,0,1-7.4,7.473H24.257a7.445,7.445,0,0,1-7.4-7.473V86.8a1.724,1.724,0,1,0-3.449,0V98.3a10.9,10.9,0,0,0,10.848,10.922H88.119A10.9,10.9,0,0,0,98.967,98.3V45.874a13.228,13.228,0,0,0-1.725-26.329ZM15.134,79.329a2.875,2.875,0,1,1,2.837-2.874A2.859,2.859,0,0,1,15.134,79.329ZM36.8,58.634a2.825,2.825,0,0,1-2.317-1.217l-.015-.023a2.829,2.829,0,1,1,2.332,1.24Zm38.773,0a2.875,2.875,0,1,1,2.837-2.874A2.859,2.859,0,0,1,75.574,58.634Zm21.667-16.1a9.773,9.773,0,1,1,9.679-9.772A9.737,9.737,0,0,1,97.242,42.539ZM25.981,76.454V93.7a2.859,2.859,0,0,0,2.837,2.874H83.557A2.859,2.859,0,0,0,86.394,93.7V50.242a1.724,1.724,0,1,1,3.449,0V93.7a6.312,6.312,0,0,1-6.286,6.323H28.818A6.312,6.312,0,0,1,22.532,93.7V76.454a1.724,1.724,0,1,1,3.449,0ZM97.242,26.443a6.323,6.323,0,1,0,6.286,6.323A6.312,6.312,0,0,0,97.242,26.443Zm0,9.2a2.875,2.875,0,1,1,2.837-2.874A2.859,2.859,0,0,1,97.242,35.641Z" transform="translate(0)"/>
  </g>
</svg>
