<svg xmlns="http://www.w3.org/2000/svg" width="119.006" height="94.833" viewBox="0 0 119.006 94.833">
  <g id="api-integrations" transform="translate(2936 4902)">
    <g id="api-integrations-2" data-name="api-integrations" transform="translate(-2936 -4954)">
      <path id="Path_77269" data-name="Path 77269" d="M306.543,100.368a1.811,1.811,0,0,0,1.488,1.859,28.472,28.472,0,0,1,9.855,4.091,1.693,1.693,0,0,0,2.231-.186l5.95-5.95,7.81,7.81-5.764,5.95a1.71,1.71,0,0,0-.186,2.231,30.736,30.736,0,0,1,4.091,9.855,2,2,0,0,0,1.859,1.488h8v11.157h-8.368a1.811,1.811,0,0,0-1.859,1.488,32.572,32.572,0,0,1-4.091,9.855,1.693,1.693,0,0,0,.186,2.231l5.95,5.95-7.81,7.81-5.95-5.764a1.693,1.693,0,0,0-2.231-.186,30.733,30.733,0,0,1-9.855,4.091,2,2,0,0,0-1.488,1.859v7.81H295.2v-5.578h5.578a2,2,0,0,0,1.859-1.859V153.363a20.547,20.547,0,0,0,0-40.908v-7.438a1.688,1.688,0,0,0-.558-1.3l-6.694-6.88V92h11.157Z" transform="translate(-226.585 -30.703)" fill="#ff7d00"/>
      <path id="Path_77270" data-name="Path 77270" d="M304,178.1v-1.859h3.719a3.73,3.73,0,0,0,3.719-3.719V160.991a22.243,22.243,0,0,0,0-43.884v-5.95a3.671,3.671,0,0,0-1.116-2.6L304,102.231V100h7.438v6.508a3.963,3.963,0,0,0,2.789,3.719,26.536,26.536,0,0,1,9.111,3.9,3.749,3.749,0,0,0,2.045.558h0a3.671,3.671,0,0,0,2.6-1.116l4.649-4.649,5.206,5.207-4.463,4.463a3.685,3.685,0,0,0-.558,4.649,24.24,24.24,0,0,1,3.719,9.111,3.8,3.8,0,0,0,3.719,2.975h6.508v7.438H340.26a3.963,3.963,0,0,0-3.719,2.789,26.538,26.538,0,0,1-3.9,9.111,3.685,3.685,0,0,0,.558,4.649l4.649,4.649-5.206,5.207-4.463-4.463a3.671,3.671,0,0,0-2.6-1.116,4.239,4.239,0,0,0-2.045.558,27.464,27.464,0,0,1-9.3,3.9,3.8,3.8,0,0,0-2.975,3.719V178.1Z" transform="translate(-233.34 -36.843)" fill="#f90"/>
      <g id="Group_43330" data-name="Group 43330" transform="translate(3.584 60.135)">
        <path id="Path_77271" data-name="Path 77271" d="M324.77,146.828l.023-.046a33.7,33.7,0,0,0,4.23-10.227.66.66,0,0,1,.721-.558h9.53V122.516h-9.158a.867.867,0,0,1-.721-.581,31.751,31.751,0,0,0-4.23-10.2l-.07-.116-.07-.07a.787.787,0,0,1,.186-.628l6.555-6.764-9.46-9.46-6.764,6.764a.625.625,0,0,1-.418.186.511.511,0,0,1-.3-.093l-.023-.023-.023-.023a29.732,29.732,0,0,0-10.25-4.254.66.66,0,0,1-.558-.721V87H290.486v6.462l7.043,7.229a.553.553,0,0,1,.209.488v8.484l1.046.116a19.464,19.464,0,0,1,17.549,19.292,19.2,19.2,0,0,1-17.526,19.292l-1.069.093v14.085a.9.9,0,0,1-.7.7H290.3v7.9h13.481v-8.972a.867.867,0,0,1,.581-.721,31.75,31.75,0,0,0,10.2-4.23l.046-.023.047-.023a.467.467,0,0,1,.3-.093.731.731,0,0,1,.442.186l6.764,6.555,9.437-9.437-6.764-6.764a.519.519,0,0,1-.07-.721Z" transform="translate(-226.409 -87)" fill="#f2c34e"/>
        <rect id="Rectangle_5864" data-name="Rectangle 5864" width="34.412" height="12.904" transform="translate(0 9.171)" fill="#30a2de"/>
      </g>
      <g id="Group_43331" data-name="Group 43331" transform="translate(5.578 55.51)">
        <path id="Path_77272" data-name="Path 77272" d="M53.752,140.744v5.764a.8.8,0,0,1-.744.744H24.744c-.372.186-.744-.186-.744-.558V140.93a.851.851,0,0,1,.744-.93H52.822A.851.851,0,0,1,53.752,140.744Z" transform="translate(-24 -123.056)" fill="#5cc7ff"/>
        <path id="Path_77273" data-name="Path 77273" d="M235,67.1V85.207h18.107Z" transform="translate(-185.956 -67.1)" fill="#5cc7ff"/>
      </g>
      <path id="Path_77274" data-name="Path 77274" d="M80.789,83.454a.9.9,0,0,1-.7-.7V63H35V76.481H65.914a.9.9,0,0,1,.7.7V92.054a.9.9,0,0,1-.7.7H35v50.671h65.546V83.454Z" transform="translate(-26.865 -8.443)" fill="#f2f2f2"/>
      <g id="Group_43332" data-name="Group 43332" transform="translate(7.554 55.719)">
        <path id="Path_77275" data-name="Path 77275" d="M35.615,193.465,33.2,193l-.7,50.9,66.011-.186v-1.581l-48.555-4.509A14,14,0,0,1,37.288,224.4Z" transform="translate(-32.5 -163.946)" fill="#e5e5e5"/>
        <path id="Path_77276" data-name="Path 77276" d="M40,68V79.157h.558Z" transform="translate(-38.257 -68)" fill="#d9cdc1"/>
      </g>
      <path id="Path_77277" data-name="Path 77277" d="M69.916,72.454,55.784,58.322V72.454Zm21.2,29.752A16.7,16.7,0,0,0,76.238,85.656v33.285A17.027,17.027,0,0,0,91.114,102.206Zm24.173,5.578V96.627H106.92a1.811,1.811,0,0,1-1.859-1.488,32.575,32.575,0,0,0-4.091-9.855,1.693,1.693,0,0,1,.186-2.231l5.764-5.95-7.81-7.81-5.95,5.95a1.693,1.693,0,0,1-2.231.186,30.734,30.734,0,0,0-9.855-4.091,1.811,1.811,0,0,1-1.488-1.859V61.3H68.429v4.835l6.88,6.88a1.688,1.688,0,0,1,.558,1.3v7.438a20.547,20.547,0,0,1,0,40.908v13.016a2,2,0,0,1-1.859,1.859H68.429v5.578H79.585v-8.368a1.811,1.811,0,0,1,1.488-1.859,32.575,32.575,0,0,0,9.855-4.091,1.693,1.693,0,0,1,2.231.186l5.95,5.764,7.81-7.81-5.95-5.95a1.693,1.693,0,0,1-.186-2.231,30.734,30.734,0,0,0,4.091-9.855,1.811,1.811,0,0,1,1.859-1.488h8.554ZM65.081,137.536H7.438a2,2,0,0,1-1.859-1.859V85.47H1.859A1.863,1.863,0,0,1,0,83.611V68.735a1.863,1.863,0,0,1,1.859-1.859H5.578V53.859A1.863,1.863,0,0,1,7.438,52H53.925a1.688,1.688,0,0,1,1.3.558l9.855,9.855V59.438a1.863,1.863,0,0,1,1.859-1.859H81.817a1.863,1.863,0,0,1,1.859,1.859v8.74a34.466,34.466,0,0,1,8.182,3.347l6.136-6.136a1.8,1.8,0,0,1,2.6,0l10.6,10.6a1.8,1.8,0,0,1,0,2.6l-6.136,6.136a34.466,34.466,0,0,1,3.347,8.182h8.74a1.863,1.863,0,0,1,1.859,1.859v14.876a1.907,1.907,0,0,1-1.859,1.859h-8.74a34.466,34.466,0,0,1-3.347,8.182l6.136,6.136a1.8,1.8,0,0,1,0,2.6l-10.413,10.6a2.009,2.009,0,0,1-1.3.558,1.688,1.688,0,0,1-1.3-.558l-6.136-6.136a34.465,34.465,0,0,1-8.182,3.347v8.74A1.863,1.863,0,0,1,82,146.833H67.127a2,2,0,0,1-1.859-1.859v-7.438ZM9.3,85.47v48.346H72.519V76.173H53.925a2,2,0,0,1-1.859-1.859V55.719H9.3V66.876H39.049a2,2,0,0,1,1.859,1.859V83.611a2,2,0,0,1-1.859,1.859ZM37.189,70.595H3.719V81.752h33.47Z"/>
    </g>
    <text id="API" transform="translate(-2914 -4840)" fill="#1a1a1a" font-size="20" font-family="Gotham-Medium, Gotham" font-weight="500"><tspan x="0" y="0">API</tspan></text>
  </g>
</svg>
