<svg xmlns="http://www.w3.org/2000/svg" width="44.616" height="40" viewBox="0 0 44.616 40">
  <g id="bg-checked-icon" transform="translate(-2424.414 -4061.934)">
    <path id="Path_68635" data-name="Path 68635" d="M2437.562,4083.473h-.474q-5.071,0-10.141,0a2.324,2.324,0,0,1-2.532-2.543q0-8.242,0-16.485a2.317,2.317,0,0,1,2.515-2.51q15.187,0,30.374,0a2.311,2.311,0,0,1,2.495,2.483q0,6.392,0,12.784v.367a11.951,11.951,0,0,0-5.669-5.973,11.486,11.486,0,0,0-8.18-.8A11.652,11.652,0,0,0,2437.562,4083.473Zm-11.609-13.093q0,2.957,0,5.914c0,.763.252,1.024.994,1.024q5.168,0,10.336,0c.714,0,.976-.269.976-.995q0-5.937,0-11.875c0-.714-.268-.975-.995-.975q-5.168,0-10.336,0c-.715,0-.975.267-.975.994Q2425.95,4067.424,2425.953,4070.381Zm13.869-1.556h18.4v-1.481h-18.4Zm.006-4.56v1.485h13.781v-1.485Zm-3.129,14.62h-9.175v1.477h9.175Z" fill="#fff"/>
    <path id="Path_68636" data-name="Path 68636" d="M2538.433,4149.922a10,10,0,1,1,9.978,10.018A10,10,0,0,1,2538.433,4149.922Zm1.539-.026a8.46,8.46,0,1,0,8.565-8.415A8.471,8.471,0,0,0,2539.972,4149.9Z" transform="translate(-99.401 -68.006)" fill="#fff"/>
    <path id="Path_68637" data-name="Path 68637" d="M2691.417,4294.882l1.958-1.966c.058.051.144.118.22.194q3.826,3.823,7.652,7.646a1.45,1.45,0,0,1,.469,1.6,1.389,1.389,0,0,1-2.164.657,2.732,2.732,0,0,1-.283-.259q-3.808-3.806-7.615-7.614C2691.565,4295.052,2691.484,4294.955,2691.417,4294.882Z" transform="translate(-232.771 -201.368)" fill="#fff"/>
    <path id="Path_68638" data-name="Path 68638" d="M2668.805,4266.467l1.422,1.453-3.473,3.438-1.368-1.429A11.96,11.96,0,0,0,2668.805,4266.467Z" transform="translate(-210.077 -178.31)" fill="#fff"/>
    <path id="Path_68639" data-name="Path 68639" d="M2448.752,4086.115h9.16v8.264l-2.191-1.743a3.1,3.1,0,0,0,.588-2.663,3.009,3.009,0,0,0-1.167-1.763,3.084,3.084,0,0,0-4.175,4.482c-.393.259-.806.493-1.174.784s-.68.628-1.042.969Z" transform="translate(-21.218 -21.081)" fill="#fff"/>
    <path id="Path_68640" data-name="Path 68640" d="M2460.844,4148.994h-8.132a4.233,4.233,0,0,1,8.132,0Z" transform="translate(-24.671 -73.236)" fill="#fff"/>
    <path id="Path_68641" data-name="Path 68641" d="M2475.5,4111.521a1.537,1.537,0,1,1-1.485-1.577A1.549,1.549,0,0,1,2475.5,4111.521Z" transform="translate(-41.858 -41.854)" fill="#fff"/>
    <path id="Path_68642" data-name="Path 68642" d="M2576.267,4170.885a6.923,6.923,0,1,1-6.875-6.946A6.93,6.93,0,0,1,2576.267,4170.885Z" transform="translate(-120.313 -88.927)" fill="#fff"/>
  </g>
</svg>
