<svg xmlns="http://www.w3.org/2000/svg" width="781.499" height="697.189" viewBox="0 0 781.499 697.189">
  <g id="candidate-experience-image" transform="translate(-929.25 -3872.815)">
    <path id="Path_6341" data-name="Path 6341" d="M373.021,723.041C754.552,750.293,605.8,575.425,746.036,401.692s-167-373.015-373.015-373.015S.006,195.681.006,401.692-8.51,695.789,373.021,723.041Z" transform="translate(929.26 3844.138)" fill="#fff4d9"/>
    <g id="Group_3259" data-name="Group 3259" transform="translate(6943.061 -5238.458)">
      <g id="Group_3257" data-name="Group 3257" transform="translate(-5842.452 9248.458)">
        <rect id="Rectangle_1057" data-name="Rectangle 1057" width="409.238" height="559.865" fill="#008dbf"/>
        <rect id="Rectangle_1058" data-name="Rectangle 1058" width="374.362" height="529.344" transform="translate(17.438 15.101)" fill="#f3faff"/>
        <path id="Path_5908" data-name="Path 5908" d="M1361.5,634.977V654.04a19.055,19.055,0,0,0,19.046,19.064h102.3a19.055,19.055,0,0,0,19.054-19.063V634.977Z" transform="translate(-1234.495 -634.977)" fill="#1a1a1a"/>
        <rect id="Rectangle_1059" data-name="Rectangle 1059" width="46.317" height="4.688" transform="translate(41.38 508.78)" fill="#94e1fc"/>
        <rect id="Rectangle_1060" data-name="Rectangle 1060" width="46.317" height="4.688" transform="translate(98.424 508.78)" fill="#94e1fc"/>
        <rect id="Rectangle_1061" data-name="Rectangle 1061" width="64.236" height="4.688" transform="translate(41.38 519.183)" fill="#94e1fc"/>
        <path id="Path_5914" data-name="Path 5914" d="M1776.9,1016.34h-67.707V948.63H1776.9Zm-64.518-3.189h61.329V951.819h-61.329Z" transform="translate(-1422.54 -873.843)" fill="#94e1fc"/>
        <path id="Path_5915" data-name="Path 5915" d="M1756.34,989.054a4.783,4.783,0,0,1-3.686-1.735l-20.893-25.275a4.785,4.785,0,1,1,7.373-6.1l16.57,20.044,29.975-50.311a4.784,4.784,0,0,1,8.219,4.9l-33.449,56.14a4.783,4.783,0,0,1-3.743,2.321Q1756.52,989.054,1756.34,989.054Z" transform="translate(-1434.153 -860.168)" fill="#fcb200"/>
        <path id="Path_5918" data-name="Path 5918" d="M1778.04,1236.62h-67.71v-67.707h67.708Zm-64.519-3.189h61.33V1172.1h-61.33Z" transform="translate(-1423.157 -993.033)" fill="#94e1fc"/>
        <path id="Path_5919" data-name="Path 5919" d="M1757.48,1209.34a4.785,4.785,0,0,1-3.687-1.735L1732.9,1182.33a4.785,4.785,0,1,1,7.374-6.1l16.57,20.045,29.975-50.311a4.784,4.784,0,1,1,8.219,4.9L1761.59,1207a4.783,4.783,0,0,1-3.743,2.321C1757.72,1209.33,1757.6,1209.34,1757.48,1209.34Z" transform="translate(-1434.771 -979.364)" fill="#fcb200"/>
        <path id="Path_5922" data-name="Path 5922" d="M1778.04,1458.53h-67.71v-67.707h67.708Zm-64.519-3.189h61.33v-61.329h-61.33Z" transform="translate(-1423.157 -1112.964)" fill="#94e1fc"/>
        <path id="Path_5923" data-name="Path 5923" d="M1757.48,1431.25a4.783,4.783,0,0,1-3.687-1.736l-20.893-25.275a4.785,4.785,0,1,1,7.374-6.1l16.57,20.044,29.975-50.311a4.784,4.784,0,0,1,8.219,4.9l-33.448,56.14a4.784,4.784,0,0,1-3.743,2.321C1757.72,1431.24,1757.6,1431.25,1757.48,1431.25Z" transform="translate(-1434.771 -1099.296)" fill="#fcb200"/>
        <path id="Path_5926" data-name="Path 5926" d="M1557.37,1659.94a28.8,28.8,0,0,1-28.134-22.931,1.967,1.967,0,1,1,3.854-.788,24.79,24.79,0,0,0,48.51.234,1.967,1.967,0,1,1,3.846.827,28.855,28.855,0,0,1-28.076,22.658Z" transform="translate(-1347.688 -1139.019)" fill="#94e1fc"/>
        <path id="Path_5927" data-name="Path 5927" d="M1531.04,1590.22a1.967,1.967,0,0,1-1.933-2.341,28.724,28.724,0,0,1,56.046-1.523,1.967,1.967,0,1,1-3.816.957,24.79,24.79,0,0,0-48.368,1.314,1.968,1.968,0,0,1-1.929,1.593Z" transform="translate(-1347.624 -1101.158)" fill="#94e1fc"/>
        <path id="Path_5928" data-name="Path 5928" d="M1542.47,1619.93a40.823,40.823,0,1,1,40.822-40.823A40.823,40.823,0,0,1,1542.47,1619.93Zm0-76.053a35.231,35.231,0,1,0,35.23,35.23,35.231,35.231,0,0,0-35.23-35.23Z" transform="translate(-1332.789 -1086.899)" fill="#94e1fc"/>
        <rect id="Rectangle_1075" data-name="Rectangle 1075" width="16.169" height="2.588" transform="translate(201.594 487.095)" fill="#94e1fc"/>
        <rect id="Rectangle_1076" data-name="Rectangle 1076" width="16.169" height="2.588" transform="translate(201.594 497.685)" fill="#94e1fc"/>
        <rect id="Rectangle_1077" data-name="Rectangle 1077" width="23.799" height="2.588" transform="translate(197.779 492.209)" fill="#94e1fc"/>
        <path id="Path_5922-2" data-name="Path 5922" d="M1778.04,1458.53h-67.71v-67.707h67.708Zm-64.519-3.189h61.33v-61.329h-61.33Z" transform="translate(-1423.21 -1017.892)" fill="#94e1fc"/>
        <path id="Path_5923-2" data-name="Path 5923" d="M1757.48,1431.25a4.783,4.783,0,0,1-3.687-1.736l-20.893-25.275a4.785,4.785,0,1,1,7.374-6.1l16.57,20.044,29.975-50.311a4.784,4.784,0,0,1,8.219,4.9l-33.448,56.14a4.784,4.784,0,0,1-3.743,2.321C1757.72,1431.24,1757.6,1431.25,1757.48,1431.25Z" transform="translate(-1434.824 -1004.223)" fill="#fcb200"/>
        <rect id="Rectangle_1071" data-name="Rectangle 1071" width="201.04" height="6.606" transform="translate(42.192 382.91)" fill="#aec3ff"/>
        <rect id="Rectangle_1072" data-name="Rectangle 1072" width="188.647" height="6.606" transform="translate(42.192 412.427)" fill="#aec3ff"/>
        <rect id="Rectangle_1073" data-name="Rectangle 1073" width="83.492" height="6.606" transform="translate(159.741 397.669)" fill="#aec3ff"/>
        <rect id="Rectangle_1074" data-name="Rectangle 1074" width="103.034" height="6.606" transform="translate(42.192 397.669)" fill="#aec3ff"/>
        <rect id="Rectangle_1071-2" data-name="Rectangle 1071" width="201.04" height="6.606" transform="translate(42.192 382.91)" fill="#94e1fc"/>
        <rect id="Rectangle_1072-2" data-name="Rectangle 1072" width="188.647" height="6.606" transform="translate(42.192 412.427)" fill="#94e1fc"/>
        <rect id="Rectangle_1073-2" data-name="Rectangle 1073" width="83.492" height="6.606" transform="translate(159.741 397.669)" fill="#94e1fc"/>
        <rect id="Rectangle_1074-2" data-name="Rectangle 1074" width="103.034" height="6.606" transform="translate(42.192 397.669)" fill="#94e1fc"/>
        <rect id="Rectangle_1071-3" data-name="Rectangle 1071" width="201.04" height="6.606" transform="translate(42.192 287.82)" fill="#94e1fc"/>
        <rect id="Rectangle_1072-3" data-name="Rectangle 1072" width="188.647" height="6.606" transform="translate(42.192 317.337)" fill="#94e1fc"/>
        <rect id="Rectangle_1073-3" data-name="Rectangle 1073" width="83.492" height="6.606" transform="translate(159.741 302.579)" fill="#94e1fc"/>
        <rect id="Rectangle_1074-3" data-name="Rectangle 1074" width="103.034" height="6.606" transform="translate(42.192 302.579)" fill="#94e1fc"/>
        <rect id="Rectangle_1071-4" data-name="Rectangle 1071" width="201.04" height="6.606" transform="translate(42.192 185.847)" fill="#94e1fc"/>
        <rect id="Rectangle_1072-4" data-name="Rectangle 1072" width="188.647" height="6.606" transform="translate(42.192 215.364)" fill="#94e1fc"/>
        <rect id="Rectangle_1073-4" data-name="Rectangle 1073" width="83.492" height="6.606" transform="translate(159.741 200.606)" fill="#94e1fc"/>
        <rect id="Rectangle_1074-4" data-name="Rectangle 1074" width="103.034" height="6.606" transform="translate(42.192 200.606)" fill="#94e1fc"/>
        <rect id="Rectangle_1071-5" data-name="Rectangle 1071" width="201.04" height="6.606" transform="translate(42.192 84.758)" fill="#94e1fc"/>
        <rect id="Rectangle_1072-5" data-name="Rectangle 1072" width="188.647" height="6.606" transform="translate(42.192 114.309)" fill="#94e1fc"/>
        <rect id="Rectangle_1073-5" data-name="Rectangle 1073" width="83.492" height="6.606" transform="translate(159.741 99.51)" fill="#94e1fc"/>
        <rect id="Rectangle_1074-5" data-name="Rectangle 1074" width="103.034" height="6.606" transform="translate(42.192 99.51)" fill="#94e1fc"/>
      </g>
      <g id="Group_3256" data-name="Group 3256" transform="translate(-5578.932 9439.021)">
        <g id="Group_3254" data-name="Group 3254">
          <path id="Path_5929" data-name="Path 5929" d="M1022.87,1234.54s-1.272-2.86-2.1-4.214-4.342-5.322-4.94-4.423-2.994,6.945-1.722,8.637-.082,4.638,6.247,6.422Z" transform="translate(-873.22 -1148.024)" fill="#ffb27d"/>
          <path id="Path_5930" data-name="Path 5930" d="M933.666,1205.54s-32.4,27.044-45.032,24.541c-9.878-1.957-25.039-7.156-25.039-7.156l-3.032,7.755s13.6,18.443,27.771,18.564a80.746,80.746,0,0,0,38.527-9.593Z" transform="translate(-713.682 -1137.082)" fill="#7b0051"/>
          <path id="Path_5931" data-name="Path 5931" d="M774.084,1821.07s-.941,15.172-3.876,15.39c-.39.029-14.888.029-14.888.029l-18.506-.107s.121-4.459,5.531-5.4,14.464-4.744,17.741-11.894C763.533,1811.56,774.084,1821.07,774.084,1821.07Z" transform="translate(-497.28 -1467.349)" fill="#1a1a1a"/>
          <path id="Path_5932" data-name="Path 5932" d="M797.274,1608.47a38.587,38.587,0,0,1-10.018,1.882,36.782,36.782,0,0,1-9.352-1.335s-1.059-10.243-6.888-32.811c-3.056-11.829-7.42-27.038-13.628-45.938-17.166-52.232-22.386-82.788-22.863-85.681-.025-.152-.035-.228-.035-.228l.056-.025,52.774-23.172s-6.522,71.987,1.8,99.619a116.389,116.389,0,0,1,3.02,13.238C797.4,1564.04,797.274,1608.47,797.274,1608.47Z" transform="translate(-519.404 -1253.703)" fill="#fcb200"/>
          <path id="Path_5933" data-name="Path 5933" d="M788.631,1576.21c-3.056-11.829-7.42-27.038-13.628-45.938-17.166-52.232-22.386-82.788-22.862-85.681.005-.087.01-.168.021-.253l52.774-23.172s-6.522,71.987,1.8,99.619C807.9,1524.65,788.631,1576.21,788.631,1576.21Z" transform="translate(-537.018 -1253.703)" fill="#f0aa01"/>
          <path id="Path_5934" data-name="Path 5934" d="M863.857,1821.07s-.941,15.172-3.876,15.39c-.39.029-14.888.029-14.888.029l-18.506-.107s.121-4.459,5.53-5.4,14.464-4.744,17.741-11.894C853.306,1811.56,863.857,1821.07,863.857,1821.07Z" transform="translate(-628.272 -1467.349)" fill="#1a1a1a"/>
          <path id="Path_5935" data-name="Path 5935" d="M769.563,1424.86a751.26,751.26,0,0,0,7.385,103.925c8.071,57.276,5.335,81.589,5.335,81.589a54.987,54.987,0,0,0,7.783,1.979,35.32,35.32,0,0,0,11.548-1.336s11.552-57.3,8.24-85.966,15.819-98.373,15.819-98.373Z" transform="translate(-563.899 -1255.701)" fill="#fcb200"/>
          <path id="Path_5936" data-name="Path 5936" d="M832.134,1159.95l-10.3,6.755-9.383-2.653c-1.715-2.447-2.17-7.163-2.2-11.25a70.022,70.022,0,0,1,.369-7.491l13.9-6.134,5.186-2.285c-.015.08-.4,4.257-.459,4.868a35.482,35.482,0,0,0,2.882,18.19Z" transform="translate(-589.049 -1099.95)" fill="#ffb27d"/>
          <path id="Path_5937" data-name="Path 5937" d="M750.831,1304.63c12.823,12.381,61.349,10.3,64.34-3.342s-3.261-116.114-25.164-122.551c-4.545-1.336-28.844,6.518-28.844,6.518a154.113,154.113,0,0,0-6.314,22.673c-.485,2.472-1.9,28.659-2.962,53.158-.495,11.458-.913,22.549-1.127,30.669C750.565,1299.36,750.556,1304.36,750.831,1304.63Z" transform="translate(-545.405 -1122.503)" fill="#920061"/>
          <path id="Path_5938" data-name="Path 5938" d="M835.9,1144.64c-2.82,4.767-12.713,8.939-17.955,10.851a69.992,69.992,0,0,1,.369-7.492l13.9-6.134C835.279,1141.82,837.151,1142.51,835.9,1144.64Z" transform="translate(-596.736 -1102.64)" fill="#fca56b"/>
          <path id="Path_5939" data-name="Path 5939" d="M803.3,1109.96s22.394,6.986,26.529-7.027,9.812-22.548-4.311-27.6-18.492-.529-21.01,3.813S797.583,1107.79,803.3,1109.96Z" transform="translate(-586.972 -1065.455)" fill="#ffb27d"/>
          <path id="Path_5940" data-name="Path 5940" d="M781.389,1068.79s1.428,16.306,4.8,15.6,7.084-2.222,6.59,2.693,3.279,13.342,8.142,13.322c10.429-.043,21.761-26.8,18.906-31.879C811.59,1053.88,769.483,1050.92,781.389,1068.79Z" transform="translate(-562.971 -1056.442)" fill="#1a1a1a"/>
          <path id="Path_5941" data-name="Path 5941" d="M812.9,1171.59c.289-.122,16.671-7.47,18.586-6.838s4.3,6.484,4.3,6.484l-28.846,6.521S809.216,1173.14,812.9,1171.59Z" transform="translate(-591.188 -1115)" fill="#7b0051"/>
          <path id="Path_5942" data-name="Path 5942" d="M862.161,1342.19l91.832,86.461c1.8,1.695,4.07,2.235,5.044,1.2l3.1-3.293c.974-1.034.3-3.268-1.5-4.962L868.8,1335.13c-1.8-1.694-4.069-2.235-5.044-1.2l-3.1,3.293C859.685,1338.26,860.361,1340.49,862.161,1342.19Z" transform="translate(-742.437 -1206.239)" fill="#1a1a1a"/>
          <path id="Path_5943" data-name="Path 5943" d="M860.214,1449.89l40.3,37.941c1.8,1.695,4.07,2.235,5.044,1.2l3.1-3.292c.974-1.034.3-3.268-1.5-4.962l-40.3-37.941Z" transform="translate(-688.956 -1265.424)" fill="#2b2b2b"/>
          <path id="Path_5944" data-name="Path 5944" d="M1166.99,1171.91a71.978,71.978,0,1,1-119.3-72.333q.553-.552,1.13-1.09a71.982,71.982,0,0,1,118.171,73.423Zm-20.573-66.431a66.215,66.215,0,1,0,18.014,47.45,66.3,66.3,0,0,0-18.014-47.45Z" transform="translate(-1026.157 -1068.607)" fill="#1a1a1a"/>
          <g id="Group_3054" data-name="Group 3054" transform="translate(5.683 16.01)" opacity="0.5">
            <path id="Path_5945" data-name="Path 5945" d="M1056.54,1203.03a66.021,66.021,0,1,0-18.093-47.45A66.3,66.3,0,0,0,1056.54,1203.03Z" transform="translate(-1038.528 -1091.31)" fill="#7e7e7e"/>
          </g>
          <path id="Path_5946" data-name="Path 5946" d="M791.2,1325.92c50.6-36.056,46.393-84.17,46.393-84.17-18.495,10.431-36.846,33.494-45.266,53.5C791.83,1306.71,791.412,1317.8,791.2,1325.92Z" transform="translate(-585.842 -1156.665)" fill="#7b0051"/>
          <path id="Path_5947" data-name="Path 5947" d="M1002.53,1384.6a13.813,13.813,0,0,1-6.463-3.993s-1.522.1.25,3.35c.148.272.477.969.725,1.463a.315.315,0,0,1-.265.453c-2.059.156-4.129-.658-8.1.169-.547.114-.707,1.425-.686,1.984a5.062,5.062,0,0,0,1.066,3.456c.639.843,2.422,1.75,6.394,3.349,1.513.609,5.839.15,9.893-1.243l3.239-1.5-1-6.02-.814.171C1005.48,1386.51,1003.88,1384.93,1002.53,1384.6Z" transform="translate(-847.116 -1231.767)" fill="#ffb27d"/>
          <path id="Path_5948" data-name="Path 5948" d="M866.006,1193.12s45.465,8.657-13.376,74.5c-9.411,10.53-60.254,24.24-60.254,24.24s-5.157-4.388-2.557-7.941c0,0,35.007-25.421,42.71-29.463,3.465-1.818,13.448-40.574,19.1-49.908a25.466,25.466,0,0,1,14.377-11.428Z" transform="translate(-629.961 -1130.365)" fill="#920061"/>
        </g>
        <path id="Path_5949" data-name="Path 5949" d="M1020.95,1230.6a16.974,16.974,0,0,1-1.3-3.182,17.6,17.6,0,0,0-2.151-4.867c-.227-.226-.973.066-1.061,1.038a5.652,5.652,0,0,0,.535,2.107c.6,1.491.5,3.514.705,4.188C1018.19,1231.56,1020.95,1230.6,1020.95,1230.6Z" transform="translate(-873.823 -1148.298)" fill="#ffb27d"/>
      </g>
      <g id="Group_3255" data-name="Group 3255" transform="translate(-5656.478 9773.494)">
        <path id="Path_5950" data-name="Path 5950" d="M1343.47,1786.79a13.293,13.293,0,0,0,.106,1.708,14,14,0,0,0,13.906,12.3h197.074a14.014,14.014,0,1,0,0-28.028H1357.49A14.013,14.013,0,0,0,1343.47,1786.79Z" transform="translate(-1343.475 -1765.934)" fill="#2b2b2b"/>
        <path id="Path_5951" data-name="Path 5951" d="M1383.18,1757.14h67.57a2.157,2.157,0,0,0,2.151-2.151h0a2.157,2.157,0,0,0-2.151-2.151h-67.57a2.157,2.157,0,0,0-2.151,2.151h0a2.157,2.157,0,0,0,2.151,2.151Z" transform="translate(-1368.146 -1752.84)" fill="#2b2b2b"/>
        <rect id="Rectangle_1078" data-name="Rectangle 1078" width="7.324" height="2.537" transform="translate(26.088 6.838) rotate(180)" fill="#1a1a1a"/>
        <path id="Path_5952" data-name="Path 5952" d="M1348.43,1833.17a14.032,14.032,0,0,0,12.312,7.309h41.745v-7.309Z" transform="translate(-1346.732 -1805.616)" fill="#1a1a1a"/>
        <path id="Path_5953" data-name="Path 5953" d="M1644.63,1782.68v8.21a9.9,9.9,0,0,1-9.906,9.909H1429.44a9.9,9.9,0,0,1-9.906-9.909v-8.21a9.906,9.906,0,0,1,9.906-9.909h205.288a9.906,9.906,0,0,1,9.9,9.909Z" transform="translate(-1393.444 -1765.935)" fill="#fcb200"/>
        <path id="Path_5954" data-name="Path 5954" d="M1644.95,1833.17a9.9,9.9,0,0,1-9.56,7.309H1430.1a9.9,9.9,0,0,1-9.56-7.309Z" transform="translate(-1394.105 -1805.616)" fill="#f0aa01"/>
        <path id="Path_5955" data-name="Path 5955" d="M2016.32,1786.84a15.578,15.578,0,0,0,4.076,10.821c.057.057.11.114.167.171a9.947,9.947,0,0,0,7.033,3.071c4.156,0,14.456-6.27,20.84-10.434,3.181-2.076,5.39-3.628,5.39-3.628s-2.209-1.552-5.39-3.628c-6.384-4.167-16.684-10.437-20.84-10.437a9.3,9.3,0,0,0-3.449.668,11.292,11.292,0,0,0-4.752,3.75,15.467,15.467,0,0,0-2.854,6.858.716.716,0,0,0-.011.091,17.351,17.351,0,0,0-.21,2.7Z" transform="translate(-1785.523 -1765.935)" fill="#7e7e7e"/>
        <path id="Path_5956" data-name="Path 5956" d="M2016.32,1808.61a15.578,15.578,0,0,0,4.076,10.821l31.6-10.87-35.463-2.649a17.351,17.351,0,0,0-.213,2.7Z" transform="translate(-1785.523 -1787.705)" fill="#1a1a1a" opacity="0.4"/>
        <path id="Path_5957" data-name="Path 5957" d="M2025.29,1778.47l31.52,8.608-26.768-12.358a11.291,11.291,0,0,0-4.752,3.75Z" transform="translate(-1791.411 -1767.214)" fill="#565656"/>
        <path id="Path_5958" data-name="Path 5958" d="M2103.95,1806.83a3.89,3.89,0,0,0,2.057,3.628c3.181-2.076,5.39-3.628,5.39-3.628s-2.209-1.552-5.39-3.628A3.883,3.883,0,0,0,2103.95,1806.83Z" transform="translate(-1843.094 -1785.924)" fill="#1a1a1a"/>
      </g>
      <g id="Group_3253" data-name="Group 3253" transform="translate(-5981.061 9439.021)">
        <path id="Path_5959" data-name="Path 5959" d="M2199.29,1064.38c-6.728-3.49-12.118-1.3-12.118-1.3-20.585-2.417-26.59,21.589-26.311,29.849s1.221,17.132-7.971,27.862c-26.554,31,29.059,32.365,29.059,32.365.47-24.766,30.158-15.729,28.857-13.22C2248.86,1149.07,2214.59,1072.31,2199.29,1064.38Z" transform="translate(-1974.499 -1044.8)" fill="#1a1a1a"/>
        <path id="Path_5961" data-name="Path 5961" d="M2159.45,1237.72a54.27,54.27,0,0,1-5.537,8.373c-4.3,5.388-10.934,11.612-19.262,12.841a20.676,20.676,0,0,1-11.443-1.857h-.013c-1.989-4.592,3.838-18.38,5.783-19.353s13.9-27.5,16.057-31.92c4.579-9.392,11.844-12.086,11.844-12.086Z" transform="translate(-1961.712 -1118.063)" fill="#fcb200"/>
        <path id="Path_5962" data-name="Path 5962" d="M2154.45,1298.54c-4.3,5.388-10.934,11.612-19.262,12.84a20.67,20.67,0,0,1-11.443-1.857c.4.052,10.5,1.3,14.523-5.9,4.107-7.349,8.548-19.018,14.649-15.128C2155.55,1290.17,2155.43,1294.34,2154.45,1298.54Z" transform="translate(-1962.243 -1170.513)" fill="#f4904d"/>
        <path id="Path_5963" data-name="Path 5963" d="M2349.59,1788.55s6.231,5.687,5.016,9.728-6.84,6.735-7.6,11.673-3.8,7.632-6.536,7.632h-13.04s-2.013-3.475,2.85-4.523,6.7-6.851,6.394-12.239a94.925,94.925,0,0,1,.456-12.571l10.335-2.4Z" transform="translate(-2075.658 -1448.447)" fill="#1a1a1a"/>
        <path id="Path_5964" data-name="Path 5964" d="M2213.96,1797.41s2.241,24.092-.494,25.439l-35.013-.072s0-4.041,5.624-4.939,15.5-4.19,17.175-11.524S2213.96,1797.41,2213.96,1797.41Z" transform="translate(-1992.766 -1454.895)" fill="#1a1a1a"/>
        <path id="Path_5965" data-name="Path 5965" d="M2239.86,1217.82a139.519,139.519,0,0,1,0,16.183c-.347,5.851-6.266,13.689-7.105,15.627-2.107,4.863-4.484,5.654-4.484,5.654l-18.383,4.506-6.464,1.582-20.384-6.088s-9.284-25.914-5.556-40.5a112.1,112.1,0,0,1,9.423-24.718s13.818-5.454,38.29-1.381Z" transform="translate(-1991.733 -1114.414)" fill="#fcb200"/>
        <path id="Path_5966" data-name="Path 5966" d="M2266.41,1291.04c-.347,5.851-.886,11.3-1.725,13.239-2.107,4.863-4.483,5.653-4.483,5.653l-18.383,4.506-7.984-2.347s26.653-4.039,23.7-26.971Z" transform="translate(-2023.668 -1169.063)" fill="#f2ccaa"/>
        <path id="Path_5967" data-name="Path 5967" d="M2180.52,1350.15s-10.095,31.42-10.743,42.117,19.3,151.967,20.1,156.9c.756,4.646,6.525,7.608,6.525,7.608a8.732,8.732,0,0,0,6.441.5c5.254-1.484,6.915-3.26,6.915-3.26s7.858-100.752,3-136.743a570.13,570.13,0,0,1-4.919-67.114Z" transform="translate(-1987.918 -1205.345)" fill="#1a1a1a"/>
        <path id="Path_5968" data-name="Path 5968" d="M2241.06,1348.03s15.4,20.66,16.833,34.626,2.252,63.024,5.311,76.638,14.294,39.816,14.294,82.281a8.472,8.472,0,0,1-4.774,3.731,39.343,39.343,0,0,1-4.2,1.161,6.6,6.6,0,0,1-7.384-3.5c-7.6-15.3-31.794-64.625-33.035-74.865-.878-7.247-8.519-55.208-25.185-83.351-4-6.756,2.456-33.625,2.456-33.625Z" transform="translate(-2005.691 -1204.162)" fill="#2b2b2b"/>
        <path id="Path_5969" data-name="Path 5969" d="M2189.73,1339.17s4.052,3.206,12.1,3.368c9.616.194,33.443-2.452,33.443-2.452a19.71,19.71,0,0,1,1.016,6.082s-29.1,7.34-45.962,1.072C2190.32,1347.24,2188.15,1343.15,2189.73,1339.17Z" transform="translate(-1998.738 -1199.222)" fill="#920061"/>
        <path id="Path_5970" data-name="Path 5970" d="M2207.07,1353a5,5,0,1,1,4.388-4.966,4.709,4.709,0,0,1-4.388,4.966Zm0-8.478a3.569,3.569,0,1,0,2.933,3.512,3.266,3.266,0,0,0-2.933-3.514Z" transform="translate(-2006.287 -1201.396)" fill="#fff"/>
        <path id="Path_5971" data-name="Path 5971" d="M2280.9,1305.34l-23.631,20.577a4.1,4.1,0,0,1-5.783-.4l-30.153-34.628a4.1,4.1,0,0,1,.4-5.784l23.631-20.577a4.1,4.1,0,0,1,5.784.4l30.153,34.628A4.1,4.1,0,0,1,2280.9,1305.34Z" transform="translate(-2016.13 -1157.012)" fill="#af0ecc"/>
        <path id="Path_5972" data-name="Path 5972" d="M2262.42,1352.24c-.336.089-12.553,1.525-12.555,4.049,0,2.919,3.581,6.83,6.956,6.645,1.368-.074,7.671-5.87,7.671-5.87Z" transform="translate(-2032.614 -1206.516)" fill="#a16d3c"/>
        <path id="Path_5973" data-name="Path 5973" d="M2240.33,1168.81c-1.39-3.372-2.2-8.506-2.178-14.861l-.923.182-15.519,3.074s.353,4.883.364,9.484v.114c.019,4-2.7,8.005,3.71,9.59C2227.77,1176.88,2243.25,1175.89,2240.33,1168.81Z" transform="translate(-2016.797 -1095.877)" fill="#a16d3c"/>
        <path id="Path_5974" data-name="Path 5974" d="M2221.96,1157.43s.353,4.883.363,9.484c8.684-.245,13.274-8.167,15.156-12.558Z" transform="translate(-2017.041 -1096.106)" fill="#7b4d22" opacity="0.63"/>
        <path id="Path_5975" data-name="Path 5975" d="M2206.76,1127.41s20.546.339,20.56-12.459,2.676-21.374-10.442-22.132-15.671,4.124-16.715,8.394S2201.42,1126.99,2206.76,1127.41Z" transform="translate(-2004.743 -1061.726)" fill="#a16d3c"/>
        <path id="Path_5976" data-name="Path 5976" d="M2217.12,1088.92s5.625,15.015,14.259,17.235,12.378-.093,12.378-.093a24.449,24.449,0,0,1-8-14.443S2221.36,1081.78,2217.12,1088.92Z" transform="translate(-2014.339 -1058.146)" fill="#1a1a1a"/>
        <path id="Path_5977" data-name="Path 5977" d="M2207.14,1091.87s-4.172,1.559-5.889,4.6a20.691,20.691,0,0,0-2.778,11.749s-4.238-10.2.525-15.979C2204.05,1086.12,2207.14,1091.87,2207.14,1091.87Z" transform="translate(-2002.969 -1059.877)" fill="#1a1a1a"/>
        <path id="Path_5978" data-name="Path 5978" d="M2267.81,1351.34a13.975,13.975,0,0,0-4.885-.667c-1.956.274-3.4-.039-3.4.509s2.525.8,3.062,1.067S2267.81,1351.34,2267.81,1351.34Z" transform="translate(-2037.998 -1205.612)" fill="#a16d3c"/>
        <path id="Path_5979" data-name="Path 5979" d="M2278.18,1190.59s14.585,1.023,20.176,14.614,16.2,36.409,16.2,40.248-5.926,15.673-37.747,22.476c0,0-3.291-3.462-3.092-6.2,0,0,19.864-17.063,19.811-19.057-.1-3.772-3.257-8.752-20.7-26.2C2268.08,1211.73,2278.18,1190.59,2278.18,1190.59Z" transform="translate(-2044.716 -1116.32)" fill="#fcb200"/>
        <g id="Group_3251" data-name="Group 3251" transform="translate(105.788 153.491)">
          <path id="Path_6171" data-name="Path 6171" d="M1543.97,1175.06c3.781-.071,9.106.4,10.864-1.528a5.317,5.317,0,0,1,4.346-1.861l-.476-2.494-.57-2.978s-.215-.271-.99-.262a14.7,14.7,0,0,1-4.048-.35c-3.185-1.138-15.854,6.454-15.428,8.561C1537.83,1174.93,1542.36,1175.08,1543.97,1175.06Z" transform="translate(-1537.655 -1163.573)" fill="#a16d3c"/>
          <path id="Path_6339" data-name="Path 6339" d="M1565.15,1159.01s-3.145-.789-4.047-.979c-1.053-.222-2.016-1.014-2.323-.641-.571.693,1.837,1.912,2.787,4.054.466,1.051,1.4,1.623,3.285.851a1.96,1.96,0,0,0,.3-3.285Z" transform="translate(-1550.651 -1157.289)" fill="#a16d3c"/>
        </g>
        <path id="Path_6172" data-name="Path 6172" d="M1654.23,946.544s-21.4,44.21-28.028,48.955-30.236,15.007-30.236,15.007a6.021,6.021,0,0,0-.045,3.623A4.5,4.5,0,0,0,1597.7,1017s33.013-2.948,40.688-7.724,24.6-23.82,24.6-23.82Z" transform="translate(-1473.067 -854.618)" fill="#fcb200"/>
        <path id="Path_6191" data-name="Path 6191" d="M1447.85,1354.64l44.956-10.416a10.952,10.952,0,0,0,8.174-13.1l-4.514-19.482a10.951,10.951,0,0,0-13.1-8.173l-44.956,10.416a10.953,10.953,0,0,0-8.173,13.1l4.514,19.482A10.952,10.952,0,0,0,1447.85,1354.64Z" transform="translate(-1360.092 -1103.996)" fill="#2b2b2b"/>
        <path id="Path_6192" data-name="Path 6192" d="M1476.22,1301.5h0a11,11,0,0,0-9.445-3.434h-.008c-.351.046-.7.107-1.057.19l-8.951,2.076-.975-4.2a3.618,3.618,0,0,0-4.339-2.706l-2.336.54-9.4,2.178-1.694.393a3.62,3.62,0,0,0-2.706,4.339l.975,4.2-15.452,3.579a11,11,0,0,0-8.2,13.152l4.568,19.708a10.991,10.991,0,0,0,13.151,8.2l44.876-10.4a10.7,10.7,0,0,0,2.245-.788h.005a10.8,10.8,0,0,0,3-2.123,10.983,10.983,0,0,0,2.956-10.24l-4.565-19.707A10.867,10.867,0,0,0,1476.22,1301.5Zm-38.706-1.141a1.354,1.354,0,0,1,.635-1.469,1.379,1.379,0,0,1,.377-.151l2-.464,7.4-1.712,4.032-.934a1.351,1.351,0,0,1,1.62,1.009l.975,4.2-16.059,3.719Z" transform="translate(-1348.413 -1097.46)" fill="#1a1a1a"/>
        <path id="Path_6193" data-name="Path 6193" d="M1491.62,1240.48s-1.357,4.815-.892,6.349c3.158,10.4,8.619,17.2-6.06,15.444,0,0,.607-.6-2.2-5.892-3.242-6.1-3.187-6.191-.281-11.158l1-5.672Z" transform="translate(-1393.301 -1061.795)" fill="#ffb27d"/>
        <path id="Path_6194" data-name="Path 6194" d="M1537.29,1177.01c-4.432-.269-9.833-1.428-11.8-3.772a10.9,10.9,0,0,0-4.46-3.37l.68-2.9.815-3.465s.265-.308,1.175-.259c0,0,3.475.786,4.766-.211s3.65-.39,5.1.575c1.848,1.228,4.343,1.03,4.281,1.63,0,0-3.664,1.8-3.321,2.1,3.355,2.979,12.19,4.162,11.617,6.489C1545.91,1174.75,1539.17,1177.13,1537.29,1177.01Z" transform="translate(-1420.494 -1010.709)" fill="#ffb27d"/>
        <path id="Path_6195" data-name="Path 6195" d="M1336.15,841.979l-.013,2.409s.656,7.534-8.621,8.634-16.886.958-16.635-4.856c.836-4.5,2.333-11.489,2.4-15.214a26.23,26.23,0,0,0-.33-4.512l17.977-.359,5.3.865Z" transform="translate(-1281.12 -788.905)" fill="#ffb27d"/>
        <path id="Path_6196" data-name="Path 6196" d="M1340.3,828.947l-.069,13.032a15.207,15.207,0,0,1-6.48,1.43c-8.262,0-13.6-6.059-16.394-10.456a26.206,26.206,0,0,0-.33-4.512l17.978-.359Z" transform="translate(-1285.198 -788.905)" fill="#e2915a"/>
        <path id="Path_6197" data-name="Path 6197" d="M1307.15,764.884c2.086,11.226,16.571,10.857,22.83,10.151,1.762-.2,2.87-.421,2.87-.421,1.986-.53,3.095-3.659,3.609-7.757,1.022-8.11-.269-20.016-1.639-23.06-2.062-4.582-5.946-9.537-20.533-5.962S1304.47,750.5,1307.15,764.884Z" transform="translate(-1276.702 -728.24)" fill="#ffb27d"/>
        <path id="Path_6198" data-name="Path 6198" d="M1277.74,1782.67h20.525a49.57,49.57,0,0,0-1.637-7.368,20.917,20.917,0,0,0-1.162-2.957c-2-3.985-14.676-1.451-14.676-1.451s-1.177,1.009-2.1,4.863a40.855,40.855,0,0,0-.95,6.913Z" transform="translate(-1259.146 -1413.665)" fill="#1a1a1a"/>
        <path id="Path_6199" data-name="Path 6199" d="M1461.89,1759.74c.056,2.792.407,5.435,1.421,6.478h40.6c-.516-1.469-1.977-3.678-6.145-4.355-4.736-.766-12.119-3.047-16.429-7.6a12.225,12.225,0,0,1-3.181-5.761c-1.91-8.5-15.793,2.606-15.793,2.606a68.79,68.79,0,0,0-.473,8.632Z" transform="translate(-1381.27 -1397.213)" fill="#1a1a1a"/>
        <path id="Path_6200" data-name="Path 6200" d="M1341.54,1311.31a64.061,64.061,0,0,1,1.019,7.5c1.291,25.175,21.192,82.737,24.751,84.079,5.508,2.079,14.182-2.339,18.719-3.785a3.892,3.892,0,0,0,2.731-4.421c-9.856-45.307-13.478-110.548-14.8-149.173a175.274,175.274,0,0,0-4.005-32.9s-48.538-12.95-48.826,3.432C1320.88,1230.54,1337.21,1287.4,1341.54,1311.31Z" transform="translate(-1287.921 -1040.709)" fill="#2b2b2b"/>
        <path id="Path_6201" data-name="Path 6201" d="M1341.54,1311.31l32.424-65.8a175.274,175.274,0,0,0-4.005-32.9s-48.538-12.95-48.826,3.432C1320.88,1230.54,1337.21,1287.4,1341.54,1311.31Z" transform="translate(-1287.921 -1040.709)" fill="#1a1a1a"/>
        <path id="Path_6202" data-name="Path 6202" d="M1306.57,1220.89l-25.659,185.969s-11.268,2.717-20.032.543c0,0-7.512-98.907-6.886-122.818s-5.392-63.984,1.373-68.4S1306.57,1220.89,1306.57,1220.89Z" transform="translate(-1242.159 -1045.499)" fill="#2b2b2b"/>
        <path id="Path_6203" data-name="Path 6203" d="M1323.43,729.067c-4.008,1.263-12.484-.026-16.027,2.84s-.167,7.594-4.218,9.28l-.016.006a2,2,0,0,1-2.327-.583c-1.122-1.4-2.673-2.795-4.092-2.218-1.164.477-1.222,1.98-.709,3.441a4.067,4.067,0,0,1-.435,3.676,2.006,2.006,0,0,0-.441,1.48c.336,1.853,1.257,4.262,1.594,5.495l.093,1.293s-6.784-7.343-9.641-13.522c-1.96-4.24-1.921-20.088,7.67-24.72a.32.32,0,0,1-.092-.1c-.208-.371-.785-.287-.785-.287a4.323,4.323,0,0,1,2.1-.136c-.028-.02.024-.079.139-.167a3.385,3.385,0,0,1,1.3-1.921,3.759,3.759,0,0,0-.614,1.515c2.52-1.328,10.272-4.269,16.419-1.595a51.212,51.212,0,0,0,10.558,3.272,4.4,4.4,0,0,1,3.566,4.485C1327.36,723.643,1326.3,728.021,1323.43,729.067Z" transform="translate(-1264.75 -711.754)" fill="#1a1a1a"/>
        <path id="Path_6204" data-name="Path 6204" d="M1304.4,897.311l5.908,126.756s49.306.805,47.9-10.352-17.773-112.522-17.773-112.522" transform="translate(-1276.823 -834.818)" fill="#e9f3fe"/>
        <path id="Path_6205" data-name="Path 6205" d="M1268.15,967.43s-2.5,33.855-7.311,55.11c0,0-28.773,1.527-35.6-9.583,0,0,5.406-45.735,5.406-55.011,0-3.261-.251-7.694-.65-12.648-.6-7.506-1.527-16.2-2.408-23.774-1.224-10.548-2.348-18.931-2.348-18.931l23.722-19.278Z" transform="translate(-1224.325 -825.536)" fill="#920061"/>
        <path id="Path_6206" data-name="Path 6206" d="M1437.16,1007.99s-5.368,3.361-13.822,2.233c-3.076,7.546-10.335,10.109-10.335,9.427,0-.083-1.629-14.252-3.554-30.949q-.283-2.5-.58-5.065c-.016-.146-.036-.292-.051-.438-.323-2.8-.647-5.625-.974-8.441-2.315-20.109-4.54-39.386-4.54-39.386-5.045-30.886-9.317-51.3-9.317-51.3,10.765,1.12,18.027,4.954,20.926,9.976,8.591,14.891,14.812,52.135,18.457,80.015.008.071.016.142.027.213.627,4.812,1.18,9.344,1.649,13.427.032.256.059.509.087.757C1436.47,1000.14,1437.16,1007.99,1437.16,1007.99Z" transform="translate(-1336.242 -826.037)" fill="#920061"/>
        <path id="Path_6207" data-name="Path 6207" d="M1384.95,884.077" transform="translate(-1330.251 -826.041)" fill="#2b478b"/>
        <path id="Path_6208" data-name="Path 6208" d="M1373.96,823.4s.469,1.448,4.123.919c0,0,3.068-.443,2.841-2.058a9.954,9.954,0,0,0-6.964,1.139Z" transform="translate(-1322.962 -784.912)" fill="#fff"/>
        <path id="Path_6209" data-name="Path 6209" d="M1300.24,877.192c-.06-1.21,5.67-2.881,5.67-2.881s6.558,9.093,17.363,9.25c0,0-3.079,5.992-6.708,7.544C1316.57,891.1,1300.6,884.376,1300.24,877.192Z" transform="translate(-1274.069 -819.564)" fill="#d9e9f9"/>
        <path id="Path_6210" data-name="Path 6210" d="M1368.64,887.113s5.724-3.393,5.744-7.072c0,0,3.7-.463,5.312,1.33,0,0,1.357,6.3-.443,9.966C1379.25,891.338,1371,890.082,1368.64,887.113Z" transform="translate(-1319.428 -823.329)" fill="#d9e9f9"/>
        <path id="Path_6211" data-name="Path 6211" d="M1356.46,895.862l7.762-1.86a1.175,1.175,0,0,1,.986,1.352c-.028,1.264-2.186,4.958-3.142,5.254S1354.62,898.42,1356.46,895.862Z" transform="translate(-1311.135 -832.624)" fill="#fcb200"/>
        <path id="Path_6212" data-name="Path 6212" d="M1302.93,873.722c-.06-1.21,3.818-3.7,3.818-3.7s7.506,8.773,18.311,8.93c0,0-3.079,5.992-6.708,7.544C1318.35,886.494,1303.29,880.906,1302.93,873.722Z" transform="translate(-1275.85 -816.719)" fill="#e9f3fe"/>
        <path id="Path_6213" data-name="Path 6213" d="M1368.64,883.247s5.789-3.069,5.809-6.748a18.487,18.487,0,0,1,5.109,3.33,10.624,10.624,0,0,1-.305,7.641S1371,886.215,1368.64,883.247Z" transform="translate(-1319.428 -821.015)" fill="#e9f3fe"/>
        <g id="Group_3163" data-name="Group 3163" transform="translate(47.386 65.668)">
          <path id="Path_6214" data-name="Path 6214" d="M1379.24,1009.59a16.465,16.465,0,0,1-3.9,9.531l-3.478,3.926a1.774,1.774,0,0,1-2.945-.255l-4.2-6.584a10.115,10.115,0,0,1-1.444-6.266c.447-5.024,1.283-14.706,1.968-24.048.557-7.57,1.016-14.922,1.088-19.393.231-14.274-1.639-59.761-1.639-59.761l2.79.146a210.142,210.142,0,0,1,10.16,41.581c.839,5.907,1.468,12.2,1.749,18.717C1379.38,967.184,1380.59,993.162,1379.24,1009.59Z" transform="translate(-1363.229 -906.74)" fill="#fcb200"/>
          <path id="Path_6215" data-name="Path 6215" d="M1379.24,1091.76a16.465,16.465,0,0,1-3.9,9.531l-3.478,3.926a1.774,1.774,0,0,1-2.945-.255l-4.2-6.584a10.116,10.116,0,0,1-1.444-6.266c.447-5.025,1.283-14.706,1.968-24.048,7.816-10.715,11.084-25.433,12.4-37.427.839,5.907,1.468,12.2,1.749,18.717C1379.38,1049.35,1380.59,1075.33,1379.24,1091.76Z" transform="translate(-1363.229 -988.91)" fill="#fcb200"/>
        </g>
        <path id="Path_6216" data-name="Path 6216" d="M1296.76,870.02s15.367,64.363,12.922,88.608c0,0-5.651-25.909-19.247-47.131,0,0,4.962-4.364,4.692-5.973a16.983,16.983,0,0,0-7.257-.357s.4-27.744,2.623-30.675a16.24,16.24,0,0,1,6.267-4.472Z" transform="translate(-1265.864 -816.719)" fill="#7b0051"/>
        <path id="Path_6217" data-name="Path 6217" d="M1385.47,876.5c-2.3.187,15.229,62.894,16.528,82.994,0,0-1.54-35.868-1.389-46.206,0,0-6.382-3.379-6.382-4.564s6.809-4.391,6.809-4.391-4.312-22.089-6.665-24.523S1385.47,876.5,1385.47,876.5Z" transform="translate(-1330.456 -821.015)" fill="#7b0051"/>
        <path id="Path_6218" data-name="Path 6218" d="M1479.96,1266.21s-1.064,1.441-.387,5.059.3,5.615,1.239,4.991,2.87-4.968,2.87-4.968Z" transform="translate(-1392.857 -1079.481)" fill="#ffb27d"/>
        <path id="Path_6219" data-name="Path 6219" d="M1270.9,1029.07c-17.891-2.671-29.853-19.389-36.279-32.05-.6-7.506-1.527-16.2-2.408-23.774L1236.4,961.3Z" transform="translate(-1228.948 -877.26)" fill="#7b0051"/>
        <path id="Path_6220" data-name="Path 6220" d="M1464.34,1175.08c-3.562.825-14.37,2.844-25.683.241q-.283-2.5-.58-5.065c-.016-.146-.036-.292-.051-.438q.556-2.177,1.116-4.355c6.4,2.292,20.709,7.313,25.111,8.859C1464.28,1174.58,1464.31,1174.84,1464.34,1175.08Z" transform="translate(-1365.448 -1012.664)" fill="#7b0051"/>
        <path id="Path_6221" data-name="Path 6221" d="M1247.16,883.3c.006.005-15.72,1.985-22.9,12s8.234,64.566,40.214,82.035c15.384,8.4,59.772,10.3,59.772,10.3s2.44.245,3.407-4.668a19.634,19.634,0,0,0,0-4.634s-50.527-18.945-54.969-22.593S1247.16,883.3,1247.16,883.3Z" transform="translate(-1222.526 -825.526)" fill="#920061"/>
      </g>
    </g>
  </g>
</svg>
