<svg xmlns="http://www.w3.org/2000/svg" viewBox="0 0 79.07 102"><defs><style>.cls-1{fill:#fff;}</style></defs><g id="Layer_2" data-name="Layer 2"><g id="Layer_1-2" data-name="Layer 1"><path d="M57.57,102H21.44V99.29c0-2.69,0-5.37,0-8.05a2.12,2.12,0,0,0-2.13-2.32,2.09,2.09,0,0,0-2,2.28c0,.53,0,1.06,0,1.59v9.12c-.41,0-.75.08-1.1.08H2.63C.78,102,0,101.26,0,99.41c0-7-.08-14.06,0-21.09A24.91,24.91,0,0,1,23.77,53.84a5.29,5.29,0,0,1,3.32.9,23.84,23.84,0,0,0,9.78,3.83A19.3,19.3,0,0,0,50.6,55.49c2.68-1.78,5.26-1.79,8.1-1.26A24.88,24.88,0,0,1,79,78c.17,7.19,0,14.38,0,21.58,0,1.53-.76,2.41-2.14,2.42-4.88,0-9.75,0-14.63,0a2.15,2.15,0,0,1-.47-.13v-7c0-1.22,0-2.44,0-3.65a2.08,2.08,0,1,0-4.14,0c0,3.33,0,6.67,0,10C57.61,101.38,57.59,101.61,57.57,102Z"/><path d="M14.5,25.07A25,25,0,1,1,39.65,50,25,25,0,0,1,14.5,25.07Zm21.11,3.55c-1.2-1.26-2.27-2.43-3.39-3.54s-2.3-1.18-3.21-.27S28.2,26.9,29.3,28q2.19,2.2,4.4,4.39c1.52,1.51,2.47,1.5,4,0L49.42,20.67a6,6,0,0,0,.88-1,2.05,2.05,0,0,0-2.94-2.76,7.69,7.69,0,0,0-1,.92Z"/><path class="cls-1" d="M35.61,28.62,46.38,17.83a7.69,7.69,0,0,1,1-.92,2.05,2.05,0,0,1,2.94,2.76,6,6,0,0,1-.88,1L37.71,32.39c-1.54,1.53-2.49,1.54-4,0S30.76,29.5,29.3,28c-1.1-1.13-1.2-2.3-.29-3.22s2.11-.84,3.21.27S34.41,27.36,35.61,28.62Z"/></g></g></svg>