<svg xmlns="http://www.w3.org/2000/svg" width="20.001" height="20.001" viewBox="0 0 20.001 20.001">
  <g id="candidate-management" transform="translate(1897.2 -583.8)">
    <path id="Path_77170" data-name="Path 77170" d="M-1897.2,633.662a1.356,1.356,0,0,1,.537-.785,1.165,1.165,0,0,1,1.77.721,1.871,1.871,0,0,1,.036.407c0,1.926.007,3.853,0,5.779a2.037,2.037,0,0,0,.639,1.534c1.015,1,2.019,2.012,3.025,3.021a.6.6,0,0,0,.625.163.543.543,0,0,0,.386-.428.61.61,0,0,0-.216-.593q-1-1-2-2.005c-.349-.35-.684-.716-1.051-1.048a1.15,1.15,0,0,1,.018-1.6,1.153,1.153,0,0,1,1.618-.066q1.7,1.667,3.387,3.35a2.261,2.261,0,0,1,.641,1.667q0,3.26,0,6.521h-5.469a.741.741,0,0,1-.435-.786c.018-.688,0-1.378.006-2.067a2.237,2.237,0,0,0-.3-1.174c-.791-1.335-1.587-2.667-2.377-4a5.857,5.857,0,0,1-.84-1.7Z" transform="translate(0 -46.503)" fill="#fff"/>
    <path id="Path_77171" data-name="Path 77171" d="M-1679.639,650.315c0-2.155,0-4.31,0-6.464a2.474,2.474,0,0,1,.763-1.854c1.062-1.046,2.11-2.106,3.165-3.16a1.148,1.148,0,0,1,1.43-.192,1.161,1.161,0,0,1,.535,1.345,1.233,1.233,0,0,1-.3.467q-1.5,1.525-3.015,3.033a.62.62,0,0,0-.221.592.582.582,0,0,0,.965.311c.23-.211.445-.439.666-.66.806-.805,1.606-1.616,2.419-2.414a2.014,2.014,0,0,0,.627-1.519c-.008-1.946,0-3.893,0-5.839a1.189,1.189,0,0,1,.759-1.183,1.165,1.165,0,0,1,1.529.754c.016.049.037.1.055.143v6.875a5.543,5.543,0,0,1-.843,1.742c-.732,1.229-1.463,2.459-2.2,3.682a2.978,2.978,0,0,0-.473,1.7c.024.617-.009,1.237.011,1.855a.74.74,0,0,1-.435.788Z" transform="translate(-206.935 -46.514)" fill="#fff"/>
    <path id="Path_77172" data-name="Path 77172" d="M-1738.519,583.8c.131.034.264.063.394.1a2.4,2.4,0,0,1,1.674,2.717,2.4,2.4,0,0,1-2.507,1.9,2.392,2.392,0,0,1-2.212-2.193,2.415,2.415,0,0,1,1.976-2.491,1.1,1.1,0,0,0,.129-.037Z" transform="translate(-148.407)" fill="#fff"/>
    <path id="Path_77173" data-name="Path 77173" d="M-1768.222,706.573a4.729,4.729,0,0,1,7.412,0c-.028.031-.056.065-.087.1q-1.34,1.338-2.684,2.672a.431.431,0,0,1-.266.113c-.442.012-.885.008-1.327,0a.325.325,0,0,1-.206-.073q-1.418-1.384-2.827-2.778A.108.108,0,0,1-1768.222,706.573Z" transform="translate(-122.68 -115.075)" fill="#fff"/>
    <path id="Path_77174" data-name="Path 77174" d="M-1823.427,683a2.317,2.317,0,0,0-1.748.154c0-.606-.026-1.19.008-1.77a.845.845,0,0,1,.874-.756.863.863,0,0,1,.855.8c.023.441.008.884.01,1.326C-1823.426,682.827-1823.427,682.9-1823.427,683Z" transform="translate(-68.5 -92.099)" fill="#fff"/>
    <path id="Path_77175" data-name="Path 77175" d="M-1593.849,683.153a2.312,2.312,0,0,0-1.743-.165c0-.546-.024-1.074.007-1.6a.851.851,0,0,1,.865-.769.856.856,0,0,1,.865.792C-1593.83,681.984-1593.849,682.556-1593.849,683.153Z" transform="translate(-286.872 -92.094)" fill="#fff"/>
  </g>
</svg>
