<svg xmlns="http://www.w3.org/2000/svg" width="20" height="20.023" viewBox="0 0 20 20.023">
  <g id="client-management-icon" transform="translate(991.666 -207.987)">
    <path id="Path_77167" data-name="Path 77167" d="M-980.653,434.319l-3.491-.225c-.466-.03-.932-.066-1.4-.087a.506.506,0,0,0-.254.078c-.719.41-1.435.826-2.152,1.239a.662.662,0,0,1-1.045-.28q-1.264-2.187-2.527-4.375a.665.665,0,0,1,.28-1.044q2.583-1.491,5.165-2.983a3.183,3.183,0,0,1,2.514-.349c1.427.383,2.857.758,4.281,1.152a1.56,1.56,0,0,1,1.151,1.572,1.535,1.535,0,0,1-1.218,1.492,2.16,2.16,0,0,1-.9-.036c-.866-.207-1.723-.452-2.582-.688a.681.681,0,0,0-.742.164.638.638,0,0,0,.357,1.058c.791.216,1.582.433,2.377.634a4.959,4.959,0,0,0,1,.179,2.859,2.859,0,0,0,2.974-2.521.322.322,0,0,1,.14-.2c.879-.516,1.759-1.03,2.646-1.53a1.581,1.581,0,0,1,2.193.573,1.582,1.582,0,0,1-.608,2.186q-3.092,1.8-6.194,3.578A3.393,3.393,0,0,1-980.653,434.319Z" transform="translate(0 -207.462)" fill="#fff"/>
    <g id="Group_43350" data-name="Group 43350" transform="translate(-986.555 207.987)">
      <path id="Path_77168" data-name="Path 77168" d="M-859.165,206.25a3.228,3.228,0,0,1,1.255.533,2.662,2.662,0,0,1,.875,3.1,2.666,2.666,0,0,1-2.735,1.67,2.681,2.681,0,0,1-2.363-2.242,2.666,2.666,0,0,1,2.171-3.02.805.805,0,0,0,.117-.04Z" transform="translate(864.39 -206.25)" fill="#fff"/>
      <path id="Path_77169" data-name="Path 77169" d="M-899.3,303.219a3.9,3.9,0,0,0,1.729.963,3.842,3.842,0,0,0,3.536-.815c.133-.111.213-.125.354-.016a4.867,4.867,0,0,1,1.986,3.861.641.641,0,0,1-.707.713q-4.183,0-8.367,0a.638.638,0,0,1-.7-.7A4.9,4.9,0,0,1-899.3,303.219Z" transform="translate(901.464 -297.724)" fill="#fff"/>
    </g>
  </g>
</svg>
