<svg xmlns="http://www.w3.org/2000/svg" width="33.864" height="34" viewBox="0 0 33.864 34">
  <g id="company-kyc-icon" transform="translate(2464.882 -5567.544)">
    <path id="Path_68651" data-name="Path 68651" d="M1195.5,814.779c.011-.672.033-1.345.031-2.017a5.824,5.824,0,0,1,1.523-4.057c.089-.1.183-.192.277-.285.055-.053.116-.1.194-.167a5.494,5.494,0,0,0,7.639,0c.091.083.181.158.262.24a5.82,5.82,0,0,1,1.729,4.272c0,.672.02,1.345.031,2.017Z" transform="translate(-3649.281 4786.765)" fill="#fff"/>
    <path id="Path_68652" data-name="Path 68652" d="M1338.92,814.78c.091-2.063.148-4.121-1-6.013l.548-.5a5.5,5.5,0,0,0,7.631-.013,5.346,5.346,0,0,1,1.833,3.118,16.005,16.005,0,0,1,.141,2.507c.006.458-.342.709-.716.905Z" transform="translate(-3779.088 4786.764)" fill="#fff"/>
    <path id="Path_68653" data-name="Path 68653" d="M1070.86,814.793a1.275,1.275,0,0,1-.742-1.336,7.671,7.671,0,0,1,.47-3.087,5.892,5.892,0,0,1,1.528-2.1,5.5,5.5,0,0,0,7.644,0l.522.533c-1.136,1.855-1.083,3.922-.989,5.995Z" transform="translate(-3535 4786.751)" fill="#fff"/>
    <path id="Path_68654" data-name="Path 68654" d="M1178.17,506.957q0,2.572,0,5.145a3.657,3.657,0,0,1-3.821,3.818q-5.145,0-10.289,0a3.657,3.657,0,0,1-3.818-3.821q0-5.145,0-10.289a3.656,3.656,0,0,1,3.821-3.818q5.145,0,10.289,0a3.655,3.655,0,0,1,3.818,3.821Q1178.173,504.384,1178.17,506.957Zm-10.611,1.414c-.533-.536-1.036-1.048-1.546-1.554a1,1,0,1,0-1.412,1.4q1.054,1.058,2.113,2.113a1.034,1.034,0,0,0,1.691.006q2.665-2.663,5.328-5.329a2.442,2.442,0,0,0,.228-.241.958.958,0,0,0,.111-1.087.857.857,0,0,0-.952-.511,1.511,1.511,0,0,0-.736.386C1170.776,505.14,1169.186,506.742,1167.559,508.37Z" transform="translate(-3617.143 5069.554)" fill="#fff"/>
    <path id="Path_68655" data-name="Path 68655" d="M1351.227,731.484a3.485,3.485,0,1,1,3.5-3.46A3.494,3.494,0,0,1,1351.227,731.484Z" transform="translate(-3788.058 4863.087)" fill="#fff"/>
    <path id="Path_68656" data-name="Path 68656" d="M1096.511,727.969a3.485,3.485,0,1,1,3.449,3.513A3.493,3.493,0,0,1,1096.511,727.969Z" transform="translate(-3559.056 4863.088)" fill="#fff"/>
    <path id="Path_68657" data-name="Path 68657" d="M1229.145,728.041a3.48,3.48,0,1,1-3.406-3.525A3.479,3.479,0,0,1,1229.145,728.041Z" transform="translate(-3673.602 4863.085)" fill="#fff"/>
  </g>
</svg>
