<svg xmlns="http://www.w3.org/2000/svg" width="684.258" height="428.393" viewBox="0 0 684.258 428.393">
  <g id="company-information" transform="translate(-140.75 -433.456)">
    <g id="Group_178" data-name="Group 178" transform="translate(141 433.456)">
      <path id="Path_31" data-name="Path 31" d="M169.706,97.6h3.913a14.9,14.9,0,0,0,14.9,14.9v3.913a14.9,14.9,0,0,0-14.9,14.9h-3.913a14.9,14.9,0,0,0-14.9-14.9v-3.913A14.9,14.9,0,0,0,169.706,97.6Z" transform="translate(-127.953 -53.581)" fill="#1a1a1a"/>
      <path id="Path_32" data-name="Path 32" d="M154.855,73.775h1.73a14.9,14.9,0,0,0,14.9,14.9v1.729a14.9,14.9,0,0,0-14.9,14.9h-1.73a14.9,14.9,0,0,0-14.9-14.9V88.678A14.9,14.9,0,0,0,154.855,73.775Z" transform="translate(-139.954 -72.838)" fill="none" stroke="#1a1a1a" stroke-miterlimit="10" stroke-width="0.5"/>
      <path id="Path_33" data-name="Path 33" d="M181.711,73.257h0a14.9,14.9,0,0,0,14.9,14.9h0a14.9,14.9,0,0,0-14.9,14.9h0a14.9,14.9,0,0,0-14.9-14.9h0A14.9,14.9,0,0,0,181.711,73.257Z" transform="translate(-118.249 -73.257)" fill="#920061"/>
    </g>
    <path id="Path_315" data-name="Path 315" d="M426.443,320.675h3.208a21.282,21.282,0,0,0,21.283,21.28v3.208a21.282,21.282,0,0,0-21.283,21.28h-3.208a21.28,21.28,0,0,0-21.28-21.28v-3.208A21.28,21.28,0,0,0,426.443,320.675Z" transform="translate(346.309 265.959)" fill="#920061"/>
    <g id="Group_1396" data-name="Group 1396" transform="translate(215.364 443.054)">
      <path id="Path_1994" data-name="Path 1994" d="M1057.334,1076.5l-.015,2.744s.748,8.581-9.82,9.834-18.572-3.347-18.286-9.968c.952-5.128,2-8.649,2.068-12.891a29.974,29.974,0,0,0-.376-5.139l20.475-.408,6.031.984Z" transform="translate(-984.929 -1016.051)" fill="#ffb27d"/>
      <path id="Path_1995" data-name="Path 1995" d="M1057.924,1061.657l-.078,14.844a17.332,17.332,0,0,1-7.381,1.628c-9.41,0-15.493-6.9-18.672-11.909a29.95,29.95,0,0,0-.376-5.139l20.475-.408Z" transform="translate(-985.441 -1016.051)" fill="#e8945b"/>
      <path id="Path_1996" data-name="Path 1996" d="M1057.639,1058.3s-26.223,5.3-29.271-11.084-8.485-26.73,8.13-30.806,21.039,1.569,23.387,6.789S1064.382,1056.5,1057.639,1058.3Z" transform="translate(-983.961 -1005.484)" fill="#ffb27d"/>
      <path id="Path_1997" data-name="Path 1997" d="M1065.444,1086.547s6.249,33.454,13.066,68.4c7.406,37.986,25.439,74.29,27,75.712,2.171,1.976,10.923-.562,7.36-2.72-4.748-2.874-4.472-36.548-6.215-56.379-.423-4.84-2.147-9.556-2.694-12.017-2.785-12.533-3.71-54.543-12.066-61.506S1065.444,1086.547,1065.444,1086.547Z" transform="translate(-993.317 -1022.04)" fill="#ffb27d"/>
      <path id="Path_1998" data-name="Path 1998" d="M1065.444,1086.547s3.6,19.281,8.319,43.856c1.495,7.8,3.1,16.128,4.746,24.545,6.679,13.091,12.411,21.991,14.181,20.316,3.611-3.409,9.953-3.83,13.967-3.7a98.107,98.107,0,0,0-1.463-11.275c-.221-.989-.427-2.178-.629-3.531-2.336-15.77-3.661-53.893-11.358-60.3C1084.851,1089.488,1065.444,1086.547,1065.444,1086.547Z" transform="translate(-993.317 -1022.04)" fill="#008dbf"/>
      <path id="Path_1999" data-name="Path 1999" d="M1076.269,1136.99c1.495,7.8,3.1,16.128,4.746,24.546,6.679,13.091,12.411,21.991,14.181,20.316,3.611-3.409,9.953-3.83,13.967-3.7a98.076,98.076,0,0,0-1.463-11.275c-.221-.989-.427-2.178-.629-3.531l-20.024-48.337Z" transform="translate(-995.823 -1028.627)" fill="#027fab"/>
      <path id="Path_2000" data-name="Path 2000" d="M1035.239,1542.835s-.981-7.635-3.25-12.173-16.712-1.65-16.712-1.65-2.888,2.476-3.507,14.03Z" transform="translate(-980.893 -1124.245)" fill="#1a1a1a"/>
      <path id="Path_2001" data-name="Path 2001" d="M1105.727,1539.867c-3.394-2.073-1.463-17.524-1.463-17.524s15.813-12.65,17.987-2.965,15.023,14.033,22.336,15.22c5.048.819,6.611,3.615,7.1,5.269Z" transform="translate(-1002.176 -1121.38)" fill="#1a1a1a"/>
      <path id="Path_2002" data-name="Path 2002" d="M1056.712,1365.378a72.778,72.778,0,0,1,1.161,8.542c1.47,28.672,28.566,91.978,32.62,93.508,6.273,2.368,11.722-.411,16.891-2.057a4.434,4.434,0,0,0,3.11-5.035c-11.225-51.6-15.351-125.908-16.851-169.9a199.618,199.618,0,0,0-4.562-37.465s-55.282-14.75-55.61,3.909C1033.18,1273.388,1051.782,1338.141,1056.712,1365.378Z" transform="translate(-985.915 -1059.28)" fill="#2b2b2b"/>
      <path id="Path_2003" data-name="Path 2003" d="M1056.712,1365.378l36.93-74.943a199.618,199.618,0,0,0-4.562-37.465s-55.282-14.75-55.61,3.909C1033.18,1273.388,1051.782,1338.141,1056.712,1365.378Z" transform="translate(-985.915 -1059.28)" fill="#1a1a1a"/>
      <path id="Path_2004" data-name="Path 2004" d="M1061.041,1257.777l-29.224,211.809s-12.834,3.095-22.815.62c0,0-8.555-112.65-7.843-139.885s-6.14-72.873,1.564-77.906S1061.041,1257.777,1061.041,1257.777Z" transform="translate(-977.944 -1060.114)" fill="#2b2b2b"/>
      <path id="Path_2005" data-name="Path 2005" d="M1001.519,1214.3c-.095,2.454-.654,4.535,1.8,4.57l46.053.7,26.676-3.2c1.584.028,3.728-8.926,3.626-91.556-.026-18.44-28.572-38.279-29.1-38.279l-.007.006c0,2.655-4.183,7.558-10.63,7.978-7.65.5-17.037-3.305-17.037-7.711a20.461,20.461,0,0,0-2.318,2.992c-3.819,5.564-11.513,19.133-16.424,42.751-3.878,18.653-.151,43.6-2.943,75.777C1001.01,1210.656,1001.579,1212.675,1001.519,1214.3Z" transform="translate(-978.44 -1022.038)" fill="#fff"/>
      <path id="Path_2006" data-name="Path 2006" d="M1000.023,1219.131s6.121,2.743,17.572,5.116a173.178,173.178,0,0,0,34.046,3.42c22.384.141,30.861-7.573,30.861-7.573,1.584.027-2.661-17.542-2.764-100.173-.025-18.439-29.333-33.383-29.858-33.383l-.007.006s.733,24.554-6.694,31.774c0,0-10.417-8.047-23.931-30.948-3.819,5.564-12.11,15.605-17.021,39.224-1,4.806-.4,15.987-.855,21.641-1.3,16.3-1.012,36.2-3.086,60.086-.2,2.323.1,4.388.037,6.016C998.228,1216.792,997.569,1219.1,1000.023,1219.131Z" transform="translate(-977.746 -1022.038)" fill="#008dbf"/>
      <path id="Path_2007" data-name="Path 2007" d="M1000.023,1233.052s6.121,2.743,17.572,5.116c3.6-5.494,8.143-15.409,8.771-31.034,1.064-26.423-24.037-60.451-24.037-60.451l-.957,15.474c-1.3,16.3-1.012,36.2-3.086,60.086-.2,2.323.1,4.388.037,6.016C998.228,1230.713,997.569,1233.016,1000.023,1233.052Z" transform="translate(-977.746 -1035.959)" fill="#027fab"/>
      <path id="Path_2008" data-name="Path 2008" d="M997.266,1181.679l28.213-48.867a5.673,5.673,0,0,1,7.748-2.075l32.962,19.031a5.672,5.672,0,0,1,2.077,7.748l-28.214,48.867a5.672,5.672,0,0,1-7.748,2.075l-32.962-19.03A5.672,5.672,0,0,1,997.266,1181.679Z" transform="translate(-977.36 -1032.092)" fill="#1a1a1a"/>
      <path id="Path_2009" data-name="Path 2009" d="M978.588,1183.308s6,2.176,20.976.638a228.489,228.489,0,0,0,41.173-8.291l-4.772-8.149s-19.51-.86-33.8-2.953c-3.558-.519-8.1-1.286-10.634-1.964-3.107-.832,13.626-39.747,21.406-62.732,1.857-5.484,3.278-10.052,3.909-12.964,0,0-1.359.22-3.494.64-6.056,1.194-16.581,6.988-21.821,10.95C984.445,1103.841,967.737,1159.956,978.588,1183.308Z" transform="translate(-972.387 -1022.12)" fill="#ffb27d"/>
      <path id="Path_2010" data-name="Path 2010" d="M1053.953,1189.919s6.61-6.19,9.164-6.19,10.442.469,11.314,2.484c2.058,4.748-3.075,9.073-5.178,9.9a50.469,50.469,0,0,1-9.592,2.062C1057.408,1198.378,1051.849,1197.141,1053.953,1189.919Z" transform="translate(-990.549 -1044.534)" fill="#ffb27d"/>
      <path id="Path_2011" data-name="Path 2011" d="M975.029,1184.8s8.762.855,23.741-.683c-.827-4.07-1.594-12.018,2.6-19.392a85.376,85.376,0,0,1-9.322-1.8c-3.107-.832,13.265-37.471,21.045-60.456a101.7,101.7,0,0,0,0-14.849l-.536.081c-6.056,1.194-18.364,4-23.6,7.966C981.869,1101.026,964.179,1161.446,975.029,1184.8Z" transform="translate(-971.594 -1022.289)" fill="#008dbf"/>
      <path id="Path_2012" data-name="Path 2012" d="M1047.664,1117.576s-20.838-9.182-21.148-9.9,1.031-6.293,2.475-7.943c0,0-10.006.928-10.625-.31s-.825-11.555-.825-11.555,3.92-4.126,9.079-4.539c0,0,4.516,11.2,6.189,14.546C1037.245,1106.744,1047.664,1117.576,1047.664,1117.576Z" transform="translate(-982.229 -1021.294)" fill="#027fab"/>
      <path id="Path_2013" data-name="Path 2013" d="M1061.688,1099.433s-1.341,10.729-4.952,18.156c0,0,10.883-7.583,11.812-10.058s-2.631-7.273-2.631-7.273,6.5-.154,6.654-2.321-2.012-10.677-2.012-10.677-5.314-4.029-6.862-3.874Z" transform="translate(-991.301 -1021.307)" fill="#027fab"/>
      <path id="Path_2014" data-name="Path 2014" d="M1062.8,1008.16a54.951,54.951,0,0,1-15.939-4.312c-7-3.044-15.833.308-18.7,1.818a4.256,4.256,0,0,1,.7-1.725,3.848,3.848,0,0,0-1.477,2.189c-.132.1-.192.164-.158.188a4.937,4.937,0,0,0-2.4.154s.656-.093.891.329a.414.414,0,0,0,.1.115c-10.92,5.277-11.929,22.536-8.415,26.529,4.229,4.8,9.3,15.625,9.3,15.625a9.277,9.277,0,0,0,1.081-6.785c-.769-4.229,2.882-4.229,7.495-6.151s.769-7.3,4.8-10.57,18.835-1.345,18.642-3.844C1064.226,1019.721,1062.8,1008.723,1062.8,1008.16Z" transform="translate(-981.781 -1002.612)" fill="#1a1a1a"/>
      <path id="Path_2015" data-name="Path 2015" d="M1042.765,1176.795a2.75,2.75,0,1,1-2.75,2.751A2.751,2.751,0,0,1,1042.765,1176.795Z" transform="translate(-987.431 -1042.929)" fill="#dfdfdf"/>
      <path id="Path_2027" data-name="Path 2027" d="M1124.755,1270.237s9.75,3.563,10.031,10.782c.147,3.766-.023,8.185-4.5,7.688-3.375-.376-1.876-4.125-4.689-6s-8.624-8.626-8.812-11.813S1124.755,1270.237,1124.755,1270.237Z" transform="translate(-1005.2 -1064.337)" fill="#ffb27d"/>
    </g>
    <g id="Group_1410" data-name="Group 1410" transform="translate(364.871 453.624)">
      <path id="Path_2058" data-name="Path 2058" d="M1821.364,1053.79c3.916-2.4,10.169.467,10.169.467-2.162-3.039-10.053-2.046-10.053-2.046,15.716-3.343,19,6.705,19.269,7.646,11.4-10.288,29.652,11.643,29.652,11.643l-26.191,34.718s-2.39-5.522-5.546-3.8c-4.92,2.689-14.438-8.191-11.4-22.5a37.757,37.757,0,0,1,1.164-4.258,8.476,8.476,0,0,1-3.267.809c-2.863,0-7.189-7.306-7.773-9.761S1817.447,1056.185,1821.364,1053.79Z" transform="translate(-1776.941 -1051.533)" fill="#1a1a1a"/>
      <path id="Path_2061" data-name="Path 2061" d="M1879.61,1223.85c17.671.538,43.108-19.81,43.108-19.81l-3.481-5.354c-6.425,4.281-29.184,8.3-29.184,8.3,1.594-5.15,2.816-9.912,3.723-14.306,6.177-29.859-2.044-42.759-4.437-45.759a7.424,7.424,0,0,0-.622-.711s-.073.209-.206.606c-.294.856-.876,2.583-1.646,4.96C1881.116,1169.485,1864.843,1223.4,1879.61,1223.85Z" transform="translate(-1786.918 -1068.288)" fill="#d9935c"/>
      <path id="Path_2062" data-name="Path 2062" d="M1815.83,1246.623c8.195-18.379,12.116-23.577,12.252-29.359.109-4.574-2.147-9.508-6.526-21.606a45.008,45.008,0,0,1-2.181-8.746c-3.464-23.325,10.023-48.539,18.406-50.255,2.332-.616,6.287-9.042,6.238-22.616l1.051.207,17.652,3.495s-.4,5.556-.414,10.789c-.012,4.361.252,8.495,1.24,9.016,1.271.114,2.02.191,2.02.191s14.718,20.44,15.956,39.451-11.786,27.268.1,65.259C1893.756,1281.246,1811.3,1256.779,1815.83,1246.623Z" transform="translate(-1776.666 -1062.595)" fill="#d9935c"/>
      <path id="Path_2063" data-name="Path 2063" d="M1869.048,1117.786s-.4,5.556-.414,10.789c-9.877-.278-15.1-9.289-17.237-14.284Z" transform="translate(-1782.992 -1062.639)" fill="#cb7d45"/>
      <path id="Path_2064" data-name="Path 2064" d="M1847.768,1104.157s-5.176-8.178-6.419-15.172c-.887-4.993,1.656-23.5,20.255-20.837a25.277,25.277,0,0,1,10.479,3.963c4.038,2.727,9.866,8.615,3.349,24.765l-1.692,5.456Z" transform="translate(-1781.187 -1054.427)" fill="#1a1a1a"/>
      <path id="Path_2065" data-name="Path 2065" d="M1871.767,1116.079s-23.371.385-23.388-14.172-3.043-24.312,11.878-25.174,17.827,4.691,19.013,9.548S1877.845,1115.6,1871.767,1116.079Z" transform="translate(-1782.412 -1055.977)" fill="#d9935c"/>
      <path id="Path_2066" data-name="Path 2066" d="M1869.286,1075.556s-6.4,17.079-16.219,19.6-14.081-.105-14.081-.105a90.085,90.085,0,0,0,5.255-19.231S1864.458,1067.427,1869.286,1075.556Z" transform="translate(-1780.796 -1055.157)" fill="#1a1a1a"/>
      <path id="Path_2067" data-name="Path 2067" d="M1873.874,1077.405s4.778,3.813,5.943,7.52,1.69,11.338,3.913,11.079c0,0,4.82-11.609-.6-18.175C1877.389,1070.865,1873.874,1077.405,1873.874,1077.405Z" transform="translate(-1786.97 -1055.618)" fill="#1a1a1a"/>
      <path id="Path_2068" data-name="Path 2068" d="M1839.878,1452.544a230.883,230.883,0,0,0,14.73,41.321l7.707-.534a217.943,217.943,0,0,1-3.562-42.273c.153-16.984,2.253-37.056,8.964-56.22,23.06-65.86,19.334-113.791,19.334-113.791l-43.365,5.072-2.02.238c-.181,19.915-.7,46.955-1.145,68.1-.4,19.016-.747,33.261-.747,33.261C1831.436,1405.672,1834.465,1431.018,1839.878,1452.544Z" transform="translate(-1780.02 -1092.151)" fill="#f0aa01"/>
      <path id="Path_2069" data-name="Path 2069" d="M1778.938,1270.915l7.016,2.1s23.144-38.4,25.249-48.394c.686-3.253,2.37-9.763,4.333-17.056,4.065-15.1,9.309-33.586,9.309-33.586l1.727-7.482,5.893-25.515s-11.281,1.153-17.88,3.912c-2.184.912-3.852,2-4.433,3.277-4.848,10.659-9.687,37.558-13.089,56.747-1.9,10.694-3.342,19-4.1,20.755C1790.862,1230.585,1784.432,1257.588,1778.938,1270.915Z" transform="translate(-1770.169 -1067.364)" fill="#d9935c"/>
      <path id="Path_2070" data-name="Path 2070" d="M1810.65,1446.845c2.494,26.61,13.472,43.818,13.472,43.818l3.681,2.676s3.484-18.748,5.951-41.053c2.35-21.2,5.57-43.634,9.213-50.482,14.462-27.156,18.815-129.673,18.815-129.673l-43.968-2.182c-4.421,7.434-6.35,19.628-6.806,33.491-1.157,34.987,7.068,80.609,8.3,87.208a.027.027,0,0,0,0,.016,2.306,2.306,0,0,1-.289,1.475C1810.272,1409.455,1809.007,1429.266,1810.65,1446.845Z" transform="translate(-1775.672 -1090.187)" fill="#fcb200"/>
      <path id="Path_2071" data-name="Path 2071" d="M1871.308,1077.7s-4.559,17.884-16.951,23.613c0,0,12.392-10.989,13.443-22.8S1871.308,1077.7,1871.308,1077.7Z" transform="translate(-1783.516 -1055.341)" fill="#1a1a1a"/>
      <path id="Path_2072" data-name="Path 2072" d="M1777.55,1297.433s-2.133,5.026-4.354,6.429a12.43,12.43,0,0,0-4.792,7.482c-.847,4.978,2.969,8.065,5.773,8.065s5.488-3.825,7.137-12.96c.091-.5,2.753-5.743,2.753-5.743Z" transform="translate(-1768.283 -1095.051)" fill="#d9935c"/>
      <path id="Path_2073" data-name="Path 2073" d="M1807.245,1264.8a10.457,10.457,0,0,0,.273,3.514c.936,2.945,4.149,4.285,11.916,3.482,4.747-.495,6.863-8.451,7.807-15.237q4.278,14.566,12,16.305c7.53,1.675,45.514,6.293,48-11.764,2.735-19.859-5.453-55.024-5.9-73.983a93.816,93.816,0,0,0,1.377-17.57c-.318-13.507-4.281-21.077-7.328-24.125-.864-.662-1.728-1.077-5.194-1.671-1.77-.3-4.225-.65-7.7-1.108a13.126,13.126,0,0,0-1.388-.109c.643,1.149,9.246,14.176,8.575,17.526-.7,3.507-31.212.349-33.317-1.579s-5.434-16.7-5.434-16.7-10.8,1.181-16.089,5.025c0,0,.021.024.057.068a4.438,4.438,0,0,0-1.389,1.461c-5.639,10.735-11.269,37.827-15.229,57.152a28.144,28.144,0,0,0,20.586,3.016C1815.466,1230.766,1807.751,1254.662,1807.245,1264.8Z" transform="translate(-1773.592 -1067.505)" fill="#920061"/>
      <path id="Path_2074" data-name="Path 2074" d="M1929.055,1206.894c.268-.671,3.615-10.577,6.158-11.916s7.229-2.811,8.3-2.276,3.079,8.032,0,11.914-10.976,7.631-10.976,7.631Z" transform="translate(-1796.736 -1076.496)" fill="#d9935c"/>
      <g id="Group_1407" data-name="Group 1407" transform="translate(127.428 108.636)">
        <path id="Path_2076" data-name="Path 2076" d="M1923.576,1205.283l10.714,3.568a.678.678,0,0,0,.859-.431l6.8-20.431a.68.68,0,0,0-.43-.859l-10.715-3.568a.679.679,0,0,0-.858.43l-6.8,20.431A.679.679,0,0,0,1923.576,1205.283Z" transform="translate(-1923.112 -1183.529)" fill="#f0aa01"/>
        <path id="Path_2077" data-name="Path 2077" d="M1926.882,1206.4l9.718,3.237a1.205,1.205,0,0,0,1.523-.762l6.471-19.437a1.2,1.2,0,0,0-.762-1.522l-9.718-3.236a1.2,1.2,0,0,0-1.522.762l-6.472,19.435A1.2,1.2,0,0,0,1926.882,1206.4Z" transform="translate(-1923.633 -1183.722)" fill="#fcb200"/>
      </g>
      <path id="Path_2078" data-name="Path 2078" d="M1810.783,1484.883c2.494,26.61,13.472,43.818,13.472,43.818l3.748,3.413s3.417-19.484,5.884-41.79C1831.288,1490.514,1819.835,1490.931,1810.783,1484.883Z" transform="translate(-1775.805 -1128.225)" fill="#d9935c"/>
      <path id="Path_2079" data-name="Path 2079" d="M1841.012,1489.1a230.88,230.88,0,0,0,14.73,41.321l7.707-.534a217.941,217.941,0,0,1-3.562-42.273C1857.273,1488.932,1851.875,1490.27,1841.012,1489.1Z" transform="translate(-1781.155 -1128.708)" fill="#d9935c"/>
      <g id="Group_1408" data-name="Group 1408" transform="translate(66.15 390.341)">
        <path id="Path_2080" data-name="Path 2080" d="M1852.658,1543.643h4.92c1.648-.259,2.866-.736,4.556-.956,2.567-.337,3.749.715,3.983.956.031.033.046.05.046.05h20.9c.526-.75.021-2.489-.474-3.77a2.971,2.971,0,0,0-1.956-1.788c-2.216-.641-6.586-1.214-10.588-4.836-2.251-2.033-10.87-7.481-10.87-7.481l-.047-.009c-.189,0-1.09.279-5.011,3.591-2.026,1.707-5.48-2.413-5.48-2.413a4.912,4.912,0,0,0-1.134,1.536,5.2,5.2,0,0,0-.449,3.209c.312,1.883-.694,5.383-1.5,7.75-.487,1.434-.9,2.452-.9,2.452S1848.425,1543.115,1852.658,1543.643Z" transform="translate(-1848.657 -1525.809)" fill="#1a1a1a"/>
        <path id="Path_2081" data-name="Path 2081" d="M1852.115,1528.522c1.176.827,3.655,2.458,5.3,2.672,2.219.291,6.372-5.377,6.372-5.377l-.047-.009c-.189,0-1.09.279-5.011,3.591-2.026,1.707-5.48-2.413-5.48-2.413A4.912,4.912,0,0,0,1852.115,1528.522Z" transform="translate(-1849.269 -1525.809)" fill="#2b2b2b"/>
        <path id="Path_2082" data-name="Path 2082" d="M1852.658,1546.583h4.92c1.648-.259,2.866-.736,4.556-.956,2.567-.337,3.749.715,3.983.956.031.033.046.05.046.05h20.9c.526-.75.021-2.489-.474-3.77-.634-.565-.813,2.451-1.164,2.932s-17.051.175-18.015-.526-3.857-1.928-7.89-.964c-3.51.839-8.682-1.311-9.963-1.883-.487,1.434-.9,2.452-.9,2.452S1848.425,1546.055,1852.658,1546.583Z" transform="translate(-1848.657 -1528.749)" fill="#2b2b2b"/>
      </g>
      <g id="Group_1409" data-name="Group 1409" transform="translate(39.895 390.341)">
        <path id="Path_2083" data-name="Path 2083" d="M1820.756,1543.643h4.92c1.649-.259,2.864-.736,4.555-.956,2.567-.337,3.749.715,3.984.956.031.033.045.05.045.05h20.9c.527-.75.021-2.489-.473-3.77a2.975,2.975,0,0,0-1.956-1.788c-2.217-.641-6.587-1.214-10.588-4.836-2.253-2.033-10.871-7.481-10.871-7.481l-.045-.009c-.191,0-1.091.279-5.012,3.591-2.027,1.707-5.481-2.413-5.481-2.413a4.931,4.931,0,0,0-1.133,1.536,5.192,5.192,0,0,0-.448,3.209c.312,1.883-.695,5.383-1.5,7.75-.487,1.434-.9,2.452-.9,2.452S1816.523,1543.115,1820.756,1543.643Z" transform="translate(-1816.756 -1525.809)" fill="#1a1a1a"/>
        <path id="Path_2084" data-name="Path 2084" d="M1820.214,1528.522c1.175.827,3.654,2.458,5.3,2.672,2.22.291,6.373-5.377,6.373-5.377l-.045-.009c-.191,0-1.09.279-5.012,3.591-2.027,1.707-5.481-2.413-5.481-2.413A4.932,4.932,0,0,0,1820.214,1528.522Z" transform="translate(-1817.368 -1525.809)" fill="#2b2b2b"/>
        <path id="Path_2085" data-name="Path 2085" d="M1820.756,1546.583h4.92c1.649-.259,2.864-.736,4.555-.956,2.567-.337,3.749.715,3.984.956.031.033.045.05.045.05h20.9c.527-.75.021-2.489-.473-3.77-.635-.565-.814,2.451-1.164,2.932s-17.051.175-18.016-.526-3.858-1.928-7.89-.964c-3.51.839-8.683-1.311-9.963-1.883-.487,1.434-.9,2.452-.9,2.452S1816.523,1546.055,1820.756,1546.583Z" transform="translate(-1816.756 -1528.749)" fill="#2b2b2b"/>
      </g>
      <path id="Path_2086" data-name="Path 2086" d="M1809.172,1274.649c5.217-1.742,11.912-6.377,19.952-16.767,21.285-27.51,1.807-59.839-.8-60.441s-7.527,20.916-7.527,20.916C1817.393,1240.613,1809.678,1264.51,1809.172,1274.649Z" transform="translate(-1775.52 -1077.353)" fill="#7b0051"/>
      <path id="Path_2088" data-name="Path 2088" d="M1945.659,1193.328s-2.008-4.15-5.69-2.475-2.074,7.964.068,10.173a21.638,21.638,0,0,1,2.744,3.213Z" transform="translate(-1798.279 -1076.118)" fill="#d9935c"/>
    </g>
    <g id="Group_1383" data-name="Group 1383" transform="translate(712.116 676.264)">
      <g id="Group_1380" data-name="Group 1380" transform="translate(0)">
        <g id="Group_1375" data-name="Group 1375" transform="translate(63.917 43.719)">
          <path id="Path_1943" data-name="Path 1943" d="M2677.526,1382.4s-8.658-7.086-2.878-13.6c0,0,4.385-3.85,8.434-4.322,0,0-3.981,10.53-1.976,11.15s3.591-12.054,3.591-12.054,10.987-3.076,14.893-1.988c0,0-8.166,9.525-6.069,9.632s11.161-8.682,11.161-8.682,10.614-.81,11.189,5.636-2.66,9.047-4.266,9.159-11.452-1.766-11.422-.439,6.329,4.559,10.251,4.065c0,0-5.9,9.4-11.188,7.93s-6.367-5.093-9.654-5.94-5.88-.382-4.373.81,7.254,1.589,9.539,4.354,4.215,4.561-.965,4.7-14.038-2.091-15.151-6.254Z" transform="translate(-2668.916 -1361.355)" fill="#dc9c01"/>
          <g id="Group_1374" data-name="Group 1374" transform="translate(0 7.902)">
            <path id="Path_1944" data-name="Path 1944" d="M2717.278,1371.782s-28.459,3.945-33.261,13.141a20.753,20.753,0,0,1-4.221,8.9l-.34,1.922s4.257-6.143,5.954-6.767C2685.409,1388.98,2680.6,1379.56,2717.278,1371.782Z" transform="translate(-2675.407 -1371.782)" fill="#dc9c01"/>
            <path id="Path_1945" data-name="Path 1945" d="M2731.349,1400.555a18.032,18.032,0,0,0-4.261,13.66l1.118-.1s.462-8.635,3.386-12.5S2731.349,1400.555,2731.349,1400.555Z" transform="translate(-2726.96 -1378.513)" fill="#dc9c01"/>
          </g>
        </g>
        <g id="Group_1377" data-name="Group 1377" transform="translate(0 33.761)">
          <path id="Path_1946" data-name="Path 1946" d="M2796.875,1373.162s10.266-8.418,3.4-16.136c0,0-5.2-4.564-10.01-5.119,0,0,4.735,12.49,2.356,13.228s-4.273-14.3-4.273-14.3-13.041-3.638-17.673-2.342c0,0,9.7,11.292,7.212,11.422s-13.125-11.153-13.125-11.153-12.722-.088-13.4,7.563,3.166,10.73,5.072,10.862,13.586-2.106,13.553-.532-7.507,5.415-12.159,4.833c0,0,7,11.144,13.282,9.4s7.55-6.051,11.449-7.059,6.978-.459,5.19.957-8.6,1.893-11.313,5.176-5,5.417,1.15,5.577,16.654-2.5,17.971-7.437Z" transform="translate(-2751.285 -1348.215)" fill="#fcb200"/>
          <g id="Group_1376" data-name="Group 1376" transform="translate(6.11 9.389)">
            <path id="Path_1947" data-name="Path 1947" d="M2751.735,1360.605s33.771,4.652,39.479,15.557a24.638,24.638,0,0,0,5.018,10.557l.23,1.292.177.989s-4.727-7.158-6.741-7.9C2789.9,1381.1,2795.256,1369.795,2751.735,1360.605Z" transform="translate(-2751.735 -1360.605)" fill="#dc9c01"/>
            <path id="Path_1948" data-name="Path 1948" d="M2747.144,1394.694a21.393,21.393,0,0,1,5.071,16.2l-1.328-.114s-.555-10.245-4.03-14.829S2747.144,1394.694,2747.144,1394.694Z" transform="translate(-2702.647 -1368.58)" fill="#dc9c01"/>
          </g>
        </g>
        <g id="Group_1379" data-name="Group 1379" transform="translate(49.676)">
          <path id="Path_1949" data-name="Path 1949" d="M2682.568,1350.333s-16.531-5.74-11.552-18.415c0,0,4.363-8.014,10.055-10.889,0,0-.173,17.607,3.106,17.437s-1.223-19.633-1.223-19.633,14.477-10.437,20.8-10.943c0,0-6.857,18.385-3.721,17.413s11.159-19.771,11.159-19.771,15.7-5.9,20.018,3.259.967,14.716-1.331,15.745-17.766,3.579-17.008,5.511,11.751,3.284,17.242.445c0,0-3.594,16.976-12.154,17.674s-12.094-4.05-17.377-3.522-8.84,2.609-5.985,3.547,11.506-1.575,16.353,1.254,8.646,4.426,1.115,7.422-21.89,4.638-25.767-.875S2682.568,1350.333,2682.568,1350.333Z" transform="translate(-2670.081 -1303.663)" fill="#fcb200"/>
          <g id="Group_1378" data-name="Group 1378" transform="translate(9.272 9.455)">
            <path id="Path_1950" data-name="Path 1950" d="M2725.079,1316.14s-39.662,21.126-41.759,37.215a32.474,32.474,0,0,1-1.4,15.345l.536,3.007s2.589-11.008,4.744-12.839C2687.2,1358.867,2675.421,1347.318,2725.079,1316.14Z" transform="translate(-2680.106 -1316.14)" fill="#dc9c01"/>
            <path id="Path_1951" data-name="Path 1951" d="M2737.132,1384.792s-4.735,11.013,1.1,22.352l1.59-.746s-3.975-12.927-1.763-20.178S2737.132,1384.792,2737.132,1384.792Z" transform="translate(-2735.32 -1332.232)" fill="#dc9c01"/>
          </g>
        </g>
      </g>
      <path id="Path_1958" data-name="Path 1958" d="M2709.559,1513.3h40.8l11.616-108.677h-64.031Z" transform="translate(-2670.197 -1328.116)" fill="#920061"/>
      <path id="Path_1959" data-name="Path 1959" d="M2770.463,1411.681l1.693,95.972-9.386-95.972Z" transform="translate(-2729.504 -1330.793)" fill="#7b0051"/>
      <path id="Path_1960" data-name="Path 1960" d="M2695.947,1409h65.971a2.19,2.19,0,0,0,2.19-2.189h0a2.19,2.19,0,0,0-2.19-2.189h-65.971a2.19,2.19,0,0,0-2.19,2.189h0A2.19,2.19,0,0,0,2695.947,1409Z" transform="translate(-2669.159 -1328.116)" fill="#7b0051"/>
    </g>
    <g id="Group_1386" data-name="Group 1386" transform="translate(535.628 453.624)">
      <path id="Path_1961" data-name="Path 1961" d="M2556.137,1488.967l-6.452,27.172-9.664-.055-.354-27.117Z" transform="translate(-2405.792 -1128.872)" fill="#ffb27d"/>
      <path id="Path_1962" data-name="Path 1962" d="M2453.4,1489.551l-18.356,26.013-7.155-9.186,11.048-20.4Z" transform="translate(-2384.34 -1128.298)" fill="#ffb27d"/>
      <path id="Path_1963" data-name="Path 1963" d="M2516.029,1046.382a18.72,18.72,0,0,1,10.13-1.938,4.74,4.74,0,0,0-2.136-1.014c1.734-.257,5.6,1.462,5.6,1.462,24.119-9.294,27.911,26.221,27.4,34.473s8.1,10.945,20.654,17.446c23.944,12.4,26.048,29.014,26.048,29.014-.187.11-.382.235-.589.378-1.187-2.012-3.633-5.792-5.7-6.362a84.918,84.918,0,0,1,3.317,8.08c-7.063,5.373-20.278,17.279-29.487,25.721a13.528,13.528,0,0,0-.628-5.229l-1.138,6.852c-4.928,4.53-8.326,7.718-8.326,7.718.609-6.668-30.156-41.855-46.207-52.392-3.907-5.752-5.3-15.915-5.4-16.715.675,8.057,2.054,12.577,3.286,15.122C2499.273,1096.486,2507.186,1051.406,2516.029,1046.382Z" transform="translate(-2399.245 -1043.353)" fill="#1a1a1a"/>
      <path id="Path_1964" data-name="Path 1964" d="M2518.394,1121.56c-.08.036,7.749,4.1,13.639,2.491,5.541-1.511,9.16-8.694,9.084-8.71-2.347-.466-3.023-3.691-2.974-17.545l-1.06.209-17.834,3.531s.406,5.612.418,10.9C2519.679,1116.876,2519.41,1121.086,2518.394,1121.56Z" transform="translate(-2401.709 -1053.802)" fill="#ffb27d"/>
      <path id="Path_1965" data-name="Path 1965" d="M2519.453,1101.588s.406,5.612.418,10.9c9.979-.282,15.255-9.385,17.416-14.431Z" transform="translate(-2401.912 -1053.851)" fill="#d68d5d"/>
      <path id="Path_1966" data-name="Path 1966" d="M2536.461,1086.951s5.23-8.263,6.485-15.328c.9-5.046-1.673-23.744-20.463-21.051a25.524,25.524,0,0,0-10.588,4c-4.079,2.755-9.968,8.7-3.384,25.021l1.711,5.512Z" transform="translate(-2399.245 -1044.688)" fill="#1a1a1a"/>
      <path id="Path_1967" data-name="Path 1967" d="M2431.49,1453.821l9.455.29,10.232.313s23.635-26.315,36.894-68.5q.464-1.47.98-2.978c7.255-21.156,22.3-47.712,30.223-71.749,1.263-3.828,2.4-7.432,3.412-10.843.325-1.092.643-2.165.944-3.222,5.841-20.3,7.533-33.622,9.092-47.861l-57.237.459S2466.243,1346.955,2431.49,1453.821Z" transform="translate(-2385.032 -1082.872)" fill="#2b2b2b"/>
      <path id="Path_1968" data-name="Path 1968" d="M2493.877,1191.517c.143,27.237-4,38.923-4,38.923s24.507,12.451,53.634,3.286c.344-.109,21.332-5.288,21.332-5.288-.488-1.1-7.917-18.838-8.391-19.85-6.15-13.206-4.939-19.862-5.669-23.923a86.32,86.32,0,0,1-.708-22.819,183.081,183.081,0,0,1,7.064-35.836c-7.937-1.805-15.575-4.894-23.836-7.992-1.9,2.366-7.5,4.757-12.54,4.644-5.8-.128-7.615-2.581-7.4-5.345-6.182,3.44-11.1,6.713-11.1,6.713-5.255,9.128-15.912,17.992-16.684,31.994C2485.393,1159.467,2493.872,1190.754,2493.877,1191.517Z" transform="translate(-2395.411 -1057.548)" fill="#e7f1fd"/>
      <path id="Path_1969" data-name="Path 1969" d="M2554.721,1201.656c2.5,3.54,7.3,25.064,19.233,27.77-6.15-15.34-10.82-22.067-11.549-26.782a116.275,116.275,0,0,1-.708-26.507c-4-7-6.976-11.8-6.976-11.8-.314-1.132-6.35-19.793-8.283-3.113S2551.926,1197.693,2554.721,1201.656Z" transform="translate(-2407.031 -1064.649)" fill="#5f9aa8"/>
      <path id="Path_1970" data-name="Path 1970" d="M2513.461,1099.159s23.613.39,23.627-14.318,3.076-24.563-12-25.433-18.01,4.738-19.21,9.646S2507.32,1098.678,2513.461,1099.159Z" transform="translate(-2399.254 -1046.417)" fill="#ffb27d"/>
      <path id="Path_1971" data-name="Path 1971" d="M2506.2,1060.069c3.644-4.417,6.4-3.456,7.946-2.13,5.1-7.624,26.325,2.6,26.325,2.6a97.33,97.33,0,0,0,4.094,17.4s-4.3,2.659-14.225.108c-7.808-2.008-13.474-13.121-15.534-17.765-1.4,1.248-4.367,4.133-5.255,6.957-1.177,3.745-1.706,11.455-3.954,11.194C2505.594,1078.432,2500.724,1066.7,2506.2,1060.069Z" transform="translate(-2398.87 -1045.61)" fill="#1a1a1a"/>
      <path id="Path_1972" data-name="Path 1972" d="M2549.5,1520.713a26.186,26.186,0,0,0,1.23,11.14s1.582,7.206-5.515,7.34-8.838-.536-8.035-4.955,2.332-12.062,2.332-12.062Z" transform="translate(-2405.279 -1134.964)" fill="#ffb27d"/>
      <path id="Path_1973" data-name="Path 1973" d="M2536.39,1545.332l.023.016H2551.1l.024-.016c.8-3.77-.51-10.87-.51-10.87-8.037,7.684-13.067-.192-13.067-.192C2536.239,1537.556,2536.39,1545.332,2536.39,1545.332Z" transform="translate(-2405.162 -1137.566)" fill="#1a1a1a"/>
      <path id="Path_1974" data-name="Path 1974" d="M2406.72,1533.476s13.085-14.861,17.1-22.251l9.73,4.985-21.75,20.426-5.089-.669Z" transform="translate(-2380.276 -1133.143)" fill="#ffb27d"/>
      <path id="Path_1975" data-name="Path 1975" d="M2396.788,1542.057h18.156c1.6-1.44,3.124-4.343,4.992-8.149,1.069-2.181,3.466-3.383,5.925-4.042v12.192h3.756l3.479-12.964c2.316-4.343.576-8.326-1.053-11.758-1.9,0-7.394,1.366-17.061,12.473-3.177,3.648-6.683,4.95-10.168,4.841a.9.9,0,0,1-.144.077C2399.166,1537.249,2397.372,1540.353,2396.788,1542.057Z" transform="translate(-2378.371 -1134.316)" fill="#1a1a1a"/>
      <path id="Path_1976" data-name="Path 1976" d="M2397.292,1134.7s15.5,8.667,21.036,11.166c1.969.887,5.536,2.547,9.181,4.25,2.2,1.027,4.427,2.074,6.354,2.98a7.989,7.989,0,0,0,9.466-2.042c8.392-9.8,30.111-31.038,52.542-33.7l.078-.034-.01.025.029,0-.124.242c-1.26,3.135-13.556,33.857-13.938,40.337-.4,6.829-1.606,111.687-1.606,111.687s.8,4.82-8.438,2.811-11.65-4.017-11.65-4.017,8.839-64.683,6.427-87.181a50.081,50.081,0,0,1,.941-14.5c-13.66,8.274-29.767,11.955-29.767,11.955a135.555,135.555,0,0,1-15.342-8.4,96.392,96.392,0,0,1-12.936-10.409c-5.405-4.955-14.7-16.924-14.7-16.924Z" transform="translate(-2377.996 -1057.548)" fill="#fcb200"/>
      <path id="Path_1977" data-name="Path 1977" d="M2443.19,1463.959l10.232.313s23.635-26.315,36.893-68.5q.464-1.471.98-2.978c7.255-21.156,22.3-47.712,30.224-71.749,1.262-3.828,2.4-7.432,3.411-10.843.325-1.093.643-2.165.944-3.222l-8.429-6.4s-25.306,40.979-33.141,79.544C2477.5,1413.627,2450.244,1453.934,2443.19,1463.959Z" transform="translate(-2387.277 -1092.719)" fill="#1a1a1a"/>
      <path id="Path_1978" data-name="Path 1978" d="M2532.656,1381.138c-.144,18.754.8,61.87,3.246,79.719h9.064c5.009,0,7.509-.072,7.509-.072,6.126-31.035,10.484-56.715,13.659-78.844,2.6-18.159,4.918-33.727,6.7-47.129,1.792-13.488,3.038-24.78,3.484-34.322.068-1.5.12-2.966.147-4.384s.036-2.811.024-4.158l-49.456-4.821C2527.654,1319.986,2532.736,1370.238,2532.656,1381.138Z" transform="translate(-2403.367 -1090.136)" fill="#2b2b2b"/>
      <path id="Path_1979" data-name="Path 1979" d="M2549.225,1464.031c5.009,0,7.509-.072,7.509-.072,6.126-31.035,10.484-56.716,13.659-78.844,2.6-18.16,4.918-33.727,6.7-47.129,1.792-13.488,3.038-24.78,3.484-34.322l-18.147,10.674s11.583,4.086,7.163,35.022S2555.375,1459.652,2549.225,1464.031Z" transform="translate(-2407.626 -1093.31)" fill="#1a1a1a"/>
      <path id="Path_1980" data-name="Path 1980" d="M2542.32,1267.763s3.484,12.587,15.536,10.98,29.191-8.839,29.191-8.839-5.151-16.275-11.554-37.656c-7.754-25.885-17.352-59.255-21.876-80.3a130.26,130.26,0,0,1-2.459-14.351l-10.207-19.409s-14.7,33.47-15.506,41.907S2542.32,1267.763,2542.32,1267.763Z" transform="translate(-2403.058 -1057.714)" fill="#fcb200"/>
      <path id="Path_1981" data-name="Path 1981" d="M2546.994,1185.787c.538,13.66,3.752,40.176,32.409,54.37.076.036.153.076.23.108-7.754-25.885-17.352-59.255-21.876-80.3C2552.494,1167.829,2546.7,1178.266,2546.994,1185.787Z" transform="translate(-2407.196 -1065.732)" fill="#f0aa01"/>
      <g id="Group_1384" data-name="Group 1384" transform="translate(0 67.731)">
        <path id="Path_1982" data-name="Path 1982" d="M2378.031,1127.334c13.189-1.7,16.517,10.3,16.517,10.3l-2.462,8.239c-4.066.562-7.624-.5-10.9-5.188s-4.181-2.89-6.264-6.38C2372.1,1129.572,2376.517,1127.808,2378.031,1127.334Z" transform="translate(-2373.998 -1127.17)" fill="#ffb27d"/>
        <path id="Path_1983" data-name="Path 1983" d="M2418.329,1149.992c1.969.887,5.536,2.547,9.181,4.25-1.951,3.463-4.39,9.755-5.039,20.156a84.118,84.118,0,0,1-13.322-10.731,176.586,176.586,0,0,1-14.319-16.6l2.462-8.239S2412.793,1147.494,2418.329,1149.992Z" transform="translate(-2377.996 -1129.407)" fill="#ffb27d"/>
      </g>
      <path id="Path_1984" data-name="Path 1984" d="M2472.918,1196.836l-90.246-40.716v-38.327l90.246,40.715Z" transform="translate(-2375.663 -1057.639)" fill="#1a1a1a"/>
      <g id="Group_1385" data-name="Group 1385" transform="translate(9.999 74.321)">
        <path id="Path_1985" data-name="Path 1985" d="M2391.914,1145.455l-1.966,5.58a1.181,1.181,0,0,1-.254.415.326.326,0,0,1-.392.031l-1.357-.6a.747.747,0,0,1-.375-.371,1.64,1.64,0,0,1-.15-.593l-1.043-14.022a1.159,1.159,0,0,1,0-.172.442.442,0,0,1,.166-.337.317.317,0,0,1,.332-.03l1.237.533a.771.771,0,0,1,.308.264.973.973,0,0,1,.163.522l.668,9.422,1.709-5.009a1.069,1.069,0,0,1,.19-.305c.1-.116.246-.13.449-.043l1.38.6a.724.724,0,0,1,.411.415,2.177,2.177,0,0,1,.127.444l.778,6.11,2.171-8.232c.051-.195.132-.312.24-.352a.439.439,0,0,1,.334.014l1.256.541a.654.654,0,0,1,.309.309.815.815,0,0,1,.1.455,1.175,1.175,0,0,1-.032.161l-3.291,12.23a.809.809,0,0,1-.238.424.367.367,0,0,1-.412.023l-1.367-.6a.677.677,0,0,1-.361-.365,2.547,2.547,0,0,1-.168-.6Z" transform="translate(-2386.372 -1135.325)" fill="#e7f1fd"/>
        <path id="Path_1986" data-name="Path 1986" d="M2410.725,1158.315a.673.673,0,0,1,.313.311.818.818,0,0,1,.1.461l-.129,1.491a.437.437,0,0,1-.172.339.331.331,0,0,1-.341.023l-7.507-3.32a.657.657,0,0,1-.308-.309.814.814,0,0,1-.1-.459l1.157-13.516a.437.437,0,0,1,.171-.339.319.319,0,0,1,.339-.029l7.39,3.186a.664.664,0,0,1,.314.312.814.814,0,0,1,.1.459l-.129,1.5a.443.443,0,0,1-.172.34.332.332,0,0,1-.344.026l-5.543-2.4-.287,3.336,5.162,2.248a.671.671,0,0,1,.313.311.807.807,0,0,1,.1.46l-.129,1.493a.441.441,0,0,1-.172.34.327.327,0,0,1-.342.024l-5.159-2.258-.3,3.476Z" transform="translate(-2389.482 -1136.785)" fill="#e7f1fd"/>
        <path id="Path_1987" data-name="Path 1987" d="M2423.911,1164.1a.688.688,0,0,1,.318.315.835.835,0,0,1,.1.464l-.133,1.5a.438.438,0,0,1-.174.341.34.34,0,0,1-.348.022l-7.6-3.362a.682.682,0,0,1-.313-.313.819.819,0,0,1-.1-.462l1.186-13.612a.438.438,0,0,1,.175-.34.327.327,0,0,1,.343-.028l1.405.606a.659.659,0,0,1,.314.313.794.794,0,0,1,.1.459l-1.012,11.569Z" transform="translate(-2391.991 -1137.871)" fill="#e7f1fd"/>
        <path id="Path_1988" data-name="Path 1988" d="M2436.014,1167.541a.447.447,0,0,1,.224-.335.4.4,0,0,1,.341.007l1.437.629a.738.738,0,0,1,.333.312.683.683,0,0,1,.1.474,5.046,5.046,0,0,1-.522,1.589,2.909,2.909,0,0,1-1.092,1.158,3.369,3.369,0,0,1-1.714.438,5.842,5.842,0,0,1-2.387-.592,7.359,7.359,0,0,1-2.108-1.385,7.708,7.708,0,0,1-1.473-1.906,8.441,8.441,0,0,1-.844-2.3,10.5,10.5,0,0,1-.22-2.541q.036-.819.123-1.8t.192-1.766a7.332,7.332,0,0,1,.638-2.17,3.607,3.607,0,0,1,1.175-1.421,3.1,3.1,0,0,1,1.693-.53,5.178,5.178,0,0,1,2.191.494,8.025,8.025,0,0,1,2.315,1.463,8.209,8.209,0,0,1,1.513,1.851,7.075,7.075,0,0,1,.809,2.006,7.765,7.765,0,0,1,.208,1.9.4.4,0,0,1-.171.36.388.388,0,0,1-.362.008l-1.438-.626a.824.824,0,0,1-.326-.286.9.9,0,0,1-.157-.5,3.432,3.432,0,0,0-.173-.939,3.935,3.935,0,0,0-.468-.956,4.269,4.269,0,0,0-.8-.891,4.619,4.619,0,0,0-1.185-.723,2.711,2.711,0,0,0-1.223-.265,1.72,1.72,0,0,0-.917.31,2,2,0,0,0-.618.793,4.163,4.163,0,0,0-.332,1.157q-.105.793-.192,1.77t-.123,1.8a5.8,5.8,0,0,0,.106,1.361,4.575,4.575,0,0,0,.438,1.238,4.3,4.3,0,0,0,.793,1.055,3.882,3.882,0,0,0,1.176.783,3.494,3.494,0,0,0,1.219.326,1.981,1.981,0,0,0,.9-.145,1.473,1.473,0,0,0,.6-.486A1.948,1.948,0,0,0,2436.014,1167.541Z" transform="translate(-2394.376 -1139.179)" fill="#e7f1fd"/>
        <path id="Path_1989" data-name="Path 1989" d="M2443.392,1165.938a7.245,7.245,0,0,1,.587-2.091,3.515,3.515,0,0,1,1.139-1.421,3.174,3.174,0,0,1,1.725-.546,5.467,5.467,0,0,1,2.341.529,7.782,7.782,0,0,1,2.248,1.438,7.572,7.572,0,0,1,1.511,1.95,8.407,8.407,0,0,1,.825,2.285,9.961,9.961,0,0,1,.188,2.456c-.013.276-.031.582-.057.916s-.053.675-.085,1.025-.066.693-.1,1.019-.073.625-.109.891a7.354,7.354,0,0,1-.6,2.1,3.461,3.461,0,0,1-1.154,1.412,3.1,3.1,0,0,1-1.743.514,5.651,5.651,0,0,1-2.332-.563,7.866,7.866,0,0,1-2.251-1.463,7.678,7.678,0,0,1-1.5-1.939,7.987,7.987,0,0,1-.805-2.263,10.155,10.155,0,0,1-.179-2.423q.018-.412.053-.909t.083-1.02c.031-.348.064-.686.1-1.01S2443.354,1166.2,2443.392,1165.938Zm8.116,3.644a4.944,4.944,0,0,0-.619-2.761,4.072,4.072,0,0,0-1.949-1.726,2.194,2.194,0,0,0-2.1-.028,2.663,2.663,0,0,0-1.051,2.027q-.109.8-.2,1.794c-.061.664-.1,1.27-.129,1.824a4.9,4.9,0,0,0,.617,2.74,4.112,4.112,0,0,0,1.94,1.722,2.228,2.228,0,0,0,2.1.054,2.608,2.608,0,0,0,1.054-2.015c.073-.535.142-1.135.2-1.8S2451.48,1170.136,2451.507,1169.582Z" transform="translate(-2397.247 -1140.421)" fill="#e7f1fd"/>
        <path id="Path_1990" data-name="Path 1990" d="M2465.108,1177.268l4.158-5.64c.055-.051.149-.13.281-.239a.527.527,0,0,1,.566-.005l1.257.542a.71.71,0,0,1,.334.326.81.81,0,0,1,.108.477l-1.319,14.03a.442.442,0,0,1-.186.348.366.366,0,0,1-.366.018l-1.491-.659a.72.72,0,0,1-.333-.328.814.814,0,0,1-.107-.477l.793-8.47-2.844,3.828a1.08,1.08,0,0,1-.29.245.455.455,0,0,1-.439,0l-.951-.418a.852.852,0,0,1-.4-.369,2.687,2.687,0,0,1-.223-.469l-1.922-5.9-.781,8.432a.439.439,0,0,1-.183.347.354.354,0,0,1-.361.019l-1.472-.65a.708.708,0,0,1-.327-.325.808.808,0,0,1-.109-.474l1.285-13.922a.438.438,0,0,1,.183-.347.353.353,0,0,1,.362-.025l1.239.534a.972.972,0,0,1,.515.471c.1.208.172.357.214.452Z" transform="translate(-2400.213 -1141.428)" fill="#e7f1fd"/>
        <path id="Path_1991" data-name="Path 1991" d="M2485.8,1191.255a.734.734,0,0,1,.339.331.816.816,0,0,1,.109.482l-.149,1.55a.435.435,0,0,1-.189.349.372.372,0,0,1-.372.018l-8.179-3.618a.721.721,0,0,1-.335-.328.824.824,0,0,1-.111-.48l1.328-14.055a.438.438,0,0,1,.188-.349.358.358,0,0,1,.368-.023l8.056,3.472a.724.724,0,0,1,.341.331.829.829,0,0,1,.11.479l-.15,1.558a.446.446,0,0,1-.189.351.376.376,0,0,1-.375.02l-6.042-2.617-.328,3.468,5.624,2.45a.736.736,0,0,1,.341.33.831.831,0,0,1,.11.482l-.15,1.553a.446.446,0,0,1-.189.351.372.372,0,0,1-.374.019l-5.621-2.46-.343,3.615Z" transform="translate(-2403.747 -1142.957)" fill="#e7f1fd"/>
      </g>
      <path id="Path_1992" data-name="Path 1992" d="M2491.1,1181.575c5.8.763,8.025,3.846,8.742,8a17.63,17.63,0,0,0,2.525,6.029c5.778.309,19.539,1.059,31.1,1.791l.954,15.164a173.094,173.094,0,0,1-34.6-8.189,9.051,9.051,0,0,1-3.937-2.141c-8.323-6.817-13.047-18.233-13.063-19.867S2485.3,1180.813,2491.1,1181.575Z" transform="translate(-2394.882 -1069.779)" fill="#ffb27d"/>
      <path id="Path_1993" data-name="Path 1993" d="M2544.318,1118.185s24.514,1.738,30.405,14.862,7.767,56.781.269,69.637c0,0-10.326,2.941-28.586-.474l-.676-.128s-5.826-14.264-.6-17.075c0,0,15.4.8,13.793-4.285S2544.318,1118.185,2544.318,1118.185Z" transform="translate(-2406.423 -1057.714)" fill="#fcb200"/>
    </g>
  </g>
</svg>
