<svg xmlns="http://www.w3.org/2000/svg" width="121" height="121" viewBox="0 0 121 121">
  <g id="customer-satisfaction" transform="translate(-576.499 -4113)">
    <path id="Path_18" data-name="Path 18" d="M82.819,119.021,67.8,137.993a8.48,8.48,0,0,0-1.245,4.431v87.3a8.808,8.808,0,0,0,8.924,8.687l85.006-.3c1.113.069,5.5.2,7.583-1.826,3.911-3.807,17.11-15.051,17.11-15.051" transform="translate(510.439 3995.084)" fill="none" stroke="#fff" stroke-miterlimit="10" stroke-width="1"/>
    <rect id="Rectangle_15" data-name="Rectangle 15" width="105.499" height="104.741" rx="4.79" transform="translate(591.5 4113.5)" fill="none" stroke="#fff" stroke-miterlimit="10" stroke-width="1"/>
    <line id="Line_6" data-name="Line 6" x1="13.48" y2="14.267" transform="translate(579.019 4216)" fill="none" stroke="#fff" stroke-miterlimit="10" stroke-width="1"/>
    <g id="Group_42605" data-name="Group 42605" transform="translate(619 4140.19)">
      <path id="Path_67845" data-name="Path 67845" d="M-922.647,319.788h.582q4.075,0,8.151,0a2.307,2.307,0,0,1,2.254,1.442.963.963,0,0,1,0,.7,2.288,2.288,0,0,1-2.2,1.451c-1.15.019-2.3,0-3.45,0h-.515v1.2h.467c1.167,0,2.334-.012,3.5,0A2.28,2.28,0,0,1-911.675,326a1.06,1.06,0,0,1-.006.792,2.29,2.29,0,0,1-2.185,1.394c-1.3.014-2.6,0-3.938,0v1.2h3.118a2.251,2.251,0,0,1,1.782.761c.748.866.746,1.212,0,2.073a2.251,2.251,0,0,1-1.78.767h-3.129v1.2c.8,0,1.593-.016,2.387,0a2.269,2.269,0,0,1,2.137,1.387,1.11,1.11,0,0,1-.01.835,2.312,2.312,0,0,1-2.249,1.374h-15.6c-.2,0-.4,0-.6-.014-1.144-.106-1.3-.283-1.3-1.411q0-6.951-.008-13.9a.8.8,0,0,1,.419-.8,13.255,13.255,0,0,0,2.685-1.807,21.277,21.277,0,0,0,1.748-2.715,4.1,4.1,0,0,0,.774-2.7c-.069-1.33-.019-2.666-.016-4,0-.793.337-1.079,1.129-.979a3.8,3.8,0,0,1,3.659,4.139c.037,1.866.011,3.733.014,5.6C-922.647,319.381-922.647,319.56-922.647,319.788Z" transform="translate(953.843 -289)" fill="#fff"/>
      <path id="Path_67846" data-name="Path 67846" d="M-1020,396.586q0-4.049,0-8.1c0-1.056.431-1.491,1.478-1.492q3.724,0,7.448,0c1.053,0,1.477.429,1.477,1.492q0,8.123,0,16.246c0,1.023-.441,1.467-1.452,1.468q-3.749,0-7.5,0c-1.01,0-1.452-.448-1.452-1.469Q-1020,400.66-1020,396.586Zm5.183,7.713a1.211,1.211,0,0,0,1.216-1.193,1.208,1.208,0,0,0-1.205-1.2,1.21,1.21,0,0,0-1.19,1.168A1.208,1.208,0,0,0-1014.819,404.3Z" transform="translate(1029.189 -356.208)" fill="#fff"/>
      <path id="Path_67847" data-name="Path 67847" d="M-822,231.891c0,.666-.022,1.333.013,2a.854.854,0,0,0,.284.564c.945.738,1.909,1.45,2.875,2.161a1.342,1.342,0,0,1,.719,1.37,1.331,1.331,0,0,1-1.144,1.036c-1.158.3-2.3.654-3.461.959a.717.717,0,0,0-.559.543c-.376,1.154-.79,2.3-1.169,3.449a1.269,1.269,0,0,1-1.045,1.009,1.285,1.285,0,0,1-1.309-.726c-.671-1.033-1.353-2.059-2.058-3.069a.8.8,0,0,0-.547-.3c-1.282-.05-2.564-.07-3.847-.083a1.2,1.2,0,0,1-1.176-.688,1.2,1.2,0,0,1,.209-1.347c.767-.964,1.521-1.94,2.3-2.895a.792.792,0,0,0,.172-.854c-.378-1.136-.7-2.29-1.066-3.43a1.285,1.285,0,0,1,.264-1.472,1.267,1.267,0,0,1,1.442-.173c1.148.443,2.312.843,3.459,1.289a.67.67,0,0,0,.723-.1c1-.721,2.014-1.419,3.016-2.137a1.258,1.258,0,0,1,1.442-.173,1.246,1.246,0,0,1,.608,1.272c-.024.6-.005,1.2-.005,1.8Z" transform="translate(868.473 -218.997)" fill="#fff"/>
      <path id="Path_67848" data-name="Path 67848" d="M-949.6,172.067a4.738,4.738,0,0,1-.614-.235c-1.08-.557-2.158-1.117-3.223-1.7a.75.75,0,0,0-.825-.007c-1.064.586-2.151,1.129-3.221,1.7a1.258,1.258,0,0,1-1.453.006,1.256,1.256,0,0,1-.455-1.377c.224-1.16.391-2.331.616-3.491a.918.918,0,0,0-.311-.959c-.867-.8-1.7-1.647-2.551-2.467a1.248,1.248,0,0,1-.459-1.333,1.237,1.237,0,0,1,1.145-.887c1.237-.171,2.469-.374,3.707-.533a.673.673,0,0,0,.587-.439c.519-1.08,1.068-2.145,1.583-3.227a1.328,1.328,0,0,1,1.228-.937,1.316,1.316,0,0,1,1.192.915c.522,1.1,1.057,2.187,1.62,3.263a.857.857,0,0,0,.539.393c1.263.217,2.532.4,3.8.579a1.191,1.191,0,0,1,1.063.849,1.2,1.2,0,0,1-.4,1.3c-.884.86-1.75,1.739-2.658,2.572a.839.839,0,0,0-.254.882q.33,1.843.641,3.69A1.234,1.234,0,0,1-949.6,172.067Z" transform="translate(979.053 -156.186)" fill="#fff"/>
      <path id="Path_67849" data-name="Path 67849" d="M-1081.534,244.985c-.339,0-.735-.3-.948-.912-.409-1.178-.818-2.357-1.2-3.543a.752.752,0,0,0-.6-.566c-1.191-.31-2.37-.663-3.557-.986a1.247,1.247,0,0,1-1.02-1.034,1.232,1.232,0,0,1,.6-1.231c.99-.734,1.968-1.484,2.963-2.21a.722.722,0,0,0,.343-.7c-.067-1.247-.093-2.5-.149-3.745a1.216,1.216,0,0,1,.636-1.255,1.254,1.254,0,0,1,1.4.181c1.016.726,2.033,1.451,3.07,2.146a.857.857,0,0,0,.662.091c1.178-.407,2.347-.844,3.51-1.293a1.246,1.246,0,0,1,1.435.209,1.253,1.253,0,0,1,.259,1.388c-.375,1.189-.751,2.379-1.092,3.578a.868.868,0,0,0,.125.663c.72.959,1.466,1.9,2.222,2.829a1.343,1.343,0,0,1,.348,1.505,1.351,1.351,0,0,1-1.419.708c-1.183,0-2.365.055-3.547.052a.712.712,0,0,0-.677.383c-.67,1.034-1.36,2.054-2.04,3.082A1.371,1.371,0,0,1-1081.534,244.985Z" transform="translate(1088.876 -218.993)" fill="#fff"/>
    </g>
  </g>
</svg>
