<svg xmlns="http://www.w3.org/2000/svg" width="33.997" height="34" viewBox="0 0 33.997 34">
  <g id="dashboard-icon" transform="translate(-1427.966 -1895.994)">
    <path id="Path_68692" data-name="Path 68692" d="M1445.01,1895.995h12.918a3.791,3.791,0,0,1,4.053,4.07q0,3.517,0,7.034a3.785,3.785,0,0,1-3.988,4.007q-13.007.007-26.014,0a3.791,3.791,0,0,1-3.987-4.009q0-3.561,0-7.123a3.781,3.781,0,0,1,3.967-3.979Q1438.484,1895.991,1445.01,1895.995Z" transform="translate(-0.022)" fill="#fff"/>
    <path id="Path_68693" data-name="Path 68693" d="M1565.447,2071c-1.829,0-3.657,0-5.486,0a3.759,3.759,0,0,1-3.939-3.911q-.016-3.65,0-7.3a3.755,3.755,0,0,1,3.91-3.9q5.53-.019,11.06,0a3.771,3.771,0,0,1,3.9,3.915q.008,3.628,0,7.255a3.777,3.777,0,0,1-3.962,3.939Q1568.19,2071.007,1565.447,2071Z" transform="translate(-112.936 -141.018)" fill="#fff"/>
    <path id="Path_68694" data-name="Path 68694" d="M1427.97,2063.336c0-1.238-.006-2.477,0-3.715a3.68,3.68,0,0,1,3.434-3.8,31.684,31.684,0,0,1,4.592.019,3.633,3.633,0,0,1,3.293,3.61q.04,3.869,0,7.739a3.743,3.743,0,0,1-3.711,3.689q-1.945.03-3.892,0a3.762,3.762,0,0,1-3.715-3.734C1427.957,2065.872,1427.971,2064.6,1427.97,2063.336Z" transform="translate(0 -140.895)" fill="#fff"/>
  </g>
</svg>
