<svg xmlns="http://www.w3.org/2000/svg" width="20" height="20" viewBox="0 0 20 20">
  <g id="email_-icon" data-name="email@-icon" transform="translate(506.822 -701.25)">
    <path id="Path_68695" data-name="Path 68695" d="M-350.911,701.25l1.515,1.227c.069.056.135.116.227.2h-3.826l1.773-1.422Z" transform="translate(-145.756)" fill="#7e7e7e"/>
    <path id="Path_68696" data-name="Path 68696" d="M-429.466,751.5h5.588c.489,0,.712.218.712.7q0,3.309,0,6.618a.339.339,0,0,1-.153.306c-1.3.985-2.587,1.976-3.884,2.96a.505.505,0,0,1-.284.092q-2,.009-4.008,0a.506.506,0,0,1-.284-.095c-1.3-.984-2.588-1.975-3.884-2.96a.34.34,0,0,1-.151-.306q.007-3.309,0-6.618c0-.479.222-.695.714-.695Zm.7,3.393c-.047-.015-.072-.021-.1-.031a2.016,2.016,0,0,0-2.218.437,2.669,2.669,0,0,0,.084,3.73,1.8,1.8,0,0,0,1.593.5,6.491,6.491,0,0,0,.934-.331,1.378,1.378,0,0,0,1.212.542,1.845,1.845,0,0,0,1.549-.932,3.581,3.581,0,0,0,.5-2.426,4.263,4.263,0,0,0-4-3.52,4.3,4.3,0,0,0-4.471,5.308,4.338,4.338,0,0,0,4.022,3.227.6.6,0,0,0,.678-.553.6.6,0,0,0-.621-.613,3.7,3.7,0,0,1-.431-.047,3.128,3.128,0,0,1-2.533-3.682,3.174,3.174,0,0,1,3.781-2.408,2.863,2.863,0,0,1,2.181,3.887.972.972,0,0,1-.426.515c-.363.192-.571.069-.573-.335,0-.065,0-.129,0-.194,0-.971.008-1.941.008-2.912a.578.578,0,0,0-.667-.611A.6.6,0,0,0-428.763,754.893Z" transform="translate(-67.335 -47.648)" fill="#7e7e7e"/>
    <path id="Path_68697" data-name="Path 68697" d="M-491.412,985.662c.343-.265.659-.51.977-.754q2.968-2.281,5.938-4.557a.531.531,0,0,1,.3-.1q1.993-.01,3.987,0a.44.44,0,0,1,.251.072q3.437,2.632,6.867,5.273c.02.016.038.035.078.071Z" transform="translate(-14.612 -264.412)" fill="#7e7e7e"/>
    <path id="Path_68698" data-name="Path 68698" d="M-506.822,879.922V869.633l6.614,5.144Z" transform="translate(0 -159.529)" fill="#7e7e7e"/>
    <path id="Path_68699" data-name="Path 68699" d="M-245.785,869.662v10.285L-252.4,874.8Z" transform="translate(-241.037 -159.556)" fill="#7e7e7e"/>
    <path id="Path_68700" data-name="Path 68700" d="M-170.969,819.666l-1.939,1.509v-3.138Z" transform="translate(-316.411 -110.691)" fill="#7e7e7e"/>
    <path id="Path_68701" data-name="Path 68701" d="M-496.011,819.6l1.943-1.634v3.144Z" transform="translate(-10.251 -110.623)" fill="#7e7e7e"/>
    <path id="Path_68702" data-name="Path 68702" d="M-335.325,836.943A1.835,1.835,0,0,1-335.6,838a.7.7,0,0,1-1.176.079,1.589,1.589,0,0,1-.122-1.825.843.843,0,0,1,.8-.412.775.775,0,0,1,.663.6A4.007,4.007,0,0,1-335.325,836.943Z" transform="translate(-160.798 -127.564)" fill="#7e7e7e"/>
  </g>
</svg>
