<svg xmlns="http://www.w3.org/2000/svg" width="121" height="121" viewBox="0 0 121 121">
  <g id="excellence" transform="translate(6103.5 -7168)">
    <path id="Path_18" data-name="Path 18" d="M82.836,119.484,67.8,137.993a8.48,8.48,0,0,0-1.245,4.431v87.305a8.808,8.808,0,0,0,8.924,8.687l85.006-.3c1.113.069,5.5.2,7.583-1.826,3.911-3.807,17.286-14.538,17.286-14.538" transform="translate(-6169.56 7050.083)" fill="none" stroke="#fff" stroke-miterlimit="10" stroke-width="1"/>
    <rect id="Rectangle_15" data-name="Rectangle 15" width="105.5" height="104.742" rx="4.79" transform="translate(-6088.5 7168.5)" fill="none" stroke="#fff" stroke-miterlimit="10" stroke-width="1"/>
    <line id="Line_6" data-name="Line 6" x1="13.48" y2="14.267" transform="translate(-6100.981 7271)" fill="none" stroke="#fff" stroke-miterlimit="10" stroke-width="1"/>
    <g id="Group_1558" data-name="Group 1558" transform="translate(-6060.973 7195.191)">
      <path id="Path_2368" data-name="Path 2368" d="M-1198.213,744.411a5.128,5.128,0,0,0-4.522,1.469,6.029,6.029,0,0,1-3.12,1.651,4.3,4.3,0,0,1-3.084-.761c-.817-.573-1.632-1.153-2.42-1.765a2.766,2.766,0,0,0-1.873-.6c-.89.03-1.781.013-2.671.005a4.293,4.293,0,0,1-4.432-3.216c-.314-.946-.579-1.912-.947-2.836a2.9,2.9,0,0,0-.819-1.122c-.786-.647-1.645-1.206-2.464-1.814a4.291,4.291,0,0,1-1.646-5.06c.295-.93.581-1.864.909-2.782a2.435,2.435,0,0,0-.008-1.71c-.345-.981-.66-1.974-.958-2.971a4.231,4.231,0,0,1,1.568-4.743c.815-.613,1.689-1.155,2.458-1.821a4.031,4.031,0,0,0,1.034-1.428c.388-.915.627-1.892.948-2.836a4.292,4.292,0,0,1,4.124-3.018c1.064-.019,2.131.039,3.192-.026a3.04,3.04,0,0,0,1.381-.443c.861-.543,1.657-1.189,2.487-1.782a4.265,4.265,0,0,1,5.264-.006c.831.591,1.627,1.237,2.488,1.781a3.046,3.046,0,0,0,1.378.449c1.038.066,2.084.01,3.126.024a4.291,4.291,0,0,1,4.214,3.074c.334.986.606,1.995.992,2.959a3.058,3.058,0,0,0,.86,1.17c.8.663,1.677,1.235,2.513,1.857a4.262,4.262,0,0,1,1.613,4.845c-.3,1-.691,1.968-.935,2.977a3.573,3.573,0,0,0,.008,1.633c.258,1.05.661,2.064.963,3.1a4.207,4.207,0,0,1-1.515,4.589c-.861.66-1.781,1.247-2.611,1.943a3.416,3.416,0,0,0-.927,1.273c-.378.919-.63,1.891-.948,2.836a4.247,4.247,0,0,1-4.185,3.1C-1197.257,744.422-1197.735,744.411-1198.213,744.411Zm-15.542-9.527a1.308,1.308,0,0,0,1.981,1.319q2.434-1.241,4.836-2.545a.921.921,0,0,1,1.008.009c1.487.806,3,1.572,4.485,2.372.6.323,1.19.574,1.817.1.6-.455.538-1.074.423-1.721-.3-1.665-.55-3.339-.872-5a.975.975,0,0,1,.358-1.009c1.3-1.247,2.586-2.511,3.872-3.773a1.258,1.258,0,0,0,.382-1.416,1.33,1.33,0,0,0-1.173-.89c-1.783-.252-3.562-.53-5.346-.767a.94.94,0,0,1-.831-.59c-.756-1.585-1.553-3.151-2.32-4.731a1.409,1.409,0,0,0-1.32-.979,1.424,1.424,0,0,0-1.3,1c-.765,1.581-1.534,3.16-2.347,4.717a1.2,1.2,0,0,1-.758.549c-1.754.3-3.515.545-5.277.784a1.389,1.389,0,0,0-1.286.926,1.352,1.352,0,0,0,.5,1.5c1.17,1.133,2.293,2.318,3.514,3.393a1.6,1.6,0,0,1,.53,1.752C-1213.223,731.587-1213.485,733.3-1213.755,734.884Z" transform="translate(1231.375 -705.891)" fill="#fff"/>
      <path id="Path_2369" data-name="Path 2369" d="M-1080.825,901.236a2.868,2.868,0,0,1,2.347-.98,14.865,14.865,0,0,0,3.437-.15,6.257,6.257,0,0,0,4.863-4.163,13.925,13.925,0,0,0,.711-2.16,2.889,2.889,0,0,1,1.751-2.068c.142.13.3.266.454.416q2.7,2.695,5.393,5.393c1.074,1.077.88,2.027-.52,2.576-1.777.7-3.55,1.4-5.335,2.081a1.266,1.266,0,0,0-.826.812c-.7,1.868-1.438,3.723-2.179,5.576a1.282,1.282,0,0,1-2.188.574C-1075.562,906.532-1078.173,903.891-1080.825,901.236Z" transform="translate(1111.051 -859.411)" fill="#fff"/>
      <path id="Path_2370" data-name="Path 2370" d="M-1248.2,891.6a2.93,2.93,0,0,1,1.783,2.095,12.474,12.474,0,0,0,.712,2.16,6.429,6.429,0,0,0,5.892,4.306,14.9,14.9,0,0,0,2.474.008,2.708,2.708,0,0,1,2.275.961c-.147.159-.286.318-.435.467q-3.571,3.573-7.146,7.144c-1.124,1.123-2.055.918-2.641-.578-.664-1.7-1.35-3.385-1.976-5.1a1.646,1.646,0,0,0-1.088-1.07c-1.75-.646-3.483-1.337-5.219-2.018-1.286-.5-1.5-1.492-.536-2.461C-1252.142,895.545-1250.177,893.579-1248.2,891.6Z" transform="translate(1254.701 -859.315)" fill="#fff"/>
      <path id="Path_2371" data-name="Path 2371" d="M-1150.056,789.224c1.072-.158,2.2-.37,3.343-.478a2.006,2.006,0,0,0,1.822-1.322c.457-1.048,1-2.057,1.574-3.218.513,1.033,1.032,1.927,1.409,2.878a2.387,2.387,0,0,0,2.326,1.708,29.288,29.288,0,0,1,3.027.434c-.8.852-1.559,1.745-2.412,2.532a2.059,2.059,0,0,0-.672,2.153c.241,1.117.4,2.252.618,3.5-1.161-.61-2.226-1.136-3.257-1.723a1.906,1.906,0,0,0-2.078.008c-1.026.591-2.094,1.11-3.253,1.718.213-1.235.361-2.351.606-3.444a2.144,2.144,0,0,0-.707-2.267C-1148.536,790.947-1149.26,790.075-1150.056,789.224Z" transform="translate(1168.247 -770.592)" fill="#fff"/>
    </g>
  </g>
</svg>
