<svg xmlns="http://www.w3.org/2000/svg" width="10.947" height="20" viewBox="0 0 10.947 20">
  <path id="facebook-icon" d="M-2037.993,1773.811h-.295c-.727,0-1.454,0-2.181,0-.442,0-.571-.122-.574-.549q-.01-1.491,0-2.981c0-.429.136-.55.572-.551.727,0,1.454,0,2.182,0h.3c0-.118,0-.213,0-.308.017-.928-.017-1.86.063-2.782a4.429,4.429,0,0,1,4.376-4.094c.99-.037,1.983-.015,2.975-.013.331,0,.473.139.474.462q.008,1.454,0,2.908c0,.331-.138.464-.494.473-.669.016-1.339.017-2.008.026-.779.011-1.086.3-1.1,1.064-.013.724,0,1.448,0,2.2.1.005.188.013.274.013.86,0,1.719,0,2.579,0,.531,0,.654.125.655.651q0,1.442,0,2.884c0,.453-.113.566-.569.568-.876,0-1.752,0-2.628,0h-.309v.323q0,3.837,0,7.673c0,.655-.09.743-.759.743h-2.777c-.662,0-.748-.083-.748-.725q0-3.837,0-7.673Z" transform="translate(2041.049 -1762.522)" fill="#fff"/>
</svg>
