<svg xmlns="http://www.w3.org/2000/svg" width="110.525" height="108.395" viewBox="0 0 110.525 108.395">
  <g id="happy-clients" transform="translate(3285.22 5087.022)">
    <path id="Path_77225" data-name="Path 77225" d="M228.46,383.328l-13.109-6.555a7.328,7.328,0,0,0-3.277-.774H199.146a6.852,6.852,0,0,0,5.365,6.689l11.124,2.472-14.657,5.5-23.9-7.029a7.25,7.25,0,0,0-9.079,5.2h0l34.81,12.825,27.482-3.664,12.825,1.832V381.5l-14.657,1.832Z" transform="translate(-3418.111 -5381.343)" fill="#e5e5e5"/>
    <path id="Path_77226" data-name="Path 77226" d="M82.037,383.628l-23.9,7.029-14.657-5.5,11.124-2.472A6.852,6.852,0,0,0,59.971,376H47.044a7.329,7.329,0,0,0-3.277.774l-13.109,6.555L16,381.5v18.321l12.825-1.832,27.482,3.664,34.81-12.825h0a7.25,7.25,0,0,0-9.079-5.2Z" transform="translate(-3300.921 -5381.343)" fill="#e5e5e5"/>
    <path id="Path_77227" data-name="Path 77227" d="M286.54,163.058h0a9.068,9.068,0,0,0-12.825,0l-.916.916-.916-.916a9.068,9.068,0,0,0-12.825,0h0a9.068,9.068,0,0,0,0,12.825L272.8,189.624l13.741-13.741A9.068,9.068,0,0,0,286.54,163.058Z" transform="translate(-3486.267 -5215.12)" fill="#f2c34e"/>
    <rect id="Rectangle_5842" data-name="Rectangle 5842" width="1.832" height="3.664" transform="translate(-3219.881 -5049.314)" fill="#f4f4f4"/>
    <rect id="Rectangle_5843" data-name="Rectangle 5843" width="1.832" height="3.664" transform="translate(-3208.888 -5049.314)" fill="#f4f4f4"/>
    <path id="Path_77228" data-name="Path 77228" d="M306.412,222.412A6.42,6.42,0,0,1,300,216h1.832a4.58,4.58,0,0,0,9.161,0h1.832A6.42,6.42,0,0,1,306.412,222.412Z" transform="translate(-3519.881 -5257.985)" fill="#f4f4f4"/>
    <path id="Path_77229" data-name="Path 77229" d="M142.54,163.058h0a9.069,9.069,0,0,0-12.825,0l-.916.916-.916-.916a9.069,9.069,0,0,0-12.825,0h0a9.068,9.068,0,0,0,0,12.825L128.8,189.624l13.741-13.741A9.068,9.068,0,0,0,142.54,163.058Z" transform="translate(-3375.245 -5215.12)" fill="#f2c34e"/>
    <rect id="Rectangle_5844" data-name="Rectangle 5844" width="1.832" height="3.664" transform="translate(-3252.859 -5049.314)" fill="#f4f4f4"/>
    <rect id="Rectangle_5845" data-name="Rectangle 5845" width="1.832" height="3.664" transform="translate(-3241.866 -5049.314)" fill="#f4f4f4"/>
    <path id="Path_77230" data-name="Path 77230" d="M162.412,222.412A6.42,6.42,0,0,1,156,216h1.832a4.58,4.58,0,1,0,9.161,0h1.832A6.42,6.42,0,0,1,162.412,222.412Z" transform="translate(-3408.859 -5257.985)" fill="#f4f4f4"/>
    <path id="Path_77231" data-name="Path 77231" d="M70.54,267.058h0a9.068,9.068,0,0,0-12.825,0l-.916.916-.916-.916a9.068,9.068,0,0,0-12.825,0h0a9.068,9.068,0,0,0,0,12.825L56.8,293.624,70.54,279.883A9.068,9.068,0,0,0,70.54,267.058Z" transform="translate(-3319.734 -5295.303)" fill="#f2c34e"/>
    <rect id="Rectangle_5846" data-name="Rectangle 5846" width="1.832" height="3.664" transform="translate(-3269.348 -5025.497)" fill="#f4f4f4"/>
    <rect id="Rectangle_5847" data-name="Rectangle 5847" width="1.832" height="3.664" transform="translate(-3258.355 -5025.497)" fill="#f4f4f4"/>
    <path id="Path_77232" data-name="Path 77232" d="M90.412,326.412A6.42,6.42,0,0,1,84,320h1.832a4.58,4.58,0,1,0,9.161,0h1.832A6.42,6.42,0,0,1,90.412,326.412Z" transform="translate(-3353.348 -5338.168)" fill="#f4f4f4"/>
    <path id="Path_77233" data-name="Path 77233" d="M214.54,267.058h0a9.068,9.068,0,0,0-12.825,0l-.916.916-.916-.916a9.068,9.068,0,0,0-12.825,0h0a9.069,9.069,0,0,0,0,12.825L200.8,293.624l13.741-13.741A9.068,9.068,0,0,0,214.54,267.058Z" transform="translate(-3430.756 -5295.303)" fill="#f2c34e"/>
    <rect id="Rectangle_5848" data-name="Rectangle 5848" width="1.832" height="3.664" transform="translate(-3236.37 -5025.497)" fill="#f4f4f4"/>
    <rect id="Rectangle_5849" data-name="Rectangle 5849" width="1.832" height="3.664" transform="translate(-3225.377 -5025.497)" fill="#f4f4f4"/>
    <path id="Path_77234" data-name="Path 77234" d="M234.412,326.412A6.42,6.42,0,0,1,228,320h1.832a4.58,4.58,0,1,0,9.161,0h1.832A6.42,6.42,0,0,1,234.412,326.412Z" transform="translate(-3464.37 -5338.168)" fill="#f4f4f4"/>
    <path id="Path_77235" data-name="Path 77235" d="M358.54,267.058h0a9.068,9.068,0,0,0-12.825,0l-.916.916-.916-.916a9.068,9.068,0,0,0-12.825,0h0a9.069,9.069,0,0,0,0,12.825L344.8,293.624l13.741-13.741A9.068,9.068,0,0,0,358.54,267.058Z" transform="translate(-3541.779 -5295.303)" fill="#f2c34e"/>
    <rect id="Rectangle_5850" data-name="Rectangle 5850" width="1.832" height="3.664" transform="translate(-3203.392 -5025.497)" fill="#f4f4f4"/>
    <rect id="Rectangle_5851" data-name="Rectangle 5851" width="1.832" height="3.664" transform="translate(-3192.399 -5025.497)" fill="#f4f4f4"/>
    <path id="Path_77236" data-name="Path 77236" d="M378.412,326.412A6.42,6.42,0,0,1,372,320h1.832a4.58,4.58,0,1,0,9.16,0h1.832A6.42,6.42,0,0,1,378.412,326.412Z" transform="translate(-3575.392 -5338.168)" fill="#f4f4f4"/>
    <path id="Path_77237" data-name="Path 77237" d="M200.469,24a16.495,16.495,0,1,0,16.495,16.495A16.495,16.495,0,0,0,200.469,24ZM188.1,40.495a12.374,12.374,0,0,1,10.309-12.2V38.433l-8.5,8.5a12.313,12.313,0,0,1-1.807-6.441Zm4.715,9.718,5.594-5.594v8.077A12.315,12.315,0,0,1,192.813,50.213Zm9.718,2.482V44.618l5.594,5.594A12.315,12.315,0,0,1,202.531,52.695Zm8.5-5.759-8.5-8.5,0-10.139a12.376,12.376,0,0,1,8.5,18.641Z" transform="translate(-3430.427 -5109.956)" fill="#41a08e"/>
    <rect id="Rectangle_5852" data-name="Rectangle 5852" width="19.644" height="1.832" transform="translate(-3228.553 -4986.586) rotate(-20.224)" fill="#cecece"/>
    <path id="Path_77238" data-name="Path 77238" d="M175.112,427.027a.914.914,0,0,1-.322-.058l-7.071-2.652.643-1.715,6.785,2.544,10.746-3.16.517,1.758-11.039,3.247A.917.917,0,0,1,175.112,427.027Z" transform="translate(-3417.895 -5416.798)" fill="#cecece"/>
    <rect id="Rectangle_5853" data-name="Rectangle 5853" width="1.832" height="3.664" transform="translate(-3219.881 -5049.314)"/>
    <rect id="Rectangle_5854" data-name="Rectangle 5854" width="1.832" height="3.664" transform="translate(-3208.888 -5049.314)"/>
    <path id="Path_77239" data-name="Path 77239" d="M306.412,222.412A6.42,6.42,0,0,0,312.825,216h-1.832a4.58,4.58,0,0,1-9.161,0H300A6.42,6.42,0,0,0,306.412,222.412Z" transform="translate(-3519.881 -5257.985)"/>
    <rect id="Rectangle_5855" data-name="Rectangle 5855" width="1.832" height="3.664" transform="translate(-3252.859 -5049.314)"/>
    <rect id="Rectangle_5856" data-name="Rectangle 5856" width="1.832" height="3.664" transform="translate(-3241.866 -5049.314)"/>
    <path id="Path_77240" data-name="Path 77240" d="M168.825,216h-1.832a4.58,4.58,0,1,1-9.161,0H156a6.412,6.412,0,1,0,12.825,0Z" transform="translate(-3408.859 -5257.985)"/>
    <rect id="Rectangle_5857" data-name="Rectangle 5857" width="1.832" height="3.664" transform="translate(-3269.348 -5025.497)"/>
    <rect id="Rectangle_5858" data-name="Rectangle 5858" width="1.832" height="3.664" transform="translate(-3258.355 -5025.497)"/>
    <path id="Path_77241" data-name="Path 77241" d="M96.825,320H94.993a4.58,4.58,0,1,1-9.161,0H84a6.412,6.412,0,1,0,12.825,0Z" transform="translate(-3353.348 -5338.168)"/>
    <rect id="Rectangle_5859" data-name="Rectangle 5859" width="1.832" height="3.664" transform="translate(-3236.37 -5025.497)"/>
    <rect id="Rectangle_5860" data-name="Rectangle 5860" width="1.832" height="3.664" transform="translate(-3225.377 -5025.497)"/>
    <path id="Path_77242" data-name="Path 77242" d="M234.412,324.58a4.585,4.585,0,0,1-4.58-4.58H228a6.412,6.412,0,1,0,12.825,0h-1.832A4.585,4.585,0,0,1,234.412,324.58Z" transform="translate(-3464.37 -5338.168)"/>
    <rect id="Rectangle_5861" data-name="Rectangle 5861" width="1.832" height="3.664" transform="translate(-3203.392 -5025.497)"/>
    <rect id="Rectangle_5862" data-name="Rectangle 5862" width="1.832" height="3.664" transform="translate(-3192.399 -5025.497)"/>
    <path id="Path_77243" data-name="Path 77243" d="M378.412,326.412A6.42,6.42,0,0,0,384.825,320h-1.832a4.58,4.58,0,1,1-9.16,0H372A6.42,6.42,0,0,0,378.412,326.412Z" transform="translate(-3575.392 -5338.168)"/>
    <path id="Path_77244" data-name="Path 77244" d="M112.794,122.607a.912.912,0,0,0-.25,0L85.287,126.24l-12.111-4.462L91,115.213a.916.916,0,0,0,.572-1.082c0-.015-.008-.029-.012-.044l6.774-2.54a.916.916,0,0,0-.123-1.752l-11.123-2.472a5.9,5.9,0,0,1-4.579-4.878H94.446a6.444,6.444,0,0,1,2.868.677l13.109,6.555a.916.916,0,0,0,.523.09l14.657-1.832-.227-1.818-14.382,1.8-5.944-2.972L117.892,92.1a9.984,9.984,0,1,0-14.12-14.12l-.268.268-.268-.268a9.919,9.919,0,0,0-7.06-2.924,10.1,10.1,0,0,0-1.689.144l6.917-6.917a9.984,9.984,0,1,0-14.12-14.12l-.268.268-.268-.268a9.907,9.907,0,0,0-5.766-2.839,17.411,17.411,0,1,0-20.91,0,9.907,9.907,0,0,0-5.766,2.839l-.268.268-.268-.268a9.984,9.984,0,0,0-14.12,14.12L46.566,75.2a10.1,10.1,0,0,0-1.689-.144,9.919,9.919,0,0,0-7.06,2.924l-.268.268-.268-.268A9.984,9.984,0,0,0,23.16,92.1L36,104.942l-5.944,2.972-14.382-1.8-.227,1.818,14.657,1.832a.916.916,0,0,0,.523-.09l13.109-6.555a6.443,6.443,0,0,1,2.868-.677H58.548a5.9,5.9,0,0,1-4.579,4.878l-11.123,2.472a.916.916,0,0,0-.123,1.752l14.657,5.5a.916.916,0,0,0,.58.021l23.9-7.029a6.337,6.337,0,0,1,7.684,3.761L55.765,126.24l-27.257-3.634a.912.912,0,0,0-.25,0l-12.825,1.832.259,1.814,12.7-1.814,27.356,3.647a.916.916,0,0,0,.438-.048l14.34-5.283,14.34,5.283a.916.916,0,0,0,.438.048l27.356-3.647,12.7,1.814.259-1.814-12.825-1.832ZM96.176,76.891a8.127,8.127,0,0,1,5.765,2.384l.916.916a.916.916,0,0,0,1.3,0l.916-.916A8.152,8.152,0,1,1,116.6,90.8L103.5,103.9,90.411,90.8a8.149,8.149,0,0,1,5.765-13.913ZM83.619,90.8,70.526,103.9,57.433,90.8A8.152,8.152,0,0,1,68.962,79.275l.916.916a.916.916,0,0,0,1.3,0l.916-.916A8.152,8.152,0,0,1,83.619,90.8ZM70.526,57.257a9.906,9.906,0,0,0-1.564-2.51c.516.046,1.036.074,1.564.074s1.048-.028,1.563-.074a9.906,9.906,0,0,0-1.563,2.51Zm0,7.93a9.928,9.928,0,0,0,2.1,3.1L79.544,75.2a10.1,10.1,0,0,0-1.689-.144,9.919,9.919,0,0,0-7.06,2.924l-.268.268-.268-.268a9.919,9.919,0,0,0-7.06-2.924,10.1,10.1,0,0,0-1.689.144l6.917-6.917a9.928,9.928,0,0,0,2.1-3.1Zm9.161-12.114a8.127,8.127,0,0,1,5.765,2.384l.916.916a.916.916,0,0,0,1.3,0l.916-.916a8.152,8.152,0,0,1,11.529,11.529L87.015,80.08,73.922,66.987A8.148,8.148,0,0,1,76.114,53.9c.446-.152.885-.319,1.314-.5a8.2,8.2,0,0,1,2.259-.318ZM54.948,37.411a15.579,15.579,0,1,1,21.886,14.24,9.852,9.852,0,0,0-1.462.564,15.527,15.527,0,0,1-9.689,0,9.854,9.854,0,0,0-1.462-.564,15.6,15.6,0,0,1-9.272-14.24Zm-14,29.576A8.152,8.152,0,0,1,52.474,55.458l.916.916a.916.916,0,0,0,1.3,0l.916-.916a8.158,8.158,0,0,1,8.024-2.066c.429.186.868.353,1.314.5a8.148,8.148,0,0,1,2.192,13.09L54.037,80.08ZM24.455,79.275a8.162,8.162,0,0,1,11.529,0l.916.916a.916.916,0,0,0,1.3,0l.916-.916A8.152,8.152,0,1,1,50.641,90.8L37.548,103.9,24.455,90.8a8.162,8.162,0,0,1,0-11.529ZM52.638,109.5a8.1,8.1,0,0,0-2.491,2.878l-3.893-1.46,6.384-1.419Zm5.1,5.725-5.861-2.2a6.364,6.364,0,0,1,7.318-2.987l8.086,2.378-9.543,2.807Zm23.605-6.943-10.816,3.181-10.815-3.181a8.081,8.081,0,0,0-2.655-.32,7.719,7.719,0,0,0,3.393-6.429.916.916,0,0,0-.916-.916H46.607a8.286,8.286,0,0,0-3.687.87l-.732.366L51.937,92.1a9.928,9.928,0,0,0,2.1-3.1,9.928,9.928,0,0,0,2.1,3.1l13.741,13.741a.916.916,0,0,0,1.3,0L84.915,92.1a9.928,9.928,0,0,0,2.1-3.1,9.928,9.928,0,0,0,2.1,3.1l9.749,9.749-.732-.366a8.286,8.286,0,0,0-3.687-.87H81.519a.916.916,0,0,0-.916.916,7.719,7.719,0,0,0,3.381,6.421,8.189,8.189,0,0,0-2.642.328Zm7.1,1.224,6.357,1.413-3.891,1.459A8.055,8.055,0,0,0,88.441,109.5Z" transform="translate(-3300.484 -5106.872)" stroke="#000" stroke-width="0.3"/>
    <path id="Path_77245" data-name="Path 77245" d="M210.123,49.807V39.669a.916.916,0,0,0-1.068-.9,13.292,13.292,0,0,0-9.132,20.022.916.916,0,0,0,.673.432.928.928,0,0,0,.108.006.916.916,0,0,0,.648-.268l8.5-8.5a.916.916,0,0,0,.268-.648Zm-9.2,6.987A11.466,11.466,0,0,1,208.29,40.8v8.624l-7.367,7.367Z" transform="translate(-3441.226 -5121.33)" fill="#365650"/>
    <path id="Path_77246" data-name="Path 77246" d="M261.265,50.453l8.5,8.5a.916.916,0,0,0,.648.268.926.926,0,0,0,.108-.006.916.916,0,0,0,.673-.432,13.292,13.292,0,0,0-9.135-20.022.916.916,0,0,0-1.067.9l0,10.139a.916.916,0,0,0,.268.648Zm10.041,1.414a11.452,11.452,0,0,1-1.11,4.925l-7.367-7.367,0-8.625A11.412,11.412,0,0,1,271.305,51.867Z" transform="translate(-3489.808 -5121.328)" fill="#365650"/>
    <path id="Path_77247" data-name="Path 77247" d="M224.929,119.927a.916.916,0,0,0,1.067-.9v-8.077a.916.916,0,0,0-1.564-.648l-5.594,5.594a.916.916,0,0,0,.08,1.367A13.278,13.278,0,0,0,224.929,119.927Zm-.766-6.769v4.729a11.467,11.467,0,0,1-3.269-1.461Z" transform="translate(-3457.099 -5176.285)" fill="#365650"/>
    <path id="Path_77248" data-name="Path 77248" d="M262.567,110.3a.916.916,0,0,0-1.564.648v8.076a.916.916,0,0,0,1.068.9,13.282,13.282,0,0,0,6.01-2.666.916.916,0,0,0,.08-1.367Zm.268,7.588v-4.728l3.268,3.268a11.467,11.467,0,0,1-3.268,1.46Z" transform="translate(-3489.815 -5176.285)" fill="#365650"/>
  </g>
</svg>
