<svg xmlns="http://www.w3.org/2000/svg" xmlns:xlink="http://www.w3.org/1999/xlink" width="129" height="38" viewBox="0 0 129 38">
  <defs>
    <clipPath id="clip-path">
      <rect id="Rectangle_1088" data-name="Rectangle 1088" width="129" height="38" transform="translate(143 389)" fill="none"/>
    </clipPath>
  </defs>
  <g id="heading-border-shape" transform="translate(-143 -389)" clip-path="url(#clip-path)">
    <path id="heading-border-shape-2" data-name="heading-border-shape" d="M366.363,485.3a5.11,5.11,0,0,1-5.077-4.6l-2.057-20.451a5.11,5.11,0,0,1,4.573-5.594l15.228-1.531-1.55-15.4a5.109,5.109,0,0,1,4.573-5.6l15.639-1.573-1.555-15.471a5.109,5.109,0,0,1,4.572-5.6l15.228-1.532-1.548-15.4a5.108,5.108,0,0,1,4.572-5.594l20.34-2.045a5.109,5.109,0,0,1,1.022,10.166l-15.256,1.534,1.515,15.069a5.116,5.116,0,0,1-4.511,5.919l-15.256,1.534,1.545,15.369a5.108,5.108,0,0,1-3.27,5.288l-.373.141a5.113,5.113,0,0,1-1.3.307l-15.256,1.534,1.517,15.068a5.12,5.12,0,0,1-4.513,5.921l-15.256,1.534,1.546,15.368a5.109,5.109,0,0,1-4.572,5.594c-.174.017-.347.026-.518.026" transform="translate(230.404 -178.16) rotate(45)" fill="#fcb200"/>
  </g>
</svg>
