<svg xmlns="http://www.w3.org/2000/svg" width="35.309" height="40" viewBox="0 0 35.309 40">
  <g id="hires-icon" transform="translate(-2423.136 -3269.428)">
    <path id="Path_68628" data-name="Path 68628" d="M2613.778,3531.671c-.733-.155-1.482-.258-2.2-.472a10.574,10.574,0,1,1,13.535-11.631,10.312,10.312,0,0,1-1.939,7.776c-.061.084-.122.168-.182.254a1.267,1.267,0,0,0-.059.133c.617.61,1.257,1.234,1.887,1.869a1.1,1.1,0,0,1,.262,1.444,3.647,3.647,0,0,1-.76.628h-.547c-.292-.229-.606-.437-.874-.691-.553-.527-1.082-1.081-1.625-1.627-.134.093-.23.156-.323.225a10.009,10.009,0,0,1-3.592,1.731c-.614.155-1.245.244-1.868.362Zm4.068-7.675a6.071,6.071,0,0,1,2.4,3.095,8.214,8.214,0,0,0-6.125-14.229,8.351,8.351,0,0,0-7.385,5.911,8.15,8.15,0,0,0,2.275,8.251,8.437,8.437,0,0,1,2.4-3.089,4.313,4.313,0,1,1,6.433.061Z" transform="translate(-166.811 -222.243)" fill="#fff"/>
    <path id="Path_68629" data-name="Path 68629" d="M2432.2,3276.644a6.071,6.071,0,0,1,2.165,2.515,5.894,5.894,0,0,1,.526,2.382c.008.521.02,1.042,0,1.562a1.153,1.153,0,0,1-1.237,1.221q-4.629.017-9.258,0a1.168,1.168,0,0,1-1.255-1.283,10,10,0,0,1,.287-3.249,5.885,5.885,0,0,1,2.139-2.951c.082-.06.156-.129.252-.21a4.348,4.348,0,0,1-1.029-3.714,4.2,4.2,0,0,1,1.488-2.5,4.274,4.274,0,0,1,5.556.069,4.179,4.179,0,0,1,1.474,3A4.383,4.383,0,0,1,2432.2,3276.644Z" transform="translate(-0.003 0)" fill="#fff"/>
    <path id="Path_68630" data-name="Path 68630" d="M2673.278,3276.578a21.469,21.469,0,0,1,1.545,1.66,5.586,5.586,0,0,1,1.074,3.44c0,.469.013.938,0,1.406a1.163,1.163,0,0,1-1.256,1.243q-4.609.015-9.219,0a1.176,1.176,0,0,1-1.276-1.3,9.967,9.967,0,0,1,.28-3.211,5.874,5.874,0,0,1,2.161-2.981c.073-.053.141-.113.241-.193a4.341,4.341,0,0,1-1-3.852,4.177,4.177,0,0,1,1.564-2.449,4.269,4.269,0,0,1,5.434.137,4.146,4.146,0,0,1,1.487,2.99C2674.366,3274.559,2674.256,3274.869,2673.278,3276.578Z" transform="translate(-222.173 -0.003)" fill="#fff"/>
    <path id="Path_68631" data-name="Path 68631" d="M2432.2,3517.645a6.073,6.073,0,0,1,2.165,2.515,5.886,5.886,0,0,1,.526,2.381c.009.521.02,1.042,0,1.562a1.152,1.152,0,0,1-1.236,1.222q-4.629.019-9.258,0a1.166,1.166,0,0,1-1.256-1.282,9.958,9.958,0,0,1,.286-3.25,5.891,5.891,0,0,1,2.138-2.951c.082-.06.156-.129.253-.21a4.349,4.349,0,0,1-1.03-3.714,4.194,4.194,0,0,1,1.488-2.5,4.274,4.274,0,0,1,5.556.067,4.18,4.18,0,0,1,1.475,3A4.381,4.381,0,0,1,2432.2,3517.645Z" transform="translate(0 -222.173)" fill="#fff"/>
  </g>
</svg>
