<svg xmlns="http://www.w3.org/2000/svg" width="105.398" height="89.918" viewBox="0 0 105.398 89.918">
  <g id="innovation" transform="translate(0 -21.92)">
    <g id="Group_43350" data-name="Group 43350" transform="translate(0 23.444)">
      <path id="Path_77321" data-name="Path 77321" d="M115.386,77.838h-25.5v-1.7a23.132,23.132,0,0,0-5.176-14.3A23.687,23.687,0,0,1,79.9,44.005a23.8,23.8,0,0,1,47.385,3.233,23.5,23.5,0,0,1-5.176,14.8,22.627,22.627,0,0,0-5.024,14v1.7Z" transform="translate(-50.787 -23.444)" fill="#fcb200" stroke="#000" stroke-width="3"/>
      <path id="Path_77322" data-name="Path 77322" d="M95.27,102.974a22.785,22.785,0,0,1,4.954-12.411A23.5,23.5,0,0,0,105.4,75.768,23.8,23.8,0,0,0,78.834,52.127a23.252,23.252,0,0,0-4.185.918,23.664,23.664,0,0,1,1.071,3.22,19.818,19.818,0,0,1,3.495-.76,20.39,20.39,0,0,1,18.351,32.94,26.19,26.19,0,0,0-5.709,14.523H90.1v-22.1H83.3v-1.7h5.1v-3.4H83.811L91.4,66.656,88.792,64.48,81.6,73.113l-5.5-6.6a23.241,23.241,0,0,1-1.107,3.983l4.4,5.277H74.8v3.4h5.1v1.7H73.1v22.1H69.386a4.867,4.867,0,0,0-.369-4.2,5.09,5.09,0,0,0-2.718-9.4H61.2v-22.1a6.807,6.807,0,0,0-6.8-6.8H51a3.4,3.4,0,0,1,0-6.8h3.4a3.4,3.4,0,0,1,3.4,3.4h3.4a6.807,6.807,0,0,0-6.8-6.8v-3.4H51v3.4a6.8,6.8,0,0,0,0,13.6h3.4a3.4,3.4,0,1,1,0,6.8H51a3.4,3.4,0,0,1-3.4-3.4H44.2v22.1H39.1a5.09,5.09,0,0,0-2.718,9.4,4.865,4.865,0,0,0-.369,4.2H32.3V84.058c.116-.119.242-.23.354-.354l-2.53-2.271a8.439,8.439,0,0,1-13.08-.564H25.5v-3.4H15.471a8.509,8.509,0,0,1,0-3.4H25.5v-3.4H17.044A8.437,8.437,0,0,1,30.122,70.1L30.242,70a23.573,23.573,0,0,1-1.13-4.848,11.82,11.82,0,0,0-16.048,5.521H10.2v3.4h1.836a10.693,10.693,0,0,0,0,3.4H10.2v3.4h2.864A12,12,0,0,0,15.3,84.081v18.887H13.547A26.76,26.76,0,0,0,7.7,88.28a20.318,20.318,0,0,1,21.943-32,23.062,23.062,0,0,1,1.068-3.223,23.686,23.686,0,0,0-9.678-.935A23.784,23.784,0,0,0,5.021,90.373a23.448,23.448,0,0,1,5.1,12.6,5.085,5.085,0,0,0-2.642,9.391,5.024,5.024,0,0,0,1.7,6.8,5.041,5.041,0,0,0-.682,2.5,5.106,5.106,0,0,0,5.1,5.1H34a5.106,5.106,0,0,0,5.1-5.1,5.041,5.041,0,0,0-.682-2.5,5.089,5.089,0,0,0,2.382-4.3,4.952,4.952,0,0,0-.559-2.251,5.039,5.039,0,0,0,2.259.551H62.9a5.04,5.04,0,0,0,2.259-.551,4.953,4.953,0,0,0-.559,2.251,5.089,5.089,0,0,0,2.382,4.3,5.041,5.041,0,0,0-.682,2.5,5.106,5.106,0,0,0,5.1,5.1H91.8a5.106,5.106,0,0,0,5.1-5.1,5.041,5.041,0,0,0-.682-2.5,5.024,5.024,0,0,0,1.7-6.8,5.086,5.086,0,0,0-2.646-9.393ZM76.5,84.268h3.4v3.4h3.4v-3.4h3.4v18.7H76.5ZM47.6,73.123a6.732,6.732,0,0,0,3.4.945v3.4h3.4v-3.4a6.731,6.731,0,0,0,3.4-.945V89.368H47.6ZM18.7,86.5A11.727,11.727,0,0,0,28.9,86.5v16.469H18.7ZM34,123.367H13.6a1.7,1.7,0,0,1,0-3.4H34a1.7,1.7,0,0,1,0,3.4Zm1.7-6.8H11.9a1.7,1.7,0,0,1,0-3.4H35.7a1.7,1.7,0,1,1,0,3.4Zm2-6.841a1.5,1.5,0,0,1-.3.041H10.2a1.7,1.7,0,1,1,0-3.4H37.4a1.5,1.5,0,0,1,.3.041,4.727,4.727,0,0,0,0,3.319Zm25.2.041H42.5a1.7,1.7,0,0,1,0-3.4H62.9a1.7,1.7,0,1,1,0,3.4Zm1.7-6.8H40.8a1.7,1.7,0,1,1,0-3.4H64.6a1.7,1.7,0,0,1,0,3.4Zm1.7-6.8H39.1a1.7,1.7,0,0,1,0-3.4H66.3a1.7,1.7,0,1,1,0,3.4Zm25.5,27.2H71.4a1.7,1.7,0,0,1,0-3.4H91.8a1.7,1.7,0,0,1,0,3.4Zm1.7-6.8H69.7a1.7,1.7,0,0,1,0-3.4H93.5a1.7,1.7,0,0,1,0,3.4Zm1.7-6.8H68a1.527,1.527,0,0,1-.3-.041,4.723,4.723,0,0,0,0-3.318,1.5,1.5,0,0,1,.3-.041H95.2a1.7,1.7,0,1,1,0,3.4Z" transform="translate(0 -38.374)"/>
    </g>
  </g>
</svg>
