<svg xmlns="http://www.w3.org/2000/svg" width="41.623" height="40" viewBox="0 0 41.623 40">
  <g id="kyc-conducted-icon" transform="translate(-3102.239 -3134.469)">
    <path id="Path_68632" data-name="Path 68632" d="M3423.623,3484.451c-.624.553-1.236,1.122-1.875,1.658q-3.815,3.2-7.644,6.373c-.56.466-.854.456-1.363-.051q-2.171-2.167-4.338-4.338c-.541-.542-.537-.855.01-1.405l.574-.575c.586-.584.886-.588,1.462-.013q1.394,1.392,2.784,2.79a2.2,2.2,0,0,1,.249.393l3.319-2.766q2.262-1.886,4.524-3.772c.582-.484.911-.452,1.4.133.3.36.6.724.9,1.085Z" transform="translate(-279.761 -318.353)" fill="#fff"/>
    <path id="Path_68633" data-name="Path 68633" d="M3133.9,3400.452c-.741-.741-1.469-1.467-2.193-2.2a2.282,2.282,0,0,0-2.443-.664,2.176,2.176,0,0,0-.768.435,14.024,14.024,0,0,0-1.266,1.261,2.191,2.191,0,0,0-.031,2.9c.483.565,1.034,1.072,1.555,1.6.1.1.2.212.351.374-.622.081-1.178.169-1.738.223a80.034,80.034,0,0,1-12.667.2,45.016,45.016,0,0,1-7.956-1.1c-1.192-.292-2.354-.712-3.519-1.1a1.351,1.351,0,0,1-.978-1.321,38.943,38.943,0,0,1,.161-5.069,9.481,9.481,0,0,1,4.578-6.87,9.792,9.792,0,0,1,3.661-1.377,1.548,1.548,0,0,1,1.225.251,13.591,13.591,0,0,0,9.075,2.409,12.856,12.856,0,0,0,6.294-2.2,2.414,2.414,0,0,1,2.052-.385,10.129,10.129,0,0,1,7.9,8.8,1.564,1.564,0,0,1-.664,1.654C3135.615,3398.943,3134.787,3399.712,3133.9,3400.452Z" transform="translate(0 -231.72)" fill="#fff"/>
    <path id="Path_68634" data-name="Path 68634" d="M3196.545,3155.189a10.36,10.36,0,1,1,10.345-10.354A10.374,10.374,0,0,1,3196.545,3155.189Zm-4.73-6.25-.092.113a8.9,8.9,0,0,0,.768,1.06,5.145,5.145,0,0,0,3.181,1.455,6.34,6.34,0,0,0,4.6-1.01,2.9,2.9,0,0,0,1.231-1.618Z" transform="translate(-76.803)" fill="#fff"/>
  </g>
</svg>
