<svg xmlns="http://www.w3.org/2000/svg" width="20" height="20" viewBox="0 0 20 20">
  <path id="leader-board-icon" d="M-904.027-155.469a3.132,3.132,0,0,0-2.66-3.093.632.632,0,0,1-.121-.048h-14.405a6.7,6.7,0,0,0-.873.273,3.006,3.006,0,0,0-1.9,2.868c-.013,7.015-.04,6.706-.036,13.721a3.153,3.153,0,0,0,3.206,3.135q6.778.007,13.555,0a3.15,3.15,0,0,0,3.206-3.135C-904.055-148.763-904.023-148.454-904.027-155.469Zm-4.453,12.761c-2,0-9.209.017-11.207.013a.8.8,0,0,1-.732-1.218.772.772,0,0,1,.729-.382h3.025c.99,0,7.192-.015,8.182-.013a.792.792,0,0,1,.9.812A.79.79,0,0,1-908.48-142.708Zm0-3.415c-1.98,0-9.173.015-11.153.014a.79.79,0,0,1-.9-.788.792.792,0,0,1,.9-.812q1.485,0,2.971,0c.99,0,7.192-.015,8.182-.013a.791.791,0,0,1,.9.788A.792.792,0,0,1-908.483-146.123Zm0-3.415c-1,0-7.21.014-8.21.014q-1.472,0-2.943,0a.792.792,0,0,1-.9-.812.79.79,0,0,1,.9-.788c1.98,0,9.173-.015,11.153-.014a.792.792,0,0,1,.9.812A.79.79,0,0,1-908.481-149.538Zm.845-3.93a.733.733,0,0,1-.721.512c-2.062.005-9.336.021-11.4.013a.762.762,0,0,1-.777-.794.769.769,0,0,1,.8-.8c1.026-.008,2.053,0,3.079,0,1.008,0,7.229-.019,8.237-.012A.791.791,0,0,1-907.636-153.469Z" transform="translate(924.027 158.609)" fill="#fff"/>
</svg>
