<svg xmlns="http://www.w3.org/2000/svg" xmlns:xlink="http://www.w3.org/1999/xlink" width="2773.936" height="2774.841" viewBox="0 0 2773.936 2774.841">
  <defs>
    <linearGradient id="linear-gradient" x1="1.124" y1="1.3" x2="0.239" y2="0.188" gradientUnits="objectBoundingBox">
      <stop offset="0" stop-color="#dae3fe"/>
      <stop offset="1" stop-color="#e9effd"/>
    </linearGradient>
    <linearGradient id="linear-gradient-2" x1="0" y1="0.5" x2="1" y2="0.5" xlink:href="#linear-gradient"/>
    <linearGradient id="linear-gradient-29" x1="1.348" y1="-1.458" x2="4.594" y2="-8.947" gradientUnits="objectBoundingBox">
      <stop offset="0" stop-color="#09005d"/>
      <stop offset="1" stop-color="#1a0f91"/>
    </linearGradient>
    <linearGradient id="linear-gradient-30" x1="0.642" y1="-0.891" x2="-0.254" y2="7.823" gradientUnits="objectBoundingBox">
      <stop offset="0" stop-color="#febbba"/>
      <stop offset="1" stop-color="#ff928e"/>
    </linearGradient>
    <linearGradient id="linear-gradient-31" x1="0.576" y1="-0.264" x2="-0.473" y2="13.755" xlink:href="#linear-gradient-30"/>
    <linearGradient id="linear-gradient-32" x1="1.189" y1="-0.291" x2="7.612" y2="-7.225" gradientUnits="objectBoundingBox">
      <stop offset="0" stop-color="#fe7062"/>
      <stop offset="1" stop-color="#ff928e"/>
    </linearGradient>
    <linearGradient id="linear-gradient-33" x1="-20.41" y1="0.5" x2="-19.41" y2="0.5" xlink:href="#linear-gradient-29"/>
    <linearGradient id="linear-gradient-34" x1="-53.421" y1="-0.843" x2="-53.928" y2="2.39" xlink:href="#linear-gradient-30"/>
    <linearGradient id="linear-gradient-35" x1="-14.178" y1="0.5" x2="-13.178" y2="0.5" xlink:href="#linear-gradient-29"/>
    <linearGradient id="linear-gradient-36" x1="-48.352" y1="-2.028" x2="-48.832" y2="0.687" xlink:href="#linear-gradient-30"/>
    <linearGradient id="linear-gradient-37" x1="-7.309" y1="1.152" x2="-6.517" y2="-0.284" xlink:href="#linear-gradient-29"/>
    <linearGradient id="linear-gradient-38" x1="2.252" y1="-0.791" x2="-2.568" y2="2.342" gradientUnits="objectBoundingBox">
      <stop offset="0" stop-color="#4042e2"/>
      <stop offset="1" stop-color="#4f52ff"/>
    </linearGradient>
    <linearGradient id="linear-gradient-39" x1="1.219" y1="-0.107" x2="-1.203" y2="2.12" xlink:href="#linear-gradient-38"/>
    <linearGradient id="linear-gradient-40" x1="-17.788" y1="1.219" x2="-17.397" y2="0.33" xlink:href="#linear-gradient-30"/>
    <linearGradient id="linear-gradient-41" x1="1.312" y1="-4.691" x2="1.05" y2="-3.017" xlink:href="#linear-gradient-38"/>
    <linearGradient id="linear-gradient-42" x1="0.886" y1="-2.918" x2="0.734" y2="-1.558" xlink:href="#linear-gradient-38"/>
    <linearGradient id="linear-gradient-43" x1="-16.536" y1="0.277" x2="-18.795" y2="1.877" xlink:href="#linear-gradient-30"/>
    <linearGradient id="linear-gradient-44" x1="-12.351" y1="0.152" x2="-11.601" y2="1.129" xlink:href="#linear-gradient-29"/>
    <linearGradient id="linear-gradient-45" x1="-68.654" y1="-0.685" x2="-73.204" y2="1.784" xlink:href="#linear-gradient-30"/>
    <linearGradient id="linear-gradient-46" x1="-114.487" y1="-0.443" x2="-102.497" y2="3.609" xlink:href="#linear-gradient-30"/>
    <linearGradient id="linear-gradient-47" x1="-8.415" y1="-0.123" x2="-7.482" y2="1.014" xlink:href="#linear-gradient-30"/>
    <linearGradient id="linear-gradient-48" x1="-69.985" y1="0.261" x2="-62.787" y2="2.696" xlink:href="#linear-gradient-30"/>
    <linearGradient id="linear-gradient-49" x1="-0.776" y1="0.529" x2="-1.413" y2="2.466" gradientUnits="objectBoundingBox">
      <stop offset="0" stop-color="#e1473d"/>
      <stop offset="1" stop-color="#e9605a"/>
    </linearGradient>
    <linearGradient id="linear-gradient-50" x1="4.281" y1="-4.156" x2="3.693" y2="-2.497" xlink:href="#linear-gradient-32"/>
    <linearGradient id="linear-gradient-51" x1="-2.365" y1="1.376" x2="-1.337" y2="3.786" gradientUnits="objectBoundingBox">
      <stop offset="0" stop-color="#ff9085"/>
      <stop offset="1" stop-color="#fb6fbb"/>
    </linearGradient>
    <linearGradient id="linear-gradient-52" x1="0.594" y1="0.278" x2="0.933" y2="-0.972" xlink:href="#linear-gradient-32"/>
    <linearGradient id="linear-gradient-53" x1="1.69" y1="-1.805" x2="1.556" y2="-1.546" xlink:href="#linear-gradient-32"/>
    <linearGradient id="linear-gradient-54" x1="-3.867" y1="15.588" x2="-4.672" y2="20.694" xlink:href="#linear-gradient-30"/>
  </defs>
  <g id="Group_47" data-name="Group 47" transform="translate(-468.032 -456.817)">
    <path id="Path_1" data-name="Path 1" d="M2910.684,2824.457c-56.734,58.789-110.415,96.7-152.828,126.653C2259.3,3303.2,1669.385,3200.569,1544.01,3175.5c-185.138-37.011-543.007-108.553-801.74-408.034-391.442-453.089-330.488-1166.918-26.86-1638.127,55.538-86.192,348.908-564.578,945.181-641.3,360.858-46.429,781.5,47.213,1086.122,298.41C3386.136,1313.744,3340.615,2378.956,2910.684,2824.457Z" fill="url(#linear-gradient)"/>
    <g id="Group_25" data-name="Group 25">
      <g id="Group_2" data-name="Group 2">
        <path id="Path_2" data-name="Path 2" d="M996.654,1243.762c.256-13.323,11.452-24.043,25.173-24.043h832.258c13.906,0,28.675,11.051,28.675,24.555V3130.621c0,10.08-5.879,19.747-13.228,26.865s-18.188,11.1-28.568,11.075l-841.374-2.23a40.165,40.165,0,0,1-28.031-11.4,37.524,37.524,0,0,1-11.25-27.276Z" fill="#bdd0fb"/>
        <g id="Group_1" data-name="Group 1" opacity="0.52">
          <path id="Path_3" data-name="Path 3" d="M1474.608,1353.4l272.251-.915-.1-33.082-271.946.834Z" fill="#fff" style="mix-blend-mode: overlay;isolation: isolate"/>
          <path id="Path_4" data-name="Path 4" d="M1473.862,1475.252l273.371-1.211-.1-33.354-273.063,1.13Z" fill="#fff" style="mix-blend-mode: overlay;isolation: isolate"/>
          <path id="Path_5" data-name="Path 5" d="M1473.109,1598.11l274.5-1.513-.1-33.629-274.189,1.43Z" fill="#fff" style="mix-blend-mode: overlay;isolation: isolate"/>
          <path id="Path_6" data-name="Path 6" d="M1472.35,1721.991l275.637-1.819-.1-33.908L1472.558,1688Z" fill="#fff" style="mix-blend-mode: overlay;isolation: isolate"/>
          <path id="Path_7" data-name="Path 7" d="M1471.585,1846.9l276.785-2.131-.105-34.19-276.47,2.044Z" fill="#fff" style="mix-blend-mode: overlay;isolation: isolate"/>
          <path id="Path_8" data-name="Path 8" d="M1470.036,2099.872l279.109-2.768-.107-34.765-278.789,2.679Z" fill="#fff" style="mix-blend-mode: overlay;isolation: isolate"/>
          <path id="Path_9" data-name="Path 9" d="M1467.662,2487.4l282.668-3.766-.109-35.656-282.34,3.672Z" fill="#fff" style="mix-blend-mode: overlay;isolation: isolate"/>
          <path id="Path_10" data-name="Path 10" d="M1470.814,1972.858l277.941-2.447-.105-34.476-277.625,2.36Z" fill="#fff" style="mix-blend-mode: overlay;isolation: isolate"/>
          <path id="Path_11" data-name="Path 11" d="M1469.251,2227.961l280.285-3.1-.108-35.059-279.962,3.006Z" fill="#fff" style="mix-blend-mode: overlay;isolation: isolate"/>
          <path id="Path_12" data-name="Path 12" d="M1468.46,2357.133l281.472-3.428-.108-35.355-281.147,3.336Z" fill="#fff" style="mix-blend-mode: overlay;isolation: isolate"/>
          <path id="Path_13" data-name="Path 13" d="M1466.857,2618.788l283.876-4.11-.111-35.961-283.544,4.015Z" fill="#fff" style="mix-blend-mode: overlay;isolation: isolate"/>
          <path id="Path_14" data-name="Path 14" d="M1466.045,2751.3l285.094-4.459-.112-36.269-284.758,4.363Z" fill="#fff" style="mix-blend-mode: overlay;isolation: isolate"/>
          <path id="Path_15" data-name="Path 15" d="M1465.227,2884.957l286.321-4.814-.112-36.581-285.984,4.716Z" fill="#fff" style="mix-blend-mode: overlay;isolation: isolate"/>
          <path id="Path_16" data-name="Path 16" d="M1464.4,3019.768l287.56-5.176-.113-36.9-287.219,5.076Z" fill="#fff" style="mix-blend-mode: overlay;isolation: isolate"/>
          <path id="Path_17" data-name="Path 17" d="M1117.667,1354.6l273.958-.921.3-33.186-273.651.84Z" fill="#fff" style="mix-blend-mode: overlay;isolation: isolate"/>
          <path id="Path_18" data-name="Path 18" d="M1115.444,1476.84l275.093-1.22.3-33.46-274.781,1.136Z" fill="#fff" style="mix-blend-mode: overlay;isolation: isolate"/>
          <path id="Path_19" data-name="Path 19" d="M1113.2,1600.094l276.236-1.523.3-33.738-275.922,1.439Z" fill="#fff" style="mix-blend-mode: overlay;isolation: isolate"/>
          <path id="Path_20" data-name="Path 20" d="M1110.945,1724.376l277.388-1.831.3-34.018-277.072,1.746Z" fill="#fff" style="mix-blend-mode: overlay;isolation: isolate"/>
          <path id="Path_21" data-name="Path 21" d="M1108.667,1849.7l278.55-2.144.306-34.3-278.231,2.058Z" fill="#fff" style="mix-blend-mode: overlay;isolation: isolate"/>
          <path id="Path_22" data-name="Path 22" d="M1104.052,2103.5l280.9-2.786.312-34.881-280.58,2.7Z" fill="#fff" style="mix-blend-mode: overlay;isolation: isolate"/>
          <path id="Path_23" data-name="Path 23" d="M1096.984,2492.342l284.51-3.79.319-35.778-284.177,3.7Z" fill="#fff" style="mix-blend-mode: overlay;isolation: isolate"/>
          <path id="Path_24" data-name="Path 24" d="M1106.369,1976.066l279.723-2.463.308-34.589-279.4,2.374Z" fill="#fff" style="mix-blend-mode: overlay;isolation: isolate"/>
          <path id="Path_25" data-name="Path 25" d="M1101.716,2232.02l282.1-3.115.314-35.176-281.769,3.024Z" fill="#fff" style="mix-blend-mode: overlay;isolation: isolate"/>
          <path id="Path_26" data-name="Path 26" d="M1099.36,2361.627l283.3-3.45.317-35.475-282.968,3.358Z" fill="#fff" style="mix-blend-mode: overlay;isolation: isolate"/>
          <path id="Path_27" data-name="Path 27" d="M1094.587,2624.177l285.733-4.136.322-36.084-285.4,4.041Z" fill="#fff" style="mix-blend-mode: overlay;isolation: isolate"/>
          <path id="Path_28" data-name="Path 28" d="M1092.17,2757.147l286.966-4.488.326-36.395-286.628,4.392Z" fill="#fff" style="mix-blend-mode: overlay;isolation: isolate"/>
          <path id="Path_29" data-name="Path 29" d="M1089.731,2891.271l288.211-4.846.327-36.709-287.869,4.748Z" fill="#fff" style="mix-blend-mode: overlay;isolation: isolate"/>
          <path id="Path_30" data-name="Path 30" d="M1087.272,3026.555l289.465-5.21.331-37.027-289.121,5.109Z" fill="#fff" style="mix-blend-mode: overlay;isolation: isolate"/>
        </g>
      </g>
      <g id="Group_13" data-name="Group 13">
        <path id="Path_31" data-name="Path 31" d="M519.065,1764.072c.365-15.408,16.186-28.087,35.579-28.087h733.014c19.653,0,38.954,13.341,38.954,28.959V3160.851c0,7.513-5.447,14.718-12.14,20.024s-16.614,8.275-26.069,8.254L522,3187.467c-9.537-.021-18.874-3.082-25.544-8.5s-10.432-12.9-10.253-20.48Z" fill="#bdd0fb"/>
        <g id="Group_12" data-name="Group 12">
          <g id="Group_3" data-name="Group 3">
            <path id="Path_32" data-name="Path 32" d="M1058.891,1900.476l208.82-.223,1.656-85.057H1060.345Z" fill="url(#linear-gradient-2)"/>
            <path id="Path_33" data-name="Path 33" d="M824.828,1900.434l208.61-.223,1.429-85.014H826.055Z" fill="url(#linear-gradient-2)"/>
            <path id="Path_34" data-name="Path 34" d="M591,1900.391l208.4-.223,1.2-84.971H592Z" fill="url(#linear-gradient-2)"/>
          </g>
          <g id="Group_4" data-name="Group 4">
            <path id="Path_35" data-name="Path 35" d="M1056.282,2053.15l208.456.106,1.651-84.5-208.658-.068Z" fill="url(#linear-gradient-2)"/>
            <path id="Path_36" data-name="Path 36" d="M822.626,2053.031l208.247.106,1.424-84.459-208.449-.069Z" fill="url(#linear-gradient-2)"/>
            <path id="Path_37" data-name="Path 37" d="M589.205,2052.913l208.038.105,1.2-84.417-208.239-.068Z" fill="url(#linear-gradient-2)"/>
          </g>
          <g id="Group_5" data-name="Group 5">
            <path id="Path_38" data-name="Path 38" d="M1053.681,2204.775l208.093.174,1.645-84.209-208.295-.136Z" fill="url(#linear-gradient-2)"/>
            <path id="Path_39" data-name="Path 39" d="M820.432,2204.58l207.885.173,1.419-84.166-208.086-.136Z" fill="url(#linear-gradient-2)"/>
            <path id="Path_40" data-name="Path 40" d="M587.417,2204.385l207.677.174,1.193-84.124L588.41,2120.3Z" fill="url(#linear-gradient-2)"/>
          </g>
          <g id="Group_6" data-name="Group 6">
            <path id="Path_41" data-name="Path 41" d="M1051.09,2355.875l207.732.241,1.639-83.917-207.932-.2Z" fill="url(#linear-gradient-2)"/>
            <path id="Path_42" data-name="Path 42" d="M818.245,2355.6l207.525.24,1.414-83.875-207.725-.2Z" fill="url(#linear-gradient-2)"/>
            <path id="Path_43" data-name="Path 43" d="M585.634,2355.335l207.316.24,1.19-83.833-207.516-.2Z" fill="url(#linear-gradient-2)"/>
          </g>
          <g id="Group_7" data-name="Group 7">
            <path id="Path_44" data-name="Path 44" d="M1048.507,2506.452l207.371.308,1.633-83.627-207.571-.271Z" fill="url(#linear-gradient-2)"/>
            <path id="Path_45" data-name="Path 45" d="M816.066,2506.108l207.164.307,1.409-83.585-207.364-.271Z" fill="url(#linear-gradient-2)"/>
            <path id="Path_46" data-name="Path 46" d="M583.857,2505.764l206.958.307L792,2422.526l-207.157-.27Z" fill="url(#linear-gradient-2)"/>
          </g>
          <g id="Group_8" data-name="Group 8">
            <path id="Path_47" data-name="Path 47" d="M1045.934,2656.511l207.012.374,1.628-83.339-207.212-.337Z" fill="url(#linear-gradient-2)"/>
            <path id="Path_48" data-name="Path 48" d="M813.894,2656.092l206.807.373,1.4-83.3-207.005-.337Z" fill="url(#linear-gradient-2)"/>
            <path id="Path_49" data-name="Path 49" d="M582.087,2655.673l206.6.373,1.182-83.256-206.8-.336Z" fill="url(#linear-gradient-2)"/>
          </g>
          <g id="Group_9" data-name="Group 9">
            <path id="Path_50" data-name="Path 50" d="M1043.368,2806.052l206.655.439,1.623-83.052-206.853-.4Z" fill="url(#linear-gradient-2)"/>
            <path id="Path_51" data-name="Path 51" d="M811.73,2805.56l206.449.438,1.4-83.01-206.648-.4Z" fill="url(#linear-gradient-2)"/>
            <path id="Path_52" data-name="Path 52" d="M580.322,2805.068l206.244.438,1.178-82.97-206.442-.4Z" fill="url(#linear-gradient-2)"/>
          </g>
          <g id="Group_10" data-name="Group 10">
            <path id="Path_53" data-name="Path 53" d="M1040.813,2955.079l206.3.5,1.617-82.766-206.5-.469Z" fill="url(#linear-gradient-2)"/>
            <path id="Path_54" data-name="Path 54" d="M809.574,2954.513l206.093.5,1.395-82.725-206.291-.467Z" fill="url(#linear-gradient-2)"/>
            <path id="Path_55" data-name="Path 55" d="M578.564,2953.949l205.889.5,1.173-82.685L579.54,2871.3Z" fill="url(#linear-gradient-2)"/>
          </g>
          <g id="Group_11" data-name="Group 11">
            <path id="Path_56" data-name="Path 56" d="M1038.265,3103.6l205.943.569,1.611-82.482-206.14-.533Z" fill="url(#linear-gradient-2)"/>
            <path id="Path_57" data-name="Path 57" d="M807.424,3102.957l205.739.569,1.39-82.442-205.936-.533Z" fill="url(#linear-gradient-2)"/>
            <path id="Path_58" data-name="Path 58" d="M576.812,3102.319l205.534.568,1.17-82.4-205.732-.532Z" fill="url(#linear-gradient-2)"/>
          </g>
        </g>
      </g>
      <g id="Group_24" data-name="Group 24">
        <path id="Path_59" data-name="Path 59" d="M2432.45,1797.407c.364-15.408,16.185-28.088,35.579-28.088h733.014c19.653,0,38.954,13.341,38.954,28.959V3194.185c0,7.514-5.448,14.718-12.141,20.024s-16.613,8.275-26.068,8.255l-766.407-1.663c-9.537-.02-18.873-3.082-25.544-8.5s-10.431-12.9-10.252-20.48Z" fill="#bdd0fb"/>
        <g id="Group_23" data-name="Group 23" opacity="0.5">
          <g id="Group_14" data-name="Group 14">
            <path id="Path_60" data-name="Path 60" d="M2972.276,1933.81l208.82-.223,1.656-85.057H2973.73Z" fill="#fff"/>
            <path id="Path_61" data-name="Path 61" d="M2738.212,1933.768l208.611-.223,1.429-85.014H2739.439Z" fill="#fff"/>
            <path id="Path_62" data-name="Path 62" d="M2504.385,1933.725l208.4-.223,1.2-84.971h-208.6Z" fill="#fff"/>
          </g>
          <g id="Group_15" data-name="Group 15">
            <path id="Path_63" data-name="Path 63" d="M2969.666,2086.485l208.456.106,1.651-84.5-208.657-.068Z" fill="#fff"/>
            <path id="Path_64" data-name="Path 64" d="M2736.011,2086.365l208.247.106,1.425-84.459-208.449-.069Z" fill="#fff"/>
            <path id="Path_65" data-name="Path 65" d="M2502.59,2086.247l208.038.105,1.2-84.417-208.239-.068Z" fill="#fff"/>
          </g>
          <g id="Group_16" data-name="Group 16">
            <path id="Path_66" data-name="Path 66" d="M2967.066,2238.109l208.093.174,1.645-84.209-208.295-.136Z" fill="#fff"/>
            <path id="Path_67" data-name="Path 67" d="M2733.817,2237.915l207.885.173,1.419-84.166-208.086-.136Z" fill="#fff"/>
            <path id="Path_68" data-name="Path 68" d="M2500.8,2237.72l207.677.174,1.193-84.125-207.877-.136Z" fill="#fff"/>
          </g>
          <g id="Group_17" data-name="Group 17">
            <path id="Path_69" data-name="Path 69" d="M2964.474,2389.209l207.732.241,1.639-83.917-207.933-.2Z" fill="#fff"/>
            <path id="Path_70" data-name="Path 70" d="M2731.63,2388.939l207.525.24,1.414-83.875-207.725-.2Z" fill="#fff"/>
            <path id="Path_71" data-name="Path 71" d="M2499.018,2388.67l207.316.24,1.189-83.833-207.516-.2Z" fill="#fff"/>
          </g>
          <g id="Group_18" data-name="Group 18">
            <path id="Path_72" data-name="Path 72" d="M2961.892,2539.787l207.371.308,1.633-83.627-207.571-.271Z" fill="#fff"/>
            <path id="Path_73" data-name="Path 73" d="M2729.451,2539.442l207.164.307,1.409-83.585-207.364-.271Z" fill="#fff"/>
            <path id="Path_74" data-name="Path 74" d="M2497.241,2539.1l206.958.307,1.185-83.544-207.156-.27Z" fill="#fff"/>
          </g>
          <g id="Group_19" data-name="Group 19">
            <path id="Path_75" data-name="Path 75" d="M2959.318,2689.845l207.012.374,1.628-83.339-207.212-.337Z" fill="#fff"/>
            <path id="Path_76" data-name="Path 76" d="M2727.279,2689.426l206.807.373,1.4-83.3-207.006-.337Z" fill="#fff"/>
            <path id="Path_77" data-name="Path 77" d="M2495.471,2689.007l206.6.373,1.182-83.256-206.8-.336Z" fill="#fff"/>
          </g>
          <g id="Group_20" data-name="Group 20">
            <path id="Path_78" data-name="Path 78" d="M2956.753,2839.386l206.655.439,1.623-83.051-206.853-.4Z" fill="#fff"/>
            <path id="Path_79" data-name="Path 79" d="M2725.115,2838.894l206.449.438,1.4-83.01-206.647-.4Z" fill="#fff"/>
            <path id="Path_80" data-name="Path 80" d="M2493.707,2838.4l206.244.438,1.178-82.97-206.442-.4Z" fill="#fff"/>
          </g>
          <g id="Group_21" data-name="Group 21">
            <path id="Path_81" data-name="Path 81" d="M2954.2,2988.414l206.3.505,1.617-82.766-206.5-.469Z" fill="#fff"/>
            <path id="Path_82" data-name="Path 82" d="M2722.958,2987.848l206.094.5,1.395-82.725-206.291-.468Z" fill="#fff"/>
            <path id="Path_83" data-name="Path 83" d="M2491.948,2987.283l205.889.5,1.173-82.685-206.085-.467Z" fill="#fff"/>
          </g>
          <g id="Group_22" data-name="Group 22">
            <path id="Path_84" data-name="Path 84" d="M2951.65,3136.93l205.943.569,1.612-82.482-206.14-.533Z" fill="#fff"/>
            <path id="Path_85" data-name="Path 85" d="M2720.809,3136.291l205.739.569,1.39-82.442L2722,3053.885Z" fill="#fff"/>
            <path id="Path_86" data-name="Path 86" d="M2490.2,3135.654l205.534.568,1.17-82.4-205.731-.532Z" fill="#fff"/>
          </g>
        </g>
      </g>
    </g>
    <g id="Group_28" data-name="Group 28">
      <g id="Group_26" data-name="Group 26">
        <path id="Path_87" data-name="Path 87" d="M1703.744,2177.14c-59.822-187.828-175.569-337.517-312.674-425.514-122.564-78.666-210.866-201.177-243.559-342.693q-5.156-22.312-12.271-44.7c-71.949-225.894-269.286-364.742-440.766-310.124S442.3,1336.12,514.253,1562.012a552.913,552.913,0,0,0,58.576,126.718c76.3,121.23,106.16,266.633,78.086,407.268C625.822,2221.677,632.63,2363.186,677.481,2504c66.892,210.022,203.7,372.371,362.118,454.1a550.594,550.594,0,0,1,158.691,122.719c74.355,83.475,179.139,122.714,275.414,92.052,103.856-33.081,168.741-138.248,173.41-260.955,2.642-69.436,18.969-137.5,45.581-201.838C1755.516,2558.19,1764.23,2367.041,1703.744,2177.14Z" fill="#a85e97"/>
        <path id="Path_88" data-name="Path 88" d="M831.058,1275.286c69.952,142.157,135.259,286.453,199.049,431.429,15.963,36.237,31.341,72.727,46.835,109.166l23.233,54.664,22.774,54.86c15.039,36.63,30.589,73.053,45.212,109.856l43.878,110.4c28.309,73.976,57.246,147.706,84.17,222.21,13.514,37.228,27.757,74.187,40.511,111.7l38.78,112.317c50.183,150.271,96.6,301.882,135.214,455.554l-6.634,1.741-33.29-113.869-8.258-28.475-8.971-28.269-18.049-56.5-17.94-56.519c-5.945-18.851-12.594-37.481-18.856-56.23-12.778-37.417-25.255-74.931-38.274-112.261-53.051-149-108.089-297.285-166.193-444.415-29.618-73.343-58.6-146.933-88.731-220.074l-22.446-54.915-22.909-54.728c-15.25-36.495-30.5-72.989-46.123-109.328q-45.927-109.417-93.5-218.151-47.04-108.96-95.678-217.231Z" fill="#fff" opacity="0.57"/>
      </g>
      <g id="Group_27" data-name="Group 27">
        <path id="Path_89" data-name="Path 89" d="M2204.2,1803.793c-27.958-205.127-120.368-380.942-245.846-496.815-112.17-103.585-181.179-246.313-189.489-398.619q-1.31-24.015-4.627-48.467c-33.623-246.7-212.039-426.09-398.5-400.676S1055.376,705.222,1089,951.922a583.116,583.116,0,0,0,37.631,141.691c56.873,139.228,61.568,295.043,7.426,435.423-48.383,125.453-66.74,273.062-45.78,426.851,31.262,229.367,143.107,422.1,291.659,535.349a578.377,578.377,0,0,1,141.493,155.7c61.637,99.824,162.557,159.4,267.242,145.136,112.932-15.393,198.635-112.416,225.446-238.494,15.172-71.347,44.2-138.785,83.149-200.518C2189.223,2207.331,2232.47,2011.188,2204.2,1803.793Z" fill="#a03c84"/>
        <path id="Path_90" data-name="Path 90" d="M1466.8,712.759c46.581,159.724,87.993,320.816,127.721,482.34,9.95,40.376,19.249,80.908,28.68,121.409l14.135,60.754,13.627,60.872c8.928,40.617,18.417,81.11,26.884,121.83l25.413,122.151c15.9,81.649,32.495,163.16,46.876,245.1,7.248,40.958,15.294,81.769,21.71,122.878l19.816,123.208c24.76,164.535,45.4,329.769,57.631,495.724l-7.148.6-13.881-123.818-3.4-30.951-4.175-30.867-8.466-61.711-8.349-61.715c-2.745-20.574-6.256-41.051-9.345-61.58-6.455-41.019-12.584-82.085-19.3-123.058-27.943-163.734-58.059-327.1-91.542-489.817-17.364-81.232-34.03-162.606-51.959-243.723l-13.279-60.871-13.79-60.761c-9.169-40.513-18.339-81.028-27.918-121.448q-27.7-121.5-57.221-242.6c-19.283-80.821-39.335-161.481-59.626-242.042Z" fill="#fff" opacity="0.57"/>
      </g>
    </g>
    <g id="Group_29" data-name="Group 29">
      <rect id="Rectangle_1" data-name="Rectangle 1" width="1673.723" height="2245.56" rx="23.034" transform="translate(1410.532 968.104)" fill="#920061"/>
      <rect id="Rectangle_2" data-name="Rectangle 2" width="1259.447" height="1612.399" rx="76.009" transform="translate(1615.886 1305.464)" fill="#a85e97"/>
      <rect id="Rectangle_3" data-name="Rectangle 3" width="1068.226" height="1367.589" rx="22.802" transform="translate(1711.996 1438.102)" fill="#a03c84"/>
      <circle id="Ellipse_1" data-name="Ellipse 1" cx="50.071" cy="50.071" r="50.071" transform="translate(2173.53 1140.29) rotate(-45)" fill="url(#linear-gradient-29)"/>
      <path id="Path_91" data-name="Path 91" d="M2567.821,1948.6l-644.171,10.71c-49.028.815-88.917,38.939-88.917,85.15v405.677c0,46.211,39.889,82.07,88.917,80.1l644.171-25.867c46.273-1.858,83.652-39.564,83.652-84.225V2028.075C2651.473,1983.414,2614.094,1947.831,2567.821,1948.6Z" fill="url(#linear-gradient-30)"/>
      <path id="Path_92" data-name="Path 92" d="M2600.426,1875.23c-19.51.29-35.35-14.767-35.35-33.633V1752.81c0-89.073-75.343-161.321-168.614-161.052l-209.853.606c-95.672.277-174.07,74.66-174.07,165.812v90.861c0,19.306-16.611,35.2-37.133,35.511-20.556.306-37.247-15.144-37.247-34.509V1758.9c0-130.1,112.087-235.946,248.45-235.946h209.853c132.5,0,239.209,102.806,239.209,229.171v88.523C2635.671,1859.456,2619.9,1874.939,2600.426,1875.23Z" fill="url(#linear-gradient-31)"/>
      <path id="Path_93" data-name="Path 93" d="M2349.955,2173.428c0-45.083-39.356-80.478-87.2-77.227-42.309,2.876-77.3,36.757-79.582,77.212-1.772,31.393,15.48,58.529,41.7,72.252a28.294,28.294,0,0,1,14.528,30.31l-18.394,103.213c-2.342,13.144,8.225,24.692,22.125,24.194l47.268-1.692c13.83-.5,24.321-12.751,22-25.68l-18.381-102.256c-2.191-12.2,4.148-24.313,15.333-31C2333.676,2228.212,2349.955,2202.422,2349.955,2173.428Z" fill="url(#linear-gradient-32)"/>
    </g>
    <g id="Group_33" data-name="Group 33">
      <g id="Group_30" data-name="Group 30">
        <path id="Path_94" data-name="Path 94" d="M1056.181,3217.587a10.208,10.208,0,0,0-.272-2.679c-13.358-52.959-79.657-85.945-79.657-85.945l-26.273,2.06c-15.1,46.677-13.164,75.3-10.738,88.055.067.358.176.7.271,1.043C961.184,3222.058,1005.79,3223.322,1056.181,3217.587Z" fill="url(#linear-gradient-33)"/>
        <path id="Path_95" data-name="Path 95" d="M939.512,3220.121a11.391,11.391,0,0,0,8.336,8.419c30.829,6.484,79.828,1.267,100.4-1.423,4.539-.593,7.857-4.791,7.932-9.53C1005.79,3223.322,961.184,3222.058,939.512,3220.121Z" fill="#91b3fa"/>
        <path id="Path_96" data-name="Path 96" d="M939.416,3091.891l11.127,53.566a8.757,8.757,0,0,0,7.484,7.207,74.259,74.259,0,0,0,17.239-.274c5.74-.844,9.738-6.677,8.72-12.937l-7.734-47.562Z" fill="url(#linear-gradient-34)"/>
        <path id="Path_97" data-name="Path 97" d="M1169.962,3219.443c-29.016-.812-44.024-4.229-51.782-7.4-.018,2.885,0,5.821.092,8.863a5.727,5.727,0,0,0,5.467,5.826l159.314-1.029c5.084-.033,8.055-5.929,5.852-10.592C1268.016,3216.837,1214.815,3220.7,1169.962,3219.443Z" fill="#91b3fa"/>
        <path id="Path_98" data-name="Path 98" d="M1288.905,3215.111a7.51,7.51,0,0,0-.631-1.2c-14.07-19.659-49.9-58.8-120.714-75.785l-33.969-1.071s-15.126,26.29-15.411,74.989c7.758,3.171,22.766,6.588,51.782,7.4C1214.815,3220.7,1268.016,3216.837,1288.905,3215.111Z" fill="url(#linear-gradient-35)"/>
        <path id="Path_99" data-name="Path 99" d="M1125.78,3087.152c.536,2.5,7.6,40.618,10.341,55.4a7.39,7.39,0,0,0,6.643,6.27c5.816.327,15.2.365,23.265-1.826,4.351-1.182,7.276-5.619,6.965-10.543l-3.8-60.288Z" fill="url(#linear-gradient-36)"/>
        <path id="Path_100" data-name="Path 100" d="M1100.039,2383.407s46.729,321.1,80.451,703.2c.628,7.116-5.043,13.31-12.033,14.781-10.3,2.17-25.445,4.746-37.981,4.4a14.073,14.073,0,0,1-13.412-11.75c-11.488-67.37-93.463-428.939-114.978-508.516,0,0-24.714,338.026-16.814,513.4a8.311,8.311,0,0,1-7.333,8.644,139.546,139.546,0,0,1-30.492-.085,11.124,11.124,0,0,1-9.91-9.443c-8.183-57.016-55.282-396.4-53.28-640.886.114-13.787,16.176-127.065,16.176-127.065Z" fill="url(#linear-gradient-37)"/>
      </g>
      <path id="Path_101" data-name="Path 101" d="M1118.147,1843.429l6.256,168.024a462.044,462.044,0,0,0,50.8,14.424c10.077-32.443,32.265-72.26,50.435-101.866C1158.879,1900.414,1118.147,1843.429,1118.147,1843.429Z" fill="url(#linear-gradient-38)"/>
      <path id="Path_102" data-name="Path 102" d="M893.411,2401.913a13.217,13.217,0,0,1-8.677-11.134c-6.214-60.287-36.3-434.09,153.647-587.857,0,0,10.893-28.5,100.43,41.557s41.6,143.49,20.163,244.774c-25.94,122.562-71.453,222.745-51.316,298.168a10.456,10.456,0,0,1-6.4,12.533C1031.7,2425.588,962.419,2426.436,893.411,2401.913Z" fill="url(#linear-gradient-39)"/>
      <path id="Path_103" data-name="Path 103" d="M1112.475,1690.922c-.06,5.319-75.908,113.052-75.908,113.052s13.614,26.813,78.608,48.582l56.1-115.35Z" fill="url(#linear-gradient-40)"/>
      <path id="Path_104" data-name="Path 104" d="M1074.9,2059.561a2.43,2.43,0,0,1-1.376-.423c-60.592-40.939-89.1-107.016-89.377-107.68a2.464,2.464,0,0,1,4.536-1.925c.275.65,28.249,65.423,87.6,105.525a2.462,2.462,0,0,1-1.381,4.5Z" fill="url(#linear-gradient-41)"/>
      <path id="Path_105" data-name="Path 105" d="M1165.154,1967.975a2.464,2.464,0,0,1-2.074-1.132c-.183-.283-18.694-29.1-53.951-92.23-10.842-19.413-25.09-31.706-42.35-36.537-28.583-7.986-56.13,7.338-56.4,7.491a2.462,2.462,0,1,1-2.434-4.281c1.188-.674,29.521-16.527,60.118-7.963,18.591,5.187,33.857,18.269,45.369,38.884,35.169,62.974,53.61,91.687,53.792,91.971a2.464,2.464,0,0,1-2.068,3.8Z" fill="url(#linear-gradient-42)"/>
      <g id="Group_31" data-name="Group 31">
        <path id="Path_106" data-name="Path 106" d="M1172.192,1629.189s26.988,62,28.8,94.537,8.824,53.654-28.8,60.207-69.32-12.191-86.491-44.6c0,0-26.9-49.945-20.869-70.4S1172.192,1629.189,1172.192,1629.189Z" fill="url(#linear-gradient-43)"/>
        <path id="Path_107" data-name="Path 107" d="M1098.558,1716.024l2.142-.945a5.165,5.165,0,0,0,2.523-7.094c-5.305-10.251-15.648-33.742-2.287-39.222,17.22-7.063,85.43-20.972,100.147-45.176,14.145-23.261,1.612-53.288-17.222-61.828a2.592,2.592,0,0,0-3.393,1.106l-1.569,2.969a2.557,2.557,0,0,1-4.717-.484h0a2.545,2.545,0,0,0-4.6-.66c-4.524,7.242-16.737,18.981-49.4,25.008-46.417,8.567-77.1,27.351-77.868,59.426a2.561,2.561,0,0,1-3.958,2.109c-3.427-2.088-8.911-3.068-16.241,3.095-12.747,10.719-7.531,38.523,20.414,61.4a2.54,2.54,0,0,1-.121,4.095c-5.066,3.3-12.618,11.144,6.951,21.6,20.24,10.82,35.354,9.932,41.174,8.972a2.546,2.546,0,0,0,2.065-3.074l-6.211-28.191a2.556,2.556,0,0,1,2.5-3.106Z" fill="url(#linear-gradient-44)"/>
        <path id="Path_108" data-name="Path 108" d="M1099.727,1721.972s-10.3-39.6-28.052-28.5,9.214,44.374,23.489,45.855Z" fill="url(#linear-gradient-45)"/>
      </g>
      <path id="Path_109" data-name="Path 109" d="M1449.194,1830.791s-13.528-23.984-12.668-35.636-6.4-28.764,1.326-27.5,9.322.233,11.42,14.215S1475.754,1856.926,1449.194,1830.791Z" fill="url(#linear-gradient-46)"/>
      <path id="Path_110" data-name="Path 110" d="M1451.737,1792.658l-.31,47.912c-91.571,98.868-165.688,104.688-225.792,83.441-18.17,29.606-40.358,69.424-50.435,101.866,244.538,53.912,302.123-170.9,302.123-170.9,33.121-13.719,39.8-21.745,38.374-30.735Z" fill="url(#linear-gradient-47)"/>
      <path id="Path_111" data-name="Path 111" d="M1522.16,1745.127c-7.815-3.174-23.109-32.332-26.039-22.739s1.237,22.739,0,26.817-20.3,51.007-16.5,61.433c2.747,7.523,17.886,6.41,20.2,18.717a7.869,7.869,0,0,0,15.644.009C1515.774,1827.726,1529.976,1748.3,1522.16,1745.127Z" fill="url(#linear-gradient-48)"/>
      <g id="Group_32" data-name="Group 32">
        <path id="Path_112" data-name="Path 112" d="M1272.563,1645.338c-61.749,122.128-12.8,271.19,109.328,332.938,99.264,50.188,216.321,27.245,289.827-48.681l424.329,214.541a23.07,23.07,0,0,0,22.215-.768l41.5-24.721a23.187,23.187,0,0,0,2.041-1.384c.184-.138.358-.285.537-.428q.724-.579,1.394-1.2c.151-.143.3-.284.45-.431a22.827,22.827,0,0,0,1.565-1.7l.023-.026a23.067,23.067,0,0,0,3.612-23.191l-33.725-84.535a23.07,23.07,0,0,0-11.018-12.04l-42.5-21.489-11.247,22.246L2034.38,1976l11.247-22.246-34.158-17.27-10.347,20.465-44.375-22.436,10.347-20.465-16.534-8.359-5.326,10.534-37.2-18.808,5.326-10.534-28.933-14.629L1873.18,1894.5l-20.667-10.449,11.248-22.245-17.913-9.056-11.247,22.245-35.821-18.111,11.247-22.246-50.351-25.457h0l-21.562-10.9c17.568-104.208-33.346-212.078-132.613-262.267C1483.372,1474.261,1334.31,1523.209,1272.563,1645.338Zm144.572,16.871a50.176,50.176,0,1,1-67.417,22.138A50.176,50.176,0,0,1,1417.135,1662.209Z" fill="url(#linear-gradient-49)"/>
        <path id="Path_113" data-name="Path 113" d="M1616.51,1720.178l201.155,101.7-11.247,22.245,35.821,18.111,11.248-22.245,17.912,9.057-11.248,22.245,20.667,10.449,11.247-22.246L1921,1874.127l-5.326,10.535,37.2,18.808,5.327-10.534,16.533,8.359-10.347,20.464,44.375,22.436,10.347-20.464,34.158,17.27-11.247,22.246,36.512,18.46,11.247-22.245,42.5,21.488a23.071,23.071,0,0,1,11.018,12.04l33.725,84.535a23.071,23.071,0,0,1-9.622,28.368l-41.5,24.721a23.065,23.065,0,0,1-22.215.768L1591.448,1872.4Z" fill="url(#linear-gradient-50)"/>
        <path id="Path_114" data-name="Path 114" d="M1389.529,1965.523c122.129,61.748,271.191,12.8,332.938-109.329s12.8-271.19-109.328-332.938-271.19-12.8-332.938,109.328S1267.4,1903.774,1389.529,1965.523Zm-10.034-226.512a50.175,50.175,0,1,1,67.418-22.137A50.175,50.175,0,0,1,1379.495,1739.011Z" fill="url(#linear-gradient-51)"/>
        <path id="Path_115" data-name="Path 115" d="M1679.357,1916.842l424.328,214.54a23.065,23.065,0,0,0,22.215-.768l41.5-24.721a23.016,23.016,0,0,0,11.031-16.845c-38.675-41.9-406.291-202.431-420.042-235.47-4.892-11.752-5.73-29.551,8.925-57.154l-21.562-10.9c17.569-104.208-33.346-212.077-132.613-262.266-122.129-61.749-271.19-12.8-332.938,109.328s-12.8,271.19,109.328,332.939C1488.794,2015.711,1605.85,1992.768,1679.357,1916.842Zm-254.583-267.386a50.175,50.175,0,1,1-67.418,22.138A50.178,50.178,0,0,1,1424.774,1649.456Z" fill="url(#linear-gradient-52)"/>
        <path id="Path_116" data-name="Path 116" d="M1411.472,1922.123c98.161,49.629,217.966,10.288,267.6-87.872s10.289-217.965-87.872-267.595-217.966-10.288-267.6,87.871S1313.311,1872.492,1411.472,1922.123Zm-31.977-183.112a50.175,50.175,0,1,1,67.418-22.137A50.175,50.175,0,0,1,1379.495,1739.011Z" fill="url(#linear-gradient-53)"/>
      </g>
      <path id="Path_117" data-name="Path 117" d="M1074.9,2059.561s233.348,78.116,363.873-21.26a37,37,0,0,1,28.353-7.216l49.864,8.124a39.879,39.879,0,0,0,45.379-30.874c2.573-11.818,3.813-24.746,1.191-35.85l-94.134-5.678,2.692-12.215s-41.606,10.178-42.444,42.73c0,0-97.6,63.931-275.6-35.3C1154.07,1962.024,1084.752,2016.271,1074.9,2059.561Z" fill="url(#linear-gradient-54)"/>
    </g>
    <g id="Group_46" data-name="Group 46">
      <g id="Group_39" data-name="Group 39">
        <g id="Group_34" data-name="Group 34" opacity="0.3">
          <path id="Path_118" data-name="Path 118" d="M2877.242,889.663a9.846,9.846,0,0,1-9.435-10.242c.432-10.555.414-21.286-.057-31.9a9.844,9.844,0,0,1,9.208-10.261l.192-.012a9.846,9.846,0,0,1,10.271,9.4c.5,11.167.517,22.464.06,33.576a9.845,9.845,0,0,1-9.2,9.42A9.449,9.449,0,0,1,2877.242,889.663Zm-15.327-93.621c-1.911-10.442-4.287-20.9-7.065-31.093a9.845,9.845,0,1,1,19-5.175c2.923,10.724,5.426,21.733,7.439,32.718a9.847,9.847,0,0,1-19.371,3.55Zm-24.126-79.987c-4.177-9.727-8.827-19.39-13.826-28.726a9.846,9.846,0,0,1,17.36-9.294c5.264,9.831,10.162,20.01,14.558,30.251a9.845,9.845,0,1,1-18.092,7.769Zm-41.411-72.582c-6.252-8.559-12.95-16.943-19.9-24.926a9.846,9.846,0,1,1,14.848-12.934c7.321,8.406,14.371,17.234,20.954,26.238a9.847,9.847,0,0,1-15.9,11.622Zm-56.548-61.547c-7.978-6.939-16.367-13.636-24.934-19.9a9.845,9.845,0,1,1,11.623-15.894c9.012,6.588,17.839,13.635,26.233,20.936a9.845,9.845,0,1,1-12.922,14.856Zm-68.757-47.5c-9.328-5.011-18.987-9.681-28.71-13.884a9.846,9.846,0,0,1,7.812-18.076c10.233,4.421,20.4,9.341,30.217,14.613a9.846,9.846,0,0,1-9.319,17.347ZM2305.5,529.841a9.845,9.845,0,0,1,4.054-13.321c9.829-5.241,20.022-10.123,30.291-14.509a9.845,9.845,0,0,1,7.735,18.107c-9.751,4.164-19.428,8.8-28.761,13.779a9.837,9.837,0,0,1-13.319-4.056Zm288.048-26.476c-10.2-2.809-20.652-5.21-31.059-7.131a9.846,9.846,0,1,1,3.578-19.364c10.959,2.025,21.963,4.552,32.708,7.512a9.845,9.845,0,1,1-5.227,18.983Zm-209.1-7.152a9.847,9.847,0,0,1,6.935-12.074c10.751-2.906,21.772-5.386,32.751-7.377a9.846,9.846,0,1,1,3.511,19.376c-10.435,1.892-20.908,4.248-31.125,7.012a9.955,9.955,0,0,1-1.955.321A9.847,9.847,0,0,1,2384.441,496.213Zm126.593-5.8c-10.568-.455-21.295-.46-31.885-.011a9.844,9.844,0,0,1-1.046-19.66c.07,0,.141-.009.21-.009,11.149-.477,22.442-.473,33.565,0a9.846,9.846,0,0,1,.213,19.663C2511.744,490.422,2511.39,490.425,2511.034,490.413Z" fill="#a85e97"/>
          <path id="Path_119" data-name="Path 119" d="M2257,572.953a9.792,9.792,0,0,0,5.488-2.113c3.975-3.158,8.083-6.282,12.208-9.3a9.844,9.844,0,1,0-11.607-15.9c-4.34,3.166-8.659,6.453-12.844,9.775A9.846,9.846,0,0,0,2257,572.953Z" fill="#a85e97"/>
        </g>
        <g id="Group_35" data-name="Group 35" opacity="0.3">
          <path id="Path_120" data-name="Path 120" d="M2113.47,836.577a9.849,9.849,0,0,0,9.166-8.886c.483-5.052,1.081-10.181,1.777-15.238a9.846,9.846,0,1,0-19.508-2.685c-.731,5.326-1.362,10.726-1.872,16.046a9.845,9.845,0,0,0,10.437,10.763Z" fill="#a85e97"/>
          <path id="Path_121" data-name="Path 121" d="M2499.683,1256.888a9.846,9.846,0,0,1-.283-19.689c10.351-.148,20.857-.742,31.345-1.762a9.847,9.847,0,0,1,1.907,19.6q-6.816.664-13.6,1.1C2512.6,1256.542,2506.086,1256.8,2499.683,1256.888Zm74.046-17.968a9.845,9.845,0,0,1,7.31-11.847c10.157-2.41,20.323-5.271,30.213-8.511a9.844,9.844,0,1,1,6.132,18.709c-10.414,3.412-21.114,6.427-31.8,8.959a10,10,0,0,1-1.659.248A9.849,9.849,0,0,1,2573.729,1238.92Zm-127.618,15.064c-10.871-1.341-21.835-3.165-32.586-5.427a9.846,9.846,0,1,1,4.053-19.271c10.21,2.15,20.619,3.883,30.942,5.154a9.846,9.846,0,0,1-.569,19.6A9.974,9.974,0,0,1,2446.111,1253.984Zm207.842-41.412a9.844,9.844,0,0,1,4.528-13.166c9.367-4.572,18.649-9.6,27.59-14.942a9.845,9.845,0,0,1,10.1,16.9c-9.416,5.627-19.192,10.922-29.054,15.736a9.828,9.828,0,0,1-13.166-4.528Zm-292.008,21.371c-10.3-3.7-20.593-7.888-30.585-12.456a9.844,9.844,0,1,1,8.185-17.906c9.492,4.337,19.265,8.318,29.05,11.828a9.845,9.845,0,1,1-6.65,18.534Zm-77.731-38.014c-9.269-5.874-18.4-12.208-27.133-18.825a9.845,9.845,0,1,1,11.89-15.695c8.3,6.286,16.976,12.306,25.783,17.889a9.845,9.845,0,1,1-10.54,16.631Zm-67.6-54.052c-7.773-7.758-15.306-15.931-22.387-24.286a9.846,9.846,0,1,1,15.022-12.731c6.728,7.943,13.885,15.7,21.274,23.078a9.846,9.846,0,0,1-13.909,13.939Zm-54.2-67.512c-5.889-9.268-11.45-18.9-16.527-28.616a9.844,9.844,0,1,1,17.452-9.115c4.82,9.227,10.1,18.368,15.7,27.173a9.845,9.845,0,0,1-16.621,10.558Zm-38.061-77.812c-3.693-10.312-6.992-20.92-9.808-31.531a9.846,9.846,0,0,1,19.032-5.054c2.674,10.08,5.809,20.155,9.315,29.952a9.845,9.845,0,1,1-18.539,6.633Zm-20.025-84.182c-1-8.009-1.768-16.15-2.279-24.19q-.277-4.371-.457-8.719a9.735,9.735,0,0,1,9.427-10.244,9.844,9.844,0,0,1,10.247,9.427q.174,4.133.434,8.288c.486,7.646,1.213,15.38,2.165,23a9.843,9.843,0,0,1-8.547,10.989c-.2.025-.406.046-.607.058A9.845,9.845,0,0,1,2104.325,912.371Z" fill="#a85e97"/>
          <path id="Path_122" data-name="Path 122" d="M2734.909,1172.724a9.805,9.805,0,0,0,5.529-2.143c4.158-3.335,8.325-6.821,12.383-10.361a9.845,9.845,0,1,0-12.942-14.84c-3.856,3.362-7.813,6.673-11.76,9.841a9.844,9.844,0,0,0,6.79,17.5Z" fill="#a85e97"/>
        </g>
        <g id="Group_38" data-name="Group 38">
          <path id="Path_123" data-name="Path 123" d="M2753.508,1004.966a4.6,4.6,0,0,0,.008-5.343l-32.435-45.657A243.977,243.977,0,0,0,2739,876.983l49.214-26.656a4.6,4.6,0,0,0,2.348-4.8l-10.991-66.272a4.6,4.6,0,0,0-3.77-3.784l-55.185-9.343a243.969,243.969,0,0,0-41.81-67.079l15.961-53.682a4.6,4.6,0,0,0-1.734-5.053L2638.4,601.223a4.6,4.6,0,0,0-5.342-.009L2587.4,633.65a243.911,243.911,0,0,0-76.983-17.92l-26.656-49.214a4.6,4.6,0,0,0-4.8-2.348l-66.274,10.99a4.6,4.6,0,0,0-3.783,3.771l-9.344,55.185a243.9,243.9,0,0,0-67.077,41.811L2278.8,659.963a4.6,4.6,0,0,0-5.053,1.733l-39.091,54.633a4.6,4.6,0,0,0-.01,5.342l32.436,45.658a243.924,243.924,0,0,0-17.919,76.983l-49.214,26.656a4.6,4.6,0,0,0-2.349,4.8l10.991,66.274a4.6,4.6,0,0,0,3.771,3.784l55.185,9.343a243.974,243.974,0,0,0,41.81,67.079l-15.961,53.682a4.6,4.6,0,0,0,1.733,5.054l54.633,39.09a4.6,4.6,0,0,0,5.342.009l45.658-32.436a243.929,243.929,0,0,0,76.983,17.92l26.656,49.215a4.6,4.6,0,0,0,4.8,2.347l66.273-10.991a4.6,4.6,0,0,0,3.784-3.771l9.343-55.184a243.97,243.97,0,0,0,67.078-41.81l53.683,15.961a4.6,4.6,0,0,0,5.053-1.733Z" fill="#a85e97"/>
          <g id="Group_36" data-name="Group 36">
            <path id="Path_124" data-name="Path 124" d="M2488.489,927.941a67.487,67.487,0,1,1,9.916.1A67.6,67.6,0,0,1,2488.489,927.941Zm-27.856-106.81a51.773,51.773,0,1,0,37.74-12.08,52.543,52.543,0,0,0-7.679-.075A51.393,51.393,0,0,0,2460.633,821.131Z" fill="#a03c84"/>
          </g>
          <g id="Group_37" data-name="Group 37">
            <path id="Path_125" data-name="Path 125" d="M2503.205,1025.462a169.2,169.2,0,0,0,16.952-1.939h0q2.67-.441,5.324-.97a167.159,167.159,0,0,0,25.585-7.247l.339-.125c.32-.12.639-.241.959-.365.623-.237,1.243-.48,1.862-.724a3.938,3.938,0,1,0-2.9-7.323A158.338,158.338,0,0,1,2375.2,965.2a157.188,157.188,0,0,1-38.232-79.6,160.639,160.639,0,0,1-1.851-16.171,158.2,158.2,0,0,1,132-165.732c86.074-14.265,167.639,44.123,181.905,130.153a158.227,158.227,0,0,1-8.824,83.786,3.938,3.938,0,1,0,7.327,2.888,166.13,166.13,0,0,0,9.269-87.96c-14.978-90.326-100.672-151.611-190.964-136.639a166.081,166.081,0,0,0-138.579,173.987,169.534,169.534,0,0,0,1.942,16.975,166.071,166.071,0,0,0,174.012,138.578Z" fill="#a03c84"/>
          </g>
        </g>
      </g>
      <g id="Group_45" data-name="Group 45">
        <g id="Group_40" data-name="Group 40">
          <path id="Path_126" data-name="Path 126" d="M3230.018,1127.3a6.077,6.077,0,0,0,5.543-4.731c1.138-5.035,2.139-10.174,2.973-15.273a6.081,6.081,0,0,0-12-1.963c-.795,4.858-1.749,9.756-2.834,14.562a6.084,6.084,0,0,0,4.592,7.271A6.161,6.161,0,0,0,3230.018,1127.3Z" fill="#a85e97"/>
          <path id="Path_127" data-name="Path 127" d="M3235.467,1080.931a6.083,6.083,0,0,1-5.842-6.312,252.417,252.417,0,0,0-.322-25.512q-.17-2.675-.4-5.366a6.084,6.084,0,0,1,5.548-6.57,6.3,6.3,0,0,1,6.573,5.551q.237,2.815.417,5.615a263.985,263.985,0,0,1,.334,26.749,6.079,6.079,0,0,1-5.683,5.835C3235.887,1080.934,3235.679,1080.935,3235.467,1080.931Zm-11.035-67.746a252.075,252.075,0,0,0-8.165-29.775,6.081,6.081,0,1,1,11.508-3.932,263.521,263.521,0,0,1,8.56,31.214,6.081,6.081,0,0,1-11.9,2.493Zm-19.955-58.32A249.806,249.806,0,0,0,3189.241,928a6.081,6.081,0,0,1,10.187-6.644,262.345,262.345,0,0,1,15.98,28.172,6.082,6.082,0,0,1-10.931,5.335ZM3170.8,903.23a250.784,250.784,0,0,0-21.341-22.31,6.082,6.082,0,0,1,8.252-8.937,263.738,263.738,0,0,1,22.379,23.4,6.081,6.081,0,0,1-9.29,7.849Zm-45.261-41.85a253.531,253.531,0,0,0-26.119-16.461,6.081,6.081,0,0,1,5.845-10.665,266.231,266.231,0,0,1,27.377,17.25,6.083,6.083,0,0,1-7.1,9.876Zm-54.047-29.594a249.481,249.481,0,0,0-29.319-9.581,6.081,6.081,0,0,1,3.055-11.773,261.677,261.677,0,0,1,30.753,10.05,6.081,6.081,0,0,1-4.489,11.3Zm-59.619-15.471a250.122,250.122,0,0,0-30.8-2.091,6.084,6.084,0,0,1,.078-12.167,263.585,263.585,0,0,1,32.3,2.2,6.081,6.081,0,1,1-1.573,12.059Zm-99.379.62a6.078,6.078,0,0,1,4.467-7.347,264.681,264.681,0,0,1,27.64-5.188c1.413-.2,2.821-.369,4.232-.536a6.083,6.083,0,0,1,1.4,12.085c-1.324.15-2.649.318-4,.505a252.06,252.06,0,0,0-26.394,4.948,6.074,6.074,0,0,1-7.347-4.467Z" fill="#a85e97"/>
        </g>
        <g id="Group_41" data-name="Group 41" opacity="0.3">
          <path id="Path_128" data-name="Path 128" d="M2992.3,1327.047a264.862,264.862,0,0,1-31.831-.318,6.082,6.082,0,1,1,.861-12.134,251.364,251.364,0,0,0,30.359.305,6.081,6.081,0,0,1,.694,12.142Zm24.634-8.478a6.078,6.078,0,0,1,4.961-7.021,254.291,254.291,0,0,0,29.581-6.941,6.083,6.083,0,0,1,3.483,11.656,265.9,265.9,0,0,1-31,7.269,6.147,6.147,0,0,1-.655.078A6.081,6.081,0,0,1,3016.93,1318.569Zm-88.044,3.97a263.71,263.71,0,0,1-30.819-8,6.083,6.083,0,0,1,3.764-11.568,252.274,252.274,0,0,0,29.4,7.643,6.079,6.079,0,1,1-2.342,11.93Zm147.969-20.388a6.083,6.083,0,0,1,3.127-8.011,249.857,249.857,0,0,0,27.024-13.872,6.08,6.08,0,1,1,6.2,10.459,260.667,260.667,0,0,1-28.344,14.551,6.083,6.083,0,0,1-8.011-3.127Zm-208.389.7a264.49,264.49,0,0,1-27.984-15.182,6.083,6.083,0,0,1,6.438-10.322,250.267,250.267,0,0,0,26.689,14.479,6.083,6.083,0,0,1-5.143,11.025Zm-53.94-33.617a265.859,265.859,0,0,1-23.547-21.438,6.08,6.08,0,0,1,8.715-8.479,254.164,254.164,0,0,0,22.466,20.448,6.082,6.082,0,0,1-7.634,9.469Zm-44.342-45.568a262.943,262.943,0,0,1-17.723-26.472,6.082,6.082,0,0,1,10.5-6.141,248.678,248.678,0,0,0,16.9,25.24,6.079,6.079,0,0,1-1.155,8.522,6.011,6.011,0,0,1-3.293,1.232A6.078,6.078,0,0,1,2770.184,1223.662Z" fill="#a85e97"/>
          <path id="Path_129" data-name="Path 129" d="M3136.47,1273.923a6.047,6.047,0,0,0,3.33-1.259c4.118-3.183,8.158-6.5,12.015-9.866a6.082,6.082,0,0,0-8-9.168c-3.676,3.209-7.533,6.375-11.46,9.415a6.081,6.081,0,0,0,4.111,10.878Z" fill="#91b3fa"/>
        </g>
        <g id="Group_44" data-name="Group 44">
          <path id="Path_130" data-name="Path 130" d="M3152.607,1159.287a3.079,3.079,0,0,0,.006-3.575l-21.7-30.552a163.223,163.223,0,0,0,11.99-51.513l32.933-17.837a3.081,3.081,0,0,0,1.571-3.212l-7.355-44.346a3.078,3.078,0,0,0-2.523-2.532l-36.927-6.252a163.231,163.231,0,0,0-27.977-44.886l10.68-35.922a3.079,3.079,0,0,0-1.16-3.381l-36.558-26.158a3.08,3.08,0,0,0-3.575-.006l-30.551,21.7a163.239,163.239,0,0,0-51.514-11.991L2972.106,865.9a3.079,3.079,0,0,0-3.211-1.571l-44.347,7.354a3.08,3.08,0,0,0-2.532,2.524l-6.252,36.928a163.191,163.191,0,0,0-44.885,27.977l-35.923-10.681a3.078,3.078,0,0,0-3.381,1.16l-26.158,36.558a3.08,3.08,0,0,0-.006,3.574l21.705,30.553a163.2,163.2,0,0,0-11.991,51.513l-32.932,17.837a3.077,3.077,0,0,0-1.571,3.211l7.354,44.348a3.078,3.078,0,0,0,2.523,2.531l36.927,6.252a163.251,163.251,0,0,0,27.978,44.886l-10.681,35.921a3.082,3.082,0,0,0,1.16,3.382l36.558,26.158a3.082,3.082,0,0,0,3.575.006l30.552-21.7a163.252,163.252,0,0,0,51.513,11.991l17.837,32.932a3.083,3.083,0,0,0,3.212,1.571l44.346-7.355a3.078,3.078,0,0,0,2.532-2.524l6.252-36.926a163.251,163.251,0,0,0,44.886-27.978l35.922,10.681a3.078,3.078,0,0,0,3.381-1.16Z" fill="#a85e97"/>
          <g id="Group_42" data-name="Group 42">
            <path id="Path_131" data-name="Path 131" d="M2975.205,1108.554a45.845,45.845,0,1,1,6.818.067A46.924,46.924,0,0,1,2975.205,1108.554Zm-29.912-48.644a33.833,33.833,0,0,0,30.916,36.525h0a33.836,33.836,0,0,0,5.609-67.44,34.405,34.405,0,0,0-4.969-.048A33.891,33.891,0,0,0,2945.293,1059.91Z" fill="#a03c84"/>
          </g>
          <g id="Group_43" data-name="Group 43">
            <path id="Path_132" data-name="Path 132" d="M2985.452,1176.427q5.76-.365,11.572-1.323a115.227,115.227,0,0,0,22.523-6.125l.975-.383a6.08,6.08,0,1,0-4.472-11.308,102.668,102.668,0,0,1-21.01,5.815h0c-.4.067-.792.127-1.184.188a101.388,101.388,0,0,1-49.924-4.691,102.959,102.959,0,0,1-24.47-12.7l-.187-.131c-.19-.137-.38-.268-.567-.4a101.724,101.724,0,0,1-41.429-66.519,103.629,103.629,0,0,1-1.2-10.468,102.4,102.4,0,1,1,197.505,31.2,6.08,6.08,0,0,0,3.424,7.887,6.085,6.085,0,0,0,7.89-3.428,114.268,114.268,0,0,0,7.718-49.122,115.769,115.769,0,0,0-1.32-11.561,114.559,114.559,0,0,0-227.356,25.767,117.227,117.227,0,0,0,1.338,11.708A114.719,114.719,0,0,0,2985.452,1176.427Z" fill="#a03c84"/>
          </g>
        </g>
      </g>
    </g>
  </g>
</svg>
