<svg xmlns="http://www.w3.org/2000/svg" width="39.824" height="40" viewBox="0 0 39.824 40">
  <g id="new-request-icon" transform="translate(800.053 -1085.997)">
    <path id="Path_68703" data-name="Path 68703" d="M-682.831,1126h-18.828c.081-.065.16-.133.243-.2a12.734,12.734,0,0,0,4.748-6.915c.2-.732.316-1.491.476-2.264h.416q4.589,0,9.179,0a1.277,1.277,0,0,0,1.025-.381,1.1,1.1,0,0,0,.213-1.267,1.171,1.171,0,0,0-1.162-.7q-4.628,0-9.257,0h-.466a13.383,13.383,0,0,0-1.344-4.687h4.906c2.044,0,4.088,0,6.132,0a1.19,1.19,0,0,0,1.2-.71,1.171,1.171,0,0,0-1.175-1.634c-4.036,0-8.072-.008-12.108.009a1.038,1.038,0,0,1-.855-.4,12.541,12.541,0,0,0-8.4-4.224c-.769-.069-1.55-.01-2.359-.01v-.44q0-6.23,0-12.459a3.52,3.52,0,0,1,3.716-3.728q8.085,0,16.17,0h.426v.486q0,4.14,0,8.28a1.213,1.213,0,0,0,1.383,1.389h8.773v12.84q0,6.7,0,13.4a3.509,3.509,0,0,1-2.339,3.4C-682.356,1125.872-682.6,1125.928-682.831,1126Zm-12.227-23.437h.507q4,0,8,0a1.19,1.19,0,0,0,1.195-.711,1.171,1.171,0,0,0-1.174-1.634q-6.576,0-13.153,0h-3.864a1.153,1.153,0,0,0-1.109.656,1.166,1.166,0,0,0,1.128,1.685Q-699.293,1102.565-695.058,1102.559Z" transform="translate(-80.446)" fill="#fff"/>
    <path id="Path_68704" data-name="Path 68704" d="M-790.386,1288.456a19.619,19.619,0,0,1-2.681-.637,10.141,10.141,0,0,1-6.918-8.789,10.463,10.463,0,0,1,8.96-11.564,10.577,10.577,0,0,1,11.893,8.69,10.548,10.548,0,0,1-8.925,12.2c-.2.031-.407.067-.611.1Zm-.324-9.411c.007.2.015.331.015.458q0,1.64,0,3.28a1.172,1.172,0,0,0,.561,1.089,1.166,1.166,0,0,0,1.782-1.046c.017-1.106,0-2.212.006-3.319,0-.137.009-.274.014-.428,1.255,0,2.465,0,3.674,0a1.181,1.181,0,0,0,1.094-.553,1.166,1.166,0,0,0-1.031-1.79c-.963-.019-1.926-.012-2.889,0-.281,0-.562.054-.879.086.005-1.353.016-2.563.012-3.772a1.179,1.179,0,0,0-1.171-1.285,1.181,1.181,0,0,0-1.172,1.285c-.006,1.054-.007,2.108,0,3.162a2.38,2.38,0,0,0,.118.5c-.3.008-.428.014-.556.014-1.067,0-2.134,0-3.2,0a1.194,1.194,0,0,0-1.334,1.162,1.2,1.2,0,0,0,1.353,1.183c.755,0,1.51,0,2.264,0C-791.606,1279.076-791.167,1279.057-790.709,1279.044Z" transform="translate(0 -162.459)" fill="#fff"/>
    <path id="Path_68705" data-name="Path 68705" d="M-492.482,1093.505l6.994,7h-6.994Z" transform="translate(-275.533 -6.726)" fill="#fff"/>
  </g>
</svg>
