<svg xmlns="http://www.w3.org/2000/svg" width="619.59" height="586.238" viewBox="0 0 619.59 586.238">
  <g id="otp-image" transform="translate(-277.324 -230)">
    <g id="Group_178" data-name="Group 178" transform="translate(278 230)">
      <path id="Path_31" data-name="Path 31" d="M169.706,97.6h3.913a14.9,14.9,0,0,0,14.9,14.9v3.913a14.9,14.9,0,0,0-14.9,14.9h-3.913a14.9,14.9,0,0,0-14.9-14.9v-3.913A14.9,14.9,0,0,0,169.706,97.6Z" transform="translate(-127.953 -53.581)" fill="#1a1a1a"/>
      <path id="Path_32" data-name="Path 32" d="M154.855,73.775h1.73a14.9,14.9,0,0,0,14.9,14.9v1.729a14.9,14.9,0,0,0-14.9,14.9h-1.73a14.9,14.9,0,0,0-14.9-14.9V88.678A14.9,14.9,0,0,0,154.855,73.775Z" transform="translate(-139.954 -72.838)" fill="none" stroke="#1a1a1a" stroke-miterlimit="10" stroke-width="0.5"/>
      <path id="Path_33" data-name="Path 33" d="M181.711,73.257h0a14.9,14.9,0,0,0,14.9,14.9h0a14.9,14.9,0,0,0-14.9,14.9h0a14.9,14.9,0,0,0-14.9-14.9h0A14.9,14.9,0,0,0,181.711,73.257Z" transform="translate(-118.249 -73.257)" fill="#920061"/>
    </g>
    <rect id="Rectangle_67" data-name="Rectangle 67" width="452.445" height="331.199" rx="5" transform="translate(362 276)" fill="#fff"/>
    <path id="Rectangle_68" data-name="Rectangle 68" d="M5,0H447.445a5,5,0,0,1,5,5v7.744a0,0,0,0,1,0,0H0a0,0,0,0,1,0,0V5A5,5,0,0,1,5,0Z" transform="translate(361.712 276)" fill="#1a1a1a"/>
    <path id="Path_191" data-name="Path 191" d="M94.444,60.842a2.567,2.567,0,1,1-2.567-2.568A2.567,2.567,0,0,1,94.444,60.842Z" transform="translate(279.559 221.53)" fill="#d47172"/>
    <ellipse id="Ellipse_16" data-name="Ellipse 16" cx="2.567" cy="2.567" rx="2.567" ry="2.567" transform="translate(379.352 279.805)" fill="#7696ea"/>
    <ellipse id="Ellipse_17" data-name="Ellipse 17" cx="2.567" cy="2.567" rx="2.567" ry="2.567" transform="translate(389.835 279.805)" fill="#9dd1c9"/>
    <g id="Group_300" data-name="Group 300" transform="translate(-0.085 6.5)">
      <path id="Path_18" data-name="Path 18" d="M82.362,121.4,67.747,137.65a8.481,8.481,0,0,0-1.187,4.342v85.552a8.512,8.512,0,0,0,8.511,8.513l81.07-.3c1.062.067,5.242.2,7.231-1.789,3.73-3.73,17.758-18.358,17.758-18.358" transform="translate(464.525 211.583)" fill="none" stroke="#1a1a1a" stroke-miterlimit="10" stroke-width="0.5"/>
      <rect id="Rectangle_15" data-name="Rectangle 15" width="100.192" height="102.578" rx="4.79" transform="translate(545.5 329.5)" fill="none" stroke="#1a1a1a" stroke-miterlimit="10" stroke-width="0.5"/>
      <line id="Line_6" data-name="Line 6" x1="13.748" y2="14.714" transform="translate(533.072 429.744)" fill="none" stroke="#1a1a1a" stroke-miterlimit="10" stroke-width="0.5"/>
      <g id="Group_298" data-name="Group 298" transform="translate(-298.166 5.111)">
        <path id="Path_414" data-name="Path 414" d="M440.574,64.665s-3.746,30-9.9,36.747c-7.392,8.1-12.757,6.914-15.741,11.088a.006.006,0,0,0-.006.006c-2.984-4.181-8.35-2.99-15.748-11.095-6.158-6.75-9.9-36.747-9.9-36.747,16.226-7.877,25.646-16.7,25.646-16.7l.006.007C415.218,48.237,424.6,56.914,440.574,64.665Z" transform="translate(478.89 295.929)" fill="#920061"/>
        <path id="Path_416" data-name="Path 416" d="M396.255,70.856s3.164,25.34,8.366,31.044c6.25,6.85,10.785,5.844,13.307,9.372,2.522-3.528,7.056-2.522,13.307-9.372,5.2-5.7,8.36-31.044,8.36-31.044a95.11,95.11,0,0,1-21.666-14.113A95.255,95.255,0,0,1,396.255,70.856Z" transform="translate(475.891 292.154)" fill="#fff"/>
        <path id="Path_418" data-name="Path 418" d="M436.73,96.982a10.048,10.048,0,1,1-10.049-10.049A10.049,10.049,0,0,1,436.73,96.982Z" transform="translate(467.134 279.181)" fill="#920061"/>
        <path id="Path_419" data-name="Path 419" d="M428.873,107.077l-4.475-4.654,1.661-1.6,2.467,2.565,5.318-8.158,1.93,1.258Z" transform="translate(463.797 275.614)" fill="#fff"/>
      </g>
    </g>
    <path id="Path_315" data-name="Path 315" d="M426.443,320.675h3.208a21.282,21.282,0,0,0,21.283,21.28v3.208a21.282,21.282,0,0,0-21.283,21.28h-3.208a21.28,21.28,0,0,0-21.28-21.28v-3.208A21.28,21.28,0,0,0,426.443,320.675Z" transform="translate(445.98 204.325)" fill="#920061"/>
    <g id="Group_1414" data-name="Group 1414" transform="translate(277.324 374)">
      <g id="man">
        <path id="Path_2089" data-name="Path 2089" d="M3553.991,1103.787c-1.865,5.014-5.1,10.833-8.489,12.28a13.139,13.139,0,0,0-5.45,3.958l-3.105-1.8-3.709-2.156s.088-.411.269-1.083.458-1.6.833-2.629a3.589,3.589,0,0,0,.441-3.3,7.661,7.661,0,0,1,.632-6.4c1.19-1.728,2.338-5.988,3.054-5.861,1.735.3-.853,6.153-.11,7.238a1.281,1.281,0,0,0,1.667.571l.029-.016c4.866-2.139,10.767-13.673,13.38-12.117C3554.409,1093.052,3554.786,1101.652,3553.991,1103.787Z" transform="translate(-3317.717 -1004.595)" fill="#ffb27d"/>
        <g id="Group_1411" data-name="Group 1411" transform="translate(219.035 82.218)">
          <path id="Path_2090" data-name="Path 2090" d="M3541.3,1104.277l6.1,4.284a.96.96,0,0,0,1.333-.233l15.615-22.218a.96.96,0,0,0-.233-1.333l-6.1-4.283a.96.96,0,0,0-1.333.233l-15.615,22.218A.96.96,0,0,0,3541.3,1104.277Z" transform="translate(-3540.892 -1080.32)" fill="#1a1a1a"/>
          <path id="Path_2091" data-name="Path 2091" d="M3553.567,1112.868l3.573,2.511a.731.731,0,0,0,1.015-.177l15.878-22.592a.731.731,0,0,0-.177-1.015l-3.573-2.511a.73.73,0,0,0-1.015.177l-15.877,22.592A.73.73,0,0,0,3553.567,1112.868Z" transform="translate(-3547.581 -1084.989)" fill="#2b2b2b"/>
        </g>
        <path id="Path_2092" data-name="Path 2092" d="M3331.427,1063.059s31.016,54.1,42.268,64.051l41.259-30.76a15.056,15.056,0,0,1,8.608,7.846s-25.054,51.045-49.723,53.209-59.291-61.183-59.291-61.183Z" transform="translate(-3199.431 -988.766)" fill="#7b0051"/>
        <g id="Group_1412" data-name="Group 1412" transform="translate(30.058 199.308)">
          <path id="Path_2093" data-name="Path 2093" d="M3161.03,1821.628h-17.921c-2.257-1.225-4.266-4.03-4.9-8.211-.876-5.774-7.346-8.921-8.747-13.645s5.773-11.366,5.773-11.366l1.2-1.546,1.248-1.6,11.894,2.8s.295,2.833.473,6.442a82.223,82.223,0,0,1,.052,8.25c-.35,6.3,1.761,13.078,7.356,14.3C3161.594,1817.955,3161.409,1820.409,3161.03,1821.628Z" transform="translate(-3129.281 -1578.698)" fill="#1a1a1a"/>
          <path id="Path_2094" data-name="Path 2094" d="M3375.121,1839.789h-40.983c-1.971-2.405-1.245-11.281-.947-14.179.061-.584.1-.924.1-.924s14-11.194,15.917-2.622c.058.269.13.531.208.791,2.421,8.017,13.285,11.661,19.558,12.675C3373.056,1836.191,3374.563,1838.311,3375.121,1839.789Z" transform="translate(-3239.367 -1596.859)" fill="#1a1a1a"/>
          <path id="Path_2095" data-name="Path 2095" d="M3338.007,1361.883s-2.125,26.513-4.623,58.384c-3.4,43.293-7.478,96.472-7.881,106.546-.7,17.494-3.5,45.476-3.5,45.476s-6.643,6.648-19.939,3.846c0,0-11.847-39.946-15.232-82.21-.052-.693-.1-1.391-.157-2.088-3.148-43.026-8.044-133.626-8.044-133.626Z" transform="translate(-3210.062 -1347.716)" fill="#fcb200"/>
          <path id="Path_2096" data-name="Path 2096" d="M3338.007,1361.883s-2.125,26.513-4.623,58.384l-46.552,73.658c-.052-.693-.1-1.391-.157-2.088-3.148-43.026-8.044-133.626-8.044-133.626Z" transform="translate(-3210.062 -1347.716)" fill="#f0aa01"/>
          <path id="Path_2097" data-name="Path 2097" d="M3254.535,1352.668s-38.3,96.021-63.49,141.146-33.056,57.717-33.056,57.717-14.429-5.772-15.741-9.707c0,0,9.631-87.115,26.5-108.351,9.531-12,20.726-48.01,21.25-60.6s3.411-37.516,3.411-37.516Z" transform="translate(-3136.295 -1335.353)" fill="#fcb200"/>
        </g>
        <path id="Path_2098" data-name="Path 2098" d="M3317.906,1021.155c-14.967,4.723-40.866-8.023-40.866-8.023s13.8-10.358,13.077-31.893l11.573,9.326,7.861,6.335a94.335,94.335,0,0,1-.891,10.28c-.227,1.721-.509,3.64-.866,5.738A35.814,35.814,0,0,1,3317.906,1021.155Z" transform="translate(-3179.143 -944.511)" fill="#ffb27d"/>
        <path id="Path_2099" data-name="Path 2099" d="M3324.9,1007.623a94.2,94.2,0,0,1-.892,10.28c-8.711-1.494-18.592-15.574-18.592-15.574a27.753,27.753,0,0,1,11.622-1.041Z" transform="translate(-3194.492 -955.233)" fill="#ed975d"/>
        <path id="Path_2100" data-name="Path 2100" d="M3322.986,966.391s-24.723,4.107-27.044-11.329-7.075-25.3,8.612-28.576,19.647,2.153,21.675,7.116S3329.357,964.925,3322.986,966.391Z" transform="translate(-3187.999 -914.357)" fill="#ffb27d"/>
        <path id="Path_2101" data-name="Path 2101" d="M3322.721,1190.749a2.421,2.421,0,0,1-1.573.6c-5.621-.077-22.011,3.045-35.88,1.621-11.692-1.123-22.041-4.586-33.153-9.567-1.476-.662-4.873-2.475-4.8-4.124.05-1.806.229-4.426.454-7.725.787-11.47,2.158-31.2.821-53.963-.241-4.239-.366-8.443-.382-12.582-.115-30.849,6-57.983,18.294-67.166,1.05-.752,7.5,2.4,13.418,5.319a24.512,24.512,0,0,0,16.114,1.951l5.17,4.57c6.3,5.846,13.193,13.793,16.19,25.859,2.551,10.268,4.048,28.783,4.873,47.971.374,8.695.676,17.465.752,25.786v.3c.073.825.073,1.726.073,2.551C3323.4,1173.509,3323.1,1190.447,3322.721,1190.749Z" transform="translate(-3163.066 -975.066)" fill="#920061"/>
        <path id="Path_2102" data-name="Path 2102" d="M3248.309,1225.569c.786-11.471,2.157-31.2.821-53.963-.24-4.239-.366-8.443-.382-12.582,5.12-12.421,9.305-21.429,9.305-21.429h12.906S3280.422,1202.227,3248.309,1225.569Z" transform="translate(-3163.603 -1029.082)" fill="#7b0051"/>
        <g id="Group_1413" data-name="Group 1413" transform="translate(0 212.547)">
          <path id="Path_2103" data-name="Path 2103" d="M3091,1429.806l55.045,7.844a13.2,13.2,0,0,0,14.882-11.169l3.4-23.854a13.2,13.2,0,0,0-11.169-14.881l-55.044-7.844a13.2,13.2,0,0,0-14.881,11.169l-3.4,23.854A13.2,13.2,0,0,0,3091,1429.806Z" transform="translate(-3072.403 -1372.617)" fill="#1a1a1a"/>
          <path id="Path_2104" data-name="Path 2104" d="M3147.669,1386.43v0a13.254,13.254,0,0,0-9.119-7.965h0a.014.014,0,0,1-.01,0c-.415-.1-.837-.186-1.271-.247l-10.96-1.559.733-5.148a4.36,4.36,0,0,0-3.7-4.927l-2.859-.409-11.509-1.641-2.075-.3a4.362,4.362,0,0,0-4.927,3.7l-.733,5.148-18.919-2.7a13.248,13.248,0,0,0-14.938,11.21l-3.436,24.132a13.243,13.243,0,0,0,11.21,14.935l54.945,7.833a12.917,12.917,0,0,0,2.866.09h.01a12.994,12.994,0,0,0,4.289-1.083,13.23,13.23,0,0,0,7.774-10.222l3.44-24.128A13.087,13.087,0,0,0,3147.669,1386.43Zm-43-18.112a1.631,1.631,0,0,1,1.352-1.375,1.664,1.664,0,0,1,.49-.006l2.444.347,9.058,1.293,4.937.7a1.629,1.629,0,0,1,1.381,1.838l-.733,5.148-19.662-2.8Z" transform="translate(-3063.811 -1364.189)" fill="#2b2b2b"/>
        </g>
        <path id="Path_2105" data-name="Path 2105" d="M3175.792,1329.615s-2.891,3.851-3.005,5.389c-.777,10.428,3.988,11.871-8.349,17.663,0,0-5.267,2.009-5.356-2.08s3.655-4.155,2.971-9.88c-.79-6.6-.71-6.664,3.623-10.112l2.87-4.743Z" transform="translate(-3115.34 -1130.907)" fill="#ffb27d"/>
        <path id="Path_2106" data-name="Path 2106" d="M3171.942,1179.276a42.307,42.307,0,0,0,9.686.539s13.8-42.624,15.573-46.517,40.984-49.978,40.984-49.978l-16.334-40.876s-42.407,70.837-46.713,80.79c-7.115,16.448-9.585,53.325-9.585,53.325A17.761,17.761,0,0,0,3171.942,1179.276Z" transform="translate(-3118.842 -977.615)" fill="#920061"/>
        <path id="Path_2107" data-name="Path 2107" d="M3291.789,940.462s2.537-.424,2.127-3.919-.4-8.062,2.438-7.211,2.982,3.126,4.15,1.8,1.189-6.925,9.643-7.315,11.89,2.553,15.822.825,4.139-7.679,4.139-7.679a6.766,6.766,0,0,1-2.807,2.8s6.558-8.971-1.035-15.122-15.336-2.124-19.731-1.859c-9.682.586-15.937,1.167-19.1,7.529S3285.576,934.338,3291.789,940.462Z" transform="translate(-3183.867 -901.241)" fill="#1a1a1a"/>
        <path id="Path_2108" data-name="Path 2108" d="M3185.256,1344.037s2.784,2.9,2.959,4.108c.564,3.876,1.858,5.549,1.209,5.971-1.348.876-3.133-1.993-3.985-4.567A11.768,11.768,0,0,1,3185.256,1344.037Z" transform="translate(-3129.364 -1140.742)" fill="#ffb27d"/>
      </g>
    </g>
    <g id="Group_1421" data-name="Group 1421" transform="translate(665.829 382.807)">
      <g id="Group_1420" data-name="Group 1420" transform="translate(0)">
        <g id="Group_1419" data-name="Group 1419">
          <g id="Group_1418" data-name="Group 1418">
            <path id="Path_2109" data-name="Path 2109" d="M3612.487,1167.457c0-.258,3.777-8.07,2.576-8.671s-3.355-.51-3.606.859S3612.487,1167.457,3612.487,1167.457Z" transform="translate(-3598.778 -1049.159)" fill="#ffb27d"/>
            <path id="Path_2110" data-name="Path 2110" d="M3736.58,948.6s22.154-26.622,33.883-9.588c0,0,8.75,3.631,11.915,18.524,3.229,15.2-6.876,26.746-12.1,23.892-3.351-1.831-5.887,4.034-5.887,4.034Z" transform="translate(-3666.473 -927.397)" fill="#1a1a1a"/>
            <path id="Path_2111" data-name="Path 2111" d="M3636,1180.834c-17.613-6.489-34.577-36.63-34.577-36.63l5.555-3.888c4.626,6.767,25.44,19.762,25.44,19.762.475-5.7,1.165-10.878,2.016-15.564,5.779-31.854,19-41.29,22.545-43.293a7.935,7.935,0,0,1,.9-.453s-.012.234-.039.678c-.051.959-.163,2.891-.349,5.538C3656.108,1126.706,3650.714,1186.26,3636,1180.834Z" transform="translate(-3593.366 -1017.969)" fill="#ffb27d"/>
            <path id="Path_2112" data-name="Path 2112" d="M3805.109,929.336s2.979-11.915,20.479-8.192c0,0-8.378-1.055-10.674,2.172,0,0,6.64-3.041,10.8-.5s4.841,11.108,4.22,13.714-5.212,10.363-8.253,10.363-6.64-2.668-6.64-2.668Z" transform="translate(-3703.539 -920.424)" fill="#1a1a1a"/>
            <path id="Path_2113" data-name="Path 2113" d="M3778.324,1180.164c-8.7-19.514-12.865-25.033-13.01-31.172-.115-4.855,2.279-10.094,6.929-22.939a47.862,47.862,0,0,0,2.316-9.287c3.678-24.764-10.643-51.536-19.543-53.36-2.476-.654-6.675-9.6-6.623-24.012l-1.114.22-18.742,3.711s.427,5.9.439,11.454c.012,4.631-.268,9.019-1.316,9.572-1.349.122-2.146.2-2.146.2s-15.627,21.7-16.941,41.887,12.514,28.953-.1,69.288C3695.587,1216.924,3783.131,1190.947,3778.324,1180.164Z" transform="translate(-3650.567 -984.773)" fill="#ffb27d"/>
            <path id="Path_2114" data-name="Path 2114" d="M3753.705,1043.584s.427,5.9.439,11.454c10.487-.3,16.031-9.863,18.3-15.166Z" transform="translate(-3675.736 -985.032)" fill="#e8945b"/>
            <path id="Path_2115" data-name="Path 2115" d="M3760.478,990.061s5.5-8.684,6.815-16.109c.942-5.3-1.758-24.952-21.506-22.122a26.828,26.828,0,0,0-11.126,4.206c-4.287,2.9-10.475,9.147-3.557,26.295l1.8,5.793Z" transform="translate(-3661.831 -937.261)" fill="#1a1a1a"/>
            <path id="Path_2116" data-name="Path 2116" d="M3736.341,1010.088s24.813.41,24.83-15.047,3.231-25.813-12.61-26.728-18.927,4.979-20.188,10.137S3729.886,1009.583,3736.341,1010.088Z" transform="translate(-3661.873 -946.275)" fill="#ffb27d"/>
            <path id="Path_2117" data-name="Path 2117" d="M3748.077,963.9s6.794,18.133,17.22,20.814,14.949-.112,14.949-.112a29.528,29.528,0,0,1-9.657-17.444S3753.2,955.268,3748.077,963.9Z" transform="translate(-3672.691 -942.24)" fill="#1a1a1a"/>
            <path id="Path_2118" data-name="Path 2118" d="M3736.943,967.323s-5.074,4.048-6.311,7.984-1.793,12.038-4.155,11.763c0,0-5.119-12.325.633-19.3C3733.211,960.379,3736.943,967.323,3736.943,967.323Z" transform="translate(-3659.874 -944.192)" fill="#1a1a1a"/>
            <path id="Path_2119" data-name="Path 2119" d="M3755.007,1539.347a245.168,245.168,0,0,1-15.64,43.873l-8.182-.567a231.345,231.345,0,0,0,3.782-44.883c-.162-18.033-2.392-39.344-9.517-59.692-24.484-69.926-20.527-120.816-20.527-120.816l46.043,5.385,2.145.252c.192,21.146.737,49.855,1.215,72.3.422,20.191.794,35.315.794,35.315C3763.971,1489.582,3760.756,1516.491,3755.007,1539.347Z" transform="translate(-3649.222 -1156.702)" fill="#1a1a1a"/>
            <path id="Path_2120" data-name="Path 2120" d="M3865.485,1228.632l-7.45,2.234s-24.574-40.773-26.807-51.381c-.729-3.454-2.516-10.366-4.6-18.109-4.315-16.037-9.884-35.66-9.884-35.66l-1.833-7.944-6.255-27.089s11.977,1.224,18.982,4.153c2.32.968,4.09,2.124,4.708,3.48,5.147,11.316,10.285,39.877,13.9,60.25,2.013,11.355,3.548,20.169,4.349,22.036C3852.825,1185.813,3859.651,1214.485,3865.485,1228.632Z" transform="translate(-3705.457 -1012.514)" fill="#ffb27d"/>
            <path id="Path_2121" data-name="Path 2121" d="M3807.868,1523.958c-2.648,28.253-14.3,46.524-14.3,46.524l-3.908,2.842s-3.7-19.906-6.318-43.588c-2.495-22.51-5.914-46.329-9.782-53.6-15.354-28.833-19.977-137.681-19.977-137.681l46.683-2.315c4.695,7.893,6.741,20.838,7.227,35.558,1.229,37.148-7.5,85.587-8.809,92.593a.03.03,0,0,1,0,.017,2.436,2.436,0,0,0,.307,1.565C3808.269,1484.26,3809.611,1505.294,3807.868,1523.958Z" transform="translate(-3675.667 -1145.279)" fill="#2b2b2b"/>
            <path id="Path_2122" data-name="Path 2122" d="M3749.692,966.324s4.841,18.99,18,25.071c0,0-13.156-11.667-14.274-24.2S3749.692,966.324,3749.692,966.324Z" transform="translate(-3673.565 -942.58)" fill="#1a1a1a"/>
            <path id="Path_2123" data-name="Path 2123" d="M3774.126,1222.817a11.047,11.047,0,0,1-.29,3.731c-.993,3.126-4.4,4.55-12.651,3.7-5.04-.524-7.287-8.971-8.289-16.177q-4.541,15.465-12.745,17.312c-7.995,1.778-48.324,6.682-50.964-12.489-2.9-21.085,5.791-58.421,6.268-78.551a99.587,99.587,0,0,1-1.462-18.655c.336-14.34,4.545-22.377,7.781-25.614.916-.7,1.833-1.142,5.513-1.774,1.881-.32,4.486-.69,8.178-1.177a13.793,13.793,0,0,1,1.472-.114c-.682,1.22-9.817,15.051-9.1,18.608.746,3.722,33.14.371,35.374-1.676s5.769-17.73,5.769-17.73,11.47,1.253,17.082,5.334l-.06.072a4.745,4.745,0,0,1,1.475,1.552c5.987,11.4,11.964,40.163,16.169,60.681a29.877,29.877,0,0,1-21.857,3.2C3765.4,1186.679,3773.589,1212.05,3774.126,1222.817Z" transform="translate(-3640.519 -1013.338)" fill="#fcb200"/>
            <path id="Path_2124" data-name="Path 2124" d="M3597.488,1163.678c0-.767.642-11.85-1.331-14.179s-6-5.639-7.269-5.537-6.221,6.686-4.732,11.732,7.776,11.873,7.776,11.873Z" transform="translate(-3583.88 -1041.331)" fill="#ffb27d"/>
            <g id="Group_1415" data-name="Group 1415" transform="translate(1.363 85.476)">
              <path id="Path_2125" data-name="Path 2125" d="M3610.868,1129.912l-11.487,3.442a.721.721,0,0,1-.9-.483l-6.564-21.9a.72.72,0,0,1,.483-.9l11.486-3.443a.72.72,0,0,1,.9.484l6.564,21.9A.72.72,0,0,1,3610.868,1129.912Z" transform="translate(-3589.576 -1106.599)" fill="#f0aa01"/>
              <path id="Path_2126" data-name="Path 2126" d="M3605.157,1131.832l-10.418,3.123a1.278,1.278,0,0,1-1.591-.857l-6.245-20.834a1.278,1.278,0,0,1,.857-1.591l10.418-3.123a1.278,1.278,0,0,1,1.591.857l6.244,20.834A1.277,1.277,0,0,1,3605.157,1131.832Z" transform="translate(-3586.849 -1107.625)" fill="#fcb200"/>
            </g>
            <path id="Path_2127" data-name="Path 2127" d="M3842.927,1745.225c-2.648,28.254-14.3,46.524-14.3,46.524l-3.98,3.624s-3.628-20.687-6.246-44.369C3821.155,1751.2,3833.315,1751.647,3842.927,1745.225Z" transform="translate(-3710.726 -1366.546)" fill="#ffb27d"/>
            <path id="Path_2128" data-name="Path 2128" d="M3786.225,1752a245.169,245.169,0,0,1-15.64,43.873l-8.183-.567a231.38,231.38,0,0,0,3.782-44.883C3768.96,1751.824,3774.69,1753.245,3786.225,1752Z" transform="translate(-3680.44 -1369.359)" fill="#d9935c"/>
            <g id="Group_1416" data-name="Group 1416" transform="translate(58.09 414.441)">
              <path id="Path_2129" data-name="Path 2129" d="M3747.172,1842.056h-5.224c-1.75-.276-3.042-.782-4.836-1.017-2.726-.357-3.98.76-4.23,1.017-.033.033-.048.052-.048.052h-22.192c-.558-.8-.022-2.643.5-4a3.159,3.159,0,0,1,2.078-1.9c2.354-.681,6.993-1.288,11.242-5.135,2.39-2.16,11.542-7.942,11.542-7.942l.049-.011c.2,0,1.158.3,5.32,3.813,2.152,1.813,5.82-2.561,5.82-2.561a5.222,5.222,0,0,1,1.2,1.63,5.516,5.516,0,0,1,.477,3.407c-.332,2,.737,5.716,1.59,8.229.517,1.523.953,2.6.953,2.6S3751.667,1841.494,3747.172,1842.056Z" transform="translate(-3710.405 -1823.119)" fill="#1a1a1a"/>
              <path id="Path_2130" data-name="Path 2130" d="M3778.558,1826c-1.248.879-3.88,2.61-5.626,2.837-2.357.31-6.766-5.708-6.766-5.708l.049-.011c.2,0,1.158.3,5.321,3.813,2.152,1.813,5.82-2.561,5.82-2.561A5.228,5.228,0,0,1,3778.558,1826Z" transform="translate(-3740.565 -1823.119)" fill="#2b2b2b"/>
              <path id="Path_2131" data-name="Path 2131" d="M3747.172,1859.159h-5.224c-1.75-.275-3.042-.782-4.836-1.017-2.726-.357-3.98.76-4.23,1.017-.033.033-.048.052-.048.052h-22.192c-.558-.8-.022-2.643.5-4,.674-.6.864,2.6,1.236,3.113s18.1.186,19.128-.559,4.1-2.048,8.377-1.023c3.727.889,9.219-1.393,10.579-2,.517,1.523.953,2.6.953,2.6S3751.667,1858.6,3747.172,1859.159Z" transform="translate(-3710.405 -1840.222)" fill="#2b2b2b"/>
            </g>
            <g id="Group_1417" data-name="Group 1417" transform="translate(85.967 414.441)">
              <path id="Path_2132" data-name="Path 2132" d="M3807.892,1842.056h-5.224c-1.75-.276-3.042-.782-4.836-1.017-2.725-.357-3.98.76-4.23,1.017a.669.669,0,0,0-.048.052h-22.191c-.559-.8-.022-2.643.5-4a3.157,3.157,0,0,1,2.077-1.9c2.353-.681,6.993-1.288,11.241-5.135,2.39-2.16,11.542-7.942,11.542-7.942l.049-.011c.2,0,1.158.3,5.32,3.813,2.152,1.813,5.82-2.561,5.82-2.561a5.215,5.215,0,0,1,1.2,1.63,5.511,5.511,0,0,1,.477,3.407c-.332,2,.737,5.716,1.589,8.229.518,1.523.954,2.6.954,2.6S3812.385,1841.494,3807.892,1842.056Z" transform="translate(-3771.125 -1823.119)" fill="#1a1a1a"/>
              <path id="Path_2133" data-name="Path 2133" d="M3839.277,1826c-1.247.879-3.879,2.61-5.626,2.837-2.356.31-6.765-5.708-6.765-5.708l.049-.011c.2,0,1.158.3,5.32,3.813,2.152,1.813,5.82-2.561,5.82-2.561A5.218,5.218,0,0,1,3839.277,1826Z" transform="translate(-3801.285 -1823.119)" fill="#2b2b2b"/>
              <path id="Path_2134" data-name="Path 2134" d="M3807.892,1859.159h-5.224c-1.75-.275-3.042-.782-4.836-1.017-2.725-.357-3.98.76-4.23,1.017a.669.669,0,0,0-.048.052h-22.191c-.559-.8-.022-2.643.5-4,.673-.6.864,2.6,1.236,3.113s18.1.186,19.127-.559,4.1-2.048,8.377-1.023c3.728.889,9.22-1.393,10.578-2,.518,1.523.954,2.6.954,2.6S3812.385,1858.6,3807.892,1859.159Z" transform="translate(-3771.125 -1840.222)" fill="#2b2b2b"/>
            </g>
            <path id="Path_2135" data-name="Path 2135" d="M3837.625,1280.1c-5.539-1.851-12.647-6.771-21.184-17.8-22.6-29.208-1.918-63.534.853-64.173s7.99,22.207,7.99,22.207C3828.9,1243.961,3837.088,1269.332,3837.625,1280.1Z" transform="translate(-3704.017 -1070.62)" fill="#f0aa01"/>
            <path id="Path_2136" data-name="Path 2136" d="M3696.017,1099.192s-15.476,7.787-20.631,39.214c0,0,5.069,6.948,12.208,9a14.243,14.243,0,0,0,3.178.544C3699.538,1148.415,3696.017,1099.192,3696.017,1099.192Z" transform="translate(-3633.374 -1017.117)" fill="#fcb200"/>
            <path id="Path_2137" data-name="Path 2137" d="M3592.208,1137.611s4.783-7.359,5.951-6.949c1.668.584-4.336,9.922-4.336,9.922s4.449-6.978,5.144-6.454c1.584,1.2-.937,5.581-3.437,8.942,0,0,4.474-4.1,4.62-3.36.51,2.585-4.912,8.848-4.912,8.848l-3.031-6.923Z" transform="translate(-3588.385 -1034.129)" fill="#ffb27d"/>
            <path id="Path_2138" data-name="Path 2138" d="M3584.394,1140.768c.231-.9,1.4-18.474,1.9-16.807s1.689,10.882,1.689,10.882Z" transform="translate(-3584.158 -1030.454)" fill="#ffb27d"/>
          </g>
        </g>
        <path id="Path_2139" data-name="Path 2139" d="M3746.443,1038.059s-.429,1.821-4.96,1.54c0,0-3.8-.235-3.688-2.237A12.237,12.237,0,0,1,3746.443,1038.059Z" transform="translate(-3667.129 -983.421)" fill="#fff"/>
      </g>
      <path id="Path_2140" data-name="Path 2140" d="M3923.661,1391.15s8.987,5.974,10.36,8.493,4.579,11.791,4.579,11.791-2.289.344-4.579-3.663-9.844-3.663-12.362-5.838-5.448-8.548-5.448-8.548Z" transform="translate(-3763.633 -1175.032)" fill="#ffb27d"/>
      <path id="Path_2141" data-name="Path 2141" d="M3918.339,1400.31s1.494,7.035,3.326,9.1,4.35,5.495,5.38,4.579-1.145-8.585-1.145-8.585Z" transform="translate(-3764.784 -1179.987)" fill="#ffb27d"/>
      <path id="Path_2142" data-name="Path 2142" d="M3952.261,1411.394c.229.343,8.127,8.737,8.127,8.737s-2.862,1.3-3.663,0S3952.261,1411.394,3952.261,1411.394Z" transform="translate(-3783.132 -1185.982)" fill="#ffb27d"/>
    </g>
  </g>
</svg>
