<svg xmlns="http://www.w3.org/2000/svg" width="766.702" height="636.678" viewBox="0 0 766.702 636.678">
  <g id="our-goal" transform="translate(-241 -473.249)">
    <path id="download_19_" data-name="download (19)" d="M514.932,23.905c0,.559-8.052-3.911-8.388-4.47-10.065-5.029-20.466-8.381-31.2-11.734C448.839-.121,421.663-.68,394.487.438,287.462,6.025,166.682,35.639,71.064,135.1,38.856,168.621-9.456,230.083,1.615,309.425c4.7,32.966,24.156,57.551,38.918,73.2,35.9,37.995,77.5,55.875,118.1,67.609,119.774,34.084,261.02,16.2,373.413-77.666a266.145,266.145,0,0,0,42.273-44.141,237.1,237.1,0,0,0,28.853-50.846C658.527,140.683,540.1,52.4,486.415,27.816c-18.453-8.381-23.821-9.5-42.609-15.086" transform="matrix(0.999, 0.035, -0.035, 0.999, 324.271, 473.249)" fill="#fff4d9"/>
    <g id="Group_42662" data-name="Group 42662" transform="translate(2186.299 -1459.167)">
      <g id="Group_42654" data-name="Group 42654" transform="translate(-1722.323 2052.788)">
        <path id="Path_67949" data-name="Path 67949" d="M-1102.514,2818.333c.362,3.383,5.148,3.26,10.558,2.45s4.011.612,11.619.465,10.144-2.747,10.476-3.846c.3-.974-3.393-1.664-7.343-2.488-.5-.1-1-.21-1.494-.318-4.454-.977-7.49-4.185-11.365-6.947-3.671-2.615-6.145-14.6-6.145-14.6l-10.814-.064s3.4,10.841,5.168,14.611c1.041,2.218-.068,5.064-.417,7.2A13.288,13.288,0,0,0-1102.514,2818.333Z" transform="translate(1204.794 -2495.74)" fill="#ffb07b"/>
        <path id="Path_67950" data-name="Path 67950" d="M-1085.458,2852.524c5.41-.811,4.011.612,11.619.465s10.144-2.747,10.476-3.846c.3-.975-3.393-1.665-7.343-2.488l-.044.073a21.323,21.323,0,0,1-11.091,2.369c-5.121-.342-10.4-2.3-13.933-2.564a13.29,13.29,0,0,0-.243,3.541C-1095.654,2853.457-1090.868,2853.334-1085.458,2852.524Z" transform="translate(1198.297 -2527.481)" fill="#1a1a1a"/>
        <path id="Path_67951" data-name="Path 67951" d="M-1303.563,2812.8c.234,3.395,5.022,3.453,10.459,2.847s3.986.762,11.593.9,10.241-2.363,10.614-3.449c.333-.963-3.328-1.792-7.244-2.763-.492-.121-.986-.247-1.481-.375-4.415-1.143-7.327-4.465-11.1-7.369-3.57-2.752-.633-14.169-.633-14.169l-8.205-3.875s-1.128,11.766-1.737,17.717c-.249,2.437-1.463,4.885-1.893,7.006A13.318,13.318,0,0,0-1303.563,2812.8Z" transform="translate(1321.298 -2490.74)" fill="#ffb07b"/>
        <path id="Path_67952" data-name="Path 67952" d="M-1293.1,2851.62c5.436-.606,3.986.763,11.593.9s10.241-2.363,10.614-3.448c.333-.963-3.328-1.792-7.244-2.764l-.047.072a21.316,21.316,0,0,1-11.172,1.95c-5.1-.534-10.306-2.689-13.826-3.087a13.317,13.317,0,0,0-.376,3.529C-1303.328,2852.168-1298.54,2852.227-1293.1,2851.62Z" transform="translate(1321.298 -2526.718)" fill="#1a1a1a"/>
        <path id="Path_67953" data-name="Path 67953" d="M-1283.1,2430.674s-2.273,11.006-4.551,66.818a180.2,180.2,0,0,0-7.284,22.971c-3.062,12.635-5.223,65.361-5.223,65.361s1.221,1.76,4.929,1.983a10.721,10.721,0,0,0,5.383-1.146s21.29-69.058,31.653-95.868,16.435-65.093,16.435-65.093Z" transform="translate(1319.272 -2278.046)" fill="#1a1a1a"/>
        <path id="Path_67954" data-name="Path 67954" d="M-1195.412,2421.859s1.679,11.112,18.867,64.262a180.157,180.157,0,0,0,1.12,24.071c1.5,12.915,18.9,63.763,18.9,63.763a10.684,10.684,0,0,0,5.777-.112,18.252,18.252,0,0,0,5.749-2.789s-6.67-72.677-6.23-101.418-7.119-66.757-7.119-66.757Z" transform="translate(1257.185 -2264.52)" fill="#1a1a1a"/>
        <path id="Path_67955" data-name="Path 67955" d="M-1202.853,2066.576a15.575,15.575,0,0,0-8.339-2.032,3.938,3.938,0,0,1,1.818-.754c-1.43-.286-4.719.983-4.719.983-19.661-8.727-24.288,20.634-24.21,27.513s-.268,14.774-10.583,20.425c-20.3,11.117-4.738,33.075-4.738,33.075-3.653,10.483,9.872,23.326,9.872,23.326-.229-5.567,25.325-41.035,39.1-49.126,3.486-4.619,5.063-13.007,5.183-13.668-.9,6.669-2.229,10.368-3.359,12.432C-1191.009,2108.917-1195.713,2071.119-1202.853,2066.576Z" transform="translate(1295.067 -2063.167)" fill="#1a1a1a"/>
        <path id="Path_67956" data-name="Path 67956" d="M-1158.707,2164.568c.069.031-6.446,3.414-11.348,2.074-4.611-1.257-7.623-7.236-7.56-7.249,1.952-.388,2.516-3.071,2.475-14.6l.883.173,14.308,2.836.533.1s-.34,4.669-.35,9.07c0,.931.01,1.848.045,2.707C-1159.624,2162.238-1159.34,2164.27-1158.707,2164.568Z" transform="translate(1246.637 -2111.548)" fill="#ffb07b"/>
        <path id="Path_67957" data-name="Path 67957" d="M-1155.453,2158.23c0,.931.01,1.848.045,2.707-8.323-.336-13.121-9.853-14.932-14.028l14.7,2.146.533.1S-1155.443,2153.829-1155.453,2158.23Z" transform="translate(1242.324 -2112.802)" fill="#ea8e50"/>
        <path id="Path_67958" data-name="Path 67958" d="M-1181.174,2096.875s-4.352-6.877-5.4-12.757c-.746-4.2,1.393-19.759,17.03-17.517a21.245,21.245,0,0,1,8.811,3.331c3.395,2.293,8.295,7.243,2.816,20.822l-1.424,4.587Z" transform="translate(1252.02 -2065.072)" fill="#1a1a1a"/>
        <path id="Path_67959" data-name="Path 67959" d="M-1156.7,2119.571s-19.482-2.576-17.692-14.684.482-20.595,13-19.462,14.242,6.109,14.628,10.3S-1151.584,2119.928-1156.7,2119.571Z" transform="translate(1244.794 -2076.3)" fill="#ffb07b"/>
        <path id="Path_67960" data-name="Path 67960" d="M-1160.653,2083.294s-7.437,13.41-15.916,14.293-11.7-1.832-11.7-1.832a23.382,23.382,0,0,0,9.6-12.535S-1163.66,2075.937-1160.653,2083.294Z" transform="translate(1252.949 -2073.147)" fill="#1a1a1a"/>
        <path id="Path_67961" data-name="Path 67961" d="M-1124.129,2087.757s3.5,3.763,4.011,6.99,0,9.638,1.881,9.7c0,0,5.448-9.057,1.756-15.188C-1120.4,2082.754-1124.129,2087.757-1124.129,2087.757Z" transform="translate(1214.935 -2076.652)" fill="#1a1a1a"/>
        <path id="Path_67962" data-name="Path 67962" d="M-1119.931,2407.842c-4.087-8.658-15.449-15.821-25.023-15.825a28.43,28.43,0,0,0-18.131,6.341,4.773,4.773,0,0,1-7.669-2.713l-8.379-38.932a10.515,10.515,0,0,0-12.491-8.067l-135.589,29.182a10.273,10.273,0,0,0-7.881,12.2l29.15,135.441a10.658,10.658,0,0,0,7.2,7.919l-1.78.5h5.264l.043-.008a10.75,10.75,0,0,0,1.948-.233l2.953-.635h0l34.8-7.49a6.568,6.568,0,0,0,3.585-10.725,28.093,28.093,0,0,1-6.423-13.25,28.277,28.277,0,0,1,20.289-32.463,28.2,28.2,0,0,1,34.981,21.273,28.065,28.065,0,0,1-1.614,16.964,4.485,4.485,0,0,0,1.323,5.285l-2.03.99,4.7,0h0a4.584,4.584,0,0,0,1.086-.1l41.552-8.943a10.519,10.519,0,0,0,8.07-12.5l-8.327-38.692a4.925,4.925,0,0,1,6.042-5.807,28.067,28.067,0,0,0,12.925.245A28.242,28.242,0,0,0-1119.931,2407.842Z" transform="translate(1340.116 -2232.235)" fill="#df9f04"/>
        <path id="Path_67963" data-name="Path 67963" d="M-1156.709,2392.017a28.431,28.431,0,0,0-18.131,6.341,4.773,4.773,0,0,1-7.669-2.713l-8.379-38.932a10.514,10.514,0,0,0-12.491-8.067l-135.589,29.182a10.272,10.272,0,0,0-7.881,12.2l29.15,135.441a10.667,10.667,0,0,0,12.672,8.183l37.75-8.125a6.567,6.567,0,0,0,3.585-10.725,28.093,28.093,0,0,1-6.422-13.25,28.277,28.277,0,0,1,20.288-32.463,28.2,28.2,0,0,1,34.981,21.273,28.065,28.065,0,0,1-1.614,16.964,4.5,4.5,0,0,0,5.08,6.17l41.552-8.943a10.52,10.52,0,0,0,8.07-12.5l-8.328-38.692a4.926,4.926,0,0,1,6.043-5.807,28.07,28.07,0,0,0,12.926.245,28.243,28.243,0,0,0,19.432-39.966C-1135.773,2399.184-1147.135,2392.021-1156.709,2392.017Z" transform="translate(1347.083 -2232.235)" fill="#fcb200"/>
        <path id="Path_67964" data-name="Path 67964" d="M-1001.466,2329.057s8.457,1.386,10.674,6.886-.878,9.224-2.069,9.211a5.312,5.312,0,0,1-4.542-3.745C-998.473,2338.558-1001.466,2329.057-1001.466,2329.057Z" transform="translate(1142.23 -2220.765)" fill="#ffb07b"/>
        <path id="Path_67965" data-name="Path 67965" d="M-1287.336,2389.315s9.494-.012,12.909,5.6.705,10.241-.6,10.442a5.886,5.886,0,0,1-5.64-3.273C-1282.35,2399.158-1287.336,2389.315-1287.336,2389.315Z" transform="translate(1311.67 -2256.48)" fill="#ffb07b"/>
        <path id="Path_67966" data-name="Path 67966" d="M-1187.507,2247.421c-.841-.18-4.521-.612-9.2-1.349-8.619-1.353-20.636-3.733-24.668-7.452-1.091-1.01-3.636-6.566-6.279-12.935-2.674,14.1-2.822,24.917-2.114,33.151l-58.26,12.539c5-10.1,12.727-22.621,11.277-32.755-.537-3.757-2.6-8.912-3.365-14.7-.065-.5-.12-1-.164-1.5-8.17,6.726-17.609,14.147-17.835,15.631-.376,2.487,5.985,30.03,5.985,30.03-1.58,3.636-8.44,2.871-8.44,2.871-6.43-4.59-15.886-30.607-15.127-36.371s24.2-38.609,29.873-46.46c5.605-7.757,26.067-7.563,26.559-7.559h.01c16.272,9.77,17.739,1.65,17.739,1.65s14.681,2.792,17.205,7.127,13.587,37.226,14.37,38.385c1.638,2.422,28.386,12.113,28.864,14.918S-1185.11,2247.93-1187.507,2247.421Z" transform="translate(1328.507 -2132.745)" fill="#920061"/>
        <path id="Path_67967" data-name="Path 67967" d="M-1227.388,2327.939l-20.314,4.353c5.057-10.071,11.707-22.613,10.253-32.684-.544-3.76-1.763-8.209-2.351-14.027-.057-.561-.154-2.249-.154-2.249s14.386,11.321,14.639,23.573C-1225.184,2313.261-1226.294,2321.575-1227.388,2327.939Z" transform="translate(1288.178 -2193.663)" fill="#7b0051"/>
        <path id="Path_67968" data-name="Path 67968" d="M-1067.982,2297.529c-8.724-1.355-20.89-3.736-24.971-7.457-1.106-1.01-3.682-6.573-6.358-12.95,0,0-.938-10.252,1.742-9.868s6.623,18.566,9.436,19.714C-1085.614,2288-1071.691,2293.341-1067.982,2297.529Z" transform="translate(1200.318 -2184.126)" fill="#7b0051"/>
      </g>
      <g id="man" transform="translate(-1507.344 2166.826)">
        <g id="Group_42655" data-name="Group 42655" transform="translate(214.177 196.709)">
          <path id="Path_67969" data-name="Path 67969" d="M-8.243,3281.594c-1.191,4.016-6.692,6.692-7.437,11.6a10.659,10.659,0,0,1-2.389,5.535H-35.2c.171-.942.923-1.958,3.15-2.445,4.757-1.04,6.552-6.807,6.256-12.16a70.035,70.035,0,0,1,.044-7.019c.151-3.065.4-5.474.4-5.474l10.111-2.378,1.063,1.365,1.02,1.312S-7.055,3277.579-8.243,3281.594Z" transform="translate(122.659 -3093.626)" fill="#1a1a1a"/>
          <path id="Path_67970" data-name="Path 67970" d="M-222.156,3318.834H-256.81a6.951,6.951,0,0,1,4.368-2.174c5.333-.866,14.569-3.962,16.629-10.778.067-.218.127-.443.178-.671,1.634-7.286,13.533,2.23,13.533,2.23s.037.292.091.789C-221.8,3310.281-221.341,3315.846-222.156,3318.834Z" transform="translate(256.81 -3113.731)" fill="#1a1a1a"/>
          <path id="Path_67971" data-name="Path 67971" d="M-242.154,2849.978s1.807,22.543,3.931,49.64c2.886,36.811,6.357,82.026,6.7,90.592.594,14.873,2.976,38.666,2.976,38.666s5.648,5.652,16.953,3.27c0,0,10.074-33.964,12.952-69.9q.066-.884.134-1.776c2.677-36.582,6.839-113.615,6.839-113.615Z" transform="translate(247.938 -2837.933)" fill="#2b2b2b"/>
          <path id="Path_67972" data-name="Path 67972" d="M-242.154,2849.978s1.807,22.543,3.931,49.64l39.581,62.628q.066-.884.134-1.776c2.677-36.582,6.839-113.615,6.839-113.615Z" transform="translate(247.938 -2837.933)" fill="#1a1a1a"/>
          <path id="Path_67973" data-name="Path 67973" d="M-221.246,2838.969s32.567,81.641,53.981,120.009,28.106,49.074,28.106,49.074,12.269-4.908,13.384-8.254c0,0-8.189-74.07-22.53-92.126-8.1-10.2-17.622-40.821-18.068-51.528s-2.9-31.9-2.9-31.9Z" transform="translate(235.282 -2824.247)" fill="#2b2b2b"/>
        </g>
        <path id="Path_67974" data-name="Path 67974" d="M-192.109,2500.922A95.537,95.537,0,0,1-193.6,2487.3l16.524-13.317c-.614,18.311,11.12,27.116,11.12,27.116s-22.019,10.839-34.747,6.824A30.475,30.475,0,0,1-192.109,2500.922Z" transform="translate(437.024 -2415.512)" fill="#935c2f"/>
        <path id="Path_67975" data-name="Path 67975" d="M-198.859,2453.623s21.021,3.492,22.994-9.632,6.015-21.513-7.323-24.3-16.7,1.831-18.429,6.051S-204.276,2452.376-198.859,2453.623Z" transform="translate(438.39 -2382.133)" fill="#a16d3c"/>
        <g id="Group_42656" data-name="Group 42656" transform="translate(143.998 90.502)">
          <path id="Path_67976" data-name="Path 67976" d="M-412.929,2563.913l-4.474-2.771a11.313,11.313,0,0,0-15.112-3.119s-3.776,2.406-1.242,4.423,1.853.876,5.363,3.8,8.052,3.962,10.981,2.353l3.757-.355Z" transform="translate(434.632 -2555.87)" fill="#df9f04"/>
          <path id="Path_67977" data-name="Path 67977" d="M-393.844,2564.044c1.152-3.606,1.7-3.925,1.7-3.925s36.193,4.277,39.605,4.529,50.8-9.51,50.8-9.51l22.373,27.169s-65.967,2.487-74.6,1.678c-14.267-1.336-40.137-14.619-40.137-14.619A10.549,10.549,0,0,1-393.844,2564.044Z" transform="translate(410.234 -2555.138)" fill="#df9f04"/>
        </g>
        <path id="Path_67978" data-name="Path 67978" d="M-182.249,2650.216c.064,1.4-2.826,2.941-4.08,3.5-9.447,4.237-18.247,7.178-28.188,8.135-11.792,1.209-25.728-1.443-30.506-1.38a2.052,2.052,0,0,1-1.339-.508c-.318-.256-.575-14.659-.318-32.821,0-.7,0-1.468.063-2.17v-.252c.018-1.892.048-3.814.089-5.754.119-5.308.319-10.757.549-16.172.345-7.983.82-15.829,1.476-22.78a131.737,131.737,0,0,1,2.668-18.006c2.548-10.26,8.413-17.019,13.766-21.989l4.4-3.884a20.861,20.861,0,0,0,13.7-1.658c5.034-2.485,10.517-5.164,11.407-4.525,6.795,5.079,11.369,16.607,13.713,31.26a161.94,161.94,0,0,1,1.843,25.85c-.015,3.52-.122,7.093-.326,10.7a351.773,351.773,0,0,0,.7,45.881C-182.445,2646.451-182.293,2648.681-182.249,2650.216Z" transform="translate(464.918 -2449.335)" fill="#fcb200"/>
        <path id="Path_67979" data-name="Path 67979" d="M-621.037,2348.944l-132.941-21.113a10.363,10.363,0,0,0-11.86,8.609l-5.884,37.053a43.636,43.636,0,0,0,.162,6.54l4.792.713a6.173,6.173,0,0,0,.83.124h0a6.334,6.334,0,0,0,2.675-.365,27.287,27.287,0,0,1,14.258-1.17,27.473,27.473,0,0,1,22.294,29.772,27.4,27.4,0,0,1-31.548,24.229,27.268,27.268,0,0,1-14.8-7.415,4.319,4.319,0,0,0-2.594-1.224h0l-5.013-.753-6.244,45.2a10.22,10.22,0,0,0,8.491,11.7l37.977,6.031a4.785,4.785,0,0,1,3.141,7.512,27.277,27.277,0,0,0-4.756,11.625,27.44,27.44,0,0,0,29.392,31.629c9.278-.666,19.755-8.446,23.117-17.119a27.62,27.62,0,0,0,.617-18.652,4.637,4.637,0,0,1,5.15-6l38.213,6.069a10.215,10.215,0,0,0,11.691-8.487l21.136-133.086A9.982,9.982,0,0,0-621.037,2348.944Z" transform="translate(791.957 -2326.959)" fill="#008dbf"/>
        <path id="Path_67980" data-name="Path 67980" d="M-197.686,2608.313s-10.19,47.554-48.449,58.148c.119-5.308.319-10.757.549-16.172.345-7.983.82-15.829,1.476-22.78a13.259,13.259,0,0,1,1.911-.82C-229.217,2622.408-197.686,2608.313-197.686,2608.313Z" transform="translate(464.525 -2496.824)" fill="#df9f04"/>
        <path id="Path_67981" data-name="Path 67981" d="M-702.007,2518.64a27.616,27.616,0,0,0,.617-18.653,4.637,4.637,0,0,1,5.15-6l38.213,6.069a10.216,10.216,0,0,0,11.691-8.487l21.136-133.086a9.981,9.981,0,0,0-8.291-11.423l-132.941-21.113a10.363,10.363,0,0,0-11.86,8.609l-5.885,37.054a6.381,6.381,0,0,0,8.46,7.011,27.286,27.286,0,0,1,14.257-1.17,27.473,27.473,0,0,1,22.294,29.772,27.4,27.4,0,0,1-31.548,24.228,27.263,27.263,0,0,1-14.8-7.414,4.372,4.372,0,0,0-7.374,2.438l-6.477,40.784a10.22,10.22,0,0,0,8.49,11.7l37.977,6.031a4.785,4.785,0,0,1,3.141,7.512,27.275,27.275,0,0,0-4.757,11.625,27.44,27.44,0,0,0,29.392,31.629C-715.845,2535.094-705.368,2527.312-702.007,2518.64Z" transform="translate(799.495 -2325.821)" fill="#5cc7ff"/>
        <g id="Group_42657" data-name="Group 42657" transform="translate(140.864 87.693)">
          <path id="Path_67982" data-name="Path 67982" d="M-417.581,2643.382l-5.466-.9a13.5,13.5,0,0,0-17.092-3.958s-4.307,2.409-1.459,4.664,2.09,1.012,6.035,4.272,9.081,4.562,12.419,2.969l4.262-.222Z" transform="translate(442.572 -2601.87)" fill="#a16d3c"/>
          <path id="Path_67983" data-name="Path 67983" d="M-389.852,2592.31c.176-4.022,2.319-4.451,2.319-4.451s41.4-2.739,44.976-3.431,36.549-28.016,36.549-28.016,12.753-11.462,21.688-7.594c7.765,3.361,10.2,9.992,10.586,16.09a17.718,17.718,0,0,1-10.23,17.141c-14.81,6.918-44.429,20.5-51.174,21.668-15.013,2.607-53.6-5.75-53.6-5.75A12.679,12.679,0,0,1-389.852,2592.31Z" transform="translate(410.665 -2548.02)" fill="#fcb200"/>
        </g>
        <path id="Path_67984" data-name="Path 67984" d="M-207,2410.4s-8.531-6.327-2.967-16.157c0,0,6.712,2.226,16.246,0s18.066.928,19.179,4.266c0,0,3.709,1.484,4.08,7.048s-10.786,23.09-10.786,23.09-2.383-2.967-1.733-5.007,2.689-6.584.185-6.584-3.338,3.709-4.359,2.226.835-7.7-2.133-8.717S-203.656,2412.276-207,2410.4Z" transform="translate(443.769 -2366.788)" fill="#1a1a1a"/>
      </g>
      <path id="Path_67985" data-name="Path 67985" d="M-1214.739,3047.718l-37.58-170.625h10.345a4.471,4.471,0,0,0,4.458-4.457v-5.764a4.471,4.471,0,0,0-4.458-4.458H-1373.2a4.47,4.47,0,0,0-4.458,4.458v5.764a4.471,4.471,0,0,0,4.458,4.457h13.318l-37.581,170.625a4.283,4.283,0,0,0,3.24,5.092,4.271,4.271,0,0,0,5.078-3.249l37.986-172.467h90.114l37.986,172.467a4.271,4.271,0,0,0,5.077,3.249h0A4.283,4.283,0,0,0-1214.739,3047.718Z" transform="translate(-337.686 -483.816)" fill="#7e7e7e"/>
      <g id="Group_42658" data-name="Group 42658" transform="translate(-1560.456 2413.684)">
        <path id="Path_67986" data-name="Path 67986" d="M-695.23,2951.607h-37.518a6.381,6.381,0,0,0-5.6,9.455c2.267,4.1-5.709,39.657-22.515,40.584a27.374,27.374,0,0,1-28.878-27.357,27.265,27.265,0,0,1,5-15.782,4.372,4.372,0,0,0-3.565-6.9h-41.3a10.22,10.22,0,0,0-10.22,10.22s-3.743,44.324-6.926,42.734a27.233,27.233,0,0,0-10.8-2.836h-.036c-.461-.023-.925-.038-1.392-.038s-7.266-.116-7.266-.116l-1.031,54.773,5.9.063c5.612-.167,10.486-.692,14.818-2.9a4.637,4.637,0,0,1,6.729,4.145v38.692a10.216,10.216,0,0,0,10.216,10.215h134.754a9.981,9.981,0,0,0,9.981-9.98V2961.97A10.363,10.363,0,0,0-695.23,2951.607Z" transform="translate(893.633 -2951.491)" fill="#df9f04"/>
        <path id="Path_67987" data-name="Path 67987" d="M-912.771,3055.528a27.619,27.619,0,0,0,18.518-2.317,4.638,4.638,0,0,1,6.73,4.146v38.692a10.216,10.216,0,0,0,10.216,10.216h134.754a9.981,9.981,0,0,0,9.981-9.981V2961.677a10.363,10.363,0,0,0-10.363-10.363h-37.518a6.381,6.381,0,0,0-5.6,9.455,27.292,27.292,0,0,1,3.392,13.9,27.473,27.473,0,0,1-25.907,26.687A27.4,27.4,0,0,1-837.444,2974a27.267,27.267,0,0,1,5-15.783,4.372,4.372,0,0,0-3.565-6.9H-877.3a10.22,10.22,0,0,0-10.22,10.22v38.453a4.786,4.786,0,0,1-6.927,4.281,27.27,27.27,0,0,0-12.227-2.875,27.439,27.439,0,0,0-26.627,33.989C-931.191,3044.441-921.864,3053.568-912.771,3055.528Z" transform="translate(934.073 -2951.314)" fill="#fcb200"/>
      </g>
      <g id="Group_42661" data-name="Group 42661" transform="translate(-1945.299 2181.317)">
        <g id="Group_42659" data-name="Group 42659" transform="translate(20.853 123.641)">
          <path id="Path_67988" data-name="Path 67988" d="M-1655.871,2849.956l3.583,2.91s9.8-3.515,12.015,8.134c0,0,.589,4.964-2.555,4.973s-1.847-.543-6.3-.412-8.144-2.217-8.8-5.831l-2.13-3.062Z" transform="translate(1762.828 -2781.231)" fill="#ea8e50"/>
          <path id="Path_67989" data-name="Path 67989" d="M-1813.911,2750.791c2.859-2.985,2.628-5.192,2.628-5.192s-33.105-27.1-36.463-29.312c-2.288-1.5-26.669-23.119-38.065-36.3-5.653-6.536-12.655-4-20.667-1.7l-6.6,1.893c-7.967,2.285-10.039,13.428-3.5,18.842,18.409,15.248,49.033,32.4,54.763,36,14.225,8.949,42.069,19.581,42.069,19.581A17.652,17.652,0,0,0-1813.911,2750.791Z" transform="translate(1920.462 -2675.82)" fill="#1e3d70"/>
        </g>
        <path id="Path_67990" data-name="Path 67990" d="M-1568.529,3287.013s8.034,6.019,20.344,2.838c0,0,9.926-2.262,12.1,2.689,0,0-15.223,7.733-19.075,9.848a46.145,46.145,0,0,0-8.074,6.055,3.992,3.992,0,0,1-5.78-.446c-.67-.824-1.436-1.8-2.276-2.942-2.347-3.181-7.816-13.455-7.816-13.455Z" transform="translate(1734.677 -2922.158)" fill="#233862"/>
        <path id="Path_67991" data-name="Path 67991" d="M-1732.793,3059.8s-4.892,11.28-16.185,9.207c0,0-23.043-19.031-38.849-38.8-5.134-6.42-9.5-12.919-12.073-18.866-10.481-24.268-38.772-60.463-56.759-78.807l45-16.28s14.415,29,33.593,64.614C-1764.241,3006.525-1747.95,3035.626-1732.793,3059.8Z" transform="translate(1902.692 -2697.721)" fill="#2b478b"/>
        <path id="Path_67992" data-name="Path 67992" d="M-1778.063,2980.864l-9.764,49.34c-5.134-6.42-9.5-12.919-12.073-18.866-10.481-24.268-38.772-60.463-56.759-78.807l45-16.28S-1797.242,2945.246-1778.063,2980.864Z" transform="translate(1902.692 -2697.721)" fill="#233862"/>
        <path id="Path_67993" data-name="Path 67993" d="M-1775.848,3295.659s-.49,9,10.422,10.2c0,0,6.236.033,6.253,5.762l-31.714.1a24.671,24.671,0,0,1-1.144-7.261c-.171-3.8,3.684-13.737,3.684-13.737Z" transform="translate(1863.574 -2924.405)" fill="#233862"/>
        <path id="Path_67994" data-name="Path 67994" d="M-1847.086,2913.187s20.048,22.029,32.774,61.718c6.924,21.593-12.691,75.883-16.515,94.746,0,0-13.158,1.117-22.156-2.361,0,0-.684-38.96,4.579-68.989,2.944-16.805-26.4-35.941-39.218-66.307-8.722-20.658,1.889-20.307,14.929-20.8Z" transform="translate(1923.361 -2694.658)" fill="#2b478b"/>
        <path id="Path_67995" data-name="Path 67995" d="M-1890.806,2625.523c-11.154,6.3-33.989.49-33.989.49s9.273-10.6,5.06-27.676l8.758,4.448,9.408,4.778a78.171,78.171,0,0,1,1.031,8.432c.107,1.395.2,2.953.271,4.655A29.271,29.271,0,0,1-1890.806,2625.523Z" transform="translate(1943.938 -2505.276)" fill="#ffb07b"/>
        <path id="Path_67996" data-name="Path 67996" d="M-1862.795,2756.166c0,1.961-2.258,2.9-2.738,2.994-4.5.822-17.06,5.708-28.376,6.83-9.528,1-18.375.05-28.094-1.9-1.287-.259-4.308-1.073-4.523-2.306-.268-1.347-37.488-75.876-8.553-107.89.679-.751,6.391.6,11.614,1.841a21.443,21.443,0,0,0,13.2-1.079l4.9,2.577c6.015,3.352,17.4,15.26,18.729,24.6.677,4.752,3.394,8.271,4.18,12.451q.438,2.32.894,4.529.889,4.33,1.832,8.247c1.7,7.067,3.5,13.151,5.262,18.407,1.877,5.581,3.718,10.223,5.363,14.1,2.133,5.036,3.937,8.8,5.063,11.68A14.386,14.386,0,0,1-1862.795,2756.166Z" transform="translate(1956.827 -2538.775)" fill="#2a4e96"/>
        <path id="Path_67997" data-name="Path 67997" d="M-1846.7,2790.053c-52.54-24.754-70.736-72.286-70.736-72.286s42.687,15.746,53.217,19.846q.889,4.33,1.832,8.247c1.7,7.067,3.5,13.151,5.262,18.407,1.877,5.58,3.718,10.222,5.363,14.1C-1849.633,2783.408-1847.83,2787.171-1846.7,2790.053Z" transform="translate(1939.485 -2577.572)" fill="#1e3d70"/>
        <path id="Path_67998" data-name="Path 67998" d="M-1650.782,2522.374l-11.253-35.686a6.382,6.382,0,0,0-7.812-4.225h0l-.009,0c-.167.047-.331.1-.495.165l-3.946,1.318s-6.177,6.362-10.613,7.645c-13.63,3.944-26.568-3.321-31.541-16.61-5.531-14.782.886-31.013,15.745-35.7,5.084-1.6,15.089,1.385,15.089,1.385l4.016-1.335a4.357,4.357,0,0,0,2.9-5.488l-12.387-39.279a10.193,10.193,0,0,0-12.786-6.655l-36.575,11.534a4.773,4.773,0,0,1-6.149-5.3,27.205,27.205,0,0,0-.933-12.493,27.368,27.368,0,0,0-40.317-15.132c-7.982,4.727-13.866,16.337-13,25.573a27.545,27.545,0,0,0,7.758,16.919,4.625,4.625,0,0,1-1.924,7.645l-36.8,11.606a10.189,10.189,0,0,0-6.652,12.781l40.422,128.174a9.954,9.954,0,0,0,12.487,6.5l128.033-40.378A10.335,10.335,0,0,0-1650.782,2522.374Z" transform="translate(1891.971 -2362.537)" fill="#008dbf"/>
        <path id="Path_67999" data-name="Path 67999" d="M-1810.721,2395.382a27.543,27.543,0,0,0,7.759,16.919,4.625,4.625,0,0,1-1.925,7.644l-36.8,11.606a10.189,10.189,0,0,0-6.652,12.781l40.422,128.174a9.954,9.954,0,0,0,12.487,6.5l128.033-40.378a10.335,10.335,0,0,0,6.749-12.965l-11.255-35.686a6.363,6.363,0,0,0-10.672-2.488,27.224,27.224,0,0,1-12.2,7.395,27.4,27.4,0,0,1-33.156-16.636,27.325,27.325,0,0,1,17.359-35.674,27.2,27.2,0,0,1,16.512.022,4.36,4.36,0,0,0,5.494-5.46l-12.388-39.279a10.193,10.193,0,0,0-12.786-6.655l-36.576,11.535a4.773,4.773,0,0,1-6.149-5.3,27.2,27.2,0,0,0-.934-12.493,27.366,27.366,0,0,0-40.316-15.131C-1805.7,2374.535-1811.584,2386.145-1810.721,2395.382Z" transform="translate(1897.945 -2364.528)" fill="#5cc7ff"/>
        <g id="Group_42660" data-name="Group 42660" transform="translate(14.996 125.99)">
          <path id="Path_68000" data-name="Path 68000" d="M-1663.952,2864.132l4.54,1.665s9.092-6.429,14.752,4.027c0,0,2.048,4.567-1.193,5.559s-2.062.058-6.618,1.575-9.043.425-10.764-2.83l-3.085-2.264Z" transform="translate(1772.477 -2791.986)" fill="#ffb07b"/>
          <path id="Path_68001" data-name="Path 68001" d="M-1823.04,2760.339c1.679-4.38,2.446-6.363,2.446-6.363s-34.307-27.964-37.8-30.362c-2.382-1.634-26.1-19.36-37.657-33.175a24.2,24.2,0,0,0-23.523-8.151l-7.2,1.511a10.71,10.71,0,0,0-4.776,18.613c19,16.287,51.042,35.178,57.016,39.106,14.832,9.754,47.637,23.422,47.637,23.422A8.439,8.439,0,0,0-1823.04,2760.339Z" transform="translate(1935.301 -2681.773)" fill="#2a4e96"/>
        </g>
        <path id="Path_68002" data-name="Path 68002" d="M-1891.1,2622.815c-10.968.616-18.1-8.44-18.1-8.44a87.028,87.028,0,0,0,7.663-4.769l9.407,4.778A78.158,78.158,0,0,1-1891.1,2622.815Z" transform="translate(1934.498 -2512.097)" fill="#ea8e50"/>
        <path id="Path_68003" data-name="Path 68003" d="M-1902.226,2571.623s-16.62,11.927-23.888,1.463-14.308-15.972-4-24.03,15.161-5.511,18.437-2.609S-1898.09,2568.251-1902.226,2571.623Z" transform="translate(1950.297 -2472.166)" fill="#ffb07b"/>
        <path id="Path_68004" data-name="Path 68004" d="M-1932.927,2516.293a26.766,26.766,0,0,0-1.937-6.853s-1.043,4.32-8.939,3.724-20.409.777-24.581,9.774q-.4.859-.712,1.765a20.816,20.816,0,0,1-.937-4.984c-1.5,3.873,0,8.719,0,8.719h0c-.022.141-.041.282-.062.424-1.742,1.473-3.206,6.053-3.206,6.053a5.486,5.486,0,0,1,2.952-2.624c-.036,7,2.8,13.845,7.787,15.883,7.287,2.979,7.229.706,14.558,5.567,0,0,1.965-2.439.625-4.078s-6.406-4.022-3.576-6.406,3.873.3,4.916-1.341-4.171-6.406,2.533-10.875S-1932.331,2520.315-1932.927,2516.293Z" transform="translate(1973.299 -2451.463)" fill="#233862"/>
      </g>
    </g>
  </g>
</svg>
