<svg xmlns="http://www.w3.org/2000/svg" width="633.264" height="659.431" viewBox="0 0 633.264 659.431">
  <g id="our-story" transform="translate(-1003.194 -1177.182)">
    <path id="download_19_" data-name="download (19)" d="M514.932,442.328c0-.559-8.052,3.911-8.388,4.47-10.065,5.029-20.466,8.381-31.2,11.734-26.5,7.822-53.68,8.381-80.856,7.264-107.025-5.587-227.8-35.2-323.423-134.658C38.856,297.612-9.456,236.15,1.615,156.808c4.7-32.966,24.156-57.551,38.918-73.2,35.9-37.995,77.5-55.875,118.1-67.609C278.4-18.08,419.65-.2,532.043,93.669a266.147,266.147,0,0,1,42.273,44.141,237.1,237.1,0,0,1,28.853,50.846C658.527,325.55,540.1,413.832,486.415,438.417c-18.453,8.381-23.821,9.5-42.609,15.086" transform="matrix(-0.999, 0.035, -0.035, -0.999, 1636.458, 1642.949)" fill="#ffdbf3"/>
    <g id="Group_42653" data-name="Group 42653" transform="translate(-19.106 -23)">
      <g id="Group_42645" data-name="Group 42645" transform="translate(-533.667 -673.956)">
        <g id="Group_42625" data-name="Group 42625" transform="translate(2014.694 2164.52)">
          <path id="Path_67868" data-name="Path 67868" d="M2851.67,2166.57c-6.965-3.613-12.545-1.342-12.545-1.342-21.31-2.5-27.527,22.35-27.238,30.9s1.264,17.735-8.253,28.844c-27.489,32.089,30.083,33.5,30.083,33.5.487-25.638,31.22-16.283,29.874-13.686C2902.99,2254.24,2867.51,2174.78,2851.67,2166.57Z" transform="translate(-2746.926 -2164.52)" fill="#1a1a1a"/>
          <path id="Path_67869" data-name="Path 67869" d="M2705.57,2405.92s-3.748-5.705-6.768-5.817-8.613-1.678-8.166-.559,3.915,1.231,4.251,1.9-5.146,1.678-6.712,1.79-5.258,0-5.146.782,6.654,4.027,11.269,3.58,10.32,1.342,10.32,1.342Z" transform="translate(-2683.031 -2296.986)" fill="#a16d3c"/>
          <path id="Path_67870" data-name="Path 67870" d="M2786.05,2359.87a56.2,56.2,0,0,1-5.732,8.668c-4.453,5.577-11.319,12.021-19.94,13.292a21.4,21.4,0,0,1-11.846-1.923h-.013c-10.47-4.648-18.343-15.336-18.343-15.336a8.607,8.607,0,0,1,1.175-8.447s21.142,4.755,23.156,3.749,13.759-34.845,16.555-39.1,12.329-6.46,12.329-6.46Z" transform="translate(-2709.313 -2249.094)" fill="#fcb200"/>
          <path id="Path_67871" data-name="Path 67871" d="M2804.9,2424.32c-4.453,5.577-11.319,12.02-19.94,13.292a21.4,21.4,0,0,1-11.846-1.923c.409.054,10.866,1.346,15.035-6.111,4.251-7.608,8.849-19.689,15.165-15.662C2806.04,2415.66,2805.92,2419.98,2804.9,2424.32Z" transform="translate(-2733.891 -2304.878)" fill="#f0aa01"/>
          <path id="Path_67872" data-name="Path 67872" d="M3010.14,2939.48s6.452,5.887,5.192,10.07-7.08,6.973-7.867,12.085-3.933,7.9-6.766,7.9h-13.5s-2.085-3.6,2.95-4.682,6.934-7.093,6.619-12.67a98.322,98.322,0,0,1,.472-13.014l10.7-2.479Z" transform="translate(-2854.518 -2600.486)" fill="#1a1a1a"/>
          <path id="Path_67873" data-name="Path 67873" d="M2867.37,2948.84s2.321,24.941-.511,26.336l-36.246-.074s0-4.183,5.822-5.113,16.05-4.338,17.78-11.93S2867.37,2948.84,2867.37,2948.84Z" transform="translate(-2766.355 -2607.343)" fill="#1a1a1a"/>
          <path id="Path_67874" data-name="Path 67874" d="M2895.27,2381.41c-7.459-16.728-12.024-21.529-11.152-26.721.648-3.864-1.975-72.047-1.975-72.047-.885-.274-2.659-.519-3.629-.735a9.1,9.1,0,0,1-6.646-5.78,46.392,46.392,0,0,1-2.255-15.384l-.956.188-16.065,3.181s.365,5.056.376,9.818v.119a9.24,9.24,0,0,1-6.668,8.935c-2.029.585-3.795,1.086-3.795,1.086s-5.9,16.842-7.026,34.144,10.727,24.819-.089,59.394C2824.35,2412.92,2899.39,2390.65,2895.27,2381.41Z" transform="translate(-2768.427 -2218.845)" fill="#a16d3c"/>
          <path id="Path_67875" data-name="Path 67875" d="M2876.34,2264.35s.366,5.056.376,9.819c8.99-.253,13.742-8.454,15.689-13Z" transform="translate(-2792.173 -2219.089)" fill="#a77649"/>
          <path id="Path_67876" data-name="Path 67876" d="M2860.26,2232.3s21.27.351,21.285-12.9,2.77-22.127-10.81-22.911-16.224,4.268-17.3,8.689S2854.73,2231.86,2860.26,2232.3Z" transform="translate(-2779.094 -2182.522)" fill="#a16d3c"/>
          <path id="Path_67877" data-name="Path 67877" d="M2871.25,2192.35s5.823,15.544,14.761,17.842,12.814-.1,12.814-.1a25.311,25.311,0,0,1-8.278-14.952S2875.65,2184.96,2871.25,2192.35Z" transform="translate(-2789.301 -2178.714)" fill="#1a1a1a"/>
          <path id="Path_67878" data-name="Path 67878" d="M2860.6,2195.46s-4.319,1.615-6.1,4.764a21.421,21.421,0,0,0-2.876,12.164s-4.387-10.565.544-16.542C2857.4,2189.5,2860.6,2195.46,2860.6,2195.46Z" transform="translate(-2777.207 -2180.555)" fill="#1a1a1a"/>
          <path id="Path_67879" data-name="Path 67879" d="M2870.11,2258.99a5.344,5.344,0,0,1-4.4,1.792,3.908,3.908,0,0,1-3.277-2.164S2866.78,2257.58,2870.11,2258.99Z" transform="translate(-2784.321 -2217.44)" fill="#a16d3c"/>
          <path id="Path_67880" data-name="Path 67880" d="M2894.15,2341.19a144.217,144.217,0,0,1,0,16.752c-.359,6.058-6.487,14.172-7.356,16.178-2.181,5.034-4.641,5.853-4.641,5.853l-19.031,4.665-6.691,1.637-21.1-6.3s-9.611-26.827-5.752-41.929a116.047,116.047,0,0,1,9.756-25.588s17.219,16.86,39.639-1.43Z" transform="translate(-2765.256 -2247.24)" fill="#fcb200"/>
          <path id="Path_67881" data-name="Path 67881" d="M2922.55,2416.52c-.359,6.057-.916,11.7-1.785,13.705-2.181,5.034-4.641,5.853-4.641,5.853l-19.031,4.665-8.266-2.43s27.593-4.181,24.535-27.921Z" transform="translate(-2799.222 -2303.337)" fill="#f2ccaa"/>
          <path id="Path_67882" data-name="Path 67882" d="M2832.62,2478.74s-10.45,32.527-11.121,43.6,19.976,157.321,20.806,162.425c.783,4.81,6.755,7.876,6.755,7.876a9.038,9.038,0,0,0,6.668.514c5.44-1.536,7.159-3.375,7.159-3.375s8.134-104.3,3.1-141.561a590.142,590.142,0,0,1-5.093-69.479Z" transform="translate(-2761.199 -2341.925)" fill="#1a1a1a"/>
          <path id="Path_67883" data-name="Path 67883" d="M2895.79,2476.51s15.94,21.388,17.427,35.846,2.331,65.244,5.5,79.338,14.8,41.219,14.8,85.181a8.769,8.769,0,0,1-4.943,3.862,40.9,40.9,0,0,1-4.347,1.2,6.833,6.833,0,0,1-7.643-3.628c-7.864-15.834-32.915-66.9-34.2-77.5-.909-7.5-8.819-57.153-26.072-86.288-4.142-7,2.542-34.81,2.542-34.81Z" transform="translate(-2780.102 -2340.667)" fill="#2b2b2b"/>
          <path id="Path_67884" data-name="Path 67884" d="M2869.37,2259.48s-.367,1.562-4.252,1.32c0,0-3.261-.2-3.162-1.917a10.49,10.49,0,0,1,7.414.6Z" transform="translate(-2784.052 -2217.569)" fill="#a16d3c"/>
          <path id="Path_67885" data-name="Path 67885" d="M2842.46,2467.2s4.2,3.319,12.529,3.487c9.955.2,34.622-2.538,34.622-2.538a20.413,20.413,0,0,1,1.051,6.3s-30.127,7.6-47.582,1.11C2843.08,2475.55,2840.82,2471.32,2842.46,2467.2Z" transform="translate(-2772.707 -2335.413)" fill="#920061"/>
          <g id="Group_42624" data-name="Group 42624" transform="translate(75.347 133.571)">
            <path id="Path_67886" data-name="Path 67886" d="M2860.63,2481.58c-2.5,0-4.542-2.306-4.542-5.141s2.038-5.141,4.542-5.141,4.542,2.306,4.542,5.141S2863.13,2481.58,2860.63,2481.58Zm0-8.776c-1.675,0-3.037,1.631-3.037,3.635s1.362,3.635,3.037,3.635,3.037-1.631,3.037-3.635-1.367-3.639-3.037-3.639Z" transform="translate(-2856.082 -2471.296)" fill="#fff"/>
          </g>
          <rect id="Rectangle_1094" data-name="Rectangle 1094" width="40.927" height="56.022" transform="matrix(0.754, -0.657, 0.657, 0.754, 81.676, 122.299)" fill="#af0ecc"/>
          <path id="Path_67887" data-name="Path 67887" d="M2920.91,2480.94s-11.309,1.323-11.273,4.007,2.818,8.2,4.215,8.444,9.2-7.458,9.2-7.458Z" transform="translate(-2810.971 -2343.171)" fill="#a16d3c"/>
          <path id="Path_67888" data-name="Path 67888" d="M2935.33,2311.03s15.1,1.058,20.886,15.128,16.769,37.692,16.769,41.666-6.134,16.225-39.077,23.268c0,0-3.408-3.584-3.2-6.418,0,0,20.564-17.663,20.509-19.728-.1-3.9-3.371-9.06-21.426-27.12C2924.88,2332.92,2935.33,2311.03,2935.33,2311.03Z" transform="translate(-2821.608 -2247.24)" fill="#fcb200"/>
        </g>
        <g id="Group_42629" data-name="Group 42629" transform="translate(1806.106 2319.785)">
          <g id="Group_42626" data-name="Group 42626" transform="translate(45.612 102.922)">
            <path id="Path_67889" data-name="Path 67889" d="M2223.29,2867.5h-.156a1.636,1.636,0,0,1-1.635-1.673l2.479-107.473,7.3-.852-6.229,108.332a1.768,1.768,0,0,1-1.759,1.666Z" transform="translate(-2221.499 -2757.505)" fill="#fcb200"/>
          </g>
          <g id="Group_42627" data-name="Group 42627" transform="translate(3.048 102.922)">
            <path id="Path_67890" data-name="Path 67890" d="M2125.53,2867.5h-.156a1.636,1.636,0,0,1-1.636-1.673l2.48-107.473,7.3-.852-6.229,108.332a1.767,1.767,0,0,1-1.759,1.666Z" transform="translate(-2123.742 -2757.505)" fill="#df9f04"/>
          </g>
          <g id="Group_42628" data-name="Group 42628" transform="translate(114.299 102.922)">
            <path id="Path_67891" data-name="Path 67891" d="M2387.25,2867.5h.156a1.636,1.636,0,0,0,1.635-1.673l-2.48-107.473-7.3-.852,6.229,108.332a1.767,1.767,0,0,0,1.76,1.666Z" transform="translate(-2379.254 -2757.505)" fill="#fcb200"/>
          </g>
          <path id="Path_67892" data-name="Path 67892" d="M2116.74,2618.23v-73.645a23.464,23.464,0,0,1,23.464-23.464h53.059a23.464,23.464,0,0,1,23.463,23.463v76.46Z" transform="translate(-2116.741 -2521.121)" fill="#fcb200"/>
          <path id="Rectangle_1095" data-name="Rectangle 1095" d="M0,0H109.493V11.627H11.627A11.627,11.627,0,0,1,0,0Z" transform="translate(0 97.109)" fill="#df9f04"/>
          <path id="Rectangle_1096" data-name="Rectangle 1096" d="M5.813,0h76.3a5.813,5.813,0,0,1,5.813,5.813h0a5.814,5.814,0,0,1-5.814,5.814H5.814A5.814,5.814,0,0,1,0,5.813H0A5.813,5.813,0,0,1,5.813,0Z" transform="translate(39.055 97.109)" fill="#fcb200"/>
        </g>
        <g id="Group_42633" data-name="Group 42633" transform="translate(1799.095 2211.919)">
          <path id="Path_67893" data-name="Path 67893" d="M2315.67,2699.2c-7.6,13.23-17.161,18.336-17.161,18.336h-39.774S2321.47,2689.1,2315.67,2699.2Z" transform="translate(-2189.9 -2512.573)" fill="#1a1a1a"/>
          <g id="Group_42630" data-name="Group 42630">
            <path id="Path_67894" data-name="Path 67894" d="M2318.11,2894.32a3.676,3.676,0,0,0-.656,3.933.032.032,0,0,0,.01.02c.949,2.622,4.083,5.549,7.724,8.472.465.375.879.717,1.239,1.033.095.083.19.166.279.25.073.064.144.132.214.194,3.4,3.129,2.117,3.846,8.216,10.2,6.954,7.236,11.742,7.366,13.1,6.706,1.153-.561-1.188-4.4-3.782-8.713-.126-.207-.25-.418-.378-.629-.345-.573-.689-1.155-1.032-1.732-3.04-5.191-2.259-7.627-1.539-15.352.585-6.278,9.766-35.073,9.766-35.073l-13.326-2.3s-4.013,22.929-8.436,26.461c-2.364,1.882-5.011,1.906-7.284,3.3-.16.1-.318.2-.472.3a17.47,17.47,0,0,0-3.644,2.929Z" transform="translate(-2222.89 -2605.336)" fill="#ffb27d"/>
            <path id="Path_67895" data-name="Path 67895" d="M2318.11,2932.91a3.676,3.676,0,0,0-.656,3.933.032.032,0,0,0,.01.02c1.161,2.619,4.217,5.531,7.736,8.445.46.381.865.732,1.227,1.06.095.083.19.166.279.249.073.064.144.132.214.194,3.4,3.129,2.117,3.846,8.216,10.2,6.954,7.236,11.742,7.366,13.1,6.706,1.153-.562-1.188-4.4-3.782-8.713a29.626,29.626,0,0,1-12.4-9.134c-4.187-5.344-6.98-12.209-9.832-16.186-.16.1-.318.2-.472.3a17.482,17.482,0,0,0-3.641,2.926Z" transform="translate(-2222.89 -2643.928)" fill="#1a1a1a"/>
            <path id="Path_67896" data-name="Path 67896" d="M2552.33,2880.74c.823,4.114,6.686,3.427,13.238,1.827s5,.3,14.318-.73,12.148-4.508,12.432-5.9c.255-1.23-4.353-1.664-9.294-2.233-.621-.07-1.245-.146-1.87-.223-5.58-.7-9.665-4.3-14.733-7.257-4.8-2.8-11.964-14.211-11.964-14.211l-12.786,1.013s6.71,10.192,9.3,14.623c1.527,2.606,1.446,6.052,1.255,8.714a16.4,16.4,0,0,0,.1,4.376Z" transform="translate(-2349.643 -2600.076)" fill="#ffb27d"/>
            <path id="Path_67897" data-name="Path 67897" d="M2579.13,2910.69c6.551-1.6,5,.3,14.318-.73s12.148-4.508,12.433-5.9c.255-1.23-4.352-1.664-9.294-2.233l-.046.1a26.285,26.285,0,0,1-13.352,4.15c-6.326.154-13.026-1.658-17.394-1.588a16.414,16.414,0,0,0,.1,4.374C2566.72,2912.98,2572.58,2912.29,2579.13,2910.69Z" transform="translate(-2363.21 -2628.204)" fill="#1a1a1a"/>
            <path id="Path_67898" data-name="Path 67898" d="M2396.72,2703.62l-11.953,32.165-15.606,42a25.291,25.291,0,0,1-8.291-.758,35.947,35.947,0,0,1-8.018-3.9s4.333-45.094,12.416-70.979c2.072-6.645,4.394-12.019,6.955-15.044C2384.76,2672.29,2396.72,2703.62,2396.72,2703.62Z" transform="translate(-2243.039 -2504.721)" fill="#1a1a1a"/>
            <path id="Path_67899" data-name="Path 67899" d="M2275.77,2604.55c-7.831-2.526-30.166.718-52.6,5.109l-4.7-7.748L2170,2598.13s-15.991,35.463-7.236,58.06c1.287,3.321,3.843,5.451,8.2,5.521h.708s28.843-.016,38.209-.016c24.1,0,51-16.567,54.486-17.264,5.7-1.139,7.975,10.255,13.672,22.218s53.549,52.98,53.549,52.98,7.355.073,10.394-1.066a10.235,10.235,0,0,0,4.462-2.817S2293.43,2610.25,2275.77,2604.55Z" transform="translate(-2134.238 -2456.732)" fill="#2b2b2b"/>
            <path id="Path_67900" data-name="Path 67900" d="M2183.19,2277.45c-6.208-3.26-15.654-3.7-17.188-3.907-18.364-2.468-29.417,24.216-30.067,32.3-1.2,14.9-9.082,17.176-20.179,26.509-22.251,18.715-15.726,40.462-3.559,48.542,7.3,4.848,20.167,0,20.167,0,.182.127,35.191-19.571,52.448-29.073C2210.68,2348.15,2199.01,2285.76,2183.19,2277.45Z" transform="translate(-2100.869 -2273.382)" fill="#1a1a1a"/>
            <path id="Path_67901" data-name="Path 67901" d="M2229.6,2399.78c.076.049-8.491,2.974-14.219.437-5.389-2.381-9.471-11.247-9.392-11.252,2.451-.113,5.143-2.256,7.215-16.319l1.044.374,17.551,6.316s-1.272,5.632-2.094,10.994C2229.01,2394.83,2228.64,2399.14,2229.6,2399.78Z" transform="translate(-2160.118 -2329.424)" fill="#ffb27d"/>
            <path id="Path_67902" data-name="Path 67902" d="M2242.51,2379.82s-1.272,5.632-2.094,10.993c-10.081-1.815-14.037-11.859-15.457-17.309Z" transform="translate(-2170.83 -2329.91)" fill="#ed975d"/>
            <path id="Path_67903" data-name="Path 67903" d="M2242.84,2346.07s-24.014-3.223-21.776-18.147.644-25.39,16.071-23.963,17.545,7.567,18.01,12.729S2249.15,2346.53,2242.84,2346.07Z" transform="translate(-2168.55 -2290.574)" fill="#ffb27d"/>
            <path id="Path_67904" data-name="Path 67904" d="M2245.34,2306.8s-15.372,13.247-25.829,14.315-14.414-2.289-14.414-2.289a40.844,40.844,0,0,0,9.872-13.375,7.351,7.351,0,0,1,6.061-4.334C2228.49,2300.48,2242.65,2300.18,2245.34,2306.8Z" transform="translate(-2159.615 -2288.864)" fill="#1a1a1a"/>
            <path id="Path_67905" data-name="Path 67905" d="M2275.45,2308.13s5.143,4.972,6.762,8.66c1.563,3.559,2.031,12.071.787,15.452,0,0,8.013-15.58,3.477-23.149C2281.67,2301.07,2275.45,2308.13,2275.45,2308.13Z" transform="translate(-2199.338 -2291.379)" fill="#1a1a1a"/>
            <path id="Path_67906" data-name="Path 67906" d="M2223.09,2455.58c-.726,48.609-.2,38.452-5.516,43.064-1.281,1.11-4.883,1.772-9.624,2.085-14.9.99-41.106-1.466-42.1-4.221-3.438-9.531-1.011-12.492-3.88-27.084-.3-1.552-.669-3.231-1.1-5.061-2.391-10.022-4.718-13.431,3.766-29.532,7.694-14.584,15.688-26.422,16.407-26,20.3,12.051,21.937,1.922,21.937,1.922S2223.45,2431.87,2223.09,2455.58Z" transform="translate(-2133.395 -2349.852)" fill="#008dbf"/>
            <path id="Path_67907" data-name="Path 67907" d="M2384.77,2760.45l-15.606,42a25.278,25.278,0,0,1-8.291-.758,35.932,35.932,0,0,1-8.018-3.9s4.333-45.093,12.416-70.979Z" transform="translate(-2243.039 -2529.385)" fill="#2b2b2b"/>
            <path id="Path_67908" data-name="Path 67908" d="M2260.46,2413.26s20.889,3.541,23.342,12.535,16.887,61.865,16.887,61.865-10.619,1.908-15.525-3-17.069-45.513-17.069-45.513Z" transform="translate(-2190.873 -2352.355)" fill="#008dbf"/>
            <path id="Path_67909" data-name="Path 67909" d="M2212.26,2553.06c-14.9.989-41.106-1.467-42.1-4.221-3.438-9.531-1.01-12.492-3.879-27.083l7.189-20.244s-1.189,22.542,5.459,28.472,27.219,11.446,30.451,16.4a18.13,18.13,0,0,1,2.88,6.676Z" transform="translate(-2137.697 -2402.183)" fill="#027fab"/>
            <path id="Path_67910" data-name="Path 67910" d="M2232.66,2595.18s14.705-3.274,17.077-1.969,8.172,6.057,8.9,7.711-5.282-1.256-7.237-1.779c-1.265-.34-4.6.818-6.246,1.367-6.94,2.314-11.193,1.124-11.193,1.124Z" transform="translate(-2175.178 -2453.78)" fill="#ffb27d"/>
            <path id="Path_67911" data-name="Path 67911" d="M2148.27,2408.82s-19.745,1.216-26.58,10.749c-9.622,13.42-28.708,70.612-17.77,78.24,12.319,8.59,56.066,2.247,56.066,2.247s1.456-6.8-.569-10.1-34.942-8.609-36.461-10.128,18.99-29.624,18.99-34.182S2148.27,2408.82,2148.27,2408.82Z" transform="translate(-2100.639 -2349.853)" fill="#008dbf"/>
            <path id="Path_67912" data-name="Path 67912" d="M2273.52,2603s3.081,3.974,4.091,4.449a3.011,3.011,0,0,0,1.663.356l-2.076-3.737Z" transform="translate(-2198.246 -2459.486)" fill="#ffb27d"/>
            <path id="Path_67913" data-name="Path 67913" d="M2271.88,2593.6l8.958,4.35a1.6,1.6,0,0,1-1.484.573,21.324,21.324,0,0,1-3.886-1.068Z" transform="translate(-2197.323 -2454.179)" fill="#ffb27d"/>
          </g>
          <g id="Group_42632" data-name="Group 42632" transform="translate(57.482 101.048)">
            <g id="Group_42631" data-name="Group 42631">
              <path id="Path_67914" data-name="Path 67914" d="M2282.91,2558.47h70.86l21.316-53.007H2304.34Z" transform="translate(-2261.033 -2505.462)" fill="#1a1a1a"/>
              <path id="Path_67915" data-name="Path 67915" d="M2326.23,2622.46h-93.57v2.066h92.74Z" transform="translate(-2232.66 -2571.52)" fill="#1a1a1a"/>
            </g>
            <path id="Path_67916" data-name="Path 67916" d="M2395.65,2561.96a2.455,2.455,0,0,0-2.406-3.374,4.836,4.836,0,0,0-4.342,3.374,2.456,2.456,0,0,0,2.407,3.374,4.834,4.834,0,0,0,4.341-3.374Z" transform="translate(-2320.797 -2535.455)" fill="#fff"/>
          </g>
        </g>
        <g id="Group_42638" data-name="Group 42638" transform="translate(1568.773 2188.211)">
          <path id="Rectangle_1097" data-name="Rectangle 1097" d="M4.882,0h0A4.882,4.882,0,0,1,9.764,4.882V105.32a4.882,4.882,0,0,1-4.882,4.88h0A4.882,4.882,0,0,1,0,105.32V4.882A4.882,4.882,0,0,1,4.882,0Z" transform="translate(0 127.586)" fill="#7e7e7e"/>
          <g id="Group_42634" data-name="Group 42634" transform="translate(3.048 234.495)">
            <path id="Path_67917" data-name="Path 67917" d="M1527.57,2867.5h-.156a1.636,1.636,0,0,1-1.635-1.673l2.48-107.473,7.3-.852-6.229,108.332a1.767,1.767,0,0,1-1.76,1.666Z" transform="translate(-1525.774 -2757.505)" fill="#7e7e7e"/>
          </g>
          <g id="Group_42635" data-name="Group 42635" transform="translate(114.299 234.495)">
            <path id="Path_67918" data-name="Path 67918" d="M1789.28,2867.5h.156a1.635,1.635,0,0,0,1.635-1.673l-2.48-107.473-7.3-.852,6.228,108.332A1.768,1.768,0,0,0,1789.28,2867.5Z" transform="translate(-1781.286 -2757.505)" fill="#7e7e7e"/>
          </g>
          <path id="Path_67919" data-name="Path 67919" d="M1640.54,2744.15H1518.77v4.581a7.045,7.045,0,0,0,7.045,7.045h114.724a5.209,5.209,0,0,0,5.21-5.21v-1.207a5.209,5.209,0,0,0-5.209-5.209Z" transform="translate(-1518.773 -2515.472)" fill="#7e7e7e"/>
          <path id="Path_67920" data-name="Path 67920" d="M1937.93,2949.43s-1.794,22.284,2.2,22.58c.531.039,20.238.039,20.238.039l25.157-.146s-.165-6.061-7.519-7.343-21.908-7.469-26.363-17.188C1946.96,2937.15,1937.93,2949.43,1937.93,2949.43Z" transform="translate(-1755.203 -2627.912)" fill="#1a1a1a"/>
          <path id="Path_67921" data-name="Path 67921" d="M1590.85,2658.53s.837,21.9,4.7,29.243h88.976s21.378,2.213,23.327,3.654c2.459,1.819-8.563,19.864,32.755,90.384l20.239-.515s-21.163-114.369-24.923-117.264c-5.625-4.33-71.448-19.4-82.716-19.729S1590.85,2658.53,1590.85,2658.53Z" transform="translate(-1559.467 -2459.096)" fill="#fcb200"/>
          <path id="Path_67922" data-name="Path 67922" d="M1661.51,2332.44c6.866,4.252,7.253,12.724,7.253,12.724-16.747,4.332-41.113-14.26-41.113-14.26s10.779-7.243,14.773-23.159q.3-1.2.549-2.469a50.223,50.223,0,0,0,.907-8.714l7.693,6.891,12.792,11.46a109.819,109.819,0,0,1-1.89,12.936Q1662.06,2329.99,1661.51,2332.44Z" transform="translate(-1580.245 -2262.762)" fill="#ffb27d"/>
          <path id="Path_67923" data-name="Path 67923" d="M1637.83,2451.63c-.571,3.737.587,6.743,1.143,9.522a10.752,10.752,0,0,1,.252,3.114c-.916,10.336,2.769,11.649,1.616,14.984a81.536,81.536,0,0,1-11.144,5.034c-3.135,1.184-6.892,2.455-11.216,3.649l-.685.186c-16.739,4.524-34.338,5.491-39.31,5.358-9.5-.254-11.414-24.328-7.891-54.649,5.489-47.238,12.91-70.14,32.469-86.689,1.232-1.042.4,2.5,6.975,5.674a30.757,30.757,0,0,0,19.087,2.347l4.473,4.586c8.884,14.032,9.816,30.689,9.059,44.571A408.232,408.232,0,0,1,1637.83,2451.63Z" transform="translate(-1547.102 -2294.034)" fill="#920061"/>
          <path id="Path_67924" data-name="Path 67924" d="M1683.92,2323.85s.681-.717-.919,7.464c-14.169-4.1-18.785-11.318-20.677-16.1-.538-1.352,5.267-2.072,8.8-2.82Z" transform="translate(-1599.802 -2271.699)" fill="#ed975d"/>
          <path id="Path_67925" data-name="Path 67925" d="M1685.75,2280.04s-27.339,3.915-29.515-13.148-7.17-28.049,10.193-31.27,21.592,2.857,23.7,8.375S1692.81,2278.58,1685.75,2280.04Z" transform="translate(-1595.047 -2227.851)" fill="#ffb27d"/>
          <g id="Group_42636" data-name="Group 42636" transform="translate(135.493 123.906)">
            <rect id="Rectangle_1098" data-name="Rectangle 1098" width="2.191" height="57.365" transform="matrix(-0.954, -0.299, 0.299, -0.954, 60.195, 55.403)" fill="#1a1a1a"/>
            <rect id="Rectangle_1099" data-name="Rectangle 1099" width="60.197" height="3.601" transform="translate(60.194 55.403) rotate(-179.427)" fill="#1a1a1a"/>
          </g>
          <path id="Path_67926" data-name="Path 67926" d="M1636.87,2227.05c-.219-.256-.728-.465-1.864-.535a4.621,4.621,0,0,1,2.127-.582c.25-1.578,1.113-4.367,3.837-5.025a3.408,3.408,0,0,0-1.672,2.445c3.175-3.209,9.941-5.51,28.615-3.888,24.61,2.138,16.37,17.841,13.167,19.7s-11.187-3.362-17.13-2.937-7.141,9-9.165,10.16-1.216-.914-3.932-2.168-3.011,3.262-2.247,6.205-3.012,6.788-3.012,6.788l-3.753-4.107c-3.753-4.106-7.185-21.4-5.435-25.07C1636.56,2227.71,1636.71,2227.38,1636.87,2227.05Z" transform="translate(-1584.397 -2218.933)" fill="#1a1a1a"/>
          <path id="Path_67927" data-name="Path 67927" d="M1679.16,2550.28a81.615,81.615,0,0,1-11.144,5.034c-31.193-22.756-31.023-76.629-31.193-77.55l39.177,34.5,1.292,19.92a10.722,10.722,0,0,1,.252,3.114C1676.63,2545.63,1680.32,2546.95,1679.16,2550.28Z" transform="translate(-1585.425 -2365.07)" fill="#7b0051"/>
          <g id="Group_42637" data-name="Group 42637" transform="translate(150.21 154.027)">
            <path id="Path_67928" data-name="Path 67928" d="M1863.77,2578.96a9.677,9.677,0,0,0,5.155-.835c2.647-1.243,11.778-5.165,13.493-4.628s7.314,3.7,8.632,4.3,3.649,3.682,3.649,3.682c-.967.976-4.368-1.263-5.887-1.221s-12.742,6.172-16.077,6.306a64.3,64.3,0,0,1-8.533-.551Z" transform="translate(-1863.765 -2573.118)" fill="#ffb27d"/>
            <path id="Path_67929" data-name="Path 67929" d="M1910.48,2587.13c.029.183,4.1,4.721,7.207,3.282l-3.4-3.361Z" transform="translate(-1890.14 -2580.8)" fill="#ffb27d"/>
            <path id="Path_67930" data-name="Path 67930" d="M1875.6,2577.7a58.664,58.664,0,0,0,4.864-5.008s.729.333.759.949a8.16,8.16,0,0,1-.956,2.919Z" transform="translate(-1870.449 -2572.69)" fill="#ffb27d"/>
          </g>
          <path id="Path_67931" data-name="Path 67931" d="M1663.67,2394.95c-20.079-12.228-43.778,9.136-33.814,30.43,11.554,24.69,30.787,54.8,46.071,56.584,10.894,1.268,42.025,5.259,55.21,2.8,0,0,6.387.314,2.924-9.973,0,0-42.6-11.873-49.679-21.083-3.792-4.935-10.255-14.927-20.246-58.472C1664.09,2395.05,1663.82,2395.04,1663.67,2394.95Z" transform="translate(-1580.162 -2316.29)" fill="#920061"/>
        </g>
        <g id="Group_42642" data-name="Group 42642" transform="translate(1646.189 2366.74)">
          <g id="Group_42639" data-name="Group 42639" transform="translate(361.922 14.008)">
            <path id="Path_67932" data-name="Path 67932" d="M2936.19,2813.09h.216a2.26,2.26,0,0,0,2.259-2.312l-3.426-148.469-10.09-1.177,8.6,149.656A2.441,2.441,0,0,0,2936.19,2813.09Z" transform="translate(-2925.147 -2661.135)" fill="#7e7e7e"/>
          </g>
          <g id="Group_42641" data-name="Group 42641">
            <g id="Group_42640" data-name="Group 42640" transform="translate(54.386 14.008)">
              <path id="Path_67933" data-name="Path 67933" d="M1807.89,2813.09h-.215a2.26,2.26,0,0,1-2.259-2.312l3.426-148.469,10.09-1.177-8.6,149.656a2.441,2.441,0,0,1-2.442,2.3Z" transform="translate(-1805.411 -2661.135)" fill="#7e7e7e"/>
            </g>
            <path id="Path_67948" data-name="Path 67948" d="M38.958,0H379.583a8.958,8.958,0,0,1,0,17.916H38.958A8.958,8.958,0,0,1,30,8.958h0A8.958,8.958,0,0,1,38.958,0Z" fill="#7e7e7e"/>
          </g>
        </g>
      </g>
      <g id="Group_42651" data-name="Group 42651" transform="translate(-2.385 1067.113)">
        <path id="Path_67937" data-name="Path 67937" d="M1523.27,319.25a86.543,86.543,0,0,1-19.706,55.632,72.713,72.713,0,0,0-16.719,46.106v24.29a27.874,27.874,0,0,1-6.655,18.077,28.193,28.193,0,0,1-19.521,9.954c-.629.043-1.217,0-1.857,0h-44.858c-.6,0-1.256.039-1.85,0a28.131,28.131,0,0,1-26.18-28.031V421.03a72.428,72.428,0,0,0-16.635-46.043A86.89,86.89,0,1,1,1523.27,319.25Z" fill="#fcb200"/>
        <path id="Path_67938" data-name="Path 67938" d="M1637.76,1153.4c-.226,1.739-4.009,30.78-4.045,31.057-.624,4.791-6.1,8.453-12.654,8.453H1606.3c-6.489,0-11.958-3.6-12.645-8.364-.716-5.01-3.466-24.21-4.459-31.145Z" transform="translate(-177.09 -680.086)" fill="#1a1a1a"/>
        <g id="Group_42646" data-name="Group 42646" transform="translate(1413.456 473.31)">
          <path id="Path_67939" data-name="Path 67939" d="M1635.72,1153.4h-8.343c-13.464,3.893-26.818,7.74-33.005,9.486l.325,2.269.008.051.329,2.3c5.011-1.388,17.041-4.833,46.448-13.358l.1-.746Z" transform="translate(-1594.376 -1153.396)" fill="#2b2b2b"/>
          <path id="Path_67940" data-name="Path 67940" d="M1602.03,1207.35h0v.05h0l.333,2.307c5.8-1.628,17.749-5.057,42.647-12.274l.329-2.506v-.021l.325-2.489c-15.733,4.555-34.777,10.056-43.964,12.666Z" transform="translate(-1599.792 -1182.233)" fill="#2b2b2b"/>
          <path id="Path_67941" data-name="Path 67941" d="M1617.85,1260.58l.081.046a14.3,14.3,0,0,0,3.437,1.43h0c6.829-1.957,16.964-4.884,32.039-9.25l.325-2.51v-.021l.325-2.489c-13.464,3.9-28.91,8.36-38.451,11.089a11.4,11.4,0,0,0,2.244,1.7Z" transform="translate(-1610.066 -1223.133)" fill="#2b2b2b"/>
        </g>
        <g id="Group_42650" data-name="Group 42650" transform="translate(1400.038 359.97)">
          <g id="Group_42647" data-name="Group 42647" transform="translate(0 1.851)">
            <path id="Path_67942" data-name="Path 67942" d="M1561.78,838.026,1543,727.193l3.875-.656,18.884,111.489Z" transform="translate(-1543.002 -726.537)" fill="#ffeac5"/>
          </g>
          <g id="Group_42648" data-name="Group 42648" transform="translate(48.164 3.579)">
            <path id="Path_67943" data-name="Path 67943" d="M1731.42,842.913h-4.012l20.106-109.761,3.865.707Z" transform="translate(-1727.406 -733.152)" fill="#ffeac5"/>
          </g>
          <g id="Group_42649" data-name="Group 42649" transform="translate(1.906)">
            <path id="Path_67944" data-name="Path 67944" d="M1595.11,741.792a7.654,7.654,0,0,1-1.7-.207,2.437,2.437,0,0,1-1.926-2.107c-.448-2.455,1.479-6.961,4.184-10.778-1.414-2.469-3.3-4.505-5.272-5.1-2.917-.885-7.394,1.809-10.511,5.25a23.325,23.325,0,0,1,1.533,2.5c1.6,3.016,2.744,6.873,1.174,8.655-.582.661-1.77,1.261-4.128.371-2.945-1.111-4-3.6-2.9-6.843a15.732,15.732,0,0,1,2.791-4.769c-2.415-3.149-5.641-5.543-8.821-5.142a9.745,9.745,0,0,0-4.367,1.648c2.034,3.784,2.5,8.586,1.091,11.163-.96,1.756-2.64,2.31-4.728,1.568-1.5-.534-2.284-2.6-1.994-5.258a12.147,12.147,0,0,1,4.078-7.778,10.1,10.1,0,0,0-2.261-2.534,7.488,7.488,0,0,0-10.2.508l-.855-.828c.054-.056,5.475-5.517,11.782-.62a11.184,11.184,0,0,1,2.476,2.751,10.93,10.93,0,0,1,4.827-1.8c3.565-.448,7.121,2.067,9.761,5.413,3.394-3.686,8.224-6.41,11.6-5.392,2.13.645,4.139,2.7,5.675,5.232a20.394,20.394,0,0,1,4.573-4.5c2.482-1.644,4.1-1.267,5.017-.662a8.977,8.977,0,0,1,2.411,2.41,13.356,13.356,0,0,1,2.308-1.486c2.876-1.433,5.516-1.327,7.436.3l-.769.908c-2.07-1.752-4.734-.838-6.137-.139a12.365,12.365,0,0,0-2.212,1.431c1.914,3.452,2.286,7.951,1.189,10.13a2.517,2.517,0,0,1-3.365,1.32,4.469,4.469,0,0,1-3.307-4.076c-.142-2.551,1.626-5.455,3.936-7.594a7.784,7.784,0,0,0-2.144-2.206c-1.123-.739-2.636-.049-3.707.66a20.072,20.072,0,0,0-4.6,4.621c1.784,3.394,2.708,7.35,2.032,9.9a3.847,3.847,0,0,1-3.97,3.08Zm1.179-11.927c-2.355,3.434-4.012,7.317-3.632,9.4a1.278,1.278,0,0,0,1.019,1.16c2.33.528,3.762-.151,4.256-2.022.568-2.161-.172-5.537-1.642-8.538Zm-17.2-.086a14.126,14.126,0,0,0-2.4,4.131c-.9,2.659-.163,4.458,2.2,5.348.95.358,2.21.642,2.815-.044.934-1.06.385-4.067-1.333-7.313a22.591,22.591,0,0,0-1.281-2.122Zm-14.87-3.768a10.942,10.942,0,0,0-3.5,6.856c-.221,2.029.278,3.678,1.211,4.009,1.511.537,2.62.2,3.286-1.019,1.2-2.209.764-6.457-1-9.846Zm43.891.759c-2.067,1.985-3.471,4.529-3.362,6.489a3.352,3.352,0,0,0,2.528,3.025,1.343,1.343,0,0,0,1.893-.738c.921-1.826.531-5.735-1.059-8.776Z" transform="translate(-1550.3 -719.449)" fill="#ffeac5"/>
          </g>
        </g>
        <path id="Path_67945" data-name="Path 67945" d="M1774.44,336.061c7.143,6.729,6.247,19.112-2.941,21.867-6.927,2.077-17.257-.7-22.362-9.538s-2.75-16.109,3.512-19.724S1767.01,329.06,1774.44,336.061Z" transform="translate(-293.202 -69.761)" fill="#ffeac5"/>
      </g>
      <g id="Group_42652" data-name="Group 42652" transform="translate(-491.469 841.267)" opacity="0.1">
        <path id="Path_67946" data-name="Path 67946" d="M1784.36,661.507l5.232-12.256.123-.293a3.178,3.178,0,0,0-1.364-4.007l-9.7-5.453a3.21,3.21,0,0,1-.447-.3,3.124,3.124,0,0,1-1.028-3.277,55.516,55.516,0,0,0,1.7-21.886,3.444,3.444,0,0,1,.022-.893,3.229,3.229,0,0,1,2.009-2.455l8.692-3.27a3.232,3.232,0,0,0,2.036-2.665,3.508,3.508,0,0,0-.084-1.114l-3.4-13.176a3.247,3.247,0,0,0-3.691-2.382l-12.181,2.067a3.137,3.137,0,0,1-3.1-1.308c-1.022-1.431-2.092-2.82-3.254-4.172a55.373,55.373,0,0,0-7.033-6.851l-.01-.012a3.2,3.2,0,0,1-1.033-3.5l3.92-11.919.191-.6a3.128,3.128,0,0,0-1.744-3.868l-12.527-5.353a3.273,3.273,0,0,0-4.121,1.4l-6.073,10.794a3.164,3.164,0,0,1-3.373,1.569,55.715,55.715,0,0,0-17.167-.491,3.184,3.184,0,0,1-3.358-2.043l-3.9-10.294a3.242,3.242,0,0,0-3.854-1.991l-13.233,3.408a3.1,3.1,0,0,0-2.279,3.519l2.409,14.321a3.251,3.251,0,0,1-1.291,3.169q-1.847,1.337-3.6,2.849a56.376,56.376,0,0,0-6.062,6.064,3.083,3.083,0,0,1-3.361.954L1664.1,581.06a3.19,3.19,0,0,0-3.926,1.773L1654.8,595.4a3.206,3.206,0,0,0,.98,3.754,2.317,2.317,0,0,0,.384.253l11.974,6.743a3.153,3.153,0,0,1,1.623,3.1,1.673,1.673,0,0,1-.047.332,9.7,9.7,0,0,0-.175.982,55.41,55.41,0,0,0-.948,11.819,3.077,3.077,0,0,1-2.039,3l-10.871,4.123a3.235,3.235,0,0,0-1.979,3.844l.752,2.932,2.651,10.223a3.193,3.193,0,0,0,3.625,2.354l12-2.036a3.08,3.08,0,0,1,3.2,1.517,56.086,56.086,0,0,0,6.036,8.5,55.273,55.273,0,0,0,5.5,5.549l-.826,2.5-3.37,10.26a3.084,3.084,0,0,0,1.038,3.434,2.8,2.8,0,0,0,.707.411l12.6,5.415a3.213,3.213,0,0,0,4.019-1.375l4.137-7.383a3.182,3.182,0,0,1,3.57-1.509,55.865,55.865,0,0,0,17.51,1.882,3.081,3.081,0,0,1,3.1,2.013l4.923,13.012a3.069,3.069,0,0,0,3.628,1.873l13.371-3.464a3.1,3.1,0,0,0,2.3-3.54l-2.511-14.9a3.161,3.161,0,0,1,1.476-3.244,53.821,53.821,0,0,0,6.869-5.052q1.776-1.527,3.394-3.167a3.2,3.2,0,0,1,3.248-.8l13.73,4.527a3.234,3.234,0,0,0,3.981-1.775Zm-35.693-57.5c6.185,9.07,6.941,19.329,3.539,27.2-11.971,27.576-49.1,25.107-57.514-3.314-2.063-7.3-1.187-15.444,4.081-23.373a29.946,29.946,0,0,1,49.9-.508Z" fill="#af0ecc"/>
      </g>
    </g>
  </g>
</svg>
