<svg id="reduced-cost-icon" xmlns="http://www.w3.org/2000/svg" width="100.875" height="100.875" viewBox="0 0 100.875 100.875">
  <path id="Path_77200" data-name="Path 77200" d="M157.549,33.67H93.528v92.662H174.4V50.518Z" transform="translate(-75.101 -27.036)" fill="#f2f2f2"/>
  <g id="Group_43327" data-name="Group 43327" transform="translate(18.427 6.634)">
    <path id="Path_77201" data-name="Path 77201" d="M106.85,33.67H93.528v92.662h73.093Z" transform="translate(-93.528 -33.67)" fill="#e5e5e5"/>
    <path id="Path_77202" data-name="Path 77202" d="M418.472,50.518H435.32L418.472,33.67Z" transform="translate(-354.451 -33.67)" fill="#e5e5e5"/>
  </g>
  <path id="Path_77203" data-name="Path 77203" d="M48.662,65.3H11.176A3.159,3.159,0,0,1,8.017,62.14V11.176a3.159,3.159,0,0,1,3.159-3.159H48.662a3.159,3.159,0,0,1,3.159,3.159V62.14A3.159,3.159,0,0,1,48.662,65.3Z" transform="translate(-6.437 -6.437)" fill="gray"/>
  <circle id="Ellipse_2374" data-name="Ellipse 2374" cx="21.902" cy="21.902" r="21.902" transform="translate(48.753 50.438)" fill="#fcb200"/>
  <path id="Path_77204" data-name="Path 77204" d="M275.248,309.184a21.9,21.9,0,0,1-18.154-34.159A21.9,21.9,0,1,0,287.5,305.436,21.8,21.8,0,0,1,275.248,309.184Z" transform="translate(-198.696 -220.839)" fill="#d5a124"/>
  <rect id="Rectangle_5834" data-name="Rectangle 5834" width="33.695" height="8.424" transform="translate(6.634 6.634)" fill="#920061"/>
  <path id="Path_77205" data-name="Path 77205" d="M89.838,33.67l-8.424,8.424h6.318l8.424-8.424Z" transform="translate(-65.374 -27.036)" fill="#f2f2f2"/>
  <g id="Group_43328" data-name="Group 43328" transform="translate(6.634 20.112)">
    <rect id="Rectangle_5835" data-name="Rectangle 5835" width="6.739" height="6.739" fill="#e1a30e"/>
    <rect id="Rectangle_5836" data-name="Rectangle 5836" width="6.739" height="6.739" transform="translate(13.478)" fill="#e1a30e"/>
    <rect id="Rectangle_5837" data-name="Rectangle 5837" width="6.739" height="6.739" transform="translate(26.956)" fill="#e1a30e"/>
    <rect id="Rectangle_5838" data-name="Rectangle 5838" width="6.739" height="6.739" transform="translate(0 13.478)" fill="#e1a30e"/>
    <rect id="Rectangle_5839" data-name="Rectangle 5839" width="6.739" height="6.739" transform="translate(13.478 13.478)" fill="#e1a30e"/>
    <rect id="Rectangle_5840" data-name="Rectangle 5840" width="6.739" height="6.739" transform="translate(0 26.956)" fill="#e1a30e"/>
    <rect id="Rectangle_5841" data-name="Rectangle 5841" width="6.739" height="6.739" transform="translate(13.478 26.956)" fill="#e1a30e"/>
  </g>
  <path id="Path_77206" data-name="Path 77206" d="M170.489,170.489v20.217h6.739V170.489Z" transform="translate(-136.899 -136.899)" fill="#fcb200"/>
  <path id="Path_77207" data-name="Path 77207" d="M321.918,112.224l4.765-4.765L306.431,87.206l-5.956-1.191,1.191,5.957Z" transform="translate(-241.275 -69.068)" fill="#5cc7ff"/>
  <path id="Path_77208" data-name="Path 77208" d="M306.431,87.205l-5.956-1.191,1.191,5.957,1.962,1.961,4.765-4.765Z" transform="translate(-241.275 -69.067)" fill="#fcb200"/>
  <path id="Path_77209" data-name="Path 77209" d="M404.129,189.967l.3-.3a3.159,3.159,0,0,0,0-4.467l-8.488-8.488-4.765,4.765,8.488,8.488A3.159,3.159,0,0,0,404.129,189.967Z" transform="translate(-314.103 -141.897)" fill="#5cc7ff"/>
  <path id="Path_77210" data-name="Path 77210" d="M99.3,80.658a1.579,1.579,0,0,0,1.58-1.58v-55.6a1.58,1.58,0,0,0-.462-1.117L83.565,5.517a1.58,1.58,0,0,0-1.117-.462H46.963V4.738A4.744,4.744,0,0,0,42.224,0H4.738A4.744,4.744,0,0,0,0,4.738V55.7a4.744,4.744,0,0,0,4.738,4.738H16.848V99.3a1.579,1.579,0,0,0,1.58,1.58H99.3a1.579,1.579,0,0,0,1.58-1.58V87.5a1.58,1.58,0,1,0-3.159,0V97.716H20.007V60.441H42.224A4.744,4.744,0,0,0,46.963,55.7V28.535a1.58,1.58,0,1,0-3.159,0V55.7a1.581,1.581,0,0,1-1.58,1.58H4.738a1.581,1.581,0,0,1-1.58-1.58V4.738a1.581,1.581,0,0,1,1.58-1.58H42.224a1.581,1.581,0,0,1,1.58,1.58V20.112a1.58,1.58,0,1,0,3.159,0V8.213H80.874c0,.035-.005.07-.005.105V23.481a1.579,1.579,0,0,0,1.58,1.58H97.611c.036,0,.07,0,.105-.005V79.079A1.579,1.579,0,0,0,99.3,80.658ZM84.028,10.447,95.483,21.9H84.028Z"/>
  <path id="Path_77211" data-name="Path 77211" d="M148.927,367.7H138.4a1.579,1.579,0,1,0,0,3.159h10.53a1.579,1.579,0,1,0,0-3.159Z" transform="translate(-109.862 -295.254)"/>
  <path id="Path_77212" data-name="Path 77212" d="M148.927,410.455H138.4a1.58,1.58,0,1,0,0,3.159h10.53a1.58,1.58,0,1,0,0-3.159Z" transform="translate(-109.862 -329.586)"/>
  <path id="Path_77213" data-name="Path 77213" d="M244.209,259.955a1.58,1.58,0,0,0-2.131.671,23.485,23.485,0,1,0,20.835-12.643,23.283,23.283,0,0,0-16.944,7.225,1.579,1.579,0,0,0,2.279,2.187,20.265,20.265,0,1,1-3.369,4.691A1.58,1.58,0,0,0,244.209,259.955Z" transform="translate(-192.259 -199.125)"/>
  <path id="Path_77214" data-name="Path 77214" d="M317.971,309.144a1.579,1.579,0,1,0,0,3.159h4.738v1.79a1.579,1.579,0,0,0,3.159,0V312.3h2.422a4.744,4.744,0,0,0,4.738-4.738V302.3a4.744,4.744,0,0,0-4.713-4.738l-2.448-.072v-8.773h5.581a1.58,1.58,0,0,0,0-3.159h-5.581v-1.79a1.58,1.58,0,0,0-3.159,0v1.79h-1.58a4.744,4.744,0,0,0-4.738,4.738v5.475a4.744,4.744,0,0,0,4.713,4.738l1.605.047v8.587h-4.738Zm3.206-11.793h-.046a1.581,1.581,0,0,1-1.579-1.58V290.3a1.581,1.581,0,0,1,1.579-1.58h1.58v8.68Zm4.692,3.3,2.375.07h.046a1.581,1.581,0,0,1,1.579,1.579v5.265a1.581,1.581,0,0,1-1.579,1.58h-2.422Z" transform="translate(-254.055 -226.59)"/>
  <path id="Path_77215" data-name="Path 77215" d="M62.507,27.233a1.579,1.579,0,0,0-1.58-1.58h-33.7a1.579,1.579,0,0,0-1.58,1.58v8.424a1.579,1.579,0,0,0,1.58,1.58h33.7a1.579,1.579,0,0,0,1.58-1.58Zm-3.159,6.844H28.812V28.812H59.349v5.265Z" transform="translate(-20.599 -20.599)"/>
  <path id="Path_77216" data-name="Path 77216" d="M35.551,95.642a1.579,1.579,0,0,0-1.58-1.58H27.233a1.579,1.579,0,0,0-1.58,1.58v6.739a1.579,1.579,0,0,0,1.58,1.58h6.739a1.579,1.579,0,0,0,1.58-1.58V95.642Zm-3.159,5.16h-3.58v-3.58h3.58Z" transform="translate(-20.599 -75.53)"/>
  <path id="Path_77217" data-name="Path 77217" d="M103.96,95.642a1.579,1.579,0,0,0-1.58-1.58H95.642a1.579,1.579,0,0,0-1.58,1.58v6.739a1.579,1.579,0,0,0,1.58,1.58h6.739a1.579,1.579,0,0,0,1.58-1.58ZM100.8,100.8h-3.58v-3.58h3.58Z" transform="translate(-75.53 -75.53)"/>
  <path id="Path_77218" data-name="Path 77218" d="M172.369,95.642a1.579,1.579,0,0,0-1.58-1.58h-6.739a1.579,1.579,0,0,0-1.58,1.58v6.739a1.579,1.579,0,0,0,1.58,1.58h6.739a1.579,1.579,0,0,0,1.58-1.58Zm-3.159,5.16h-3.58v-3.58h3.58Z" transform="translate(-130.461 -75.53)"/>
  <path id="Path_77219" data-name="Path 77219" d="M35.551,164.052a1.579,1.579,0,0,0-1.58-1.58H27.233a1.579,1.579,0,0,0-1.58,1.58v6.739a1.579,1.579,0,0,0,1.58,1.579h6.739a1.579,1.579,0,0,0,1.58-1.579v-6.739Zm-3.159,5.159h-3.58v-3.58h3.58Z" transform="translate(-20.599 -130.461)"/>
  <path id="Path_77220" data-name="Path 77220" d="M103.96,164.052a1.579,1.579,0,0,0-1.58-1.58H95.642a1.579,1.579,0,0,0-1.58,1.58v6.739a1.579,1.579,0,0,0,1.58,1.579h6.739a1.579,1.579,0,0,0,1.58-1.579Zm-3.159,5.159h-3.58v-3.58h3.58Z" transform="translate(-75.53 -130.461)"/>
  <path id="Path_77221" data-name="Path 77221" d="M33.972,230.881H27.233a1.579,1.579,0,0,0-1.58,1.579V239.2a1.579,1.579,0,0,0,1.58,1.58h6.739a1.579,1.579,0,0,0,1.58-1.58v-6.739A1.579,1.579,0,0,0,33.972,230.881Zm-1.58,6.739h-3.58v-3.58h3.58Z" transform="translate(-20.599 -185.392)"/>
  <path id="Path_77222" data-name="Path 77222" d="M102.381,230.881H95.642a1.579,1.579,0,0,0-1.58,1.579V239.2a1.579,1.579,0,0,0,1.58,1.58h6.739a1.579,1.579,0,0,0,1.58-1.58v-6.739A1.579,1.579,0,0,0,102.381,230.881Zm-1.58,6.739h-3.58v-3.58h3.58Z" transform="translate(-75.53 -185.392)"/>
  <path id="Path_77223" data-name="Path 77223" d="M170.79,162.472h-6.739a1.579,1.579,0,0,0-1.58,1.58v20.217a1.579,1.579,0,0,0,1.58,1.579h6.739a1.579,1.579,0,0,0,1.58-1.579V164.052A1.579,1.579,0,0,0,170.79,162.472Zm-1.58,20.217h-3.58V165.631h3.58Z" transform="translate(-130.461 -130.461)"/>
  <path id="Path_77224" data-name="Path 77224" d="M286.545,65.084a1.58,1.58,0,0,0-.807-.432l-5.853-1.171-2.818-3.107a1.579,1.579,0,0,0-2.34,2.122s3.248,3.554,3.356,3.625l1.031,5.154a1.58,1.58,0,0,0,.432.807L304.712,97.25a4.745,4.745,0,0,0,6.7,0h0l.3-.3a4.744,4.744,0,0,0,0-6.7l-.223-.223,2.457-2.457a1.6,1.6,0,0,0-.03-2.262l-8.6-8.17a1.579,1.579,0,0,0-2.175,2.291l7.428,7.054-1.311,1.311Zm-5.06,1.939,3.164.633L299.872,82.88l-2.531,2.531L282.117,70.188Zm27.993,27.695-.3.3a1.581,1.581,0,0,1-2.234,0l-7.371-7.371,2.531-2.531,7.371,7.371A1.581,1.581,0,0,1,309.478,94.718Z" transform="translate(-220.271 -48.063)"/>
</svg>
