<svg xmlns="http://www.w3.org/2000/svg" width="34" height="34" viewBox="0 0 34 34">
  <g id="reports-icon" transform="translate(1776.977 -5903.565)">
    <path id="Path_68658" data-name="Path 68658" d="M1758.552,984.718a.8.8,0,0,1-.527-.664.69.69,0,0,1,.649-.738c.239-.017.481,0,.758,0v-.434q0-3.552,0-7.1c0-.751.217-.967.969-.967h3.751c.73,0,.956.223.956.947q0,3.552,0,7.1v.422h2.822v-.438q0-7.055,0-14.11c0-.809.208-1.015,1.025-1.015h3.718c.693,0,.934.241.934.94q0,7.088,0,14.176v.45h2.8c.006-.14.018-.279.018-.417q0-5.66,0-11.321c0-.779.208-.989.98-.989q1.909,0,3.818,0c.635,0,.879.247.879.891q0,5.694,0,11.387v.449h2.823v-.419q0-9.877,0-19.754a3.372,3.372,0,0,1,.01-.4.677.677,0,0,1,.7-.652q2.125-.013,4.25,0a.676.676,0,0,1,.7.654,3.321,3.321,0,0,1,.01.4q0,9.86,0,19.72v.461c.532.032,1.116-.115,1.412.493v.4l-.531.531Z" transform="translate(-3535 4952.848)" fill="#fff"/>
    <path id="Path_68659" data-name="Path 68659" d="M1791.016,844.872c-1.034-.3-2.061-.6-3.093-.88a.325.325,0,0,0-.266.108,2.8,2.8,0,0,1-4.041.677l-4.322,3.447a2.829,2.829,0,1,1-5.089.291,2.806,2.806,0,0,1,3.84-1.46.407.407,0,0,0,.521-.055c1.377-1.111,2.763-2.211,4.165-3.328a2.961,2.961,0,0,1-.132-1.943,2.85,2.85,0,0,1,2.848-2.048,2.787,2.787,0,0,1,2.665,2.458.569.569,0,0,0,.507.583c.931.238,1.85.524,2.777.776a.42.42,0,0,0,.342-.061,2.8,2.8,0,0,1,3.513-.541c.071-.066.152-.136.228-.212q2.09-2.088,4.182-4.175a.364.364,0,0,0,.1-.5,2.789,2.789,0,0,1,.956-3.5,2.83,2.83,0,0,1,3.937,3.934,2.79,2.79,0,0,1-3.5.958.35.35,0,0,0-.481.075q-2.1,2.125-4.223,4.227a.328.328,0,0,0-.079.449,2.777,2.777,0,0,1-.572,3.208,2.824,2.824,0,0,1-4.788-2.31C1791.021,845,1791.016,844.946,1791.016,844.872Z" transform="translate(-3549.551 5069.554)" fill="#fff"/>
  </g>
</svg>
