<svg xmlns="http://www.w3.org/2000/svg" width="19.997" height="20" viewBox="0 0 19.997 20">
  <g id="request-management-icon" transform="translate(1343.25 228.055)">
    <path id="Path_77159" data-name="Path 77159" d="M-1343.25-218.757v-1.836a1.572,1.572,0,0,0,.03-.189,20.816,20.816,0,0,1,.359-3.059,5,5,0,0,1,3.834-3.779,35.888,35.888,0,0,1,5.072-.426,41.485,41.485,0,0,1,5.766.31,5.115,5.115,0,0,1,2.571.931,4.681,4.681,0,0,1,1.947,2.871c.155.809.237,1.633.343,2.452.038.295.051.593.075.89v1.836a1.9,1.9,0,0,0-.031.208,20.7,20.7,0,0,1-.356,3.017,4.962,4.962,0,0,1-3.869,3.8c-.859.135-1.728.21-2.593.3a.322.322,0,0,0-.261.16c-.554.81-1.115,1.614-1.671,2.423a1.847,1.847,0,0,1-1.023.791h-.391a1.867,1.867,0,0,1-1.035-.807c-.552-.8-1.109-1.6-1.659-2.407a.318.318,0,0,0-.26-.162c-.6-.053-1.2-.122-1.8-.177a5.083,5.083,0,0,1-2.668-.931,4.671,4.671,0,0,1-1.96-2.879c-.154-.809-.236-1.631-.342-2.449C-1343.213-218.162-1343.226-218.46-1343.25-218.757Zm8.9.79a3.84,3.84,0,0,0,.074.557,1.067,1.067,0,0,0,1.172.759,1.057,1.057,0,0,0,.929-1.1,1.067,1.067,0,0,1,.535-.99c.282-.186.568-.367.846-.559a3.3,3.3,0,0,0,1.337-1.558,2.852,2.852,0,0,0-1.41-3.482,4.173,4.173,0,0,0-3.218-.306,3.426,3.426,0,0,0-2.455,2.326,1.137,1.137,0,0,0,.931,1.507,1.135,1.135,0,0,0,1.258-.79,1.461,1.461,0,0,1,.762-.918,1.9,1.9,0,0,1,1.2-.112.889.889,0,0,1,.764.64.937.937,0,0,1-.309.989,6.446,6.446,0,0,1-.589.448c-.251.174-.519.324-.766.5A2.376,2.376,0,0,0-1334.355-217.967Zm-.057,3.464c.018.2.025.4.055.591a.6.6,0,0,0,.572.542,9.484,9.484,0,0,0,1.067,0,.565.565,0,0,0,.564-.522,7.962,7.962,0,0,0,0-1.182.561.561,0,0,0-.532-.511,9.912,9.912,0,0,0-1.145,0,.579.579,0,0,0-.515.488C-1334.384-214.9-1334.393-214.695-1334.412-214.5Z" fill="#fff"/>
  </g>
</svg>
