<svg xmlns="http://www.w3.org/2000/svg" width="109.911" height="110.178" viewBox="0 0 109.911 110.178">
  <g id="risk-maintain-icon" transform="translate(2686.152 5067.153)">
    <g id="Group_43337" data-name="Group 43337" transform="translate(-2686 -5067)">
      <path id="Path_77295" data-name="Path 77295" d="M319.63,134.173a4.848,4.848,0,0,0-4.394-4.394l-6.152-.146h0c-.293,0-.586,0-.732-.293a41.388,41.388,0,0,0-8.935-16.551c-.146-.293-.293-.586,0-.879l3.515-4.98a4.534,4.534,0,0,0-.879-6.005l-2.343-1.9a4.846,4.846,0,0,0-6.005.293l-4.394,4.394a.69.69,0,0,1-.879.146,41.764,41.764,0,0,0-18.162-5.566.973.973,0,0,1-.732-.586l-1.025-6.152a4.733,4.733,0,0,0-4.833-3.662l-3.076.293a4.6,4.6,0,0,0-4.1,4.541l.146,6.3a.747.747,0,0,1-.586.732,42.652,42.652,0,0,0-16.7,8.788c-.293.146-.586.293-.879,0l-5.126-3.515a4.7,4.7,0,0,0-6.005.879l-1.9,2.344a4.482,4.482,0,0,0,.293,6.005l4.394,4.248a.69.69,0,0,1,.146.879,42.37,42.37,0,0,0-5.566,18.162.973.973,0,0,1-.586.732l-6.005,1.025a4.733,4.733,0,0,0-3.662,4.833l.293,3.076c.146,2.2,2.2,3.515,4.394,3.515H225.3a.537.537,0,0,1,.586.586,44.35,44.35,0,0,0,8.935,17.283c.146.293.293.732,0,1.025l-3.369,4.98a4.534,4.534,0,0,0,.879,6.005l2.344,1.9a4.846,4.846,0,0,0,6.005-.293l4.1-4.248c.146-.146.293-.146.586-.146a.538.538,0,0,1,.439.146,43.19,43.19,0,0,0,18.309,5.712.973.973,0,0,1,.732.586l1.025,5.712a4.733,4.733,0,0,0,4.833,3.662l3.076-.293a4.6,4.6,0,0,0,4.1-4.541l-.146-5.859a.747.747,0,0,1,.586-.732,40.8,40.8,0,0,0,16.99-9.081c.293-.146.586-.293.879,0l4.833,3.369a4.534,4.534,0,0,0,6.005-.879l1.9-2.344a4.49,4.49,0,0,0-.293-6.005l-4.248-4.1a.69.69,0,0,1-.146-.879,42.375,42.375,0,0,0,5.566-18.309.973.973,0,0,1,.586-.732l5.859-1.025a4.594,4.594,0,0,0,3.662-4.833Zm-29-8.056a27.7,27.7,0,0,1-29.44,41.89,27.392,27.392,0,0,1-17.283-12.157,27.672,27.672,0,0,1,8.5-38.228,28.159,28.159,0,0,1,25.339-2.343c.586.293,1.172.439,1.758.732a28.337,28.337,0,0,1,6.3,4.394A42.721,42.721,0,0,1,290.629,126.117Z" transform="translate(-212.245 -85.815)" fill="#5cc7ff"/>
      <path id="Path_77296" data-name="Path 77296" d="M306.514,210.747a33.646,33.646,0,0,1-6.591-.732,29.926,29.926,0,0,1-9.52-54.486,30.391,30.391,0,0,1,27.243-2.49c.586.293,1.318.586,1.9.879a1.443,1.443,0,1,1-1.172,2.636,8.96,8.96,0,0,0-1.758-.732,27.1,27.1,0,0,0-24.607,2.2,26.457,26.457,0,0,0-11.864,16.844,26.947,26.947,0,0,0,3.515,20.359,26.456,26.456,0,0,0,16.844,11.864,26.947,26.947,0,0,0,20.359-3.515,26.457,26.457,0,0,0,11.864-16.844,26.947,26.947,0,0,0-3.515-20.359,1.483,1.483,0,0,1,2.49-1.611,29.9,29.9,0,0,1-9.228,41.3A29.449,29.449,0,0,1,306.514,210.747Z" transform="translate(-251.565 -125.771)"/>
      <path id="Path_77294" data-name="Path 77294" d="M266.442,192.116a6.875,6.875,0,0,1-6.591-5.419l-.879-4.687a44.105,44.105,0,0,1-17.137-5.273l-3.369,3.369a6.748,6.748,0,0,1-9.081.439l-2.344-1.9a6.616,6.616,0,0,1-1.172-8.935l2.783-3.955a44.492,44.492,0,0,1-8.349-15.819h-4.98a6.665,6.665,0,0,1-6.591-6.005l-.293-3.076a6.855,6.855,0,0,1,5.419-7.177l4.833-.879a44.19,44.19,0,0,1,5.273-16.99l-3.662-3.515a6.748,6.748,0,0,1-.439-9.081l1.9-2.344a6.616,6.616,0,0,1,8.935-1.172l4.1,2.929a43.517,43.517,0,0,1,15.672-8.2V89.295a6.808,6.808,0,0,1,6.005-6.738l3.076-.293a6.855,6.855,0,0,1,7.177,5.419l.879,4.98a45.068,45.068,0,0,1,16.844,5.126l3.515-3.662a6.748,6.748,0,0,1,9.081-.439l2.344,1.9a6.616,6.616,0,0,1,1.172,8.935l-2.929,4.1a42.678,42.678,0,0,1,8.349,15.672h5.126a6.665,6.665,0,0,1,6.591,6.005l.293,3.076a6.855,6.855,0,0,1-5.419,7.177l-4.833.879a46.508,46.508,0,0,1-5.126,17.137l3.515,3.369a6.748,6.748,0,0,1,.439,9.081l-1.9,2.344a6.616,6.616,0,0,1-8.935,1.172l-3.955-2.783a44.848,44.848,0,0,1-15.819,8.5v4.687a6.808,6.808,0,0,1-6.005,6.738l-3.076.293C266.882,192.116,266.735,192.116,266.442,192.116Zm-24.9-18.748a1.321,1.321,0,0,1,.732.146,41.759,41.759,0,0,0,18.016,5.566,1.408,1.408,0,0,1,1.318,1.172l1.025,5.712a3.849,3.849,0,0,0,4.1,3.076l3.076-.293a3.812,3.812,0,0,0,3.369-3.808l-.146-5.859a1.455,1.455,0,0,1,1.025-1.465,41.123,41.123,0,0,0,16.7-8.935,1.557,1.557,0,0,1,1.758-.146l4.833,3.369a3.839,3.839,0,0,0,4.98-.732l1.9-2.344a3.991,3.991,0,0,0-.293-5.126l-4.248-4.1a1.558,1.558,0,0,1-.293-1.758,40.977,40.977,0,0,0,5.419-18.016,1.408,1.408,0,0,1,1.172-1.318l5.859-1.025a3.849,3.849,0,0,0,3.076-4.1l-.293-3.076a3.812,3.812,0,0,0-3.808-3.369l-6.005.146a1.455,1.455,0,0,1-1.465-1.025,40.535,40.535,0,0,0-8.788-16.4,1.557,1.557,0,0,1-.146-1.758l3.515-4.98a3.84,3.84,0,0,0-.732-4.98l-2.344-1.9a3.991,3.991,0,0,0-5.126.293l-4.394,4.394a1.558,1.558,0,0,1-1.758.293,40.355,40.355,0,0,0-17.723-5.419,1.408,1.408,0,0,1-1.318-1.172l-1.025-6.152a3.849,3.849,0,0,0-4.1-3.076l-3.076.293a3.812,3.812,0,0,0-3.369,3.808l.146,6.152a1.455,1.455,0,0,1-1.025,1.465,41.2,41.2,0,0,0-16.4,8.642,1.557,1.557,0,0,1-1.758.146l-5.126-3.515a3.84,3.84,0,0,0-4.98.732l-1.9,2.343a3.782,3.782,0,0,0,.293,4.98l4.394,4.248a1.558,1.558,0,0,1,.293,1.758,40.557,40.557,0,0,0-5.566,17.869,1.408,1.408,0,0,1-1.172,1.318l-6.005,1.025a3.849,3.849,0,0,0-3.076,4.1l.293,3.076A3.812,3.812,0,0,0,215.178,147l6.005-.146a1.455,1.455,0,0,1,1.465,1.025,42.653,42.653,0,0,0,8.788,16.7,1.535,1.535,0,0,1,.146,1.758l-3.369,4.833a3.84,3.84,0,0,0,.732,4.98l2.344,1.9a3.991,3.991,0,0,0,5.126-.293l4.1-4.248C240.81,173.515,241.249,173.368,241.542,173.368Z" transform="translate(-208.417 -82.241)" stroke="#000" stroke-width="0.3"/>
    </g>
    <g id="warning-alert-svgrepo-com" transform="translate(-2650.406 -5030.134)">
      <g id="Group_43339" data-name="Group 43339" transform="translate(0.803 0.803)">
        <path id="Path_77297" data-name="Path 77297" d="M29.045,55.322A1.875,1.875,0,1,1,27.17,57.2a1.875,1.875,0,0,1,1.875-1.874Zm11.483-9.806-5.712-9.893a6.435,6.435,0,0,0-11.331-.361L17.568,45.509l.011.006-.011.019-5.606,9.711a6.451,6.451,0,0,0,5.259,10.188H40.887v-.015a6.436,6.436,0,0,0,5.568-9.661L40.539,45.51l-.011.006Zm-9.609-3.289v8.105a1.875,1.875,0,0,1-3.749,0V42.227a1.875,1.875,0,0,1,3.749,0Z" transform="translate(-10.77 -32.052)" fill="#f2c34e"/>
        <g id="Group_43338" data-name="Group 43338" transform="translate(16.4 8.301)">
          <circle id="Ellipse_2375" data-name="Ellipse 2375" cx="1.875" cy="1.875" r="1.875" transform="translate(0 14.969)" fill="#565164"/>
          <path id="Path_77298" data-name="Path 77298" d="M232.688,155.28a1.88,1.88,0,0,0,1.875-1.875V145.3a1.875,1.875,0,0,0-3.749,0v8.105A1.879,1.879,0,0,0,232.688,155.28Z" transform="translate(-230.814 -143.426)" fill="#565164"/>
        </g>
      </g>
      <g id="Group_43340" data-name="Group 43340" transform="translate(0 0)">
        <path id="Path_77299" data-name="Path 77299" d="M37.183,45.389,31.266,35.14a.8.8,0,0,0-.081-.116l-5.629-9.75a7.237,7.237,0,0,0-12.733-.382L6.906,35.14a.8.8,0,0,0-.06.129L1.318,44.845A7.254,7.254,0,0,0,7.254,56.269H30.92a.809.809,0,0,0,.166-.017,7.239,7.239,0,0,0,6.1-10.863Zm-.822,5.077a5.633,5.633,0,0,1-5.441,4.183.836.836,0,0,0-.157.015H7.254a5.649,5.649,0,0,1-4.6-8.92c.015-.021.028-.042.041-.064l5.6-9.708.009-.015a.807.807,0,0,0,.065-.138L14.212,25.7a5.632,5.632,0,0,1,9.917.315q.011.023.024.045l5.712,9.893a.81.81,0,0,0,.081.116l5.847,10.127A5.6,5.6,0,0,1,36.361,50.466Z" transform="translate(0 -21.281)" fill="#000003"/>
        <path id="Path_77300" data-name="Path 77300" d="M88.5,185.573a.8.8,0,0,0-1.1.29l-5.117,8.8a.8.8,0,1,0,1.388.807l5.117-8.8A.8.8,0,0,0,88.5,185.573Z" transform="translate(-76.048 -173.227)" fill="#000003"/>
        <path id="Path_77301" data-name="Path 77301" d="M68.21,329.315a.8.8,0,0,0-1.1.292l-.019.033a.8.8,0,1,0,1.389.805l.019-.033A.8.8,0,0,0,68.21,329.315Z" transform="translate(-61.993 -306.257)" fill="#000003"/>
        <path id="Path_77302" data-name="Path 77302" d="M322.794,426.277c-3.828,0-4.674,0-5.846,0h-.2a.8.8,0,0,0,0,1.605h.2c1.17,0,2.015,0,5.84,0h0a.8.8,0,0,0,0-1.605Z" transform="translate(-292.4 -396.089)" fill="#000003"/>
        <path id="Path_77303" data-name="Path 77303" d="M425.927,420.543l-.018.01a.8.8,0,1,0,.774,1.406l.055-.032a.8.8,0,0,0-.811-1.385Z" transform="translate(-393.781 -390.683)" fill="#000003"/>
        <path id="Path_77304" data-name="Path 77304" d="M222.719,146.116a2.68,2.68,0,0,0,2.677-2.677v-8.105a2.677,2.677,0,0,0-5.355,0v8.105A2.68,2.68,0,0,0,222.719,146.116Zm-1.072-10.783a1.072,1.072,0,0,1,2.144,0v8.105a1.073,1.073,0,0,1-1.072,1.072h0a1.073,1.073,0,0,1-1.072-1.072v-8.105Z" transform="translate(-203.642 -124.355)" fill="#000003"/>
        <path id="Path_77305" data-name="Path 77305" d="M222.721,333.5a2.677,2.677,0,1,0,2.677,2.677A2.68,2.68,0,0,0,222.721,333.5Zm0,3.749a1.072,1.072,0,1,1,1.072-1.072A1.073,1.073,0,0,1,222.721,337.251Z" transform="translate(-203.644 -310.232)" fill="#000003"/>
      </g>
    </g>
  </g>
</svg>
