<svg xmlns="http://www.w3.org/2000/svg" width="95.756" height="117.247" viewBox="0 0 95.756 117.247">
  <g id="secure-bank-icon" transform="translate(-45.164 2.176)">
    <path id="Path_77306" data-name="Path 77306" d="M93.042,0C75.614,18.314,46.664,14.179,46.664,14.179V63.806c0,29.244,46.378,49.627,46.378,49.627S139.42,93.05,139.42,63.806V14.179S110.47,18.314,93.042,0Z" transform="translate(0)" fill="#f2c34e" stroke="#000" stroke-width="3"/>
    <g id="Group_43342" data-name="Group 43342" transform="translate(63.691 24.244)">
      <rect id="Rectangle_5868" data-name="Rectangle 5868" width="5.721" height="22.485" transform="translate(5.997 23.317)"/>
      <path id="Path_77307" data-name="Path 77307" d="M160.095,109.432,132.8,127.737h54.607Zm0,13.507a3.013,3.013,0,1,1,3.013-3.013,3.013,3.013,0,0,1-3.013,3.013Z" transform="translate(-130.743 -109.432)"/>
      <rect id="Rectangle_5869" data-name="Rectangle 5869" width="58.703" height="5.721" transform="translate(0 51.089)"/>
      <path id="Path_77308" data-name="Path 77308" d="M239.77,240.676v-2.345a6.764,6.764,0,0,1-3.554-1.023l.557-1.558a6.184,6.184,0,0,0,3.345,1c1.648,0,2.765-.952,2.765-2.276,0-1.278-.906-2.067-2.627-2.765-2.37-.929-3.832-2-3.832-4.018a3.811,3.811,0,0,1,3.508-3.741V221.6h1.439v2.253a6.2,6.2,0,0,1,3.013.814L243.8,226.2a5.6,5.6,0,0,0-2.926-.79c-1.79,0-2.464,1.063-2.464,2,0,1.209.86,1.813,2.882,2.648,2.393.977,3.6,2.184,3.6,4.254a4.041,4.041,0,0,1-3.66,3.952v2.416Z" transform="translate(-211.248 -196.749)"/>
      <rect id="Rectangle_5870" data-name="Rectangle 5870" width="5.721" height="22.485" transform="translate(14.863 23.317)"/>
      <rect id="Rectangle_5871" data-name="Rectangle 5871" width="5.721" height="22.485" transform="translate(38.119 23.317)"/>
      <rect id="Rectangle_5872" data-name="Rectangle 5872" width="5.721" height="22.485" transform="translate(46.986 23.317)"/>
    </g>
  </g>
</svg>
