<svg xmlns="http://www.w3.org/2000/svg" width="201.858" height="199.545" viewBox="0 0 201.858 199.545">
  <g id="success-icon" transform="translate(-773.155 -235.686)">
    <g id="Group_43204" data-name="Group 43204" transform="translate(773.155 235.686)">
      <circle id="Ellipse_117" data-name="Ellipse 117" cx="99.476" cy="99.476" r="99.476" transform="translate(0.296 0.296)" fill="#fff"/>
      <path id="Path_68727" data-name="Path 68727" d="M872.927,435.231a99.46,99.46,0,1,1,38.836-7.841A99.15,99.15,0,0,1,872.927,435.231Zm0-198.952a98.868,98.868,0,1,0,38.605,7.794A98.558,98.558,0,0,0,872.927,236.278Z" transform="translate(-773.155 -235.686)" fill="#1a1a1a"/>
    </g>
    <g id="Group_43205" data-name="Group 43205" transform="translate(784.05 246.581)">
      <circle id="Ellipse_118" data-name="Ellipse 118" cx="88.877" cy="88.877" r="88.877" transform="translate(0)" fill="#fcb200"/>
    </g>
    <g id="Group_43206" data-name="Group 43206" transform="translate(802.079 240.772)">
      <path id="Path_68728" data-name="Path 68728" d="M1114.592,271.362h-9.139l-59.224,85.788-38.294-43.123H998.8l1.083,7.154-23.828,21.159,67.289,86.451h8.933l96.712-132.223Z" transform="translate(-976.051 -271.362)" fill="#1a1a1a"/>
    </g>
    <g id="Group_43207" data-name="Group 43207" transform="translate(792.939 240.772)">
      <path id="Path_68729" data-name="Path 68729" d="M988.3,428.333,911.94,342.342l31.884-28.314,41.3,46.508,65.357-89.173,34.393,25.207Z" transform="translate(-911.94 -271.362)" fill="#fff"/>
    </g>
    <g id="Group_43209" data-name="Group 43209" transform="translate(792.521 240.358)">
      <g id="Group_43208" data-name="Group 43208">
        <path id="Path_68730" data-name="Path 68730" d="M985.81,426.314l-.244-.274-76.558-86.212,32.327-28.707.2.221,41.056,46.234,65.315-89.116,34.87,25.558-.175.239Zm-75.966-86.437,75.922,85.5,96.18-131.228-33.915-24.857-65.4,89.23-41.347-46.56Z" transform="translate(-909.008 -268.459)" fill="#1a1a1a"/>
      </g>
    </g>
  </g>
</svg>
