<svg xmlns="http://www.w3.org/2000/svg" width="18.653" height="19.896" viewBox="0 0 18.653 19.896">
  <g id="team-management-icon" transform="translate(2296.826 -56)">
    <path id="Path_77176" data-name="Path 77176" d="M-2268.815,56a9.1,9.1,0,0,1,1.209.39,3.517,3.517,0,0,1,1.887,3.734A3.5,3.5,0,0,1-2268.711,63a3.494,3.494,0,0,1-3.909-2.932,3.543,3.543,0,0,1,2.957-4.028,1.315,1.315,0,0,0,.148-.039Z" transform="translate(-22.996)" fill="#fff"/>
    <path id="Path_77177" data-name="Path 77177" d="M-2076.815,56a9.111,9.111,0,0,1,1.209.39,3.516,3.516,0,0,1,1.89,3.715A3.5,3.5,0,0,1-2076.711,63a3.494,3.494,0,0,1-3.909-2.932,3.543,3.543,0,0,1,2.957-4.028,1.3,1.3,0,0,0,.148-.039Z" transform="translate(-205.67)" fill="#fff"/>
    <path id="Path_77178" data-name="Path 77178" d="M-2199.323,319.264a4.662,4.662,0,0,0,6.316,0,4.357,4.357,0,0,1,1.306,1.978,4.558,4.558,0,0,1,.2,1.416c0,1,0,2.007,0,3.011,0,.481-.219.7-.7.7h-7.926c-.481,0-.7-.218-.7-.7,0-1.03,0-2.059,0-3.089A4.345,4.345,0,0,1-2199.323,319.264Z" transform="translate(-91.335 -250.477)" fill="#fff"/>
    <path id="Path_77179" data-name="Path 77179" d="M-2173.3,183.806a3.508,3.508,0,0,1-3.488-3.505,3.508,3.508,0,0,1,3.505-3.488,3.508,3.508,0,0,1,3.488,3.505A3.508,3.508,0,0,1-2173.3,183.806Z" transform="translate(-114.207 -114.944)" fill="#fff"/>
    <path id="Path_77180" data-name="Path 77180" d="M-2292,200.35c-.046.255-.1.481-.126.709a4.379,4.379,0,0,0,.617,2.825.221.221,0,0,1-.05.336,5.139,5.139,0,0,0-1.316,1.85.186.186,0,0,1-.2.13c-1.042,0-2.084,0-3.125,0a.564.564,0,0,1-.615-.542c0-1.255-.035-2.513.042-3.764a4.019,4.019,0,0,1,1.466-2.768A4.581,4.581,0,0,0-2292,200.35Z" transform="translate(0 -136.169)" fill="#fff"/>
    <path id="Path_77181" data-name="Path 77181" d="M-2024.229,204.111a4.52,4.52,0,0,0,.572-3.71,4.592,4.592,0,0,0,3.321-1.229,4.318,4.318,0,0,1,1.128,1.493,4.323,4.323,0,0,1,.391,1.844q0,1.524,0,3.048a.6.6,0,0,1-.69.688h-3.029c-.088,0-.171.018-.22-.1a5.389,5.389,0,0,0-1.4-1.954A1.012,1.012,0,0,1-2024.229,204.111Z" transform="translate(-259.356 -136.218)" fill="#fff"/>
  </g>
</svg>
