<svg xmlns="http://www.w3.org/2000/svg" width="746.989" height="613.595" viewBox="0 0 746.989 613.595">
  <g id="trusted-organizations" transform="translate(-270 -4914.91)">
    <path id="download_19_" data-name="download (19)" d="M516.951,25.827c0,.559-8.052-3.911-8.388-4.47-10.065-5.029-20.466-8.381-31.2-11.734-26.5-7.822-53.68-8.381-80.856-7.264C289.481,7.947,168.7,37.56,73.083,137.018,40.875,170.542-7.438,232,3.634,311.347c4.7,32.966,24.156,57.551,38.918,73.2,35.9,37.995,77.5,55.875,118.1,67.608,119.774,34.084,261.02,16.2,373.413-77.666a266.149,266.149,0,0,0,42.273-44.141,237.1,237.1,0,0,0,28.85-50.848C660.545,142.6,542.114,54.323,488.433,29.738c-18.453-8.381-23.821-9.5-42.609-15.086" transform="matrix(0.999, 0.035, -0.035, 0.999, 297.592, 4912.92)" fill="#ffdbf3"/>
    <g id="Group_3294" data-name="Group 3294" transform="translate(316.252 5064.575)">
      <g id="Group_3265" data-name="Group 3265">
        <path id="Path_6347" data-name="Path 6347" d="M1240.93,986.144l-24.212,287.882s-2.537,17.451,10.444,17.481c21.342.051,106.228,0,106.228,0s-16.063-3.633-15.869-11.806c.229-9.634,28.3-296.282,28.3-296.282Z" transform="translate(-978.026 -829.49)" fill="#00729b"/>
        <path id="Path_6348" data-name="Path 6348" d="M1347.27,1281.25c-4.2.013-85.379.152-106.163-.115-9.058-.113-10.646-8.054-10.722-13.193a25.756,25.756,0,0,1,.275-4.285l.63-7.483,1.6-19.071,1.417-16.848,1.822-21.652,1.534-18.274,17.2-204.56,104.891-2.722s-11.822,119.961-20.183,207.282c-.934,9.729-1.822,19.058-2.643,27.766q-.4,4.17-.771,8.145c-.776,8.262-1.484,15.849-2.1,22.547-.325,3.531-.625,6.811-.9,9.817-1.068,11.776-1.692,19.3-1.7,20.726a12.1,12.1,0,0,0,.2,2.33C1333.39,1280.83,1345.69,1281.25,1347.27,1281.25Z" transform="translate(-984.909 -824.336)" fill="#008dbf"/>
        <path id="Path_6349" data-name="Path 6349" d="M758.975,677.63,817.95,914.521l8.075,32.443L853.492,1057.3H1363.8L1262.56,677.63Z" transform="translate(-750.801 -677.629)" fill="#00729b"/>
        <path id="Path_6350" data-name="Path 6350" d="M750.909,677.629l-8.173,2.724,91.826,385.188,10.867-8.241Z" transform="translate(-742.736 -677.629)" fill="#00729b"/>
        <path id="Path_6351" data-name="Path 6351" d="M925.153,1440.11h507.166l14.005-8.24H936.02Z" transform="translate(-833.328 -1052.197)" fill="#008dbf"/>
        <rect id="Rectangle_1080" data-name="Rectangle 1080" width="109.809" height="5.218" transform="translate(379.736 462.128) rotate(180)" fill="#00729b"/>
        <path id="Path_6352" data-name="Path 6352" d="M1339.08,987.34l-82.8-304.691H760.224l-1.249-5.02h503.583l82.527,309.034Z" transform="translate(-750.801 -677.629)" fill="#00729b"/>
        <path id="Path_6353" data-name="Path 6353" d="M1339.21,1448.23l-.567,3.989-103.27,20.863,1.417-16.849.675-8Z" transform="translate(-987.387 -1060.325)" fill="#00729b"/>
        <path id="Path_6354" data-name="Path 6354" d="M1346.93,1553.08c-4.2.013-85.035.168-105.819-.1-9.058-.113-10.646-8.054-10.721-13.193l102.783-19.337c-1.067,11.776-1.693,19.3-1.7,20.726a12.135,12.135,0,0,0,.2,2.33C1333.39,1552.68,1345.35,1553.08,1346.93,1553.08Z" transform="translate(-984.912 -1096.189)" fill="#00729b" opacity="0.4"/>
        <path id="Path_6355" data-name="Path 6355" d="M1143.81,1246.15l-224.169,76.861-27.469-110.338Z" transform="translate(-816.949 -943.342)" fill="#056487"/>
        <path id="Path_6356" data-name="Path 6356" d="M758.973,677.629h503.583l81.707,305.136H834.936Z" transform="translate(-750.8 -677.629)" fill="#008dbf"/>
      </g>
      <ellipse id="Ellipse_48" data-name="Ellipse 48" cx="12.297" cy="14.93" rx="12.297" ry="14.93" transform="translate(338.504 342.782) rotate(-47.777)" fill="#fff"/>
      <path id="Path_6357" data-name="Path 6357" d="M1341.09,985.667h-471.5l-53.4-212.717L812.1,756.638l-3.5-13.914L800.413,710.1h464.711l8.993,32.626,3.836,13.914,4.5,16.313Z" transform="translate(-771.38 -693.754)" fill="#e4edf9"/>
      <path id="Path_6358" data-name="Path 6358" d="M1274.12,742.724H808.6L800.413,710.1h464.711Z" transform="translate(-771.38 -693.754)" fill="#94e1fc"/>
      <g id="Group_3266" data-name="Group 3266" transform="translate(48.132 27.011)">
        <path id="Path_6359" data-name="Path 6359" d="M838.479,735.365a3.082,3.082,0,0,1,3.062-4.078,5.572,5.572,0,0,1,5.1,4.078,3.081,3.081,0,0,1-3.062,4.078,5.571,5.571,0,0,1-5.1-4.078Z" transform="translate(-838.353 -731.287)" fill="#e9f3fe"/>
        <path id="Path_6360" data-name="Path 6360" d="M865.4,735.365a3.081,3.081,0,0,1,3.062-4.078,5.572,5.572,0,0,1,5.1,4.078,3.081,3.081,0,0,1-3.062,4.078,5.571,5.571,0,0,1-5.1-4.078Z" transform="translate(-851.723 -731.287)" fill="#e9f3fe"/>
        <path id="Path_6361" data-name="Path 6361" d="M894.388,735.365a3.081,3.081,0,0,1,3.062-4.078,5.571,5.571,0,0,1,5.1,4.078,3.081,3.081,0,0,1-3.062,4.078,5.57,5.57,0,0,1-5.1-4.078Z" transform="translate(-866.118 -731.287)" fill="#e9f3fe"/>
      </g>
      <path id="Path_6362" data-name="Path 6362" d="M1271.17,1014.27H921.906L868.755,805.69h344.331Z" transform="translate(-805.319 -741.225)" fill="#f9f9f9" opacity="0.53"/>
      <path id="Path_6363" data-name="Path 6363" d="M1665.52,854.22h-79.16l-14.472-48.532h80.119Z" transform="translate(-1154.506 -741.225)" fill="#94e1fc"/>
      <path id="Path_6364" data-name="Path 6364" d="M1287.13,839.151h-45.291l-1.864-6.983h45.291Z" transform="translate(-989.671 -754.376)" fill="#008dbf"/>
      <path id="Path_6365" data-name="Path 6365" d="M1418.23,839.151h-74.1l-1.864-6.983h74.1Z" transform="translate(-1040.477 -754.376)" fill="#94e1fc"/>
      <path id="Path_6366" data-name="Path 6366" d="M1267.69,876.528h-80.322l-1.864-6.983h80.322Z" transform="translate(-962.621 -772.938)" fill="#94e1fc"/>
      <path id="Path_6367" data-name="Path 6367" d="M1402.92,876.528h-41.633l-1.864-6.983h41.634Z" transform="translate(-1048.992 -772.938)" fill="#fcb200"/>
      <path id="Path_6368" data-name="Path 6368" d="M1314.28,940.877h-45.292l-1.863-6.983h45.291Z" transform="translate(-1003.155 -804.895)" fill="#94e1fc"/>
      <path id="Path_6369" data-name="Path 6369" d="M1445.39,940.877h-74.1l-1.864-6.983h74.095Z" transform="translate(-1053.961 -804.895)" fill="#94e1fc"/>
      <path id="Path_6370" data-name="Path 6370" d="M1294.84,978.254h-80.322l-1.864-6.983h80.322Z" transform="translate(-976.104 -823.456)" fill="#dfdfdf"/>
      <path id="Path_6371" data-name="Path 6371" d="M1430.07,978.254h-41.633l-1.864-6.983h41.633Z" transform="translate(-1062.476 -823.456)" fill="#dfdfdf"/>
      <path id="Path_6372" data-name="Path 6372" d="M1126.29,1036.11H973.059l-1.864-6.983h153.233Z" transform="translate(-856.193 -852.187)" fill="#008dbf"/>
      <path id="Path_6373" data-name="Path 6373" d="M1342.22,1036.11h-45.291l-1.864-6.983h45.291Z" transform="translate(-1017.03 -852.187)" fill="#af0ecc"/>
      <path id="Path_6374" data-name="Path 6374" d="M1473.32,1036.11h-74.1l-1.864-6.983h74.1Z" transform="translate(-1067.835 -852.187)" fill="#94e1fc"/>
      <path id="Path_6375" data-name="Path 6375" d="M1028.33,1073.48H983.035l-1.864-6.983h45.291Z" transform="translate(-861.147 -870.749)" fill="#dfdfdf"/>
      <path id="Path_6376" data-name="Path 6376" d="M1322.78,1073.48h-80.322l-1.864-6.983h80.322Z" transform="translate(-989.979 -870.749)" fill="#fcb200"/>
      <path id="Path_6377" data-name="Path 6377" d="M1159.43,1073.48h-74.095l-1.864-6.983h74.1Z" transform="translate(-911.952 -870.749)" fill="#94e1fc"/>
      <path id="Path_6378" data-name="Path 6378" d="M1458.01,1073.48h-41.633l-1.864-6.983h41.633Z" transform="translate(-1076.351 -870.749)" fill="#94e1fc"/>
      <path id="Path_6379" data-name="Path 6379" d="M1160.85,1139.29H1007.62l-1.864-6.982H1158.99Z" transform="translate(-873.355 -903.43)" fill="#008dbf"/>
      <path id="Path_6380" data-name="Path 6380" d="M1376.77,1139.29h-45.291l-1.864-6.982h45.291Z" transform="translate(-1034.192 -903.43)" fill="#af0ecc"/>
      <path id="Path_6381" data-name="Path 6381" d="M1062.88,1176.67h-45.291l-1.864-6.982h45.291Z" transform="translate(-878.309 -921.992)" fill="#fff"/>
      <path id="Path_6382" data-name="Path 6382" d="M1357.33,1176.67h-80.322l-1.864-6.982h80.322Z" transform="translate(-1007.141 -921.992)" fill="#fcb200"/>
      <path id="Path_6383" data-name="Path 6383" d="M1193.99,1176.67h-74.1l-1.864-6.982h74.1Z" transform="translate(-929.115 -921.992)" fill="#94e1fc"/>
      <path id="Path_6384" data-name="Path 6384" d="M1492.57,1176.67h-41.633l-1.864-6.982H1490.7Z" transform="translate(-1093.513 -921.992)" fill="#94e1fc"/>
      <g id="Group_3267" data-name="Group 3267" transform="translate(435.997 124.707)">
        <path id="Path_6385" data-name="Path 6385" d="M1644.47,928.806l-34.836.107-.771-3.164,34.836-.107Z" transform="translate(-1608.869 -925.503)" fill="#94e1fc"/>
        <path id="Path_6386" data-name="Path 6386" d="M1702.42,928.693l-13.1.04-.771-3.164,13.1-.04Z" transform="translate(-1648.438 -925.447)" fill="#94e1fc"/>
        <path id="Path_6387" data-name="Path 6387" d="M1745.24,928.531l-23.151.071-.771-3.164,23.151-.072Z" transform="translate(-1664.715 -925.367)" fill="#94e1fc"/>
        <path id="Path_6388" data-name="Path 6388" d="M1632.61,944.794l-19.1.059-.771-3.164,19.1-.059Z" transform="translate(-1610.792 -933.444)" fill="#94e1fc"/>
        <path id="Path_6389" data-name="Path 6389" d="M1682.44,944.623l-24.664.076-.771-3.164,24.664-.076Z" transform="translate(-1632.774 -933.359)" fill="#94e1fc"/>
        <path id="Path_6390" data-name="Path 6390" d="M1744.07,944.423l-28.266.087-.771-3.164,28.266-.087Z" transform="translate(-1661.593 -933.259)" fill="#94e1fc"/>
      </g>
      <g id="Group_3268" data-name="Group 3268" transform="translate(440.163 141.799)">
        <path id="Path_6391" data-name="Path 6391" d="M1652.75,962.76l-34.836.108-.771-3.164,34.836-.107Z" transform="translate(-1617.145 -959.458)" fill="#94e1fc"/>
        <path id="Path_6392" data-name="Path 6392" d="M1710.69,962.647l-13.1.04-.771-3.164,13.1-.041Z" transform="translate(-1656.714 -959.402)" fill="#94e1fc"/>
        <path id="Path_6393" data-name="Path 6393" d="M1753.52,962.485l-23.15.071-.771-3.164,23.151-.071Z" transform="translate(-1672.991 -959.322)" fill="#94e1fc"/>
        <path id="Path_6394" data-name="Path 6394" d="M1640.89,978.748l-19.1.059-.771-3.164,19.1-.059Z" transform="translate(-1619.069 -967.398)" fill="#94e1fc"/>
        <path id="Path_6395" data-name="Path 6395" d="M1690.72,978.577l-24.664.076-.771-3.164,24.664-.076Z" transform="translate(-1641.05 -967.313)" fill="#94e1fc"/>
        <path id="Path_6396" data-name="Path 6396" d="M1752.35,978.377l-28.266.087-.771-3.164,28.265-.087Z" transform="translate(-1669.87 -967.213)" fill="#94e1fc"/>
      </g>
      <g id="Group_3269" data-name="Group 3269" transform="translate(427.009 69.211)">
        <path id="Path_6397" data-name="Path 6397" d="M1612.46,817.192l-20.978.064-.464-1.905,20.978-.065Z" transform="translate(-1591.014 -815.203)" fill="#fff"/>
        <path id="Path_6398" data-name="Path 6398" d="M1647.35,817.124l-7.888.024-.464-1.905,7.888-.024Z" transform="translate(-1614.842 -815.169)" fill="#fff"/>
        <path id="Path_6399" data-name="Path 6399" d="M1673.14,817.026l-13.942.043-.464-1.9,13.941-.043Z" transform="translate(-1624.644 -815.121)" fill="#fff"/>
        <path id="Path_6400" data-name="Path 6400" d="M1605.31,826.82l-11.5.035-.465-1.905,11.5-.035Z" transform="translate(-1592.172 -819.985)" fill="#fff"/>
        <path id="Path_6401" data-name="Path 6401" d="M1635.32,826.717l-14.852.046-.464-1.905,14.852-.046Z" transform="translate(-1605.41 -819.933)" fill="#fff"/>
        <path id="Path_6402" data-name="Path 6402" d="M1672.43,826.6l-17.022.052-.465-1.905,17.021-.053Z" transform="translate(-1622.764 -819.873)" fill="#fff"/>
      </g>
      <g id="Group_3270" data-name="Group 3270" transform="translate(429.518 79.504)">
        <path id="Path_6403" data-name="Path 6403" d="M1617.44,837.639l-20.978.065-.462-1.9,20.978-.065Z" transform="translate(-1595.997 -835.65)" fill="#fff"/>
        <path id="Path_6404" data-name="Path 6404" d="M1652.33,837.571l-7.889.024-.465-1.906,7.889-.024Z" transform="translate(-1619.825 -835.616)" fill="#fff"/>
        <path id="Path_6405" data-name="Path 6405" d="M1678.12,837.473l-13.941.043-.465-1.905,13.942-.043Z" transform="translate(-1629.628 -835.568)" fill="#fff"/>
        <path id="Path_6406" data-name="Path 6406" d="M1610.3,847.267l-11.5.035-.464-1.905,11.5-.036Z" transform="translate(-1597.156 -840.432)" fill="#fff"/>
        <path id="Path_6407" data-name="Path 6407" d="M1640.3,847.164l-14.852.046-.464-1.905,14.852-.046Z" transform="translate(-1610.393 -840.381)" fill="#fff"/>
        <path id="Path_6408" data-name="Path 6408" d="M1677.42,847.043l-17.021.053-.464-1.905,17.021-.052Z" transform="translate(-1627.748 -840.32)" fill="#fff"/>
      </g>
      <g id="Group_3271" data-name="Group 3271" transform="translate(447.281 171.003)">
        <path id="Path_6409" data-name="Path 6409" d="M1666.89,1020.78l-34.836.107-.771-3.163,34.836-.108Z" transform="translate(-1631.286 -1017.473)" fill="#94e1fc"/>
        <path id="Path_6410" data-name="Path 6410" d="M1724.83,1020.66l-13.1.04-.771-3.164,13.1-.04Z" transform="translate(-1670.855 -1017.417)" fill="#94e1fc"/>
        <path id="Path_6411" data-name="Path 6411" d="M1767.66,1020.5l-23.151.071-.771-3.163,23.15-.072Z" transform="translate(-1687.132 -1017.336)" fill="#94e1fc"/>
        <path id="Path_6412" data-name="Path 6412" d="M1655.03,1036.76l-19.1.059-.771-3.164,19.1-.059Z" transform="translate(-1633.209 -1025.413)" fill="#94e1fc"/>
        <path id="Path_6413" data-name="Path 6413" d="M1704.86,1036.59l-24.664.076-.771-3.164,24.664-.076Z" transform="translate(-1655.191 -1025.328)" fill="#94e1fc"/>
        <path id="Path_6414" data-name="Path 6414" d="M1766.49,1036.39l-28.266.088-.771-3.164,28.266-.087Z" transform="translate(-1684.01 -1025.229)" fill="#94e1fc"/>
      </g>
      <g id="Group_3272" data-name="Group 3272" transform="translate(454.258 199.626)">
        <path id="Path_6415" data-name="Path 6415" d="M1680.75,1077.64l-34.836.107-.771-3.164,34.836-.107Z" transform="translate(-1645.146 -1074.334)" fill="#94e1fc"/>
        <path id="Path_6416" data-name="Path 6416" d="M1738.69,1077.52l-13.1.04-.771-3.164,13.1-.041Z" transform="translate(-1684.715 -1074.278)" fill="#94e1fc"/>
        <path id="Path_6417" data-name="Path 6417" d="M1781.52,1077.36l-23.151.071-.771-3.164,23.151-.071Z" transform="translate(-1700.992 -1074.197)" fill="#94e1fc"/>
        <path id="Path_6418" data-name="Path 6418" d="M1668.89,1093.63l-19.1.058-.771-3.164,19.1-.059Z" transform="translate(-1647.069 -1082.274)" fill="#94e1fc"/>
        <path id="Path_6419" data-name="Path 6419" d="M1718.72,1093.45l-24.664.076-.771-3.164,24.664-.076Z" transform="translate(-1669.051 -1082.189)" fill="#94e1fc"/>
        <path id="Path_6420" data-name="Path 6420" d="M1780.35,1093.25l-28.266.087-.771-3.164,28.266-.087Z" transform="translate(-1697.87 -1082.089)" fill="#94e1fc"/>
      </g>
      <g id="Group_3273" data-name="Group 3273" transform="translate(460.544 225.414)">
        <path id="Path_6421" data-name="Path 6421" d="M1693.24,1128.86l-34.836.107-.771-3.164,34.836-.107Z" transform="translate(-1657.633 -1125.563)" fill="#94e1fc"/>
        <path id="Path_6422" data-name="Path 6422" d="M1751.18,1128.75l-13.1.04-.771-3.164,13.1-.04Z" transform="translate(-1697.203 -1125.507)" fill="#94e1fc"/>
        <path id="Path_6423" data-name="Path 6423" d="M1794.01,1128.59l-23.151.071-.771-3.164,23.151-.071Z" transform="translate(-1713.479 -1125.426)" fill="#94e1fc"/>
        <path id="Path_6424" data-name="Path 6424" d="M1681.38,1144.85l-19.1.059-.771-3.164,19.1-.059Z" transform="translate(-1659.556 -1133.503)" fill="#94e1fc"/>
        <path id="Path_6425" data-name="Path 6425" d="M1731.2,1144.68l-24.664.076-.771-3.164,24.664-.076Z" transform="translate(-1681.539 -1133.418)" fill="#94e1fc"/>
        <path id="Path_6426" data-name="Path 6426" d="M1792.84,1144.48l-28.266.087-.771-3.164,28.265-.087Z" transform="translate(-1710.357 -1133.318)" fill="#94e1fc"/>
      </g>
      <g id="Group_3280" data-name="Group 3280" transform="translate(499.021 246.766)">
        <g id="Group_3276" data-name="Group 3276">
          <g id="Group_3274" data-name="Group 3274">
            <path id="Path_6427" data-name="Path 6427" d="M1747.61,1188.15c-5.6,0-11.483-4.555-13.117-10.153s1.59-10.153,7.189-10.153,11.482,4.554,13.117,10.153S1753.21,1188.15,1747.61,1188.15Zm-5.386-18.452c-4.576,0-7.212,3.723-5.876,8.3s6.146,8.3,10.722,8.3,7.211-3.722,5.875-8.3-6.145-8.3-10.715-8.3Z" transform="translate(-1734.07 -1167.844)" fill="#a8d29f"/>
          </g>
          <g id="Group_3275" data-name="Group 3275" transform="translate(4.24 5.961)">
            <path id="Path_6428" data-name="Path 6428" d="M1750.13,1189.04a2.11,2.11,0,0,1-1.139-.473l-5.7-4.562a1.668,1.668,0,0,1-.589-2.184,1.556,1.556,0,0,1,2.2.048l4.024,3.224,2.064-4.77c.3-.691,1.22-.844,2.057-.345a1.876,1.876,0,0,1,.975,2.158l-2.712,6.271a1.083,1.083,0,0,1-.961.635,1.7,1.7,0,0,1-.219,0Z" transform="translate(-1742.493 -1179.686)" fill="#a8d29f"/>
          </g>
        </g>
        <g id="Group_3279" data-name="Group 3279" transform="translate(28.027)">
          <g id="Group_3277" data-name="Group 3277">
            <path id="Path_6429" data-name="Path 6429" d="M1803.29,1188.15c-5.6,0-11.482-4.555-13.116-10.153s1.591-10.153,7.189-10.153,11.482,4.554,13.117,10.153S1808.89,1188.15,1803.29,1188.15Zm-5.39-18.45c-4.577,0-7.212,3.723-5.877,8.3s6.146,8.3,10.722,8.3,7.212-3.722,5.876-8.3S1802.48,1169.7,1797.9,1169.7Z" transform="translate(-1789.748 -1167.844)" fill="#fcb200"/>
          </g>
          <g id="Group_3278" data-name="Group 3278" transform="translate(7.889 4.629)">
            <path id="Path_6430" data-name="Path 6430" d="M1808.59,1184.22h0a2.08,2.08,0,0,1-1.855-1.436l-1.259-4.313a1.042,1.042,0,0,1,1.017-1.436h0a2.078,2.078,0,0,1,1.855,1.436l1.259,4.313a1.042,1.042,0,0,1-1.017,1.436Z" transform="translate(-1805.42 -1177.039)" fill="#fcb200"/>
            <path id="Path_6431" data-name="Path 6431" d="M1812.01,1195.51h-.31a1.852,1.852,0,0,1-1.654-1.281h0a.929.929,0,0,1,.907-1.281h.31a1.854,1.854,0,0,1,1.654,1.281h0a.929.929,0,0,1-.907,1.281Z" transform="translate(-1807.688 -1184.94)" fill="#fcb200"/>
          </g>
        </g>
      </g>
      <g id="Group_3293" data-name="Group 3293" transform="translate(441.482 97.187)">
        <g id="Group_3283" data-name="Group 3283" transform="translate(32.426)">
          <g id="Group_3281" data-name="Group 3281">
            <path id="Path_6432" data-name="Path 6432" d="M1691.6,881.831a8.04,8.04,0,0,1-7.192-5.567c-.9-3.069.872-5.566,3.941-5.566a8.041,8.041,0,0,1,7.192,5.566C1696.44,879.333,1694.67,881.831,1691.6,881.831Zm-2.953-10.117c-2.51,0-3.955,2.041-3.223,4.55a6.571,6.571,0,0,0,5.878,4.55c2.509,0,3.954-2.041,3.221-4.55a6.57,6.57,0,0,0-5.873-4.55Z" transform="translate(-1684.18 -870.697)" fill="#a8d29f"/>
          </g>
          <g id="Group_3282" data-name="Group 3282" transform="translate(2.324 3.269)">
            <path id="Path_6433" data-name="Path 6433" d="M1692.99,882.32a1.156,1.156,0,0,1-.624-.259l-3.123-2.5a.915.915,0,0,1-.323-1.2.853.853,0,0,1,1.206.027l2.206,1.767,1.132-2.616c.163-.379.669-.463,1.128-.189a1.028,1.028,0,0,1,.534,1.183l-1.487,3.438a.593.593,0,0,1-.527.348.905.905,0,0,1-.122,0Z" transform="translate(-1688.798 -877.19)" fill="#a8d29f"/>
          </g>
        </g>
        <g id="Group_3286" data-name="Group 3286" transform="translate(16.498)">
          <g id="Group_3284" data-name="Group 3284">
            <path id="Path_6434" data-name="Path 6434" d="M1659.96,881.831a8.04,8.04,0,0,1-7.192-5.567c-.9-3.069.872-5.566,3.942-5.566a8.04,8.04,0,0,1,7.191,5.566C1664.8,879.333,1663.03,881.831,1659.96,881.831Zm-2.953-10.117c-2.509,0-3.955,2.041-3.222,4.55a6.571,6.571,0,0,0,5.877,4.55c2.509,0,3.955-2.041,3.222-4.55a6.572,6.572,0,0,0-5.874-4.55Z" transform="translate(-1652.539 -870.697)" fill="#a8d29f"/>
          </g>
          <g id="Group_3285" data-name="Group 3285" transform="translate(2.325 3.269)">
            <path id="Path_6435" data-name="Path 6435" d="M1661.35,882.32a1.158,1.158,0,0,1-.625-.259l-3.123-2.5a.914.914,0,0,1-.323-1.2.853.853,0,0,1,1.205.027l2.207,1.767,1.131-2.616c.164-.379.669-.463,1.128-.189a1.03,1.03,0,0,1,.535,1.183L1662,881.971a.594.594,0,0,1-.527.348.9.9,0,0,1-.12,0Z" transform="translate(-1657.157 -877.19)" fill="#a8d29f"/>
          </g>
        </g>
        <g id="Group_3289" data-name="Group 3289">
          <g id="Group_3287" data-name="Group 3287">
            <path id="Path_6436" data-name="Path 6436" d="M1627.19,881.831a8.04,8.04,0,0,1-7.191-5.567c-.9-3.069.872-5.566,3.942-5.566a8.041,8.041,0,0,1,7.191,5.566C1632.03,879.333,1630.26,881.831,1627.19,881.831Zm-2.953-10.117c-2.509,0-3.954,2.041-3.221,4.55a6.57,6.57,0,0,0,5.878,4.55c2.509,0,3.954-2.041,3.222-4.55a6.571,6.571,0,0,0-5.876-4.55Z" transform="translate(-1619.765 -870.697)" fill="#a8d29f"/>
          </g>
          <g id="Group_3288" data-name="Group 3288" transform="translate(2.325 3.269)">
            <path id="Path_6437" data-name="Path 6437" d="M1628.57,882.32a1.157,1.157,0,0,1-.625-.259l-3.123-2.5a.915.915,0,0,1-.323-1.2.853.853,0,0,1,1.206.027l2.207,1.767,1.132-2.616c.164-.379.669-.463,1.127-.189a1.028,1.028,0,0,1,.534,1.183l-1.488,3.438a.593.593,0,0,1-.526.348.889.889,0,0,1-.121,0Z" transform="translate(-1624.383 -877.19)" fill="#a8d29f"/>
          </g>
        </g>
        <g id="Group_3292" data-name="Group 3292" transform="translate(47.792)">
          <g id="Group_3290" data-name="Group 3290">
            <path id="Path_6438" data-name="Path 6438" d="M1722.13,881.831a8.04,8.04,0,0,1-7.191-5.567c-.9-3.069.873-5.566,3.942-5.566a8.039,8.039,0,0,1,7.191,5.566C1726.97,879.333,1725.2,881.831,1722.13,881.831Zm-2.953-10.117c-2.509,0-3.955,2.041-3.221,4.55a6.57,6.57,0,0,0,5.878,4.55c2.509,0,3.954-2.041,3.221-4.55a6.572,6.572,0,0,0-5.875-4.55Z" transform="translate(-1714.706 -870.697)" fill="#fcb200"/>
          </g>
          <g id="Group_3291" data-name="Group 3291" transform="translate(4.325 2.538)">
            <path id="Path_6439" data-name="Path 6439" d="M1725.04,879.679h0a1.141,1.141,0,0,1-1.018-.787l-.69-2.365a.572.572,0,0,1,.558-.787h0a1.139,1.139,0,0,1,1.017.787l.691,2.365a.572.572,0,0,1-.558.787Z" transform="translate(-1723.299 -875.739)" fill="#fcb200"/>
            <path id="Path_6440" data-name="Path 6440" d="M1726.91,885.867h-.17a1.018,1.018,0,0,1-.908-.7h0a.51.51,0,0,1,.5-.7h.169a1.016,1.016,0,0,1,.907.7h0a.509.509,0,0,1-.5.7Z" transform="translate(-1724.542 -880.071)" fill="#fcb200"/>
          </g>
        </g>
      </g>
    </g>
    <g id="Group_3325" data-name="Group 3325" transform="translate(270 5129.354)">
      <path id="Path_6517" data-name="Path 6517" d="M929.153,888.949H678.089L639.065,761.155H890.129Z" transform="translate(-639.065 -761.155)" fill="#fafdff"/>
      <path id="Path_6518" data-name="Path 6518" d="M908.832,832.737H689.614l-16.585-54.312H892.247Z" transform="translate(-654.179 -768.84)" fill="#008dbf"/>
      <g id="Group_3310" data-name="Group 3310" transform="translate(33.462 17.726)">
        <path id="Path_6519" data-name="Path 6519" d="M737.375,795.992H700.241l-.885-2.9H736.49Z" transform="translate(-699.356 -793.095)" fill="#cae0ff"/>
        <path id="Path_6520" data-name="Path 6520" d="M813.952,795.992H783.068l-.885-2.9h30.884Z" transform="translate(-736.214 -793.095)" fill="#cae0ff"/>
        <path id="Path_6521" data-name="Path 6521" d="M917.045,795.992H853.213l-.885-2.9h63.833Z" transform="translate(-767.429 -793.095)" fill="#cae0ff"/>
        <path id="Path_6522" data-name="Path 6522" d="M743.087,814.7H705.953l-.885-2.9H742.2Z" transform="translate(-701.898 -801.418)" fill="#cae0ff"/>
        <path id="Path_6523" data-name="Path 6523" d="M819.664,814.7H788.78l-.885-2.9h30.884Z" transform="translate(-738.756 -801.418)" fill="#cae0ff"/>
        <path id="Path_6524" data-name="Path 6524" d="M885.383,814.7H854.5l-.885-2.9H884.5Z" transform="translate(-768.001 -801.418)" fill="#cae0ff"/>
        <path id="Path_6525" data-name="Path 6525" d="M990.835,816.872H927l-.885-2.9H989.95Z" transform="translate(-800.265 -802.386)" fill="#cae0ff"/>
      </g>
      <g id="Group_3311" data-name="Group 3311" transform="translate(40.651 41.27)">
        <path id="Path_6526" data-name="Path 6526" d="M750.328,838.412H713.2l-.885-2.9h37.134Z" transform="translate(-712.31 -835.515)" fill="#cae0ff"/>
        <path id="Path_6527" data-name="Path 6527" d="M826.906,838.412H796.022l-.885-2.9h30.884Z" transform="translate(-749.168 -835.515)" fill="#cae0ff"/>
        <path id="Path_6528" data-name="Path 6528" d="M930,838.412H866.167l-.885-2.9h63.833Z" transform="translate(-780.382 -835.515)" fill="#cae0ff"/>
        <path id="Path_6529" data-name="Path 6529" d="M756.041,857.117H718.907l-.885-2.9h37.134Z" transform="translate(-714.852 -843.839)" fill="#cae0ff"/>
        <path id="Path_6530" data-name="Path 6530" d="M832.618,857.117H801.734l-.885-2.9h30.884Z" transform="translate(-751.71 -843.839)" fill="#cae0ff"/>
        <path id="Path_6531" data-name="Path 6531" d="M898.336,857.117H867.453l-.885-2.9h30.884Z" transform="translate(-780.954 -843.839)" fill="#cae0ff"/>
        <path id="Path_6532" data-name="Path 6532" d="M1003.79,859.292H939.956l-.885-2.9H1002.9Z" transform="translate(-813.218 -844.806)" fill="#cae0ff"/>
      </g>
      <g id="Group_3324" data-name="Group 3324" transform="translate(71.689 78.027)">
        <g id="Group_3314" data-name="Group 3314" transform="translate(89.891)">
          <g id="Group_3312" data-name="Group 3312">
            <path id="Path_6533" data-name="Path 6533" d="M951.049,932.608c-8.509,0-17.546-6.922-20.144-15.432s2.211-15.432,10.719-15.432,17.546,6.923,20.144,15.432S959.558,932.608,951.049,932.608Zm-8.564-28.045c-6.955,0-10.886,5.658-8.762,12.614s9.51,12.614,16.465,12.614,10.886-5.658,8.762-12.614-9.51-12.615-16.465-12.615Z" transform="translate(-930.2 -901.744)" fill="#a8d29f"/>
          </g>
          <g id="Group_3313" data-name="Group 3313" transform="translate(6.476 9.061)">
            <path id="Path_6534" data-name="Path 6534" d="M953.615,932.29a3.244,3.244,0,0,1-1.741-.718l-8.751-6.934c-1.183-.937-1.6-2.423-.94-3.32s2.159-.864,3.343.073l6.183,4.9,3.039-7.251c.441-1.049,1.837-1.282,3.12-.524a2.887,2.887,0,0,1,1.525,3.28l-3.995,9.531a1.618,1.618,0,0,1-1.448.965,2.334,2.334,0,0,1-.335,0Z" transform="translate(-941.868 -918.071)" fill="#a8d29f"/>
          </g>
        </g>
        <g id="Group_3317" data-name="Group 3317" transform="translate(45.737)">
          <g id="Group_3315" data-name="Group 3315">
            <path id="Path_6535" data-name="Path 6535" d="M871.491,932.608c-8.509,0-17.545-6.922-20.144-15.432s2.21-15.432,10.719-15.432,17.545,6.923,20.144,15.432S880,932.608,871.491,932.608Zm-8.564-28.045c-6.955,0-10.885,5.658-8.762,12.614s9.51,12.614,16.465,12.614,10.886-5.658,8.762-12.614-9.509-12.615-16.465-12.615Z" transform="translate(-850.643 -901.744)" fill="#a8d29f"/>
          </g>
          <g id="Group_3316" data-name="Group 3316" transform="translate(6.475 9.061)">
            <path id="Path_6536" data-name="Path 6536" d="M874.057,932.29a3.244,3.244,0,0,1-1.741-.718l-8.751-6.934c-1.183-.937-1.6-2.423-.94-3.32s2.159-.864,3.343.073l6.183,4.9,3.04-7.251c.44-1.049,1.837-1.282,3.12-.524a2.887,2.887,0,0,1,1.525,3.28l-4,9.531a1.617,1.617,0,0,1-1.447.965A2.336,2.336,0,0,1,874.057,932.29Z" transform="translate(-862.31 -918.071)" fill="#a8d29f"/>
          </g>
        </g>
        <g id="Group_3320" data-name="Group 3320">
          <g id="Group_3318" data-name="Group 3318">
            <path id="Path_6537" data-name="Path 6537" d="M789.083,932.608c-8.509,0-17.545-6.922-20.144-15.432s2.211-15.432,10.719-15.432,17.546,6.923,20.144,15.432S797.593,932.608,789.083,932.608Zm-8.564-28.045c-6.955,0-10.886,5.658-8.762,12.614s9.51,12.614,16.465,12.614,10.886-5.658,8.762-12.614-9.509-12.615-16.464-12.615Z" transform="translate(-768.235 -901.744)" fill="#a8d29f"/>
          </g>
          <g id="Group_3319" data-name="Group 3319" transform="translate(6.476 9.061)">
            <path id="Path_6538" data-name="Path 6538" d="M791.649,932.29a3.243,3.243,0,0,1-1.74-.718l-8.751-6.934c-1.183-.937-1.6-2.423-.94-3.32s2.159-.864,3.343.073l6.183,4.9,3.039-7.251c.44-1.049,1.837-1.282,3.12-.524a2.887,2.887,0,0,1,1.525,3.28l-4,9.531a1.618,1.618,0,0,1-1.447.965,2.335,2.335,0,0,1-.337,0Z" transform="translate(-779.902 -918.071)" fill="#a8d29f"/>
          </g>
        </g>
        <g id="Group_3323" data-name="Group 3323" transform="translate(132.491)">
          <g id="Group_3321" data-name="Group 3321">
            <path id="Path_6539" data-name="Path 6539" d="M1027.8,932.608c-8.509,0-17.545-6.922-20.144-15.432s2.21-15.432,10.719-15.432,17.545,6.923,20.144,15.432S1036.31,932.608,1027.8,932.608Zm-8.564-28.045c-6.955,0-10.885,5.658-8.761,12.614s9.51,12.614,16.465,12.614,10.886-5.658,8.762-12.614-9.5-12.615-16.462-12.615Z" transform="translate(-1006.956 -901.744)" fill="#fcb200"/>
          </g>
          <g id="Group_3322" data-name="Group 3322" transform="translate(11.958 7.036)">
            <path id="Path_6540" data-name="Path 6540" d="M1033.45,925.342h0a3.214,3.214,0,0,1-2.848-2.182l-2-6.556a1.563,1.563,0,0,1,1.516-2.182h0a3.213,3.213,0,0,1,2.849,2.182l2,6.556a1.563,1.563,0,0,1-1.517,2.182Z" transform="translate(-1028.502 -914.422)" fill="#fcb200"/>
            <path id="Path_6541" data-name="Path 6541" d="M1038.19,940.248h-.471a2.867,2.867,0,0,1-2.541-1.946h0a1.394,1.394,0,0,1,1.352-1.946h.47a2.867,2.867,0,0,1,2.542,1.946h0a1.394,1.394,0,0,1-1.352,1.946Z" transform="translate(-1031.433 -924.182)" fill="#fcb200"/>
          </g>
        </g>
      </g>
    </g>
    <g id="Group_3326" data-name="Group 3326" transform="translate(916.729 5129)">
      <path id="Path_6542" data-name="Path 6542" d="M2125.53,945.563s29.7,30.789,31.1,42.378-14.225,29.678-14.225,29.678Z" transform="translate(-2057.374 -883.833)" fill="#f0aa01"/>
      <path id="Path_6543" data-name="Path 6543" d="M2062.46,1555.47s-1.049,16.332-4.208,16.559c-.421.03-16.027,0-16.027,0l-19.923-.159s.141-4.8,5.967-5.8,15.582-5.074,19.127-12.764C2051.13,1545.21,2062.46,1555.47,2062.46,1555.47Z" transform="translate(-2007.723 -1174.65)" fill="#1a1a1a"/>
      <path id="Path_6544" data-name="Path 6544" d="M2147.96,1555.65s-1.048,16.331-4.208,16.559c-.42.03-16.027,0-16.027,0l-19.923-.158s.141-4.8,5.967-5.8,15.583-5.074,19.127-12.764C2136.63,1545.4,2147.96,1555.65,2147.96,1555.65Z" transform="translate(-2048.847 -1174.74)" fill="#1a1a1a"/>
      <path id="Path_6545" data-name="Path 6545" d="M2057.9,1199.02s5.139,33.337,24.449,92.54,21.9,84.825,21.9,84.825l20.854-.539s.318-64.654-8.575-94.422-1.7-107.253-1.7-107.253Z" transform="translate(-2024.844 -993.788)" fill="#1a1a1a"/>
      <path id="Path_6546" data-name="Path 6546" d="M2038.43,1177.4a808.892,808.892,0,0,0,7.708,111.9c8.555,61.681,5.552,87.849,5.552,87.849l20.81.737s12.57-61.658,9.072-92.529,17.26-105.869,17.26-105.869Z" transform="translate(-2015.466 -995.345)" fill="#2b2b2b"/>
      <path id="Path_6547" data-name="Path 6547" d="M2091.43,928.123l-11.1,7.246-16.018-3.022c.224-1.293,1.294-6.652,2.268-11.507.058-.286.117-.572.173-.852.834-4.13,1.554-7.678,1.554-7.678l14.981-6.571,5.586-2.45c-.014.087-.443,4.585-.5,5.241C2087.29,920.191,2091.43,928.123,2091.43,928.123Z" transform="translate(-2027.924 -863.5)" fill="#a16d3c"/>
      <path id="Path_6548" data-name="Path 6548" d="M2066.29,939.28c.311-.13,19.309-5.692,21.371-5.006s3.273,4.678,3.273,4.678l-31.07,6.954S2062.32,940.942,2066.29,939.28Z" transform="translate(-2025.789 -878.375)" fill="#f0aa01"/>
      <path id="Path_6549" data-name="Path 6549" d="M2103.52,1071.02c-3.25,14.674-56.814,16.3-70.591,2.942-1.566-1.522-1.629-8.59-1.016-18.117,1.2-18.615,4.98-46.611,5.156-60.919a113.335,113.335,0,0,1,2.329-20.388,165.56,165.56,0,0,1,6.847-24.4s26.179-8.4,31.071-6.952C2100.88,950.168,2106.77,1056.34,2103.52,1071.02Z" transform="translate(-2012.172 -882.609)" fill="#fcb200"/>
      <path id="Path_6550" data-name="Path 6550" d="M2032.25,1082.5c1.2-18.615,4.98-46.611,5.156-60.919a113.356,113.356,0,0,1,2.329-20.388l15.743-2.743S2070.73,1061.33,2032.25,1082.5Z" transform="translate(-2012.506 -909.273)" fill="#f0aa01"/>
      <path id="Path_6551" data-name="Path 6551" d="M2044.6,1108.17a3.7,3.7,0,0,1-1.19,4.282c-2.256,1.717-3.723,4.5-3.211,6.542s5.446,5.375,7.159,4.842,5.206-3.209,4.833-4.285,2.365-9.43-1.8-12.657S2044.6,1108.17,2044.6,1108.17Z" transform="translate(-2016.283 -960.873)" fill="#a16d3c"/>
      <path id="Path_6552" data-name="Path 6552" d="M2040.31,949.53s-15.354,2.839-27.622,20.834-20.343,31.377-18.1,37.876,22.723,29.072,26.264,29.08,9.258-2.554,9.593-8.346c0,0-14.41-21.7-11.555-24.938,1.22-1.384,18.8-15.6,21.3-9.154C2044.3,1005.54,2040.31,949.53,2040.31,949.53Z" transform="translate(-1994.211 -885.741)" fill="#fcb200"/>
      <path id="Path_6553" data-name="Path 6553" d="M2089.34,911c-3.3,5.56-15.556,10.348-20.667,12.107.059-.286.117-.572.173-.852.834-4.13,1.554-7.678,1.554-7.678l14.981-6.571C2088.69,907.97,2090.7,908.714,2089.34,911Z" transform="translate(-2030.026 -865.769)" fill="#74461c"/>
      <path id="Path_6554" data-name="Path 6554" d="M2058.36,882.145s24.093,7.573,28.578-7.5,10.615-24.253-4.577-29.725-19.907-.613-22.628,4.055S2052.21,879.786,2058.36,882.145Z" transform="translate(-2023.627 -834.257)" fill="#a16d3c"/>
      <path id="Path_6555" data-name="Path 6555" d="M2063.52,839.889s1.5,17.558,5.132,16.8,6.926-1.312,6.383,3.979-5.591,11.39,5.6,12.35,27.333-27.859,24.272-33.329C2096.07,823.911,2050.75,820.631,2063.52,839.889Z" transform="translate(-2026.464 -826.626)" fill="#1a1a1a"/>
    </g>
    <g id="Group_3309" data-name="Group 3309" transform="translate(539.896 5010.792)">
      <path id="Path_6501" data-name="Path 6501" d="M1721.62,676.028H1364.73l-27.351-89.566h356.886Z" transform="translate(-1337.382 -586.462)" fill="#f9f9f9"/>
      <g id="Group_3307" data-name="Group 3307" transform="translate(30.1 21.715)">
        <path id="Path_6502" data-name="Path 6502" d="M1704.82,634.158l3.272,10.713c1.44,4.714-1.24,8.57-5.953,8.57H1406.46c-4.714,0-9.748-3.857-11.187-8.57L1392,634.158c-1.439-4.714,1.24-8.57,5.953-8.57h295.674C1698.34,625.588,1703.38,629.445,1704.82,634.158Z" transform="translate(-1391.615 -625.588)" fill="#94e1fc"/>
        <g id="Group_3305" data-name="Group 3305" transform="translate(249.032 9.261)">
          <path id="Path_6503" data-name="Path 6503" d="M1845.28,643.945h-4.536l-.426-1.392h6.342l.366,1.2-1.683,7.823h-1.779Z" transform="translate(-1840.32 -642.399)" fill="#008dbf"/>
          <path id="Path_6504" data-name="Path 6504" d="M1856.01,646.94c-.787-2.578.148-4.665,2.519-4.665s4.548,2.062,5.343,4.665c.787,2.578-.148,4.665-2.519,4.665S1856.81,649.544,1856.01,646.94Zm6.225,0c-.542-1.778-1.9-3.235-3.294-3.235s-1.848,1.418-1.293,3.235c.543,1.779,1.889,3.234,3.294,3.234s1.848-1.429,1.3-3.234Z" transform="translate(-1847.182 -642.275)" fill="#008dbf"/>
          <path id="Path_6505" data-name="Path 6505" d="M1871.48,644.674c-.382-1.25.158-2.306,1.434-2.306a3.168,3.168,0,0,1,2.818,2.306c.382,1.25-.159,2.308-1.434,2.308a3.169,3.169,0,0,1-2.818-2.308Zm6.839-2.2h1.277l-3.844,9.022h-1.276Zm-3.734,2.2a1.721,1.721,0,0,0-1.393-1.314c-.607,0-.786.593-.565,1.314a1.706,1.706,0,0,0,1.393,1.315c.61,0,.79-.589.57-1.315Zm3.754,4.615c-.381-1.25.16-2.307,1.435-2.307a3.171,3.171,0,0,1,2.819,2.307c.381,1.25-.159,2.307-1.435,2.307a3.171,3.171,0,0,1-2.818-2.307Zm3.106,0a1.718,1.718,0,0,0-1.393-1.315c-.606,0-.786.593-.565,1.315a1.7,1.7,0,0,0,1.394,1.314c.609,0,.789-.593.569-1.314Z" transform="translate(-1854.133 -642.316)" fill="#008dbf"/>
        </g>
        <g id="Group_3306" data-name="Group 3306">
          <path id="Path_6506" data-name="Path 6506" d="M1597.89,625.588l8.506,27.853H1406.46c-3.928,0-8.074-2.678-10.178-6.292a10.566,10.566,0,0,1-1.01-2.279L1392,634.158c-1.439-4.714,1.24-8.57,5.953-8.57Z" transform="translate(-1391.615 -625.588)" fill="#fcb200"/>
          <path id="Path_6507" data-name="Path 6507" d="M1437.09,625.588l-8.428,27.853h-18.455c-3.928,0-8.074-2.678-10.178-6.292l6.521-21.562Z" transform="translate(-1395.36 -625.588)" fill="#f0aa01"/>
          <path id="Path_6508" data-name="Path 6508" d="M1529.84,625.588l-8.427,27.854H1490.88l8.428-27.854Z" transform="translate(-1435.788 -625.588)" fill="#f0aa01"/>
          <path id="Path_6509" data-name="Path 6509" d="M1624.12,625.588l-8.428,27.854h-30.539l8.428-27.854Z" transform="translate(-1477.739 -625.588)" fill="#f0aa01"/>
          <path id="Path_6510" data-name="Path 6510" d="M1718.41,625.588l-8.428,27.854h-30.539l8.428-27.854Z" transform="translate(-1519.696 -625.588)" fill="#f0aa01"/>
        </g>
      </g>
      <g id="Group_3308" data-name="Group 3308" transform="translate(44.651 62.385)">
        <path id="Path_6511" data-name="Path 6511" d="M1472.36,702.549h-53.4l-1.125-3.683h53.4Z" transform="translate(-1417.834 -698.866)" fill="#94e1fc"/>
        <path id="Path_6512" data-name="Path 6512" d="M1463.43,721.109h-38.8l-1.125-3.683h38.8Z" transform="translate(-1420.356 -707.125)" fill="#94e1fc"/>
        <path id="Path_6513" data-name="Path 6513" d="M1522.04,721.109h-23.193l-1.125-3.683h23.192Z" transform="translate(-1453.384 -707.125)" fill="#94e1fc"/>
        <path id="Path_6514" data-name="Path 6514" d="M1583.29,721.109h-35.429l-1.125-3.683h35.429Z" transform="translate(-1475.196 -707.125)" fill="#94e1fc"/>
        <path id="Path_6515" data-name="Path 6515" d="M1538.58,702.549h-16.168l-1.125-3.683h16.168Z" transform="translate(-1463.869 -698.866)" fill="#94e1fc"/>
        <path id="Path_6516" data-name="Path 6516" d="M1620.3,702.549h-58.79l-1.125-3.683h58.793Z" transform="translate(-1481.269 -698.866)" fill="#94e1fc"/>
      </g>
    </g>
    <g id="Group_3304" data-name="Group 3304" transform="translate(278 5276.319)">
      <path id="Path_6476" data-name="Path 6476" d="M2501.82,1374.14c-3.64,13.606-30.538,21.615-59.96,26.312h-109.8c-26.466-12.959-26.428-28.412-28.552-71.085-4.386-88.139,41.979-130.689,62.655-123.665.858.292,1.735.609,2.625.972,6.009,2.417,12.738,6.686,19.285,16.846,0,0,20.551,34.25,37.461,54.68,5.445,6.577,10.513,11.728,14.391,13.833a.963.963,0,0,0,.138.072c.207.11.407.207.607.3,8.96,4.1,21.591,12.7,33.125,23.546h.007C2491.69,1332.76,2506.95,1354.96,2501.82,1374.14Z" transform="translate(-2303.219 -1148.266)" fill="#2b2b2b"/>
      <path id="Path_6477" data-name="Path 6477" d="M2480.99,1327.6c-15.394,4.73-94.627,27.6-113.273,3.35-13.5-17.564-5.095-62.558,2.362-91.672,3.056-11.932,18.315-14.642,24.99-4.41l.2.3s20.551,34.25,37.461,54.68c4.894,6.453,9.718,11.43,14.391,13.833a.952.952,0,0,0,.138.072c.2.11.408.207.607.3C2456.83,1308.16,2469.46,1316.75,2480.99,1327.6Z" transform="translate(-2310.413 -1159.917)" fill="#1a1a1a" opacity="0.3"/>
      <g id="Group_3303" data-name="Group 3303" transform="translate(50.583)">
        <path id="Path_6478" data-name="Path 6478" d="M2400.89,1204.57s5.491,8.125,8.622,25.2c2.743,14.959,5.147,20.481,9.108,23.549s26.027,12.125,26.027,12.125l-1.649,3.865s-32.345-4.4-35.978-9.81-17.483-37.344-16.409-44.7S2400.89,1204.57,2400.89,1204.57Z" transform="translate(-2339.825 -1148.078)" fill="#a16d3c"/>
        <g id="Group_3300" data-name="Group 3300" transform="translate(138.522 212.571)">
          <path id="Path_6479" data-name="Path 6479" d="M2262.97,1535.26c-.292,3.154,4.1,3.922,9.187,4.175s3.549,1.294,10.52,2.557,9.764-.644,10.268-1.587c.449-.835-2.791-2.142-6.246-3.619-.434-.184-.869-.374-1.3-.564-3.887-1.709-6.068-5.2-9.1-8.428-2.87-3.061-5.6-12.863-5.6-12.863l-9.473-2.023s2.66,8.822,3.583,12.589c.543,2.215-.258,4.692-.969,6.577a12.406,12.406,0,0,0-.87,3.186Z" transform="translate(-2261.224 -1512.908)" fill="#ffb27d"/>
          <path id="Path_6480" data-name="Path 6480" d="M2270.42,1558.13c5.086.253,3.55,1.294,10.52,2.557s9.764-.644,10.268-1.587c.449-.835-2.791-2.142-6.245-3.619l-.053.059a19.849,19.849,0,0,1-10.558.125c-4.612-1.251-9.07-4.008-12.247-4.9a12.41,12.41,0,0,0-.871,3.186C2260.95,1557.11,2265.34,1557.88,2270.42,1558.13Z" transform="translate(-2259.496 -1531.605)" fill="#1a1a1a"/>
        </g>
        <path id="Path_6481" data-name="Path 6481" d="M2310.51,1328.24s62.944-4.738,74.794,2.741,30.854,94.589,30.854,94.589a7.729,7.729,0,0,1-3.792,1.224c-2.437.264-7.8-1.168-7.8-1.168s-27.313-38.976-29.236-48.8-1.454-18.581-5.836-18.816-58.99,6.639-67.25-7.913-1.432-28.958-1.432-28.958Z" transform="translate(-2264.568 -1205.641)" fill="#7b0051"/>
        <g id="Group_3301" data-name="Group 3301" transform="translate(114.436 222.681)">
          <path id="Path_6482" data-name="Path 6482" d="M2310.55,1555.23c-.292,3.155,4.1,3.922,9.187,4.175s3.549,1.3,10.519,2.558,9.764-.644,10.269-1.587c.449-.835-2.792-2.142-6.245-3.619-.435-.184-.87-.374-1.3-.564-3.886-1.71-6.068-5.2-9.1-8.427-2.871-3.061-5.6-12.863-5.6-12.863l-9.473-2.023s2.66,8.822,3.583,12.588c.543,2.215-.259,4.692-.97,6.577a12.373,12.373,0,0,0-.865,3.185Z" transform="translate(-2308.805 -1532.881)" fill="#ffb27d"/>
          <path id="Path_6483" data-name="Path 6483" d="M2318,1578.1c5.086.254,3.549,1.3,10.519,2.558s9.764-.644,10.269-1.587c.449-.835-2.792-2.142-6.245-3.619l-.054.059a19.845,19.845,0,0,1-10.558.126c-4.611-1.252-9.069-4.007-12.246-4.9a12.386,12.386,0,0,0-.871,3.187C2308.53,1577.08,2312.92,1577.85,2318,1578.1Z" transform="translate(-2307.076 -1551.577)" fill="#1a1a1a"/>
        </g>
        <path id="Path_6484" data-name="Path 6484" d="M2362.1,1342.87s55.915,2.647,67.465,10.581,27.149,95.718,27.149,95.718a7.726,7.726,0,0,1-3.838,1.075c-2.445.169-7.75-1.471-7.75-1.471s-25.775-40.01-27.315-49.9-.73-18.623-5.1-19.029-59.2,4.337-66.892-10.525S2362.1,1342.87,2362.1,1342.87Z" transform="translate(-2328.495 -1216.369)" fill="#920061"/>
        <path id="Path_6485" data-name="Path 6485" d="M2532.16,1144.98c1.083-1.9,2.382-5.327,3.318-11.52-.122.613-1.719,8.4-5.036,12.642-12.951,7.319-38.547,32.936-38.42,38.121,0,0-7.431-14.767-7.569-14.862,0,0-14.143-20.68,4.922-30.715,9.69-5.1,10.132-12.446,10.168-18.849s4.795-33.665,22.962-25.237c0,0,3.081-1.13,4.408-.842a3.666,3.666,0,0,0-1.7.674,14.5,14.5,0,0,1,7.731,2.02C2539.52,1100.76,2543.31,1136.02,2532.16,1144.98Z" transform="translate(-2479.406 -1092.963)" fill="#1a1a1a"/>
        <path id="Path_6486" data-name="Path 6486" d="M2491.55,1185.87a62.955,62.955,0,0,1,10.414,0,33.47,33.47,0,0,1,9.037,2.267c4.928,2.06,4.411,10.785-5.929,9.17S2490.83,1188.46,2491.55,1185.87Z" transform="translate(-2460.294 -1138.734)" fill="#ffb27d"/>
        <path id="Path_6487" data-name="Path 6487" d="M2516.1,1179.74c.06.032,1.475,7.506-5.3,7.207-4.445-.2-14.031-5.574-13.184-9.38.4-1.809,3.761-6.5,4.437-17.215l.81.216,13.6,3.649s-.6,4.318-.884,8.4C2515.35,1176.05,2515.34,1179.32,2516.1,1179.74Z" transform="translate(-2465.828 -1126.241)" fill="#a16d3c"/>
        <path id="Path_6488" data-name="Path 6488" d="M2511.17,1164.43s-.6,4.318-.884,8.4c-7.7-.731-11.309-8.041-12.72-12.054Z" transform="translate(-2460.529 -1126.451)" fill="#7b4b1d"/>
        <path id="Path_6489" data-name="Path 6489" d="M2482,1130.48s-3.616-6.657-4.223-12.184c-.433-3.946,2.517-18.269,16.9-15.219a19.771,19.771,0,0,1,7.978,3.641c3.012,2.34,7.257,7.242,1.327,19.516l-1.606,4.173Z" transform="translate(-2446.282 -1097.749)" fill="#1a1a1a"/>
        <path id="Path_6490" data-name="Path 6490" d="M2495.72,1145.41s-18.273-.916-17.527-12.287-1.111-19.147,10.587-19.043,13.678,4.591,14.352,8.448S2500.5,1145.35,2495.72,1145.41Z" transform="translate(-2442.76 -1103.39)" fill="#a16d3c"/>
        <path id="Path_6491" data-name="Path 6491" d="M2514.92,1112.06s-5.887,13.005-13.688,14.467-10.991-.816-10.991-.816a21.765,21.765,0,0,0,7.959-12.358S2511.57,1105.46,2514.92,1112.06Z" transform="translate(-2460.564 -1101.092)" fill="#1a1a1a"/>
        <path id="Path_6492" data-name="Path 6492" d="M2475.4,1114.68s3.534,3.227,4.25,6.183.73,8.943,2.48,8.857c0,0,4.37-8.816.481-14.227C2478.49,1109.76,2475.4,1114.68,2475.4,1114.68Z" transform="translate(-2422.355 -1102.718)" fill="#1a1a1a"/>
        <path id="Path_6493" data-name="Path 6493" d="M2514.21,1262.5c-1.479,1.768-6.1,2.311-11.031,3.123-3.882.641-7.962,1.445-10.862,3.149-6.588,3.867-28.108,16.938-34.416,16.343-2.445-.23-1.988-4.9-.507-11.093,2.332-9.782,7.212-23.367,7.212-29.274,0-3.224,1.073-10.853,2.5-19.575q.176-1.055.354-2.128c2.834-16.958,6.758-36.955,6.758-36.955s4.377,9.55,12.905,9.55,6.546-7.282,6.546-7.282,7.781.915,9.619,2.9,6.5,10.539,7.427,12.874c0,0,.188,2.97-7.166,4.384a96.51,96.51,0,0,1,2,13.438c.157,3.971-2.709,16.4-3.534,24.128-.293,2.737-.332,4.886.113,5.86.568,1.249,2.409,2.492,4.5,3.712C2510.8,1258.07,2515.97,1260.4,2514.21,1262.5Z" transform="translate(-2442.962 -1138.949)" fill="#920061"/>
        <path id="Path_6494" data-name="Path 6494" d="M2520.7,1286.66c4.72,8.047-12.8,10.467-15.7,12.171-6.587,3.868-26.73,17.89-33.038,17.3-2.446-.23-1.989-4.9-.507-11.093,2.332-9.782,7.212-23.367,7.212-29.274,0-3.224,1.073-10.853,2.5-19.575l7.593-7.29s8.135,21.027,15.891,24.473a65.27,65.27,0,0,0,11.429,3.721c-.292,2.737-.332,4.886.113,5.86C2516.77,1284.2,2518.61,1285.44,2520.7,1286.66Z" transform="translate(-2457.027 -1169.965)" fill="#7b0051"/>
        <path id="Path_6495" data-name="Path 6495" d="M2473.79,1197.51s-6.491-3.942-12.768,3.537,4.461,60.938,13.761,63.685c10.331,3.051,40.174-.489,40.174-.489l-.575-4.664s-31.769-6.091-33.09-7.789S2477.09,1198.37,2473.79,1197.51Z" transform="translate(-2444.865 -1144.077)" fill="#a16d3c"/>
        <path id="Path_6496" data-name="Path 6496" d="M2550.8,1186.09s-13.332,1.2-17.2,5.588-5,16.267-5,16.267,11.74,9.477,25.886,5.8Z" transform="translate(-2519.545 -1138.948)" fill="#920061"/>
        <g id="Group_3302" data-name="Group 3302" transform="translate(73.21 98.623)">
          <rect id="Rectangle_1087" data-name="Rectangle 1087" width="17.61" height="2.081" transform="translate(0 24.042)" fill="#2b2b2b"/>
          <path id="Path_6497" data-name="Path 6497" d="M2323.21,1313.64c.172-.689,16.188-25.838,16.188-25.838h35.635l-17.874,25.162Z" transform="translate(-2309.343 -1287.797)" fill="#2b2b2b"/>
          <path id="Path_6498" data-name="Path 6498" d="M2323.21,1313.92c.172-.688,16.24-26.122,16.24-26.122h34.084l-17,26.122Z" transform="translate(-2307.844 -1287.797)" fill="#1a1a1a"/>
          <path id="Path_6499" data-name="Path 6499" d="M2366.86,1311.97a2.845,2.845,0,0,1-2.48,1.845,1.271,1.271,0,0,1-1.21-1.845,2.846,2.846,0,0,1,2.481-1.846,1.271,1.271,0,0,1,1.209,1.846Z" transform="translate(-2321.44 -1298.821)" fill="#fff"/>
        </g>
        <path id="Path_6500" data-name="Path 6500" d="M2428.73,1319.05s10.344-2,11.512-1.5,7.675,6.34,7.007,7.508-3.337,2-6.34,1-9.51-1.5-10.678-3A9.809,9.809,0,0,1,2428.73,1319.05Z" transform="translate(-2361.799 -1203.828)" fill="#a16d3c"/>
      </g>
    </g>
  </g>
</svg>
