<svg xmlns="http://www.w3.org/2000/svg" width="788.378" height="647.726" viewBox="0 0 788.378 647.726">
  <g id="verfy-image" transform="translate(-138 -230)">
    <g id="Group_1542" data-name="Group 1542">
      <g id="Group_1536" data-name="Group 1536" transform="translate(711.764 406.511)">
        <path id="Path_2294" data-name="Path 2294" d="M2356.654,1774.866l2.365-17.035-9.935-8.3-3.13,22.553Z" transform="translate(-2289.714 -1319.078)" fill="#ffb27d"/>
        <path id="Path_2295" data-name="Path 2295" d="M2306.715,1804.515h40.5s.97-6.173-1.145-10.856c-2.027-4.494-5.182-7.268-5.469-10.711-2.574,2.65-5.741,4.354-11.6,3.566-.718,1.164-4.632,7.389-7.029,9.111C2319.333,1797.527,2307.53,1796.849,2306.715,1804.515Z" transform="translate(-2272.768 -1333.511)" fill="#1a1a1a"/>
        <path id="Path_2296" data-name="Path 2296" d="M2320.981,1372.377c2.649,21.308,4.815,41.4,6.58,60.121,9.426,99.759,7.576,160.732,7.576,160.732s.681,1.8,6.525,1.832a33.478,33.478,0,0,0,6.539-.7s21.1-65.144,19.476-102.214a56.841,56.841,0,0,0-1.647-12c-5.063-18.966,18.736-91.5-7.135-118.512S2319.762,1362.6,2320.981,1372.377Z" transform="translate(-2278.896 -1146.616)" fill="#fcb200"/>
        <path id="Path_2297" data-name="Path 2297" d="M2320.981,1372.377c2.649,21.308,4.815,41.4,6.58,60.121l40.116,59.647a56.841,56.841,0,0,0-1.647-12c-5.063-18.966,18.736-91.5-7.135-118.512S2319.762,1362.6,2320.981,1372.377Z" transform="translate(-2278.896 -1146.616)" fill="#f0aa01"/>
        <path id="Path_2298" data-name="Path 2298" d="M2257.17,1014.385s.976-4.868,2.075-8.583c.486-1.644-2.9-12.442-5.25-13.771s-8.458,5.943-6.729,11.526c.888,2.869,2.348,12.2,2.348,12.2Z" transform="translate(-2246.963 -991.872)" fill="#ffb27d"/>
        <path id="Path_2299" data-name="Path 2299" d="M2264.929,1023.42s1.275-2.823,2.428-3.28,2.386-5.074,3.232-6.9c0,0-.816-1.2-2.246.343-.872.94-2.815,3.695-2.815,3.695Z" transform="translate(-2254.722 -1000.907)" fill="#ffb27d"/>
        <path id="Path_2300" data-name="Path 2300" d="M2557.682,1052.671c.248.512.593,1.428.9,2.289.005-.235.009-.467.011-.7.016-1.715,6.419-11.047,9.052-11.631s6.348,8.158,3.06,12.991c-1.689,2.482-5.816,10.979-5.816,10.979l-6.823-3.524s-.394-3.073-1.361-3.847-.8-5.55-1.07-7.547C2555.635,1051.686,2556.766,1050.78,2557.682,1052.671Z" transform="translate(-2380.268 -1013.782)" fill="#ffb27d"/>
        <path id="Path_2301" data-name="Path 2301" d="M2474.166,1768.1c.573-5.46.715-19.825.715-19.825s-14.638-4.679-14.1-1.467c2.649,15.794,1.93,23.614,1.93,23.614l5.919,3.536Z" transform="translate(-2339.298 -1317.415)" fill="#ffb27d"/>
        <path id="Path_2302" data-name="Path 2302" d="M2342.557,1385.171s56.548,155.006,67.678,222.243c0,0,2.58,1.772,7.39,1.184,5.456-.666,6.95-4.456,6.95-4.456s10.216-80.586-10.089-108.564c-13.949-19.221,6.016-103.638-26.474-110.407S2342.557,1385.171,2342.557,1385.171Z" transform="translate(-2288.247 -1160.425)" fill="#fcb200"/>
        <path id="Path_2303" data-name="Path 2303" d="M2358.025,1132.047a17.83,17.83,0,0,0,.855,1.892,15.181,15.181,0,0,0,1.643,2.529,22.9,22.9,0,0,1-.684-2.929v-.005c-.091-.515-.17-1.07-.243-1.669a62.572,62.572,0,0,1-.138-11.132,61.065,61.065,0,0,0,.948,11.045c.086.469.184.939.293,1.406a25.732,25.732,0,0,0,1.4,4.454c.1.263.222.524.345.778a113.892,113.892,0,0,1,12.891,14.454c3.168,4.072,6.373,8.512,9.4,12.984,1.168,1.726,2.313,3.449,3.421,5.16l0,.006c.469.722.924,1.43,1.371,2.143,0,0,.006,0,.005.006.561.886,1.1,1.757,1.635,2.626,1.482,2.407,2.86,4.741,4.094,6.956.283.5.561,1,.823,1.49,3.821,7.007,6.1,12.568,5.579,14.7,0,0,.245-.172.7-.484.128-.084.27-.185.43-.294,1.563-1.083,4.641-3.2,8.543-5.843l.255-.787,1.948-6.034c.427,1.356.14,3.754-.15,5.436,6.113-4.134,13.742-9.224,20.654-13.648l.006,0c5.166-3.311,9.923-6.244,13.361-8.138a87.67,87.67,0,0,0-2.166-8.751c2.019.895,3.945,5.128,4.853,7.363.23-.116.453-.215.656-.3,0,0,.378-17.281-22.191-33.585-11.825-8.544-20.211-12.6-18.444-20.952s3.295-45.193-22.749-39.368c0,0-3.69-2.344-5.5-2.342a4.9,4.9,0,0,1,2.031,1.358c-2.832-.589-6.944-.987-10.641.442-2.026.783-4.273,3.322-6.458,7l-.007,0c-.133.24-.272.473-.413.724-.927,1.622-1.833,3.442-2.708,5.407a90.962,90.962,0,0,0-4.111,11.384v.005c-.388,1.333-.75,2.675-1.08,4.04a1.277,1.277,0,0,0-.047.2v.006C2355.8,1112.659,2354.977,1124.267,2358.025,1132.047Z" transform="translate(-2294.084 -1026.134)" fill="#1a1a1a"/>
        <path id="Path_2304" data-name="Path 2304" d="M2368.847,1174.535c-.087.026,7.291,5.366,13.551,4.616,5.887-.7,10.674-7.487,10.6-7.515-2.325-.832-2.526-4.228-.371-18.369l-1.115.052-18.748.9s-.438,5.793-1.229,11.194C2370.872,1169.946,2369.958,1174.205,2368.847,1174.535Z" transform="translate(-2299.6 -1061.573)" fill="#ffb27d"/>
        <path id="Path_2305" data-name="Path 2305" d="M2374.806,1154.257s-.438,5.793-1.229,11.194c10.234,1.229,17-7.267,19.977-12.092Z" transform="translate(-2301.643 -1061.613)" fill="#ed975d"/>
        <path id="Path_2306" data-name="Path 2306" d="M2390.716,1120.5s6.6-7.644,8.951-14.669c1.682-5.015,1.9-24.5-17.7-24.6a26.343,26.343,0,0,0-11.42,2.479c-4.585,2.194-11.5,7.374-7.257,25.038l.909,5.888Z" transform="translate(-2296.629 -1030.458)" fill="#1a1a1a"/>
        <path id="Path_2307" data-name="Path 2307" d="M2316.88,1294.953s24.4,14.5,55.03,7.044c.361-.088,25.223-4.056,25.223-4.056-.427-1.169-3.641-20.375-4.061-21.449-5.434-14.024-15.366-90.136-23.664-93.891-2.119,2.308-8.175,3.887-13.358,3.427-5.968-.527-7.966-3.106-7.471-5.879-6.6,3.122-11.679,6.025-11.679,6.025C2330.864,1195.219,2316.88,1294.953,2316.88,1294.953Z" transform="translate(-2277.158 -1073.182)" fill="#fff"/>
        <path id="Path_2308" data-name="Path 2308" d="M2364.837,1132.8s24.053,3.984,26.3-11.033,6.87-24.617-8.392-27.8-19.111,2.1-21.082,6.933S2358.639,1131.373,2364.837,1132.8Z" transform="translate(-2295.839 -1035.547)" fill="#ffb27d"/>
        <path id="Path_2309" data-name="Path 2309" d="M2380.706,1089.241s3.981,18.6,13.725,22.716,14.543,2.052,14.543,2.052a97.982,97.982,0,0,1-2.281-20.433S2386.934,1081.6,2380.706,1089.241Z" transform="translate(-2304.722 -1032.821)" fill="#1a1a1a"/>
        <path id="Path_2310" data-name="Path 2310" d="M2372.725,1091.427s-5.515,3.2-7.286,6.846-3.483,11.439-5.738,10.83c0,0-3.192-12.716,3.406-18.661C2370.1,1084.14,2372.725,1091.427,2372.725,1091.427Z" transform="translate(-2295.317 -1033.333)" fill="#1a1a1a"/>
        <path id="Path_2311" data-name="Path 2311" d="M2251.223,1031.079a15.375,15.375,0,0,1,4.3-1.329,13.362,13.362,0,0,1,3.779.395s6.786,42.184,7.29,44.42,29.108,34.457,36.819,34.328c6.964-.116,15.214,5.259,16.745,6.293,0,0-16.217,34.293-17.026,40.735-.88,7.009-9.275,114.949-9.275,114.949s.5,5.022-8.883,2.322-11.729-4.934-11.729-4.934,8.618-84.978,10.426-111.4a50.609,50.609,0,0,1,1.646-9.861,9.991,9.991,0,0,0-1.614-8.49c-11.862-16.284-30.594-42.665-31.638-48.272C2250.531,1081.992,2251.223,1031.079,2251.223,1031.079Z" transform="translate(-2248.736 -1008.219)" fill="#920061"/>
        <path id="Path_2312" data-name="Path 2312" d="M2424.95,1804.515h40.5s.971-6.173-1.145-10.856c-2.027-4.494-5.182-7.268-5.47-10.711-2.573,2.65-5.74,4.354-11.6,3.566-.718,1.164-4.631,7.389-7.028,9.111C2437.568,1797.527,2425.765,1796.849,2424.95,1804.515Z" transform="translate(-2323.83 -1333.511)" fill="#1a1a1a"/>
        <path id="Path_2313" data-name="Path 2313" d="M2375.885,1179.394c1.365-8.4,18.793-42.129,18.793-42.129s11.018-3.3,18.27-.668,44.771-18.558,45.974-20.507,21.3-39.4,21.3-39.4,1.666-.965,4.336.426a4.886,4.886,0,0,1,2.654,4.065s-15.51,47.147-19.636,54.441c-2.488,4.4-23.407,19.71-39.626,31.175a10.18,10.18,0,0,0-4.214,9.676c2.181,16.122,2.736,25.2,5.244,52.866,2.081,22.95,2.877,67.381,2.877,67.381s-18.15,6.281-30.676,7.114-15.256-12.371-15.256-12.371S2374.482,1188.031,2375.885,1179.394Z" transform="translate(-2302.589 -1028.363)" fill="#920061"/>
        <path id="Path_2314" data-name="Path 2314" d="M2375.236,1148.316a10.74,10.74,0,0,1-6.372,1.2c-2.364-.354-2.9-3.158-2.9-3.158a9.308,9.308,0,0,1,4.265.009A18.153,18.153,0,0,1,2375.236,1148.316Z" transform="translate(-2298.355 -1058.49)" fill="#fff"/>
      </g>
      <g id="Group_1538" data-name="Group 1538" transform="translate(138 417.306)">
        <path id="Path_2315" data-name="Path 2315" d="M717.986,1072.674s-9.711-9.742-3.865-13.9,9.389-2.807,10.43-.262,1.138,13.687,1.138,13.687Z" transform="translate(-530.584 -1030.373)" fill="#ffb27d"/>
        <path id="Path_2316" data-name="Path 2316" d="M695.516,1155.166a218.126,218.126,0,0,1-31.647,12.4,188.611,188.611,0,0,1-25.355,5.835q-3.047.482-5.886.823c-19.994,2.425-32.023.211-32.023.211s2.133-44.747,16.9-44.814c16.862-.077,54.348,4.838,55.983-.122,1.841-5.586-6.754-46.718-6.754-46.718,6.283-4.846,11.84-3,11.84-3S712.726,1146.861,695.516,1155.166Z" transform="translate(-482.37 -1040.447)" fill="#fcb200"/>
        <path id="Path_2317" data-name="Path 2317" d="M716.706,1210.122a218.11,218.11,0,0,1-31.647,12.4,188.549,188.549,0,0,1-25.355,5.835c-8.328-12.828-15.5-26.3-4.2-20.117C675.428,1219.151,716.706,1210.122,716.706,1210.122Z" transform="translate(-503.559 -1095.403)" fill="#f0aa01"/>
        <path id="Path_2318" data-name="Path 2318" d="M584.761,1787.393s-1.292,14.947,1.867,16.5l40.435-.083s0-4.667-6.494-5.7-17.9-4.839-19.835-13.308S584.761,1787.393,584.761,1787.393Z" transform="translate(-475.414 -1343.689)" fill="#1a1a1a"/>
        <path id="Path_2319" data-name="Path 2319" d="M598.132,1437.788c-.2,9.774-.669,19.855-1.589,28.915-4.367,42.993-5.9,94.937-6.53,104.952-1.088,17.385-4.522,45.158-4.522,45.158s-6.812,6.467-20.09,3.381c0,0-11-40-13.458-82.123-.038-.691-.076-1.386-.111-2.08-.286-5.569-.583-11.937-.889-18.8-2.023-45.989-4.221-114.307-4.221-114.307l50.74-11.914S598.63,1413.424,598.132,1437.788Z" transform="translate(-459.099 -1174.985)" fill="#2b2b2b"/>
        <path id="Path_2320" data-name="Path 2320" d="M598.132,1437.788c-12.859,22.186-37.37,63.06-47.188,79.4-2.023-45.989-4.221-114.307-4.221-114.307l50.74-11.914S598.63,1413.424,598.132,1437.788Z" transform="translate(-459.099 -1174.985)" fill="#1a1a1a"/>
        <path id="Path_2321" data-name="Path 2321" d="M403.051,1397.733s-8.256,9.709-9,12.4-2.066,12.393-1.357,15.307,6.2-8.127,8.194-9.307-1.5,4.392-.816,5.322,4.625-3.252,6.163-4.667,1.385-9.031,3.23-13.534S403.051,1397.733,403.051,1397.733Z" transform="translate(-392.493 -1177.906)" fill="#ffb27d"/>
        <path id="Path_2322" data-name="Path 2322" d="M403.126,1759.526s-7.2,6.568-5.793,11.234,7.9,7.777,8.776,13.481,4.388,8.815,7.548,8.815h15.063s2.325-4.013-3.291-5.223-7.735-7.912-7.384-14.134a109.652,109.652,0,0,0-.527-14.518l-11.936-2.766Z" transform="translate(-394.505 -1332.809)" fill="#1a1a1a"/>
        <path id="Path_2323" data-name="Path 2323" d="M529.414,1402.032s-47.5,101.627-72.774,146.219-33.175,57.036-33.175,57.036-14.481-5.7-15.8-9.593c0,0,9.666-86.086,26.593-107.071,9.565-11.857,20.8-47.443,21.327-59.887s11.623-42.146,11.623-42.146Z" transform="translate(-399.046 -1173.094)" fill="#2b2b2b"/>
        <path id="Path_2324" data-name="Path 2324" d="M581.951,1310.15s-18.889,12.628-45.622,11.455c-11.733-.513-35-3.839-38.761-13.169-.882-2.191-.235-4.97,1.088-9.238,3.433-11.091,11.436-32.21,9.019-79.037a76.8,76.8,0,0,1,.315-12.289c2.518-23.065,15.736-36.725,28.512-41.188,31.159-10.89,41.546,4.2,41.546,4.2s13.773,10.912,15.849,33.684C598.046,1250.114,581.951,1310.15,581.951,1310.15Z" transform="translate(-437.696 -1076.418)" fill="#fcb200"/>
        <path id="Path_2325" data-name="Path 2325" d="M583.567,1156.232s16.218,4.121,30.323-2.777c0,0,2.7-1.644.206-4.643a45.926,45.926,0,0,0-.092-4.994,72.489,72.489,0,0,0-.6-8.01l-11.125-6.263-11.933-5.621a55.551,55.551,0,0,1,1.152,7.71C593.215,1149.263,583.567,1156.232,583.567,1156.232Z" transform="translate(-475.011 -1059.658)" fill="#ffb27d"/>
        <path id="Path_2326" data-name="Path 2326" d="M599.8,1135.864s8.332,10.833,21.212,12.227c-.156-5.148-.834-10.375-.834-10.375l-10.891-3.9Z" transform="translate(-482.023 -1063.931)" fill="#ed985f"/>
        <path id="Path_2327" data-name="Path 2327" d="M622.183,1108.023s-25.09,11.263-31.839-4.208-14.532-24.437,1.2-32.283,21.443-3.292,24.973,1.322S628.536,1104.695,622.183,1108.023Z" transform="translate(-474.482 -1035.194)" fill="#ffb27d"/>
        <path id="Path_2328" data-name="Path 2328" d="M563.135,1066.351c-.311-.21-.919-.284-2.159-.026a5.136,5.136,0,0,1,2.113-1.25c-.2-1.768-.092-5.016,2.639-6.525a3.794,3.794,0,0,0-1.074,3.118c2.463-4.38,9.049-8.843,29.574-12.6,27.049-4.951,22.826,14.333,19.934,17.267s-13-.315-19.255,1.891-5.017,11.763-6.847,13.606-1.574-.624-4.86-1.17-2.273,4.389-.586,7.324-1.235,8.175-1.235,8.175l-5.238-3.3c-5.239-3.3-14.016-20.861-13.217-25.314C562.995,1067.149,563.062,1066.751,563.135,1066.351Z" transform="translate(-465.255 -1026.981)" fill="#1a1a1a"/>
        <g id="Group_1537" data-name="Group 1537" transform="translate(135.457)">
          <path id="Path_2329" data-name="Path 2329" d="M678.976,1072.781,636.7,1086.159l-2.245-6.288,41.255-16.236Z" transform="translate(-632.445 -1033.621)" fill="#008dbf"/>
          <path id="Path_2330" data-name="Path 2330" d="M731.685,1053.469l-45.949,14.823-4.083-11.433,44.928-17.681Z" transform="translate(-652.828 -1023.058)" fill="#008dbf"/>
          <path id="Path_2331" data-name="Path 2331" d="M791.222,1034.794l-38.905,11.985-5.512-15.435,37.68-15.415Z" transform="translate(-680.965 -1013.018)" fill="#027fab"/>
          <path id="Path_2332" data-name="Path 2332" d="M819.7,1035.053h0a2.277,2.277,0,0,0,1.378-2.909l-7.08-19.828a2.276,2.276,0,0,0-2.909-1.378h0a2.275,2.275,0,0,0-1.378,2.909l7.08,19.827A2.276,2.276,0,0,0,819.7,1035.053Z" transform="translate(-708.072 -1010.806)" fill="#027fab"/>
          <path id="Path_2333" data-name="Path 2333" d="M635.459,1098.85h0a2.023,2.023,0,0,1-2.586-1.225l-1.837-5.145a2.023,2.023,0,0,1,1.225-2.586h0a2.023,2.023,0,0,1,2.586,1.225l1.837,5.145A2.023,2.023,0,0,1,635.459,1098.85Z" transform="translate(-630.917 -1044.91)" fill="#027fab"/>
        </g>
        <path id="Path_2334" data-name="Path 2334" d="M499.791,1333.47c3.433-11.09,11.436-32.21,9.019-79.037a76.81,76.81,0,0,1,.315-12.289h0c10.254-.882,25.929,10.2,25.929,10.2S525.4,1311.2,499.791,1333.47Z" transform="translate(-438.831 -1110.692)" fill="#f0aa01"/>
        <path id="Path_2335" data-name="Path 2335" d="M505.937,1165.08s-26.293,4.52-40.007,21.261-35.773,40.348-40.988,48.614-19.694,64.522-19.694,64.522.955,1.809,4.948,2.861a9.416,9.416,0,0,0,6.595-.555s19.183-32.83,26.4-49.23c3-6.814,54.876-33.8,74.379-31C525.232,1222.647,505.937,1165.08,505.937,1165.08Z" transform="translate(-398.001 -1077.431)" fill="#fcb200"/>
        <path id="Path_2336" data-name="Path 2336" d="M711.626,1055.255s5.685.66,8.683-1.2c2.912-1.806,2.175-3.074,2.175-3.074S711.887,1052.052,711.626,1055.255Z" transform="translate(-530.315 -1028.156)" fill="#ffb27d"/>
        <path id="Path_2337" data-name="Path 2337" d="M549.6,1196.383s-11.539,72.851-93.409,94.061l-8.918,17.595,15.667,2.652s93.206-27,91.951-115.6Z" transform="translate(-416.151 -1090.394)" fill="#920061"/>
        <path id="Path_2338" data-name="Path 2338" d="M621.363,1176.9l-3.779.37v5.47l5.567,5.788,5.294-1.288v-7.591l-3.805-2.748Z" transform="translate(-489.702 -1082.534)" fill="#920061"/>
        <path id="Path_2339" data-name="Path 2339" d="M588.615,1152.2s-4.2,1.471-11.638,7.32c0,0,8.317,17.654,25.864,19.768,0,0-.284-8.193.985-13.056C603.827,1166.228,589.536,1161.7,588.615,1152.2Z" transform="translate(-472.165 -1071.867)" fill="#f0aa01"/>
        <path id="Path_2340" data-name="Path 2340" d="M624.236,1172.937s8.562,4.546,9.2,11.628c0,0,3.175-5.161,2.324-8.777a18.083,18.083,0,0,0-4.1-8.058S632.164,1172.408,624.236,1172.937Z" transform="translate(-492.575 -1078.576)" fill="#f0aa01"/>
      </g>
      <g id="Group_1541" data-name="Group 1541">
        <path id="Path_2293" data-name="Path 2293" d="M1287.222,1421.3a38.264,38.264,0,0,0-37.33,29.88,20.006,20.006,0,0,0-25.377-1.615,27.646,27.646,0,0,0,.146-2.841,27.366,27.366,0,0,0-27.366-27.366c-.792,0-1.576.036-2.351.1v-205.18l-36.872-41.228-49.7,65.378v162.921c-.8-.05-1.6-.078-2.406-.078a38.05,38.05,0,0,0-38.05,38.05q0,.971.049,1.93a32.036,32.036,0,0,0-17.2.045,38.552,38.552,0,0,0-76.295,7.854,39.009,39.009,0,0,0,.226,4.18,19.08,19.08,0,1,0-9.631,35.552h336.459v-.135c4.617,0,23.952-8.073,23.952-29.2A38.252,38.252,0,0,0,1287.222,1421.3Z" transform="translate(-613.71 -611.16)" fill="#fff"/>
        <g id="Group_1540" data-name="Group 1540" transform="translate(433.576 233.274)">
          <path id="Path_2341" data-name="Path 2341" d="M1388.643,1277.921c-28.264,15.03-33.444,57.463-16.054,86.693,4.81-22.811,16.125-35.141,16.125-35.141-7.147,49.2,16.026,78.748,16.026,78.748,44.4-43.849,25.94-96.147,25.94-96.147,13.69,20.479,10.758,39.59,10.758,39.59,31.422-41.81-4.865-72.88-4.865-72.88C1404.739,1271.676,1388.643,1277.921,1388.643,1277.921Z" transform="translate(-1304.535 -941.365)" fill="#fcb200"/>
          <path id="Path_2342" data-name="Path 2342" d="M1440.475,1273.036c-14.8,11.344-8.105,30.214-8.105,30.214,5.549-13.32,9.4-16.835,9.4-16.835-6.29,24.42,8.807,46.929,8.807,46.929,25.6-24.359,13.746-48.161,13.746-48.161,10.267,4.717,10.022,18.283,10.022,18.283,7.033-16.927-4.621-29.691-4.621-29.691C1456.4,1272.111,1440.475,1273.036,1440.475,1273.036Z" transform="translate(-1346.705 -939.756)" fill="#f0aa01"/>
          <g id="Group_1539" data-name="Group 1539" transform="translate(0)">
            <path id="Path_2343" data-name="Path 2343" d="M1317.178,1048.934h-53.785a40.525,40.525,0,0,0-39.845,33.132l-12.667,68.275a2.338,2.338,0,0,0,3.587,2.379l102.71-67.745Z" transform="translate(-1210.839 -801.527)" fill="#008dbf"/>
            <path id="Path_2344" data-name="Path 2344" d="M1282.182,1094.814c-4.652-21.631-31.759-35.141-31.759-35.141,14.478,46.64-15.458,73.628-37.46,86.07l-2.083,11.23a2.338,2.338,0,0,0,3.587,2.379l70.479-46.486A137.753,137.753,0,0,0,1282.182,1094.814Z" transform="translate(-1210.839 -808.159)" fill="#027fab"/>
            <path id="Path_2345" data-name="Path 2345" d="M1488.863,1048.934h53.786a40.525,40.525,0,0,1,39.845,33.132l12.667,68.275a2.338,2.338,0,0,1-3.586,2.379l-102.711-67.745Z" transform="translate(-1382.524 -801.527)" fill="#008dbf"/>
            <path id="Path_2346" data-name="Path 2346" d="M1628.917,1181.757a2.338,2.338,0,0,0,3.586-2.379l-12.667-68.275a40.414,40.414,0,0,0-6.164-15.148c9.986,50.142,2.819,71.146-19.407,56.759s-27.777-28.716-25.557-45.265c-9.291,6.706-15.561,14.117-19.372,21.818Z" transform="translate(-1419.867 -830.564)" fill="#027fab"/>
            <path id="Path_2347" data-name="Path 2347" d="M1329.708,734.642h43.52c24.194-24.194,63.34-101.386,63.34-185.664,0-100.334-85.1-146.89-85.1-146.89s-85.1,46.556-85.1,146.89C1266.368,633.256,1304.249,709.183,1329.708,734.642Z" transform="translate(-1245.129 -402.088)" fill="#920061"/>
            <path id="Path_2348" data-name="Path 2348" d="M1446.888,687.707c-23.7,28.659-40.187,36.506-69.14,18.863,7.165,12.1,14.345,21.677,20.739,28.072h43.52c24.194-24.194,63.34-101.386,63.34-185.664,0-100.334-85.1-146.89-85.1-146.89C1515.708,469.221,1488.328,635.906,1446.888,687.707Z" transform="translate(-1313.908 -402.088)" fill="#7b0051"/>
            <ellipse id="Ellipse_36" data-name="Ellipse 36" cx="48.772" cy="48.772" rx="48.772" ry="48.772" transform="translate(58.266 71.769)" fill="#005674"/>
            <ellipse id="Ellipse_37" data-name="Ellipse 37" cx="48.772" cy="48.772" rx="48.772" ry="48.772" transform="translate(55.182 69.919)" fill="#008dbf"/>
            <ellipse id="Ellipse_38" data-name="Ellipse 38" cx="3.515" cy="3.515" rx="3.515" ry="3.515" transform="translate(100.439 74.153)" fill="#fcb200"/>
            <ellipse id="Ellipse_39" data-name="Ellipse 39" cx="3.515" cy="3.515" rx="3.515" ry="3.515" transform="translate(99.357 161.604) rotate(-67.366)" fill="#fcb200"/>
            <ellipse id="Ellipse_40" data-name="Ellipse 40" cx="3.515" cy="3.515" rx="3.515" ry="3.515" transform="translate(59.417 115.175)" fill="#fcb200"/>
            <ellipse id="Ellipse_41" data-name="Ellipse 41" cx="3.515" cy="3.515" rx="3.515" ry="3.515" transform="matrix(0.381, -0.925, 0.925, 0.381, 140.388, 120.603)" fill="#fcb200"/>
            <path id="Path_2349" data-name="Path 2349" d="M1403.6,628.4a3.515,3.515,0,1,1-4.971,0A3.515,3.515,0,0,1,1403.6,628.4Z" transform="translate(-1326.166 -541.207)" fill="#fcb200"/>
            <path id="Path_2350" data-name="Path 2350" d="M1555.277,780.084a3.515,3.515,0,1,0,0,4.971A3.515,3.515,0,0,0,1555.277,780.084Z" transform="translate(-1419.831 -634.872)" fill="#fcb200"/>
            <path id="Path_2351" data-name="Path 2351" d="M1398.627,780.084a3.515,3.515,0,1,1,0,4.971A3.515,3.515,0,0,1,1398.627,780.084Z" transform="translate(-1326.166 -634.872)" fill="#fcb200"/>
            <path id="Path_2352" data-name="Path 2352" d="M1550.307,628.4a3.515,3.515,0,1,0,4.97,0A3.515,3.515,0,0,0,1550.307,628.4Z" transform="translate(-1419.831 -541.207)" fill="#fcb200"/>
            <circle id="Ellipse_42" data-name="Ellipse 42" cx="32.61" cy="32.61" r="32.61" transform="translate(59.439 119.677) rotate(-45)" fill="#fff"/>
            <path id="Path_2353" data-name="Path 2353" d="M1398.97,660.741a32.619,32.619,0,0,1,48.837-28.293,32.614,32.614,0,1,0-34.055,55.6A32.579,32.579,0,0,1,1398.97,660.741Z" transform="translate(-1326.023 -541.064)" fill="#5d8dd4"/>
            <path id="Path_2354" data-name="Path 2354" d="M1412.946,678.285a35.563,35.563,0,0,1,35.563-35.562c.385,0,.768.008,1.151.021a28.183,28.183,0,0,0-36.693,36.693C1412.954,679.054,1412.946,678.67,1412.946,678.285Z" transform="translate(-1334.387 -549.428)" opacity="0.1"/>
            <path id="Path_2355" data-name="Path 2355" d="M1465.217,1268.561h-51.4a4.865,4.865,0,0,1-4.865-4.865h0a4.865,4.865,0,0,1,4.865-4.865h51.4a4.866,4.866,0,0,1,4.866,4.865h0A4.866,4.866,0,0,1,1465.217,1268.561Z" transform="translate(-1333.179 -931.142)" fill="#008dbf"/>
            <path id="Path_2356" data-name="Path 2356" d="M1467.244,1258.83h-.83a4.865,4.865,0,0,1-3.609,8.127h-50.566a4.853,4.853,0,0,0,3.609,1.6h51.4a4.865,4.865,0,0,0,4.866-4.865h0A4.865,4.865,0,0,0,1467.244,1258.83Z" transform="translate(-1335.207 -931.142)" fill="#027fab"/>
          </g>
        </g>
      </g>
    </g>
    <g id="Group_178" data-name="Group 178" transform="translate(278 230)">
      <path id="Path_31" data-name="Path 31" d="M169.706,97.6h3.913a14.9,14.9,0,0,0,14.9,14.9v3.913a14.9,14.9,0,0,0-14.9,14.9h-3.913a14.9,14.9,0,0,0-14.9-14.9v-3.913A14.9,14.9,0,0,0,169.706,97.6Z" transform="translate(-127.953 -53.581)" fill="#1a1a1a"/>
      <path id="Path_32" data-name="Path 32" d="M154.855,73.775h1.73a14.9,14.9,0,0,0,14.9,14.9v1.729a14.9,14.9,0,0,0-14.9,14.9h-1.73a14.9,14.9,0,0,0-14.9-14.9V88.678A14.9,14.9,0,0,0,154.855,73.775Z" transform="translate(-139.954 -72.838)" fill="none" stroke="#1a1a1a" stroke-miterlimit="10" stroke-width="0.5"/>
      <path id="Path_33" data-name="Path 33" d="M181.711,73.257h0a14.9,14.9,0,0,0,14.9,14.9h0a14.9,14.9,0,0,0-14.9,14.9h0a14.9,14.9,0,0,0-14.9-14.9h0A14.9,14.9,0,0,0,181.711,73.257Z" transform="translate(-118.249 -73.257)" fill="#920061"/>
    </g>
    <path id="Path_315" data-name="Path 315" d="M426.443,320.675h3.208a21.282,21.282,0,0,0,21.283,21.28v3.208a21.282,21.282,0,0,0-21.283,21.28h-3.208a21.28,21.28,0,0,0-21.28-21.28v-3.208A21.28,21.28,0,0,0,426.443,320.675Z" transform="translate(475.443 299.86)" fill="#920061"/>
  </g>
</svg>
