<svg xmlns="http://www.w3.org/2000/svg" width="84.931" height="101.776" viewBox="0 0 84.931 101.776">
  <g id="white-label-icon" transform="translate(-38.82 2.432)">
    <g id="Group_43343" data-name="Group 43343" transform="translate(42.239 59.204)">
      <path id="Path_77310" data-name="Path 77310" d="M71.665,326.466,60.41,329.341l.263-10.541-2.217,3.946L46.3,344.259l13.885-3.852,3.852,13.941,9.939-17.568,1.278-2.292Z" transform="translate(-46.3 -318.105)" fill="#5cc7ff" stroke="#000" stroke-width="3"/>
      <path id="Path_77311" data-name="Path 77311" d="M325.028,319.046l-2.217-3.946.282,11.236-11.255-2.875-3.438,7.647,1.3,2.292,10.146,17.943,3.852-13.941,13.885,3.852Z" transform="translate(-259.154 -315.1)" fill="#5cc7ff" stroke="#000" stroke-width="3"/>
    </g>
    <g id="Group_43344" data-name="Group 43344" transform="translate(54.152 59.204)">
      <path id="Path_77312" data-name="Path 77312" d="M126.742,334.489l-1.278,2.292-3.514-7.816L109.7,332.1l.244-9.357,2.217-3.946-.263,10.541,11.255-2.875Z" transform="translate(-109.7 -318.105)" fill="#28749c"/>
      <path id="Path_77313" data-name="Path 77313" d="M325.291,329.1l-12.25-3.138L309.7,333.4l-1.3-2.292,3.438-7.647,11.255,2.875-.282-11.236,2.217,3.946Z" transform="translate(-271.066 -315.1)" fill="#28749c"/>
    </g>
    <path id="Path_77309" data-name="Path 77309" d="M111.965,46.127l9.263-7.027-9.263-7.046L117.282,21.7l-11.4-2.292.3-11.649L94.924,10.635,90.151,0,81.264,7.516,72.377,0,67.6,10.635,56.35,7.741l.3,11.668L45.246,21.7l5.317,10.353L41.3,39.1l9.263,7.027L45.246,56.5l11.4,2.292-.3,11.649L67.6,67.565,72.377,78.2l8.887-7.516L90.151,78.2l4.772-10.635,11.255,2.875-.3-11.649,11.4-2.292Z" transform="translate(0)" fill="#fcb200" stroke="#000" stroke-width="3"/>
    <ellipse id="Ellipse_2376" data-name="Ellipse 2376" cx="24.82" cy="24.895" rx="24.82" ry="24.895" transform="translate(56.444 14.204)" fill="#d59907"/>
    <path id="Path_77314" data-name="Path 77314" d="M181.976,165.447l-9.376-9.394,4.34-4.359,5.035,5.054L198.848,139.8l4.34,4.359Z" transform="translate(-106.63 -113.533)" fill="#f2f2f2"/>
  </g>
</svg>
